<?xml version="1.0" standalone="no"?>
<svg version="1.1" id="Layer_1" xmlns="http://www.w3.org/2000/svg" xmlns:xlink="http://www.w3.org/1999/xlink" x="0px" y="0px" width="595.28px" height="595.28px" viewBox="0 0 595.28 595.28" enable-background="new 0 0 595.28 595.28" xml:space="preserve">
<path id="color_x5F_8" fill="#c62d6a" d="M303.84,232.917c-1.441-2.354-1.601-4.883-0.213-6.193c1.188-1.12,3.197-1.06,5.173-0.034
	c1.975-1.026,3.983-1.086,5.171,0.034c1.39,1.31,1.229,3.838-0.211,6.191c-0.357,0.584-0.793,1.157-1.304,1.698
	c-1.118,1.186-2.411,2.021-3.656,2.453c-1.247-0.431-2.539-1.267-3.658-2.453C304.631,234.072,304.196,233.499,303.84,232.917z
	 M331.957,197.325c1.632,1.729,3.517,2.947,5.334,3.576c1.815-0.629,3.702-1.848,5.332-3.576c0.745-0.789,1.38-1.624,1.9-2.476
	c2.1-3.432,2.334-7.118,0.309-9.029c-1.731-1.633-4.661-1.545-7.541-0.049c-2.88-1.496-5.812-1.584-7.542,0.049
	c-2.024,1.911-1.792,5.597,0.309,9.03C330.578,195.701,331.213,196.537,331.957,197.325z M231.195,304.635
	c-0.535-0.71-1.036-1.402-1.497-2.072c-0.736-1.069-1.374-2.082-1.901-3.023c-0.357-0.639-0.641-1.229-0.887-1.793
	c-0.125-0.288-0.258-0.58-0.352-0.846c-0.153-0.426-0.19-0.896-0.138-1.393c0.101-0.39,0.238-0.776,0.398-1.16
	c0.048-0.118,0.108-0.233,0.163-0.35c0.126-0.265,0.26-0.53,0.409-0.788c0.075-0.126,0.153-0.251,0.232-0.376
	c0.164-0.256,0.343-0.505,0.53-0.751c0.08-0.105,0.158-0.214,0.244-0.317c0.563-0.684,1.217-1.317,1.941-1.882
	c0.104-0.082,0.217-0.157,0.326-0.237c0.266-0.195,0.541-0.383,0.824-0.559c0.131-0.082,0.264-0.159,0.399-0.236
	c0.29-0.166,0.587-0.317,0.889-0.461c0.126-0.058,0.25-0.121,0.377-0.175c0.431-0.187,0.869-0.354,1.319-0.488
	c0.015-0.003,0.025-0.006,0.038-0.01c0.058-0.018,0.118-0.026,0.175-0.043c0.326-0.089,0.651-0.173,0.983-0.234
	c0.015-0.003,0.029-0.006,0.044-0.008c0.394-0.071,0.791-0.123,1.192-0.149c0.011,0,0.024-0.001,0.034-0.001
	c0.401-0.028,0.806-0.031,1.209-0.01c0.026,0.002,0.053,0.005,0.078,0.008c0.34,0.018,0.682,0.062,1.021,0.117
	c0.052,0.008,0.102,0.008,0.152,0.018c0.061,0.011,0.119,0.029,0.177,0.041c0.125,0.025,0.248,0.063,0.372,0.093
	c0.235,0.053,0.471,0.102,0.705,0.174c0.423,0.137,0.846,0.293,1.264,0.494c0.049,0.023,0.096,0.048,0.143,0.073
	c0.411,0.2,0.818,0.426,1.221,0.694c0.654,0.435,1.493,1.237,2.448,2.276c0.002-0.001,0-0.001,0.002-0.002
	c0,0.001,0,0.001,0.001,0.001c0.939,1.027,1.992,2.296,3.102,3.705c0.229,0.292,0.462,0.594,0.695,0.896
	c0.533-6.217,0.793-12.871,0.723-19.873c-0.062-6.105-0.371-12.47-0.985-19.053c-0.004-0.042-0.007-0.084-0.011-0.126
	c0.025-0.01,0.048-0.023,0.073-0.033c4.162-1.74,7.09-5.843,7.09-10.637c0-0.863-0.299-2.164-0.794-3.73
	c-2.539-8.038-10.322-23.167-10.322-23.167c-0.038-1.233,0.152-3.25-0.485-4.631c-1.694-1.072-3.51-2.615-5.299-4.483l-7.644,13.247
	l-5.072-6.223c-5.79,5.292-14.146,9.913-26.23,10.988c-1.833,0.163-3.595,0.136-5.295-0.031c-0.646,2.791-0.912,5.785-0.731,8.915
	c0.078,1.362,23.979,48.46,8.882,58.612c-5.748,3.865-8.142,13.512-9.119,19.916c-0.219,1.438-0.368,2.716-0.467,3.724h50.783
	C239.416,314.398,234.601,309.16,231.195,304.635z M299.949,300.615h8.36h0.045c1.223,0,2.356-0.318,3.294-0.86
	c1.531-0.884,2.536-2.367,2.536-4.049c0-0.146-0.015-0.288-0.03-0.431c1.179,0.074,2.467-0.392,3.463-1.389l0.025-0.023l4.345-4.345
	l0.023-0.024c1.673-1.673,1.888-4.172,0.479-5.582c-0.096-0.096-0.196-0.183-0.303-0.263c-1.245-1.306-2.069-2.468-3.63-0.908
	l-1.649,1.649l-4.392,4.393l-1.65,1.65c-0.126,0.126-0.229,0.246-0.32,0.363h-2.19h-3.457h-1.783h-3.211h-3.174
	c-3.001,0-2.676,1.91-2.618,4.365c-0.024,0.179-0.038,0.36-0.038,0.544c0,2.289,1.862,4.206,4.379,4.75
	c0.465,0.1,0.949,0.159,1.451,0.159H299.949z"></path>
<path id="color_x5F_7" fill="#50b7e3" d="M291.402,286.243c0-0.435,0.352-0.786,0.786-0.786h5.033c0.434,0,0.787,0.351,0.787,0.786
	c0,0.434-0.354,0.786-0.787,0.786h-5.033C291.754,287.029,291.402,286.677,291.402,286.243z M303.828,273.817
	c-0.434,0-0.785,0.352-0.785,0.786v5.033c0,0.434,0.352,0.786,0.785,0.786c0.435,0,0.786-0.352,0.786-0.786v-5.033
	C304.614,274.169,304.263,273.817,303.828,273.817z M298.602,282.127c0.153,0.153,0.354,0.23,0.557,0.23
	c0.199,0,0.402-0.077,0.555-0.23c0.307-0.307,0.307-0.804,0-1.111l-3.56-3.559c-0.308-0.308-0.804-0.308-1.112,0
	c-0.306,0.307-0.306,0.803,0,1.11L298.602,282.127z M311.503,277.458l-3.56,3.559c-0.307,0.307-0.307,0.804,0,1.111
	c0.154,0.153,0.355,0.23,0.557,0.23s0.401-0.077,0.556-0.23l3.56-3.56c0.307-0.307,0.307-0.803,0-1.11
	C312.309,277.15,311.811,277.15,311.503,277.458z M304.897,285.812c0-0.492-0.399-0.891-0.892-0.891s-0.892,0.399-0.892,0.891v4.985
	h1.783V285.812z M392.108,408.416l1.056-42.392l0.463-18.609c0.242-1.255-2.647-41.275-22.322-41.275l-25.368,0.17
	c-0.006,0.002-0.012,0.004-0.018,0.006c-18.685,5.69-17.332,33.396-15.5,47.599c3.37,1.549,6.906,3.174,9.226,4.243l4.715-17.885
	l28.269,0.246L355.154,376.1l-0.009-0.005c-1.108,2.161-2.993,3.933-5.454,4.831c-1.332,0.487-2.701,0.67-4.032,0.59
	c-0.185,0.015-0.369,0.024-0.549,0.002c-0.833-0.103-1.788-0.323-2.845-0.643c-0.359-0.108-2.938-1.24-6.193-2.689l4.021,14.562
	l1.662,6.021c0.773,2.372,5.684,8.522,5.684,8.522h0.002l44.66,1.41L392.108,408.416z"></path>
<path id="color_x5F_6" fill="#4a4a4a" d="M318.599,508.34h9.556v12.853h-29.731L318.599,508.34z M221.42,512.884
	c1.89,2.332,3.143,5.184,3.497,8.309h26.234l-20.176-12.853h-0.819h-8.736V512.884z M221.42,521.192h3.497
	c-0.354-3.125-1.607-5.977-3.497-8.309V521.192z M359.336,265.55c-3.614,3.717-5.532,8.154-5.121,12.184
	c1.007-1.15,2.26-2.061,3.696-2.511c2.739-0.865,6.253,0.18,7.454,2.992c0.894,2.099-0.157,4.216-2.007,5.39
	c-0.806,0.516-1.675,0.862-2.57,1.03c-0.854,0.169-1.732,0.188-2.587,0.058c1.129,0.85,2.451,1.512,3.926,1.978
	c2.765,0.892,6.042,1.081,9.469,0.503c0.044,0,0.077-0.005,0.115-0.017c0.303-0.051,0.611-0.139,0.917-0.203
	c1.329-0.276,2.669-0.635,4.009-1.143c0.707-0.27,1.412-0.573,2.118-0.902c2.606-1.234,7.88-5.555,10.147-10.718
	c2.902-6.61,5.074-17.368-10.155-24.293l-0.062-0.021c-0.193-0.078-0.4-0.15-0.605-0.223c-4.104-1.461-2.845-0.433-6.502-1.56
	c-0.716-0.221-1.626-0.529-2.801-0.946c-5.139-1.853-7.53-5.958-11.873-7.504c-5.876-2.091-12.355,1.053-14.473,7.009
	c-2.106,5.917,0.87,12.386,6.66,14.528l0.008,0.002l0.124,0.044C350.066,261.523,360.512,265.62,359.336,265.55z M349.199,270.044
	c-0.582-0.216-1.354,0.374-1.715,1.321c-0.357,0.946-0.186,1.887,0.402,2.104c0.579,0.214,1.351-0.376,1.714-1.324
	C349.962,271.202,349.786,270.261,349.199,270.044z M200.574,228.137c12.085-1.076,20.44-5.696,26.23-10.988
	c2.738-2.502,4.899-5.154,6.609-7.654c4.052-5.924,5.559-10.991,6.119-11.167c-0.101-0.024-0.208-0.063-0.305-0.097
	c-2.534-0.908-3.848-3.741-2.921-6.33c0.319-0.892,0.849-1.623,1.531-2.179c0.391-0.478,0.918-0.871,1.578-1.12
	c2.856-1.074,6.05,0.736,7.32,3.313c0.671,1.342,0.883,2.885,0.751,4.401c3.195-2.492,5.069-6.947,5.241-12.133
	c-0.866-0.795,9.326,3.908,10.13,4.305l0.112,0.063l0.008,0.004c5.558,2.692,12.281,0.361,15.095-5.261
	c2.834-5.65,0.611-12.506-4.972-15.292c-4.12-2.069-8.739-0.947-13.629-3.365c-1.117-0.57-1.968-1.007-2.622-1.375
	c-3.35-1.854-1.732-1.662-5.632-3.604c-0.191-0.105-0.388-0.2-0.578-0.28l-0.061-0.034c-11.548-4.607-17.976-0.801-21.642,4.188
	l-0.005,0.011c-0.572,0.789-1.078,1.589-1.527,2.411c-2.645,3.73-8.076,8.185-16.003,7.528c-49.192-4.071-48.46,39.804-25.68,51.79
	c2.854,1.502,6.063,2.489,9.556,2.832C196.979,228.273,198.742,228.3,200.574,228.137z M257.249,198.372
	c-0.167-0.561-0.438-1.078-0.857-1.448c-0.224-0.196-0.485-0.355-0.804-0.451c-0.967-0.289-1.869,0.198-2.559,0.857
	c-0.202,0.198-0.138,0.433,0.028,0.574c0.133,0.113,0.329,0.169,0.51,0.101c0.02-0.005,0.035-0.016,0.052-0.025
	c0.011-0.005,0.022-0.009,0.033-0.016c0.029-0.017,0.055-0.039,0.082-0.065c0.125-0.116,0.249-0.214,0.376-0.294
	c0.968-0.611,2.009-0.142,2.311,1.106c0.116,0.484,0.817,0.476,0.9,0.085c0.005-0.023,0.007-0.049,0.005-0.077
	c0-0.004,0.003-0.008,0.002-0.013c0-0.031-0.005-0.066-0.014-0.102C257.296,198.527,257.271,198.449,257.249,198.372z
	 M442.545,500.485l15.255,20.381v-28.871h-2.841h-12.414v8.388V500.485z"></path>
<path id="color_x5F_5" fill="#e8b699" d="M371.711,287.155c-0.038,0.012-0.071,0.017-0.115,0.017
	c-3.427,0.578-6.704,0.389-9.469-0.503c-1.475-0.466-2.797-1.128-3.926-1.978c0.854,0.13,1.732,0.111,2.587-0.058
	c0.896-0.167,1.765-0.514,2.57-1.03c1.85-1.174,2.9-3.291,2.007-5.39c-1.201-2.812-4.715-3.856-7.454-2.992
	c-1.437,0.45-2.689,1.361-3.696,2.511c-0.411-4.03,1.507-8.467,5.121-12.184c1.176,0.07-9.27-4.026-10.112-4.326l-0.124-0.044
	c-2.057,2.226-3.755,4.954-4.873,8.096c-0.08,0.227-0.163,0.45-0.249,0.672c-0.353,0.2-0.695,0.432-1.019,0.709
	c-2.212,1.903-5.109,2.827-3.503,4.694c0.359,0.417,0.924,0.845,1.593,1.238c-3.5,7.249-6.489,12.869,0.375,15.311
	c2.152,0.766,5.086,1.146,8.349,1.141l-3.854,13.275c0.006-0.002,0.012-0.004,0.018-0.006l25.368-0.17l1.323-19.188
	C372.322,287.016,372.014,287.104,371.711,287.155z M349.601,272.146c-0.363,0.947-1.135,1.538-1.714,1.324
	c-0.588-0.217-0.76-1.159-0.402-2.104c0.36-0.947,1.133-1.538,1.715-1.321C349.786,270.261,349.962,271.202,349.601,272.146z
	 M321.161,349.665c0.452,0.206,4.696,2.153,9.258,4.249c3.37,1.549,6.906,3.174,9.226,4.243l4.715-17.885l28.269,0.246
	L355.154,376.1l-0.009-0.005c-1.108,2.161-2.993,3.933-5.454,4.831c-1.332,0.487-2.701,0.67-4.032,0.59
	c-0.185,0.015-0.369,0.024-0.549,0.002c-0.833-0.103-1.788-0.323-2.845-0.643c-0.359-0.108-2.938-1.24-6.193-2.689
	c-6.095-2.713-14.568-6.538-15.352-6.857c-0.755-0.306-1.539-0.646-2.347-1.015c-5.697-2.603-12.62-6.69-19.041-11.26
	c-1.874-1.333-3.704-2.705-5.448-4.095c-1.225-0.974-2.41-1.957-3.535-2.939c-1.334-1.163-2.596-2.326-3.74-3.474
	c-0.462-0.461-0.898-0.918-1.324-1.373c-1.453-1.554-2.691-3.067-3.643-4.503c-1.123-0.376-2.302-1.145-3.426-2.175
	c-1.043-0.036-2.078-0.161-3.078-0.381c-4.074-0.897-7.609-3.166-9.045-5.558c-1.605-0.618-3.351-1.504-5.181-2.588
	c-0.536-0.317-1.075-0.646-1.626-0.998c-1.366-0.871-2.775-1.853-4.197-2.904c-1.2-0.888-2.416-1.834-3.631-2.82
	c-1.732-1.404-3.467-2.896-5.171-4.439c-0.101-0.091-0.199-0.186-0.299-0.276c-0.457-0.416-0.91-0.837-1.362-1.259
	c-5.211-4.873-10.026-10.111-13.432-14.637c-0.535-0.71-1.036-1.402-1.497-2.072c-0.736-1.069-1.374-2.082-1.901-3.023
	c-0.357-0.639-0.641-1.229-0.887-1.793c-0.125-0.288-0.258-0.58-0.352-0.846c-0.153-0.426-0.19-0.896-0.138-1.393
	c0.101-0.39,0.238-0.776,0.398-1.16c0.048-0.118,0.108-0.233,0.163-0.35c0.126-0.265,0.26-0.53,0.409-0.788
	c0.075-0.126,0.153-0.251,0.232-0.376c0.164-0.256,0.343-0.505,0.53-0.751c0.08-0.105,0.158-0.214,0.244-0.317
	c0.563-0.684,1.217-1.317,1.941-1.882c0.104-0.082,0.217-0.157,0.326-0.237c0.266-0.195,0.541-0.383,0.824-0.559
	c0.131-0.082,0.264-0.159,0.399-0.236c0.29-0.166,0.587-0.317,0.889-0.461c0.126-0.058,0.25-0.121,0.377-0.175
	c0.431-0.187,0.869-0.354,1.319-0.488c0.015-0.003,0.025-0.006,0.038-0.01c0.058-0.018,0.118-0.026,0.175-0.043
	c0.326-0.089,0.651-0.173,0.983-0.234c0.015-0.003,0.029-0.006,0.044-0.008c0.394-0.071,0.791-0.123,1.192-0.149
	c0.011,0,0.024-0.001,0.034-0.001c0.401-0.028,0.806-0.031,1.209-0.01c0.026,0.002,0.053,0.005,0.078,0.008
	c0.34,0.018,0.682,0.062,1.021,0.117c0.052,0.008,0.102,0.008,0.152,0.018c0.061,0.011,0.119,0.029,0.177,0.041
	c0.125,0.025,0.248,0.063,0.372,0.093c0.235,0.053,0.471,0.102,0.705,0.174c0.423,0.137,0.846,0.293,1.264,0.494
	c0.049,0.023,0.096,0.048,0.143,0.073c0.411,0.2,0.818,0.426,1.221,0.694c0.654,0.435,1.493,1.237,2.448,2.276
	c0.002-0.001,0-0.001,0.002-0.002c0,0.001,0,0.001,0.001,0.001c0.939,1.027,1.992,2.296,3.102,3.705
	c0.229,0.292,0.462,0.594,0.695,0.896c0.405,0.525,0.813,1.059,1.229,1.611c5.537,7.381,11.582,16.693,11.582,16.693
	s2.974,3.852,5.827,8.287c0,0,1.281-0.114,3.003-0.255c1.578-0.131,3.529-0.288,5.233-0.411c0.444-0.1,0.903-0.145,1.361-0.149
	c0.192-0.002,0.381,0.011,0.571,0.021c0.98-0.059,1.714-0.088,1.97-0.064c0.408,0.038,0.832,0.303,1.255,0.709
	c0.36,0.121,0.591,0.214,0.591,0.214s0.885,0.128,2.1,0.375c1.374,0.28,3.171,0.717,4.61,1.308c1.208,0.493,2.158,1.096,2.384,1.804
	c0.234,0.737,0.929,5.729,1.375,9.051c0.233,1.712,0.397,2.987,0.397,2.987c1.734,0.643,3.396,1.313,4.831,1.915
	c-0.129-0.754-0.254-1.51-0.37-2.266c-0.351-2.273-0.642-4.541-0.86-6.762c-0.155-1.557-0.275-3.093-0.356-4.583
	c-0.096-1.768-0.139-3.483-0.114-5.104c0.009-0.652,0.031-1.284,0.062-1.906c0.101-2.125,0.324-4.068,0.69-5.75
	c-1.207-2.514-1.156-6.715,0.34-10.609c0.331-0.862,0.737-1.707,1.212-2.519c0.465,0.1,0.949,0.159,1.451,0.159h0.046h8.36h0.045
	c1.223,0,2.356-0.318,3.294-0.86c0.037,0.088,0.063,0.148,0.063,0.148s0.524,0.724,1.193,1.766c0.757,1.182,1.696,2.774,2.276,4.218
	c0.487,1.211,0.718,2.312,0.366,2.967c-0.364,0.682-3.461,4.66-5.531,7.294c-1.066,1.36-1.865,2.367-1.865,2.367
	c2.133,4.823,3.712,9.426,3.712,9.426s4.447,10.174,7.562,18.858c0.072,0.2,0.4,1.124,0.881,2.48
	C320.592,349.407,320.878,349.536,321.161,349.665z M256.421,246.137c0-0.863-0.299-2.164-0.794-3.73
	c1.265-2.716,2.136-4.511,2.136-4.511s1.762-4.536,4.082-9.271c0,0,1.441-5.208,1.427-6.935c-0.076-9.001,9.912-22.007,11.02-18.736
	c1.34,3.952-2.959,19.088-4.264,21.552c0.301,1.695-1.885,36.044-5.319,47.331c-0.378,1.243-1.071,2.253-1.604,3.19
	c-0.546,0.961-1.088,1.778-1.62,2.425c-0.285,0.351-0.669,0.625-1.121,0.837c-0.386,0.117-0.788,0.198-1.198,0.259
	c-0.126,0.02-0.256,0.027-0.384,0.041c-0.293,0.03-0.587,0.052-0.886,0.057c-0.148,0.002-0.296-0.002-0.443-0.004
	c-0.303-0.009-0.608-0.033-0.916-0.066c-0.133-0.015-0.266-0.025-0.398-0.046c-0.875-0.128-1.756-0.36-2.615-0.688
	c-0.123-0.047-0.244-0.105-0.37-0.156c-0.305-0.128-0.606-0.266-0.905-0.417c-0.139-0.071-0.271-0.145-0.406-0.22
	c-0.292-0.163-0.576-0.338-0.855-0.522c-0.114-0.078-0.232-0.151-0.344-0.231c-0.136-0.096-0.256-0.208-0.387-0.309
	c-0.062-6.105-0.371-12.47-0.985-19.053c0.021-0.054,0.041-0.105,0.063-0.16C253.493,255.034,256.421,250.931,256.421,246.137z
	 M252.729,184.183c-0.172,5.186-2.046,9.641-5.241,12.133c0.132-1.516-0.08-3.059-0.751-4.401c-1.271-2.576-4.464-4.386-7.32-3.313
	c-0.66,0.249-1.188,0.642-1.578,1.12c-0.683,0.556-1.212,1.287-1.531,2.179c-0.927,2.588,0.387,5.422,2.921,6.33
	c0.097,0.034,0.204,0.073,0.305,0.097c-0.56,0.176-2.067,5.244-6.119,11.167c-1.71,2.5-3.871,5.151-6.609,7.654l5.072,6.223
	l7.644-13.247c1.789,1.868,3.604,3.411,5.299,4.483c0.444,0.281,0.882,0.537,1.307,0.75c6.514,3.261,8.498-2.787,11.305-10.332
	c0.746,0.21,1.447,0.321,1.995,0.292c2.459-0.134,1.12-2.864,0.963-5.777c-0.025-0.426-0.095-0.834-0.195-1.227
	c0.101-0.215,0.206-0.43,0.313-0.645c1.492-2.981,2.283-6.095,2.465-9.118l-0.112-0.063
	C262.055,188.09,251.862,183.388,252.729,184.183z M257.326,198.72c0.002,0.028,0,0.053-0.005,0.077
	c-0.083,0.39-0.784,0.399-0.9-0.085c-0.302-1.249-1.343-1.717-2.311-1.106c-0.127,0.08-0.251,0.178-0.376,0.294
	c-0.027,0.026-0.053,0.048-0.082,0.065c-0.011,0.007-0.022,0.011-0.033,0.016c-0.017,0.01-0.032,0.021-0.052,0.025
	c-0.181,0.068-0.377,0.012-0.51-0.101c-0.166-0.142-0.23-0.376-0.028-0.574c0.689-0.66,1.592-1.146,2.559-0.857
	c0.318,0.096,0.58,0.254,0.804,0.451c0.42,0.37,0.69,0.887,0.857,1.448c0.022,0.077,0.047,0.155,0.065,0.233
	c0.009,0.036,0.014,0.071,0.014,0.102C257.329,198.712,257.326,198.716,257.326,198.72z"></path>
<path id="color_x5F_4" fill="#17936a" d="M245.299,393.506c-0.098,1.037-0.29,2.069-0.584,3.082c0.318-0.066,0.508-0.1,0.508-0.1
	L230.156,508.34h-8.736h-0.223c0,0-5.594-57.18-6.085-73.908c-0.363-12.363,3.823-20.794,9.18-26.504
	c-2.09-0.582-4.099-1.584-5.901-3.021c-3.711-2.961-5.805-7.188-6.183-11.574l-0.012,0.002l-4.632-15.586l-11.613-39.071
	c-2.15-5.599-2.979-11.242-2.76-16.569c0.09-2.209,0.471-4.412,1.119-6.56c-0.219,1.438-0.368,2.716-0.467,3.724h50.783
	c0.452,0.422,0.905,0.843,1.362,1.259c0.165,1.611,0.184,3.238,0.052,4.858l-0.688,65.313l-0.015,0.003
	C245.405,391.636,245.387,392.572,245.299,393.506z M371.706,520.128c0.38-0.19,0.742-0.4,1.097-0.62l49.737-13.566l19.613-5.35
	l0.392-0.106v-0.103v-8.388c0,0-3.054-0.674-7.729-1.493c-2.272-0.398-4.921-0.831-7.802-1.237
	c-4.832-0.684-10.29-1.291-15.611-1.543c-2.359-0.111-4.688-0.151-6.927-0.097c-0.859,0.021-1.709,0.051-2.537,0.102
	c-6.997,0.426-12.597,2.199-17.091,4.715l10.043-32.438c3.6-6.401,8.99-30.457,5.44-37.512c-0.003-0.007-0.008-0.013-0.011-0.02
	c-0.584-3.531-1.996-6.979-4.306-10.032c-1.158-1.532-2.475-2.873-3.906-4.024l-0.007,0.285l-44.66-1.41
	c-16.279,3.104-35.736,7.041-37.606,8.457c-3.376,2.555-5.288,6.314-5.622,10.224c-0.034-0.006-0.067-0.012-0.067-0.012l0.045,0.257
	c-0.155,2.276,0.231,4.592,1.185,6.749l13.224,75.374h9.556h0.018c0,0,5.594-27.708,6.086-44.437
	c0.261-8.896-1.842-15.744-5.032-21.02l23.104,2.76l-0.564,56.825c0,0-1.157,7.64,0.682,11.296c1.963,3.897,5.461,6.502,9.389,7.47
	C365.039,522.024,368.527,521.729,371.706,520.128z"></path>
<path id="color_x5F_3" fill="#dca575" d="M221.42,521.192h3.497c0.05,0.436,0.094,0.874,0.107,1.319H88.964
	c2.331-10.849,11.821-19.085,23.372-19.642c0.417-0.021,0.832-0.032,1.252-0.032c1.273,0,2.521,0.105,3.742,0.287
	c4.086,0.607,7.849,2.181,11.049,4.479c-0.311-1.274-0.49-2.602-0.49-3.97c0-6.448,3.642-12.058,9.008-14.936
	c2.442-1.311,5.24-2.055,8.216-2.055c7.021,0,13.043,4.149,15.729,10.092c0.416-4.727,2.257-9.044,5.076-12.563
	c4.379-5.464,11.14-8.983,18.751-8.983c13.218,0,23.934,10.571,23.934,23.611c0,2.834-0.533,5.538-1.46,8.054
	c0.48-0.041,0.965-0.072,1.46-0.072c5.194,0,9.808,2.389,12.817,6.101V521.192z M497.592,522.408
	c-0.271-8.728-7.511-15.729-16.422-15.729c-0.495,0-0.979,0.031-1.46,0.072c0.927-2.517,1.46-5.22,1.46-8.054
	c0-13.04-10.716-23.611-23.934-23.611c-2.973,0-5.812,0.55-8.436,1.527c-6.464,2.408-11.585,7.491-13.985,13.888
	c4.676,0.819,7.729,1.493,7.729,1.493h12.414h2.841v28.871l-15.255-20.381l-0.392,0.106l-19.613,5.35l-49.737,13.566
	c-0.354,0.22-0.717,0.43-1.097,0.62c-3.179,1.601-6.667,1.896-9.87,1.106c-0.104,0.391-0.219,0.776-0.305,1.174H497.592z
	 M411.402,487.722c5.321,0.252,10.779,0.859,15.611,1.543c-2.688-1.72-5.889-2.724-9.334-2.724
	C415.462,486.541,413.35,486.969,411.402,487.722z"></path>
<path id="color_x5F_2" fill="#6f9f3e" d="M404.476,487.625c-1.067-3.363-1.641-7.594-0.562-12.337
	c2.678-11.77,7.869-15.965,7.869-15.965l8.836,3.856l-3.153-13.365c0,0,11.274-14.866,14.356-23.969
	c3.082-9.104,1.989-17.013,1.989-17.013l10.747,9.901l-6.739-16.786c0,0,1.535-15.212,16.774-28.462
	c15.239-13.247,18.832-13.751,18.832-13.751s-11.82,12.841-8.5,26.906c3.319,14.066,3.319,14.066,3.319,14.066l-10.835,10.724
	l12.328-4.394c0,0,6.406,9.104,3.93,22.942c-2.478,13.838-5.185,18.933-5.185,18.933l-13.598,0.239l10.872,7.087l-2.053,17.562
	l-17.133,1.815l2.229,0.998c-6.464,2.408-11.585,7.491-13.985,13.888c-2.272-0.398-4.921-0.831-7.802-1.237
	c-2.688-1.72-5.889-2.724-9.334-2.724c-2.218,0-4.33,0.428-6.277,1.181C409.043,487.61,406.714,487.57,404.476,487.625z
	 M160.842,496.736c0.416-4.727,2.257-9.044,5.076-12.563c-0.895,0.089-1.675,0.251-2.355,0.457
	c9.961-7.008,34.034-25.147,26.482-31.836c-6.288-5.568-13.679-1.541-17.921,1.774c9.46-8.744,34.188-32.709,21.425-33.066
	c-15.613-0.435-23.995,17.206-23.995,17.206s-2.702-5.603,2.82-17.72c5.522-12.118,27.172-44.977,5.758-43.783
	c-21.415,1.192-29.437,23.761-26.222,38.142c3.22,14.383-5.72-18.91-15.892-10.925c-8.584,6.741-2.987,31.659,0.581,40.195
	c-6.384-6.031-17.351-14.664-15.525-0.751c2.552,19.438,21.824,33.613,21.824,33.613s-29.988-16.29-19.366-1.785
	c3.54,4.833,8.424,9.253,13.364,13.004c2.442-1.311,5.24-2.055,8.216-2.055C152.133,486.645,158.155,490.794,160.842,496.736z"></path>
<path id="color_x5F_1" fill="#000000" d="M336.072,378.186l4.021,14.562c-15.428,4.604-31.768,7.09-48.691,7.09
	c-15.979,0-31.441-2.209-46.103-6.331c0.088-0.934,0.106-1.87,0.039-2.801l0.015-0.003l0.688-65.313
	c0.132-1.62,0.112-3.247-0.052-4.858c0.101,0.091,0.199,0.186,0.299,0.276c1.704,1.543,3.438,3.035,5.171,4.439
	c1.215,0.986,2.431,1.933,3.631,2.82c1.422,1.052,2.831,2.033,4.197,2.904c0.551,0.353,1.09,0.681,1.626,0.998
	c1.83,1.084,3.575,1.97,5.181,2.588c1.436,2.392,4.971,4.66,9.045,5.558c1,0.22,2.035,0.345,3.078,0.381
	c1.124,1.03,2.303,1.799,3.426,2.175c0.951,1.436,2.189,2.949,3.643,4.503c0.426,0.455,0.862,0.912,1.324,1.373
	c1.145,1.147,2.406,2.311,3.74,3.474c1.125,0.982,2.311,1.966,3.535,2.939c1.744,1.39,3.574,2.762,5.448,4.095
	c6.421,4.569,13.344,8.657,19.041,11.26c0.808,0.368,1.592,0.709,2.347,1.015C321.504,371.647,329.978,375.473,336.072,378.186z
	 M195.951,338.677l11.613,39.071c-51.443-29.225-86.149-84.505-86.149-147.898c0-93.881,76.106-169.987,169.987-169.987
	S461.39,135.968,461.39,229.85c0,55.717-26.807,105.173-68.226,136.175l0.463-18.609c0.242-1.255-2.647-41.275-22.322-41.275
	l1.323-19.188c1.329-0.276,2.669-0.635,4.009-1.143c0.707-0.27,1.412-0.573,2.118-0.902c2.606-1.234,7.88-5.555,10.147-10.718
	c2.902-6.61,5.074-17.368-10.155-24.293l-0.062-0.021c-0.193-0.078-0.4-0.15-0.605-0.223c-4.104-1.461-2.845-0.433-6.502-1.56
	c-0.716-0.221-1.626-0.529-2.801-0.946c-5.139-1.853-7.53-5.958-11.873-7.504c-5.876-2.091-12.355,1.053-14.473,7.009
	c-2.106,5.917,0.87,12.386,6.66,14.528l0.008,0.002c-2.057,2.226-3.755,4.954-4.873,8.096c-0.08,0.227-0.163,0.45-0.249,0.672
	c-0.353,0.2-0.695,0.432-1.019,0.709c-2.212,1.903-5.109,2.827-3.503,4.694c0.359,0.417,0.924,0.845,1.593,1.238
	c-3.5,7.249-6.489,12.869,0.375,15.311c2.152,0.766,5.086,1.146,8.349,1.141l-3.854,13.275c-18.685,5.69-17.332,33.396-15.5,47.599
	c-4.562-2.096-8.806-4.043-9.258-4.249c-0.283-0.129-0.569-0.258-0.856-0.386c-0.48-1.356-0.809-2.28-0.881-2.48
	c-3.114-8.685-7.562-18.858-7.562-18.858s-1.579-4.603-3.712-9.426c0,0,0.799-1.007,1.865-2.367c2.07-2.634,5.167-6.612,5.531-7.294
	c0.352-0.655,0.121-1.756-0.366-2.967c-0.58-1.443-1.52-3.036-2.276-4.218c-0.669-1.042-1.193-1.766-1.193-1.766
	s-0.025-0.061-0.063-0.148c1.531-0.884,2.536-2.367,2.536-4.049c0-0.146-0.015-0.288-0.03-0.431
	c1.179,0.074,2.467-0.392,3.463-1.389l0.025-0.023l4.345-4.345l0.023-0.024c1.673-1.673,1.888-4.172,0.479-5.582
	c-0.096-0.096-0.196-0.183-0.303-0.263c-1.245-1.306-2.069-2.468-3.63-0.908l-1.649,1.649l-4.392,4.393l-1.65,1.65
	c-0.126,0.126-0.229,0.246-0.32,0.363h-2.19h-3.457v-4.985c0-0.492-0.399-0.891-0.892-0.891s-0.892,0.399-0.892,0.891v4.985h-3.211
	h-3.174c-3.001,0-2.676,1.91-2.618,4.365c-0.024,0.179-0.038,0.36-0.038,0.544c0,2.289,1.862,4.206,4.379,4.75
	c-0.475,0.812-0.881,1.656-1.212,2.519c-1.496,3.895-1.547,8.096-0.34,10.609c-0.366,1.682-0.59,3.625-0.69,5.75
	c-0.03,0.622-0.053,1.254-0.062,1.906c-0.024,1.62,0.019,3.336,0.114,5.104c0.081,1.49,0.201,3.026,0.356,4.583
	c0.219,2.221,0.51,4.488,0.86,6.762c0.116,0.756,0.241,1.512,0.37,2.266c-1.435-0.602-3.097-1.272-4.831-1.915
	c0,0-0.164-1.275-0.397-2.987c-0.446-3.321-1.141-8.313-1.375-9.051c-0.226-0.708-1.176-1.311-2.384-1.804
	c-1.439-0.591-3.236-1.027-4.61-1.308c-1.215-0.247-2.1-0.375-2.1-0.375s-0.23-0.093-0.591-0.214
	c-0.423-0.406-0.847-0.671-1.255-0.709c-0.256-0.023-0.99,0.006-1.97,0.064c-0.19-0.011-0.379-0.023-0.571-0.021
	c-0.458,0.005-0.917,0.05-1.361,0.149c-1.704,0.123-3.655,0.28-5.233,0.411c-1.722,0.141-3.003,0.255-3.003,0.255
	c-2.854-4.436-5.827-8.287-5.827-8.287s-6.045-9.313-11.582-16.693c-0.415-0.552-0.823-1.086-1.229-1.611
	c0.533-6.217,0.793-12.871,0.723-19.873c0.131,0.101,0.251,0.213,0.387,0.309c0.111,0.08,0.229,0.154,0.344,0.231
	c0.279,0.184,0.563,0.36,0.855,0.522c0.135,0.076,0.268,0.149,0.406,0.22c0.299,0.151,0.601,0.29,0.905,0.417
	c0.126,0.051,0.247,0.109,0.37,0.156c0.859,0.329,1.74,0.561,2.615,0.688c0.133,0.021,0.266,0.031,0.398,0.046
	c0.308,0.033,0.613,0.057,0.916,0.066c0.147,0.002,0.295,0.006,0.443,0.004c0.299-0.005,0.593-0.027,0.886-0.057
	c0.128-0.014,0.258-0.021,0.384-0.041c0.41-0.061,0.813-0.143,1.198-0.259c0.452-0.211,0.836-0.486,1.121-0.837
	c0.532-0.647,1.074-1.464,1.62-2.425c0.533-0.938,1.227-1.947,1.604-3.19c3.435-11.287,5.62-45.636,5.319-47.331
	c1.305-2.464,5.604-17.601,4.264-21.552c-1.107-3.271-11.096,9.735-11.02,18.736c0.015,1.728-1.427,6.935-1.427,6.935
	c-2.32,4.735-4.082,9.271-4.082,9.271s-0.871,1.795-2.136,4.511c-2.539-8.038-10.322-23.167-10.322-23.167
	c-0.038-1.233,0.152-3.25-0.485-4.631c0.444,0.281,0.882,0.537,1.307,0.75c6.514,3.261,8.498-2.787,11.305-10.332
	c0.746,0.21,1.447,0.321,1.995,0.292c2.459-0.134,1.12-2.864,0.963-5.777c-0.025-0.426-0.095-0.834-0.195-1.227
	c0.101-0.215,0.206-0.43,0.313-0.645c1.492-2.981,2.283-6.095,2.465-9.118l0.008,0.004c5.558,2.692,12.281,0.361,15.095-5.261
	c2.834-5.65,0.611-12.506-4.972-15.292c-4.12-2.069-8.739-0.947-13.629-3.365c-1.117-0.57-1.968-1.007-2.622-1.375
	c-3.35-1.854-1.732-1.662-5.632-3.604c-0.191-0.105-0.388-0.2-0.578-0.28l-0.061-0.034c-11.548-4.607-17.976-0.801-21.642,4.188
	l-0.005,0.011c-0.572,0.789-1.078,1.589-1.527,2.411c-2.645,3.73-8.076,8.185-16.003,7.528c-49.192-4.071-48.46,39.804-25.68,51.79
	c2.854,1.502,6.063,2.489,9.556,2.832c-0.646,2.791-0.912,5.785-0.731,8.915c0.078,1.362,23.979,48.46,8.882,58.612
	c-5.748,3.865-8.142,13.512-9.119,19.916c-0.648,2.147-1.029,4.351-1.119,6.56C192.972,327.435,193.801,333.078,195.951,338.677z
	 M330.058,194.851c0.521,0.85,1.155,1.686,1.899,2.474c1.632,1.729,3.517,2.947,5.334,3.576c1.815-0.629,3.702-1.848,5.332-3.576
	c0.745-0.789,1.38-1.624,1.9-2.476c2.1-3.432,2.334-7.118,0.309-9.029c-1.731-1.633-4.661-1.545-7.541-0.049
	c-2.88-1.496-5.812-1.584-7.542,0.049C327.725,187.731,327.957,191.418,330.058,194.851z M304.614,274.604
	c0-0.434-0.352-0.786-0.786-0.786c-0.434,0-0.785,0.352-0.785,0.786v5.033c0,0.434,0.352,0.786,0.785,0.786
	c0.435,0,0.786-0.352,0.786-0.786V274.604z M312.615,277.458c-0.307-0.308-0.805-0.308-1.112,0l-3.56,3.559
	c-0.307,0.307-0.307,0.804,0,1.111c0.154,0.153,0.355,0.23,0.557,0.23s0.401-0.077,0.556-0.23l3.56-3.56
	C312.922,278.261,312.922,277.764,312.615,277.458z M303.84,232.917c0.356,0.583,0.791,1.156,1.302,1.696
	c1.119,1.186,2.411,2.021,3.658,2.453c1.245-0.431,2.538-1.267,3.656-2.453c0.511-0.541,0.946-1.114,1.304-1.698
	c1.439-2.353,1.601-4.881,0.211-6.191c-1.188-1.12-3.196-1.06-5.171-0.034c-1.976-1.026-3.985-1.086-5.173,0.034
	C302.239,228.034,302.398,230.562,303.84,232.917z M295.041,278.567l3.561,3.56c0.153,0.153,0.354,0.23,0.557,0.23
	c0.199,0,0.402-0.077,0.555-0.23c0.307-0.307,0.307-0.804,0-1.111l-3.56-3.559c-0.308-0.308-0.804-0.308-1.112,0
	C294.735,277.764,294.735,278.261,295.041,278.567z M291.402,286.243c0,0.434,0.352,0.786,0.786,0.786h5.033
	c0.434,0,0.787-0.352,0.787-0.786c0-0.435-0.354-0.786-0.787-0.786h-5.033C291.754,285.458,291.402,285.809,291.402,286.243z
	 M249.258,256.807c0.004,0.042,0.007,0.084,0.011,0.126c0.021-0.054,0.041-0.105,0.063-0.16
	C249.306,256.784,249.283,256.797,249.258,256.807z"></path>
</svg>