<?xml version="1.0" standalone="no"?>
<svg version="1.1" id="Layer_1" xmlns="http://www.w3.org/2000/svg" xmlns:xlink="http://www.w3.org/1999/xlink" x="0px" y="0px" width="595.28px" height="595.28px" viewBox="0 0 595.28 595.28" enable-background="new 0 0 595.28 595.28" xml:space="preserve">
<path id="color_x5F_2" fill="#ef6a6c" d="M327.853,211.714c0.196,0.215,0.229,0.393,0.242,0.479
	c-0.022-0.027-0.052-0.065-0.065-0.082C328.019,211.977,327.963,211.843,327.853,211.714z M447.478,168.263v83.996H309.485v-83.996
	H447.478z M328.134,212.242c0.054-0.047,0.207-0.272,0.705-0.797c0.981-1.032,2.007-2.023,3.024-3.021
	c2.939-2.881,5.913-5.728,8.855-8.605c2.524-2.471,5.041-4.955,7.43-7.558c0.706-0.769,2.9-2.689,2.435-3.974
	c-0.496-1.366-3.383-0.561-2.897,0.777c0.122,0.336-3.292,3.686-3.897,4.316c-2.663,2.773-5.432,5.447-8.188,8.127
	c-2.398,2.331-4.811,4.648-7.194,6.995c-0.925,0.911-2.942,2.317-3.314,3.654c-0.028,0.103-0.049,0.202-0.058,0.299
	c-0.024,0.105-0.03,0.214,0,0.325c0.331,1.188,1.976,2.339,2.796,3.157c2.523,2.517,5.104,4.976,7.66,7.457
	c2.76,2.679,5.51,5.368,8.188,8.128c0.706,0.729,4.097,4.349,4.077,4.403c-0.556,1.534,2.343,1.416,2.756,0.275
	c0.456-1.257-1.121-2.606-1.851-3.438c-2.458-2.805-5.175-5.396-7.834-8.007c-2.756-2.705-5.543-5.38-8.31-8.075
	c-1.088-1.06-2.171-2.125-3.235-3.208c-0.299-0.305-0.591-0.615-0.881-0.929C328.275,212.411,328.195,212.316,328.134,212.242z
	 M388.484,185.126c-1.761,0.514-1.271,2.394,0.503,1.875c-2.294,0.671-1.258-1.489-1.918,0.122
	c-0.317,0.773-0.681,1.528-1.038,2.283c-1.04,2.201-2.14,4.375-3.233,6.55c-3.183,6.328-6.423,12.627-9.6,18.957
	c-1.106,2.205-12.455,21.896-9.059,23.414c1.144,0.512,3.361-1.13,1.693-1.875c0.773,0.346,1.098-2.047,1.501-3.057
	c1.027-2.577,2.225-5.09,3.412-7.596c3.071-6.481,6.335-12.872,9.582-19.266c2.766-5.445,5.579-10.87,8.23-16.372
	C389.026,189.189,391.977,184.105,388.484,185.126z M432.485,212.222c0.011-0.07,0.006-0.139-0.013-0.205
	c-0.004-0.02,0.001-0.039-0.004-0.059c-0.335-1.207-1.969-2.352-2.803-3.184c-2.374-2.367-4.799-4.685-7.206-7.019
	c-2.912-2.823-5.817-5.654-8.643-8.565c-0.919-0.948-1.819-1.915-2.69-2.908c-0.438-0.5-1.177-1.939-1.366-1.417
	c0.583-1.607-2.323-1.646-2.783-0.377c-1.042,2.873,7.588,9.442,9.257,11.081c2.789,2.737,5.603,5.449,8.405,8.172
	c1.207,1.173,2.409,2.351,3.589,3.551c0.299,0.305,0.591,0.615,0.881,0.929c0.157,0.17,0.242,0.272,0.303,0.349
	c-0.046,0.055-0.102,0.121-0.183,0.212c-0.283,0.318-0.584,0.622-0.881,0.929c-1.056,1.091-2.149,2.147-3.235,3.208
	c-2.763,2.699-5.549,5.374-8.31,8.075c-2.524,2.471-5.041,4.955-7.43,7.558c-0.668,0.728-2.898,2.678-2.454,3.903
	c0.456,1.258,3.339,0.439,2.897-0.777c-0.18-0.496,3.294-3.778,3.878-4.387c2.663-2.774,5.431-5.449,8.188-8.129
	c2.556-2.483,5.128-4.949,7.66-7.457c0.829-0.82,2.22-1.855,2.773-3.015C432.409,212.545,432.472,212.388,432.485,212.222z
	 M273.812,222.925H121.818v-91.328h151.993V222.925z M185.144,207.143c-17.447,0-34.893,0-52.34,0c-1.282,0-3.005,1.947-1.046,1.947
	c17.447,0,34.893,0,52.34,0C185.38,209.09,187.104,207.143,185.144,207.143z M261.474,207.143c-20.718,0-41.436,0-62.154,0
	c-1.282,0-3.005,1.947-1.046,1.947c20.718,0,41.436,0,62.154,0C261.709,209.09,263.433,207.143,261.474,207.143z M262.564,186.197
	c-43.253,0-86.506,0-129.76,0c-1.282,0-3.005,1.947-1.046,1.947c43.253,0,86.506,0,129.76,0
	C262.8,188.145,264.523,186.197,262.564,186.197z M131.758,165.701c17.447,0,34.893,0,52.34,0c1.282,0,3.005-1.947,1.046-1.947
	c-17.447,0-34.893,0-52.34,0C131.522,163.754,129.799,165.701,131.758,165.701z M198.273,165.701c20.718,0,41.436,0,62.154,0
	c1.282,0,3.005-1.947,1.046-1.947c-20.718,0-41.436,0-62.154,0C198.038,163.754,196.314,165.701,198.273,165.701z M262.564,142.807
	c-43.253,0-86.506,0-129.76,0c-1.282,0-3.005,1.947-1.046,1.947c43.253,0,86.506,0,129.76,0
	C262.8,144.754,264.523,142.807,262.564,142.807z M124.714,434.92c-2.312-4.34-3.8-9.166-4.65-14.262
	C120.573,426.345,122.33,431.055,124.714,434.92z M265.194,384.17c2.399-0.175,4.673-1.007,6.834-2.317
	C269.948,382.737,267.584,383.595,265.194,384.17z M270.289,390.392c-2.658,0.226-5.267,0.867-7.81,1.779
	C264.697,391.581,267.288,390.974,270.289,390.392z M320.472,353.926c-6.688-0.068-14.864-0.753-19.162-6.259
	c-0.457,0.038-0.894-0.063-1.143-0.364c-0.06-0.073-0.121-0.152-0.181-0.227c-9.501,13.778-19.054,42.184-40.03,38.063
	c-0.473-0.093-0.926-0.221-1.382-0.345c-1.208-0.156-2.486-0.659-3.795-1.43c-7.917-3.888-13.172-12.319-18.036-19.452
	c-1.432-2.1-3.104-4.855-5.012-7.703c-1.909-2.581-3.946-5.281-5.643-7.41c-1.653-1.824-3.425-3.438-5.314-4.646
	c-1.854-0.673-4.604-1.554-6.796-2.237c-0.364-0.006-0.731,0.003-1.103,0.034c-0.938,0.08-0.843-0.194-0.412-0.504
	c-0.467-0.144-0.869-0.266-1.188-0.363c-1.336,0.321-2.553,1.311-3.652,2.608c0.689,3.999,1.451,20.104-6.945,16.832
	c-4.693-1.829-7.743-8.272-8.641-12.933c-0.957-4.965-1.003-10.018-0.272-15.004c-0.731-0.149-1.684-0.336-2.581-0.484
	c-0.741-0.104-1.48-0.188-2.218-0.254c-1.154,0.004-7.785,0.26-13.117,0.768c-9.743,2.041-18.715,7.26-26.13,14.643
	c-1.453,1.447-2.844,2.964-4.198,4.518l-11.082,15.912c-5.849,10.699-9.537,22.594-10.257,34.671
	c-0.627,10.511-0.306,22.111,4.817,31.607c5.513,10.22,15.371,15.896,26.402,18.262c1.901,0.322,4.009,0.672,6.177,1.019
	c19.022,2.406,38.859-1.141,57.096-6.433c1.855-0.538,3.708-1.091,5.54-1.703c0.001-0.003,0.001-0.004,0.002-0.007
	c0.374-1.091,0.722-2.191,1.028-3.303c0.013-0.049,0.025-0.098,0.039-0.146c0.603-3.192,1.463-7.695,2.257-11.663
	c0.526-5.161,0.327-10.361-1.037-15.32c-0.486-0.207-0.721-0.576-0.28-1.002c-0.307-0.992-0.677-1.97-1.086-2.938
	c-8.492,5.188-19.156,7.694-28.797,9.242c-9.517,1.527-22.487,3.264-31.24-2.064c-8.63-5.252-6.887-16.696-4.688-25.058
	c2.652-10.087,7.256-19.436,10.288-29.374c0.351-1.148,3.301-1.517,2.922-0.273c-2.568,8.417-6.452,16.378-8.998,24.813
	c-2.19,7.255-6.341,20.241,0.247,26.479c7.385,6.993,21.414,5.209,30.491,3.752c6.476-1.039,13.481-2.429,19.916-4.854
	c-4.613-14.322-1.608-27.602,1.414-41.947c0.276-1.312,3.245-1.664,2.938-0.211c-2.953,14.012-5.95,27.017-1.562,41.024
	c2.278-1.002,4.46-2.153,6.487-3.495c0.512-0.339,1.32-0.341,1.863-0.137c0.541-0.077,1.037-0.006,1.191,0.324
	c0.46,0.99,0.86,2,1.21,3.023c14.464-9.456,29.668-24.586,47.861-23.619c0.125,0.007,0.234,0.021,0.331,0.041
	c7.653-1.195,15.47,4.538,20.758,9.411c0.477,0.439,0.975,0.913,1.479,1.401l0.136,0.074c6.743-5.518,12.205-12.898,16.46-20.396
	c4.228-7.446,8.204-15.878,8.196-24.618c-0.02,0.007-0.039,0.013-0.058,0.019C321.042,354.584,319.457,354.397,320.472,353.926z"></path>
<path id="color_x5F_1" d="M206.716,311.065c-0.021-2.238-0.468-5.579-3.448-5.039c-0.266,0.048-1.404,0.109-1.21-0.469
	c0.197-0.59,1.155-0.805,1.67-0.898c1.454-0.264,3.409-0.334,4.517,0.855c1.192,1.279,1.354,3.105,1.369,4.773
	C209.623,311.284,206.722,311.787,206.716,311.065z M253.781,330.632c3.908-2.613,3.821-7.502,3.165-11.678
	c-0.201-1.281-3.107-0.558-2.897,0.777c0.503,3.203,0.918,7.594-2.168,9.658C250.245,330.483,252.649,331.389,253.781,330.632z
	 M244.617,340.823c0.659,0.148,1.563-0.063,2.049-0.549c0.127-0.128,0.255-0.254,0.386-0.377c0.04-0.038,0.374-0.311,0.263-0.231
	c0.056-0.038,0.114-0.073,0.171-0.108c0.007-0.002,0.04-0.017,0.061-0.025c0.022-0.001,0.03-0.002,0.063-0.003
	c0.666-0.016,1.515-0.199,1.909-0.804c0.369-0.565-0.31-0.913-0.799-0.901c-1.76,0.042-3.159,0.691-4.391,1.923
	C243.898,340.179,243.993,340.683,244.617,340.823z M72.714,333.809c-1.155-0.033-3.066,1.681-1.103,1.736
	c17.358,0.495,18.845,26.067,20.167,38.716c2.599,24.871,10.758,48.707,10.932,73.915c0.009,1.282,2.912,0.681,2.905-0.334
	c-0.181-26.26-8.434-51.306-11.246-77.242C92.916,357.191,90.393,334.313,72.714,333.809z M412.949,409.63
	c2.844,5.774-7.156,11.996-10.82,14.41c-10.63,7.003-22.283,12.479-33.857,17.711c-13.255,5.992-26.702,11.543-40.179,17.014
	c-7.975,3.237-16.311,6.099-23.965,10.064c-0.49,0.254-0.994,0.246-1.38,0.095c-0.956,0.452-2.167,0.733-3.711,0.796
	c-7.247,0.293-14.216-1.436-21.292-2.748c-4.479-0.831-9.004-1.24-13.469-2.142c-9.053-1.828-18.043-3.983-27.024-6.134
	c-2.412-0.578-4.823-1.157-7.232-1.746c-2.508-0.613-1.613-8.488-1.329-10.102c-0.838-0.346-0.806-1.44,0.564-1.735
	c14.7-3.165,29.386-7.682,43.185-13.68c-0.721-0.419-1.431-0.949-2.128-1.599c-3.625-3.377-6.352-10.544-11.44-11.934
	c-7.522-2.054-12.692,10.73-15.745,15.488c-3.919,6.106-9.05,9.519-16.414,9.729c-0.263,0.008-0.478-0.027-0.656-0.091
	c-0.333,0.894-0.731,1.685-1.229,2.283c-1.083,1.305-4.414,1.696-5.884,2.134c-5.124,1.527-10.306,2.875-15.536,3.986
	c-18.958,4.03-41.01,7.033-59.637-0.039c-9.197-3.492-15.25-9.318-19.059-16.472c-2.312-4.34-3.8-9.166-4.65-14.262
	c-1.02-6.113-1.131-12.608-0.674-19.101c1.959-27.812,21.358-59.42,48.413-68.711c-0.2-0.092-0.353-0.237-0.422-0.449
	c-1.905-5.832-3.403-11.871-6.049-17.431c-1.701-3.573-4.856-10.308-9.496-10.705c-6.142-0.526-12.661,0.861-18.808,2.324
	c-0.037,0.162-0.065,0.324-0.106,0.485c-0.174,0.674-2.979,1.046-2.85,0.543c0.029-0.111,0.05-0.226,0.077-0.337
	c-0.529,0.127-1.056,0.253-1.577,0.375c-9.733,2.287-19.385,4.951-28.932,7.922c-3.91,1.217-8.022,2.341-11.965,3.782
	c-1.584,1.305-3.58,2.227-6.054,2.616c-0.061,0.032-0.125,0.059-0.185,0.091c-0.534,0.281-1.103,0.262-1.495,0.08
	c-0.143,0.009-0.285,0.017-0.431,0.021c-19.824,7.882-20.13,33.849-18.082,52.479c1.651,15.025,4.27,29.612,7.861,44.287
	c1.29,5.269,2.525,10.562,4.071,15.763c0.989,3.325,2.099,9.853,5.275,11.893c1.267,0.813-1.37,2.094-2.276,1.512
	c-3.333-2.141-4.526-8.019-5.559-11.493c-1.75-5.885-3.151-11.857-4.634-17.813c-3.918-15.734-6.788-31.646-8.062-47.831
	c-1.447-18.397,0.673-40.318,17.75-49.07c-21.294-4.187-21.604-52.18-7.497-51.465c0.319-0.396,0.883-0.696,1.461-0.649
	c13.401-6.109,32.872-14.798,45.918-5.699c6.541,4.562,10.823,12.508,13.706,19.749c2.569,6.457,4.936,13.893,3.923,20.95
	c0.248-0.052,0.496-0.108,0.744-0.159c6.179-1.268,14.787-3.932,21.045-1.755c4.357,1.516,7.334,7.417,9.075,11.327
	c2.513,5.645,4.135,11.571,6.049,17.43c0.053,0.162,0.034,0.316-0.028,0.46c6.809-1.964,14.069-2.512,21.633-1.248
	c0.009-0.006,0.014-0.012,0.023-0.018c0.073-0.049,0.14-0.104,0.213-0.153c0.146-0.264,0.477-0.478,0.863-0.623
	c3.349-2.447,6.153-5.441,8.96-8.464c-3.137,0.774-6.381,0.292-8.292-2.994c-2.894-4.976-2.614-11.769,0.876-16.44
	c1.169-1.566,2.624-2.931,4.228-4.028c-0.469,0.144-0.754,0.237-0.754,0.237l0.06-0.84c-0.394-0.066-0.681-0.268-0.678-0.652
	c0.112-18.748,5.625-39.979,24.66-48.025c3.359-1.42,6.807-2.246,10.229-2.53c1.265-0.245,2.602-0.254,3.969-0.084
	c9.096,0.366,17.674,4.591,23.508,11.931c0.506-3.21,2.52-5.84,6.726-4.757c7.463,1.921,9.205,11.362,6.449,17.662
	c-1.112,2.542-2.671,4.488-4.551,5.972c-0.328,0.436-0.908,0.815-1.675,1.145c-9.346,5.581-24.733,2.165-35.159,0.975
	c-0.252,4.565-1.115,8.932-2.744,12.878c-0.091,0.287-0.188,0.565-0.292,0.827c-0.181,0.453-0.442,0.939-0.764,1.448
	c-2.086,4.064-5.109,7.579-9.242,10.282c3.515,0.819,6.933,2.082,10.534,2.625c0.158-5.582,1.484-11.671,4.496-15.703
	c0.328-0.438,1.563-0.715,2.281-0.625c10.708-6.124,15.369,5.843,14.145,16.345c2.04,0,4.079,0,6.119,0
	c0.052,0,0.109,0.004,0.167,0.011c0.475-5.35,1.917-10.971,4.618-15.057c0.263-0.396,1.215-0.671,1.936-0.678
	c0.736-0.504,1.457-0.901,2.158-1.197c-0.119-3.538-0.234-6.951-0.244-10.146c-0.003-1.138,2.914-1.676,2.918-0.287
	c0.01,3.257,0.079,6.517,0.145,9.778c3.312-0.074,5.765,2.555,6.346,7.4c0.751,6.273,0.394,17.473-5.386,21.64
	c-0.781,0.563-1.578,1.009-2.374,1.357c-1.286,7.693-3.704,15.449-8.899,21.188c-7.585,8.38-18.362,10.676-28.902,6.65
	c-0.071-0.027-0.143-0.061-0.214-0.089c1.68,1.844,3.195,3.835,4.571,5.705c6.334,8.604,11.582,19.078,19.946,25.943
	c4.451,3.654,8.55,5.006,12.338,4.729c2.399-0.175,4.673-1.007,6.834-2.317c11.256-6.826,19.432-26.733,26.036-35.596
	c0.16-0.215,0.517-0.373,0.925-0.481c-5.621-7.742-10.91-21.774-4.229-29.86c2.544-3.079,6.188-4.56,9.917-5.723
	c1.031-0.321,2.04-0.675,3.038-1.041c7.138-10.315-1.053-37.932,17.264-37.365c10.392,0.321,9.065,17.134,7.006,28.221
	c0.253-0.109,0.51-0.181,0.734-0.182c4.556-0.018,7.347,1.517,8.896,3.921c6.026,0.719,8.938,4.491,9.796,9.229
	c11.186,2.825,5.219,16.727,0.343,23.091c-1.235,1.612-4.26,4.577-7.158,6.188c0.249,0.03,0.364,0.118,0.204,0.288
	c-5.354,5.685-12.574,8.488-19.859,10.821c0.057,9.28-4.234,18.504-8.968,26.265c-4.713,7.727-10.339,15.188-17.574,20.727
	c4.338,4.422,8.869,10.397,8.374,16.534c12.309-3.945,24.076-9.625,36.108-14.294c0.853-0.33,1.793,0.016,2.006,0.502
	c22.367,0.171,44.902,1.803,66.894,5.931c0.23,0.004,0.452,0.042,0.644,0.124C412.836,409.245,412.98,409.422,412.949,409.63z
	 M80.192,320.074c0.981-0.33,1.989-0.636,3.052-0.891c0.872-0.384,1.757-0.747,2.654-1.093c5.853-4.593,4.476-15.975,2.537-22.401
	c-2.717-9.006-8.654-20.831-18.571-23.575c-0.371,0.378-0.96,0.642-1.538,0.525c-8.35-1.677-6.66,21.157-6.038,25.09
	C63.82,307.407,68.245,320.871,80.192,320.074z M130.52,305.387c1.826-12.07-5.354-27.487-12.879-36.105
	c-12.196-13.969-31.797-5.71-46.343,0.852c11.614,3.384,18.689,17.177,20.896,28.203c1.248,6.233,1.06,13.413-2.069,18.254
	c3.667-1.202,7.403-2.229,10.968-3.312C110.8,310.33,120.604,307.572,130.52,305.387z M351.663,315.162
	c0.305,5.631-1.8,12.083-4.775,16.322c-1.641,2.337-3.566,5.049-5.917,7.065c0.323,3.672,2.096,4.256,4.859,1.554
	c2.736-2.676,5.03-5.92,6.674-9.379C355.002,325.467,356.563,318.3,351.663,315.162z M342.695,306.174
	c1.929,6.638-1.947,16.833-5.349,22.314c-1,1.61-2.241,3.506-3.71,5.204c0.052,1.721,0.354,6.74,2.73,5.527
	c1.714-0.875,3.15-2.261,4.414-3.694c2.285-2.593,4.469-5.462,5.957-8.603c1.715-3.622,2.645-8.684,1.875-12.97
	c-0.104-0.022-0.203-0.05-0.311-0.071c-0.268-0.053-0.118-0.223,0.21-0.413C347.801,310.138,346.011,307.346,342.695,306.174z
	 M330.332,307.456c0.912,2.292,0.965,5.048,0.214,7.241c-1.495,4.366-5.104,7.682-9.372,9.878c0.818-0.23,1.781-0.128,1.774,0.595
	c-0.015,1.685,0.01,13.431,4.472,11.203c1.201-0.6,2.296-1.469,3.296-2.49c-0.004-0.136-0.01-0.274-0.013-0.403
	c-0.013-0.553,0.638-0.959,1.329-1.084c1.739-2.174,3.138-4.732,4.243-6.92c3.693-7.314,8.76-23.926-4.583-23.944
	C331.204,303.967,330.707,306.027,330.332,307.456z M311.113,307.832c2.648-1.078,5.262-2.219,7.978-3.265
	c2.47-0.95,6.579-2.162,8.97-0.282c0.086,0.067,0.164,0.145,0.247,0.216c1.014-4.669,1.645-9.472,1.797-14.21
	c0.154-4.77,0.504-13.496-4.354-16.409c-9.057-5.432-10.365,10.521-10.826,15.602C314.388,295.401,314.375,302.575,311.113,307.832z
	 M301.815,344.764c0.523-0.099,0.993-0.076,1.13,0.19c3.714,7.22,12.979,7.765,20.158,7.798c0.236,0.001,0.351,0.036,0.388,0.091
	c0.207-0.043,0.411-0.071,0.6-0.086c6.438-2.073,12.722-4.554,17.579-9.429c-1.64,0.204-2.95-0.536-3.44-2.914
	c-0.68,0.348-1.388,0.634-2.132,0.823c-3.544,0.904-4.759-2.023-5.181-4.941c-1.54,1.17-3.258,1.968-5.155,2.036
	c-6.006,0.218-5.751-8.879-5.717-12.816c0.001-0.187,0.105-0.358,0.271-0.508c-3.534,1.661-7.443,2.575-10.96,2.687
	c-1.978,0.063-1.334-1.984,0.28-2.035c6.762-0.213,18.515-4.789,18.409-13.09c-0.06-4.739-1.904-8.365-7.156-6.558
	c-2.992,1.029-5.731,2.596-8.642,3.813c-6.097,2.548-15.274,2.845-16.786,10.844C293.861,329.139,296.704,337.954,301.815,344.764z
	 M267.799,291.206c0.136,7.109,0.201,14.22-0.482,21.305c-0.173,1.796-0.382,3.637-0.648,5.49
	c3.704-3.072,4.557-10.236,4.743-14.467C271.538,300.641,271.251,292.03,267.799,291.206z M264.057,319.328
	c1.448-8.892,1.239-18.479,0.948-27.37c-0.119,0.078-0.235,0.15-0.357,0.241c-0.25,0.184-0.791,0.307-1.319,0.344
	C260.65,297.429,255.462,321.452,264.057,319.328z M241.606,318.799c9.255-4.021,6.551-33.457-4.298-27.002
	c-0.346,0.205-0.949,0.284-1.456,0.245C231.719,298.746,228.233,324.607,241.606,318.799z M215.718,300.083
	c0.085,0.173,0.16,0.361,0.239,0.544l0.043-0.278C216,300.349,215.895,300.245,215.718,300.083z M194.849,331.085
	c-0.021,0.125-0.043,0.25-0.064,0.376c0.189,0.141,0.121,0.325-0.086,0.513c-1.196,7.646-0.945,16.513,3.751,22.906
	c0.574,0.78,3.882,5.729,5.172,3.409c0.683-1.229,1.112-2.563,1.315-3.954c0.337-2.322,0.367-4.622,0.165-6.922
	c-1.168,2.037-2.137,4.088-2.902,5.367c-0.573,0.959-3.515,1.093-2.737-0.207c3.171-5.302,7.091-14.814,14.876-13.371
	c5.285,0.98,9.615,4.486,14.562,6.376c8.163,3.118,16.94,3.722,23.824-2.649c6.281-5.814,9.491-13.615,11.073-22.136
	c-3.942,0.585-7.322-1.663-7.661-6.951c-0.107-1.665-0.109-3.459,0.002-5.303c-0.391,0.174-0.835,0.262-1.213,0.262
	c-1.735,0-3.47,0-5.205,0c-0.767,4.343-2.575,8.249-5.417,10.25c-6.128,4.315-13.942,1.681-14.977-5.82
	c-0.212-1.538-0.319-3.231-0.314-4.989c-0.532,0.351-1.294,0.638-1.73,0.572c-3.817-0.572-7.433-2.045-11.19-2.817
	c-0.034,0.018-0.064,0.037-0.098,0.055c-0.619,0.505-0.994,0.798-0.994,0.798l0.069-0.447c-0.998,0.177-2.458,0.087-1.08-0.608
	c0.073-0.036,0.137-0.08,0.209-0.117c-0.636-0.082-1.277-0.138-1.925-0.158c-1.962-0.063-0.003-1.718,1.117-1.682
	c0.15,0.005,0.295,0.027,0.444,0.036c-0.808-3.78-3.048-7.648-7.588-7.117c-3.898,0.457-7.653,2.959-9.551,6.431
	c-3.377,6.179-2.123,22.298,8.544,14.963c0.721-0.495,3.324-0.397,2.109,0.847C203.266,323.174,199.575,327.644,194.849,331.085z
	 M225.543,429.993c0.526-5.161,0.327-10.361-1.037-15.32c-0.486-0.207-0.721-0.576-0.28-1.002c-0.307-0.992-0.677-1.97-1.086-2.938
	c-8.492,5.188-19.156,7.694-28.797,9.242c-9.517,1.527-22.487,3.264-31.24-2.064c-8.63-5.252-6.887-16.696-4.688-25.058
	c2.652-10.087,7.256-19.436,10.288-29.374c0.351-1.148,3.301-1.517,2.922-0.273c-2.568,8.417-6.452,16.378-8.998,24.813
	c-2.19,7.255-6.341,20.241,0.247,26.479c7.385,6.993,21.414,5.209,30.491,3.752c6.476-1.039,13.481-2.429,19.916-4.854
	c-4.613-14.322-1.608-27.602,1.414-41.947c0.276-1.312,3.245-1.664,2.938-0.211c-2.953,14.012-5.95,27.017-1.562,41.024
	c2.278-1.002,4.46-2.153,6.487-3.495c0.512-0.339,1.32-0.341,1.863-0.137c0.541-0.077,1.037-0.006,1.191,0.324
	c0.46,0.99,0.86,2,1.21,3.023c14.464-9.456,29.668-24.586,47.861-23.619c0.125,0.007,0.234,0.021,0.331,0.041
	c7.653-1.195,15.47,4.538,20.758,9.411c0.477,0.439,0.975,0.913,1.479,1.401c0.035,0.033,0.069,0.066,0.104,0.101
	c0.011-0.009,0.021-0.017,0.032-0.026c6.743-5.518,12.205-12.898,16.46-20.396c4.228-7.446,8.204-15.878,8.196-24.618
	c-0.02,0.007-0.039,0.013-0.058,0.019c-0.943,0.293-2.528,0.106-1.513-0.365c-6.688-0.068-14.864-0.753-19.162-6.259
	c-0.457,0.038-0.894-0.063-1.143-0.364c-0.06-0.073-0.121-0.152-0.181-0.227c-9.501,13.778-19.054,42.184-40.03,38.063
	c-0.473-0.093-0.926-0.221-1.382-0.345c-1.332-0.359-2.595-0.84-3.795-1.43c-7.917-3.888-13.172-12.319-18.036-19.452
	c-1.432-2.1-3.104-4.855-5.012-7.703c-1.695-2.529-3.577-5.13-5.643-7.41c-1.653-1.824-3.425-3.438-5.314-4.646
	c-2.119-1.355-4.384-2.198-6.796-2.237c-0.364-0.006-0.731,0.003-1.103,0.034c-0.938,0.08-0.843-0.194-0.412-0.504
	c0.203-0.146,0.48-0.297,0.761-0.424c-0.341-0.037-0.681-0.057-1.019-0.057c-0.316,0-0.625,0.045-0.93,0.117
	c-1.336,0.321-2.553,1.311-3.652,2.608c0.689,3.999,1.451,20.104-6.945,16.832c-4.693-1.829-7.743-8.272-8.641-12.933
	c-0.957-4.965-1.003-10.018-0.272-15.004c0.002-0.013,0.005-0.026,0.007-0.04c-0.865-0.173-1.728-0.323-2.588-0.444
	c-0.741-0.104-1.48-0.188-2.218-0.254c-4.476-0.404-8.87-0.122-13.117,0.768c-9.743,2.041-18.715,7.26-26.13,14.643
	c-1.453,1.447-2.844,2.964-4.198,4.518c-4.235,4.859-7.966,10.213-11.082,15.912c-5.849,10.699-9.537,22.594-10.257,34.671
	c-0.627,10.511-0.306,22.111,4.817,31.607c5.513,10.22,15.371,15.896,26.402,18.262c0.757,0.163,1.52,0.311,2.287,0.442
	c1.292,0.222,2.589,0.412,3.89,0.576c19.022,2.406,38.859-1.141,57.096-6.433c1.855-0.538,3.708-1.091,5.54-1.703
	c0.001-0.003,0.001-0.004,0.002-0.007c0.374-1.091,0.722-2.191,1.028-3.303c0.013-0.049,0.025-0.098,0.039-0.146
	C224.32,437.879,225.14,433.949,225.543,429.993z M280.525,429.308c0.092-0.059,0.191-0.103,0.293-0.141
	c2.116-6.088-2.879-14.77-6.671-19.163c-6.018-6.972-14.222-5.862-22.535-5.792c-1.959,0.018-0.041-1.729,1.102-1.738
	c8.621-0.074,18.116-1.232,24.116,6.367c2.964,3.754,6.784,9.614,7.39,15.097c2.762-9.315-2.67-19.498-10.072-25.372
	c-0.74-0.588,1.925-1.722,2.697-1.109c3.636,2.886,6.722,6.712,8.686,10.952c0.618-0.086,1.23,0.052,1.414,0.546
	c1.645,4.414,5.581,8.209,9.709,10.367c1.336,0.697,5.462,2.917,6.528,0.725c0.074-0.151,0.123-0.311,0.182-0.468
	c-0.772-0.272-0.744-1.264,0.376-1.704c0.141-1.634-0.223-3.364-0.659-4.872c-1.721-5.954-6.274-10.909-10.94-14.826
	c-4.563-3.83-11.117-8.897-17.472-7.893c-0.268,0.042-0.481,0.04-0.652,0.01c-0.126,0.025-0.251,0.041-0.374,0.034
	c-1.126-0.06-2.244-0.03-3.354,0.064c-2.658,0.226-5.267,0.867-7.81,1.779c-5.454,1.954-10.602,5.152-15.245,8.23
	c-6.669,4.421-13.019,9.333-19.804,13.578c1.692,6.228,1.575,12.891,0.495,19.258c-0.328,1.932-0.595,4.995-1.242,7.695
	c0.084-0.015,0.171-0.026,0.263-0.029c9.859-0.281,13.102-7.623,17.604-15.045c2.609-4.303,6.721-9.373,12.033-10.234
	C266.996,413.936,271.017,435.334,280.525,429.308z M285.974,426.425c3.602-0.869,6.882-2.854,10.045-4.781
	c-3.095-1.412-6.068-3.487-8.384-6.086C288.099,419.186,287.646,422.896,285.974,426.425z M234.348,445.856
	c22.458,5.557,46.114,4.89,68.722,9.732c0.643-0.622,1.968-0.844,2.402-0.324c16.525-8.281,34.062-14.779,51.054-21.988
	c11.273-4.782,22.533-9.588,33.485-15.076c4.832-2.422,9.62-5.035,14.611-7.12c0.716-0.299,1.452-0.608,2.201-0.889
	c-21.349-3.757-43.208-5.159-64.857-5.245c-11.813,4.7-23.42,10.178-35.56,13.975c-1.145,3.613-4.927,4.443-8.361,3.491
	c-3.864,2.342-7.893,4.8-12.349,5.681c-0.552,0.109-0.955,0.024-1.217-0.14c-0.167,0.045-0.337,0.079-0.507,0.101
	c-0.098,0.38-0.21,0.755-0.356,1.122c-0.093,0.234-0.327,0.431-0.62,0.585c0.115,0.285-0.007,0.623-0.527,0.953
	c-2.66,1.687-5.263,2.289-7.756,1.658c-0.131,0.139-0.321,0.274-0.601,0.396C261.385,438.338,247.91,442.672,234.348,445.856z
	 M302.898,466.222c0.906-2.602,0.235-5.891-0.08-8.71c-0.072-0.001-0.141-0.008-0.202-0.021
	c-23.354-5.236-47.89-4.312-71.094-10.271c-0.398,2.674-0.261,5.352,0.604,7.941c0.103,0.038,0.249,0.086,0.479,0.142
	c2.407,0.585,4.814,1.165,7.224,1.739c7.229,1.725,14.462,3.441,21.729,5.001c8.641,1.855,17.423,3.173,26.132,4.666
	C290.229,467.145,301.623,469.887,302.898,466.222z M410.217,410.81c-0.164-0.031-0.329-0.06-0.493-0.09
	c-2.122-0.067-5.211,1.825-6.967,2.67c-2.195,1.056-4.375,2.14-6.551,3.234c-5.354,2.693-10.708,5.396-16.168,7.868
	c-8.726,3.952-17.545,7.695-26.37,11.42c-15.991,6.749-32.494,12.876-47.975,20.767c0.277,3.313,0.71,6.705-0.196,9.202
	c6.385-3.047,13.159-5.44,19.685-8.089c12.4-5.032,24.792-10.099,37.023-15.531c11.825-5.251,23.79-10.63,34.817-17.442
	C400.425,422.716,412.282,416.422,410.217,410.81z M323.639,414.928c-18.26,6.918-35.845,15.483-54,22.666
	c-1.909,0.756-0.117,1.29,1.048,0.83c18.155-7.184,35.74-15.749,54-22.666C326.608,415.029,324.805,414.486,323.639,414.928z
	 M331.639,418.26c-18.26,6.918-35.845,15.485-54,22.666c-1.909,0.755-0.117,1.29,1.048,0.83c18.155-7.182,35.74-15.749,54-22.666
	C334.608,418.361,332.805,417.818,331.639,418.26z M304.975,448.996c-1.502-0.027-2.998-0.121-4.491-0.236
	c-0.822,0.331-1.64,0.673-2.464,0.998c-1.165,0.46-2.957-0.075-1.048-0.83c0.322-0.127,0.642-0.262,0.963-0.391
	c-3.654-0.362-7.296-0.854-10.952-1.188c-1.43,0.585-2.86,1.173-4.297,1.74c-1.165,0.46-2.957-0.075-1.048-0.83
	c0.917-0.362,1.829-0.741,2.743-1.111c-1.133-0.074-2.269-0.132-3.407-0.152c-1.962-0.036-0.262-1.99,1.041-1.967
	c2.192,0.04,4.373,0.2,6.549,0.409c2.796-1.166,5.58-2.365,8.356-3.582c-1.313-0.095-2.627-0.17-3.946-0.194
	c-1.962-0.036-0.262-1.99,1.041-1.967c2.281,0.042,4.549,0.214,6.813,0.436c2.666-1.19,5.324-2.398,7.978-3.617
	c-1.275-0.09-2.552-0.162-3.833-0.186c-1.962-0.036-0.262-1.99,1.041-1.967c2.2,0.04,4.388,0.201,6.572,0.411
	c2.599-1.204,5.193-2.414,7.785-3.627c-1.13-0.073-2.263-0.131-3.398-0.151c-1.962-0.036-0.262-1.99,1.041-1.967
	c2.044,0.037,4.079,0.177,6.11,0.364c1.713-0.802,3.426-1.604,5.139-2.402c0.871-0.406,1.747-0.808,2.621-1.211
	c-0.968-0.059-1.938-0.101-2.911-0.118c-1.962-0.036-0.262-1.99,1.041-1.967c1.903,0.035,3.797,0.161,5.688,0.329
	c2.615-1.196,5.235-2.39,7.854-3.592c-0.859-0.048-1.72-0.089-2.583-0.104c-1.962-0.036-0.262-1.99,1.041-1.967
	c1.795,0.033,3.583,0.151,5.367,0.304c2.531-1.176,5.052-2.373,7.56-3.592c-0.656-0.03-1.311-0.067-1.968-0.079
	c-1.962-0.036-0.262-1.99,1.041-1.967c1.533,0.028,3.059,0.124,4.583,0.243c2.707-1.355,5.394-2.744,8.041-4.193
	c0.759-0.416,3.41-0.396,1.711,0.535c-2.433,1.332-4.901,2.61-7.385,3.864c3.816,0.377,7.62,0.892,11.44,1.229
	c3.226-1.595,6.423-3.238,9.567-4.962c0.759-0.416,3.41-0.396,1.711,0.535c-2.914,1.598-5.874,3.125-8.858,4.613
	c1.061,0.066,2.124,0.116,3.19,0.136c1.962,0.036,0.262,1.99-1.041,1.967c-1.926-0.035-3.844-0.163-5.758-0.335
	c-2.524,1.223-5.061,2.424-7.608,3.604c0.802,0.043,1.603,0.083,2.407,0.098c1.962,0.036,0.262,1.99-1.041,1.967
	c-1.741-0.032-3.475-0.146-5.206-0.292c-2.611,1.197-5.224,2.385-7.831,3.575c0.692,0.034,1.384,0.071,2.078,0.084
	c1.962,0.036,0.262,1.99-1.041,1.967c-1.645-0.03-3.283-0.136-4.918-0.27c-0.944,0.435-1.89,0.868-2.831,1.306
	c-1.618,0.753-3.236,1.509-4.854,2.265c0.548,0.023,1.096,0.057,1.645,0.066c1.962,0.036,0.262,1.99-1.041,1.967
	c-1.491-0.027-2.976-0.12-4.459-0.234c-2.545,1.188-5.092,2.375-7.643,3.556c0.381,0.014,0.761,0.039,1.143,0.046
	c1.962,0.036,0.262,1.99-1.041,1.967c-1.35-0.024-2.695-0.104-4.039-0.202c-2.594,1.19-5.193,2.37-7.799,3.533
	c0.293,0.01,0.586,0.031,0.879,0.036c1.962,0.036,0.262,1.99-1.041,1.967c-1.316-0.024-2.627-0.1-3.938-0.194
	c-2.725,1.194-5.458,2.37-8.202,3.514c0.394,0.015,0.786,0.041,1.18,0.048C307.979,447.065,306.278,449.02,304.975,448.996z
	 M349.785,418.893c3.765,0.391,7.52,0.887,11.292,1.196c2.606-1.203,5.206-2.421,7.792-3.664c-3.806-0.402-7.602-0.902-11.417-1.197
	C354.909,416.473,352.353,417.693,349.785,418.893z M338.102,424.259c3.759,0.396,7.51,0.89,11.279,1.188
	c2.647-1.215,5.305-2.424,7.961-3.639c-3.756-0.388-7.503-0.885-11.266-1.198C343.419,421.833,340.759,423.047,338.102,424.259z
	 M326.462,429.629c3.791,0.407,7.574,0.904,11.376,1.187c2.254-1.055,4.507-2.109,6.76-3.16c0.348-0.162,0.698-0.322,1.046-0.483
	c-3.761-0.381-7.512-0.882-11.278-1.206c-1.495,0.686-2.987,1.372-4.474,2.063C328.749,428.562,327.605,429.096,326.462,429.629z
	 M314.917,435.01c3.795,0.415,7.583,0.913,11.393,1.176c2.607-1.204,5.21-2.416,7.812-3.631c-3.774-0.37-7.535-0.881-11.312-1.221
	C320.181,432.562,317.55,433.787,314.917,435.01z M303.184,440.372c3.773,0.418,7.54,0.91,11.328,1.163
	c2.674-1.186,5.339-2.391,8-3.606c-3.76-0.358-7.507-0.869-11.268-1.221C308.563,437.942,305.876,439.164,303.184,440.372z
	 M302.126,446.84c2.821-1.162,5.63-2.356,8.431-3.573c-3.722-0.353-7.431-0.855-11.153-1.209c-2.794,1.234-5.599,2.442-8.413,3.627
	C294.701,446.093,298.404,446.575,302.126,446.84z M536.952,250.94c0,30.972,0,61.943,0,92.916c0,0.467-0.536,0.836-1.148,1
	c0.198,0.429-0.085,1.063-1.014,1.372c-14.764,4.929-27.63,13.914-41.838,20.098c0,8.28,0,16.561,0,24.841
	c10.971-8.55,26.171-4.71,38.427-0.232c1.028-0.337,3.088-0.217,1.942,0.637c1.123-0.836,1.482,4.304,0.609,5.459
	c-5.155,6.825-14.736,10.916-21.981,15.037c-9.763,5.554-19.499,11.181-29.338,16.596c-3.728,2.052-7.572,4.654-11.636,5.997
	c-1.89,0.624-3.538,0.896-5.527,0.899c-0.582,0-1.183-0.26-1.775-0.486c-0.337,0.094-0.693,0.096-1.002-0.046
	c-0.214-0.098-0.431-0.186-0.648-0.274c-0.543,0.004-0.821-0.14-0.901-0.346c-4.624-1.646-9.761-1.686-14.208-3.814
	c-2.873-1.375-7.876-5.533-6.141-9.447c1.079-2.435,4.954-4.848,7.061-6.262c2.962-1.987,6.043-3.765,9.261-5.31
	c7.48-3.593,15.312-6.519,22.332-11.002c0.185-0.118,0.396-0.188,0.614-0.226c0-8.331,0-16.661,0-24.992
	c-12.657,7.133-25.121,14.599-37.725,21.822c-6.315,3.62-12.648,7.225-19.136,10.529c-0.075,0.038-0.151,0.066-0.226,0.103
	c0,0.017,0,0.032,0,0.048c0,0.832-1.697,1.354-2.5,0.955c-0.968,0.304-1.959,0.535-2.997,0.724
	c-2.041,0.372-3.373-0.914-5.231-0.786c-0.041,0.003-0.072,0.001-0.111,0.002c-0.861,0.352-2.075,0.281-2.075-0.59
	c0-22.443,0-44.888,0-67.332c0-15.84,0-31.681,0-47.521c-0.657-0.146-0.715-0.677,0-1.027c0-0.101,0-0.202,0-0.304
	c-1.057,0.089-1.985-0.492-0.419-1.117c20.856-8.321,42.37-15.195,63.613-22.447c11.84-4.042,23.598-8.194,35.292-12.646
	c6.175-2.351,12.694-5.691,19.285-6.57c1.899-0.254,5.184,0.069,7.334,1.312c0.824-0.236,1.808-0.101,1.808,0.683
	c0,0.255,0,0.51,0,0.765c0.039,0.008,0.081,0.007,0.119,0.017C537.899,250.171,537.565,250.604,536.952,250.94z M412.919,288.963
	c0.021,0.069,0.032,0.145,0.032,0.228c0,0.24,0,0.481,0,0.723c1.532,0.078,2.991,0.452,4.669,0.544
	c3.547,0.194,7.336-1.704,10.637-2.851c5.919-2.058,11.854-4.069,17.797-6.061c12.745-4.27,25.518-8.456,38.273-12.693
	c10.847-3.604,21.396-7.786,31.979-12.098c4.731-1.928,9.461-3.881,14.301-5.522c0.858-0.292,1.876-0.683,2.92-0.976
	c-3.834-4.797-16.58,1.688-20.991,3.364c-6.07,2.306-12.124,4.663-18.226,6.885c-9.42,3.432-18.973,6.515-28.455,9.771
	C448.186,276.346,430.319,282.13,412.919,288.963z M420.039,405.396c0-22.188,0-44.377,0-66.566c0-15.556,0.002-31.111,0.002-46.668
	c0-0.176,0.082-0.336,0.209-0.479c-0.339,0.068-0.679,0.125-1.021,0.153c-1.987,0.164-4.229-0.522-6.278-0.654
	c0,15.781,0,31.563,0,47.344c0,22.212,0,44.424,0,66.637C416.048,405.056,416.621,406.587,420.039,405.396z M483.61,347.62
	c0.076,0.304-0.227,0.592-0.659,0.805c0,20.255,0,40.51,0,60.766c0,0.021-0.008,0.039-0.01,0.059
	c2.446,1.225,5.248,2.038,7.277,0.721c-0.11-0.12-0.18-0.273-0.18-0.475c0-22.443,0-44.888,0-67.332c0-0.027,0.01-0.053,0.013-0.08
	c-0.382-0.013-0.663-0.121-0.672-0.352c-0.074-1.718-2.167-2.349-3.569-1.735C482.908,341.265,482.971,345.053,483.61,347.62z
	 M492.952,393.152c0,4.64,0,9.28,0,13.92c0.887-0.258,2.087-0.273,1.969,0.004c-2.644,6.216-10.521,5.45-15.461,2.749
	c-0.111-0.061,0.162-0.274,0.579-0.493c0-2.841,0-5.682,0-8.522c-10.505,6.301-23.105,9.389-32.603,17.239
	c-12.297,10.165,11.273,12.372,16.884,14.941c0.237,0.108,0.395,0.239,0.497,0.381c0.044,0.012,0.077,0.018,0.124,0.03
	c4.015,1.104,7.689-1.139,10.983-2.91c4.363-2.348,8.688-4.764,12.986-7.227c8.149-4.672,16.396-9.178,24.509-13.91
	c4.308-2.513,8.76-4.962,12.818-7.869c1.639-1.175,6.669-4.293,5.665-7.112c-0.199-0.558-0.819-1.153-1.16-1.741
	c-0.173,0.016-0.325,0.01-0.429-0.029c-11.428-4.28-26.849-9.602-36.854,0.282C493.359,392.983,493.176,393.074,492.952,393.152z
	 M534.185,344.602c-0.091-0.115-0.146-0.26-0.146-0.44c0-30.955,0-61.91,0-92.866c-3.031,0.177-7.525,2.771-9.827,3.682
	c-5.53,2.189-11.018,4.482-16.532,6.713c-9.655,3.905-19.465,7.208-29.35,10.476c-12.199,4.033-24.406,8.045-36.577,12.161
	c-5.596,1.893-11.191,3.793-16.756,5.774c-0.885,0.315-1.794,0.688-2.717,1.01c0.391,0.091,0.675,0.325,0.675,0.746
	c0,15.556-0.002,31.111-0.002,46.668c0,21.848,0,43.697,0,65.546c2.631-1.399,5.263-2.796,7.867-4.243
	c5.459-3.034,10.877-6.143,16.276-9.283c10.964-6.378,21.875-12.848,32.943-19.044c0-8.002,0-16.003,0-24.005
	c0-0.251,0.158-0.471,0.396-0.649c-0.386-3.532,1.033-6.702,4.747-7.98c2.011-0.692,6.956-1.156,7.096,2.089
	c0.002,0.053-0.008,0.104-0.021,0.155c0.401,0.087,0.696,0.321,0.696,0.749c0,7.505,0,15.01,0,22.515
	C506.893,358.131,519.632,349.491,534.185,344.602z M457.716,162.313c-0.014,32.347-0.672,64.688-0.712,97.036
	c-52.098,0-104.195,0-156.292,0c-0.593,0-3.297,1.162-1.885,1.162c52.725,0,105.449,0,158.174,0c0,0.295-0.002,0.591-0.002,0.886
	c0,0.817,2.897,0.293,2.897-0.777c0.014-33.029,0.704-66.054,0.718-99.084C460.614,160.719,457.716,161.243,457.716,162.313z
	 M299.782,258.466c0.014-32.347,0.672-64.688,0.712-97.036c52.337,0,104.673,0,157.01,0c0.593,0,3.297-1.162,1.885-1.162
	c-52.893,0-105.785,0-158.678,0c-0.054,0-0.129,0.013-0.213,0.03c0-0.306,0.002-0.611,0.002-0.916c0-0.817-2.897-0.293-2.897,0.777
	c-0.014,33.029-0.704,66.054-0.718,99.084C296.884,260.061,299.781,259.536,299.782,258.466z M428.349,213.71
	c-1.056,1.091-2.149,2.147-3.235,3.208c-2.763,2.699-5.549,5.374-8.31,8.075c-2.524,2.471-5.041,4.955-7.43,7.558
	c-0.668,0.728-2.898,2.678-2.454,3.903c0.456,1.258,3.339,0.439,2.897-0.777c-0.18-0.496,3.294-3.778,3.878-4.387
	c2.663-2.774,5.431-5.449,8.188-8.129c2.556-2.483,5.128-4.949,7.66-7.457c0.829-0.82,2.22-1.855,2.773-3.015
	c0.074-0.115,0.121-0.241,0.146-0.371c0.005-0.017,0.015-0.033,0.02-0.05c0.004-0.016,0-0.031,0.002-0.047
	c0.005-0.068,0-0.137-0.013-0.205c-0.004-0.02,0.001-0.039-0.004-0.059c-0.335-1.207-1.969-2.352-2.803-3.184
	c-2.374-2.367-4.799-4.685-7.206-7.019c-2.912-2.823-5.817-5.654-8.643-8.565c-0.919-0.948-1.819-1.915-2.69-2.908
	c-0.438-0.5-1.177-1.939-1.366-1.417c0.583-1.607-2.323-1.646-2.783-0.377c-1.042,2.873,7.588,9.442,9.257,11.081
	c2.789,2.737,5.603,5.449,8.405,8.172c1.207,1.173,2.409,2.351,3.589,3.551c0.299,0.305,0.591,0.615,0.881,0.929
	c0.157,0.17,0.242,0.272,0.303,0.349c-0.046,0.055-0.102,0.121-0.183,0.212C428.947,213.1,428.646,213.403,428.349,213.71z
	 M343.788,193.382c0.605-0.631,4.019-3.98,3.897-4.316c-0.485-1.338,2.402-2.144,2.897-0.777c0.465,1.284-1.729,3.205-2.435,3.974
	c-2.389,2.603-4.906,5.087-7.43,7.558c-2.942,2.878-5.916,5.725-8.855,8.605c-1.017,0.997-2.043,1.988-3.024,3.021
	c-0.498,0.524-0.65,0.75-0.705,0.797c0.061,0.074,0.141,0.169,0.266,0.304c0.29,0.313,0.583,0.624,0.881,0.929
	c1.064,1.083,2.147,2.148,3.235,3.208c2.767,2.695,5.554,5.37,8.31,8.075c2.659,2.61,5.375,5.202,7.834,8.007
	c0.73,0.832,2.307,2.182,1.851,3.438c-0.413,1.141-3.312,1.259-2.756-0.275c0.02-0.055-3.371-3.675-4.077-4.403
	c-2.678-2.76-5.429-5.449-8.188-8.128c-2.557-2.481-5.137-4.94-7.66-7.457c-0.82-0.818-2.465-1.969-2.796-3.157
	c-0.031-0.111-0.024-0.22,0-0.325c0.009-0.097,0.029-0.196,0.058-0.299c0.372-1.337,2.389-2.743,3.314-3.654
	c2.383-2.347,4.795-4.664,7.194-6.995C338.356,198.829,341.125,196.155,343.788,193.382z M328.095,212.192
	c-0.013-0.086-0.046-0.264-0.242-0.479c0.11,0.129,0.166,0.263,0.177,0.396C328.043,212.127,328.073,212.165,328.095,212.192z
	 M387.069,187.123c-0.317,0.773-0.681,1.528-1.038,2.283c-1.04,2.201-2.14,4.375-3.233,6.55c-3.183,6.328-6.423,12.627-9.6,18.957
	c-1.106,2.205-12.455,21.896-9.059,23.414c1.144,0.512,3.361-1.13,1.693-1.875c0.773,0.346,1.098-2.047,1.501-3.057
	c1.027-2.577,2.225-5.09,3.412-7.596c3.071-6.481,6.335-12.872,9.582-19.266c2.766-5.445,5.579-10.87,8.23-16.372
	c0.468-0.973,3.419-6.057-0.074-5.036c-1.761,0.514-1.271,2.394,0.503,1.875C386.693,187.672,387.729,185.512,387.069,187.123z
	 M278.218,129.079c-0.014,32.753-0.681,65.503-0.722,98.257c-52.757,0-105.513,0-158.27,0c-0.593,0-3.297,1.162-1.885,1.162
	c53.384,0,106.767,0,160.151,0c0,0.3-0.002,0.6-0.002,0.899c0,0.817,2.897,0.293,2.897-0.777
	c0.014-33.44,0.713-66.877,0.728-100.318C281.116,127.484,278.219,128.009,278.218,129.079z M118.28,226.438
	c0.014-32.754,0.681-65.504,0.722-98.259c52.999,0,105.997,0,158.996,0c0.593,0,3.297-1.162,1.885-1.162
	c-53.552,0-107.103,0-160.655,0c-0.056,0-0.134,0.013-0.222,0.031c0-0.31,0.002-0.619,0.002-0.929c0-0.817-2.897-0.293-2.897,0.777
	c-0.014,33.44-0.713,66.877-0.728,100.318C115.382,228.033,118.279,227.509,118.28,226.438z M262.564,142.807
	c-43.253,0-86.506,0-129.76,0c-1.282,0-3.005,1.947-1.046,1.947c43.253,0,86.506,0,129.76,0
	C262.8,144.754,264.523,142.807,262.564,142.807z M131.758,165.701c17.447,0,34.893,0,52.34,0c1.282,0,3.005-1.947,1.046-1.947
	c-17.447,0-34.893,0-52.34,0C131.522,163.754,129.799,165.701,131.758,165.701z M199.319,163.754c-1.282,0-3.005,1.947-1.046,1.947
	c20.718,0,41.436,0,62.154,0c1.282,0,3.005-1.947,1.046-1.947C240.755,163.754,220.038,163.754,199.319,163.754z M131.758,188.145
	c43.253,0,86.506,0,129.76,0c1.282,0,3.005-1.947,1.046-1.947c-43.253,0-86.506,0-129.76,0
	C131.522,186.197,129.799,188.145,131.758,188.145z M131.758,209.09c17.447,0,34.893,0,52.34,0c1.282,0,3.005-1.947,1.046-1.947
	c-17.447,0-34.893,0-52.34,0C131.522,207.143,129.799,209.09,131.758,209.09z M199.319,207.143c-1.282,0-3.005,1.947-1.046,1.947
	c20.718,0,41.436,0,62.154,0c1.282,0,3.005-1.947,1.046-1.947C240.755,207.143,220.038,207.143,199.319,207.143z" fill="#000000"></path>
</svg>