<?xml version="1.0" standalone="no"?>
<svg version="1.1" id="Layer_1" xmlns="http://www.w3.org/2000/svg" xmlns:xlink="http://www.w3.org/1999/xlink" x="0px" y="0px" width="595.28px" height="595.28px" viewBox="0 0 595.28 595.28" enable-background="new 0 0 595.28 595.28" xml:space="preserve">
<path id="color_x5F_2" fill="#e04949" d="M456.166,192.456c-0.103-0.015-0.188-0.057-0.27-0.1c0.788-0.332,1.583-0.703,2.363-1.102
	C457.51,191.794,456.474,192.5,456.166,192.456z M429.164,260.741c0.985-0.991,3.286-2.793,3.83-4.477
	c0.725-7.223,1.071-14.477,0.81-21.779c-0.013-0.359,0.278-0.66,0.68-0.858c-0.581-1.301-0.836-2.716-0.665-4.034
	c-0.328,0.027-0.597-0.021-0.715-0.199c-0.741-1.12-2.026-2.867-3.319-4.867c-2.905,3.855-5.224,8.677-5.884,13.393
	c-0.171,1.218-3.121,1.653-2.926,0.26c0.783-5.588,3.707-11.187,7.264-15.506c0.071-0.087,0.164-0.159,0.264-0.225
	c-2.107-3.624-3.712-7.618-2.151-10.135c1.96-3.162,6.689-3.508,9.868-4.574c2.162-0.725,5.367-1.949,8.214-2.02
	c0.19-0.064,0.364-0.124,0.504-0.171c0.425-0.142,0.87-0.005,1.321,0.321c0.643,0.129,1.25,0.342,1.791,0.679
	c4.539,2.829,4.58,8.602,7.864,12.468c0.049,0.058-0.175,0.227-0.519,0.406c1.183,0.886,2.49,1.816,3.659,2.831l0.885,0.295
	l0.352,0.878c1.46,1.541,2.419,3.284,2.137,5.343l0.431,1.076c0.029-0.007,0.057-0.011,0.086-0.016
	c0.421-0.084,0.819-0.092,1.055,0.062c0.476,0.311,0.961,0.605,1.442,0.908c7.24,4.555,14.97,8.264,22.197,12.786
	c-2.005-5.792-3.652-11.738-5.329-17.614c-1.741-6.102-4.493-12.932-4.756-19.336c-0.043-1.042,2.864-1.6,2.897-0.775
	c0.263,6.397,3.005,13.241,4.756,19.334c2.034,7.078,3.988,14.263,6.604,21.154c1.553,1.091,3.074,2.231,4.546,3.455
	c0.656,0.547-1.999,1.662-2.708,1.074c-9.512-7.91-20.965-12.674-31.336-19.264c-2.94,2.279-5.054,5.355-4.978,9.195
	c0.156,0.05,0.284,0.129,0.357,0.254c5.48,9.364,15.796,17.273,24.339,23.698c5.159,3.88,13.504,10.092,18.52,2.739
	c3.816-5.595,5.494-12.68,5.439-19.387c-0.111-13.76-2.812-28.626-6.945-41.76c-2.179-6.926-5.258-15.762-12.492-18.891
	c-5.007-2.164-10.354-2.506-15.672-1.997c-1.69,0.348-3.38,0.731-4.67,1.034c0.004,0.053,0.013,0.104,0.014,0.156
	c0,0.014-0.009,0.025-0.009,0.039c-0.016,0.465-0.523,0.834-1.114,1.033c-0.407,0.293-0.806,0.598-1.201,0.904
	c-1.981,1.539-3.87,3.178-6.209,4.209c-1.775,0.781-3.671,1.104-4.672,0.113c-1.376-0.34-0.963-2.218-0.71-3.03
	c0-0.001-0.002-0.001-0.003-0.003c-0.052-0.137-0.107-0.262-0.162-0.39c-0.139-0.007-0.321-0.015-0.554-0.022
	c-0.292,0.129-0.601,0.209-0.875,0.188c-22.866-1.827-25.378,26.988-30.196,42.928c-2.159,7.141-5.707,15.752-4.46,23.348
	c0.585,3.57,2.45,6.627,6.308,7.248C425.576,263.739,426.934,262.985,429.164,260.741z M432.584,194.974
	c1.604-1.696,3.408-3.141,5.437-4.283C435.847,191.382,434.018,193.093,432.584,194.974z M435.586,208.894
	c-0.311,0.086-0.62,0.169-0.926,0.246c-1.434,0.362-3.543,0.77-4.776,1.831C431.46,210.396,433.502,209.649,435.586,208.894z
	 M504.966,390.887c-1.302-4.393-2.103-8.894-2.497-13.458c-0.819-9.503-0.465-19.084-1.453-28.572
	c-1.414-13.576-4.436-27.074-6.252-40.621c-1.52-11.341-4.118-23.607-3.346-35.102c0.019-0.271,0.267-0.494,0.605-0.666
	l-0.014-0.153c-2.912-0.401-5.759-1.737-8.21-3.327c-6.019-3.906-11.563-8.697-16.806-13.577c-4.25-3.956-8.847-8.103-11.907-13.11
	c-0.246-0.023-0.442-0.098-0.551-0.229c-0.173,0.09-0.376,0.176-0.646,0.244c-3.985,1.02-11.924,1.023-16.306-1.885
	c-0.302-0.068-0.569-0.129-0.796-0.182c-0.039,4.937-0.318,9.853-0.787,14.754c-0.004,0.134-0.015,0.27-0.038,0.408
	c-3.018,30.932-13.124,61.295-12.811,92.492c0.243,1.145,0.392,2.301,0.418,3.462c0.056,2.538-0.661,4.372-1.839,5.788
	c1.738-0.647,3.523-1.173,5.329-1.564c3.695-0.801,7.35-0.999,10.875-0.654c1.759,0.107,3.578,0.412,5.413,0.987
	c10.354,2.767,19.024,10.39,23.348,21.186c3.097,7.731,3.07,16.703,1.943,25.075c0.378-0.006,0.686,0.082,0.784,0.318
	c0.732,1.77,10.388,1.742,11.943,1.82c5.515,0.273,11.978,0.452,17.568-1.16c2.741-1.318,5.791-3.133,7.895-4.443
	c0.06-0.072,0.131-0.132,0.188-0.206C508.221,396.939,505.445,392.501,504.966,390.887z M213.474,362.804
	c0.507,3.456,0.878,6.93,1.08,10.407c0.48,8.265,1.494,19.583-2.717,27.14c-2.797,5.02-7.155,7.639-12.17,8.974
	c6.651,1.048,13.616,0.513,20.291,0.828c6.406,0.302,12.75,0.324,19.134-0.198c-0.29-6.803-0.334-13.74,0.436-20.498
	c1.119-9.823,6.307-19.318,13.38-26.186C239.789,361.976,226.628,362.699,213.474,362.804z M177.674,360.511
	c-3.888,0.589-9.939,1.666-14.218,2.445c-1.488,0.465-2.982,0.997-4.486,1.617c-0.036,0.015-0.074,0.025-0.111,0.039
	c0.422,0.18,0.666,0.551,0.438,1.128c-1.187,3.004-3.562,4.956-6.408,5.689c-0.428,0.199-0.887,0.324-1.196,0.278
	c-0.071-0.011-0.139-0.014-0.21-0.023c-0.958,0.107-1.95,0.094-2.958-0.063c-0.077-0.012-0.139-0.031-0.206-0.049
	c-11.146,0.814-14.406,14.912-7.034,23.172c6.702,7.508,16.868,14.047,27.129,14.746c0.774,0.053,0.941,0.346,0.795,0.676
	c0.08-0.004,0.152-0.002,0.208,0.012c3.794,0.929,7.628-8.915,9.457-11.738c1.85-2.857,6.532-8.189,2.603-11.006
	c-7.222-5.176-16.448-7.108-24.584-10.383c-0.181-0.072,1.962-1.268,2.739-0.955c5.616,2.26,11.44,3.961,17,6.379
	c2.305,1.002,10.39,3.628,9.344,7.383c-0.032,0.115-0.073,0.23-0.107,0.346c3.269,0,6.605,0.003,9.72-1.09
	c0.188-9.215,1.44-18.382,1.406-27.511c0,0-0.001,0-0.002,0C190.292,360.775,183.941,360.21,177.674,360.511z M171.32,411.142
	c0.166,0,0.331,0,0.496,0l0.163-0.27c-0.222,0.096-0.442,0.193-0.674,0.268L171.32,411.142z"></path>
<path id="color_x5F_1" d="M147.477,333.437c-0.526-0.525,2.153-1.588,2.722-1.02c0.623,0.623,1.245,1.245,1.867,1.867
	c0.526,0.527-2.154,1.588-2.722,1.02C148.722,334.681,148.099,334.058,147.477,333.437z M144.983,331.753
	c0.496-0.708,1.158-1.148,1.882-1.633c0.515-0.343,0.734-1.1,0.156-1.496c-0.628-0.432-1.495-0.214-2.078,0.176
	c-0.883,0.589-1.769,1.219-2.385,2.1C141.499,332.413,144.222,332.841,144.983,331.753z M150.004,343.388
	c-0.654-0.15-1.542,0.131-2.049,0.549c-0.483,0.398-0.314,0.803,0.25,0.932c1.624,0.373,3.405,0.227,4.922-0.475
	c0.284-0.132,1.263-0.633,0.794-1.083c-0.44-0.423-1.43-0.202-1.906,0.017C151.358,343.632,150.697,343.546,150.004,343.388z
	 M315.637,375.809C315.499,375.858,315.526,375.863,315.637,375.809L315.637,375.809z M193.093,202.402
	c-8.922-9.333-9.003-26.337-1.359-36.481c8.996-11.938,23.548-11.192,37.103-11.532c-2.011-17.356,13.414-29.085,29.294-31.315
	c13.359-1.877,27.606-0.048,34.212,13.274c3.523,7.104,5.695,17.699,2.589,25.523c2.221-0.37,4.441-0.739,6.662-1.109
	c3.387-0.563,8.618,1.443,11.792,2.591c7.287,2.632,14.204,6.979,17.495,14.307c2.929,6.521,4.15,14.674,0.327,21.107
	c-4.528,7.618-12.478,11.621-20.813,13.779c-5.916,1.336-12.193,1.491-18.224,1.793c-10.775,0.54-21.572,0.748-32.36,0.684
	c-13.198-0.081-26.409-0.468-39.572-1.473C210.154,212.78,200.354,209.997,193.093,202.402z M199.174,204.046
	c5.046,3.652,10.685,6.759,17.015,7.293c5.756,0.486,11.52,0.885,17.289,1.162c10.762,0.516,21.537,0.77,32.312,0.729
	c9.689-0.036,19.388-0.217,29.062-0.794c4.992-0.298,10.209-0.411,15.107-1.519c8.163-2.111,17.373-6.746,19.947-15.523
	c1.838-6.27,0.31-14.176-3.381-19.555c-4.394-6.403-11.279-10.102-18.71-11.938c-3.236-0.801-5.978-1.462-9.243-0.918
	c-1.906,0.317-3.812,0.635-5.718,0.953c-0.607,0.101-1.565-0.194-1.187-0.965c3.434-6.982,1.647-17.498-1.455-24.242
	c-6.042-13.134-18.999-16.084-32.432-13.881c-10.757,1.766-21.334,7.121-24.736,18.194c-1.143,3.722-1.777,7.907-1.151,11.794
	c0.124,0.77-1.015,1.256-1.624,1.277c-13.665,0.469-30.558-1.252-37.784,13.145C186.708,180.771,188.318,196.189,199.174,204.046z
	 M278.151,256.156c-6.461,6.796-11.945,14.455-18.457,21.213c0.071,0.073,0.138,0.149,0.209,0.222c0.424,0.432-2.22,1.5-2.733,0.977
	c-0.018-0.019-0.035-0.038-0.053-0.057c-0.509,0.023-0.848-0.061-0.6-0.313c0.052-0.053,0.1-0.108,0.152-0.161
	c-6.841-7.086-12.528-15.186-19.412-22.227c-0.353-0.361,1.412-1.156,2.313-1.115c0.309-0.094,0.632-0.145,0.916-0.145
	c2.202,0,4.405,0,6.607,0c0-8.875,0-17.75,0-26.625c0-0.752,2.487-1.158,2.85-0.859c0.064-0.012,0.121-0.02,0.165-0.02
	c6.448,0,12.897,0,19.346,0c0.548-0.1,1.068-0.107,1.257,0c0.168,0,0.335,0,0.503,0c0.794,0,0.282,0.367-0.422,0.688
	c0,8.872,0,17.744,0,26.615c0,0.053-0.013,0.104-0.036,0.152c2.631,0,5.262,0,7.893,0c0.491,0,1.172,0.338,0.802,0.912
	C279.176,255.839,278.663,256.06,278.151,256.156z M275.695,256.22c-2.535,0-5.071,0-7.606,0c-0.491,0-1.172-0.338-0.802-0.912
	c0.145-0.225,0.365-0.379,0.607-0.502c0-8.869,0-17.736,0-26.604c-5.968,0-11.936,0-17.904,0c0,8.716,0,17.432,0,26.146
	c0,0.266-0.311,0.486-0.728,0.65c0.027,0.108,0.006,0.236-0.099,0.386c-0.398,0.569-1.262,0.786-1.914,0.786c-2,0-4,0-6,0
	c6.021,6.4,11.225,13.522,17.246,19.929C264.45,269.665,269.64,262.56,275.695,256.22z M431.755,168.804
	c-0.021-1.537-2.956-1.104-2.938,0.215c0.021,1.473,0.314,2.889,1.421,3.936c1.125,1.063,2.707,1.275,4.189,1.297
	c0.638,0.009,1.515-0.492,1.594-1.18c0.089-0.769-0.77-0.959-1.343-0.967C432.681,172.076,431.781,170.694,431.755,168.804z
	 M443.325,173.353c3.789-0.842,6.484-3.201,8.778-6.225c1.089-1.436-1.671-1.644-2.385-0.703c-1.839,2.424-3.8,4.475-6.868,5.158
	C441.051,171.983,441.551,173.747,443.325,173.353z M438.06,159.763c0,0.67-0.032,1.396,0.221,2.029
	c0.343,0.857,1.057,1.32,1.846,1.729c1.244,0.645,3.309-1.167,1.654-2.023c-0.169-0.087-0.324-0.212-0.471-0.331
	c0.14,0.114-0.094-0.125-0.102-0.135c-0.023-0.031-0.04-0.051-0.052-0.064c-0.005-0.015-0.009-0.027-0.019-0.051
	c-0.188-0.469-0.136-0.809-0.136-1.348C441.002,157.995,438.059,158.392,438.06,159.763z M423.147,165.743
	c0,1.087,0.031,2.154,0.355,3.201c0.292,0.943,3.179,0.131,2.897-0.777c-0.324-1.047-0.354-2.113-0.355-3.201
	C426.045,164.155,423.146,164.679,423.147,165.743z M441.451,153.323c-2.255,0.026-4.553,0.504-6.425,1.815
	c-0.479,0.335-0.773,1.038-0.175,1.425c0.614,0.396,1.512,0.199,2.073-0.194c1.233-0.864,2.776-1.011,4.242-1.028
	c0.614-0.007,1.512-0.457,1.606-1.133C442.877,153.465,441.981,153.316,441.451,153.323z M526.635,478.065
	c-0.933,1.857-3.509,2.649-5.385,3.089c-9.073,2.126-22.756,3.929-31.421-0.39c-3.398-1.693-7.79-3.924-7.674-8.359
	c0.118-4.485,1.066-8.443,0.021-12.943c-0.079-0.34,0.738-0.707,1.525-0.883c-3.869-9.568-5.225-20.6-6.769-30.609
	c-0.827-5.359-1.586-10.732-2.174-16.124c-0.112-1.029-1.146-4.948-0.41-5.873c0.166-0.208,0.603-0.456,1.091-0.637
	c-1.161-0.123-2.318-0.269-3.469-0.452c-0.673-0.107-2.325-0.2-3.646-0.542c-0.186,1.179-0.389,2.344-0.606,3.486
	c-1.925,10.104-6.547,19.187-8.642,29.195c-1.24,5.924-2.209,11.905-2.953,17.911c-0.562,4.535-0.569,9.301-1.436,13.777
	c-0.994,5.141-7.04,7.004-11.465,7.78c-7.23,1.27-14.831,0.669-22.1,0.058c-3.651-0.307-7.298-0.697-10.953-0.961
	c-1.297-0.094-2.604-0.204-3.905-0.184c-0.856,0.013-1.886,0.438-1.615-0.146c-0.564,1.214-3.494,1.159-2.782-0.373
	c0.232-0.499,0.628-0.889,1.147-1.188c-0.072-0.102-0.124-0.222-0.138-0.371c-0.037-0.385-0.063-0.771-0.098-1.156
	c-0.211,0.097-0.456,0.158-0.731,0.158c-88.897,0-177.794,0-266.691,0c-0.181,0-0.332-0.021-0.469-0.052
	c-0.018,0.188-0.029,0.374-0.047,0.562c-0.024,0.248-0.143,0.462-0.318,0.639c0.617,0.264,1.103,0.646,1.363,1.207
	c0.584,1.258-2.287,2.092-2.897,0.777c-0.558-1.201-13.506,0.797-15.171,0.941c-6.957,0.603-14.089,1.229-21.059,0.468
	c-4.258-0.465-10.826-1.415-12.989-5.813c-1.521-3.092-1.186-6.875-1.548-10.234c-0.551-5.102-1.205-10.196-2.063-15.256
	c-3.54-20.854-15.82-41.23-10.722-63.015c3.458-14.779,17.123-28.185,32.9-27.985c3.814,0.047,7.861,0.609,11.735,1.755
	c-4.599-2.327-8.173-5.803-9.058-11.894c-0.041-0.281-0.07-0.574-0.104-0.863c-0.607-2.103-0.571-4.34-0.162-6.727
	c0.324-5.074,1.656-10.361,4.304-14.402c1.682-3.682,4.95-6.021,8.771-7.453c2.788-1.396,5.801-2.291,8.927-2.732
	c2.415-8.39,13.163-12.066,20.628-14.143c14.233-3.959,29.216-5.182,43.917-5.915c26.945-1.345,53.756,0.327,80.686,0.38
	c0.182,0,0.319,0.018,0.436,0.043c26.074-0.252,52.059-1.729,78.155-0.182c22.461,1.332,70.576,3.143,64.798,37.699
	c-0.04,0.238-0.298,0.449-0.641,0.611c0.592,0.977,1.183,1.952,1.776,2.924c1.288,2.111,2.665,4.379,3.861,6.745
	c1.121-26.751,8.885-52.97,12.118-79.552c-1.83,1.875-3.931,3.468-5.164,4.004c-2.923,1.271-8.332,0.248-10.783-1.738
	c-7.249-5.873-2.215-19.242-0.064-26.393c3.826-12.718,6.495-31.592,16.113-41.762c1.604-1.696,3.408-3.141,5.437-4.283
	c3.646-2.054,8.027-3.119,13.386-2.76c-1.933-3.629-4.64-4.848-8.256-5.115c-4.556,4.191-11.037,6.203-17.116,5.148
	c-1.354-0.055-2.59-0.328-3.597-0.915c-0.161-0.094-0.306-0.193-0.461-0.29c-0.381-0.164-0.761-0.332-1.132-0.526
	c-8.039-4.192-9.611-12.192-1.984-17.729c0.074-0.054,0.2-0.107,0.352-0.157c-1.022-3.909-1.287-8.074-1.043-11.849
	c0.053-0.826,2.921-1.139,2.897-0.775c-0.078,1.203-0.096,2.491-0.047,3.826c1.674-0.811,3.584-0.926,5.435-0.248
	c0.679,0.249,0.106,0.967-0.24,1.184c-0.609,0.383-1.379,0.506-2.056,0.258c-1.097-0.402-1.834-0.169-2.661,0.611
	c-0.101,0.096-0.225,0.173-0.351,0.247c0.762,8.716,4.471,18.558,13.682,19.898c8.585,1.25,16.536-2.579,20.375,7.649
	c0.062,0.164-0.182,0.367-0.551,0.549c0.325-0.002,0.553,0.049,0.55,0.162c-0.014,0.637-0.051,2.102,0.693,2.498
	c0.083,0.043,0.167,0.085,0.27,0.1c0.308,0.044,1.344-0.662,2.093-1.201c0.25-0.18,0.469-0.342,0.617-0.451
	c1.505-1.106,2.905-2.361,4.442-3.424c0.001-0.001,0.003-0.002,0.005-0.002c-0.165-4.309-5.083-7.939-5.731-12.331
	c-0.726-4.911,4.681-8.94,5.417-13.696c1.436-9.266-7.976-2.504-12.186-5.248c-4.521-2.945-4.97-7.106-5.504-11.992
	c-0.114,0.037-0.228,0.074-0.342,0.112c-1.768,0.813-4.92,2.252-8.223,3.716c-4.99,2.658-9.868,5.642-15.33,7.217
	c-5.525,1.592-14.975,2.24-15.151-6.047c-0.142-6.674,7.392-10.162,12.739-12.08c5.138-1.842,10.413-2.994,15.731-4.043
	c0.515-0.129,1.016-0.254,1.508-0.377c0.258-0.346,0.768-0.684,1.345-0.764c5.669-0.794,9.817-6.345,14.603-9.129
	c3.177-1.85,6.716-2.335,10.266-1.525c10.033,2.289,8.985,15.938,12.876,22.984c3.301,5.977,17.844,16.021,10.86,24.111
	c-5.682,6.584-15.357,8.305-23.189,11.118c1.152,1.831,2.354,3.714,2.903,5.528c6.938-1.301,15.137-2.112,21.799,0.77
	c7.691,3.326,11.361,10.767,13.773,18.432c2.698,8.575,4.416,17.521,5.814,26.393c1.269,8.053,2.741,17.06,0.806,25.138
	c-1.439,6.01-3.894,13.081-9.927,15.839c-1.266,0.578-2.565,0.863-3.869,0.929c-0.491,7.52,0.903,15.403,1.796,22.841
	c1.255,10.445,2.688,20.873,4.322,31.266c1.625,10.34,3.693,20.45,4.059,30.951c0.46,13.199-0.05,27.274,6.184,39.324
	c-0.004,0.053-0.008,0.105-0.013,0.159c-2.718,4.216-7.468,6.414-12.531,7.563c0.378,0.074,0.676,0.285,0.745,0.678
	c3.148,18.055,2.908,36.741,2.868,55.055c6.819,4.633,14.792,7.492,21.353,12.514C524.312,473.714,527.643,476.06,526.635,478.065z
	 M426.75,152.118c-3.289,1.199-6.756,2.545-10.402,2.777C419.363,154.899,423.013,153.733,426.75,152.118z M427.761,180.913
	c-0.833-0.506-1.595-1.082-2.305-1.708C426.169,179.909,426.939,180.499,427.761,180.913z M440.804,182.757
	c-0.073,0.002-0.148,0.004-0.222,0.006c0.061,0.009,0.127,0.019,0.186,0.027C440.779,182.778,440.792,182.769,440.804,182.757z
	 M506.832,398.718c0.06-0.072,0.131-0.132,0.188-0.206c1.201-1.572-1.575-6.011-2.053-7.625c-1.302-4.393-2.103-8.894-2.497-13.458
	c-0.819-9.503-0.465-19.084-1.453-28.572c-1.414-13.576-4.436-27.074-6.252-40.621c-1.52-11.341-4.118-23.607-3.346-35.102
	c0.019-0.271,0.267-0.494,0.605-0.666c0.078-0.039,0.157-0.078,0.243-0.112c-0.086-0.011-0.171-0.029-0.257-0.041
	c-2.912-0.401-5.759-1.737-8.21-3.327c-6.019-3.906-11.563-8.697-16.806-13.577c-4.25-3.956-8.847-8.103-11.907-13.11
	c-0.246-0.023-0.442-0.098-0.551-0.229c-0.173,0.09-0.376,0.176-0.646,0.244c-3.985,1.02-11.924,1.023-16.306-1.885
	c-0.277-0.184-0.542-0.378-0.789-0.586c-0.001,0.135-0.006,0.27-0.007,0.404c-0.039,4.937-0.318,9.853-0.787,14.754
	c-0.004,0.134-0.015,0.27-0.038,0.408c-3.018,30.932-13.124,61.295-12.811,92.492c0.243,1.145,0.392,2.301,0.418,3.462
	c0.056,2.538-0.661,4.372-1.839,5.788c1.738-0.647,3.523-1.173,5.329-1.564c3.695-0.801,7.35-0.999,10.875-0.654
	c1.845,0.182,3.652,0.518,5.413,0.987c10.354,2.767,19.024,10.39,23.348,21.186c3.097,7.731,3.07,16.703,1.943,25.075
	c0.378-0.006,0.686,0.082,0.784,0.318c0.732,1.77,10.388,1.742,11.943,1.82c5.515,0.273,11.978,0.452,17.568-1.16
	c1.41-0.406,2.767-0.922,4.036-1.584C504.384,400.841,505.8,399.962,506.832,398.718z M435.586,208.894
	c-0.311,0.086-0.62,0.169-0.926,0.246c-1.434,0.362-3.543,0.77-4.776,1.831c-0.649,0.56-1.059,1.297-0.991,2.312
	c0.111,1.657,0.481,3.299,1.138,4.834c1.334,3.115,3.059,6.003,4.891,8.838c0.295-0.365,0.652-0.695,1.071-0.988
	c-0.593-2.039-0.734-4.121-0.061-6.438c0.24-0.826,1.165-1.211,1.977-1.137c2.949,0.266,5.026,1.76,7.173,3.721
	c0.214,0.195,6.823,6.147,7.089,2.871c0.13-1.603,0.144-3.162,0.473-4.744c0.042-0.201,0.155-0.381,0.301-0.54
	c-2.29-2.762-2.775-6.343-4.68-9.308C445.187,205.599,440.193,207.612,435.586,208.894z M458.776,230.997
	c2.192-3.73-0.66-6.319-3.55-8.443c-0.273,2.764-0.502,5.022-4.246,5.426c-5.319,0.574-7.963-5.521-12.445-7.169
	c-0.253,1.718-0.054,3.274,0.449,4.821c0.159,0.168,0.236,0.369,0.208,0.574c0.351,0.944,0.792,1.895,1.313,2.885
	c0.689,1.311-2.086,2.343-2.659,1.254c-0.348-0.662-0.661-1.313-0.952-1.963c-0.898,1.945,0.492,4.967,1.832,6.394
	c0.558,0.594-0.109,1.227-0.945,1.484c1.972,5.154,11.206,6.222,15.837,5.038c0.335-0.086,0.597-0.103,0.817-0.092
	c0.031-3.817,1.912-6.834,4.623-9.273C458.679,231.782,458.493,231.478,458.776,230.997z M420.52,232.626
	c-2.159,7.141-5.707,15.752-4.46,23.348c0.585,3.57,2.45,6.627,6.308,7.248c3.209,0.518,4.567-0.236,6.797-2.48
	c0.985-0.991,3.286-2.793,3.83-4.477c0.725-7.223,1.071-14.477,0.81-21.779c-0.013-0.359,0.278-0.66,0.68-0.858
	c-0.581-1.301-0.836-2.716-0.665-4.034c-0.328,0.027-0.597-0.021-0.715-0.199c-0.741-1.12-2.026-2.867-3.319-4.867
	c-2.905,3.855-5.224,8.677-5.884,13.393c-0.171,1.218-3.121,1.653-2.926,0.26c0.783-5.588,3.707-11.187,7.264-15.506
	c0.071-0.087,0.164-0.159,0.264-0.225c-2.107-3.624-3.712-7.618-2.151-10.135c1.96-3.162,6.689-3.508,9.868-4.574
	c2.162-0.725,5.367-1.949,8.214-2.02c0.632-0.015,1.243,0.033,1.825,0.15c0.643,0.129,1.25,0.342,1.791,0.679
	c4.539,2.829,4.58,8.602,7.864,12.468c0.049,0.058-0.175,0.227-0.519,0.406c1.183,0.886,2.49,1.816,3.659,2.831
	c0.437,0.379,0.853,0.769,1.236,1.173c1.46,1.541,2.419,3.284,2.137,5.343c-0.056,0.409-0.145,0.825-0.306,1.26
	c0.042-0.001,0.083-0.002,0.124-0.002c0.198-0.077,0.406-0.136,0.612-0.182c0.029-0.007,0.057-0.011,0.086-0.016
	c0.421-0.084,0.819-0.092,1.055,0.062c0.476,0.311,0.961,0.605,1.442,0.908c7.24,4.555,14.97,8.264,22.197,12.786
	c-2.005-5.792-3.652-11.738-5.329-17.614c-1.741-6.102-4.493-12.932-4.756-19.336c-0.043-1.042,2.864-1.6,2.897-0.775
	c0.263,6.397,3.005,13.241,4.756,19.334c2.034,7.078,3.988,14.263,6.604,21.154c1.553,1.091,3.074,2.231,4.546,3.455
	c0.656,0.547-1.999,1.662-2.708,1.074c-9.512-7.91-20.965-12.674-31.336-19.264c-2.94,2.279-5.054,5.355-4.978,9.195
	c0.156,0.05,0.284,0.129,0.357,0.254c5.48,9.364,15.796,17.273,24.339,23.698c5.159,3.88,13.504,10.092,18.52,2.739
	c3.816-5.595,5.494-12.68,5.439-19.387c-0.111-13.76-2.812-28.626-6.945-41.76c-2.179-6.926-5.258-15.762-12.492-18.891
	c-5.007-2.164-10.354-2.506-15.672-1.997c-1.574,0.15-3.146,0.372-4.706,0.647c0.017,0.129,0.026,0.258,0.036,0.387
	c0.004,0.053,0.013,0.104,0.014,0.156c0,0.014-0.009,0.025-0.009,0.039c-0.016,0.465-0.523,0.834-1.114,1.033
	c-0.407,0.293-0.806,0.598-1.201,0.904c-1.981,1.539-3.87,3.178-6.209,4.209c-1.775,0.781-3.671,1.104-4.672,0.113
	c-0.465-0.461-0.739-1.203-0.714-2.32c0.004-0.191,0.171-0.357,0.42-0.495c-0.211-0.021-0.366-0.087-0.416-0.215
	c0-0.001-0.002-0.001-0.003-0.003c-0.052-0.137-0.107-0.262-0.162-0.39c-0.037-0.086-0.073-0.177-0.109-0.264
	c-0.137,0.093-0.289,0.172-0.444,0.241c-0.292,0.129-0.601,0.209-0.875,0.188C427.85,187.871,425.337,216.687,420.52,232.626z
	 M129.597,311.976c0.682-0.037,1.367-0.062,2.055-0.059c5.241,0.021,14.545,0.188,16.536,6.26c0.756-0.119,1.457-0.015,1.292,0.407
	c-0.273,0.7-0.621,1.353-1.001,1.981c1.92,2.125,3.253,4.705,5.185,6.814c1.843,2.012,3.968,2.807,6.787,1.835
	c1.178-0.406,2.332-0.726,3.552-0.974c0.192-0.04,1.232-0.12,1.22,0.297c-0.085,2.843-2.444,4.445-4.378,6.225
	c2.554,3.244,5.249,7.766,4.558,12.045c-0.992,6.146-10.371,9.418-5.818,15.956c0.054,0.077,0.092,0.153,0.121,0.229
	c12.388-4.653,24.229-4.468,37.271-2.956c-0.105-5.05-0.651-10.088-2.037-15.115c-0.057-0.015-0.109-0.033-0.153-0.059
	c-2.854-1.623-10.165-9.147-3.426-10.953c0.661-0.178,1.433-0.197,2.229-0.176c-0.882-6.838-2.502-13.534-2.666-20.477
	c-0.097-4.095,1.485-10.597,6.884-7.115c0.217,0.14,0.309,0.293,0.317,0.447c0.189,0.042,0.319,0.124,0.344,0.258
	c0.788,4.137,1.344,8.316,1.999,12.479c0.126-0.015,0.246-0.023,0.342-0.018c10.685,0.584,9.168,14.535,7.515,22.428
	c2.211,6.302,3.848,12.82,4.912,19.43c13.935-0.061,27.88-0.944,41.774,0.538c0.31,0.033,0.512,0.103,0.644,0.192
	c5.694-6.055,12.835-11.17,19.247-16.263c0.014-0.214,0.15-0.462,0.479-0.739c7.59-6.378,13.203-14.903,20.743-21.402
	c4.935-4.255,13.379-11,20.378-7.23c8.894,4.79,7.158,17.693,5.64,25.893c-2.006,10.833-5.313,21.609-9.785,31.688
	c-0.026,0.06-0.063,0.115-0.104,0.169c0.633,0.074,1.267,0.155,1.9,0.26c0.11,0.019,0.207,0.043,0.295,0.071
	c3.05-1.581,11.011-2.238,12.393-2.521c10.642-2.182,21.33-4.333,31.8-7.246c7.058-1.963,14.45-4.613,21.59-7.597
	c0.274-0.2,0.668-0.364,1.073-0.45c6.165-2.614,12.118-5.465,17.471-8.33l0.112-0.857c-0.146-0.041-0.237-0.109-0.235-0.211
	c0.127-7.4-2.527-14.197-3.407-21.453c-0.356-2.936-1.215-8.907,1.523-11.174c4.532-3.75,8.961,2.471,11.271,5.771
	c1.666,2.379,3.227,4.838,4.756,7.316c0.383-8.144-3.197-15.984-9.479-21.376c-4.293-3.685-9.785-5.562-15.187-7.003
	c-14.676-3.916-30.136-5.037-45.259-5.67c-23.863-1-47.624,0.268-71.458,0.507c-0.204,0.071-0.403,0.116-0.575,0.116
	c-24.753-0.049-49.425-1.607-74.196-0.665c-14.696,0.56-29.703,1.425-44.073,4.771C144.785,300.081,132.117,302.978,129.597,311.976
	z M314.367,403.599c1.604,0.164,3.759-0.885,5.178-1.395c3.391-1.217,6.726-2.592,10.039-4.008
	c7.287-3.113,14.499-6.398,21.703-9.698c11.304-5.178,22.41-10.863,33.637-16.253c-0.244-4.992-2.745-9.379-4.716-13.885
	c-5.085,2.264-10.235,4.463-15.525,6.074c-9.535,2.905-19.275,5.086-29.022,7.139c-4.491,0.947-8.99,1.857-13.485,2.785
	c-1.524,0.314-3.049,0.623-4.568,0.965c-0.506,0.113-1.013,0.223-1.515,0.351c-0.243,0.063-0.373,0.104-0.456,0.135
	c0.131-0.065,0.344-0.215,0.462-0.463c-0.226,0.408-0.892,0.703-1.523,0.796C314.666,385.263,315.53,394.522,314.367,403.599z
	 M387.787,370.892c5.787-2.744,11.608-5.402,17.517-7.845c0.153-0.063,0.307-0.099,0.459-0.118
	c2.075-4.834-0.654-11.475-5.53-13.436c-0.081-0.033,0.13-0.195,0.46-0.379c-0.024-0.014-0.044-0.023-0.067-0.035
	c-4.672,2.501-9.682,4.509-14.522,6.65c-1.06,0.469-2.122,0.945-3.186,1.422C384.839,361.634,387.375,365.979,387.787,370.892z
	 M311.671,376.253c0-0.021,0.01-0.042,0.015-0.063c-4.255-0.536-8.514-0.424-12.794-0.354c-3.276,9.624-6.878,19.286-14.427,25.876
	c-3.149,2.749-6.825,5.107-10.785,6.947c8.198-0.23,16.387-1.026,24.542-1.824c3.934-0.385,8.874-1.668,13.12-1.528
	C312.724,395.712,311.724,385.9,311.671,376.253z M193.262,340.388c1.048,1.123,2.133,2.1,3.426,2.906
	c0.51-0.018,0.957,0.135,1.07,0.533c4.514,15.965,0.543,32.014,0.717,48.231c0.011,1.045-2.895,1.634-2.908,0.322
	c-0.008-0.757,0.001-1.514,0.01-2.271c-3.285,0.997-6.678,1.225-10.102,1.27c-1.862,5.07-5.797,10.113-8.481,14.65
	c-0.461,0.779-0.972,1.504-1.527,2.16c12.141,0.088,32.001,3.107,35.111-12.422c3.371-16.83,0.815-35.67-4.682-51.906
	c-0.46-0.017-0.791-0.167-0.715-0.502c0.067-0.296,0.139-0.623,0.211-0.965c-0.074-0.211-0.144-0.427-0.219-0.637
	c-0.179-0.498,0.116-0.922,0.579-1.187c1.203-6.572,2.158-17.49-4.339-19.495c-0.569,4.975,3.3,11.121-2.044,14.208
	c-1.525,0.882-3.756,1.107-5.422,0.599C190.223,334.748,191.747,338.766,193.262,340.388z M194.482,320.515
	c0.586,4.438,1.561,8.837,2.103,13.276c1.826-0.114,3.162-0.827,2.703-3.876c-0.239-1.587-0.597-3.16-0.789-4.732
	c-0.041-0.038-0.072-0.081-0.083-0.135c-1.101-5.774-1.744-11.631-2.841-17.404c-0.017-0.01-0.037-0.016-0.053-0.025
	c-1.143-0.736-0.943-1.014-1.275,0.389c-0.247,1.036-0.381,2.089-0.405,3.156C193.771,314.29,194.073,317.417,194.482,320.515z
	 M240.923,411.142c0.993,0,1.985,0,2.978,0c-0.646-0.225-1.287-0.468-1.919-0.736C241.836,410.769,241.362,411.009,240.923,411.142z
	 M171.816,411.142c9.558,0,19.115,0,28.673,0c-1.872-0.199-3.724-0.492-5.541-0.927c-7.074,0.869-14.827,0.063-21.161,0.167
	c-0.268,0.004-0.485-0.035-0.664-0.103c-0.365,0.233-0.75,0.423-1.144,0.593c-0.222,0.096-0.442,0.193-0.674,0.268
	c-0.002,0-0.004,0.002-0.006,0.002c0.007,0,0.014,0,0.021,0C171.486,411.142,171.651,411.142,171.816,411.142z M137.02,411.142
	c9.809,0,19.618,0,29.427,0c-6.808-0.662-13.455-3.639-19.01-7.536c-3.436-2.409-7.392-5.408-10.07-9.078
	C137.525,400.063,137.288,405.603,137.02,411.142z M239.526,389.456c1.119-9.823,6.307-19.318,13.38-26.186
	c-13.117-1.295-26.278-0.571-39.433-0.467c0.507,3.456,0.878,6.93,1.08,10.407c0.48,8.265,1.494,19.583-2.717,27.14
	c-2.797,5.02-7.155,7.639-12.17,8.974c6.651,1.048,13.616,0.513,20.291,0.828c6.406,0.302,12.75,0.324,19.134-0.198
	C238.801,403.151,238.757,396.214,239.526,389.456z M177.674,360.511c-4.748,0.229-9.449,0.959-14.218,2.445
	c-1.488,0.465-2.982,0.997-4.486,1.617c-0.036,0.015-0.074,0.025-0.111,0.039c0.422,0.18,0.666,0.551,0.438,1.128
	c-1.187,3.004-3.562,4.956-6.408,5.689c-0.428,0.199-0.887,0.324-1.196,0.278c-0.071-0.011-0.139-0.014-0.21-0.023
	c-0.958,0.107-1.95,0.094-2.958-0.063c-0.077-0.012-0.139-0.031-0.206-0.049c-11.146,0.814-14.406,14.912-7.034,23.172
	c6.702,7.508,16.868,14.047,27.129,14.746c0.774,0.053,0.941,0.346,0.795,0.676c0.08-0.004,0.152-0.002,0.208,0.012
	c3.794,0.929,7.628-8.915,9.457-11.738c1.85-2.857,6.532-8.189,2.603-11.006c-7.222-5.176-16.448-7.108-24.584-10.383
	c-0.181-0.072,1.962-1.268,2.739-0.955c5.616,2.26,11.44,3.961,17,6.379c2.305,1.002,10.39,3.628,9.344,7.383
	c-0.032,0.115-0.073,0.23-0.107,0.346c3.269,0,6.605,0.003,9.72-1.09c0.188-9.215,1.44-18.382,1.406-27.511c0,0-0.001,0-0.002,0
	C190.292,360.775,183.941,360.21,177.674,360.511z M136.563,422.341c88.171,0,176.342,0,264.514,0
	c-0.117-3.068-0.272-6.141-0.424-9.213c-87.91,0-175.819,0-263.729,0C136.774,416.2,136.638,419.271,136.563,422.341z
	 M287.683,394.247c3.586-5.779,5.954-12.091,8.213-18.455c-1.237-0.361-0.683-1.982,0.728-2.057
	c1.355-3.837,2.719-7.672,4.324-11.404c0.063-0.432,0.172-0.889,0.313-1.359c-5.734-1.893-12.973-3.222-17.811-7.051
	c-2.732-2.162-5.255-4.586-7.668-7.101c-6.945,5.431-14.49,10.976-20.018,17.749c-0.266,0.325-1.346,0.592-2.063,0.603
	c-6.631,7.128-10.805,16.437-11.491,26.128c-0.387,5.461-0.441,10.956-0.261,16.432C256.76,415.573,278.92,408.373,287.683,394.247z
	 M318.74,344.941c1.46-7.368,4.682-22.171-3.862-26.772c-7.898-4.254-17.832,7.046-22.618,12.036
	c-4.756,4.958-9.047,10.583-14.225,15.128c2.309,2.438,4.71,4.87,7.341,6.953c4.645,3.676,10.827,5.215,16.496,6.971
	c0.716-1.754,1.631-3.465,2.066-4.479c2.102-4.911,4.44-9.93,7.973-13.993c0.838-0.965,3.616-0.56,2.416,0.82
	c-3.146,3.618-5.326,8.107-7.202,12.49c-0.527,1.23-2.045,3.912-2.829,6.19c0.166,0.173,0.215,0.422,0.061,0.763
	c-0.185,0.407-0.355,0.828-0.533,1.243c-0.025,0.346-0.004,0.655,0.076,0.917c0.182,0.598-0.342,1.085-0.996,1.311
	c-1.169,2.959-2.227,6.047-3.283,9.171c3.325-0.058,6.638-0.132,9.946,0.078c0.014-0.05,0.023-0.096,0.047-0.149
	C313.662,364.497,316.8,354.73,318.74,344.941z M146.124,319.561c-0.04,0.265-0.112,0.556-0.212,0.864
	c0.16-0.285,0.298-0.584,0.435-0.885C146.269,319.55,146.195,319.556,146.124,319.561z M136.328,313.373
	c1.972,0.329,3.625,0.841,4.978,1.396C139.813,314.058,138.081,313.626,136.328,313.373z M127.118,358.04
	c0.222,1.029,0.707,2.117,1.644,2.687c0.326,0.198,0.735,0.399,1.137,0.412c0.028-0.046,0.42-0.184,0.544-0.267
	c0.39-0.258,0.742-0.561,1.089-0.873c0.481-0.432,1.325-0.606,1.945-0.672c0.234-0.024,1.145-0.034,0.664,0.398
	c-0.034,0.03-0.074,0.059-0.109,0.09c0.172-0.002,0.325,0.021,0.437,0.084c4.345,2.471,8.1,6.641,11.182,10.605
	c0.749-0.206,1.52-0.36,2.307-0.471c0.366-0.397,0.954-0.688,1.55-0.596c3.295,0.514,5.786-0.984,7.006-4.075
	c0.136-0.345,0.458-0.587,0.836-0.731c-0.207-0.088-0.314-0.219-0.249-0.381c-0.06-0.053-0.114-0.111-0.162-0.179
	c-2.604-3.739-2.145-7.042,0.784-10.411c2.903-3.339,5.975-5.67,4.287-10.675c-0.925-2.744-2.29-5.037-4.093-7.272
	c-0.6-0.744,0.211-1.478,1.127-1.68c1.333-1.154,2.834-2.354,3.187-4.084c-2.877,0.852-6.1,2.342-8.88,0.578
	c-2.896-1.837-4.513-4.998-6.579-7.682c-4.168,4.597-11.122,7.141-16.316,9.787c5.317,4.593,8.981,13.002,3.709,18.918
	c-0.35,0.394-1.714,0.656-2.39,0.557c-0.142,0.018-0.284,0.032-0.423,0.038C128.398,352.268,126.508,355.214,127.118,358.04z
	 M131.866,351.173c0.297-0.377,0.559-0.762,0.784-1.156c-0.561,0.396-1.291,0.885-2.163,1.412
	C130.947,351.319,131.408,351.235,131.866,351.173z M124.716,355.221c0.16-0.306,0.351-0.589,0.565-0.858
	C125.034,354.624,124.847,354.911,124.716,355.221z M128.387,369.928c-6.48-9.902-20.359-15.348-31.958-12.551
	c-9.29,2.239-16.917,8.95-21.23,17.402c-4.879,9.562-4.364,20.968-2.56,31.286c1.792,10.25,6.419,19.355,8.626,29.421
	c1.287,5.87,2.277,11.806,3.046,17.766c0.619,4.786,0.589,9.858,1.502,14.583c1.338,6.915,11.5,7.092,16.97,7.127
	c7.666,0.051,15.267-0.82,22.894-1.445c1.247-0.102,3.905-0.6,6.225-0.522c2.059-21.446,1.052-43.007,2.251-64.495
	C134.854,395.97,135.577,380.916,128.387,369.928z M135.393,379.096c1.467-3.388,4.167-6.015,7.533-7.589
	c-2.978-3.851-6.649-7.91-10.847-10.4c-1.885,0.959-4.174,1.438-5.818,0.672c0.108,0.172,0.177,0.271,0.177,0.271l-1.341-0.149
	c1.184,0.952,2.289,1.994,3.271,3.154C131.844,369.156,134.038,373.991,135.393,379.096z M402.625,470.361
	c-1.187-14.167-1.179-28.37-1.393-42.58c-0.017-1.151-0.05-2.304-0.086-3.456c-88.21,0-176.42,0-264.63,0
	c-0.259,15.387-0.155,30.783-1.476,46.126c0.183-0.067,0.386-0.108,0.61-0.108c88.897,0,177.794,0,266.691,0
	C402.444,470.343,402.537,470.351,402.625,470.361z M406.593,369.092c1.741-2.897,4.023-5.326,6.646-7.324
	c-1.691,0.567-3.398,1.122-4.951,1.819c-0.099,0.045-0.234,0.082-0.387,0.111c-0.106,0.156-0.199,0.319-0.317,0.47
	c-0.084,0.106-0.222,0.196-0.388,0.273c-0.131,0.141-0.319,0.272-0.589,0.385c-19.886,8.218-38.926,18.588-58.52,27.509
	c-7.705,3.508-15.414,7.059-23.295,10.156c-3.005,1.183-7.249,3.506-10.751,3.351c-0.002,0.012-0.003,0.024-0.005,0.036
	c0.212,0.738-1.756,1.408-2.57,1.091c-0.078-0.001-0.182,0.001-0.354,0.013c-0.578,0.039-1.154,0.086-1.731,0.14
	c-1.342,0.124-2.683,0.255-4.024,0.39c-3.763,0.375-7.525,0.758-11.291,1.107c-8,0.742-16.031,1.465-24.071,1.572
	c-0.946,0.348-1.904,0.666-2.871,0.951c44.478,0,88.956,0,133.434,0c-0.252-5.377-0.438-10.753-0.26-16.111
	C400.593,386.049,401.893,376.914,406.593,369.092z M451.484,362.212c-10.002-6.978-23.515-7.113-33.975-0.701
	c-9.502,5.824-13.011,16.842-13.924,27.411c-0.946,10.954,0.262,21.911,0.486,32.87c0.347,16.931,0.078,33.881,1.702,50.758
	c0.013,0.133-0.008,0.258-0.042,0.378c4.28-0.485,10.65,0.938,12.712,1.124c8.914,0.805,21.862,3.258,30.102-1.393
	c3.78-2.135,3.383-5.721,3.756-9.581c0.53-5.483,1.2-10.958,2.088-16.396c0.853-5.229,1.771-10.489,3.244-15.585
	c1.212-4.192,3.205-8.064,4.486-12.232C467.988,399.772,469.964,375.104,451.484,362.212z M487.674,460.284
	c1.324,0.994,2.735,1.9,4.25,2.543c0.93,0.395,3.442,1.547,4.402,0.576c0.777-0.787,1.159-1.622,1.516-2.648
	c0.088-0.255,0.491-0.457,0.965-0.592c0.043-18.027,0.267-36.408-2.83-54.174c-0.083-0.477,0.209-0.873,0.634-1.138
	c-3.344,0.62-6.749,0.831-9.733,0.899c-3.228,0.074-6.478-0.005-9.707-0.27c-0.795,1.182,0.598,6.629,0.75,7.885
	c0.648,5.369,1.394,10.728,2.265,16.064C481.848,439.617,483.267,450.817,487.674,460.284z M515.059,470.354
	c-4.384-2.518-8.991-4.729-13.32-7.362c0,0.272-0.001,0.546-0.001,0.817c0,1.307-2.937,1.744-2.937,0.219
	c0-0.247,0.001-0.496,0.001-0.743c-3.317,3.063-9.003,1.068-13.013-1.495c-0.141,0.015-0.272,0.019-0.385,0.006
	c0.071,5.824-2.078,12.607,3.526,16.021c4.959,3.021,10.244,4.09,16.029,4.031c5.11-0.053,11.127-0.103,16.071-1.512
	C528.762,478.132,517.636,471.833,515.059,470.354z M324.852,125.258c15.511-2.731,30.216-8.645,45.637-11.748
	c-0.015-0.085-0.034-0.168-0.049-0.253c-0.228-1.282,2.678-2.012,2.897-0.777c2.514,14.145,8.848,27.158,11.688,41.208
	c0.627,0.065,1,0.313,0.803,0.892c-0.247,0.725-1.519,1.128-2.314,1.017c-0.116,0.03-0.314,0.078-0.645,0.161
	c-0.591,0.15-1.18,0.307-1.765,0.475c-1.899,0.549-3.786,1.137-5.667,1.744c-5.145,1.662-10.263,3.407-15.37,5.181
	c-4.985,1.731-9.963,3.483-14.928,5.271c-1.72,0.619-3.44,1.239-5.154,1.876c-0.597,0.223-2.415,1.29-1.461,0.391
	c-0.027-0.035-0.054-0.069-0.081-0.104c-0.261,0.34-0.697,0.635-1.232,0.709c-0.011,0.002-0.023,0.004-0.034,0.005
	c-0.608,0.085-1.429-0.345-1.302-0.916c-0.247-0.097-0.431-0.268-0.484-0.538c-2.793-14.23-9.246-27.375-11.787-41.676
	c-0.065-0.367,0.131-0.688,0.445-0.931C322.746,127.167,323.495,125.496,324.852,125.258z M326.146,126.911
	c0.185,0.104,0.316,0.262,0.356,0.488c2.518,14.166,8.869,27.199,11.703,41.277c2.068-0.92,4.703-1.436,6.449-2.063
	c6.169-2.217,12.351-4.396,18.551-6.522c5.599-1.919,11.203-3.882,16.892-5.522c0.13-0.038,0.956-0.292,1.942-0.521
	c-2.736-13.196-8.488-25.498-11.191-38.699C355.739,118.401,341.298,124.033,326.146,126.911z M333.303,129.623
	c10.906-1.954,21.271-6.022,32.104-8.278c-0.074-1.221,2.683-1.885,2.901-0.682c1.826,10.053,6.247,19.33,8.321,29.313
	c0.095,0.037,0.198,0.062,0.284,0.115c0.219,0.139,0.388,0.388,0.333,0.66c-0.004,0.02-0.008,0.039-0.012,0.059
	c-0.153,0.76-1.405,1.2-2.226,1.076c-0.111,0.027-0.291,0.072-0.582,0.15c-0.487,0.131-0.974,0.265-1.457,0.408
	c-1.326,0.396-2.647,0.809-3.963,1.237c-3.76,1.224-7.502,2.5-11.236,3.8c-4.828,1.682-10.417,2.941-14.94,5.365
	c-0.001,0.002-0.003,0.002-0.005,0.003c-0.011,0.006-0.023,0.011-0.034,0.017c0,0,0,0,0-0.001c-0.215,0.112-0.465,0.189-0.745,0.205
	c-0.008,0.001-0.017,0.001-0.025,0.001c-0.759,0.043-1.173-0.281-1.218-0.688c-0.218-0.102-0.379-0.267-0.429-0.516
	c-2.034-10.158-6.566-19.563-8.42-29.771c-0.04-0.217,0.017-0.415,0.128-0.594C331.412,131.114,332.129,129.833,333.303,129.623z
	 M351.608,157.151c1.313-2.723,3.126-5.214,4.091-8.088c-4.601,1.246-9.16,2.621-13.568,4.502c-0.234,0.1-0.487,0.153-0.729,0.17
	c0.668,2.24,1.269,4.502,1.75,6.799c2.629-1.244,5.487-2.238,8.371-3.145C351.541,157.315,351.567,157.236,351.608,157.151z
	 M372.151,144.512c-4.394,1.425-8.87,2.557-13.333,3.725c-0.837,2.934-2.483,5.437-3.888,8.104c1.735-0.528,3.446-1.054,5.08-1.614
	c2.588-0.889,5.18-1.782,7.784-2.631c-0.483,0.063-0.881,0.025-0.936-0.184c-0.47-1.812-2.127-3.309-3.908-3.791
	c-0.615-0.166,0.123-0.585,0.37-0.697c0.547-0.248,1.411-0.551,2.021-0.385c1.971,0.534,3.883,2.051,4.414,4.096
	c0.037,0.143-0.101,0.295-0.331,0.437c0.828-0.262,1.656-0.521,2.487-0.769c0.446-0.133,1.054-0.366,1.707-0.574
	C373.201,148.301,372.702,146.398,372.151,144.512z M368.847,134.192c-3.567,3.535-6.562,6.877-11.771,7.807
	c-3.102,0.554-6.073,0.933-9.222,0.684c-4.316-0.34-5.973,1.645-8.052,5.261c-0.041,0.071-0.103,0.136-0.173,0.198
	c0.481,1.461,0.954,2.924,1.407,4.393c5.066-2.162,10.322-3.652,15.609-5.047c0.378-0.209,0.845-0.326,1.26-0.33
	c4.644-1.213,9.303-2.389,13.871-3.91C370.855,140.212,369.83,137.208,368.847,134.192z M334.814,131.21
	c0.013,0.037,0.031,0.07,0.038,0.111c0.872,4.797,2.335,9.416,3.853,14.02c2.079-2.831,4.672-4.75,8.658-4.484
	c3.624,0.242,7.21,0.295,10.759-0.693c3.803-1.059,6.358-4.537,9.088-7.189c0.223-0.217,0.655-0.363,1.105-0.426
	c-0.981-3.082-1.887-6.188-2.559-9.361C355.313,125.371,345.28,129.118,334.814,131.21z M348.592,130.162
	c0.649-0.88,1.732-1.352,2.727-1.71c1.404-0.506,2.918-0.719,4.395-0.879c0.509-0.055,1.219,0.181,1.334,0.721
	c0.671-0.289,1.539-0.303,1.939,0.221c1.582,2.061,4.359,6.256,0.787,7.952c-1.729,0.82-3.783,0.53-5.558,0.027
	c-1.636-0.464-3.339-1.214-4.634-2.337C348.376,133.11,347.502,131.64,348.592,130.162z M351.012,131.281
	c0.009,0.048,0.019,0.097,0.033,0.145c0.018,0.062,0.039,0.12,0.063,0.179c0.063,0.111,0.131,0.221,0.208,0.323
	c0.099,0.131,0.205,0.257,0.319,0.374c0.023,0.024,0.023,0.025,0.036,0.039c0.047,0.043,0.094,0.086,0.142,0.127
	c0.287,0.245,0.593,0.469,0.912,0.672c0.178,0.113,0.359,0.223,0.543,0.326c0.087,0.049,0.175,0.097,0.264,0.144
	c0.006,0.003,0.006,0.003,0.011,0.006c0.01,0.005,0.013,0.006,0.024,0.012c0.387,0.19,0.783,0.363,1.187,0.516
	c0.403,0.151,0.813,0.288,1.23,0.401c0.078,0.021,0.157,0.041,0.235,0.061c0.043,0.01,0.086,0.02,0.114,0.025
	c0.191,0.039,0.382,0.075,0.575,0.104c0.2,0.029,0.401,0.055,0.602,0.07c0.067,0.004,0.134,0.008,0.2,0.012
	c0.178-0.001,0.356-0.009,0.533-0.029c0.01-0.001,0.023-0.003,0.035-0.004c0.019-0.005,0.039-0.008,0.058-0.013
	c0.043-0.011,0.084-0.024,0.127-0.036c0.008-0.004,0.016-0.009,0.024-0.013c0.005-0.007,0.012-0.013,0.017-0.019
	c0.018-0.037,0.038-0.072,0.053-0.109c0.003-0.008,0.004-0.009,0.006-0.016c0.011-0.053,0.022-0.107,0.029-0.161
	c0.008-0.075,0.003-0.259,0.003-0.343c-0.048-0.368-0.144-0.729-0.278-1.073c-0.052-0.132-0.105-0.263-0.164-0.391
	c-0.015-0.033-0.031-0.065-0.046-0.099c-0.012-0.023-0.024-0.049-0.032-0.063c-0.136-0.264-0.281-0.522-0.436-0.775
	c-0.397-0.649-0.838-1.27-1.301-1.873c-0.069-0.09-0.111-0.178-0.141-0.266c-0.241,0.105-0.5,0.17-0.73,0.195
	c-0.465,0.05-0.93,0.107-1.392,0.182c-0.029,0.005-0.042,0.007-0.063,0.01c-0.082,0.016-0.164,0.029-0.245,0.046
	c-0.162,0.032-0.324,0.064-0.485,0.101c-0.334,0.076-0.667,0.159-0.994,0.262c-0.097,0.03-0.193,0.064-0.29,0.098
	c-0.054,0.021-0.11,0.043-0.145,0.059c-0.114,0.049-0.229,0.102-0.339,0.158c-0.027,0.014-0.066,0.037-0.106,0.06
	c-0.083,0.056-0.162,0.116-0.239,0.179c-0.034,0.036-0.073,0.078-0.108,0.12c-0.008,0.016-0.015,0.03-0.021,0.043
	C351.024,131.122,351.013,131.201,351.012,131.281z M302.541,155.688c1.847-0.628,3.611-1.401,5.355-2.272
	c0.513-0.257,1.126-0.905,0.683-1.498c-0.434-0.579-1.396-0.505-1.969-0.219c-1.501,0.749-3.012,1.454-4.603,1.995
	c-0.558,0.189-1.377,0.655-1.182,1.385C301.006,155.757,301.983,155.879,302.541,155.688z M315.945,150.575
	c2.377-0.053,4.684-0.609,6.827-1.645c0.366-0.176,1.222-0.709,0.758-1.219c-0.436-0.479-1.424-0.303-1.927-0.061
	c-1.43,0.689-2.954,1.165-4.553,1.199c-0.667,0.016-1.516,0.199-1.908,0.809C314.777,150.228,315.449,150.585,315.945,150.575z
	 M386.478,146.915c1.287,0.672,2.337,1.666,3.356,2.684c0.807,0.805,3.558-0.314,2.675-1.195c-1.131-1.129-2.328-2.26-3.756-3.004
	c-0.632-0.33-1.493-0.15-2.063,0.23C386.271,145.909,385.846,146.586,386.478,146.915z M398.581,161.897
	c0.644,0.354,1.486,0.224,2.072-0.196c0.438-0.313,0.817-1.063,0.178-1.413c-1.087-0.596-1.083-1.766-1.084-2.879
	c-0.001-1.457-2.928-0.967-2.927,0.254C396.82,159.339,396.949,161.005,398.581,161.897z M399.672,169.069
	c0.001,2.164-0.01,4.437,1.54,6.129c0.763,0.833,3.527-0.26,2.676-1.189c-1.317-1.439-1.302-3.403-1.304-5.248
	C402.583,167.419,399.671,167.983,399.672,169.069z M402.479,187.446c0.679-1.461,0.808-2.893,0.81-4.484
	c0.001-1.238-2.899-0.621-2.9,0.352c-0.001,1.373-0.021,2.781-0.612,4.051C399.175,188.657,402.072,188.322,402.479,187.446z
	 M396.265,197.351c0.68-0.021,1.438-0.251,1.926-0.74c0.618-0.619,1.473-1.378,1.531-2.313c0.036-0.584-0.816-0.507-1.205-0.447
	c-0.38,0.058-0.761,0.175-1.101,0.357c-0.151,0.082-0.559,0.309-0.573,0.527c-0.05,0.822-0.771,1.412-1.313,1.955
	C395.036,197.187,395.954,197.36,396.265,197.351z M391.235,202.887c-1.611,0.821-2.763,1.929-3.585,3.542
	c-0.334,0.655,0.295,1.174,0.892,1.25c0.714,0.092,1.547-0.232,1.885-0.895c0.566-1.11,1.123-1.646,2.104-2.146
	c0.521-0.266,1.121-0.919,0.677-1.521C392.776,202.534,391.811,202.593,391.235,202.887z M382.685,211.456
	c-0.657,1.85-1.948,3.267-2.846,4.979c-0.734,1.401,2.202,1.305,2.751,0.258c0.897-1.713,2.188-3.131,2.845-4.979
	C385.976,210.19,383.081,210.339,382.685,211.456z M376.976,222.077c0.03-1.23-2.877-0.631-2.9,0.352
	c-0.028,1.182-0.307,2.926-1.138,3.84c-0.398,0.438-0.367,0.913,0.282,1.053c0.63,0.137,1.598-0.053,2.049-0.549
	C376.383,225.548,376.937,223.712,376.976,222.077z M371.943,236.153c0,1.423,0,2.845,0,4.268c0,0.395,2.897,0.001,2.897-0.777
	c0-1.422,0-2.844,0-4.266C374.841,234.981,371.943,235.376,371.943,236.153z M382.544,250.073c-1.242-1.244-2.646-2.598-2.709-4.474
	c-0.049-1.48-2.971-0.991-2.93,0.244c0.078,2.329,1.401,3.901,2.979,5.483C380.777,252.222,383.523,251.056,382.544,250.073z
	 M389.882,250.368c-1.643,0-2.234,2.086-0.267,2.086c2.133,0,4.267,0,6.401,0c1.643,0,2.234-2.086,0.267-2.086
	C394.149,250.368,392.016,250.368,389.882,250.368z M403.11,250.255c2.634-0.088,4.548-1.681,6.326-3.455
	c0.47-0.469,0.265-1.097-0.344-1.283c-0.701-0.215-1.539,0.04-2.049,0.549c-1.042,1.04-2.073,2.182-3.631,2.234
	c-0.603,0.02-1.51,0.438-1.613,1.111C401.688,250.138,402.603,250.272,403.11,250.255z" fill="#000000"></path>
</svg>