<?xml version="1.0" standalone="no"?>
<svg version="1.1" id="Layer_1" xmlns="http://www.w3.org/2000/svg" xmlns:xlink="http://www.w3.org/1999/xlink" x="0px" y="0px" width="595.28px" height="595.28px" viewBox="0 0 595.28 595.28" enable-background="new 0 0 595.28 595.28" xml:space="preserve">
<path id="color_x5F_2" fill="#e04949" d="M228.55,518.995c1.781,4.433,2.95,9.321,1.592,13.845
	c-1.024,3.409-3.854,5.481-7.398,5.039c-3.795-0.474-7.034-3.201-8.596-6.614c-1.941-4.248-1.077-9.028,0.729-13.219
	c0.87,3.17,2.738,5.843,6.245,6.417c2.261,0.371,4.709-0.516,6.089-2.374C227.904,521.155,228.316,520.1,228.55,518.995z
	 M189.39,470.082c0.432-1.22,0.954-2.411,1.535-3.557l-1.274,0.955L189.39,470.082z M205.211,472.089
	c-1.38,1.858-3.828,2.744-6.089,2.374c-3.507-0.575-5.375-3.248-6.245-6.417c-1.807,4.191-2.671,8.972-0.729,13.219
	c1.562,3.414,4.801,6.141,8.596,6.614c0.253,0.032,0.502,0.047,0.747,0.053c1.104-0.482,3.83-1.754,5.948-3.431
	c0.285-0.509,0.523-1.063,0.703-1.661c1.358-4.524,0.189-9.413-1.592-13.845C206.316,470.1,205.904,471.155,205.211,472.089z
	 M375.817,152.199l-1.892,1.3c0.019,0.133,0.03,0.267,0.044,0.401C374.563,153.313,375.177,152.744,375.817,152.199z
	 M466.793,282.77c-2.694,6.746-5.558,13.244-7.791,18.141c-0.486,0.85-0.978,1.699-1.489,2.534
	c-1.002,1.635-2.119,3.194-3.257,4.736c-0.836,1.133-3.31,5.018-4.08,5.216c-6.498,1.671-13.089,1.076-19.646-0.066
	c-0.18-0.031-0.412-0.004-0.66,0.063c-7.615-1.984-9.275-9.263-8.635-17.416c0.295-0.232,0.259-0.417,0.04-0.544
	c0.761-8.413,3.861-17.637,5.337-22.872c2.287-8.119,4.916-16.137,7.192-24.259c1.122-4,2.345-8.961,4.554-13.069
	c0.584-0.277,0.977-0.748,0.712-1.235c1.262-2.04,2.813-3.8,4.788-5.014c1.662-1.022-0.922-1.186-1.75-0.677
	c-1.728,1.062-3.144,2.43-4.341,3.982c-4.944-6.458-8.394-13.813-11.963-21.107c-3.743-7.648-7.509-15.333-9.706-23.591
	c-0.346-1.298-3.244-0.522-2.898,0.776c2.336,8.776,6.438,16.915,10.415,25.04c3.647,7.45,7.213,14.933,12.475,21.404
	c-1.853,3.229-3.058,6.93-4.138,10.384c-3.254,10.403-6.336,20.913-9.236,31.42c-1.404,5.088-3.496,12.254-4.123,19.044
	c-8.635,4.201-18.418,5.068-28.369,4.83c-3.53-0.203-7.635-0.429-11.691-0.648c-5.877-0.447-11.677-0.97-17.197-1.11
	c-0.001-0.136-0.2-0.227-0.736-0.213c-0.869,0.022-1.695-0.039-2.498-0.148l-8.248-4.124c-7.83-7.618-9.828-23.612-8.437-32.842
	c0.01-0.064-0.007-0.117-0.033-0.165c2.69-6.232,5.237-12.9,6.385-19.6c2.907-16.971,5.826-33.951,10.179-50.623
	c0.343-1.314-2.614-0.936-2.926,0.258c-3.546,13.584-6.144,27.373-8.557,41.196c-1.385,7.936-2.797,15.229-5.563,22.778
	c-2.081,5.679-7.169,19.283-14.046,25.222c-1.609,1.085-3.314,1.973-4.665,2.601c-2.269,0.576-4.675,0.156-7.185-1.655
	c0.038-0.258,0.078-0.517,0.133-0.776c0.48-2.302,0.779-4.058,0.295-6.381c-0.072-0.347-0.332-0.546-0.664-0.632
	c0.479-0.984,0.749-2.079,0.807-3.266c0.039-0.815-0.221-1.625-0.638-2.415l0.047-0.466l-0.562-0.393
	c-1.043-1.559-2.54-3.014-3.426-4.242c0.915-0.918,1.635-2,2.045-3.292c0.531-0.198,0.946-0.487,0.891-0.794
	c-0.925-5.049-2.132-10.143-3.607-15.221c3.105-2.545,5.975-5.352,8.62-8.351c1.819-1.983,3.67-4.26,5.396-6.832
	c6.738-9.618,11.354-20.738,13.488-32.28c1.371-7.417,2.696-14.845,5.002-22.041c2.104-6.568,6.16-16.569,14.432-16.267
	c0.331,0.656,0.783,1.314,1.381,1.968c0.738,0.809,3.505-0.271,2.68-1.175c-3.223-3.53-1.648-7.305,1.326-9.969
	c1.965-0.793,3.767-1.867,4.789-2.524c1.449,3.32,4.04,6.256,3.578,10.194c-0.115,0.983,1.155,1.127,2.063,0.733
	c0.539-0.108,1.055-0.308,1.235-0.55c3.712-4.966,9.69-8.317,14.553-12.039c3.639-2.784,8.59-6.353,9.556-11.142
	c0.183-0.907-2.708-0.412-2.879,0.435c-0.248,1.234-0.772,2.382-1.467,3.462l-2.811-3.747c0.092-0.12,0.156-0.252,0.18-0.397
	c0.465-2.906,1.574-5.564,3.041-8.07c8.453-2.182,18.251-4.14,26.862-2.028c7.304,1.792,7.229,7.793,3.841,13.123
	c-3.586,5.641-9.024,10.227-13.957,14.647c-0.373,0.334-0.757,0.666-1.144,0.999c-0.737,0.203-1.541,0.849-1.494,1.271
	c-2.731,2.303-5.556,4.688-7.48,7.587c-0.825,1.242,2.124,1.128,2.736,0.206c1.802-2.712,4.34-5.089,6.999-7.342
	c2.621,0.181,5.063,0.701,7.354,1.493c1.901,0.823,4.033,1.825,6.223,2.998c9.098,5.693,15.614,15.753,21.858,24.615
	c11.62,16.489,24.647,32.563,26.249,53.521C473.72,251.544,471.57,267.813,466.793,282.77z M369.433,166.093
	c-0.109-0.404-0.254-0.795-0.406-1.183c0.223-0.484,0.017-0.778-0.367-0.915c-0.211-0.514-0.416-1.03-0.561-1.568
	c-0.267-0.988-3.164-0.21-2.898,0.776c0.198,0.735,0.5,1.432,0.787,2.134c-7.982,17.228-6.5,37.118-6.464,55.617
	c0.001,0.266,0.105,0.462,0.275,0.598c-1.189,0.539-2.23,1.437-1.801,2.854c0.511,1.685,2.737,2.236,4.266,2.081
	c1.496-0.152,3.417-0.821,3.335-2.602c-0.068-1.487-1.409-2.609-2.754-2.947c-0.1-0.025-0.212-0.022-0.321-0.027
	c-0.036-0.008-0.077-0.011-0.118-0.015c0.024-0.07,0.038-0.144,0.038-0.22c-0.034-17.66-1.491-36.776,5.53-53.407
	C368.774,167.109,369.578,166.633,369.433,166.093z M382.766,165.426c-0.056-0.114-0.099-0.232-0.149-0.348
	c0.024-0.051,0.046-0.102,0.07-0.153c0.274-0.573-0.049-0.883-0.559-0.985c-0.115-0.285-0.229-0.571-0.362-0.848
	c-0.288-0.594-1.116-0.534-1.657-0.389c-0.346,0.093-1.521,0.588-1.241,1.165c0.261,0.538,0.478,1.095,0.706,1.647
	c-7.892,17.187-6.418,37.002-6.383,55.438c0,0.266,0.105,0.462,0.275,0.598c-1.189,0.539-2.23,1.437-1.801,2.854
	c0.511,1.685,2.737,2.236,4.266,2.081c1.496-0.152,3.416-0.821,3.335-2.602c-0.068-1.487-1.409-2.609-2.754-2.947
	c-0.101-0.025-0.212-0.022-0.321-0.027c-0.036-0.008-0.077-0.011-0.118-0.015c0.024-0.07,0.038-0.144,0.038-0.22
	c-0.034-17.968-1.548-37.445,5.9-54.277C382.454,166.184,382.96,165.826,382.766,165.426z M338.317,273.48l0.072,0.185
	c-0.027-0.266-0.049-0.529-0.072-0.794V273.48z M374.667,222.234c-0.285,0.489-0.21,1.355,0.101,1.828
	c0.313,0.475,0.778,0.85,1.309,1.063c0.083,0.034,0.171,0.061,0.257,0.089c0.124-0.484-0.016-1.076-0.209-1.483
	C375.812,223.074,375.308,222.544,374.667,222.234z M363.23,225.357c0.006,0.001,0.013,0.003,0.019,0.004
	C363.69,225.426,363.544,225.338,363.23,225.357z M361,222.234c-0.286,0.489-0.21,1.355,0.101,1.828
	c0.313,0.475,0.779,0.85,1.309,1.063c0.084,0.034,0.171,0.061,0.258,0.089c0.123-0.484-0.017-1.076-0.21-1.483
	C362.146,223.074,361.641,222.544,361,222.234z M358.69,149.748c-1.045,0.419-1.299,1.123-1.225,1.812
	C357.799,150.934,358.214,150.328,358.69,149.748z M376.896,225.357c0.007,0.001,0.013,0.003,0.019,0.004
	C377.358,225.426,377.211,225.338,376.896,225.357z M278.762,189.678c-6.871-6.779-13.801-12.886-17.111-16.197
	c-0.521-0.521-1.103-1.063-1.725-1.617c-4.126-3.05-8.474-5.766-13.031-8.102c-0.593,0.027-1.159-0.193-1.318-0.665
	c-5.96-2.93-12.276-5.202-18.933-6.694l-7.065-0.235c0.358,6.717,1.346,13.448,2.198,20.084c1.595,12.415,3.382,24.805,5.156,37.195
	c1.77,12.359,3.569,24.717,5.156,37.102c0.893,6.965,1.969,14.034,2.266,21.081c0.057,0.102,0.091,0.22,0.085,0.364
	c-0.197,4.892,0.601,13.223,7.546,9.473c2.779-1.5,5.331-3.453,7.711-5.645c-0.018-0.029-0.035-0.06-0.054-0.088
	c-0.489-0.758,0.743-1.462,1.721-1.512c3.438-3.429,6.525-7.286,9.438-10.887c0.044-0.054,0.096-0.104,0.155-0.151
	c-0.19-3.315-0.729-6.627-1.49-9.919c-0.655-2.421-1.391-5.083-2.17-7.815c-1.681-5.291-3.674-10.489-5.432-15.516
	c-3.942-11.273-8.702-22.912-9.831-34.898c-0.029-0.305,0.43-0.574,0.988-0.753c0.113-0.759,1.393-1.539,2.287-1.15
	c11.221,4.876,19.102,14.975,25.061,25.331c3.915,6.806,7.321,13.896,10.363,21.132c3.387,8.062,4.154,16.439,5.184,25.034
	c2.853,0.544,7.922,1.299,12.4,0.851c3.295-0.33,6.913-1.799,9.732-3.201l0.154,0.307c0.274-0.238,0.527-0.497,0.762-0.774
	c0.951-1.13,1.548-2.587,1.563-4.504c0-0.069,0.015-0.136,0.039-0.201c-0.811-4.044-1.803-8.115-2.967-12.183
	C301.956,225.209,292.199,205.59,278.762,189.678z M279.496,244.915c-0.427-1.381-0.921-2.751-1.485-4.11
	C278.539,242.261,279.039,243.645,279.496,244.915z M139.982,214.038c0.585-1.951,1.246-3.81,1.938-5.507
	C141.094,210.256,140.448,212.099,139.982,214.038z M194.629,279.84c3.464-8.432,2.421-19.354,1.938-28.166
	c-0.971-17.698-2.617-35.103-1.623-52.871c0.551-9.85,1.633-19.667,2.286-29.513c0.216-3.259-0.077-7.179,0.354-10.637l-0.256-0.287
	c-0.332-0.009-0.605-0.081-0.733-0.226c-4.392,16.334-7.225,33.318-12.761,49.263c-2.072,5.97-4.766,13.1-8.517,19.412
	c-2.319,13.855-11.362,25.291-12.769,39.413c0.102,0.072,0.192,0.157,0.26,0.271c0.874,1.471,1.787,3.002,2.768,4.51
	c3.254,3.765,7.485,8.325,10.075,9.805c1.732,0.99,4.569,1.612,7.45,2.003c3.213,0.228,6.506-0.128,9.739-0.644
	C193.526,281.291,194.412,280.369,194.629,279.84z M172.306,227.381c0.067-0.379,0.149-0.753,0.206-1.136
	c0.079-0.538,0.589-0.916,1.162-1.087c4.732-8.178,7.667-17.994,9.707-25.581c3.834-14.259,6.799-28.738,10.769-42.975
	c-0.402-0.001-0.674-0.068-0.596-0.202c0.284-0.487,0.518-0.976,0.723-1.465l-0.529-0.596c-0.448-0.139-0.887-0.337-1.337-0.528
	c-0.89-0.377-1.776-0.764-2.667-1.141l-4.759-1.19c0,0-13.73,17.545-25.489,32.849c-3.252,4.397-6.371,8.889-9.161,13.606
	c-4.848,8.195-9.494,17.432-9.84,27.146c-0.29,8.111,3.046,16.916,12.699,15.828C161.563,239.966,167.705,234.491,172.306,227.381z"></path>
<path id="color_x5F_1" d="M220.829,101.582c3.752,3.796,7.887,9.493,1.553,12.992c-0.938,0.518-3.508,0.094-1.797-0.852
	c5.218-2.882,0.284-8.245-2.447-11.008C217.372,101.939,220.117,100.861,220.829,101.582z M211.847,119.771
	c-0.277-0.077-0.556-0.065-0.827-0.019c-0.069-0.069-0.136-0.142-0.2-0.205c-0.497-0.495-1.358-0.379-1.941-0.117
	c-0.385,0.173-1.233,0.819-0.73,1.318c0.427,0.425,0.84,0.797,1.428,0.973c0.934,0.28,1.893-0.168,2.594-0.746
	C212.683,120.552,212.413,119.927,211.847,119.771z M212.888,100.926c-3.285-0.583-6.512,0.795-7.847,3.928
	c-0.335,0.786,2.513,0.46,2.885-0.412c0.653-1.535,1.471-2.371,3.153-2.072c0.669,0.119,1.521-0.128,2.049-0.549
	C213.599,101.444,213.462,101.027,212.888,100.926z M207.083,95.883c0.66,0.139,1.533-0.129,2.049-0.549
	c0.478-0.39,0.321-0.803-0.248-0.922c-2.504-0.525-4.742,0.511-6.782,1.869c-0.327,0.217-0.934,0.761-0.281,1.032
	c0.597,0.248,1.524,0.049,2.045-0.297C204.907,96.322,205.786,95.611,207.083,95.883z M354.914,114.521
	c-8.179-0.81-0.966-12.885,0.002-17.116c0.167-0.731-2.691-0.276-2.865,0.484c-1.173,5.135-8.558,16.937,1.002,17.884
	C353.718,115.839,356.402,114.669,354.914,114.521z M366.646,103.617c1.193,0.551,3.35-1.166,1.676-1.939
	c-2.553-1.179-5.447-1.043-7.977,0.125c-0.515,0.238-1.126,0.901-0.688,1.48c0.441,0.584,1.389,0.476,1.966,0.209
	C363.289,102.722,365.002,102.858,366.646,103.617z M367.075,117.929c-1.681,0.143-2.785,1.11-3.925,2.248
	c-0.499,0.5,0.427,0.695,0.741,0.688c0.691-0.015,1.431-0.254,1.925-0.748c0.202-0.203,0.396-0.393,0.603-0.579
	c0.131-0.118,0.269-0.229,0.407-0.339c0.001,0,0.001,0,0.001-0.001c0.383-0.111,0.744-0.284,0.989-0.581
	C368.239,118.105,367.458,117.897,367.075,117.929z M360.438,96.038c2,0,4,0,6,0c0.67,0,1.525-0.201,1.904-0.819
	c0.357-0.581-0.3-0.961-0.814-0.961c-2,0-4,0-6,0c-0.67,0-1.525,0.201-1.904,0.819C359.267,95.658,359.924,96.038,360.438,96.038z
	 M462.442,299.762c-2.732,4.875-7.494,14.139-12.98,15.471c-0.164,0.04-0.33,0.062-0.494,0.099
	c-0.837,7.26-3.17,15.335-8.167,20.728c-0.054,0.058-0.139,0.113-0.239,0.165c0.457,0.029,0.916,0.047,1.374,0.044
	c1.333-0.007-1.186,1.021-1.843,1.085c0.174,0.085,0.299,0.216,0.34,0.405c0.33,1.535-0.593,3.669-0.993,5.106
	c-1.011,3.631-2.142,7.229-3.304,10.814c-3.336,10.285-6.909,20.497-10.676,30.632c-3.452,9.287-6.955,18.609-11.145,27.594
	c-1.24,2.66-3.604,9.921-7.512,10.098c1.651,5.91,3.266,11.832,4.673,17.804c2.525,10.718,7.62,29.115-2.263,37.468
	c0.094,0.06,0.171,0.133,0.219,0.231c4.904,10.134,9.354,20.773,11.873,31.773c1.96,8.559,4.328,22.934-6.003,27.293
	c-11.675,4.928-24.126-1.646-27.417-13.529c-3.96-14.292-0.346-29.113-2.852-43.507c-0.005-0.03,0.001-0.059,0.001-0.088
	c-4.77-2.02-8.74-5.486-10.501-10.412c-0.06-0.167-0.046-0.324,0.012-0.472c-6.082-10.839-9.35-23.658-12.94-35.463
	c-4.51-14.825-8.675-29.755-12.659-44.729c-4.635-17.415-8.191-34.878-8.545-52.978c-0.26-13.293-0.217-28.321,4.123-41.101
	c0.138-0.405,0.625-0.709,1.164-0.875c-4.256-5.108-6.545-12.581-7.299-19.753c-0.027-0.266-0.049-0.529-0.072-0.794
	c-0.143-1.589-0.211-3.156-0.209-4.675c-4.985,9.587-13.336,21.266-23.29,16.141c-0.004,1.222,0.045,2.448,0,3.696
	c-0.129,3.564-1.031,7.923-3.628,10.522c-2.172,2.174-6.396,1.221-8.959,0.722c-4.184-0.814-9.012-1.544-12.888-3.334
	c-8.412-3.885-9.782-29.035,0.712-26.687c0.271-0.653,0.546-1.268,0.814-1.842c-0.826-0.048-1.65-0.109-2.473-0.196
	c-1.244-0.133-3.771-0.025-4.754-0.982c-0.004-0.003-0.004-0.006-0.008-0.01c-0.318-0.1-0.557-0.319-0.602-0.69
	c-0.841-7.015-1.471-13.937-3.538-20.621c-0.427-1.381-0.921-2.751-1.485-4.11c-0.061-0.144-0.114-0.289-0.176-0.433
	c-3.008-7.029-6.212-14.016-10.11-20.603c-5.611-9.482-12.519-18.956-22.611-23.917c1.43,11.885,6.208,23.427,10.113,34.634
	c3.74,10.736,8.511,22.247,8.706,33.773c0.008,0.458-0.932,0.795-1.742,0.916c-2.597,3.253-5.658,7.173-9.104,10.629
	c3.665,5.992,6.431,12.714,9.203,19.113c5.104,11.778,9.72,23.814,13.356,36.131c3.486,11.813,6.693,24.365,6.31,36.783
	c-0.253,8.197-2.296,17.09-10.057,21.308c-0.169,0.092-0.382,0.149-0.609,0.181c-0.119,0.167-0.344,0.336-0.715,0.492
	c-8.181,3.438-16.692,6.015-25.413,7.672c-2.106,0.4-4.229,0.747-6.359,1.066c-2.574,21.03-4.313,42.191-6.246,63.286
	c-1.117,12.192-2.219,24.388-3.188,36.594c-0.313,3.948-0.629,7.897-0.855,11.852c-0.029,0.507-0.176,1.331-0.26,2.159
	c0.092,0.082,0.156,0.187,0.18,0.319c0.036,0.207,0.065,0.421,0.098,0.632c0.414-0.008,0.767,0.093,0.902,0.368
	c2.791,5.662,6.327,14.138,2.9,20.328c-2.107,3.805-6.348,5.634-10.609,5.314c-4.288-0.322-8.306-2.908-10.207-6.798
	c-2.807-5.741-0.816-12.188,2.13-17.441c0.102-0.181,0.352-0.34,0.661-0.463c-0.147-1.911-0.037-3.81,0.222-5.391
	c0.176-1.075,3.11-1.557,2.908-0.322c-0.708,4.319-0.565,11.567,4.422,13.538c3.546,1.401,4.03-3.499,3.89-6.771
	c-0.087-0.058-0.164-0.126-0.215-0.218c-0.601-1.066,0.017-3.749,0.084-4.881c0.235-3.954,0.54-7.903,0.855-11.852
	c0.976-12.205,2.067-24.401,3.188-36.594c1.936-21.081,3.67-42.228,6.241-63.246c-7.923,1.045-15.974,1.524-24.017,1.407
	c-0.412,7.133-2.723,14.274-3.548,21.371c-1.271,10.93,0.415,21.381,1.993,32.201c2.54,17.424,6.917,35.408,7.114,53.072
	c0.013,1.185-2.907,1.7-2.924,0.267c-0.091-8.121-1.632-16.313-2.833-24.321c-0.09-0.601-0.183-1.201-0.273-1.801
	c-0.227,1.015-0.567,2-1.082,2.929c-2.107,3.805-6.348,5.634-10.609,5.314c-4.288-0.322-8.306-2.908-10.207-6.798
	c-1.978-4.046-1.568-8.44-0.127-12.522c0.432-1.22,0.954-2.411,1.535-3.557c0.232-0.461,0.473-0.917,0.722-1.362
	c0.102-0.181,0.352-0.34,0.661-0.463c-0.147-1.911-0.037-3.81,0.222-5.391c0.176-1.075,3.11-1.557,2.908-0.322
	c-0.708,4.319-0.565,11.567,4.422,13.538c3.525,1.393,4.024-3.442,3.892-6.714c-0.122-0.063-0.205-0.15-0.217-0.275
	c-0.61-6.575,0.818-13.143,1.099-19.71c0.119-2.798-0.319-6.126,0.233-8.899c0.016-0.075,0.054-0.139,0.092-0.203
	c0.029-0.29,0.059-0.58,0.084-0.868c0.008-0.084,0.049-0.165,0.104-0.242c-0.312-4.936-0.267-9.872,0.448-15.009
	c0.931-6.695,3.059-13.544,3.392-20.306c-7.376-0.24-14.728-0.988-21.952-2.27c2.508,19.635,7.337,38.914,8.398,58.731
	c0.068,1.274-2.837,1.922-2.898,0.776c-1.074-20.076-6.021-39.599-8.5-59.5c-0.024-0.196,0.032-0.376,0.135-0.54
	c-2.522-0.5-5.03-1.055-7.513-1.688c-12.477-3.182-29.854-8.062-32.634-22.634c-3.439-18.033,3.723-37.435,10.492-53.86
	c5.184-12.578,11.17-25.3,18.61-36.733c0.009-0.013,0.022-0.024,0.031-0.037c-5.734-3.005-9.507-8.899-12.733-14.309
	c-0.537-0.075-0.958-0.385-0.911-0.991c0.959-12.385,7.903-22.625,11.403-34.117c-4.78,5.75-10.9,9.826-18.876,9.939
	c-16.353,0.232-15.87-16.308-12.057-29.029c0.585-1.951,1.246-3.81,1.938-5.507c0.505-1.236,1.024-2.389,1.542-3.422
	c3.847-7.678,8.637-14.708,13.716-21.542c-6.611,4.074-15.735,6.661-22.959,3.728c-3.794-1.541-5.99-4.455-6.094-8.595
	c-0.068-2.75,0.929-5.421,2.005-7.9c1.081-2.493,4.205-5.536,4.675-8.063c0.447-2.402-1.751-5.24-2.957-7.099
	c-1.93-2.974-3.979-5.873-5.828-8.899c-3.591-5.875-7.689-13.195-6.345-20.367c1.413-7.536,8.223-13.367,15.372-15.524
	c1.841-0.555,3.627-0.827,5.381-0.883c0.214-0.062,0.403-0.113,0.556-0.151c0.535-0.134,1.435-0.01,2.526,0.269
	c3.551,0.394,6.999,1.609,10.507,3.193c2.624,1.185,6.875,3.696,9.637,1.681c3.718-2.714,5.744-8.227,6.755-12.535
	c1.961-8.36,1.424-19.017,7.317-25.868c2.847-3.309,7.797-3.958,11.763-4.986c5.772-1.497,11.921-3.021,17.938-2.595
	c5.22,0.371,11.303,1.247,14.387,5.938c2.552,3.88,2.151,9.458,3.118,13.849c0.047,0.213-0.037,0.412-0.195,0.587
	c0.355,0.609,0.699,1.23,1.021,1.869c1.992,3.953,3.9,7.885,6.07,11.754c1.791,3.191,3.982,7.007,4.145,10.764
	c0.138,3.214-0.9,5.738-2.581,7.876c0.015,0.049,0.033,0.095,0.04,0.15c1.148,8.916,6.8,13.587,12.062,20.174
	c5.001,6.259,5.32,12.902,3.058,20.334c30.285,15.135,51.398,46.93,61.281,79.615c9.77-8.68,16.768-19.711,21.506-31.916
	c2.909-7.494,3.838-15.315,5.476-23.147c2.362-11.3,6.286-28.993,19.983-30.235c-0.495-1.738-0.172-3.445,0.668-5.025
	c0.333-0.626,0.748-1.231,1.225-1.812c2.047-2.494,5.238-4.506,8.096-5.567c-0.155-0.616-0.246-1.252-0.26-1.915
	c-0.537-2.068-0.788-4.643-1.49-5.804c-3.636-6.013-11.002-2.171-16.714-4.333c-6.093-2.306-5.595-10.426-5.055-15.615
	c1.048-10.087,3.823-19.84,5.657-29.791c-6.33-2.406-11.717-9.745-11.431-16.855c-0.287-1.337,0.026-2.695,0.834-4.037
	c0.255-0.657,0.552-1.307,0.934-1.937c7.096-11.72,24.894-8.298,32.587,1.043c10.689-9.862,25.168,9.344,30.889,18.227
	c0.223,0.014,0.534,0.042,0.907,0.088c2.723-0.792,5.689-0.892,7.444,1.782c0.316,0.482,0.557,1.014,0.744,1.577
	c1.287,1.679,0.971,4.63,0.111,7.77c-0.205,1.182-0.456,2.301-0.682,3.269c-0.902,3.866-1.93,8.21-4.331,11.453
	c-3.332,4.5-7.734,8.813-11.036,13.634c7.994-1.979,16.938-3.569,24.987-2.066c5.128,0.958,11.363,4.314,9.452,10.536
	c-1.977,6.431-7.485,11.615-12.258,16.079c-1.606,1.503-3.422,2.974-5.25,4.477c17.189,1.582,26.805,16.441,36.143,29.596
	c13.144,18.514,26.218,35.738,26.659,59.436C476,260.693,472.26,282.245,462.442,299.762z M207.438,484.501
	c0.285-0.509,0.523-1.063,0.703-1.661c1.358-4.524,0.189-9.413-1.592-13.845c-0.233,1.105-0.646,2.161-1.339,3.094
	c-1.38,1.858-3.828,2.744-6.089,2.374c-3.507-0.575-5.375-3.248-6.245-6.417c-1.807,4.191-2.671,8.972-0.729,13.219
	c1.562,3.414,4.801,6.141,8.596,6.614c0.253,0.032,0.502,0.047,0.747,0.053C204.079,487.999,206.216,486.688,207.438,484.501z
	 M209.446,468.216c-0.845-5.547-1.675-11.097-2.463-16.653c-0.383,3.646-0.783,7.304-0.681,10.937
	c0.063,0.072,0.111,0.155,0.13,0.259c0.036,0.207,0.065,0.421,0.098,0.632c0.414-0.008,0.767,0.093,0.902,0.368
	C208.097,465.107,208.802,466.618,209.446,468.216z M228.55,518.995c-0.233,1.105-0.646,2.161-1.339,3.094
	c-1.38,1.858-3.828,2.744-6.089,2.374c-3.507-0.575-5.375-3.248-6.245-6.417c-1.807,4.191-2.671,8.972-0.729,13.219
	c1.562,3.414,4.801,6.141,8.596,6.614c3.544,0.442,6.374-1.629,7.398-5.039C231.5,528.315,230.331,523.427,228.55,518.995z
	 M367.688,135.181c0.853,1.649,1.483,3.359,1.877,5.178c0.133,0.614,0.894,3.111,0.254,2.807c0.841,0.4,0.718,1.04,0.235,1.504
	c0.628,1.537,1.62,2.95,2.395,4.46c0.744,1.452,1.274,2.866,1.478,4.37c0.019,0.133,0.03,0.267,0.044,0.401
	c0.594-0.587,1.207-1.157,1.848-1.701c2.51-2.131,5.314-3.985,7.885-5.899c2.526-1.881,5.861-4.034,8.378-6.649
	c-3.286-5.143-11.588-10.966-11.567-17.549c0.009-2.564,1.409-4.363,3.527-5.688c1.166-0.729,2.684-0.998,3.769-1.838
	c3.061-2.37,0.324-10.077-4.138-5.596c-0.66,0.663-2.739,0.626-2.678-0.135c-7.045-3.116-7.848-14.445-5.949-20.87
	c-3.46,1.188-8.343,1.94-11.517,0.376c-1.998-0.538-2.989-2.238-3.462-3.558c-2.568,2.296-5.498,3.032-8.385,2.637
	c-1.731,9.003-4.336,17.896-5.285,27.027c-0.405,3.897-1.545,9.638,0.824,13.166c2.275,3.388,6.607,3.864,10.416,3.25
	C361.659,130.225,365.695,131.326,367.688,135.181z M225.583,97.75c-0.255-0.512-0.51-1.031-0.766-1.553
	c-0.094,0.007-0.188,0.019-0.279,0.021c-0.258,0.004-0.252-0.049-0.404,0.083c-0.353,0.303-0.562,0.65-0.724,1.084
	c-0.181,0.486-1.288,0.693-1.704,0.77c-0.168,0.031-1.324,0.226-1.149-0.244c0.577-1.547,2.188-2.289,3.819-2.613
	c-0.824-1.678-1.68-3.373-2.621-4.994c-1.03,0.276-1.834,0.933-2.394,1.981c-0.568,1.063-3.507,1.131-2.756-0.274
	c0.888-1.661,2.372-2.827,4.091-3.42c-2.708-4.137-6.221-7.465-11.764-8.071c-0.621-0.068-0.854-0.282-0.846-0.538
	c-5.848,4.194-8.071,12.453-6.601,19.336c0.898,4.201,2.344,8.143,2.438,12.507c0.133,6.169-1.995,10.697-6.479,12.958
	c5.057,9.091,8.056,20.894,3.242,30.547c0.232,0.134,0.351,0.361,0.261,0.694c-0.021,0.081-0.033,0.168-0.054,0.25
	c3.14,4.011,8.11,8.544,12.389,3.391c0.89-1.07,2.592-3.177,3.095-4.92c-0.439-0.095-0.277-0.331,0.115-0.573
	c0.018-0.143,0.048-0.291,0.042-0.425c0.009,0.005,0.019,0.01,0.028,0.015c-0.002-0.081-0.005-0.161-0.006-0.242
	c-0.291-0.065-0.498-0.22-0.523-0.484c-0.735-7.523-3.48-14.7,1.911-21.192c3.878-4.669,11.229-6.38,14.005-11.979
	C235.739,112.221,228.835,104.277,225.583,97.75z M193.349,152.074c0.536,0.23,1.073,0.461,1.61,0.688
	c1.395-6.893-4.021-13.704-9.515-18.54c0.19,5.188,1.953,10.325,0.179,15.264c0.951,0.125,1.845,0.353,2.453,0.551
	C189.87,150.622,191.615,151.331,193.349,152.074z M199.31,88.963c-0.521,0.842-0.732,1.932-0.753,3.142
	C198.73,91.035,198.979,89.984,199.31,88.963z M182.828,132.234c-0.105-0.051-0.178-0.086-0.178-0.086s0.026,0.072,0.071,0.203
	C182.755,132.311,182.788,132.271,182.828,132.234z M146.976,186.203c-1.476,0.307-2.854,0.486-4.139,0.57
	C144.216,186.718,145.604,186.52,146.976,186.203z M153.193,240.909c8.369-0.943,14.512-6.417,19.112-13.528
	c0.067-0.379,0.149-0.753,0.206-1.136c0.079-0.538,0.589-0.916,1.162-1.087c4.732-8.178,7.667-17.994,9.707-25.581
	c3.834-14.259,6.799-28.738,10.769-42.975c-0.402-0.001-0.674-0.068-0.596-0.202c0.284-0.487,0.518-0.976,0.723-1.465
	c0.063-0.147,0.128-0.294,0.184-0.442c-0.242-0.028-0.479-0.082-0.713-0.154c-0.448-0.139-0.887-0.337-1.337-0.528
	c-0.89-0.377-1.776-0.764-2.667-1.141c-0.835-0.353-1.673-0.698-2.523-1.012c-0.729-0.27-1.469-0.523-2.221-0.731
	c-0.053,0.103-0.094,0.207-0.15,0.31c-0.247,0.448-1.025,0.724-1.707,0.755c-6.94,11.422-15.702,21.595-23.646,32.336
	c-3.252,4.397-6.371,8.889-9.161,13.606c-4.848,8.195-9.494,17.432-9.84,27.146C140.204,233.192,143.54,241.997,153.193,240.909z
	 M174.569,280.38c2.705,1.532,5.585,2.229,8.531,2.438c3.213,0.228,6.506-0.128,9.739-0.644c0.687-0.883,1.572-1.805,1.789-2.334
	c3.464-8.432,2.421-19.354,1.938-28.166c-0.971-17.698-2.617-35.103-1.623-52.871c0.551-9.85,1.633-19.667,2.286-29.513
	c0.216-3.259-0.077-7.179,0.354-10.637c0.012-0.098,0.023-0.197,0.037-0.294c-0.101,0.007-0.199,0.009-0.293,0.007
	c-0.332-0.009-0.605-0.081-0.733-0.226c-4.392,16.334-7.225,33.318-12.761,49.263c-2.072,5.97-4.766,13.1-8.517,19.412
	c-2.319,13.855-11.362,25.291-12.769,39.413c0.102,0.072,0.192,0.157,0.26,0.271c0.874,1.471,1.787,3.002,2.768,4.51
	C167.979,274.702,170.805,278.248,174.569,280.38z M250.935,277.841c-3.49,3.12-7.322,5.584-11.431,6.33
	c-5.986,1.086-7.659-3.759-7.955-8.602c-0.005-0.011-0.015-0.021-0.015-0.033c-0.002-0.258-0.015-0.517-0.019-0.775
	c-0.003-0.184-0.009-0.368-0.013-0.552c-0.168-7.642-1.336-15.327-2.313-22.884c-1.6-12.383-3.387-24.742-5.156-37.102
	c-1.773-12.39-3.574-24.779-5.156-37.195c-0.745-5.85-1.605-11.77-2.048-17.69c-1.249,1.534-2.699,2.859-3.8,3.58
	c-4.727,3.1-9.268,0.537-12.705-2.98c-0.287,3.54-0.045,7.382-0.271,10.642c-0.649,9.327-1.726,18.639-2.182,27.977
	c-0.844,17.257,0.595,34.124,1.538,51.318c0.51,9.305,1.568,20.212-1.631,29.22c-0.483,1.361-1.117,2.804-2.187,3.817
	c-0.195,0.186-0.404,0.354-0.612,0.525c0.146,0.929-1.788,1.58-2.642,0.97c-5.721,0.887-11.58,1.192-17.005-0.884
	c-7.69,12.121-14.014,25.472-19.263,38.789c-6.228,15.801-14.461,37.531-7.923,54.457c2.382,6.166,9.082,9.72,14.823,12.217
	c9.281,4.039,19.3,6.442,29.302,7.863c14.545,2.067,29.561,2.363,44.226,0.404c0.593-0.377,1.598-0.548,2.112-0.317
	c10.567-1.573,20.933-4.315,30.781-8.454c0.113-0.047,0.229-0.079,0.344-0.104c0.087-0.072,0.19-0.146,0.332-0.223
	c8.357-4.542,9.363-15.542,8.933-24.056c-0.607-12.024-3.596-23.901-7.189-35.348c-3.615-11.513-7.918-22.816-12.771-33.863
	C256.546,289.209,254.104,283.241,250.935,277.841z M297.96,265.644c3.505-0.252,7.695-0.852,10.244-3.058
	c0.274-0.238,0.527-0.497,0.762-0.774c0.951-1.13,1.548-2.587,1.563-4.504c0-0.069,0.015-0.136,0.039-0.201
	c-0.811-4.044-1.803-8.115-2.967-12.183c-5.645-19.715-15.401-39.334-28.839-55.247c-5.642-6.681-11.931-12.708-18.836-17.814
	c-4.126-3.05-8.474-5.766-13.031-8.102c-0.593,0.027-1.159-0.193-1.318-0.665c-5.96-2.93-12.276-5.202-18.933-6.694
	c-2.332-0.522-4.707-0.949-7.122-1.275c0.015,0.346,0.038,0.693,0.057,1.04c0.358,6.717,1.346,13.448,2.198,20.084
	c1.595,12.415,3.382,24.805,5.156,37.195c1.77,12.359,3.569,24.717,5.156,37.102c0.893,6.965,1.969,14.034,2.266,21.081
	c0.057,0.102,0.091,0.22,0.085,0.364c-0.197,4.892,0.601,13.223,7.546,9.473c2.779-1.5,5.331-3.453,7.711-5.645
	c-0.018-0.029-0.035-0.06-0.054-0.088c-0.489-0.758,0.743-1.462,1.721-1.512c3.438-3.429,6.525-7.286,9.438-10.887
	c0.044-0.054,0.096-0.104,0.155-0.151c-0.19-3.315-0.729-6.627-1.49-9.919c-0.605-2.621-1.349-5.229-2.17-7.815
	c-1.681-5.291-3.674-10.489-5.432-15.516c-3.942-11.273-8.702-22.912-9.831-34.898c-0.029-0.305,0.43-0.574,0.988-0.753
	c0.113-0.759,1.393-1.539,2.287-1.15c11.221,4.876,19.102,14.975,25.061,25.331c3.915,6.806,7.321,13.896,10.363,21.132
	c3.387,8.062,4.154,16.439,5.184,25.034c0.006,0.043,0.011,0.086,0.016,0.13c0.004,0.032-0.002,0.062-0.001,0.092
	c0.155,0.042,0.29,0.108,0.392,0.208C287.64,266.339,295.796,265.8,297.96,265.644z M293.802,267.508
	c-0.412,0.862-0.859,1.867-1.287,2.956c0.013,0.147-0.055,0.301-0.176,0.449c-1.541,4.073-2.637,9.144-0.235,12.299
	c2.689-2.917,6.341-5.589,10.246-3.053c0.06,0.039,0.041,0.104-0.025,0.18c3.421-1.052,7.396-2.468,8.954-4.974
	c2.869-4.617,0.128-7.355-2.496-10.813c-2.773,1.643-6.334,2.417-9.4,2.704C297.53,267.43,295.665,267.515,293.802,267.508z
	 M311.964,282.363c-0.199-0.311-0.107-0.633,0.148-0.904c0.319-1.771,0.733-3.401,0.587-5.251c-0.036,0.029-0.066,0.062-0.103,0.09
	c-3.534,2.8-8.41,4.225-12.624,5.633c-1.069,0.357-2.947,0.089-0.979-0.568c0.209-0.07,0.43-0.141,0.657-0.212
	c-0.01-0.006-0.024-0.009-0.034-0.015c-1.284-0.834-2.113-1.021-3.288,0.097c-0.87,0.829-1.648,1.732-2.418,2.654
	c-0.399,0.479-1.111,0.67-1.701,0.778c-0.002,0-0.018,0.001-0.024,0.002c-0.622,0.568-1.942,0.813-2.524,0.135
	c-2.924-3.407-2.021-8.857-0.428-13.403c-4.49-1.247-3.628,10.475-3.32,12.752c0.857,6.334,3.347,9.846,9.749,11.258
	c3.34,0.736,6.71,1.919,10.121,2.25c3.997,0.388,5.601-3.578,5.94-6.949c0.251-2.48-0.106-4.981,0.127-7.446
	C311.88,282.957,311.921,282.659,311.964,282.363z M395.405,481.557c-0.052,3.485-0.166,6.984-0.26,10.486c3.483,0,6.967,0,10.451,0
	c-1.458-3.69-2.589-7.458-2.942-11.415C400.376,481.271,397.909,481.583,395.405,481.557z M406.503,494.252
	c-3.805,0-7.609,0-11.414,0c-0.033,1.447-0.06,2.895-0.074,4.342c4.472,0,8.943,0,13.415,0
	C407.771,497.15,407.122,495.704,406.503,494.252z M395.166,517.67c1.213,4.574,3.4,10.46,7.971,12.371
	c8.25,3.448,13.142-5.701,13.39-12.548c-5.82-3.091-14.273-3.132-20.65-0.423C395.765,517.309,395.498,517.515,395.166,517.67z
	 M414.286,514.326c-0.653-3.164-1.725-6.222-2.978-9.233c-0.26,0.231-0.601,0.419-0.988,0.488c-4.966,0.884-10.034,0.616-15,1.5
	c-0.075,0.013-0.138,0.017-0.204,0.024c0.109,2.76,0.314,5.512,0.645,8.252C401.503,513.189,408.44,512.765,414.286,514.326z
	 M410.725,503.705c-0.658-1.521-1.347-3.034-2.037-4.546c-0.576,0.273-1.377,0.542-1.653,0.542c-4.01,0-8.02,0-12.029,0
	c-0.011,1.909,0.004,3.816,0.057,5.722c0.178-0.096,0.374-0.171,0.585-0.208c4.966-0.884,10.034-0.616,15-1.5
	C410.675,503.709,410.697,503.709,410.725,503.705z M392.519,481.377c-1.458-0.164-2.906-0.44-4.316-0.83
	c1.644,11.841-0.588,24.008,1.324,35.872c0.112,0.697,0.236,1.406,0.375,2.121c0.695-0.532,1.435-1.028,2.22-1.48
	c0.146-0.244,0.436-0.45,0.781-0.595C391.464,504.874,392.388,493.036,392.519,481.377z M420.206,519.396
	c-0.391,0.053-0.754,0.022-0.994-0.133c-1.028,6.77-5.638,12.313-12.913,13.238c-7.775,0.989-12.004-7.095-13.876-13.53
	c-0.747,0.524-1.441,1.094-2.058,1.721c1.089,4.551,2.941,9.09,6.6,12.011c4.522,3.611,13.891,6.012,18.819,1.798
	C419.911,530.973,420.724,525.246,420.206,519.396z M406.835,478.917c-0.414,0.233-0.85,0.452-1.303,0.658
	c0.35,4.393,1.659,8.553,3.329,12.628c0.449,0.227,0.579,0.661,0.456,1.075c3.002,7.076,6.844,13.956,8.115,21.481
	c0.033,0.197-0.064,0.381-0.237,0.543c0.12,0.05,0.236,0.107,0.355,0.159c0.829-0.323,1.864-0.297,1.882,0.297
	c0.006,0.218-0.005,0.432-0.006,0.648c0.152,0.088,0.303,0.177,0.451,0.269c-0.668-4.42-1.922-8.727-2.904-12.02
	C414.334,495.813,410.829,487.234,406.835,478.917z M438.78,337.331c-12.663-0.655-25.035-12.115-13.767-23.708
	c0.009-0.009,0.022-0.017,0.033-0.026c-5.565-2.979-6.965-9.311-6.578-16.277c-18.63,8.063-40.824,3.063-60.394,2.945
	c-0.782-0.005-0.915-0.258-0.733-0.559c-4.132-0.346-7.511-2.081-10.213-4.712c-3.854,12.05-4.084,26.125-3.841,38.553
	c0.361,18.49,3.811,36.255,8.556,54.05c3.888,14.58,7.914,29.129,12.306,43.565c3.671,12.07,6.916,25.32,13.17,36.384
	c0.121,0.215,0.128,0.423,0.06,0.614c0.018,0.034,0.04,0.063,0.054,0.101c2.07,5.794,8.437,9.91,15.124,11.144
	c0.229-0.986,2.878-1.436,2.876-0.644c-0.001,0.331-0.006,0.662-0.009,0.993c2.481,0.143,4.924-0.139,7.136-0.899
	c0.193-0.614,1.426-1.01,2.213-0.971c2.295-1.251,4.206-3.138,5.424-5.774c3.254-7.04,1.734-15.436,0.293-22.749
	c-1.701-8.638-3.962-17.154-6.32-25.632c-4.695-16.885-8.998-33.824-14.167-50.573c-5.021-16.269-3.747-31.271-0.479-47.87
	c0.232-1.18,3.184-1.601,2.922-0.273c-2.126,10.801-4.337,22.225-2.868,33.269c1.043,7.848,3.745,15.286,6.085,22.811
	c3.096,9.953,5.33,20.107,8.124,30.139c0.869,3.121,1.749,6.24,2.624,9.36c0.357-0.204,0.772-0.34,1.124-0.315
	c-1.363-0.097-0.579,0.077,0.252-1.22c0.687-1.069,1.308-2.178,1.888-3.308c1.592-3.105,3.019-6.293,4.383-9.503
	c3.82-8.987,7.272-18.133,10.593-27.314c3.255-8.998,6.409-18.038,9.3-27.16c0.951-3,1.898-6.005,2.715-9.045
	c0.304-1.129,1.129-2.993,0.871-4.188C437.415,337.983,438.064,337.524,438.78,337.331z M446.098,315.84
	c-5.749,0.77-11.636,0.115-17.327-0.876c-0.156-0.027-0.266-0.068-0.354-0.114c-0.601-0.143-1.166-0.316-1.703-0.512
	c-8.44,9.936,0.891,19.842,11.675,21.641C443.089,330.733,445.323,322.788,446.098,315.84z M466.793,282.77
	c4.777-14.957,6.927-31.226,5.741-46.734c-1.602-20.959-14.629-37.032-26.249-53.521c-6.244-8.861-12.761-18.921-21.858-24.615
	c-1.948-1.218-4.016-2.235-6.223-2.998c-2.291-0.792-4.732-1.312-7.354-1.493c-2.659,2.253-5.197,4.63-6.999,7.342
	c-0.612,0.922-3.562,1.036-2.736-0.206c1.925-2.899,4.749-5.285,7.48-7.587c-0.047-0.422,0.757-1.067,1.494-1.271
	c0.387-0.333,0.771-0.665,1.144-0.999c4.933-4.42,10.371-9.006,13.957-14.647c3.388-5.329,3.463-11.331-3.841-13.123
	c-8.611-2.112-18.409-0.154-26.862,2.028c-1.467,2.506-2.576,5.165-3.041,8.07c-0.023,0.145-0.088,0.277-0.18,0.397
	c-0.043,0.058-0.096,0.112-0.151,0.164c1.004,1.208,1.976,2.438,2.87,3.727c0.032-0.047,0.062-0.096,0.092-0.144
	c0.694-1.08,1.219-2.228,1.467-3.462c0.171-0.847,3.062-1.342,2.879-0.435c-0.966,4.789-5.917,8.357-9.556,11.142
	c-4.862,3.722-10.841,7.072-14.553,12.039c-0.181,0.242-0.696,0.442-1.235,0.55c-0.907,0.394-2.178,0.25-2.063-0.733
	c0.462-3.938-2.129-6.874-3.578-10.194c-0.045-0.104-0.09-0.207-0.133-0.311c-1.629,0.623-3.289,1.611-4.656,2.835
	c-2.975,2.665-4.549,6.439-1.326,9.969c0.825,0.903-1.941,1.984-2.68,1.175c-0.598-0.654-1.05-1.312-1.381-1.968
	c-8.271-0.302-12.328,9.699-14.432,16.267c-2.306,7.196-3.631,14.625-5.002,22.041c-2.135,11.542-6.75,22.662-13.488,32.28
	c-1.667,2.378-3.475,4.654-5.396,6.832c-2.646,3-5.515,5.806-8.62,8.351c1.476,5.079,2.683,10.172,3.607,15.221
	c0.056,0.307-0.359,0.596-0.891,0.794c-0.41,1.292-1.13,2.374-2.045,3.292c0.886,1.229,2.383,2.684,3.426,4.242
	c0.189,0.283,0.362,0.569,0.515,0.858c0.417,0.79,0.677,1.6,0.638,2.415c-0.058,1.187-0.327,2.281-0.807,3.266
	c0.332,0.086,0.592,0.285,0.664,0.632c0.484,2.323,0.186,4.08-0.295,6.381c-0.055,0.259-0.095,0.518-0.133,0.776
	c2.51,1.811,4.916,2.231,7.185,1.655c1.629-0.414,3.188-1.326,4.665-2.601c6.877-5.939,11.965-19.542,14.046-25.222
	c2.767-7.548,4.179-14.842,5.563-22.778c2.413-13.823,5.011-27.612,8.557-41.196c0.312-1.194,3.269-1.572,2.926-0.258
	c-4.353,16.672-7.271,33.652-10.179,50.623c-1.147,6.699-3.694,13.367-6.385,19.6c0.026,0.047,0.043,0.1,0.033,0.165
	c-1.392,9.23,0.606,25.224,8.437,32.842c2.248,2.187,4.979,3.678,8.248,4.124c0.803,0.109,1.629,0.171,2.498,0.148
	c0.536-0.014,0.735,0.077,0.736,0.213c5.521,0.14,11.32,0.663,17.197,1.11c3.884,0.295,7.8,0.555,11.691,0.648
	c9.951,0.238,19.734-0.629,28.369-4.83c0.627-6.79,2.719-13.956,4.123-19.044c2.9-10.507,5.982-21.017,9.236-31.42
	c1.08-3.454,2.285-7.155,4.138-10.384c-5.262-6.471-8.827-13.955-12.475-21.404c-3.977-8.125-8.079-16.263-10.415-25.04
	c-0.346-1.299,2.553-2.074,2.898-0.776c2.197,8.258,5.963,15.943,9.706,23.591c3.569,7.293,7.019,14.649,11.963,21.107
	c1.197-1.552,2.613-2.92,4.341-3.982c0.828-0.509,3.412-0.345,1.75,0.677c-1.975,1.214-3.526,2.974-4.788,5.014
	c0.265,0.487-0.128,0.958-0.712,1.235c-2.209,4.108-3.432,9.069-4.554,13.069c-2.276,8.122-4.905,16.14-7.192,24.259
	c-1.476,5.234-4.576,14.459-5.337,22.872c0.219,0.127,0.255,0.312-0.04,0.544c-0.641,8.152,1.02,15.431,8.635,17.416
	c0.248-0.066,0.48-0.094,0.66-0.063c6.557,1.142,13.147,1.737,19.646,0.066c0.771-0.198,3.244-4.083,4.08-5.216
	c1.138-1.542,2.255-3.101,3.257-4.736c0.512-0.835,1.003-1.684,1.489-2.534c1.935-3.382,3.664-6.879,5.091-10.511
	C465.072,287.905,465.968,285.354,466.793,282.77z M382.346,113.674c1.245-0.068,2.459-0.787,3.344-1.624
	c0.498-0.471,0.228-1.157-0.363-1.354c-0.729-0.243-1.514,0.043-2.049,0.549c0.185-0.175-0.169,0.118-0.17,0.118
	c-0.039,0.028-0.063,0.047-0.083,0.062c-0.023,0.011-0.058,0.029-0.107,0.056c-0.099,0.054-0.203,0.097-0.307,0.142
	c-0.622,0.038-1.5,0.448-1.592,1.145C380.921,113.498,381.8,113.704,382.346,113.674z M369.433,166.093
	c0.146,0.541-0.658,1.016-1.459,1.175c-7.021,16.631-5.564,35.747-5.53,53.407c0,0.077-0.014,0.15-0.038,0.22
	c0.041,0.004,0.082,0.007,0.118,0.015c0.109,0.004,0.222,0.002,0.321,0.027c1.345,0.337,2.686,1.459,2.754,2.947
	c0.082,1.781-1.839,2.45-3.335,2.602c-1.528,0.155-3.755-0.396-4.266-2.081c-0.43-1.417,0.611-2.315,1.801-2.854
	c-0.17-0.136-0.274-0.333-0.275-0.598c-0.036-18.5-1.519-38.389,6.464-55.617c-0.287-0.702-0.589-1.398-0.787-2.134
	c-0.266-0.987,2.632-1.764,2.898-0.776c0.145,0.539,0.35,1.054,0.561,1.568c0.384,0.137,0.59,0.431,0.367,0.915
	C369.179,165.297,369.323,165.688,369.433,166.093z M362.409,225.125c0.084,0.034,0.171,0.061,0.258,0.089
	c0.123-0.484-0.017-1.076-0.21-1.483c-0.312-0.656-0.816-1.186-1.457-1.497c-0.286,0.489-0.21,1.355,0.101,1.828
	C361.413,224.537,361.88,224.912,362.409,225.125z M363.23,225.357c0.006,0.001,0.013,0.003,0.019,0.004
	C363.69,225.426,363.544,225.338,363.23,225.357z M382.766,165.426c0.194,0.4-0.312,0.758-0.755,0.972
	c-7.448,16.832-5.935,36.309-5.9,54.277c0,0.077-0.014,0.15-0.038,0.22c0.041,0.004,0.082,0.007,0.118,0.015
	c0.109,0.004,0.221,0.001,0.321,0.027c1.345,0.337,2.686,1.459,2.754,2.947c0.081,1.781-1.839,2.45-3.335,2.602
	c-1.528,0.155-3.755-0.396-4.266-2.081c-0.43-1.417,0.611-2.315,1.801-2.854c-0.17-0.136-0.275-0.333-0.275-0.598
	c-0.035-18.436-1.509-38.25,6.383-55.438c-0.229-0.552-0.445-1.109-0.706-1.647c-0.279-0.577,0.896-1.072,1.241-1.165
	c0.541-0.145,1.369-0.205,1.657,0.389c0.134,0.277,0.247,0.563,0.362,0.848c0.51,0.102,0.833,0.412,0.559,0.985
	c-0.024,0.051-0.046,0.102-0.07,0.153C382.667,165.194,382.71,165.313,382.766,165.426z M376.076,225.125
	c0.083,0.034,0.171,0.061,0.257,0.089c0.124-0.484-0.016-1.076-0.209-1.483c-0.313-0.656-0.816-1.186-1.457-1.497
	c-0.285,0.489-0.21,1.355,0.101,1.828C375.08,224.537,375.546,224.912,376.076,225.125z M376.896,225.357
	c0.007,0.001,0.013,0.003,0.019,0.004C377.358,225.426,377.211,225.338,376.896,225.357z" fill="#000000"></path>
</svg>