<?xml version="1.0" encoding="UTF-8" standalone="no"?>
<svg
   xmlns:dc="http://purl.org/dc/elements/1.1/"
   xmlns:cc="http://creativecommons.org/ns#"
   xmlns:rdf="http://www.w3.org/1999/02/22-rdf-syntax-ns#"
   xmlns:svg="http://www.w3.org/2000/svg"
   xmlns="http://www.w3.org/2000/svg"
   xmlns:sodipodi="http://sodipodi.sourceforge.net/DTD/sodipodi-0.dtd"
   xmlns:inkscape="http://www.inkscape.org/namespaces/inkscape"
   inkscape:version="1.0beta2 (2b71d25, 2019-12-03)"
   sodipodi:docname="holding-hands.svg"
   xml:space="preserve"
   enable-background="new 0 0 595.279 595.281"
   viewBox="0 0 595.279 595.281"
   height="595.281px"
   width="595.279px"
   y="0px"
   x="0px"
   id="Layer_1"
   version="1.1"><metadata
   id="metadata840"><rdf:RDF><cc:Work
       rdf:about=""><dc:format>image/svg+xml</dc:format><dc:type
         rdf:resource="http://purl.org/dc/dcmitype/StillImage" /></cc:Work></rdf:RDF></metadata><defs
   id="defs838" /><sodipodi:namedview
   inkscape:current-layer="Layer_1"
   inkscape:window-maximized="1"
   inkscape:window-y="23"
   inkscape:window-x="0"
   inkscape:cy="297.6405"
   inkscape:cx="297.6395"
   inkscape:zoom="1.1288786"
   showgrid="false"
   id="namedview836"
   inkscape:window-height="1005"
   inkscape:window-width="1680"
   inkscape:pageshadow="2"
   inkscape:pageopacity="0"
   guidetolerance="10"
   gridtolerance="10"
   objecttolerance="10"
   borderopacity="1"
   inkscape:document-rotation="0"
   bordercolor="#666666"
   pagecolor="#ffffff" />
<path
   style="stroke-width:1.54243"
   inkscape:connector-curvature="0"
   d="m 488.63876,417.3969 c -7.48547,7.5409 -15.36005,14.69838 -23.65705,21.21633 l 18.28369,-16.92812 z m 66.05657,13.3596 c 1.59126,14.86023 1.27785,29.92945 -0.27859,44.77082 -1.72299,16.40644 -4.95549,32.65417 -7.87307,48.87205 -3.03719,16.87941 -6.19096,33.77768 -8.27581,50.82052 -0.39062,3.17569 -3.04173,15.61605 0.003,19.83826 H 432.44474 l -1.1522,-4.93875 c 1.4974,0.30327 3.86538,-0.77939 3.34606,-1.9579 -2.29985,-5.21373 -3.08715,-11.71439 -4.4604,-17.22982 -3.19313,-12.82219 -6.34388,-25.65696 -9.5143,-38.48544 -5.92448,-23.98819 -11.65517,-48.05809 -18.14137,-71.89543 2.42097,0.84696 5.00849,0.86581 7.66565,0.33156 -0.1393,0.31584 -0.14838,0.66311 0.0469,1.02452 1.97433,3.67066 6.37567,3.46482 11.40384,1.59963 3.1568,1.2335 6.35296,1.35921 9.52793,0.72753 1.51253,0.20899 3.16285,0.033 4.30899,-1.24293 0.0257,-0.0283 0.0606,-0.0581 0.0878,-0.0864 9.62786,-3.87023 18.81664,-13.3376 25.87969,-18.39262 0.2695,-0.19328 0.41182,-0.35984 0.47087,-0.49655 12.96634,-9.39665 24.83499,-20.45265 35.9663,-32.13562 7.48093,0.7401 14.93157,1.20365 22.20508,-0.2247 l 1.18853,0.0487 4.28628,-0.86896 c 3.02205,1.17851 11.11011,-0.76053 18.89385,-3.20397 l 5.51115,-0.80139 c 3.26884,7.20463 3.91382,16.30744 4.7299,23.92691 z m -67.02556,157.85598 c -0.89632,-17.79708 -4.12276,-35.37103 -5.07661,-53.18068 -1.39899,-26.10794 -2.31802,-52.66528 -2.43157,-78.8125 -0.0121,-2.44659 -4.46191,-1.79605 -4.45131,0.31898 0.11658,26.18808 1.24001,52.65586 2.43308,78.8125 0.81153,17.82537 4.18029,35.3836 5.0751,53.18068 0.12264,2.44659 4.55578,1.77405 4.45131,-0.31898 z m 53.90781,4.30549 c 0.70706,-6.26967 2.90092,-25.57996 5.55354,-47.86481 -3.46263,20.27824 -6.94344,43.4399 -5.55354,47.86481 z M 425.79956,404.40029 414.95138,399.28712 c 3.06444,2.25803 6.79961,3.91894 10.84818,5.11317 z m -16.05349,28.79651 c -3.06141,0.53111 -6.16824,0.65996 -9.36895,0.0251 -0.0999,-0.022 -0.20894,-0.0519 -0.31946,-0.0927 -0.29827,2.74357 -0.49813,5.49972 -0.61925,8.25586 3.0599,-2.96199 6.4544,-5.64428 9.99123,-7.85988 z m -9.23268,-3.72881 c 10.56505,-13.57487 30.72162,-14.99851 46.28153,-16.17388 0.2377,-0.0189 0.44362,-0.006 0.63287,0.0189 1.20973,-0.93652 2.37555,-1.90605 3.51109,-2.90385 -7.99571,0.0707 -16.10951,-0.83753 -23.82361,-2.74672 -6.09254,-1.51006 -13.19193,-3.59367 -18.12622,-8.03744 -4.29991,9.43437 -7.04488,19.53028 -8.47566,29.84303 z m -181.50755,21.57146 c -6.71027,-2.33503 -12.88458,-5.94755 -19.17546,-9.02268 -0.99322,-0.48555 -1.99098,-0.95066 -2.99328,-1.40636 -5.78368,-2.60215 -11.75207,-4.51448 -18.39724,-4.35263 -0.41788,0.40541 -1.00231,0.74953 -1.64729,0.8721 -25.75402,4.83661 -51.63522,2.26117 -77.425584,-0.80139 -0.51326,8.39414 -2.476984,16.27759 -9.499156,21.67045 -0.448159,0.34413 -0.923572,0.63169 -1.414124,0.88467 -1.695738,44.51942 11.880764,88.46215 27.732884,129.27632 0.0833,0.21213 0.0954,0.41798 0.0651,0.61126 h 13.65826 c 0.11809,-0.40541 0.24376,-0.80768 0.35126,-1.21466 1.20518,-4.5789 2.10453,-9.25052 2.93574,-13.91742 2.23626,-12.52835 4.02435,-25.14156 5.75643,-37.75162 2.87367,-20.93035 4.34987,-42.68408 9.25388,-63.24359 0.50418,-2.11817 5.01151,-2.60843 4.45737,-0.29541 -5.6898,23.85934 -7.19931,49.1376 -10.67709,73.41492 -1.82898,12.76091 -3.53531,25.66324 -6.465,38.21202 -0.30433,1.30108 -0.60108,3.0327 -1.03713,4.79733 h 58.72098 c 6.08498,-18.46962 14.3517,-36.27298 20.88937,-54.54304 9.35684,-26.14565 18.02328,-53.42581 19.33142,-81.48536 0.0348,-0.75268 1.57461,-1.23037 2.82067,-1.3875 0.0333,-0.22785 0.0575,-0.38027 0.0666,-0.45412 -5.3658,1.92647 -11.16916,2.2706 -17.30864,0.13671 z M 148.4041,437.15031 c 8.02447,-0.055 16.04592,-0.57669 24.05828,-1.79291 z M 510.58343,335.14158 c -0.11658,0.099 -0.22408,0.19956 -0.34066,0.29541 l 4.17575,4.69519 c -1.22789,-1.74263 -2.3922,-3.56382 -3.40056,-5.43843 -0.11204,0.14299 -0.2483,0.29069 -0.43453,0.44783 z m 31.44534,28.48696 c 1.89256,-1.62006 3.81995,-3.38469 6.02895,-4.5302 1.08861,-0.56411 1.99704,-1.08109 2.74801,-1.61692 0.21045,-0.43526 0.65709,-0.7951 1.19458,-1.02766 1.39142,-1.47392 1.8426,-3.36739 1.56099,-6.79765 -0.2907,-3.5261 -0.72977,-7.03177 -0.85241,-10.57359 -9.66419,-12.67449 -17.84613,-24.78015 -31.36055,-33.07843 -0.40274,0.34726 -0.82516,0.66939 -1.293,0.94595 -1.95313,1.15022 -4.31808,1.81647 -6.13948,3.15526 -3.38845,2.47959 -0.87361,7.06478 0.4633,9.88535 0.33612,0.70553 -0.83727,1.47549 -2.0682,1.75519 -0.8191,12.84734 12.8861,25.28927 19.82045,34.34337 0.69949,0.91453 1.76085,2.72786 3.01751,4.42806 0.32703,0.099 0.49963,0.2797 0.4209,0.55783 1.92891,2.46701 4.256,4.43748 6.45895,2.55344 z m -26.46411,23.85148 c 4.31202,-5.3583 8.35454,-10.98686 11.59007,-16.93127 z m 35.53933,-28.07841 c -0.53294,0.29227 -1.07649,0.62225 -1.62912,1.04023 -4.06674,3.07827 -8.20161,7.7986 -13.7279,5.83127 -0.68132,-0.24198 -1.29603,-0.63796 -1.8744,-1.1078 -5.58079,12.35237 -14.84376,23.5215 -23.89779,33.60327 0.0772,2.25017 1.13403,3.94722 2.76163,5.21058 1.97584,1.02452 4.71779,1.9579 8.53622,2.52045 7.5097,1.09837 21.0862,-1.89976 30.66409,-4.45006 3.07504,-1.02452 6.07892,-2.24703 8.85872,-3.83566 16.26243,-9.32123 -5.12809,-27.42001 -9.69145,-38.81228 z m -59.40078,-8.21186 c 4.62391,-6.57452 9.78834,-12.69334 16.02926,-17.89922 0.63287,-0.52797 1.57916,-0.64425 2.34678,-0.47612 -1.56402,-3.38782 -2.49061,-6.93907 -2.10605,-10.56102 0.0636,-0.61126 0.95537,-1.03081 1.91831,-1.26494 -1.81535,-3.86394 -3.55348,-8.58741 0.49661,-11.55254 1.68059,-1.23351 3.53985,-1.94533 5.37942,-2.87557 4.36653,-2.20617 5.70041,-7.95259 6.59218,-12.51264 1.57765,-8.03744 4.08037,-17.66508 1.11435,-25.6381 -2.39221,-6.42995 -4.22875,-11.9391 -4.39832,-18.96302 -0.0394,-1.71277 4.35289,-2.59272 4.3862,-1.22094 0.18775,7.71846 3.00388,13.15375 4.83134,20.31752 1.84866,7.24234 0.38154,15.03466 -1.03107,22.23771 -0.75551,3.85137 -1.44137,8.74612 -3.58376,12.38693 13.20556,7.70589 21.54344,18.87188 30.6111,30.87226 2.99782,-10.16504 3.21584,-20.35837 3.24461,-31.17553 0.0303,-11.31841 1.66849,-21.5086 4.34836,-32.45461 5.01757,-20.51394 7.89729,-44.56812 -7.1978,-61.17569 -4.03949,-2.30517 -9.72022,-5.10059 -15.47361,-6.48181 -3.67915,-0.27027 -7.37192,0.50597 -10.883,2.94313 -5.98808,4.14993 -10.34703,10.15248 -14.70145,15.99632 -3.79421,5.09117 -8.512,11.73954 -14.50915,14.0997 -0.3331,0.95067 -1.5837,1.86833 -2.81917,1.63577 -0.41031,-0.0801 -0.78125,-0.19642 -1.17187,-0.29227 5.93508,20.2531 5.28555,41.57 2.59054,62.40606 -2.17267,16.78828 -6.67546,34.48008 -6.01381,51.64862 z m -85.92244,-141.4684 c -6.90407,4.2662 -8.33182,16.63742 -8.6089,22.65568 0.50267,-2.91799 1.09466,-5.80613 1.87743,-8.62984 1.48377,-5.33472 3.60193,-10.11005 6.73147,-14.02584 z m 17.29199,130.97494 c 0.5496,-2.96827 0.93417,-5.96955 1.11737,-9.00382 -3.04325,-15.05979 -32.98362,-19.38414 -42.01342,-9.06667 -0.002,0.006 -0.003,0.0126 -0.005,0.0157 -0.0106,0.0314 -0.0318,0.0581 -0.0424,0.0896 -0.96748,5.20587 -1.97432,10.40389 -2.99934,15.60033 l -0.0954,1.74577 c 13.55985,-4.48148 30.8488,-3.08141 42.80678,5.46829 0.47996,-1.61534 0.88572,-3.23226 1.23093,-4.84918 z M 403.9518,315.3426 c 6.27423,0.74011 14.88464,2.65715 20.16868,7.49219 -0.20894,-2.63672 -0.58745,-5.30173 -1.16733,-8.00445 -3.28701,-15.31749 -9.59303,-29.7456 -10.11235,-45.66807 -0.43605,-13.4083 2.49818,-25.89423 7.34617,-38.27016 0.47087,-1.20051 4.68145,-1.65777 4.33473,-0.76996 -5.58685,14.27412 -8.80421,29.17363 -6.71027,44.61998 2.13632,15.7449 9.3099,30.42914 10.6347,46.22904 0.2695,3.20555 0.28615,6.3451 0.11052,9.43437 0.008,0.033 0.0212,0.0581 0.0272,0.0927 0.0227,0.10685 0.009,0.21842 -0.0197,0.32527 -0.0954,2.94313 -0.49358,5.90198 -1.12797,8.8514 -2.01066,11.00886 -6.20761,21.45203 -10.6241,31.87478 l -1.0235,4.26621 -6.69665,14.50667 c -0.24679,0.65683 -0.48601,1.31679 -0.72523,1.97676 0.36489,0.099 0.67073,0.30327 0.85393,0.63482 1.31117,2.37902 3.13711,4.36992 5.32189,6.04969 l 13.59467,6.04655 c 0.4739,0.11628 0.95234,0.22941 1.43381,0.33784 2.20597,-8.9284 3.79572,-18.0485 5.05844,-27.16703 1.72754,-12.47021 3.99559,-25.98537 2.81917,-38.597 -2.08637,-22.3807 -12.19115,-42.76737 -11.01776,-65.67447 0.88724,-17.35867 6.34237,-31.90621 14.40772,-46.889 7.54906,-14.02899 12.26685,-27.75943 13.72336,-43.20577 -0.50418,0.31898 -1.06135,0.67882 -1.68211,1.08109 -6.63609,7.93373 -16.54404,12.75777 -26.1401,15.90989 -3.23704,1.06537 -6.15613,2.25017 -8.76939,3.65181 -0.003,0.0613 -0.005,0.0927 -0.005,0.0927 v -0.0896 c -7.69592,4.13736 -12.69835,10.19805 -14.98306,20.79207 -3.98801,18.48219 -5.55505,37.49078 -9.51278,56.01854 -2.67836,12.53778 -5.91843,24.89957 -9.87465,37.05551 6.08801,-3.28097 13.87023,-3.76966 20.35643,-3.00442 z M 165.77936,201.07894 c 1.37627,-0.66311 2.82976,-0.71811 4.32716,-0.72125 1.04923,0 2.32709,-0.28599 2.86912,-1.34979 0.47693,-0.93652 -0.4103,-1.74577 -1.29451,-1.74577 -2.71167,0.003 -5.28253,0.16342 -7.78374,1.37179 -0.0545,0.0251 -0.11355,0.0613 -0.1726,0.0959 0.0772,0.89881 0.17563,1.79291 0.3013,2.68543 0.61167,0.0534 1.27937,-0.10685 1.75327,-0.33626 z m -54.43773,15.79832 c 0.70252,-0.006 1.23244,-0.28913 1.59884,-0.70868 0.0742,-1.00723 0.14686,-2.01289 0.22862,-3.02327 -0.35277,-0.57982 -0.9584,-0.99152 -1.82746,-0.98209 -4.48614,0.0519 -8.94199,0.61125 -13.416014,0.88624 -0.377,1.60749 -0.720692,3.21026 -1.043185,4.75647 4.823769,-0.24042 9.623319,-0.86896 14.459199,-0.92867 z m -18.504745,0.62383 c 0.322493,-1.40322 0.660127,-2.82371 1.014415,-4.2505 -2.075765,0.30327 -2.420969,3.15527 -1.014415,4.2505 z M 113.06311,204.0315 c 0.30886,-1.4645 0.57685,-2.93685 0.81153,-4.4202 -4.1697,0.099 -8.31215,0.6961 -12.31833,1.86362 -0.77973,1.7709 -1.45803,3.67381 -2.056084,5.64428 4.371074,-1.65149 8.901114,-2.56287 13.540164,-2.76243 -0.008,-0.099 -0.003,-0.20585 0.0227,-0.32527 z m -16.966471,1.42678 c 0.252846,-0.7401 0.519319,-1.46764 0.796391,-2.18574 -0.63136,0.56568 -0.875122,1.40007 -0.796391,2.18574 z M 79.735796,341.20541 c -0.588966,0.33784 -0.959909,0.68196 -0.743399,0.84067 0.192284,0.14142 0.383055,0.28284 0.575339,0.42583 0.05753,-0.42269 0.11204,-0.84224 0.16806,-1.2665 z m 8.643721,115.13576 c -0.564741,0.42112 -1.171876,0.72439 -1.830488,0.88153 -0.251333,0.009 -0.505694,0.0487 -0.753998,0.11628 -0.595022,0.033 -1.22941,-0.0456 -1.898621,-0.24827 -0.03785,-0.18071 -0.06208,-0.3677 -0.06208,-0.57669 0.01968,-4.32749 0.145349,-8.65184 0.324007,-12.9699 -3.287006,-0.84381 -6.519506,-1.89033 -9.709613,-3.10341 -0.127181,-0.93338 -0.234678,-1.83848 -0.331578,-2.69486 -0.03937,-0.35041 -0.06359,-0.69925 -0.09841,-1.04966 3.374821,1.45192 6.790522,2.70429 10.269813,3.72566 0.249818,-5.02674 0.591994,-10.05348 1.011386,-15.0755 -3.910795,-0.92396 -7.736804,-2.24703 -11.546158,-3.90009 -0.04239,-0.0189 -0.06965,-0.0393 -0.109012,-0.0581 0.03785,-0.90195 0.08782,-1.8039 0.142321,-2.70743 0.719175,-0.50912 1.683626,-0.7731 2.464876,-0.43526 3.085638,1.34193 6.200042,2.47016 9.368952,3.33283 0.363372,-3.99908 0.772166,-7.99816 1.215783,-11.9941 -4.018293,-1.22408 -7.817048,-3.11127 -11.702105,-4.95917 0.16049,-1.29165 0.327035,-2.58487 0.499637,-3.87023 3.895655,1.79919 7.656559,3.81523 11.600664,5.24201 0.637416,-5.46828 1.33388,-10.935 2.071223,-16.40172 -3.874458,-1.39064 -7.658074,-3.07827 -11.538588,-4.47834 0.131722,-1.01509 0.271015,-2.03175 0.40728,-3.04684 0.233164,-0.0189 0.439075,-0.006 0.601078,0.0456 3.730624,1.17537 7.329525,2.775 10.972333,4.21121 0.610163,-4.44063 1.235466,-8.88126 1.878938,-13.32346 -4.195437,-1.50063 -8.029016,-3.77123 -11.220637,-7.06477 0.23922,-1.68449 0.476926,-3.3674 0.719175,-5.05503 0.410308,0.0424 0.761568,0.17756 0.958394,0.44469 2.758602,3.77124 6.189444,6.39224 10.047247,8.19458 0.835757,-5.72913 1.680598,-11.45669 2.510298,-17.1874 -3.315773,-1.6782 -6.471057,-3.68952 -9.552152,-5.85012 -0.457244,0.86895 -1.289972,1.23979 -2.104532,1.21779 0.905403,-6.5368 1.766898,-13.09247 2.546635,-19.65756 0.02423,-0.10685 0.05299,-0.21527 0.07722,-0.32212 -0.01211,-0.009 -0.02271,-0.0189 -0.03482,-0.0314 0.166546,-1.40793 0.330064,-2.82057 0.487525,-4.23164 0.152919,-0.0126 0.307353,-0.022 0.440589,-0.009 0.542031,-2.76242 1.031069,-5.53428 1.458032,-8.31557 -0.342176,-0.006 -0.684352,-0.0189 -1.026527,-0.0314 0.06359,-0.64425 0.122638,-1.28851 0.1832,-1.93276 0.342176,-0.11628 0.664669,-0.18699 0.914487,-0.18699 0.0863,0.003 0.171088,0.009 0.257389,0.009 0.569283,-3.96765 1.040154,-7.95259 1.41261,-11.94538 -0.53446,-0.0519 -1.06892,-0.12257 -1.601866,-0.18071 0.05905,-0.91452 0.109011,-1.83219 0.162003,-2.74671 0.06662,0 0.136265,-0.003 0.196827,0.006 0.495095,0.0676 0.991704,0.10371 1.488313,0.16342 0.277071,-3.3454 0.498123,-6.69708 0.667696,-10.05662 -0.632873,-0.12257 -1.262719,-0.28913 -1.894078,-0.45098 0.02725,-1.00095 0.03634,-2.00032 0.05602,-3.00442 0.03785,0.0126 0.09084,0.009 0.124152,0.022 0.610163,0.24513 1.227896,0.43212 1.844115,0.62854 0.251332,-5.86427 0.370943,-11.7521 0.408794,-17.64151 -0.858467,0.022 -1.718449,0.0314 -2.57843,0.0424 -0.02877,-0.64425 -0.04845,-1.28536 -0.08024,-1.92804 0.888748,-0.006 1.779011,-0.009 2.666245,-0.0251 0.01817,-5.62543 -0.02422,-11.25714 -0.08176,-16.8857 -0.899346,-0.10371 -1.798693,-0.21528 -2.69804,-0.32841 -2.959971,-0.38027 -0.669211,-3.62824 1.50951,-3.34854 0.383055,0.0487 0.767624,0.0959 1.150679,0.14142 -0.03785,-3.52925 -0.07722,-7.0585 -0.10447,-10.58146 -0.858467,0.0707 -1.680597,-0.17127 -1.975837,-0.88938 -2.193861,-5.37401 -3.756362,-10.94129 -5.056933,-16.58557 -2.890324,3.04527 -5.374883,6.63894 -7.493041,10.59717 1.874396,4.70147 4.274168,9.20966 6.525562,13.78071 1.006845,-1.04651 2.063653,-2.05375 3.211304,-2.97142 0.808504,-0.64425 4.843451,-1.10151 3.957731,-0.39597 -2.2196,1.77719 -4.156072,3.8278 -5.86695,6.07954 2.446707,5.22944 4.498247,10.61288 5.073587,16.55414 0.166546,1.7222 -4.242373,2.71843 -4.386208,1.22094 -0.457243,-4.71719 -1.853199,-9.08082 -3.627668,-13.29831 -1.653344,2.88499 -3.038701,5.99154 -4.183324,9.2568 3.059898,1.71906 6.019869,3.56696 8.455978,5.98527 -0.853925,0.31584 -1.560987,0.83438 -1.523136,1.47392 0.05299,0.9271 0.06813,1.85733 0.11204,2.786 -0.425448,-0.0738 -0.806989,-0.24513 -1.067406,-0.56726 -2.022773,-2.50472 -4.499762,-4.41077 -7.140268,-6.07954 -1.648802,5.62542 -2.717723,11.5824 -3.468692,17.46867 3.810868,1.83219 7.853386,3.10341 11.980691,3.76023 -0.0061,1.02138 -0.04391,2.04433 -0.06056,3.06256 -0.04239,-0.003 -0.0863,0.006 -0.12718,0 -4.183325,-0.50598 -8.295489,-1.59335 -12.222939,-3.17884 -0.376999,3.49625 -0.664669,6.93907 -0.911459,10.2389 4.249943,1.45507 8.552878,2.76243 12.886094,4.00851 -0.02271,0.46355 -0.04088,0.92709 -0.06662,1.39064 -0.935684,0.43841 -2.166608,0.7951 -2.681385,0.6474 -3.473235,-0.99152 -6.923758,-2.02861 -10.348543,-3.13327 -0.09387,1.29165 -0.178658,2.55658 -0.267988,3.78695 -0.249818,3.50724 -0.417878,7.05535 -0.566255,10.61916 4.212092,0.9601 8.507457,1.49121 12.931516,1.3655 -0.06056,0.71182 -0.128695,1.42364 -0.193799,2.13547 -0.234678,0.077 -0.458758,0.12885 -0.6465,0.13827 -4.172727,0.21214 -8.227357,-0.15399 -12.207799,-0.88624 -0.184714,4.92932 -0.336119,9.88378 -0.548087,14.83981 3.80027,0.022 7.546034,-0.26085 10.940538,-0.55626 0.4633,-0.0393 0.808503,-0.0157 1.071948,0.0519 -0.06662,0.58297 -0.143834,1.16908 -0.213481,1.75205 -0.411822,0.28284 -0.937198,0.49654 -1.500425,0.54997 -3.234014,0.28284 -6.776895,0.54997 -10.401535,0.61125 -0.289184,6.02455 -0.705548,12.03338 -1.444405,17.96679 2.720751,0.62068 5.503578,0.96009 8.393902,0.84696 3.017505,-0.11943 1.76387,2.70743 -0.528404,2.79542 -2.869128,0.11314 -5.606533,-0.16342 -8.26975,-0.67253 -0.607135,4.21121 -1.388386,8.38156 -2.428539,12.47492 -0.05299,0.20899 -0.245276,0.39598 -0.520834,0.55783 -1.232438,-0.009 -2.47396,-0.0393 -3.712455,-0.099 1.140081,-4.56634 1.969782,-9.21281 2.592057,-13.90957 -3.762418,-1.07794 -7.408255,-2.54715 -11.070746,-4.06036 -1.666971,4.83346 -3.477777,9.62136 -5.456642,14.36368 -0.0969,0.23256 -0.352774,0.42898 -0.68738,0.59554 -1.0129,-0.46669 -1.987949,-0.99152 -2.905465,-1.59963 1.989464,-4.88217 3.844177,-9.81778 5.517205,-14.81466 -3.006907,-1.22408 -6.056207,-2.39316 -9.222089,-3.31083 0.269501,-0.83753 0.522348,-1.68448 0.772166,-2.53144 0.59048,-0.22942 1.202157,-0.33784 1.645774,-0.21213 2.673816,0.76682 5.287069,1.76776 7.879125,2.84257 1.370217,-4.3055 2.611739,-8.65499 3.703371,-13.04062 -3.506544,-1.06537 -6.752671,-2.68229 -9.494618,-5.10059 0.228621,-1.11094 0.455729,-2.21403 0.681323,-3.31868 0.811532,-0.187 1.617007,-0.165 1.994006,0.23255 2.154495,2.2816 4.737468,3.9048 7.561174,5.05817 1.208213,-5.19959 2.198403,-10.45417 2.962999,-15.76061 -3.28095,-1.12037 -6.540703,-2.36331 -9.808027,-3.60939 0.148377,-0.82181 0.290698,-1.6452 0.436047,-2.47016 0.635902,-0.18384 1.246065,-0.26084 1.600353,-0.1257 2.734377,1.04023 5.461184,2.09932 8.203132,3.10341 0.0045,-0.0393 0.01211,-0.0833 0.01665,-0.12257 0.614705,-4.9136 0.978078,-9.85235 1.297543,-14.78952 -2.860044,-1.1628 -5.685264,-2.42459 -8.474148,-3.80266 0.07116,-0.44155 0.140807,-0.88467 0.211968,-1.32622 1.002302,-0.50911 2.41794,-0.96952 3.081095,-0.63482 1.780525,0.89567 3.580732,1.72848 5.393052,2.52515 0.260417,-4.15621 0.522348,-8.31085 0.897833,-12.45449 -2.407343,-1.86677 -4.643597,-3.96137 -6.675454,-6.2634 0.0076,-0.0519 0.01665,-0.1037 0.02574,-0.16027 0.224079,-1.3875 0.446645,-2.78129 0.66921,-4.17036 0.691922,-0.077 1.338422,0.0487 1.671513,0.46983 1.470145,1.86362 3.09018,3.60939 4.826797,5.22631 0.278586,-2.35703 0.593508,-4.7109 0.999274,-7.05221 0.543545,-3.13641 1.171876,-6.39539 1.913762,-9.7015 -2.481531,-1.79291 -4.693561,-3.90008 -6.352961,-6.68765 0.364886,-1.86048 0.749455,-3.7131 1.164306,-5.561 0.735829,0.0393 1.397469,0.35355 1.65183,1.04651 1.029555,2.80486 2.637478,5.00946 4.57395,6.87779 1.80475,-7.06478 4.22269,-14.15784 7.553604,-20.53122 -1.827461,-4.51134 -3.176481,-9.20338 -3.383906,-14.31969 0.376999,-0.54054 0.773681,-1.06537 1.17339,-1.58706 1.288458,-0.64425 3.170425,-0.71182 3.205248,0.22941 0.136264,3.72253 0.89329,7.21563 1.984922,10.58146 2.337695,-3.57167 5.055418,-6.79451 8.212216,-9.51451 -0.775195,-3.56853 -1.462574,-7.16692 -2.149954,-10.75744 1.383844,-0.68825 2.811594,-1.29165 4.269626,-1.82591 0.611677,3.19769 1.224868,6.39538 1.891051,9.58208 1.886508,-1.22094 3.897169,-2.29574 6.071347,-3.15841 0.520834,-0.20585 1.159764,-0.30327 1.69271,-0.30327 -0.127181,0.43212 -0.252847,0.86895 -0.373971,1.30422 -2.534523,1.02766 -4.844965,2.42773 -6.978264,4.0855 0.87058,4.00536 1.880452,7.96987 3.102292,11.86839 -0.257389,0.99466 -0.522348,1.94532 -0.796392,2.84885 -0.622275,2.03804 3.362709,1.12665 4.022836,0.36141 0.390625,-0.44784 0.816074,-0.88467 1.261205,-1.30108 0.02725,0.15085 0.07419,0.28913 0.0757,0.45726 0,0.0707 0.0015,0.14143 0.0015,0.21214 1.408069,0.94595 2.908495,1.57449 4.467965,1.97361 -0.24679,-1.76462 -0.50418,-3.5261 -0.78882,-5.29073 1.444404,-0.68982 2.959974,-1.03394 4.434664,-0.8721 0.3664,2.26746 0.70706,4.53648 1.00684,6.80394 2.48002,0.10685 5.00848,-0.0393 7.46882,-0.099 -0.0469,0.96953 -0.0772,1.93905 -0.12113,2.91328 -0.12415,0.0251 -0.24679,0.033 -0.3664,0.0361 -2.17872,0.0189 -4.41043,0.12257 -6.63003,0.11628 0.49964,4.16093 0.87815,8.32029 1.1749,12.47493 1.7987,-0.0739 3.59588,-0.23885 5.38851,-0.52483 -0.0318,1.10466 -0.0681,2.21246 -0.0969,3.32026 -1.69271,0.24827 -3.3839,0.42112 -5.07661,0.50597 0.29827,5.0236 0.44816,10.04562 0.49207,15.05979 1.42926,-0.20899 2.85701,-0.45726 4.28628,-0.74953 -0.009,0.55311 -0.0182,1.10466 -0.0273,1.66091 -0.0363,0.009 -0.0742,0.022 -0.11052,0.0283 -1.37779,0.29698 -2.7586,0.54683 -4.13942,0.76682 0.0242,6.80707 -0.17563,13.61101 -0.53446,20.40551 1.31874,-0.0314 2.64051,-0.0613 3.96379,-0.0707 0.18017,-0.003 0.33309,0.003 0.46784,0.0189 -0.009,0.38969 -0.0151,0.77939 -0.0242,1.16908 -0.68132,0.46041 -1.69422,0.88153 -2.28167,0.88467 -0.74491,0.009 -1.48983,0.0251 -2.23626,0.0361 -0.19682,3.39725 -0.43604,6.79136 -0.70857,10.18233 0.89934,0.009 1.79718,0.0189 2.69501,0.0189 2.96754,0 -0.056,2.58958 -1.70331,2.58958 -0.40879,0 -0.81456,-0.006 -1.22184,-0.009 -0.34369,4.02736 -0.74794,8.04687 -1.17642,12.07109 1.87591,0.10057 3.75485,0.17756 5.63379,0.2247 -0.0378,0.70868 -0.0727,1.41422 -0.11204,2.12447 -0.053,0.006 -0.11053,0.0126 -0.15897,0.0126 -1.86986,-0.0189 -3.7382,-0.0864 -5.60351,-0.17442 -0.55717,5.06131 -1.18096,10.12262 -1.83503,15.18393 2.16509,0.36141 4.37409,0.54683 6.5725,0.64425 -0.0515,0.68982 -0.10447,1.38121 -0.15746,2.06789 -2.2196,-0.0424 -4.46797,-0.13199 -6.71331,-0.36455 -0.76914,5.85327 -1.58975,11.70182 -2.427024,17.55509 2.343754,1.14709 4.770774,2.12761 7.326494,2.83 -0.0363,0.35669 -0.0712,0.71182 -0.10901,1.06537 -0.95082,0.49655 -2.42248,0.97267 -2.99025,0.82496 -1.60944,-0.41798 -3.15831,-0.96324 -4.679944,-1.56192 -0.81304,5.64114 -1.636682,11.28227 -2.449728,16.92498 2.006118,0.61126 4.090972,1.05595 6.234862,1.36236 2.4997,0.36141 -1.25969,2.71843 -2.676844,2.5173 -1.35356,-0.19642 -2.688952,-0.44783 -4.006177,-0.75739 -0.649528,4.54591 -1.27786,9.09024 -1.889537,13.63615 1.818376,0.59869 3.665514,1.10466 5.564134,1.4425 2.452774,0.43212 -1.40352,2.60215 -2.713174,2.37273 -1.103744,-0.19641 -2.184777,-0.45726 -3.259754,-0.74639 -0.71766,5.42587 -1.394441,10.85487 -2.009146,16.28702 1.423208,0.30013 2.872156,0.52483 4.384694,0.57354 2.97359,0.0958 0.416364,3.16784 -1.571586,3.10341 -1.082547,-0.033 -2.136327,-0.1477 -3.174966,-0.30327 -0.431505,3.98651 -0.825159,7.97302 -1.174905,11.96267 2.118159,0.38341 4.272654,0.6144 6.463487,0.69296 -0.208939,1.16909 -0.408794,2.33503 -0.584424,3.50411 -2.092419,-0.0833 -4.154558,-0.27027 -6.181873,-0.57983 -0.411822,5.13202 -0.749456,10.26247 -0.985648,15.40392 1.777497,0.41798 3.574676,0.7731 5.390024,1.07166 -0.112039,0.65368 -0.233164,1.30736 -0.367914,1.96104 -0.711604,0.35041 -1.497397,0.57983 -1.969781,0.50597 -1.059837,-0.16813 -2.113617,-0.36141 -3.16134,-0.5704 -0.15292,3.92523 -0.257389,7.85046 -0.2801,11.77725 z M 65.058579,330.45739 c -2.57843,-0.099 -5.152318,-0.35669 -7.650503,-0.8281 -1.185502,4.58205 -2.520896,9.11225 -3.995582,13.59844 3.441439,1.48178 6.878336,2.96514 10.39245,4.10279 0.634388,-5.572 0.993218,-11.21628 1.253635,-16.87313 z m 0.681323,-18.12549 c -1.492855,-0.37084 -2.979653,-0.78567 -4.457368,-1.23665 -0.237706,1.58078 -0.492066,3.15841 -0.788821,4.73604 -0.693435,3.69581 -1.514051,7.34762 -2.401286,10.97586 2.287733,0.58297 4.676906,0.9271 7.08879,1.1078 0.213482,-5.20116 0.361859,-10.40703 0.558685,-15.58305 z m 1.056809,-17.63209 c -1.22941,-0.42583 -2.452764,-0.86581 -3.671576,-1.31993 -0.364886,4.91046 -0.788821,9.81778 -1.430779,14.71253 1.385358,0.46354 2.776771,0.89881 4.174241,1.30421 0.202883,-4.76275 0.455729,-9.50508 0.881178,-14.17512 0.01363,-0.17128 0.03028,-0.35041 0.04694,-0.52169 z m 1.383843,-13.51044 c -1.362647,-0.69297 -2.69804,-1.44564 -3.998611,-2.26117 -0.296754,3.79009 -0.566255,7.57389 -0.831214,11.35927 1.232438,0.4934 2.472446,0.97266 3.716997,1.43621 0.313408,-3.3894 0.66164,-6.9375 1.112828,-10.53431 z m 4.470994,-21.31376 c -1.894078,-1.06537 -3.806326,-2.09932 -5.653469,-3.19455 -1.130996,5.93184 -1.868339,11.65311 -2.349808,16.64371 -0.03634,0.37713 -0.05905,0.75425 -0.09538,1.13609 1.339936,1.01037 2.728321,1.94847 4.162128,2.808 0.869066,-5.88784 2.089391,-11.82282 3.936534,-17.39325 z m 1.164306,-26.48034 c -2.63445,6.12825 -4.583034,12.79548 -6.013813,19.34485 1.910733,1.34979 3.980442,2.54401 6.088002,3.70367 1.54736,-3.93151 3.482318,-7.60532 5.885118,-10.89258 -1.918303,-4.07765 -4.063714,-8.07044 -5.959307,-12.15594 z m 28.028126,16.41115 c -2.072734,-0.033 -4.148504,-0.16028 -6.225782,-0.34098 0.05451,5.43214 0.09084,10.87058 0.07116,16.29958 2.234738,-0.0896 4.461912,-0.22784 6.686052,-0.44155 -0.0484,-5.16973 -0.20893,-10.34103 -0.53143,-15.51705 z m -6.380215,-17.2424 c 0.02574,4.46892 0.0757,8.94568 0.122638,13.42717 2.009143,0.20584 4.021323,0.36141 6.030467,0.43526 -0.31795,-4.24107 -0.72371,-8.48528 -1.25666,-12.7342 -1.677574,-0.19485 -3.318803,-0.54211 -4.896445,-1.12823 z m -0.222566,53.8925 c 2.193857,0.32527 4.407407,0.45727 6.637611,0.47612 0.34369,-6.61694 0.53446,-13.23389 0.50872,-19.86026 -2.2302,0.24828 -4.461914,0.42427 -6.701199,0.54055 -0.03634,6.29324 -0.165032,12.57549 -0.445132,18.84359 z m -0.776708,12.2848 c 2.199917,0.15713 4.401345,0.24827 6.607329,0.30012 0.26647,-3.34539 0.50266,-6.69393 0.69343,-10.03933 -2.225654,0.0283 -4.440716,-0.006 -6.640633,-0.17442 -0.166545,3.3124 -0.387597,6.61537 -0.660126,9.91363 z m -1.592783,14.40297 c 2.274106,0.10056 4.546698,0.22941 6.817778,0.37398 0.420904,-3.95037 0.817594,-7.89917 1.153704,-11.85268 -2.205974,-0.0393 -4.408918,-0.13199 -6.610349,-0.26084 -0.363372,3.92523 -0.81456,7.83945 -1.361133,11.73954 z m -2.367976,13.54187 c 2.205973,1.58392 4.63754,2.698 7.199314,3.46482 0.62076,-4.81304 1.21427,-9.62765 1.74419,-14.44068 -2.302874,-0.14457 -4.602718,-0.28913 -6.905591,-0.40541 -0.572311,3.80895 -1.246064,7.60375 -2.037913,11.38127 z m 4.64511,22.14657 c 0.764596,-5.32844 1.507996,-10.65216 2.210514,-15.9806 -2.667757,-0.53112 -5.249216,-1.34193 -7.655044,-2.53144 -0.967479,4.20492 -2.095447,8.38785 -3.394503,12.53935 2.88124,2.1166 5.80336,4.16407 8.839033,5.97269 z M 112.6104,333.11926 c 0.81911,-0.50598 1.23396,-1.08895 0.0787,-1.2068 -0.0273,0.40227 -0.0515,0.80453 -0.0787,1.2068 z M 81.278615,201.36021 c 0.764596,-0.35041 1.541304,-0.68511 2.327097,-0.99781 -0.847869,0.0346 -1.797179,0.41169 -2.327097,0.99781 z m 34.290245,44.17686 c -0.0348,0.92395 -0.0772,1.8479 -0.10901,2.77185 1.36719,-0.7071 1.24909,-2.22345 0.10901,-2.77185 z m 191.5124,92.98919 c -1.64729,4.83661 -3.81238,9.1311 -6.41201,12.97619 1.14008,1.17537 2.29227,2.35702 3.42478,3.53239 -0.38457,0.54368 -0.77822,1.08108 -1.17641,1.60749 -1.04167,0.44469 -2.36647,0.64425 -2.85399,0.13827 -0.61773,-0.64111 -1.24607,-1.28536 -1.86531,-1.9249 -1.99401,2.50787 -4.17727,4.8209 -6.53011,6.96421 1.05378,1.13295 2.10453,2.26432 3.14469,3.4004 -1.05227,0.87838 -2.14087,1.7002 -3.25976,2.46702 -0.21651,-0.0707 -0.40576,-0.18071 -0.54657,-0.33784 -0.8509,-0.93653 -1.71542,-1.85419 -2.56934,-2.78286 -2.11968,1.70334 -4.34382,3.30297 -6.66032,4.81304 0.75249,0.77624 1.4762,1.58077 2.20446,2.38216 -1.4444,0.5704 -2.92515,1.0528 -4.44374,1.42678 -0.47238,-0.50911 -0.93266,-1.0308 -1.4111,-1.5352 -1.40049,0.83124 -2.83279,1.62948 -4.28325,2.41201 -1.40958,0.0959 -2.84036,0.10371 -4.29991,0.0126 -0.12718,-0.099 -0.25587,-0.19328 -0.38456,-0.28913 2.45276,-1.26494 4.85859,-2.56916 7.166,-3.96137 -3.16891,-3.15526 -6.51799,-6.12197 -9.96549,-8.98968 -2.15449,2.19203 -4.33018,4.35735 -6.51193,6.51795 -0.78882,-0.5154 -1.57916,-1.03709 -2.37101,-1.55563 2.24837,-2.2376 4.51036,-4.46577 6.72845,-6.73637 -2.98571,-2.42773 -6.01381,-4.81304 -9.01769,-7.21248 -1.84866,2.86613 -3.56257,5.85012 -5.18563,8.91268 -1.00533,-0.70868 -1.99703,-1.42993 -2.97814,-2.16375 1.71088,-3.07198 3.53228,-6.04968 5.46875,-8.92839 -2.40885,-1.95162 -4.79651,-3.92523 -7.10393,-5.96641 -0.52537,-0.46355 -1.05832,-0.93966 -1.59429,-1.41107 -1.81081,2.88814 -3.72154,5.71814 -5.81547,8.41771 -1.74419,-1.82905 -3.36726,-3.76809 -4.81015,-5.8737 0.70101,-3.32025 1.44138,-6.80079 2.27411,-10.35203 -2.34375,-2.36645 -4.59969,-4.84918 -6.60278,-7.49533 -0.38306,2.83 -0.49358,5.65371 -0.22862,8.43342 0.0348,0.3677 -0.14838,0.70239 -0.44816,0.98838 -1.7669,-9.31495 -3.30972,-18.65504 -4.57092,-27.99984 0.95688,-0.15085 1.86379,0.0613 1.99097,0.81867 0.36792,2.21875 1.01442,4.35263 1.83958,6.41424 1.58824,-4.62133 3.56105,-9.08396 5.53234,-13.17889 0.36337,-0.75424 0.73886,-1.52263 1.11889,-2.28945 -2.51636,-5.34887 -4.61029,-10.93501 -6.76479,-16.47086 -2.71621,8.47741 -4.02889,17.27225 -3.74727,24.47845 -0.82516,-6.13769 -1.54282,-12.27851 -2.11362,-18.42405 0.96294,-3.83566 2.20597,-7.67918 3.73971,-11.36084 -1.16431,-2.82686 -2.38615,-5.61286 -3.74274,-8.32029 -0.13929,2.5723 -0.12112,5.14616 0.0954,7.72475 0.0833,0.98523 -1.89711,1.71276 -3.22493,1.73633 0.0257,0.17442 0.05,0.35356 0.0742,0.52798 -1.09011,0.25456 -2.15298,0.74324 -2.11361,1.32621 0.0378,0.56097 0.0954,1.12037 0.13778,1.68135 -1.06135,0.24513 -2.14996,0.0283 -2.28773,-0.9051 -0.1393,-0.93338 -0.26951,-1.86676 -0.40426,-2.80171 -0.97353,0.58611 -2.72983,1.25865 -3.50351,0.88467 -1.18248,-0.57355 -2.39675,-1.08266 -3.61859,-1.57135 0.6132,4.27878 1.28241,8.54656 1.96979,12.81591 2.18629,0.65368 4.34532,1.48178 6.465,2.56915 1.84714,0.94595 -2.17721,2.89756 -3.48535,2.22817 -0.78882,-0.40541 -1.5837,-0.76367 -2.3816,-1.09837 0.94174,5.72442 1.91679,11.44098 2.88124,17.16226 1.54584,0.15713 3.09018,0.33155 4.63299,0.55311 2.39826,0.34412 -1.52616,2.42773 -2.74346,2.25331 -0.48147,-0.0676 -0.96445,-0.10999 -1.44743,-0.17128 1.05378,6.27282 2.07728,12.55036 3.01296,18.83889 2.50879,-0.0361 5.02363,-0.0519 7.53998,-0.0613 0.14989,0.81867 0.30887,1.63891 0.46179,2.45758 -2.54967,0 -5.0963,0.0157 -7.64142,0.0393 0.29069,2.01604 0.57685,4.03207 0.84635,6.05597 0.66618,5.01731 1.19156,10.17133 1.6806,15.38506 2.80705,-0.0896 5.50509,-0.43212 8.15014,-1.70962 0.30887,-0.15085 0.62833,-0.22942 0.94022,-0.26713 0.17412,0.78881 0.34975,1.58077 0.52689,2.36959 -3.02961,1.40635 -6.15462,1.98304 -9.36743,2.1936 0.52992,5.8407 1.01895,11.75368 1.58218,17.68709 3.21282,-0.0676 6.42564,-0.31585 9.63997,-0.82182 3.09775,-0.49183 0.87361,1.29165 -0.84636,1.56506 -2.88729,0.45412 -5.76551,0.70239 -8.63766,0.82182 0.67072,6.89978 1.44895,13.80114 2.52998,20.60822 4.79954,1.19108 9.17818,1.31993 11.60823,-1.10466 0.51781,-0.5154 2.58298,-0.91452 3.57619,-0.82496 0.0636,0.22942 0.12567,0.45727 0.18775,0.68511 -4.03495,3.84509 -9.67934,4.15621 -15.03757,3.2464 0.99322,5.91141 2.21506,11.74583 3.80633,17.41996 5.63833,0.17756 10.24862,-2.94313 14.53338,-7.95259 0.056,-0.0644 0.13929,-0.12885 0.23468,-0.19013 0.27859,0.96009 0.56323,1.91861 0.84333,2.87556 -4.32868,4.08551 -9.44466,6.95165 -14.98306,7.47019 1.4005,4.68104 3.06898,9.23795 5.05693,13.65187 3.98499,-0.37398 7.76406,-1.70963 11.04653,-4.62762 0.81607,-0.72754 2.79796,-0.80767 3.69277,-0.33156 0.10295,0.33784 0.20439,0.67568 0.30735,1.01038 -0.0863,0.14142 -0.19986,0.28913 -0.38306,0.45098 -4.20906,3.74452 -8.67248,5.66313 -13.2964,6.3891 1.4656,2.98241 3.08867,5.89255 4.89493,8.71312 -1.28997,0.70553 -2.62536,1.30736 -4.02132,1.76148 -2.13027,-3.26526 -4.01224,-6.64523 -5.67618,-10.12105 -3.7927,-0.022 -7.66867,-0.68511 -11.58552,-1.67506 1.16733,3.52925 2.43308,7.03807 3.82601,10.51703 0.13626,0.34098 0.0681,0.66625 -0.12416,0.95381 -1.7563,-0.59554 -3.48534,-1.3325 -5.17351,-2.15432 -1.37022,-3.5811 -2.64808,-7.18106 -3.78816,-10.8093 -4.16667,-1.29479 -8.35454,-2.79542 -12.50455,-4.1405 0.38305,2.39945 0.76762,4.80361 1.14765,7.2062 -1.62458,-0.73382 -3.25672,-1.40793 -4.9025,-2.01604 -0.35429,-2.21874 -0.70555,-4.44063 -1.06286,-6.66251 -4.27871,-1.20994 -8.49686,-2.09618 -12.59086,-2.23446 -0.12112,-1.01037 -0.24376,-2.02232 -0.36186,-3.0327 4.20907,0.0126 8.32426,0.67254 12.38041,1.6782 -1.04773,-6.50066 -2.10605,-12.99661 -3.17043,-19.49413 -3.57619,-0.88467 -7.27653,-1.01352 -11.17067,0.12256 -0.0515,-0.49969 -0.10599,-0.9978 -0.15746,-1.49435 3.77453,-1.07166 7.41279,-1.32622 10.95113,-0.93652 -0.80699,-4.92618 -1.60943,-9.85392 -2.41188,-14.78324 -3.4051,-0.91138 -6.81172,-1.46449 -10.18654,-1.41107 -0.0424,-0.45726 -0.0818,-0.91452 -0.12264,-1.36864 0.59502,-0.2797 1.23849,-0.49183 1.62609,-0.50283 2.79948,-0.0833 5.56263,0.2797 8.29246,0.88467 -0.54051,-3.32026 -1.07497,-6.64523 -1.60943,-9.97178 -3.0599,-0.26398 -6.12889,-0.44783 -9.20544,-0.54682 -0.0454,-0.52483 -0.0848,-1.04966 -0.12869,-1.57764 0.47844,-0.16342 0.90237,-0.27341 1.12191,-0.27027 2.63142,0.0393 5.26133,0.19013 7.88972,0.39598 -1.01138,-6.3011 -2.01066,-12.6022 -2.97965,-18.90488 -2.48153,0.0801 -4.9782,0.29227 -7.48093,0.56726 -0.0636,-0.84696 -0.12869,-1.69392 -0.19229,-2.54087 2.4346,-0.29227 4.8586,-0.5154 7.272,-0.63168 -0.73886,-4.85232 -1.46561,-9.70464 -2.16661,-14.56325 -1.50346,0.30327 -3.00691,0.61125 -4.50733,0.97581 -0.70252,0.17127 -1.24456,0.13513 -1.63215,-0.009 -0.0363,-0.53112 -0.0757,-1.06223 -0.11204,-1.59335 0.28161,-0.21842 0.65255,-0.42112 1.18853,-0.54997 1.57915,-0.38655 3.16285,-0.70868 4.74655,-1.0308 -1.09314,-7.65089 -2.14844,-15.3065 -3.10683,-22.96996 -1.42321,0.0189 -2.84642,0.0361 -4.26812,0.0424 -0.0802,0 -0.13777,-0.009 -0.21045,-0.0126 -0.0318,-0.49655 -0.0651,-0.99781 -0.0969,-1.49436 0.6465,-0.4384 1.50346,-0.80452 2.08334,-0.80767 0.7328,-0.003 1.46863,-0.0157 2.20294,-0.0251 -0.79942,-6.50066 -1.54584,-13.00604 -2.22111,-19.52242 -1.41413,-0.0959 -1.0447,-0.95695 -0.16655,-1.67034 -0.5602,-5.506 -1.08406,-11.01829 -1.53676,-16.53529 -0.2589,-0.0896 -0.23771,-0.26713 -0.0409,-0.47926 -0.67375,-8.29514 -1.22184,-16.59971 -1.60792,-24.92314 -0.24528,0.003 -0.48904,0.003 -0.73432,0.003 -2.97662,0.0126 -2.14692,-3.37211 0.377,-3.3784 h 0.18774 c -0.19077,-4.61347 -0.33763,-9.22852 -0.42393,-13.84985 -0.41636,0.0251 -0.83576,0.0424 -1.25212,0.0707 -3.03567,0.19956 -1.60944,-2.4403 0.58291,-2.58487 0.21045,-0.0126 0.42091,-0.022 0.63287,-0.033 -0.0242,-1.59021 -0.0485,-3.17884 -0.0696,-4.76904 1.57007,-1.09838 3.03416,-1.67506 4.39075,-1.7222 0.0151,2.09618 0.0606,4.19235 0.0939,6.28539 2.62536,-0.0738 5.25224,-0.0487 7.8549,0.10056 -0.10599,-1.08108 -0.19683,-2.15746 -0.29827,-3.2354 0.99927,-0.25456 1.80475,-0.90824 1.54585,-1.9579 -1.02956,-4.13421 -1.82292,-9.98591 -3.11138,-15.7009 0.0621,0.0251 0.12567,0.0456 0.18774,0.0739 -0.22711,-3.83251 -0.41031,-7.67603 -0.539,-11.52426 1.48074,-0.033 2.91455,-0.0927 4.17121,-0.0613 0.0878,0 0.17563,0.006 0.26345,0.009 0.14535,4.17664 0.35126,8.34856 0.61773,12.50321 3.45052,0.27655 6.90862,0.74639 10.2789,1.5352 -0.1287,-4.36991 -0.22105,-8.74297 -0.23619,-13.12075 0,-0.0283 0.0121,-0.0519 0.0166,-0.077 1.47469,0.20584 2.93877,0.45726 4.39226,0.75267 0.0363,4.56634 0.13021,9.13424 0.28162,13.69744 3.54893,1.18165 6.93133,2.79542 10.03059,4.97488 0.97505,-5.32215 2.90244,-10.12105 6.64517,-12.57078 0.40274,0.22156 0.80548,0.43527 1.20519,0.6694 0.6253,0.35984 1.20972,0.78253 1.80172,1.19108 -3.76999,1.82591 -5.43696,7.71532 -6.08952,14.31026 1.05681,-0.52169 2.55572,-0.81867 3.11895,-0.29698 4.34987,4.02736 7.70501,8.57484 10.44696,13.45544 1.74116,-3.97393 3.52774,-7.8693 5.24467,-11.67511 0.7222,1.42993 1.4005,2.89757 2.047,4.38878 -1.71542,3.77751 -3.44144,7.61474 -5.07964,11.5494 3.25218,6.80079 5.57171,14.11384 7.8443,21.48032 1.58824,-1.47393 3.26429,-2.78286 5.03422,-3.87337 0.34066,-0.20899 1.32631,-0.41798 2.21354,-0.50284 0.14081,0.3897 0.27707,0.77939 0.42091,1.16594 -2.44368,1.62006 -4.71324,3.67381 -6.78144,6.08583 2.0576,6.6688 4.18484,13.33131 7.0146,19.66384 2.46337,-2.74671 5.21894,-5.13516 8.32275,-6.94221 0.40879,0.75739 0.80244,1.52892 1.22335,2.27374 -3.00994,2.05375 -5.68072,4.76275 -8.06233,7.8206 0.11053,0.22156 0.21349,0.44783 0.32552,0.67253 1.72602,3.38783 3.62313,6.66566 5.60048,9.89163 2.70258,-2.72157 5.8079,-4.98117 9.34321,-6.69394 0.42394,0.62854 0.84787,1.26494 1.27938,1.88719 -3.48838,1.80077 -6.48468,4.31492 -9.07674,7.3382 2.51484,3.93151 5.19774,7.74988 8.00933,11.4724 1.95161,-1.79919 4.0622,-3.47739 6.38324,-5.00003 0.91449,-0.60182 5.35823,-0.89566 3.42176,0.37084 -3.04779,2.00033 -5.70949,4.29607 -8.13651,6.7788 3.18556,4.10593 6.52556,8.09558 9.95489,12.01295 2.24231,-2.27531 4.52096,-4.52706 6.82988,-6.76151 0.63742,-0.61754 2.57238,-0.88938 3.48232,-0.56726 0.15898,0.17128 0.31341,0.34727 0.47239,0.5154 -0.002,0.19957 -0.12718,0.45098 -0.44665,0.75739 -2.82673,2.73415 -5.61107,5.49815 -8.33182,8.30929 3.14317,3.52296 6.36658,6.97364 9.60817,10.39132 2.97359,-3.14584 5.95325,-6.28539 8.94653,-9.40923 0.67375,0.66939 1.35205,1.33565 2.03186,1.99718 -3.00842,3.15527 -6.01685,6.31682 -9.01013,9.48623 3.41268,3.57481 6.83746,7.10406 10.25165,10.62231 1.89105,-3.17884 3.50806,-6.64995 4.7632,-10.50603 0.24225,-0.74011 1.4323,-1.2618 2.51787,-1.41736 0.52689,0.50598 1.06438,1.01352 1.6049,1.51635 z M 203.10073,249.14959 c 2.46942,0.99781 4.8919,2.25646 7.26745,3.82781 0.0621,-0.0613 0.11355,-0.12571 0.18926,-0.18385 -0.30433,-3.70367 -0.52538,-7.41519 -0.66316,-11.12514 -0.9811,0.36455 -2.14541,0.4604 -2.67987,-0.055 -1.62761,-1.57134 -3.34908,-2.89442 -5.13566,-4.04465 0.30432,3.86081 0.65255,7.72161 1.02198,11.58083 z m -1.31117,27.82385 c -2.6829,-0.82181 -5.42939,-1.45192 -8.20313,-1.93275 0.69646,4.81775 1.39747,9.64021 2.09091,14.45796 2.71469,0.12571 5.4097,0.38341 8.0714,0.86581 -0.69192,-4.45791 -1.3581,-8.92053 -1.95918,-13.39102 z m -1.0023,-61.08613 c 0.23468,5.77942 0.5708,11.55255 0.97808,17.32097 2.8237,1.35607 5.51569,3.09712 8.03507,5.27501 -0.0242,-1.04652 -0.0485,-2.09618 -0.0545,-3.1427 -0.0242,-3.53553 -0.17865,-8.73826 0.29827,-13.9677 -0.16049,-0.0613 -0.31644,-0.14142 -0.4527,-0.25456 -2.6829,-2.24546 -5.65801,-3.94251 -8.80421,-5.23102 z m -1.91225,35.71359 c -2.88881,-1.02138 -5.83818,-1.70334 -8.84509,-2.13546 1.00382,7.72788 2.09545,15.44634 3.20676,23.15851 2.74952,0.34727 5.47784,0.84696 8.16983,1.49121 -0.053,-0.40541 -0.11356,-0.81081 -0.16352,-1.21465 -0.89026,-7.08992 -1.67757,-14.19084 -2.36798,-21.29961 z m -1.41866,-16.54158 c -3.04022,-1.35607 -6.2273,-2.27688 -9.50673,-2.86613 0.49206,4.57262 1.04318,9.13895 1.61852,13.70057 3.02961,0.33784 6.00775,0.88153 8.92987,1.69706 -0.38154,-4.17507 -0.74037,-8.35171 -1.04166,-12.5315 z m -11.3024,-22.55197 c 0.40122,5.58928 0.90995,11.15656 1.48226,16.71756 3.26883,0.41484 6.4756,1.08109 9.56426,2.12132 -0.37548,-5.65999 -0.68132,-11.3247 -0.89026,-16.99255 -3.30215,-0.9381 -6.72542,-1.51164 -10.15626,-1.84633 z m -10.44998,32.78616 c 3.11894,0.003 6.20004,0.0456 9.2342,0.21842 -0.56323,-4.64019 -1.10375,-9.28352 -1.5837,-13.93628 -2.67079,-0.24513 -5.37791,-0.32527 -8.09261,-0.28285 0.0908,4.67476 0.24528,9.34009 0.44211,14.00071 z m 1.68968,26.84804 c 3.67309,-0.21842 7.39614,-0.22156 11.11465,0.0314 -1.0992,-7.73103 -2.16661,-15.4652 -3.13711,-23.21038 -3.11289,-0.22784 -6.27726,-0.28598 -9.49462,-0.28912 0.37094,7.83473 0.88723,15.65847 1.51708,23.46807 z m 1.617,17.50638 c 3.98802,-0.0864 7.99268,-0.25456 11.97161,-0.25142 -0.72372,-5.01102 -1.44895,-10.02048 -2.16509,-15.02836 -3.75939,-0.40541 -7.53695,-0.53112 -11.27363,-0.40541 0.43605,5.23259 0.93568,10.46203 1.46711,15.68519 z m 2.50425,22.10886 c 4.19695,-0.0676 8.3939,-0.14142 12.58631,-0.14771 -0.88875,-6.54623 -1.80324,-13.08618 -2.74498,-19.6167 -4.01224,-0.077 -8.0593,0.10371 -12.08364,0.2247 0.6798,6.52109 1.43532,13.03433 2.24231,19.53971 z m 3.31577,24.50987 c 4.03495,-0.67882 8.08352,-1.17851 12.14421,-1.53992 -0.40274,-3.73509 -0.82667,-7.4639 -1.293,-11.18956 -0.40274,-3.21026 -0.84333,-6.41581 -1.27332,-9.61979 -4.19695,-0.0283 -8.39996,0.0393 -12.60145,0.11628 0.93417,7.41833 1.96221,14.82881 3.02356,22.23299 z m 2.59811,17.46396 c 3.86386,-0.003 7.70047,0.23884 11.51285,0.74639 -0.55566,-5.8187 -1.11131,-11.63426 -1.72299,-17.44824 -4.03646,0.32527 -8.0593,0.80138 -12.06851,1.45821 0.73583,5.08174 1.50043,10.16347 2.27865,15.24364 z m 13.78696,23.13966 c -0.72372,-6.46295 -1.36871,-12.94162 -1.99098,-19.42971 -3.76545,-0.61754 -7.55966,-0.94595 -11.37961,-1.01823 0.99473,6.45038 2.02428,12.89919 3.06141,19.34485 3.43841,0.33313 6.87531,0.73225 10.30918,1.10309 z m -8.2213,11.76153 c 3.45355,1.10152 6.84502,2.46073 10.15777,3.76338 -0.6359,-4.51134 -1.18853,-9.04153 -1.70937,-13.57801 -3.40056,-0.32213 -6.80112,-0.68982 -10.20622,-1.02766 0.58291,3.61095 1.16734,7.22662 1.75782,10.84229 z m 13.03295,21.18177 c -0.93114,-4.80675 -1.73359,-9.64022 -2.45276,-14.49254 -3.34908,-1.44878 -6.74359,-2.89128 -10.15626,-4.09336 0.77519,4.72976 1.54585,9.45951 2.31953,14.18455 3.4914,0.94595 6.9071,2.47488 10.28949,4.40135 z m 5.19623,21.65474 c -1.66092,-5.693 -3.07201,-11.43784 -4.29385,-17.22354 -3.50957,-2.12446 -7.04791,-4.24421 -10.69375,-5.78885 1.04772,6.39539 2.08788,12.79234 3.11592,19.18458 2.85399,0.85953 5.6898,1.80077 8.51957,2.72158 1.08254,0.35512 2.20748,0.7291 3.35211,1.10623 z m 6.84503,-11.18957 c -1.94707,-0.80767 -3.88052,-1.80076 -5.80791,-2.88499 1.22033,5.28758 2.61326,10.53588 4.21512,15.74176 3.71246,1.09837 7.56723,2.01289 11.34631,2.3083 -1.93799,-4.47519 -3.56257,-9.09024 -4.9131,-13.82314 -1.59278,-0.24513 -3.20828,-0.66939 -4.84042,-1.34193 z m -1.57008,-19.80998 c -2.63747,-0.84067 -5.33854,-1.91547 -8.08049,-3.06884 0.83576,5.22945 1.76993,10.44161 2.86913,15.61605 3.34908,2.0899 6.74964,4.15779 10.38336,5.48086 0.14384,0.0519 0.28313,0.0896 0.42394,0.13828 -1.49286,-5.72913 -2.61174,-11.60754 -3.5338,-17.54881 -0.70555,-0.19956 -1.39747,-0.4054 -2.06214,-0.61754 z m -10.56656,-21.26504 c 0.60562,5.11631 1.26423,10.22004 2.03488,15.29864 2.95695,1.33564 6.57553,2.94313 10.22894,4.22535 -0.91752,-6.31839 -1.60641,-12.70591 -2.21506,-19.08558 -3.35514,-0.0126 -6.70271,-0.18071 -10.04876,-0.43841 z m 8.38633,-17.87408 c -0.28616,0.0251 -0.5496,0.009 -0.75097,-0.0676 -3.26127,-1.22723 -6.54525,-2.20303 -9.85042,-2.95257 0.60865,6.34668 1.25363,12.68706 1.98492,19.01331 3.37482,0.31584 6.74964,0.55625 10.12598,0.64111 -0.52083,-5.57671 -0.99625,-11.14086 -1.50951,-16.63429 z m -3.05536,-24.99228 c -3.2113,0.0676 -6.41806,0.19328 -9.61877,0.38027 0.61925,6.15025 1.19156,12.31308 1.77599,18.4759 3.5459,0.6694 7.0691,1.57764 10.57262,2.74043 -0.47844,-4.87746 -1.0129,-9.68578 -1.67303,-14.3904 -0.33763,-2.40573 -0.69192,-4.80832 -1.05681,-7.2062 z m -3.55348,-21.86058 c -2.88578,-0.24827 -5.7761,-0.40855 -8.67097,-0.48869 0.47844,3.72567 0.94325,7.45762 1.37173,11.19585 0.34975,3.05627 0.67678,6.12197 0.99322,9.18924 3.15377,-0.20899 6.31511,-0.34727 9.48402,-0.43526 -1.00685,-6.49752 -2.08485,-12.97933 -3.178,-19.46114 z m -3.46869,-20.9162 c -2.68441,-0.69611 -5.41576,-1.11723 -8.17588,-1.34194 0.92509,6.4661 1.82443,12.94162 2.6723,19.42657 2.85399,0.0424 5.70495,0.14457 8.55137,0.32841 -1.03561,-6.13297 -2.06971,-12.26908 -3.04779,-18.41304 z m 9.32807,-15.22793 c -1.02501,-7.15749 -1.94707,-14.35112 -2.63445,-21.56674 -0.81001,0.32841 -1.7457,0.38969 -2.36343,-0.0613 -1.65334,-1.20993 -3.33243,-2.21874 -5.03271,-3.09398 0.61925,6.03397 1.3142,12.05538 2.09091,18.06735 0.16049,1.25551 0.34671,2.50787 0.51932,3.76338 2.53301,0.80767 5.01302,1.76776 7.42036,2.89128 z m 59.89286,50.55024 c -2.2196,2.36959 -4.39075,4.77218 -6.49225,7.23606 3.18102,3.37211 6.40444,6.70337 9.63088,10.02362 2.17569,-2.29888 4.34684,-4.59776 6.51799,-6.89978 -3.25521,-3.4114 -6.49074,-6.84794 -9.65662,-10.3599 z m -11.9928,-14.09655 c -2.23929,2.65243 -4.25903,5.48086 -6.16371,8.4067 3.07353,3.61253 6.25758,7.14492 9.49765,10.6286 2.14844,-2.44973 4.35744,-4.84918 6.6164,-7.20934 -3.41872,-3.8608 -6.75872,-7.79074 -9.95034,-11.82596 z m -9.56578,-13.14118 c -2.13027,3.13641 -3.94108,6.64523 -5.50358,10.34889 2.17721,2.94628 4.44223,5.83441 6.78447,8.66441 1.9834,-2.85985 4.11519,-5.60342 6.48771,-8.16315 -2.71167,-3.52767 -5.3113,-7.1402 -7.7686,-10.85015 z m -7.55512,-12.71849 c -2.24534,3.44911 -4.19544,7.11349 -5.89874,10.63959 1.24303,2.44031 2.60719,4.81776 4.15758,7.10407 0.4633,0.68196 0.94326,1.34978 1.41715,2.02861 1.75025,-3.54811 3.76394,-6.86836 6.11072,-9.83664 -1.6912,-2.66658 -3.33092,-5.37086 -4.85405,-8.15215 -0.32401,-0.58611 -0.62379,-1.18479 -0.93266,-1.78348 z m -26.47622,-25.1997 c -0.63136,-0.9978 -1.28695,-1.97989 -1.98038,-2.93999 0.35732,3.32026 0.75854,6.63895 1.19156,9.94977 0.1408,-2.34759 0.40425,-4.68732 0.78882,-7.00978 z m 7.70804,-25.10227 c -2.94635,-5.92398 -6.59673,-11.42841 -11.51588,-16.19588 -0.51326,7.66975 0.13475,15.76847 0.3013,19.23015 0.18622,3.87023 0.4633,7.73417 0.79639,11.59183 1.43683,1.46764 2.71772,3.02013 3.92442,4.61662 1.58218,-6.53995 3.89717,-12.97462 6.49377,-19.24272 z m 2.02731,34.55236 c 1.98038,-3.84823 4.29082,-7.41833 6.91013,-10.50603 -2.05002,-6.56823 -4.11216,-13.11447 -6.7557,-19.31029 -2.37857,6.27911 -4.36652,12.70592 -5.46875,19.21287 2.04851,3.38153 3.75788,6.94692 5.31432,10.60345 z m 8.88597,22.28642 c 1.83806,-3.4224 3.87749,-6.82594 6.19399,-9.9592 -2.82977,-6.18797 -5.00092,-12.74206 -7.07517,-19.34172 -2.38009,3.50411 -4.43617,7.44819 -6.14251,11.60126 2.31348,5.8957 4.42406,11.9171 7.02369,17.69966 z m 0.1075,34.27894 c 1.42169,-5.52171 3.12349,-11.07957 5.28555,-16.3153 -1.16733,-1.60435 -2.29681,-3.22912 -3.33394,-4.8916 -0.84181,-1.34665 -1.61549,-2.73415 -2.36646,-4.13422 -2.33013,5.14616 -4.66328,10.79044 -6.14857,16.55415 1.83958,3.10655 4.09703,6.02768 6.56342,8.78697 z m 4.70113,10.32689 c -0.80851,-0.73067 -1.62004,-1.48806 -2.42854,-2.24702 -0.66921,3.11127 -1.27937,6.11097 -1.8638,8.89697 1.4974,-2.17475 2.92061,-4.39978 4.29234,-6.64995 z m 9.47493,-15.79518 c -2.16509,-2.41045 -4.27416,-4.86803 -6.27271,-7.38533 -1.89408,5.34572 -3.36574,10.93815 -4.61029,16.33415 1.14917,1.14709 2.31801,2.2706 3.502,3.36112 2.44368,-4.14365 4.82074,-8.303 7.381,-12.30994 z m 11.56584,12.40736 c -3.0387,-3.25897 -6.1849,-6.54623 -9.29324,-9.91677 -2.42703,3.96765 -4.73596,8.05001 -7.14481,12.07737 2.28924,2.02233 4.56789,3.94094 6.71633,5.75742 0.71009,0.59868 1.43532,1.18794 2.15601,1.78034 2.39371,-3.33912 4.92521,-6.56195 7.56571,-9.69836 z m 4.63452,19.50356 c 2.30893,-2.38844 4.61483,-4.77532 6.90407,-7.1842 -3.12349,-3.31083 -6.24243,-6.62637 -9.33867,-9.96862 -2.4997,3.06569 -4.88736,6.22724 -7.14329,9.49879 3.16588,2.55658 6.38778,5.08488 9.57789,7.65403 z m 19.58123,6.3561 c -3.56105,-3.84194 -7.14027,-7.66346 -10.73312,-11.47555 -2.209,2.31146 -4.41497,4.62448 -6.64517,6.91393 3.71246,3.04527 7.3265,6.19268 10.73614,9.54437 2.32256,-1.55407 4.54973,-3.20241 6.64215,-4.98275 z m 9.3205,-10.07548 c -3.58376,-3.69581 -7.19023,-7.39947 -10.78762,-11.15028 -2.16509,2.29574 -4.33019,4.58834 -6.50285,6.87465 3.72608,3.83094 7.43551,7.65403 11.07377,11.5054 2.26654,-2.21245 4.34836,-4.60876 6.2167,-7.22977 z m -15.03605,22.14657 c 0.0212,0.0251 0.0424,0.0456 0.0636,0.0676 1.04167,1.20051 4.68599,-0.16342 4.24238,-1.51949 -1.40656,0.55468 -2.84339,1.04337 -4.30597,1.45192 z M 165.63704,212.5482 c 0.81001,0.21842 1.93344,0.13199 2.61325,-0.36769 2.39523,-1.76777 5.04179,-2.82686 7.80039,-2.38217 -0.47238,0.98838 -0.0469,2.21875 1.64729,2.28003 -0.32401,-1.72848 -0.68889,-3.48682 -1.11131,-5.21373 -3.91231,-0.18071 -7.81857,1.28222 -11.1192,3.71309 0.056,0.65682 0.11204,1.31365 0.16958,1.97047 z m 72.03252,7.90859 c 0.14838,-0.32841 -0.18774,-0.50283 -0.72675,-0.55311 0.17412,0.34412 0.33915,0.68982 0.50721,1.03394 0.0727,-0.15556 0.14838,-0.32526 0.21954,-0.48083 z m -15.20108,-17.7358 c 0.22559,0.14771 0.45422,0.29542 0.67829,0.4447 -0.162,-0.19014 -0.3997,-0.3347 -0.67829,-0.4447 z m 77.6224,122.7898 c 0.6253,-0.65368 -0.38154,-0.82181 -1.56401,-0.70239 0.38759,0.37398 0.78276,0.74639 1.16884,1.12037 0.13324,-0.13985 0.26193,-0.2797 0.39517,-0.41798 z M 184.80947,193.5019 c -0.66315,-0.57354 -1.99703,-0.4934 -2.94786,-0.022 0.51175,-0.009 1.00988,-0.0189 1.46409,-0.009 0.4951,0.0126 0.99019,0.022 1.48377,0.0314 z m 47.08247,161.13381 c 0.94022,0.12571 2.73437,-0.21213 3.42781,-0.73067 -0.70403,-0.69297 -1.4005,-1.39693 -2.06819,-2.12446 -0.50873,0.63796 -1.03562,1.27122 -1.57159,1.89661 0.0696,0.32056 0.14232,0.63954 0.21197,0.95852 z m 8.48171,94.46469 c -1.30511,0.68511 -2.63747,1.28537 -4.00012,1.7772 0.82667,0.95066 4.6118,-0.87838 4.3423,-1.26494 -0.1181,-0.16813 -0.22559,-0.34098 -0.34218,-0.51226 z m 13.29186,-79.48503 c -0.91751,0.89252 1.59733,0.84067 3.11895,0.35355 -0.69495,-0.4604 -1.3899,-0.92395 -2.08939,-1.38435 -0.34672,0.34098 -0.68132,0.69296 -1.02956,1.0308 z m 13.15863,7.41204 c -0.36035,-0.2797 -0.72826,-0.54997 -1.09466,-0.82181 0.0257,0.40384 0.47692,0.71496 1.09466,0.82181 z m -22.26716,-13.78385 c -0.75703,1.52577 1.8744,1.47549 3.2976,0.74324 -0.9054,-0.62539 -1.80172,-1.26493 -2.69198,-1.90918 -0.19985,0.38969 -0.40879,0.7731 -0.60562,1.16594 z"
   class="svg-primary-stroke"
   fill="#e25555"
   id="color_x5F_2" />
<path
   class="svg-default-stroke"
   style="stroke-width:1.54243"
   inkscape:connector-curvature="0"
   fill="#000000"
   d="m 175.23915,123.04268 c 3.73063,9.11539 14.97397,35.76387 -2.61779,36.18028 -2.92515,0.0707 0.5935,-1.97047 1.85925,-1.99719 9.01315,-0.21527 -1.99098,-28.96621 -3.62767,-32.96215 -0.39516,-0.96324 3.88809,-2.4403 4.38621,-1.22094 z m -14.22906,41.7837 c -2.08182,2.44659 -5.51417,4.22535 -8.6634,3.44911 -3.20979,-0.79825 -3.42933,-4.24735 -2.6617,-7.03964 0.0545,-0.19642 0.22559,-0.37398 0.46027,-0.53426 0.0545,-1.14551 2.16964,-2.42458 3.48383,-1.88404 2.67382,1.09523 5.40062,2.04746 8.07444,3.14269 1.79869,0.73697 0.72826,2.2596 -0.69344,2.86614 z m -3.26581,-0.41012 c -1.35961,-0.53426 -2.72075,-1.06852 -4.08642,-1.59335 -0.0212,1.21465 0.2589,2.42459 1.22032,3.1427 0.25437,0.19013 0.51175,0.37398 0.82213,0.45412 0.056,0.0126 0.0772,0.0126 0.12113,0.0188 0.5708,-0.37083 1.07043,-1.02452 1.43381,-1.53835 0.13172,-0.18699 0.30129,-0.34569 0.48903,-0.48397 z m 20.17323,-42.24567 c 0.49055,2.50787 1.11737,4.94345 2.01974,7.3319 0.48601,1.28536 4.79955,-0.12885 4.38621,-1.22093 -0.90086,-2.38531 -1.52768,-4.8209 -2.01974,-7.33191 -0.23468,-1.20051 -4.6436,-0.0927 -4.38621,1.22094 z m -23.26795,9.77535 c -0.90086,-2.38531 -1.52768,-4.8209 -2.01823,-7.33191 -0.23468,-1.20051 -4.64359,-0.0927 -4.38621,1.22094 0.49056,2.50787 1.11737,4.94346 2.01824,7.3319 0.48449,1.28537 4.79803,-0.1257 4.3862,-1.22093 z m -2.2741,-17.6808 c 0.58745,-0.8721 -0.49358,-1.33251 -1.18399,-1.31679 -4.6436,0.10056 -9.22815,1.91861 -11.98221,5.95069 -0.60864,0.88624 0.51175,1.30422 1.18399,1.31993 0.98716,0.0189 2.2953,-0.35984 2.8979,-1.23979 1.49285,-2.18574 3.59587,-3.41611 6.18641,-3.47425 0.99625,-0.022 2.28773,-0.32841 2.8979,-1.23979 z m 20.97264,-0.38027 c -0.14686,1.18794 1.18248,1.45193 2.01672,1.45193 1.48225,0 3.0493,-0.0519 4.48311,0.39912 1.05378,0.3347 2.36343,0.0157 3.10229,-0.86267 0.65407,-0.7731 0.42545,-1.84476 -0.55717,-2.15746 -2.14996,-0.67882 -4.39378,-0.64425 -6.62095,-0.64425 -0.94628,-0.002 -2.29076,0.74481 -2.424,1.81333 z M 148.20879,472.6439 c -4.90402,20.55951 -6.38022,42.3101 -9.25389,63.24045 -1.73207,12.6132 -3.52017,25.22798 -5.75642,37.75476 -0.83273,4.66533 -1.73056,9.33538 -2.93575,13.91742 -0.10749,0.40856 -0.23316,0.81082 -0.35126,1.21151 -0.30129,1.03081 -0.6253,2.05375 -1.0023,3.05313 -0.56171,1.49435 -1.53071,1.72534 0.14686,1.47393 -2.47396,0.37083 -3.30669,3.96765 -0.34066,3.52296 3.37634,-0.50912 4.86919,-4.36049 5.77459,-8.05002 0.43302,-1.76462 0.73281,-3.49624 1.03713,-4.79732 2.92818,-12.55192 4.63451,-25.45111 6.46349,-38.21203 3.47777,-24.2726 4.98577,-49.55558 10.67709,-73.41492 0.55263,-2.31302 -3.9547,-1.81804 -4.45888,0.30013 z m 88.04362,-21.28704 c -1.24607,0.15399 -2.78586,0.63482 -2.82068,1.38436 -1.30814,28.06269 -9.97457,55.34442 -19.33141,81.4885 -6.53768,18.27006 -14.8044,36.07342 -20.88937,54.54304 -0.73281,2.22503 -1.45047,4.45948 -2.11362,6.70965 -0.22862,0.77625 3.99407,0.25456 4.31807,-0.84067 6.15462,-20.88792 15.61442,-40.81575 23.00299,-61.24955 9.47342,-26.20064 18.08989,-53.72122 19.40106,-81.87348 0.009,-0.22313 -0.71009,-0.27027 -1.56704,-0.16185 z M 460.65455,129.75705 c -3.62313,6.67194 -8.65281,16.97841 -0.64196,22.3697 1.46863,0.98838 5.41122,-1.13608 3.42176,-2.47644 -6.81626,-4.58834 -1.58824,-14.06513 1.37778,-19.52871 1.14917,-2.11974 -3.30063,-1.94218 -4.15758,-0.36455 z m 21.32844,25.56582 c 1.14765,-2.2596 -3.30517,-2.21874 -4.18635,-0.48554 -1.53373,3.02327 -3.62615,3.81208 -6.78749,3.84823 -2.47851,0.0283 -3.39148,3.29668 -0.4088,3.26211 4.92218,-0.0519 9.03435,-1.99089 11.38264,-6.6248 z m -0.21348,-24.44231 c 1.02804,-0.50597 1.94102,-0.91452 3.0599,-0.47611 1.37476,0.54368 2.30893,1.99718 2.963,3.2904 0.79185,1.56192 5.04482,0.0738 4.38621,-1.22094 -1.04016,-2.04747 -2.4028,-3.89223 -4.63754,-4.55691 -2.5209,-0.75267 -5.20077,-0.0487 -7.5097,1.08266 -0.50721,0.25142 -1.8744,1.06852 -1.16733,1.83219 0.66164,0.71811 2.16055,0.41327 2.90546,0.0487 z m -25.92813,-4.69518 c -1.30512,-2.4403 -4.28477,-3.43811 -6.83595,-3.49625 -1.05378,-0.0251 -2.21657,0.25456 -3.1038,0.86267 -0.68284,0.46669 -0.59048,1.04966 0.27707,1.06852 1.96675,0.0424 4.2772,0.91766 5.27496,2.78599 0.63135,1.1848 4.7844,-0.47926 4.38772,-1.22093 z m 24.3187,330.43392 c -0.0106,-2.44659 -4.4604,-1.79605 -4.4498,0.31898 0.11658,26.18808 1.24001,52.65586 2.43156,78.8125 0.81305,17.82537 4.18181,35.3836 5.07662,53.18068 0.12264,2.44659 4.5573,1.77405 4.4498,-0.31898 -0.89481,-17.79708 -4.12125,-35.37103 -5.0751,-53.18068 -1.39747,-26.10794 -2.3165,-52.66371 -2.43308,-78.8125 z m 81.41055,-55.25171 c -0.94779,0.45411 -3.92139,1.66719 -7.79131,3.08455 2.98874,6.18482 3.96531,13.70686 4.77381,20.41495 1.51556,12.58334 2.02731,25.38354 1.26272,38.05017 -1.02502,16.98155 -3.98499,33.72269 -6.97524,50.42768 -0.47238,2.62729 -3.08261,16.33573 -5.70949,31.70979 -3.46263,20.27667 -6.94344,43.4399 -5.55354,47.86481 0.14384,0.45412 0.33612,0.72439 0.58897,0.75425 2.95391,0.39284 0.1514,3.00756 -1.6594,2.77186 -0.96143,-0.12885 -1.68968,-0.6254 -2.23626,-1.3875 -3.04476,-4.22378 -0.39365,-16.66257 -0.003,-19.83826 2.08334,-17.04284 5.23862,-33.94111 8.27581,-50.82052 2.91758,-16.21316 6.15159,-32.46089 7.87307,-48.87205 1.55493,-14.84137 1.86834,-29.91059 0.27859,-44.77082 -0.81608,-7.62104 -1.46106,-16.727 -4.73444,-23.93005 -0.13476,-0.29542 -0.2801,-0.58297 -0.42091,-0.8721 -1.64275,0.56411 -3.35665,1.13294 -5.08873,1.67505 -7.78374,2.44345 -15.87029,4.37935 -18.89385,3.20084 -0.28313,-0.11 -0.50418,-0.2577 -0.69344,-0.42584 -1.58369,0.51541 -3.17799,0.93338 -4.78137,1.24608 -7.2735,1.42364 -14.72415,0.96324 -22.20508,0.22471 -11.13131,11.68453 -22.99845,22.73896 -35.9663,32.13562 -0.0575,0.14142 -0.20137,0.30327 -0.47087,0.49655 -7.06305,5.05502 -16.25032,14.52239 -25.8812,18.39262 -1.45652,0.58297 -2.92363,1.03394 -4.39226,1.32936 -3.178,0.63168 -6.37113,0.50597 -9.52793,-0.72754 -5.02817,1.86676 -9.43103,2.0679 -11.40384,-1.59963 -0.19531,-0.36141 -0.18623,-0.70868 -0.0469,-1.02452 -2.65565,0.53426 -5.24468,0.5154 -7.66565,-0.33155 6.4862,23.83734 12.21689,47.90724 18.14137,71.89543 3.1674,12.82848 6.31814,25.66324 9.5143,38.48544 1.37476,5.51542 2.16358,12.01452 4.4604,17.22982 0.51932,1.17851 -1.85017,2.2596 -3.34606,1.9579 -0.47389,-0.099 -0.85846,-0.32527 -1.04166,-0.74011 -2.29833,-5.21058 -3.08867,-11.71753 -4.46191,-17.22982 -3.19011,-12.82219 -6.34237,-25.65696 -9.51279,-38.4823 -6.28786,-25.4574 -12.34709,-51.01693 -19.33596,-76.27791 -0.0257,-0.0959 -0.0303,-0.18071 -0.0303,-0.27342 -2.13935,0.41798 -4.3317,0.56412 -6.6058,0.29227 -0.91601,-0.10999 -1.83201,-0.92395 -1.346,-1.94532 1.48832,-3.13956 3.54137,-6.25711 5.97597,-9.22224 0.28312,-16.8527 3.62161,-33.75254 11.11465,-48.79191 0.0908,-0.18385 0.27101,-0.34412 0.49661,-0.48555 -0.21045,-0.2797 -0.41637,-0.55782 -0.61016,-0.85009 -1.35205,0.42426 -3.12198,0.44154 -2.90698,-0.18699 1.87136,-5.52486 4.10156,-10.97744 6.39989,-16.41901 -0.10598,0.19013 -0.21802,0.38655 -0.32249,0.57668 -8.58922,15.48877 -18.25189,30.33486 -26.79266,45.84563 0.71766,1.96733 0.60865,3.85137 -0.46935,5.39601 -2.639,12.02081 -0.99928,29.08878 -16.15039,31.17867 -15.48724,2.13546 -35.82701,-11.73325 -26.24306,-29.38576 0.16654,-0.30327 0.59956,-0.5374 1.12797,-0.70868 -11.97767,-17.1434 -35.87849,-22.76882 -51.2022,-36.32798 -6.18036,1.47392 -12.36526,0.40541 -17.40554,-5.45415 -4.17273,0.12571 -8.46355,-1.01352 -11.24789,-4.45005 -3.43841,-4.24736 -3.92594,-9.82721 -3.09775,-15.12736 0.0242,-0.15085 0.0742,-0.29228 0.13929,-0.42584 -0.32703,-0.21842 -0.65407,-0.43212 -0.9811,-0.65054 -0.69495,-0.46355 -1.3899,-0.92709 -2.08939,-1.3875 -2.29076,-1.5132 -4.58152,-3.03584 -6.84049,-4.59776 -0.9054,-0.6254 -1.80172,-1.26493 -2.69198,-1.90919 -3.48232,-2.52044 -6.81929,-5.1933 -9.84285,-8.16943 -0.70404,-0.69611 -1.4005,-1.39693 -2.0682,-2.12761 -0.93265,-1.01823 -1.81383,-2.08675 -2.66473,-3.18197 0.35732,1.69391 0.7222,3.38782 1.09315,5.07859 0.0696,0.31898 0.14232,0.63797 0.21348,0.95695 6.0774,27.58815 13.86417,54.85574 22.04459,81.38165 0.93417,0.12571 1.50648,0.6254 0.63136,1.59021 -0.0348,0.0393 -0.0727,0.077 -0.1075,0.11628 0.17412,0.55782 0.34521,1.12351 0.51781,1.68448 0.21196,0.68196 -2.36495,1.63263 -3.67006,1.55878 -3.34909,3.24169 -7.00704,6.07954 -10.936,8.13329 -1.30511,0.68197 -2.63748,1.28536 -4.00012,1.77719 -0.0182,0.006 -0.0348,0.0157 -0.0545,0.0251 -5.37034,1.92804 -11.1737,2.27059 -17.31469,0.13827 -6.71028,-2.33502 -12.88458,-5.94755 -19.17547,-9.02267 -0.99322,-0.48555 -1.99098,-0.95067 -2.99328,-1.40636 -5.78368,-2.60215 -11.75207,-4.51448 -18.39724,-4.35263 -0.41788,0.40541 -1.0023,0.74953 -1.64729,0.8721 -25.75402,4.8366 -51.63522,2.26117 -77.425574,-0.80139 -0.51327,8.39414 -2.476992,16.27759 -9.499164,21.67045 -0.448159,0.34413 -0.923572,0.63168 -1.414124,0.88467 -1.695738,44.51941 11.880772,88.46214 27.732892,129.27632 0.0833,0.21213 0.0954,0.41798 0.0651,0.61125 -0.23619,1.57135 -3.75485,2.40574 -4.45283,0.61126 -15.886994,-40.9037 -29.351455,-84.84014 -27.808637,-129.43969 -2.885782,0.003 -5.80336,-1.18165 -7.874583,-3.39411 -11.019268,-11.77568 -6.949497,-35.82515 -5.29918,-50.38997 0.327035,-2.89442 0.676781,-5.78884 1.041667,-8.68484 -3.928964,8.88754 -7.544519,17.96365 -10.5378,27.1796 -2.64959,8.15686 -2.192346,14.40925 0.07873,22.64626 1.742674,6.32467 3.043244,12.38693 2.581458,18.98816 -0.05148,0.73382 -0.678295,1.28222 -1.444405,1.58392 4.643596,5.53271 7.762543,14.43125 4.293851,20.51079 -7.880639,13.80429 -34.076762,17.17169 -41.904409,1.86362 -0.192284,-0.37712 -0.205911,-0.7401 -0.09993,-1.06851 -2.652619,-2.00033 -4.73444,-4.60091 -5.568682,-7.4419 -2.183263,-7.44819 0.349746,-14.28355 2.699554,-21.37661 3.389962,-10.22948 3.509572,-20.06768 3.365737,-30.77327 -0.228622,-17.01769 5.09327,-34.44394 2.451249,-51.28407 -0.01968,-0.1257 0.01514,-0.24827 0.07722,-0.36769 -3.347568,-3.15527 -4.04706,-7.27691 1.46106,-12.19994 -2.619309,-6.00883 -2.414912,-11.57612 2.699554,-16.10003 0.09387,-0.0833 0.222566,-0.15713 0.367915,-0.2247 5.502063,-12.13237 7.67927,-26.35307 10.038162,-39.2994 3.208276,-17.61009 5.7322,-35.34588 8.840548,-52.97483 2.45882,-13.93314 4.714757,-29.75975 12.854299,-41.56057 4.646624,-6.73636 10.516603,-11.17071 17.166318,-14.20969 0.764596,-0.35355 1.541304,-0.68511 2.327097,-1.00095 4.698102,-1.87776 9.741409,-3.14898 14.992143,-4.09336 0.86604,-0.16028 1.36719,-0.006 1.601864,0.28913 3.25219,-5.0786 7.83674,-8.51356 14.6969,-8.47899 0.0848,-4.66219 -0.24073,-9.32438 -1.03258,-13.90328 C 102.84023,168.20164 94.141998,159.82321 87.0093,149.29361 81.458787,141.10218 75.805318,131.3394 74.180741,121.30949 71.550833,105.05547 79.057501,93.058233 94.667374,92.288272 95.266938,74.236634 114.17745,61.742851 130.55192,64.973541 c 0.27253,-0.318983 0.67375,-0.614397 1.26574,-0.80453 12.31681,-4.008507 20.05665,-17.73894 33.87237,-17.907074 11.67939,-0.141422 25.1923,7.170058 28.60498,19.574274 2.90243,10.548455 -0.44968,23.07995 -8.8027,30.000164 2.11513,14.930945 5.67769,29.704755 6.86471,44.764545 0.80396,10.1949 1.55493,21.08748 -3.85326,30.14158 -5.11144,8.55599 -15.12084,11.51169 -24.89858,12.54564 -0.0348,2.1386 -0.0893,4.27878 -0.12264,6.4111 4.74504,-1.25865 8.2425,-0.0927 10.87089,2.5283 0.15443,0.0361 0.29827,0.0864 0.41637,0.16499 1.86077,1.23036 4.70264,1.1298 7.0903,1.08266 0.51175,-0.0126 1.00987,-0.0189 1.46409,-0.009 0.49358,0.009 0.98867,0.022 1.48225,0.0314 3.85932,0.077 7.73378,0.17442 11.56585,0.65369 9.06462,1.13608 18.27157,3.48996 26.09165,8.56227 0.22559,0.1477 0.45421,0.29541 0.67829,0.44469 0.35732,0.24199 0.72978,0.45726 1.08104,0.71182 5.4415,3.93465 9.48553,9.66379 12.71652,16.02617 0.17411,0.34413 0.33914,0.68982 0.5072,1.03395 3.73063,7.62889 6.36508,16.0576 8.84055,23.3895 6.42564,19.03373 14.34413,36.53383 26.58978,52.43429 7.78525,10.11005 16.54707,19.25215 25.645,28.04541 0.3876,0.37398 0.78125,0.74639 1.16734,1.12037 1.54584,1.48492 3.09775,2.96513 4.65873,4.43434 0.0545,-0.0581 0.0984,-0.11313 0.16958,-0.17756 6.63154,-5.95383 16.1837,1.21151 19.9446,7.33505 0.009,0.0189 0.0106,0.033 0.0197,0.0487 6.18188,4.72662 5.61108,12.65092 2.43611,20.64279 10.63016,10.25304 16.99523,23.47279 25.19534,35.76387 2.28773,3.42868 4.68447,6.62009 7.28259,9.61507 1.88045,-3.97708 3.64886,-12.67763 4.26054,-15.00479 2.43459,-9.23481 4.56032,-18.55919 6.56644,-27.90085 2.65867,-12.36493 5.16746,-24.76443 7.4779,-37.20322 -0.009,-0.11628 -0.002,-0.24198 0.0469,-0.38655 4.85707,-14.24426 8.76635,-28.80122 11.76569,-43.5876 1.83503,-9.04468 3.45961,-18.13178 4.87222,-27.25974 1.0129,-6.5368 1.64577,-13.2826 2.78283,-19.87126 0.50115,-2.91484 1.09466,-5.80612 1.87591,-8.62669 1.48225,-5.3363 3.5989,-10.11319 6.73147,-14.02585 2.51787,-3.14898 5.68981,-5.7417 9.72475,-7.61475 0.85847,-0.39912 1.72754,-0.78253 2.60417,-1.15651 0.002,-0.0581 0.003,-0.12256 0.005,-0.18385 -4.81166,-6.05754 -1.36568,-15.94132 0.87209,-22.47184 3.10835,-9.06824 8.28943,-17.73579 10.24559,-27.18273 0.10295,-0.50912 0.53597,-0.92396 1.08557,-1.2178 -13.33879,-17.59123 -2.01974,-48.06437 8.15468,-66.042157 -0.30281,-0.296985 -0.38154,-0.740105 -0.0485,-1.335645 9.6536,-17.30682 35.08512,-26.98632 52.82073,-18.042211 0.32854,0.16342 0.55565,0.356696 0.70857,0.560971 12.43491,0.818672 23.7479,5.956978 31.86019,15.213786 2.00309,1.851047 3.68974,4.296063 5.11901,7.138631 0.27859,0.479261 0.56777,0.942808 0.83273,1.436211 4.3317,8.068869 7.14329,16.981554 8.19707,26.162934 0.89329,7.78603 0.84787,15.18864 3.96682,22.50798 9.69144,22.73268 43.98926,50.16369 20.76068,75.01927 9.8383,14.94037 8.79058,34.63092 4.81922,52.01788 -3.09472,13.54973 -5.6141,25.59882 -5.57474,39.64824 0.0333,11.71753 -0.59653,22.84424 -4.82074,33.86096 0.22106,4.83661 2.27411,11.47555 0.52689,16.08431 -0.61622,1.6232 -1.45651,2.5503 -2.44822,3.22283 2.13633,6.53052 6.39233,11.56984 10.30615,17.01141 2.39372,3.33283 5.7216,7.58961 6.01533,11.96267 0.48147,7.20463 -3.96227,12.17637 -9.93824,15.05194 z m -9.5688,-44.9154 c 1.39141,-1.47549 1.8426,-3.3674 1.56098,-6.79765 -0.29069,-3.52924 -0.72977,-7.03178 -0.85089,-10.57359 -9.66571,-12.67763 -17.84764,-24.78329 -31.36207,-33.08158 -0.40274,0.34727 -0.82516,0.67254 -1.293,0.94909 -1.95313,1.15023 -4.31807,1.81648 -6.13948,3.15213 -3.38845,2.48273 -0.87361,7.06792 0.4633,9.88534 0.33612,0.70868 -0.83727,1.4755 -2.06819,1.75834 -0.81911,12.84419 12.88609,25.28927 19.82045,34.34023 0.69949,0.91452 1.76084,2.731 3.0175,4.4312 0.32704,0.0958 0.49964,0.27655 0.42091,0.55625 1.92739,2.47016 4.256,4.43749 6.45743,2.55344 1.89256,-1.62006 3.81995,-3.38154 6.02895,-4.53019 1.08861,-0.56097 1.99704,-1.07795 2.74801,-1.61378 0.21045,-0.43683 0.65709,-0.7951 1.1961,-1.02923 z m -143.01278,43.17277 c -4.30142,9.43437 -7.04488,19.53185 -8.47718,29.84303 10.56506,-13.57487 30.72163,-14.99851 46.28153,-16.17388 0.23771,-0.0189 0.44362,-0.006 0.63288,0.0189 1.20973,-0.93652 2.37554,-1.90605 3.51108,-2.90385 -7.9957,0.0707 -16.10951,-0.83753 -23.8236,-2.74672 -6.09103,-1.51006 -13.19042,-3.59367 -18.12471,-8.03744 z m 38.06023,-176.38845 c 0.23922,0.022 0.44664,0.0801 0.58594,0.19641 10.30917,8.7037 22.8864,4.26307 34.93825,3.18198 -6.84502,-16.8857 6.26515,-47.95909 13.31912,-60.1716 -7.56118,-10.70559 -2.43611,-30.75127 -0.006,-42.42952 0.0651,-0.31584 0.39214,-0.60183 0.83878,-0.8281 -3.32031,-2.35702 -6.62094,-4.94661 -9.72172,-7.78603 -2.75103,-0.69296 -5.64741,-0.7731 -8.52865,-0.33784 -3.0917,0.46983 -0.9478,-1.40636 0.81758,-1.67191 1.71088,-0.2577 3.43993,-0.40227 5.16443,-0.41798 -4.18786,-4.19864 -7.85641,-8.91268 -10.50903,-14.200268 -0.0485,0.02828 -0.0863,0.055 -0.13929,0.08014 -7.86399,3.763378 -16.78478,4.478338 -25.00457,1.928048 -0.32854,2.676 -0.75248,5.49028 -1.22789,8.40042 0.28615,-0.0283 0.56474,-0.0251 0.82213,0.0314 4.80863,1.01509 9.34775,2.30202 13.37967,5.32215 0.46482,0.34727 -3.20827,2.1936 -4.1485,1.49121 -3.19616,-2.39002 -6.69968,-3.67067 -10.42424,-4.59462 -3.85932,23.10353 -9.48251,51.07822 10.6892,61.42083 0.70404,0 1.30814,0.22156 1.49286,0.74953 2.74043,1.20994 5.90631,2.12447 9.56577,2.69172 1.18854,0.18385 -2.56934,1.92176 -3.60495,1.76148 -2.16055,-0.33469 -4.12579,-0.81081 -5.96385,-1.3655 -0.54052,16.75371 -4.64057,31.78993 -12.33498,46.54803 z m -37.62116,210.2887 c 0.21046,-0.12885 0.41788,-0.26084 0.62833,-0.38969 -0.10144,0.022 -0.20591,0.0424 -0.31038,0.0613 -3.06141,0.53111 -6.16976,0.65996 -9.36895,0.022 -0.0999,-0.0189 -0.21045,-0.0487 -0.31946,-0.0896 -0.29827,2.74357 -0.49813,5.49972 -0.61925,8.25586 3.0599,-2.96199 6.45592,-5.64428 9.98971,-7.85988 z m 78.225,-76.27792 c -1.73511,-17.37438 2.73286,-35.19346 5.03876,-52.28187 3.14923,-23.31879 4.54216,-47.02728 -2.88275,-69.65468 -0.0288,-0.0896 -0.0348,-0.17128 -0.0318,-0.25456 -2.8661,-1.65463 -4.97063,-3.9378 -6.41806,-6.71122 -12.90729,0.5154 -26.56253,5.97897 -37.97999,-1.91862 -7.85036,14.9058 -14.02012,29.53662 -14.54549,46.96914 -0.73129,24.23332 10.64832,45.82364 11.20246,69.72069 0.47996,20.70407 -3.2764,43.03763 -8.3727,63.02203 7.33255,1.15965 14.87707,1.24607 20.79853,0.96952 14.00649,-14.01642 22.40039,-32.9323 33.19104,-49.86043 z m 22.42613,-24.43288 c -1.56402,-3.38782 -2.49061,-6.93907 -2.10605,-10.56102 0.0636,-0.61126 0.95537,-1.03081 1.91831,-1.26494 -1.81535,-3.86394 -3.55348,-8.58741 0.49661,-11.55254 1.68059,-1.23351 3.53985,-1.94533 5.37942,-2.87557 4.36653,-2.20617 5.70041,-7.95259 6.59218,-12.51264 1.57765,-8.03744 4.08037,-17.66508 1.11435,-25.6381 -2.39221,-6.42995 -4.22875,-11.9391 -4.39832,-18.96302 -0.0394,-1.71277 4.35289,-2.59272 4.3862,-1.22094 0.18775,7.71846 3.00388,13.15375 4.83134,20.31752 1.84866,7.24234 0.38154,15.03466 -1.03107,22.23771 -0.75551,3.85137 -1.44137,8.74612 -3.58376,12.38693 13.20556,7.70589 21.54344,18.87188 30.6111,30.87226 2.99782,-10.16504 3.21584,-20.35837 3.24461,-31.17553 0.0303,-11.31841 1.66849,-21.5086 4.34836,-32.45461 5.01757,-20.51394 7.89729,-44.56812 -7.1978,-61.17569 -4.03949,-2.30517 -9.72022,-5.10059 -15.47361,-6.48181 -3.67915,-0.27027 -7.37192,0.50597 -10.883,2.94313 -5.98808,4.14993 -10.34703,10.15248 -14.70145,15.99632 -3.79421,5.09117 -8.512,11.73954 -14.50915,14.0997 -0.3331,0.95067 -1.5837,1.86833 -2.81917,1.63577 -0.41031,-0.0801 -0.78125,-0.19642 -1.17187,-0.29227 5.93508,20.2531 5.28555,41.57 2.59054,62.40606 -2.17267,16.79456 -6.67546,34.48479 -6.01381,51.65019 4.62391,-6.57452 9.78683,-12.69334 16.02775,-17.89922 0.63438,-0.52954 1.58067,-0.64582 2.34829,-0.47769 z m -85.88912,-1.12351 c -3.04325,-15.05979 -32.98362,-19.38414 -42.01342,-9.06667 -0.002,0.006 -0.003,0.009 -0.005,0.0157 -0.0106,0.0314 -0.0318,0.0581 -0.0424,0.0896 -0.96748,5.20587 -1.97432,10.40389 -2.99934,15.60033 -0.12112,0.61126 -0.24224,1.2178 -0.36337,1.82905 0.0908,-0.0314 0.18169,-0.0519 0.2695,-0.0833 13.55985,-4.48148 30.84881,-3.08141 42.80679,5.46672 0.47995,-1.61063 0.8842,-3.22912 1.23092,-4.84604 0.54809,-2.96827 0.93266,-5.96955 1.11586,-9.00539 z M 163.46891,192.77122 c 0.0106,1.99561 0.0863,3.98023 0.25588,5.95698 0.0772,0.89567 0.17563,1.79291 0.3013,2.68543 0.0939,0.66311 0.19228,1.32308 0.31643,1.98304 0.63439,0.0613 0.99322,0.31584 0.61925,0.84696 -0.10598,0.15399 -0.22711,0.29698 -0.33763,0.44783 0.16048,0.71811 0.31492,1.43936 0.52083,2.15746 0.0288,0.099 0.0318,0.19328 0.0242,0.29227 0.10296,1.14552 0.19683,2.2926 0.29676,3.43811 0.0575,0.65683 0.11355,1.31365 0.16957,1.97047 0.31341,3.58739 0.62228,7.17163 0.91449,10.76373 4.256,-3.87651 8.27278,-5.17445 12.4455,-3.51667 -0.36942,-2.29574 -0.78276,-4.95918 -1.29905,-7.71218 -0.32401,-1.73162 -0.6889,-3.48996 -1.11132,-5.21373 -1.22789,-5.00002 -2.9418,-9.68264 -5.53688,-12.33822 -0.0106,-0.0126 -0.0212,-0.0251 -0.0318,-0.0361 -1.95615,-1.98618 -4.42254,-2.78757 -7.54755,-1.72534 z m 17.85976,-94.180273 c -0.0394,0.01886 -0.0742,0.04243 -0.11356,0.06442 -5.56414,2.792283 -11.3675,3.522963 -17.50546,2.949423 -8.26672,-0.76996 -18.20799,-3.480538 -25.85092,0.98523 -0.47087,8.47113 -4.51036,14.69524 -6.88288,22.61327 -2.5103,8.37528 -2.50575,17.0114 -6.7345,24.78486 -0.64499,1.18793 -4.73898,1.49434 -4.33927,0.75739 0.0802,-0.15086 0.14837,-0.29699 0.22559,-0.44784 -0.63741,0.0581 -1.15068,-0.033 -1.25969,-0.36769 -0.64953,-1.99247 -1.42169,-3.98965 -2.52241,-5.76056 -0.0515,-0.0833 0.002,-0.19328 0.1181,-0.31584 -0.26799,-0.17128 -0.49056,-0.40541 -0.62379,-0.73068 -1.57765,-3.86394 -4.34382,-5.0456 -7.26897,-1.7222 -1.99552,2.26746 -3.68217,5.14617 -3.53076,8.336 0.27858,5.84383 5.66255,16.60913 12.02914,10.53588 1.67908,-1.60435 5.12658,0.10056 2.93877,2.19203 -1.09769,1.04651 -2.35435,1.86676 -3.68066,2.42458 3.38693,11.00258 3.75939,22.96839 1.93496,34.36694 0.28464,0.0393 0.46481,0.12571 0.44967,0.26085 -0.0318,0.28598 -0.0545,0.56725 -0.0848,0.85324 0.0409,0.0581 0.0712,0.11942 0.0848,0.19327 4.26509,22.99982 29.70115,20.06297 41.41537,4.90418 -1.51102,-7.17006 -0.98413,-14.50982 -0.89632,-21.83544 -2.90698,0.16342 -5.72917,0.20899 -8.30911,0.2247 -2.92969,0.0157 0.56474,-2.01604 1.85168,-2.02233 2.51484,-0.0157 5.0857,-0.0927 7.63839,-0.29227 1.00685,-0.49968 2.37404,-0.65368 2.94483,-0.28912 12.10031,-1.45193 23.10443,-6.28225 24.76232,-21.29647 2.25594,-20.40866 -3.76696,-41.24787 -6.79052,-61.365828 z m -24.93643,-0.88624 c -1.88197,-0.567257 -4.02738,-0.608112 -6.20307,-0.356696 2.15752,0.04243 4.33624,0.227845 6.52253,0.444691 -0.10447,-0.02671 -0.21651,-0.055 -0.31946,-0.088 z M 101.55631,201.47492 c -0.77973,1.7709 -1.45803,3.67381 -2.056084,5.64113 -0.59048,1.94533 -1.1098,3.94723 -1.57613,5.93498 -0.377,1.60749 -0.720686,3.21026 -1.044693,4.75647 -0.389111,1.86048 -0.750969,3.64238 -1.106772,5.29073 5.444539,-3.6581 11.797499,-4.39192 16.575839,2.0836 0.16958,-3.00756 0.36943,-6.01197 0.592,-9.01325 0.0742,-1.01037 0.14686,-2.01603 0.22862,-3.02641 0.21499,-2.66658 0.46179,-5.33472 0.72674,-7.99816 -0.47541,-0.10685 -0.81607,-0.35984 -0.85392,-0.79196 -0.009,-0.099 -0.003,-0.20584 0.0212,-0.32212 0.30886,-1.46764 0.57685,-2.93999 0.81153,-4.42178 0.44059,-2.78599 0.7434,-5.60028 0.9054,-8.42713 -0.0197,0 -0.0394,0.003 -0.059,0.003 -6.42563,-0.45412 -10.43181,4.07922 -13.16468,10.29076 z M 32.907692,354.33716 c -0.11204,0.022 -0.222566,0.0361 -0.334606,0.0487 -1.185502,3.30297 -0.334605,6.98464 1.353563,10.64274 0.0045,0.0126 0.003,0.0251 0.0076,0.033 0.195313,0.24828 0.122638,0.59555 -0.417878,1.04338 -11.226694,9.35109 4.761692,14.20027 12.489412,15.84232 8.407529,1.78663 18.825718,3.90952 27.592078,2.52516 0.805475,-5.79199 1.641232,-11.59183 2.489101,-17.4011 -14.085223,0.10371 -35.330396,2.44973 -43.17924,-12.7342 z m 39.183657,33.00144 c -10.945079,1.31993 -23.699451,-0.92396 -33.82997,-4.02737 -1.937987,-0.59554 -3.877487,-1.33879 -5.647413,-2.21245 0.897832,11.82753 -2.113616,23.42878 -2.722265,35.25946 -0.643472,12.53935 1.760842,26.09851 -1.994006,38.25916 -3.429327,11.10943 -10.325833,26.14565 2.549663,33.71012 1.264233,0.74639 9.712641,5.60342 10.219849,0.51226 0.296754,-2.97142 -0.707062,-4.72033 -2.685928,-6.78194 -2.599627,-2.70743 -5.117495,-5.05502 -6.419579,-8.69112 -0.373971,-1.04652 3.951675,-2.4403 4.386208,-1.22094 2.230198,6.2304 16.557669,16.17703 3.645836,20.5108 -2.151467,0.72125 -4.639054,0.69297 -7.128155,0.11628 7.261392,6.44881 19.809852,5.09745 27.156031,-1.26808 11.886819,-10.30332 -6.804149,-37.42006 -15.450898,-18.52147 -0.796391,1.73948 -5.231048,1.84791 -4.177268,-0.45412 3.273379,-7.15434 10.957192,-13.19931 18.603153,-8.26843 0.340661,0.22156 0.678295,0.47298 1.015928,0.73697 0.133237,-8.82941 -3.541367,-16.31216 -4.619371,-24.98443 -0.707062,-5.69299 0.342175,-10.49974 2.146925,-15.84232 4.243887,-12.55507 9.326558,-24.865 14.95126,-36.83238 z m 11.805061,69.74739 c 0.669211,0.20271 1.303599,0.28599 1.898621,0.24827 0.248304,-0.0676 0.502665,-0.1037 0.753998,-0.11628 0.658612,-0.15399 1.265747,-0.4604 1.830488,-0.87838 2.714695,-2.01604 4.401348,-6.7945 5.409707,-11.70811 0.133236,-0.65368 0.255875,-1.30736 0.367914,-1.9579 0.717661,-4.21121 0.97505,-8.24643 0.991704,-10.42589 0.0015,-0.20584 0.07873,-0.39912 0.207425,-0.57354 0.139293,-1.62949 0.333092,-3.26212 0.579882,-4.89475 0.17563,-1.16908 0.375485,-2.33816 0.584424,-3.5041 0.663155,-3.69581 1.436833,-7.36648 2.039423,-10.97115 3.043254,-18.22763 5.667104,-36.5244 7.662624,-54.90759 0.0893,-0.8171 0.16352,-1.63263 0.24982,-2.45287 0.0378,-0.35355 0.0727,-0.70868 0.10901,-1.06537 0.69344,-6.67195 1.29451,-13.34389 1.81383,-20.01583 0.053,-0.68982 0.10599,-1.38121 0.15747,-2.07103 0.39214,-5.21688 0.73431,-10.44161 1.02501,-15.66477 0.0394,-0.70553 0.0742,-1.41421 0.11204,-2.12446 0.46027,-8.65184 0.79185,-17.31624 0.99776,-25.99794 0.009,-0.38969 0.0151,-0.77939 0.0242,-1.16908 0.0515,-2.33817 0.10599,-4.6779 0.14081,-7.01921 0.0696,-4.7109 0.13778,-9.4218 0.21197,-14.12956 0.009,-0.55625 0.0182,-1.1078 0.0272,-1.66091 0.0803,-4.94189 0.1726,-9.8822 0.29827,-14.82095 0.0288,-1.1078 0.0651,-2.21246 0.0969,-3.32026 0.11507,-4.03522 0.25739,-8.07201 0.4315,-12.10408 0.0424,-0.96953 0.0742,-1.93905 0.12113,-2.91328 0.0621,-1.30422 0.14383,-2.60844 0.21348,-3.91266 -0.94628,0.92081 -3.06898,1.34665 -3.80179,0.32841 -1.44289,-2.00661 -3.1356,-2.92427 -4.88735,-3.12069 -1.4762,-0.16342 -2.99177,0.1807 -4.434664,0.87524 -1.35054,0.64739 -2.62991,1.58392 -3.756364,2.64615 -0.445131,0.42426 -0.872094,0.85638 -1.261205,1.30422 -0.661641,0.76053 -4.645111,1.67505 -4.022836,-0.36141 0.275558,-0.90196 0.539003,-1.85419 0.796392,-2.84886 0.663154,-2.55029 1.286944,-5.36458 1.956154,-8.27471 0.322493,-1.40321 0.660127,-2.82371 1.014415,-4.2505 0.286156,-1.14551 0.585938,-2.28945 0.903889,-3.43182 0.122638,-0.43212 0.24679,-0.86895 0.373971,-1.30107 0.304324,-1.03081 0.623789,-2.0569 0.967479,-3.05942 0.252846,-0.7401 0.519319,-1.46764 0.796391,-2.18574 0.581394,-1.50378 1.218814,-2.95256 1.928904,-4.31806 -0.22408,0.1037 -0.46482,0.19013 -0.72069,0.2357 -4.168185,0.75267 -8.508971,1.70334 -12.627192,3.20712 -1.458032,0.53426 -2.885782,1.13608 -4.269626,1.8259 -2.891838,1.43936 -5.583822,3.24326 -7.907891,5.583 -1.211242,1.21779 -2.305901,2.52201 -3.343027,3.87337 -0.401223,0.52169 -0.796391,1.04652 -1.17339,1.58706 -3.509571,5.02989 -5.983532,10.77787 -7.776169,16.77571 -0.999274,3.34225 -1.853199,6.73636 -2.619309,10.15562 -0.413337,1.8479 -0.797906,3.69895 -1.164306,5.56099 -1.15825,5.88941 -2.113616,11.83382 -3.058385,17.74523 -0.222565,1.39378 -0.445131,2.78286 -0.66921,4.17036 -0.0091,0.0519 -0.01666,0.1037 -0.02574,0.16027 -0.909945,5.60343 -1.794152,11.21785 -2.695012,16.82756 -0.07116,0.44155 -0.140807,0.88467 -0.211968,1.32308 -0.847868,5.25458 -1.719962,10.50602 -2.643534,15.7449 -0.145349,0.82181 -0.28767,1.64834 -0.436047,2.46701 -0.782764,4.35421 -1.606408,8.69741 -2.493643,13.02804 -0.07116,0.35041 -0.143835,0.7024 -0.216509,1.04966 -0.225594,1.10466 -0.451188,2.20775 -0.681323,3.31869 -1.068921,5.16502 -2.234741,10.40703 -3.735166,15.51077 -0.249818,0.8501 -0.502665,1.69391 -0.772166,2.53144 -1.115856,3.46168 -2.440652,6.82907 -4.025864,10.04877 0.619248,0.0424 1.156736,0.27655 1.395956,0.77938 1.518594,3.19455 3.707913,5.55786 6.336306,7.29891 0.916002,0.61126 1.892565,1.13609 2.905465,1.59963 4.328674,1.98619 9.450711,2.76243 14.622712,3.01071 1.238494,0.0581 2.480016,0.0896 3.712454,0.099 4.219662,0.033 8.346967,-0.17128 11.968579,-0.2357 1.05378,-7.2392 2.093933,-14.49568 3.067468,-21.76002 0.05753,-0.42112 0.11204,-0.84381 0.16806,-1.26808 0.525376,-3.95665 1.026527,-7.90859 1.494369,-11.86838 0.06813,-0.58297 0.145349,-1.16909 0.213481,-1.75206 0.522348,-4.53019 0.979592,-9.06039 1.3899,-13.59058 0.0651,-0.71182 0.133236,-1.4205 0.193799,-2.13232 0.383055,-4.42805 0.694949,-8.86083 0.932655,-13.28574 0.02574,-0.46355 0.04391,-0.92709 0.06662,-1.39379 0.184714,-3.68952 0.311894,-7.37433 0.375484,-11.06385 0.01666,-1.01823 0.05451,-2.04118 0.06056,-3.05942 0.03331,-4.86803 -0.08025,-9.72506 -0.304325,-14.58053 -0.04239,-0.93024 -0.05905,-1.86047 -0.11204,-2.78914 -0.03634,-0.63168 0.669211,-1.15023 1.523136,-1.47078 1.250607,-0.4604 2.822193,-0.4824 2.863072,0.24827 0.02725,0.48241 0.03482,0.9601 0.06056,1.44564 0.0318,0.63797 0.05299,1.27908 0.08024,1.9249 0.245276,5.638 0.307352,11.28856 0.202883,16.95013 -0.01817,1.00095 -0.02877,2.00032 -0.05602,3.00441 -0.09539,3.44283 -0.260417,6.89036 -0.460272,10.33947 -0.05299,0.91452 -0.102955,1.83219 -0.162003,2.74671 -0.266474,4.09965 -0.599565,8.20401 -0.98262,12.30365 -0.06056,0.64111 -0.11961,1.28537 -0.1832,1.93119 -0.271015,2.78286 -0.558685,5.57043 -0.87058,8.35485 -0.157461,1.41107 -0.320979,2.82371 -0.487525,4.23164 -0.01363,0.11942 -0.02877,0.2357 -0.04239,0.35356 -0.779737,6.56508 -1.641232,13.12075 -2.546635,19.65755 -0.610163,4.40134 -1.235466,8.79326 -1.860769,13.17889 -0.240735,1.68449 -0.478441,3.37054 -0.719175,5.05188 -0.767624,5.39915 -1.518594,10.77473 -2.233226,16.1346 -0.134751,1.01509 -0.274044,2.03175 -0.40728,3.04527 -0.01968,0.14771 -0.03937,0.29698 -0.05905,0.44469 -0.651042,5.00631 -1.394442,10.08491 -2.074251,15.19493 -0.171088,1.28536 -0.339147,2.57858 -0.499637,3.87023 -0.579882,4.67476 -1.06892,9.3668 -1.34902,14.05256 -0.05451,0.90195 -0.10447,1.8039 -0.142321,2.70743 -0.213481,5.13202 -0.13475,10.24676 0.373971,15.31121 0.03482,0.34727 0.05905,0.69925 0.09841,1.04651 0.0969,0.85953 0.204397,1.76463 0.331578,2.69487 0.746427,5.49971 2.198403,11.92024 6.56947,15.13678 1.035611,0.74954 1.990978,1.23037 2.88124,1.50064 z m 88.56597,-21.72859 c 0.592,-0.0927 1.18399,-0.2027 1.77598,-0.30013 0.34672,-0.60497 1.15977,-1.19736 2.12725,-1.29793 0.78882,-0.0864 1.57007,-0.14142 2.34526,-0.17756 -9.23268,-74.57458 -11.15402,-149.77298 -17.87489,-224.5864 -12.21688,11.66569 -34.25694,16.07803 -43.20952,1.6782 -1.00836,11.60755 -1.62761,23.22923 -2.0576,34.86663 -0.0348,0.92395 -0.0772,1.84476 -0.10901,2.76871 -0.96445,27.85842 -0.97202,55.77026 -2.77223,83.60511 -0.0272,0.40227 -0.0515,0.80453 -0.0787,1.2068 -0.51175,7.69331 -1.14917,15.37877 -2.00309,23.05481 -1.95161,17.53309 -4.33927,35.00176 -7.22354,52.39814 -1.34751,8.12387 -3.579224,16.63114 -3.816934,24.92314 16.263954,1.94219 32.556664,3.76495 48.837264,3.65496 8.02598,-0.0581 16.04592,-0.57983 24.05979,-1.79448 z m 85.00946,-69.55412 c 0.79185,0.51855 1.58218,1.04023 2.37101,1.55563 3.19616,2.09932 6.33782,4.21122 9.31141,6.4331 0.1287,0.0959 0.25588,0.19013 0.38457,0.28913 1.45803,0.0927 2.89033,0.0833 4.29991,-0.0126 1.94858,-0.12885 3.84872,-0.42427 5.69435,-0.87839 1.51859,-0.37398 2.99933,-0.85638 4.44374,-1.42992 2.66019,-1.05595 5.19017,-2.43088 7.57329,-4.06979 1.11888,-0.76996 2.20748,-1.59335 3.25975,-2.47016 2.98722,-2.49216 5.7004,-5.40229 8.10623,-8.57798 0.40123,-0.52798 0.79336,-1.06538 1.17642,-1.60749 2.80857,-3.98337 5.1508,-8.33914 6.95858,-12.80334 -1.32934,-1.23037 -2.6511,-2.46702 -3.96984,-3.70052 -0.539,-0.50284 -1.07801,-1.01038 -1.6155,-1.51635 -2.87669,-2.71372 -5.71857,-5.43844 -8.52259,-8.18515 -0.67981,-0.66625 -1.35659,-1.33251 -2.03186,-1.99719 -3.33243,-3.30611 -6.59824,-6.64837 -9.77623,-10.0519 -0.15898,-0.16814 -0.31341,-0.34413 -0.47239,-0.51541 -7.55057,-8.11443 -14.59848,-16.573 -20.86817,-25.64124 -0.4315,-0.6254 -0.85544,-1.25865 -1.27937,-1.88719 -2.54361,-3.78381 -4.95549,-7.66975 -7.20689,-11.68925 -0.41939,-0.74954 -0.81456,-1.51635 -1.22335,-2.27374 -3.21585,-5.96641 -6.088,-12.21094 -8.5544,-18.80746 -0.14383,-0.38655 -0.28009,-0.77625 -0.4209,-1.1628 -0.46027,-1.26179 -0.94326,-2.50473 -1.37325,-3.78694 -2.49667,-7.47333 -5.02513,-16.53215 -8.63918,-24.86815 -0.6465,-1.48806 -1.32479,-2.9557 -2.04699,-4.38563 -3.22948,-6.39538 -7.29773,-12.03652 -12.71955,-15.79361 -0.592,-0.41169 -1.17642,-0.8281 -1.80172,-1.19422 -0.39971,-0.22942 -0.80245,-0.4447 -1.20519,-0.66626 -5.44301,-2.97927 -11.10708,-4.91674 -16.95738,-6.10154 -1.45349,-0.29698 -2.91757,-0.54683 -4.39226,-0.75424 -3.502,-0.49184 -7.06305,-0.74954 -10.67709,-0.83753 -0.0878,-0.003 -0.17563,-0.009 -0.26345,-0.0126 -1.25817,-0.0283 -2.69047,0.033 -4.17121,0.0644 -1.16431,0.0283 -2.34981,0.022 -3.5232,-0.0519 1.74267,3.28411 2.94029,7.3539 3.87597,11.49912 1.28846,5.71813 2.08182,11.56983 3.11138,15.7009 0.26193,1.04966 -0.54354,1.70334 -1.54585,1.96104 -0.97353,0.25142 -2.13178,0.12571 -2.66624,-0.38026 -1.45803,-1.92805 -3.12349,-2.83 -4.98275,-2.77186 -1.35659,0.0424 -2.82067,0.62068 -4.39075,1.71905 -0.30735,0.21528 -0.61167,0.4117 -0.9266,0.6694 -0.66769,0.62854 -2.10301,0.80138 -3.09623,0.5704 2.34526,29.06364 4.11973,58.17128 6.01078,87.26477 0.0318,0.49969 0.0651,0.99781 0.0954,1.4975 0.53446,8.17257 1.07952,16.34358 1.65032,24.51616 0.0363,0.53111 0.0757,1.06537 0.11204,1.59649 0.33309,4.74232 0.67829,9.48308 1.03409,14.2254 0.0636,0.84696 0.12718,1.69392 0.19229,2.54402 0.46027,6.07011 0.94022,12.14494 1.45046,18.21191 0.0439,0.52483 0.0833,1.04966 0.12869,1.57449 0.28464,3.3784 0.592,6.75837 0.89784,10.13676 0.0409,0.45412 0.0802,0.91138 0.12263,1.36865 0.52084,5.71184 1.06287,11.42369 1.64578,17.12768 0.0515,0.49969 0.10598,0.99781 0.15746,1.49435 0.61016,5.90199 1.27029,11.80082 1.9607,17.69338 0.11809,1.01351 0.24073,2.02232 0.36185,3.03584 0.23923,1.99247 0.46482,3.98336 0.71312,5.97583 4.49219,0.3127 8.76333,1.3875 12.9406,2.92114 1.64578,0.60811 3.27792,1.27907 4.9025,2.01289 2.84793,1.28537 5.67618,2.73101 8.52563,4.25993 2.12573,1.14237 4.33927,2.37587 6.61943,3.48682 1.68968,0.82181 3.41722,1.55877 5.17352,2.15431 2.21657,0.74954 4.47856,1.2618 6.77538,1.31994 2.40885,0.0613 4.66176,-0.30327 6.78446,-0.99781 1.39596,-0.45098 2.73135,-1.05595 4.02132,-1.75834 4.01527,-2.19988 7.55209,-5.46829 10.81336,-8.95825 -0.67829,-2.1936 -1.35659,-4.39192 -2.02883,-6.59494 -0.10144,-0.33784 -0.2044,-0.67254 -0.30735,-1.01038 -1.62912,-5.3583 -3.23402,-10.74802 -4.81317,-16.16131 -0.2801,-0.95695 -0.56626,-1.91233 -0.84333,-2.87242 -1.20215,-4.16093 -2.37706,-8.33914 -3.53682,-12.52835 -0.0636,-0.22785 -0.12567,-0.45412 -0.18775,-0.68511 -3.66249,-13.26374 -7.07213,-26.65477 -10.08661,-40.12436 -0.17714,-0.79196 -0.35277,-1.58077 -0.52689,-2.37273 -1.42775,-6.48495 -2.75557,-12.98876 -3.9759,-19.50356 -0.15292,-0.8171 -0.31341,-1.63578 -0.46178,-2.45602 -1.48226,-8.10187 -2.77829,-16.22416 -3.86992,-24.35117 0,-0.003 -0.002,-0.006 -0.002,-0.006 0,-0.006 0,-0.0126 0,-0.0157 -1.17794,-8.77126 -2.11362,-17.54566 -2.75861,-26.31692 -0.0409,-0.56098 -0.0984,-1.12352 -0.13777,-1.68135 -0.0394,-0.58297 1.0235,-1.07166 2.11361,-1.32621 1.1098,-0.2577 2.24686,-0.27342 2.27259,0.10056 0.22106,3.19769 0.48753,6.39224 0.78428,9.59151 0.56929,6.14396 1.28695,12.28479 2.1121,18.42719 0.009,0.0738 0.0182,0.15085 0.0288,0.2247 1.26121,9.34795 2.80403,18.68803 4.57092,27.99984 0.10296,0.54368 0.20289,1.08266 0.30736,1.62634 0.57079,0.0707 1.05983,0.3127 1.2824,0.79825 0.98262,2.1386 2.1333,4.13107 3.41721,5.9994 1.44289,2.10561 3.06596,4.04465 4.81014,5.8737 2.74801,2.88185 5.81548,5.46672 9.04646,7.88816 0.9796,0.73382 1.97281,1.45507 2.97814,2.16375 2.4558,1.71905 4.96458,3.38468 7.47639,5.02988 z m 30.04787,28.34868 c -0.69495,-1.7002 2.40129,-3.44282 3.78362,-2.12761 0.36034,0.34727 0.7328,0.67883 1.10374,1.01352 8.47263,-3.18512 16.66971,-12.31307 21.26788,-18.82317 2.35738,-3.32968 5.98505,-8.90325 8.41964,-14.7958 -0.0333,-0.0314 -0.0651,-0.0613 -0.0999,-0.0927 -1.15977,-1.04652 -0.13173,-2.25646 1.15825,-2.73415 2.16055,-6.45038 2.43611,-12.91176 -2.30288,-16.94384 -0.19531,-0.0801 -0.35277,-0.19327 -0.45421,-0.35669 -0.0288,-0.0487 -0.0636,-0.0927 -0.0954,-0.14142 -0.0182,-0.0251 -0.0394,-0.0456 -0.05,-0.0739 -1.36416,-2.16374 -3.12955,-4.0965 -5.14626,-5.61285 -1.37779,-1.03709 -5.3552,-4.09179 -7.06305,-2.55344 -0.44816,0.40227 -1.48832,0.63797 -2.39675,0.65054 3.23402,3.0327 6.48469,6.0434 9.73233,9.0541 0.44361,0.4117 0.28767,0.88153 -0.15746,1.28222 -5.82759,14.12956 -16.61672,25.94923 -30.06604,31.26196 -1.40807,0.55625 -2.84339,1.04337 -4.30597,1.45192 -3.15074,0.87839 -6.42412,1.40322 -9.79288,1.52578 -0.48601,1.08266 -2.86307,1.93904 -3.83509,1.18165 -0.12719,-0.099 -0.26194,-0.19327 -0.39063,-0.29227 -0.36034,-0.2797 -0.72826,-0.55311 -1.09466,-0.82181 -1.27786,-0.95695 -2.57692,-1.9029 -3.90322,-2.82686 -0.33612,8.35014 4.1167,15.14308 13.35545,13.62987 2.08484,-0.34412 2.23625,1.25551 1.31116,2.37902 3.38845,3.70524 7.16601,5.03303 11.0223,4.7659 z m 60.31679,41.84341 c 4.86616,-5.08174 9.19181,-10.79673 16.89985,-8.25272 2.54814,0.84067 4.5694,3.27469 7.17206,3.90009 2.39977,0.57668 5.53234,-0.50598 6.34085,-2.46388 -0.88875,0.0739 -1.59884,-0.0188 -1.45803,-0.2797 0.40425,-0.74953 0.82515,-1.48492 1.23546,-2.22817 -0.13172,-0.24199 -0.28767,-0.48869 -0.4845,-0.7401 -2.55874,-3.25269 -5.80184,-5.76056 -9.05402,-8.21815 -4.31505,-3.26526 -8.16983,-6.82593 -11.69908,-10.69616 -0.0106,-0.0126 -0.0227,-0.0251 -0.0333,-0.033 -4.10611,-4.50819 -7.76557,-9.43751 -11.1086,-14.88852 -6.3469,-10.35203 -12.176,-21.09376 -20.56536,-29.76603 -4.09703,8.21343 -10.23499,15.92246 -13.81724,19.64813 -4.42557,4.6009 -10.63015,9.69521 -17.186,12.51578 17.28744,14.47054 43.07174,20.06296 53.75792,41.50243 z m 29.35595,-1.7552 c -0.34672,0.10057 -0.69192,0.20271 -1.07346,0.28599 -4.6436,0.98837 -7.37495,0.003 -11.44623,-2.42459 -7.47791,-4.46263 -11.81264,4.2992 -16.82717,8.63612 -1.49286,1.29479 -4.58304,0.22942 -3.32032,-1.48492 -0.12112,-0.13199 -0.23165,-0.2797 -0.31189,-0.45412 -0.53598,-1.20365 -1.13554,-2.34131 -1.77296,-3.44911 -4.30142,13.16318 8.52411,26.37821 21.80689,25.81724 11.81566,-0.49969 11.42352,-16.74585 12.94514,-26.92661 z m 43.33216,-84.69876 c -0.0666,-0.0393 -0.13627,-0.077 -0.19531,-0.12885 -10.75583,-9.27724 -28.05387,-10.95072 -41.02778,-6.51795 -0.43302,0.1477 -0.78882,0.17127 -1.1098,0.15085 -1.66848,8.27157 -3.41116,16.52429 -5.26284,24.74557 -2.14541,9.5318 -4.28174,19.14216 -7.2296,28.44925 -0.83878,2.64615 -1.82746,7.32876 -4.08945,9.79892 2.14995,2.28317 4.44525,4.45006 6.93436,6.51324 3.31728,2.74357 6.842,5.16816 10.01393,8.10501 0.66316,0.61439 1.25061,1.24922 1.76842,1.88718 7.62476,-13.41145 15.99141,-26.38135 23.4784,-39.88551 5.49297,-9.90734 12.50758,-21.33889 16.71967,-33.11771 z m -11.42958,40.78117 c -0.24679,0.65683 -0.48601,1.31365 -0.72523,1.97362 0.36489,0.10056 0.67073,0.30641 0.85393,0.63796 1.31116,2.37902 3.13711,4.36992 5.32189,6.04969 0.13626,0.10057 0.27101,0.20585 0.40728,0.30327 3.06444,2.2596 6.7996,3.91894 10.84818,5.11317 0.76914,0.22941 1.54887,0.43212 2.33921,0.62853 0.4739,0.11628 0.95234,0.22785 1.4338,0.33784 2.20598,-8.93153 3.79573,-18.05163 5.05845,-27.17016 1.72753,-12.46707 3.99558,-25.98537 2.81765,-38.59701 -2.08485,-22.37756 -12.18963,-42.76736 -11.01624,-65.67132 0.88724,-17.36182 6.34236,-31.90935 14.40772,-46.89215 7.54906,-14.02899 12.26684,-27.75942 13.72336,-43.20576 -0.50418,0.31898 -1.06135,0.67882 -1.68211,1.08265 -6.63609,7.93059 -16.54404,12.75463 -26.1401,15.9099 -3.23704,1.06223 -6.15614,2.24702 -8.76939,3.65181 -0.003,0.0581 -0.005,0.0927 -0.005,0.0927 v -0.0896 c -7.69593,4.13736 -12.69835,10.1949 -14.98306,20.78893 -3.98801,18.48218 -5.55505,37.49077 -9.51278,56.01853 -2.67836,12.53935 -5.91843,24.89957 -9.87465,37.05866 6.088,-3.28726 13.86871,-3.77124 20.35491,-3.00756 6.27423,0.7401 14.88464,2.65715 20.16868,7.49218 -0.20893,-2.63672 -0.58745,-5.30172 -1.16733,-8.00444 -3.28701,-15.3175 -9.59303,-29.74561 -10.11235,-45.66807 -0.43605,-13.40831 2.49818,-25.89423 7.34618,-38.27017 0.47087,-1.20051 4.68145,-1.65777 4.33473,-0.76996 -5.58685,14.27412 -8.80421,29.17364 -6.71028,44.61998 2.13633,15.7449 9.3099,30.42915 10.6347,46.22904 0.2695,3.20555 0.28616,6.3451 0.11053,9.43437 0.008,0.033 0.0212,0.0581 0.0273,0.0927 -0.003,0.10371 -0.0167,0.21528 -0.0197,0.32527 -0.0954,2.94313 -0.49358,5.90198 -1.12797,8.8514 -2.01066,11.00886 -6.20761,21.45204 -10.6241,31.87478 -2.63748,6.23197 -5.34915,12.45136 -7.71864,18.77917 z m 79.54373,27.07432 c 4.61786,-4.65276 9.10703,-9.42808 13.44024,-14.29926 4.40286,-4.9466 9.08431,-10.14305 13.48566,-15.61605 4.31202,-5.36144 8.35454,-10.99 11.59007,-16.93127 1.5095,-2.775 2.84338,-5.61285 3.95016,-8.52613 -0.83576,-1.19422 -1.60338,-2.42459 -2.37404,-3.43182 -2.99782,-3.9158 -6.16219,-7.69332 -9.15698,-11.61697 -1.60187,-2.09932 -3.42933,-4.39821 -5.15383,-6.84636 -1.2279,-1.73949 -2.39221,-3.56382 -3.40056,-5.43844 -0.11356,0.14457 -0.24982,0.29542 -0.43605,0.44784 -0.11658,0.099 -0.22408,0.19956 -0.34066,0.29541 -7.21749,6.09526 -12.98754,13.40202 -18.13986,21.22262 0.0288,0.2577 0.0409,0.51854 0.0742,0.77624 0.0893,0.74954 -0.7222,1.36236 -1.67151,1.69077 -10.41516,16.37973 -18.58953,34.61207 -31.88896,48.50592 0.4845,0.92081 -0.48903,2.47331 -2.15146,2.58487 -0.15292,0.0126 -0.30281,0.0157 -0.45422,0.0251 -2.48304,2.36331 -5.13415,4.58205 -8.00933,6.61066 -1.06135,0.74953 -2.9418,0.49183 -3.50806,-0.25141 -13.49777,0.98523 -31.23034,2.21245 -40.14205,13.77128 6.72239,0.45412 13.21464,-2.56915 19.63725,-4.39191 2.69198,-0.76682 3.44901,2.1826 0.76157,2.94627 -0.1181,0.0314 -0.23468,0.0676 -0.35126,0.10371 0.20894,0.79196 -0.26648,1.75206 -1.63821,2.09932 -10.75885,2.70429 -22.95454,12.74834 -28.64434,23.03596 11.34327,-0.29542 21.81294,-12.39322 31.29545,-17.60381 2.21657,-1.21779 4.59514,1.27751 1.95464,2.72786 -8.42873,4.6339 -16.74996,13.06418 -26.15979,16.60914 0.0515,0.0833 0.0954,0.16814 0.12264,0.27027 0.056,0.20271 0.11053,0.40855 0.16503,0.61126 0.67981,-0.132 1.32631,-0.11 1.70331,0.17756 8.39844,6.44881 23.65706,-7.97616 30.93359,-12.30994 1.35053,-0.80453 5.25679,-0.30641 2.68744,1.22094 -5.71857,3.40668 -14.33807,10.73859 -22.76831,13.88757 0.0939,0.0801 0.1726,0.16813 0.23165,0.27656 3.23402,6.00883 22.77891,-8.94883 26.85474,-11.41427 1.58672,-0.95695 5.36882,0.10685 2.80251,1.65777 -2.80554,1.69391 -10.55294,7.60218 -18.02933,11.34984 9.5355,2.61787 20.47603,-8.21343 28.5429,-14.95922 -0.0182,-0.15085 0.12415,-0.35041 0.49358,-0.60497 3.42025,-2.36017 6.75116,-4.87118 10.03514,-7.45133 8.297,-6.51638 16.17158,-13.67387 23.65705,-21.21162 z m 33.51959,-7.83788 c -5.68375,-0.45098 -13.51291,-1.91862 -15.8824,-6.70965 -0.55111,0.60496 -1.10374,1.20993 -1.65031,1.80705 -1.59279,1.74262 -3.20071,3.47424 -4.82377,5.20273 7.46427,0.78567 15.07995,1.57763 22.35648,-0.30013 z m 29.77686,-7.50947 c 3.07504,-1.02452 6.07892,-2.24703 8.85872,-3.83566 16.26697,-9.32123 -5.12507,-27.4153 -9.68842,-38.80756 -0.53295,0.29227 -1.07649,0.62225 -1.62912,1.03708 -4.06674,3.07827 -8.20162,7.7986 -13.72791,5.83442 -0.68132,-0.24199 -1.29603,-0.63797 -1.87439,-1.1078 -5.5808,12.34922 -14.84377,23.5215 -23.8978,33.60012 0.0772,2.25331 1.13403,3.94722 2.76164,5.21373 3.29609,2.56601 8.84206,3.41611 13.01024,3.70366 0.0999,-0.0613 0.18926,-0.12885 0.29676,-0.18699 0.93719,-0.52168 1.91678,-0.3834 2.51029,0.0581 0.41334,-0.0424 0.83122,-0.0896 1.24304,-0.1477 1.18399,-0.17442 2.36646,-0.35984 3.53985,-0.59554 2.74498,-0.54055 5.48238,-1.13294 8.19556,-1.82905 3.42479,-0.88153 6.95859,-1.78977 10.40154,-2.93685 z"
   id="color_x5F_1" />
</svg>
