<?xml version="1.0" standalone="no"?>
<svg version="1.1" id="Layer_1" xmlns="http://www.w3.org/2000/svg" xmlns:xlink="http://www.w3.org/1999/xlink" x="0px" y="0px" width="595.28px" height="595.28px" viewBox="0 0 595.28 595.28" enable-background="new 0 0 595.28 595.28" xml:space="preserve">
<path id="color_x5F_2" fill="#e04949" d="M346.6,427.327c-7.632-0.623-16.36-1.781-23.258-5.443
	c4.055-9.867,3.972-20.048,1.648-30.387c-2.599-11.563-7.954-22.211-8.861-34.172c-0.011-0.145-0.216-0.215-0.511-0.229
	c0.14-0.621,0.292-1.246,0.474-1.869c0.022-0.075,0.055-0.146,0.083-0.22c0.9-0.781,2.247-1.938,3.794-3.222
	c0.774-0.408,1.521-0.777,2.091-1.133c1.866-1.162,3.605-2.507,5.255-3.955c3.443-3.021,5.662-6.963,6.685-11.4
	c1.034-4.486,0.415-8.803-1.85-12.677c1.913-0.607,3.656-0.821,5.252-0.7c1.878,0.373,3.737,1.077,4.899,1.573
	c0.685,0.411,1.337,0.894,1.963,1.434c0.937,1.098,2.647,3.135,4.621,5.626c4.586,7.295,7.716,17.32,12.365,22.418
	c0.212,0.232,0.551,0.33,0.922,0.331c-1.444,0.795,1.117,0.69,1.793,0.348c3.29-1.665,6.426-3.459,9.446-5.37l2.587-1.242l5.6-4.421
	c5.32-3.986,10.355-8.358,15.347-13.055c4.408,2.862,7.102,7.452,8.276,12.532c-9.894,10.689-19.223,22.009-31.169,30.531
	c-6.733,4.803-13.864,7.998-21.66,3.793c-7.468-4.029-14.952-11.705-18.35-19.547c-0.505-1.166-3.367-0.307-2.897,0.777
	c3.644,8.408,11.185,15.697,18.981,20.32c4.799,2.846,9.638,2.996,14.454,1.59c-0.224,0.186-0.39,0.417-0.443,0.693
	c-1.765,9.066,0.345,19.117,2.078,28.023c1.055,5.418,2.27,10.903,3.781,16.293C363.74,428.913,353.7,427.905,346.6,427.327z
	 M323.719,405.514c-0.829,4.757-3.219,16.024-3.219,16.024l0.266,0.126C322.811,416.41,323.717,410.979,323.719,405.514z
	 M366.422,379.116l0.272-0.273c-0.197,0.076-0.393,0.156-0.59,0.227C366.217,379.074,366.322,379.092,366.422,379.116z
	 M148.494,386.116c7.428,2.292,19.415,2.895,26.453-0.812c3.032-1.597,1.845-2.595-0.834-3.097
	c-2.396-0.449-4.825-0.675-7.263-0.654c-0.342,0.003-0.682,0.02-1.023,0.027c-0.231,0.795-0.67,1.58-1.415,2.355
	c-0.553,0.576-3.403,0.852-2.661,0.078c0.734-0.764,1.133-1.537,1.306-2.319c-3.632,0.217-7.233,0.688-10.807,1.35
	c-3.583,0.806-6.25,1.493-6.25,1.493l0.749,1.959C147.367,386.228,148.168,386.016,148.494,386.116z M151.782,397.983
	c3.215,7.499,13.319,11.063,20.345,6.219c0.576-0.396,1.075-0.83,1.542-1.277c0.108-0.352,0.396-0.687,0.825-0.862
	c3.829-4.51,3.313-10.966,3.131-16.846c-2.979,1.89-7.224,2.54-10.255,2.941c-6.546,0.866-13.716,1.094-20.178-0.647
	c1.5,3.308,2.76,6.604,3.902,9.984C151.408,397.559,151.666,397.712,151.782,397.983z M167,408.038c0,0,0.332-0.13,0.865-0.375
	c-0.529,0.099-1.058,0.178-1.587,0.237L167,408.038z"></path>
<path id="color_x5F_1" d="M202.044,333.562c0.025-1.273,0.405-2.435,1.288-3.371c0.444-0.471,1.323-0.656,1.937-0.701
	c0.3-0.021,1.145,0.031,0.693,0.51c-0.707,0.749-1,1.773-1.021,2.785C204.924,333.653,202.034,334.059,202.044,333.562z
	 M175.597,333.376c0.77,1.154,1.539,2.309,2.309,3.463c0.592,0.889,3.395-0.102,2.68-1.174c-0.77-1.155-1.539-2.31-2.309-3.465
	C177.685,331.313,174.881,332.303,175.597,333.376z M161.449,336.317c-0.492-0.983-3.309-0.045-2.897,0.777
	c0.667,1.332,1.333,2.666,2,4c0.492,0.983,3.309,0.045,2.897-0.777C162.782,338.985,162.116,337.651,161.449,336.317z
	 M179.894,349.339c5.438,0.724,10.643-2.975,10.806-8.656c0.033-1.171-2.868-0.553-2.895,0.375c-0.096,3.369-2.269,7.254-6.128,6.74
	c-0.7-0.093-1.503,0.078-2.049,0.55C179.192,348.725,179.278,349.257,179.894,349.339z M172.16,326.987
	c1.505-0.725,3.114-1.196,4.619-1.924c0.441-0.213,1.177-0.797,0.723-1.35c-0.436-0.53-1.41-0.395-1.946-0.135
	c-1.505,0.727-3.114,1.197-4.619,1.924c-0.441,0.212-1.177,0.798-0.723,1.35C170.65,327.384,171.624,327.247,172.16,326.987z
	 M274.608,408.383c2.865,9.272,8.939,25.869-1.342,32.698c-6.208,4.122-14.438,4.933-21.689,5.493
	c-8.761,0.677-17.544,0.778-26.304,1.489c-6.501,0.528-13.869,1.286-20.184-0.85c-2.118-0.717-4.094-1.678-5.654-3.209
	c-0.021,0.08-0.036,0.161-0.06,0.243c-0.281,0.978-0.937,2-1.792,2.582c-3.723,2.536-8.454,2.088-12.752,2.051
	c-12.755-0.108-25.509-0.386-38.262-0.651c-12.949-0.27-25.898-0.572-38.848-0.723c-5.244-0.06-16.891,0.871-17.534-7.01
	c-1.23-2.141-2.123-5.674-2.579-6.784c-2.802-6.813-5.551-13.647-8.297-20.482c-2.582-6.428-5.149-12.861-7.743-19.283
	c-1.366-3.383-4.242-9.091-0.949-12.177c0.27-0.253,0.703-0.389,1.146-0.428c0.389-0.185,0.819-0.322,1.098-0.322
	c21.434,0,42.867,0,64.3,0c0.166-0.134,0.374-0.251,0.64-0.333c0.918-0.284,1.885-0.209,2.833,0.093
	c4.907-10.781,10.391-22.5,23.563-23.363c-0.883-1.506-1.704-3.024-2.549-4.371c-2.061,0.74-4.176,1.178-6.13,0.947
	c-4.755-0.562-1.62-5.193,1.088-7.767c-4.89-8.136-7.904-18.482-6.47-28.05c-4.279,0.018-8.178-1.27-11.111-4.838
	c-0.714-0.869,2.069-1.887,2.693-1.127c2.351,2.86,5.381,4.063,8.727,4.24c0.365-1.735,0.869-3.352,1.509-4.848l0.043-0.566
	c0,0,0.244-0.345,0.639-0.891c1.271-2.473,2.942-4.59,4.977-6.372c0.959-1.093,1.828-1.96,2.384-2.237c2-1,9.194-4.69,18.5-5.5
	c1.472-0.128,2.936-0.065,4.37,0.138c4.597,0.243,9.071,1.479,12.987,4.257c7.924,5.618,12.027,14.637,14.088,23.885
	c0.049,0.221-0.125,0.433-0.404,0.612c0.243,0.091,0.484,0.166,0.731,0.279c6.907,3.164,3.195,11.93-2.66,13.895
	c-0.223,5.185,0.075,10.464,3.021,14.724c0.313-0.041,0.608-0.021,0.829,0.091c2.83,1.443,7.446-0.51,10.313-1.063
	c2.56-0.494,5.088-0.729,7.698-0.81c6.005-0.186,10.529,0.847,15.218,4.771c9.972,8.346,18.408,18.939,23.658,30.892
	c0.647,0.171,1.066,0.663,0.588,1.387c0.09,0.217,0.188,0.432,0.276,0.649c0.297,0.736-0.8,1.344-1.743,1.358
	C271.019,394.12,274.115,406.79,274.608,408.383z M166.219,349.73c0.473-0.278,3.378-0.712,2.192-0.014
	c-1.204,0.709-2.58,1.483-4.038,2.181c2.023,3.268,3.828,8.112,7.168,10.254c4.405,2.824,8.066,0.628,12.602,0.195
	c6.74-0.645,6.54,6.138,7.225,11.234c0.018,0.135-0.002,0.26-0.04,0.381c7.682,5.207,16.55-10.895,16.488-17.693
	c-0.002-0.287,0.217-0.533,0.532-0.726c-3.656-4.764-3.92-10.909-3.618-16.827c0.034-0.66,1.125-1,1.627-1.055
	c5.217-0.561,6.685-9.713,1.244-11.071c-5.246-1.31-7.332,3.24-7.813,7.628c-0.024,0.217-0.159,0.409-0.356,0.57
	c0.038,0.105,0.083,0.199,0.12,0.307c0.261,0.766-1.043,1.394-1.999,1.324c-0.035,0.077-0.054,0.119-0.054,0.119v-0.126
	c-0.398-0.04-0.729-0.204-0.844-0.542c-2.309-6.796-7.507-9.011-12.842-13.14c-4.274-3.309-7.324-7.27-9.008-12.297
	c-5.623,2.351-13.022,5.987-20,7.274l-0.806,0.33l-0.551-0.11c-0.134,0.019-0.268,0.034-0.402,0.052
	c-0.468,3.726-0.257,7.666,0.466,11.548c0.385-0.275,0.976-0.402,1.339-0.472c1.905-0.358,3.816-0.419,5.75-0.42
	c0.339,0,1.181,0.123,0.729,0.641c-0.429,0.491-1.299,0.735-1.928,0.736c-1.694,0-3.356,0.034-5.026,0.35
	c-0.111,0.021-0.419,0.048-0.699,0.018c1.046,5.084,2.948,10.021,5.322,14.191c0.941-0.225,2.688-0.396,1.714,0.141
	c-0.262,0.145-0.679,0.461-1.163,0.887c-0.016,0.17-0.252,0.367-0.583,0.539c-2.117,2.046-4.768,5.555-2.02,6.587
	c1.351,0.507,3.045,0.126,4.696-0.556c0.302-0.479,1.061-0.811,1.714-0.807C164.437,350.8,165.433,350.193,166.219,349.73z
	 M142.004,381.376c1.105,0.611,2.131,1.479,2.959,2.409c0.18-0.088,0.393-0.173,0.683-0.244c5.205-1.27,11.359-2.737,17.491-3.29
	c-0.16-1.805-1.186-3.646-1.897-5.512c-1.06-2.779-1.177-5.124,0.511-7.659c0.444-0.667,3.311-1.055,2.661-0.078
	c-2.938,4.413,1.578,8.849,1.617,13.068c5.032-0.195,9.948,0.342,14.199,2.261c0.09,0.059,0.11,0.136,0.062,0.231
	c-0.006,0.01-0.013,0.019-0.019,0.028c0.136,0.124,0.223,0.289,0.226,0.513c0.072,6.866,0.261,14.521-3.599,19.527
	c2.192,1.813,3.425,6.69,4.124,8.542c1.933,5.121,3.77,10.338,5.191,15.634c7.436-3.818,15.981,4.214,23.321,6.124
	c0.101-0.312,0.442-0.641,1.07-0.836c9.905-3.082,20.753-3.576,30.916-5.547c5.082-0.986,12.032-2.281,9.516-9.361
	c-1.858-5.23-5.78-9.574-7.498-14.835c-2.087,0.338-4.192,0.606-6.287,0.831c-1.195,0.129-1.461-0.657-1.119-1.334
	c-0.116-0.032-0.197-0.084-0.217-0.166c-2.542-10.283-9.783-19.595-16.854-27.233c-0.383-0.414,2.268-1.468,2.737-0.961
	c7.114,7.685,14.396,16.977,16.985,27.312c10.129-1.17,20.285-3.431,26.943-11.667c-2.76-6.431-6.482-12.47-10.872-17.917
	c-4.354-5.403-9.804-12.334-16.097-15.531c-6.228-3.163-13.682-1.549-20.202-0.246c-2.008,0.4-4.206,0.931-6.305,0.814
	c-0.205,0.422-0.949,0.787-1.647,0.87c-1.295,9.816-14.036,26.886-23.469,16.625c-0.394-0.428,0.355-0.953,1.181-1.19
	c-0.257-3.572-0.692-9.073-5.262-8.023c-3.122,0.717-5.842,1.405-9.06,1.088c-4.375-0.431-7.034-3.688-9.216-7.247
	c-0.372,0.185-0.776,0.322-1.046,0.331c-11.662,0.395-16.282,12.957-20.379,21.962C143.195,381.007,142.608,381.252,142.004,381.376
	z M183.385,428.913c0.087-0.089,0.177-0.163,0.265-0.247c-0.042-0.071-0.075-0.151-0.098-0.239
	c-1.088-4.201-2.492-8.344-3.946-12.43c-0.47-1.319-3.364-9.831-4.433-11.548c-1.575,1.345-3.607,2.38-6.229,2.998
	c-0.358,0.085-0.718,0.149-1.078,0.216c-0.529,0.099-1.058,0.178-1.587,0.237c-1.141,0.128-2.279,0.174-3.4,0.117
	c-1.989,2.765-4.323,5.596-5.261,8.927c-0.054,0.191-0.182,0.359-0.349,0.504c1.042,3.35,2.09,6.697,3.173,10.034
	c0.89,2.741,1.775,5.485,2.74,8.201c0.295,0.829,0.558,2.18,1.08,3.062c0.215,0.077,0.386,0.205,0.476,0.394
	c1.644,0.013,3.288,0.027,4.931,0.039c-0.371-0.593-0.615-1.342-0.673-2.279c-0.286-4.597,3.421-7.393,7.753-7.501
	c0.115-0.003,0.256,0.016,0.393,0.051c1.281-1.1,2.953-1.786,4.943-1.836c1.978-0.049,1.325,1.977-0.285,2.018
	c-3.116,0.078-4.591,2.887-4.565,5.763c0.01,1.082,0.19,2.415,0.921,3.271c0.706,0.825,1.139,0.263,1.814-0.427
	c0.019-0.02,0.043-0.035,0.064-0.053C179.123,435.32,181.814,430.502,183.385,428.913z M175.837,430.898
	c-0.083,0.008-0.171,0.022-0.25,0.024c-4.501,0.112-4.413,6.983-1.998,8.281c0.483,0.004,0.966,0.006,1.449,0.009
	c-0.407-0.769-0.625-1.661-0.686-2.473C174.19,434.553,174.732,432.503,175.837,430.898z M161.75,384.015
	c0.734-0.764,1.133-1.537,1.306-2.319c-3.632,0.217-7.233,0.688-10.807,1.35c-2.132,0.396-4.256,0.85-6.371,1.365
	c-0.129,0.031-0.233,0.042-0.345,0.06c0.412,0.539,0.75,1.082,0.991,1.589c0.071,0.149,0.136,0.298,0.206,0.447
	c0.006-0.003,0.012-0.005,0.019-0.009c0.618-0.27,1.419-0.481,1.745-0.381c7.428,2.292,19.415,2.895,26.453-0.812
	c3.032-1.597,1.845-2.595-0.834-3.097c-2.396-0.449-4.825-0.675-7.263-0.654c-0.342,0.003-0.682,0.02-1.023,0.027
	c-0.231,0.795-0.67,1.58-1.415,2.355C163.858,384.513,161.008,384.788,161.75,384.015z M147.191,387.511
	c1.5,3.308,2.76,6.604,3.902,9.984c0.315,0.063,0.572,0.217,0.689,0.488c3.215,7.499,13.319,11.063,20.345,6.219
	c0.576-0.396,1.075-0.83,1.542-1.277c0.108-0.352,0.396-0.687,0.825-0.862c3.829-4.51,3.313-10.966,3.131-16.846
	c-2.979,1.89-7.224,2.54-10.255,2.941C160.824,389.024,153.654,389.252,147.191,387.511z M153.347,404.634
	c0.916,3.045,1.842,6.088,2.776,9.129c1.145-2.131,2.634-4.088,4.043-6.051c0.007-0.01,0.017-0.017,0.024-0.026
	C157.678,407.196,155.331,406.192,153.347,404.634z M92.928,438.634c22.701,0.012,45.401,0.281,68.101,0.475
	c-0.957-1.911-1.444-4.646-1.987-6.28c-2.083-6.265-4.063-12.564-6-18.876c-1.98-6.454-3.411-13.368-6.039-19.586
	c-0.966-2.285-1.964-4.559-3.029-6.8c-0.773-1.628-3.499-5.583-5.647-4.92c-0.735,0.228-1.248,0.021-1.477-0.333
	c-21.191,0-42.382,0-63.573,0c-0.056,0.093-0.128,0.189-0.239,0.293c-2.855,2.677,1.169,9.921,2.344,12.841
	c2.278,5.667,4.548,11.339,6.826,17.007c2.557,6.361,5.112,12.725,7.715,19.067c0.898,2.188,1.793,4.377,2.726,6.55
	C92.735,438.271,92.831,438.456,92.928,438.634z M197.086,441.443c-34.391-0.017-68.779-0.631-103.17-0.662
	c0.01,0.065,0.018,0.132,0.013,0.206c-0.001,0.014-0.001,0.028-0.002,0.042c-0.018,0.269-0.165,0.49-0.369,0.67
	c2.986,5.853,19.711,3.73,24.433,3.813c11.596,0.202,23.191,0.46,34.787,0.695c10.767,0.22,21.535,0.449,32.304,0.529
	c3.455,0.025,11.184,1.239,11.629-3.613C196.768,442.51,196.859,441.926,197.086,441.443z M196.106,439.296
	c-1.346-1.987-2.894-3.66-5.588-4.152c-1.139,1.293-2.509,3.025-4.11,4.129C189.641,439.284,192.874,439.293,196.106,439.296z
	 M275.804,427.084c-0.419-4.607-1.469-9.11-2.771-13.542c-1.315-4.475-2.7-8.938-4.286-13.325c-0.706-1.953-1.405-3.928-2.289-5.81
	c-0.249-0.531-0.493-1.076-0.794-1.581c-5.262,5.019-12.012,7.541-19.13,8.98c2.164,5.847,8.208,11.331,7.93,17.689
	c-0.197,4.521-3.967,6.614-7.912,7.571c-11.649,2.825-24.105,2.986-35.544,6.545c-0.568,0.177-0.974,0.12-1.226-0.038
	c-0.614,0.339-1.687,0.698-2.093,0.608c-6.129-1.345-11.734-7.381-18.1-7.225c-1.113,0.027-2.293,0.637-3.359,1.561
	c-0.091,0.079-0.18,0.163-0.27,0.246c-2.094,1.958-3.654,5.097-3.17,7.332c1.112,5.135,3.652,0.814,5.536-1.207
	c0.252-0.27,1.161-0.498,1.857-0.554c0.544-0.365,1.486-0.706,1.904-0.643c5.869,0.881,6.255,5.94,10.162,9.381
	c4.776,4.207,11.964,4.236,17.985,3.962c5.651-0.257,11.269-0.922,16.923-1.133c8.898-0.331,18.099-0.265,26.796-2.403
	C272.631,441.366,276.602,435.869,275.804,427.084z M195.769,222.454c-8.57-21.477-4.945-48.422,16.514-60.558
	c22.76-12.872,57.952-6.626,67.945,19.821c6.715,17.771,2.041,40.629-10.353,54.845c-1.974,2.264-4.063,4.455-6.368,6.389
	c-2.118,1.776-7.319,4.334-8.325,6.878c-1.68,4.244-0.564,8.972-1.176,13.428c-1.108,8.074-5.745,12.688-13.803,13.489
	c-0.126,0.013-0.247,0.033-0.375,0.044c-0.116,0-0.234,0.001-0.351,0.002c-4.299,0.021-9.123,0.373-12.878-2.091
	c-2.386-1.565-3.907-3.704-4.858-6.131c-0.145-0.146-0.206-0.326-0.198-0.516c-0.729-2.063-1.069-4.317-1.186-6.601
	c-0.118-2.314,0.279-5.193,0.013-7.711c-0.535-0.135-0.476-0.525-0.144-0.91c-0.097-0.523-0.219-1.032-0.405-1.502
	c-1.717-4.339-7.788-6.945-11.133-10.202C203.21,235.798,198.618,229.593,195.769,222.454z M251.177,253.795
	c-9.302,0-18.604,0-27.905,0c0.106,2.168-0.126,4.414-0.022,6.463c0.106,2.082,0.352,4.458,1.021,6.643c4.34,0,8.681,0,13.021,0
	c1.972,0,1.312,1.986-0.294,1.986c-3.985,0-7.971,0-11.957,0c0.92,1.925,2.302,3.542,4.408,4.419
	c3.47,1.445,6.945,1.256,10.607,1.256c6.238-0.52,10.023-3.96,10.871-10.131c0.236-1.717,0.174-3.563,0.118-5.408
	c-0.567,0.315-1.421,0.637-1.747,0.637c-6.03,0-12.06,0-18.089,0c-1.449,0,1.225-1.236,1.864-1.236c5.985,0,11.97,0,17.955,0
	C250.985,256.845,250.971,255.275,251.177,253.795z M208.094,236.512c2.611,2.818,5.44,5.45,8.567,7.694
	c2.114,1.516,4.123,2.475,5.414,4.777c0.524,0.935,0.827,1.943,1.003,2.989c1.695,0,3.391,0,5.086,0
	c-0.107-0.124-0.176-0.279-0.176-0.481c0-3.593,0-7.186,0-10.777c0-0.07,0.012-0.139,0.033-0.204
	c-2.391,0.223-5.168-0.236-6.458-2.456c-1.141-1.963-1.116-4.306-0.377-6.41c0.688-1.957,2.241-3.998,4.41-4.394
	c1.782-0.325,3.234,0.206,4.433,1.212c1.348-1.468,3.49-2.213,5.423-2.362c2.13-0.163,4.708,0.139,6.263,1.782
	c0.46,0.486,0.761,1.018,0.944,1.573c2.343-1.293,5.814-0.915,7.572,1.56c1.752,2.467-0.377,6.533-2.672,7.87
	c-2.265,1.32-4.75,1.998-4.367,5.286c0.251,2.161,0.729,4.272,1.172,6.4c0.248,1.191-2.657,1.931-2.897,0.775
	c-0.941-4.52-3.006-10.691,2.643-12.806c2.302-0.861,5.571-4.71,2.88-7.029c-1.91-1.647-4.075-0.93-3.78,1.739
	c0.065,0.592-0.574,1.053-1.268,1.248c-0.479,0.887-3.302,1.162-2.691-0.146c0.771-1.652,1.255-3.883-0.22-5.31
	c-1.016-0.981-2.56-1.377-3.948-1.237c-1.147,0.115-2.434,0.473-2.991,1.66c-0.181,0.386-0.232,0.78-0.211,1.173
	c0.017,0.026,0.035,0.05,0.052,0.075c0.152,0.239,0.161,0.471,0.078,0.683c0.332,1.074,1.172,2.085,1.856,2.816
	c0.81,0.865-1.952,1.944-2.684,1.162c-0.952-1.018-1.936-2.394-2.17-3.813c-0.539-0.816-1.164-1.639-2.009-2.133
	c-0.28-0.164-0.576-0.317-0.899-0.333c0.072,0.004-0.303,0.069-0.237,0.038c-1.021,0.486-1.792,2.052-2.064,3.268
	c-0.329,1.474-0.384,3.275,0.523,4.575c1.164,1.667,3.018,1.767,4.883,1.452c0.517-0.086,1.416,0.173,1.313,0.853
	c-0.024,0.159-0.09,0.293-0.177,0.412c0.327,0.114,0.558,0.344,0.558,0.728c0,3.593,0,7.186,0,10.777c0,0.314-0.232,0.58-0.56,0.774
	c7.076,0,14.152,0,21.229,0c1.459-4.966,4.936-6.203,8.839-9.478c4.887-4.1,9.297-8.908,12.404-14.52
	c8.506-15.365,11.257-37.652,0.635-52.804c-16.859-24.047-59.905-23.852-74.151,3.067
	C189.642,196.491,194.296,221.616,208.094,236.512z M177.63,237.294c4.131-0.438,8.217-1.164,12.289-1.974
	c1.135-0.226,2.575-1.456,0.544-1.053c-3.836,0.762-7.682,1.464-11.573,1.876C178.155,236.222,175.73,237.495,177.63,237.294z
	 M161.572,213.444c6.287,0,12.573,0,18.859,0c1.28,0,3.006-1.943,1.047-1.943c-6.287,0-12.573,0-18.859,0
	C161.339,211.501,159.613,213.444,161.572,213.444z M179.43,191.284c0.943,0.473,3.575-0.853,2.279-1.5
	c-4-2.001-8.093-4.023-11.347-7.154c-0.81-0.779-3.553,0.344-2.677,1.186C171.068,187.071,175.269,189.203,179.43,191.284z
	 M279.903,234.237c-0.675-0.135-3.182,0.955-2.384,1.113c4.038,0.803,8.086,1.519,12.182,1.953c0.61,0.064,3.328-1.017,1.883-1.17
	C287.658,235.718,283.773,235.006,279.903,234.237z M287.425,213.444c6.287,0,12.573,0,18.859,0c1.28,0,3.006-1.943,1.047-1.943
	c-6.287,0-12.573,0-18.859,0C287.191,211.501,285.465,213.444,287.425,213.444z M288.931,191.224
	c4.291-2.146,8.64-4.337,12.128-7.694c1.258-1.21-1.59-1.354-2.36-0.613c-3.149,3.029-7.092,4.992-10.963,6.929
	C285.948,190.739,287.578,191.9,288.931,191.224z M336.781,291.692c-0.017-0.692-0.704-0.869-1.302-0.811
	c-0.492,0.047-1.633,0.418-1.618,1.092c0.026,1.109,0.315,2.142,1.148,2.922c0.82,0.769,1.943,1.143,3.056,1.166
	c0.682,0.014,1.539-0.198,1.898-0.848c0.332-0.6-0.283-1.053-0.842-1.064C337.817,294.123,336.814,293.106,336.781,291.692z
	 M350.32,286.323c1.837-0.582,3.765-1.638,4.296-3.639c0.571-2.15-0.844-3.998-2.372-5.338c-1.009-0.885-3.507,0.586-2.223,1.713
	c1.884,1.652,2.68,4.27-0.255,5.199C348.006,284.816,348.536,286.888,350.32,286.323z M332.291,278.037
	c0.711,0.224,1.528-0.043,2.049-0.549c0.6-0.583,1.188-1,1.925-1.021c0.607-0.018,1.51-0.445,1.61-1.12
	c0.108-0.731-0.798-0.874-1.315-0.86c-1.808,0.051-3.357,1.024-4.618,2.249C331.461,277.204,331.689,277.849,332.291,278.037z
	 M318.638,290.158c0.023,0.001,0.039,0,0.078,0.002c0.139,0.006,0.295,0.069,0.421,0.126c0.349,0.157,0.645,0.42,0.917,0.682
	c0.557,0.537,3.197-0.543,2.729-0.994c-1.207-1.164-2.658-1.138-4.214-0.783c-0.255,0.058-1.445,0.403-1.325,0.852
	C317.348,290.433,318.219,290.257,318.638,290.158z M507.949,240.863c-4.046,10.155-5.495,21.992-7.845,32.608
	c-7.021,31.73-13.673,63.545-20.129,95.395c-2.712,13.381-5.405,26.769-7.919,40.189c-0.792,4.229-1.586,8.459-2.264,12.708
	c-0.119,0.742-1.04,4.306-0.613,4.802c0.402,0.468-2.289,1.488-2.735,0.969c-0.168-0.195-0.258-0.514-0.301-0.9
	c-2.885,0.479-7.2-0.203-8.932-0.209c-9.487-0.03-18.974-0.145-28.46-0.257c-18.435-0.218-36.874-0.581-55.311-0.608
	c1.132,3.896,2.421,7.741,3.979,11.461c0.556,1.326-2.326,2.143-2.897,0.777c-1.532-3.659-2.833-7.443-3.971-11.287
	c-6.78,3.881-16.436,3.402-23.768,2.805c-7.998-0.652-16.96-1.68-24.374-5.213c-3.983,5.948-7.245,12.916-6.96,20.215
	c0.041,1.052-2.865,1.61-2.897,0.775c-0.303-7.767,3.16-15.092,7.442-21.387c0.125-0.184,0.404-0.341,0.739-0.457
	c-0.038-0.021-0.077-0.039-0.115-0.061c-0.26-0.031-0.416-0.112-0.357-0.249c0.003-0.007,0.005-0.014,0.008-0.021
	c-0.22-0.293-0.023-0.631,0.359-0.907c0.046-0.116,0.093-0.231,0.138-0.348c2.045-5.254,2.951-10.685,2.953-16.15
	c0.002-5.577-0.92-11.188-2.522-16.679c-2.496-8.553-5.827-16.846-7.319-25.608c-0.64,1.323-1.555,2.532-3.008,3.555
	c-3.981,2.802-8.493,5.137-13.057,6.821c-9.113,3.365-20.679-0.085-25.645-8.82c-1.453-2.557-1.991-4.974-1.268-7.88
	c0.392-1.575,1.5-3.72,0.787-5.328c-2.002-4.511-7.087-7.229-9.803-11.386c-3.765-5.76-4.621-13.26-3.115-20.148
	c0.308-2.78,1.339-5.357,2.858-7.722c0.386-0.705,0.791-1.396,1.235-2.056c2.892-4.291,6.65-8.018,11.194-10.557
	c4.485-2.506,9.618-4.242,13.646-7.494c10.311-8.322,5.886-22.984,8.474-34.438c1.906-8.436,6.429-16.014,15.157-17.662
	c0.546-0.303,0.958-0.504,1.168-0.574c0.396-0.132,2.015-0.054,4.176,0.131c9.275-0.151,18.38,2.175,27.637,0.626
	c2.385-0.399,5.566-0.853,8.607-0.722c0.026-0.012,0.057-0.023,0.08-0.035c0.738-0.369,1.478-0.258,2.316,0.276
	c3.692,0.626,6.749,2.483,7.231,6.906c0.612,5.618-2.466,10.247-7.336,12.392c0.042,0.048,0.077,0.101,0.097,0.164
	c0.027,0.087,0.056,0.174,0.083,0.26c0.212,0.085,0.263,0.236,0.132,0.412c2.382,7.472,5.14,15.013,6.138,22.819
	c0.656,5.128,1.155,11.622-3.023,15.507c-4.012,3.729-9.957,4.354-13.884,8.05c-4.059,3.82-2.188,9.432-2.29,14.484
	c10.496,4.468,13.79,22.526,21.45,30.927c0.163,0.18,0.207,0.361,0.171,0.536c0.977-0.519,1.963-1.027,2.913-1.569
	c-0.253-0.011-0.419-0.057-0.413-0.141c0.391-5.232,2.016-10.623,3.036-15.754c2.343-11.779,4.732-23.551,7.17-35.311
	c2.567-12.383,5.163-24.762,7.94-37.1c1.556-6.916,2.688-14.386,5.321-21.005c0.022-0.057,0.064-0.108,0.115-0.159
	c-0.407-0.445,0.988-1.497,1.868-1.498c19.242-0.013,38.484-0.436,57.726-0.545c19.038-0.109,38.333-0.655,57.317,1.09
	c0.594,0.055,0.827,0.242,0.835,0.475C507.949,240.785,507.967,240.819,507.949,240.863z M297.628,372.536
	c-2.102,0.566-4.477,0.973-7.071,1.027C292.902,373.708,295.232,373.339,297.628,372.536z M352.144,260.094
	c0.088-0.021,0.177-0.041,0.264-0.063c-0.001-0.005,0-0.009-0.001-0.014C352.326,260.042,352.23,260.069,352.144,260.094z
	 M316.187,293.005c0.611,0.691,1.404,1.371,1.884,2.161c1.136,1.87,2.775,0.56,4.213,1.367c1.345,0.754,1.642,6.195,1.811,7.565
	c0.308,2.505,0.114,4.959,0.039,7.471c1.762,3.534,4.625,6.134,6.962,9.403c0.054-0.023,0.104-0.048,0.163-0.068
	c3.152-1.081,5.876-1.335,8.265-0.953c-0.257-3.786-1.382-8.638,0.71-11.497c3.136-4.287,7.881-5.511,12.349-7.914
	c9.928-5.343,7.111-18.631,3.525-29.659c-0.426,0.441-1.118,0.604-1.698,0.604c-0.909,0-1.817,0-2.726,0
	c-0.534,0-1.17-0.415-0.825-1c0.374-0.634,1.227-0.83,1.902-0.83c0.909,0,1.817,0,2.726,0c0.075,0,0.15,0.01,0.226,0.025
	c-1.083-3.24-2.192-6.242-3.016-8.74c-7.633,1.873-16.418,3.29-23.905,0.576c0.166,2.16,0.136,4.403-0.076,6.66
	c1.617-0.95,3.469-1.406,5.357-1.439c1.967-0.035,1.453,2.184-0.232,2.213c-1.484,0.027-2.889,0.322-4.091,1.232
	c-0.357,0.271-0.854,0.436-1.326,0.41c-0.753,4.972-2.377,9.867-4.762,13.893c-0.061,0.102-0.169,0.19-0.305,0.27
	c0.436,0.283,0.87,0.613,1.307,1.032c0.881,0.846-1.861,1.972-2.677,1.189C318.379,283.515,313.896,290.417,316.187,293.005z
	 M369.998,424.569c-1.512-5.39-2.727-10.875-3.781-16.293c-1.733-8.906-3.843-18.957-2.078-28.023
	c0.054-0.276,0.22-0.508,0.443-0.693c-4.816,1.406-9.655,1.256-14.454-1.59c-7.796-4.623-15.337-11.912-18.981-20.32
	c-0.47-1.084,2.392-1.943,2.897-0.777c3.398,7.842,10.881,15.518,18.35,19.547c7.796,4.205,14.927,1.01,21.66-3.793
	c11.946-8.522,21.275-19.842,31.169-30.531c-1.175-5.08-3.869-9.67-8.276-12.532c-4.992,4.696-10.027,9.068-15.347,13.055
	c-2.648,1.985-5.366,3.877-8.187,5.663c-3.02,1.911-6.156,3.705-9.446,5.37c-0.677,0.343-3.238,0.447-1.793-0.348
	c-0.371-0.001-0.71-0.099-0.922-0.331c-4.648-5.098-7.779-15.123-12.365-22.418c-1.38-2.195-2.896-4.135-4.621-5.626
	c-0.625-0.54-1.278-1.022-1.963-1.434c-1.473-0.882-3.094-1.437-4.899-1.573c-1.596-0.121-3.34,0.093-5.252,0.7
	c2.265,3.874,2.884,8.19,1.85,12.677c-1.023,4.438-3.242,8.379-6.685,11.4c-1.65,1.448-3.389,2.793-5.255,3.955
	c-0.57,0.355-1.317,0.725-2.091,1.133c-1.547,1.284-2.894,2.44-3.794,3.222c-0.028,0.073-0.062,0.145-0.083,0.22
	c-0.182,0.623-0.333,1.248-0.474,1.869c0.294,0.014,0.5,0.084,0.511,0.229c0.907,11.961,6.262,22.608,8.861,34.172
	c2.324,10.339,2.407,20.52-1.648,30.387c6.898,3.662,15.625,4.82,23.258,5.443C353.7,427.905,363.74,428.913,369.998,424.569z
	 M406.336,312.459c0.528-0.472,1.036-0.965,1.531-1.47c-0.09-0.024-0.171-0.057-0.229-0.109c-3.631-3.287-8.051,4.381-8.793,7.316
	c-0.316,1.248-2.121,8.074-0.597,9.094c-0.05,0.012-0.101,0.022-0.151,0.033c0.21,0.021,0.333,0.074,0.318,0.164
	c0.067,0.021,0.132,0.048,0.189,0.082c4.477,2.646,7.464,6.954,8.997,11.822c0.188-0.064,0.371-0.105,0.531-0.107
	c3.424-0.034,15.383-11.865,11.986-15.134c-0.376,0.152-0.786,0.238-1.163,0.254c-0.303,0.013-1.212-0.13-0.723-0.619
	c1.281-1.282,5.455-5.426,2.074-6.389c-0.165,0.028-0.332,0.044-0.5,0.042c-0.359-0.004-1.267-0.286-0.775-0.813
	c0.753-0.807,1.107-1.988,1.16-3.076c0.025-0.534-0.016-1.155-0.283-1.635c-0.07-0.126-0.2-0.309-0.336-0.369
	c-0.04-0.018-0.053-0.024-0.074-0.033c-0.313,0.106-0.739,0.229-1.13,0.22c-0.27,0.355-0.534,0.717-0.827,1.049
	c-0.844,0.954-3.625,0.55-2.415-0.818c1.318-1.491,2.332-3.282,3.219-5.056c0.766-1.531,1.844-3.424,1.907-5.199
	c-0.284,0.18-0.56,0.371-0.828,0.579c-1.526,1.188-2.902,2.521-4.186,3.967c-2.275,2.561-4.429,5.196-6.991,7.482
	C407.183,314.687,404.871,313.767,406.336,312.459z M443.805,299.059c0.173,0,0.347,0.049,0.5,0.128
	c4.241-5.1,11.438-14.777,6.469-21.574c-3.948-5.399-11.627-6.119-17.768-5.109c-8.722,1.434-16.415,5.824-20.174,14.136
	c-3.015,6.665-3.722,13.972-1.966,21.045c2.063-2.38,4.105-4.779,6.647-6.674c1.205-0.897,4.162-2.898,5.422-0.979
	c0.684,1.041,0.193,2.73-0.403,4.156c0.212-0.024,0.419-0.016,0.612,0.022c-0.001-0.033-0.003-0.066-0.005-0.1
	c-1.448-0.033,0.763-0.286,1.273-0.419c1.403-0.365,2.804-0.736,4.201-1.122c3.063-0.844,6.158-1.661,9.144-2.751
	c0.345-0.126,0.706-0.143,1.028-0.086c0.411-0.502,1.135-0.673,1.747-0.673C441.624,299.059,442.714,299.059,443.805,299.059z
	 M442.748,300.967c-1.056,0-2.112,0-3.169,0c-0.134,0.118-0.325,0.231-0.598,0.331c-3.459,1.264-7.023,2.243-10.576,3.205
	c-1.938,0.525-4.276,1.556-6.323,1.509c-0.141-0.003-0.257-0.026-0.362-0.059c-0.008,0.017-0.017,0.036-0.025,0.053
	c-0.535,1.139-1.115,2.289-1.763,3.397c0.056-0.022,0.107-0.047,0.168-0.066c4.465-1.389,8.954-2.717,13.379-4.229
	c3.005-1.027,7.367-2.002,9.899-4.205C443.165,300.942,442.95,300.967,442.748,300.967z M420.254,301.335
	C420.233,301.138,420.195,301.231,420.254,301.335L420.254,301.335z M466.18,425.085c-0.027,0.025-0.053,0.042-0.081,0.07
	c0.022-0.023,0.053-0.043,0.08-0.064C466.18,425.089,466.18,425.087,466.18,425.085z M504.914,241.894
	c-18.644-1.631-37.579-1.124-56.265-1.009c-18.649,0.114-37.297,0.501-55.947,0.536c-2.48,6.479-3.609,13.723-5.116,20.447
	c-2.69,11.998-5.23,24.029-7.726,36.067c-2.458,11.853-4.873,23.715-7.234,35.587c-1.013,5.094-2.6,10.438-3.079,15.644
	c9.552-5.808,17.879-12.818,26.139-20.693c0.021-0.021,0.052-0.04,0.082-0.06c-0.085-0.028-0.169-0.059-0.242-0.107
	c-1.158-0.775-0.395-4.849-0.252-5.918c0.417-3.131,1.195-6.021,3.164-8.544c2.08-2.664,6.018-6.03,9.574-5.233
	c-4.731-18.558,7.243-36.279,26.5-38.116c6.841-0.653,15.423,0.132,19.359,6.615c4.636,7.638-2.703,17.364-7.351,22.927
	c-0.119,0.142-0.295,0.254-0.498,0.34c0.478,0.225,0.672,0.639,0.11,1.184c-2.525,2.446-6.258,3.573-9.504,4.716
	c-4.631,1.63-9.322,3.07-14.011,4.521c0.193,0.26,0.336,0.587,0.407,0.999c0.237,1.381-0.047,3.036-0.839,4.256
	c1.681,0.422,2.985,1.441,2.063,3.357c-0.551,1.145-1.35,2.137-2.211,3.067c0.013,0.007,0.03,0.011,0.042,0.019
	c1.718,1.074,1.754,2.792,1.074,4.588c9.414,2.298,19.457,7.013,24.746,15.529c4.947,7.967,5.416,17.998,0.735,26.291
	c-4.932,8.738-13.89,15.408-23.416,18.49c-10.978,3.551-18.785-0.793-28.02-6.642c-1.136-0.719,1.554-1.847,2.316-1.363
	c3.742,2.369,7.54,5.121,11.731,6.652c6.463,2.36,12.487,0.945,18.45-2.206c8.678-4.586,16.594-11.563,18.658-21.61
	c3.594-17.501-10.642-29.269-26.059-33.385c-1.132,1.933-2.738,3.742-3.613,4.717c-2.361,2.632-5.699,5.908-9.385,6.973
	c0.069,0.185,0.008,0.422-0.27,0.718c-11.911,12.707-23.321,28.307-39.26,36.246c-1.022,0.509-2.046,0.957-3.071,1.35
	c-0.197,0.076-0.393,0.156-0.59,0.227c0.112,0.005,0.217,0.022,0.318,0.047c0.454,0.108,0.766,0.41,0.661,0.951
	c-1.888,9.701,0.527,20.547,2.565,30.043c0.985,4.588,2.041,9.214,3.307,13.777c0.092-0.018,0.183-0.03,0.268-0.03
	c17.762,0.011,35.525,0.362,53.286,0.575c9.343,0.113,18.686,0.229,28.029,0.28c3.066,0.017,6.132,0.036,9.198,0.011
	c0.831-0.007,1.662-0.017,2.493-0.04c0.307-2.19,1.122-4.893,1.277-5.781c1.233-7.054,2.587-14.086,3.957-21.114
	c6.162-31.604,12.722-63.135,19.455-94.622c2.966-13.868,5.958-27.731,9.114-41.558
	C501.506,255.158,502.527,248.116,504.914,241.894z" fill="#000000"></path>
</svg>