<?xml version="1.0" standalone="no"?>
<svg version="1.1" id="Layer_1" xmlns="http://www.w3.org/2000/svg" xmlns:xlink="http://www.w3.org/1999/xlink" x="0px" y="0px" width="595.28px" height="595.28px" viewBox="0 0 595.28 595.28" enable-background="new 0 0 595.28 595.28" xml:space="preserve">
<path id="color_x5F_6" fill="#417505" d="M230.771,362.518h-9.749c0.049-1.028,2.402-1.948,4.121-2.482
	c-2.746-0.319-10.055-2.506-10.555-5.728c-0.592-3.815,9.387-1.276,5.17-2.542c-4.217-1.264-14.055-9.24-11.236-14.994
	c2.57-5.241,6.822-1.642,15.697,10.49c2.35,3.209,4.203,3.324,4.203,3.324s-3.369-4.762-0.971-8.765
	c0.387-0.649,0.801-0.775,1.223-0.538c0.414,0.817,0.943,1.604,1.588,2.336c0.598,1.345,1.16,3.062,1.634,4.694
	c0.586-0.018,1.09,0.105,1.521,0.327c0.316-0.519,0.794-0.956,1.488-1.241c-0.211-1.529-0.376-3.115-0.387-4.438
	c0.279-0.936,0.438-1.869,0.473-2.784c0.287-0.393,0.715-0.449,1.338-0.019c3.842,2.647,2.75,8.379,2.75,8.379
	s1.641-0.874,2.447-4.769c0.805-3.896,1.379-15.638,6.334-11.572c4.951,4.064,2.906,10.92-0.408,13.82
	c-3.313,2.9,4.717-3.551,5.76,0.168c0.881,3.14-4.863,8.16-7.229,9.59c2.604-0.33,6.77-0.477,3.877,2.557
	c-3.031,3.175-7.803,3.981-10.008,4.186h-5.813H230.771z"></path>
<path id="color_x5F_5" fill="#FFD2BB" d="M411.455,389.999c-0.101-0.564-0.204-1.128-0.317-1.691
	c0.113,0.563,0.221,1.127,0.322,1.691H411.455z M381.031,232.207l-0.046,0.021c0,0,0.014,0.003,0.037,0.008
	C381.025,232.226,381.028,232.216,381.031,232.207z M378.335,292.968l-9.914-11.596l-0.064-0.076h6.141v-10.617h-3.949
	c-9.398,0-10.492-7.613-10.492-17.015v-9.661c2.189-0.19,13.186-1.231,20.417-3.438c0.214,0.495,0.481,0.964,0.856,1.373
	c3.648,3.984,3.73,6.713,3.73,8.348c0,1.363,0.307,3.211,0.409,3.795c0.021,0.117,0.036,0.201,0.036,0.201s0.021-0.084,0.05-0.201
	c0.3-1.197,2.052-7.834,3.839-6.804c0.582,0.335,1.049,1.001,1.426,1.86c1.723,3.938,1.518,12.033,1.518,12.033
	c-0.197,0.399-0.412,0.787-0.639,1.168v19.243l-0.393-0.004l-0.923,0.812l-1.854,1.627L378.335,292.968z M364.995,246.815
	c-0.594-0.063-1.141,0.661-1.232,1.617c-0.094,0.96,0.314,1.786,0.895,1.85c0.592,0.063,1.137-0.663,1.234-1.618
	C365.987,247.707,365.579,246.88,364.995,246.815z M377.239,246.815c-0.594-0.063-1.141,0.661-1.23,1.617
	c-0.094,0.96,0.313,1.786,0.895,1.85c0.592,0.063,1.135-0.663,1.23-1.618C378.231,247.707,377.821,246.88,377.239,246.815z
	 M416.751,342.108c-0.477,0.463-1.043,1.244-1.661,2.229c-3.84,6.12-9.771,20.478-9.771,20.478s-0.375,0.796-0.972,2.113
	c-0.192-0.463-0.385-0.918-0.573-1.359c0.188,0.441,0.381,0.897,0.573,1.361c-0.78,1.725-1.941,4.344-3.144,7.258
	c-0.508-0.094-1.029-0.149-1.564-0.149c-4.693,0-8.5,3.806-8.5,8.5c0,3.218,1.789,6.017,4.426,7.46
	c0.324,0.178,0.664,0.327,1.012,0.462c0.951,0.368,1.981,0.578,3.063,0.578c1.082,0,2.112-0.21,3.063-0.578
	c0.348-0.135,0.688-0.284,1.012-0.462c2.044-1.119,3.568-3.056,4.154-5.367c0.621-0.684,1.248-1.396,1.881-2.145
	c0.089,0.327,0.181,0.651,0.266,0.979c-0.086-0.329-0.171-0.659-0.26-0.986c10.212-12.058,21.639-31.69,22.519-37.862
	c0.121-0.854-0.363-1.777-1.246-2.611C428.222,339.358,421.348,337.64,416.751,342.108z"></path>
<path id="color_x5F_4" fill="#8b572a" d="M452.14,394.499c0,2.48-1.662,4.5-3.723,4.5H146.862c-2.051,0-3.723-2.02-3.723-4.5
	c0-1.24,0.414-2.37,1.094-3.18c0.678-0.82,1.604-1.32,2.629-1.32h75.701h19.711h18.334h88.685h35.587h10.686
	c0.324,0.178,0.664,0.327,1.012,0.462c0.951,0.368,1.981,0.578,3.063,0.578c1.082,0,2.112-0.21,3.063-0.578
	c0.348-0.135,0.688-0.284,1.012-0.462h7.74h0.005h36.957C450.478,389.999,452.14,392.009,452.14,394.499z"></path>
<path id="color_x5F_3" fill="#000000" d="M378.134,248.664c-0.096,0.955-0.639,1.681-1.23,1.618c-0.582-0.063-0.988-0.89-0.895-1.85
	c0.09-0.956,0.637-1.681,1.23-1.617C377.821,246.88,378.231,247.707,378.134,248.664z M364.995,246.815
	c-0.594-0.063-1.141,0.661-1.232,1.617c-0.094,0.96,0.314,1.786,0.895,1.85c0.592,0.063,1.137-0.663,1.234-1.618
	C365.987,247.707,365.579,246.88,364.995,246.815z M349.293,389.999h-88.685c-1.119-1.174-1.811-2.759-1.811-4.509v-61.693v-7.404
	v-1.787c0-3.612,2.928-6.54,6.539-6.54h7.398h7.404h46.252h53.76c3.611,0,6.539,2.928,6.539,6.54v47.524v23.36
	c0,1.75-0.691,3.335-1.811,4.509H349.293z M329.292,350.479c0-3.313-2.688-6-6-6c-3.314,0-6,2.687-6,6s2.686,6,6,6
	C326.604,356.479,329.292,353.792,329.292,350.479z"></path>
<path id="color_x5F_2" fill="#000000" d="M381.329,241.938c3.648,3.984,3.73,6.713,3.73,8.348c0,1.363,0.307,3.211,0.409,3.795
	c0.021,0.117,0.036,0.201,0.036,0.201s0.021-0.084,0.05-0.201c0.3-1.197,2.052-7.834,3.839-6.804
	c0.582,0.335,1.049,1.001,1.426,1.86c1.723,3.938,1.518,12.033,1.518,12.033c-0.197,0.399-0.412,0.787-0.639,1.168v19.243
	l11.686,0.105c4.209,0,7.924,2.677,10.178,6.763c0.367,0.468,0.755,1.033,1.158,1.68c13.006-8.744,13.119-16.08,12.305-20.244
	c-2.334-11.937-17.617-14.443-22.309-17.79c-3.661-2.612-5.469-5.556-6.338-8.091c0.156-5.879-1.035-9.967-1.035-9.967
	c-2.75-6.03-6.493-7.012-10.604-6.819c-6.706-1.069-20.145-2.731-24.072,0.348c-11.902,9.326-3.01,16.471-3.01,16.471
	s0.147-0.012,0.398-0.034c2.189-0.19,13.186-1.231,20.417-3.438C380.687,241.061,380.954,241.529,381.329,241.938z M381.031,232.207
	c-0.003,0.009-0.006,0.019-0.009,0.028c-0.023-0.005-0.037-0.008-0.037-0.008L381.031,232.207z M242.274,389.999h-19.711
	l-3.438-27.481h1.896h9.749h3.269h5.813h7.963L242.274,389.999z"></path>
<path id="color_x5F_1" fill="#d0021b" d="M225.021,316.393v-50.184h47.715v41.856h7.404V196.281H164.142v127.516h94.656v-7.404
	H225.021z M225.021,203.686h47.715v55.119h-47.715V203.686z M217.614,316.393h-46.07v-50.184h46.07V316.393z M217.614,258.805
	h-46.07v-55.119h46.07V258.805z M380.151,308.065h-53.76c7.823-7.617,16.143-15.975,17.826-18.656
	c3.967-6.311,11.342-8.936,15.811-7.854l0.027-0.259l8.365,0.076l9.914,11.596l10.194-8.951l1.854-1.627l0.923-0.812l0.393,0.004
	l11.686,0.105c4.209,0,7.924,2.677,10.178,6.763c0.367,0.468,0.755,1.033,1.158,1.68c5.701,9.139,14.641,35.17,16.309,51.877
	c-2.807-2.648-9.681-4.367-14.277,0.102c-0.477,0.463-1.043,1.244-1.661,2.229c-2.155-5.269-6.113-15.063-9.382-23.836
	c-3.729,9.275-7.105,19.091-7.307,24.634c-0.125,3.393,1.109,8.919,2.793,14.733c0.056,0.116,0.117,0.249,0.175,0.37
	c0.076,0.16,0.153,0.323,0.232,0.492c0.087,0.185,0.174,0.369,0.265,0.563c0.125,0.271,0.255,0.552,0.387,0.839
	c0.096,0.209,0.191,0.423,0.29,0.641c0.126,0.277,0.252,0.559,0.382,0.85c0.079,0.18,0.158,0.359,0.239,0.543
	c0.146,0.332,0.295,0.674,0.445,1.022c0.056,0.128,0.109,0.25,0.165,0.38c0.188,0.441,0.381,0.897,0.573,1.361
	c-0.78,1.725-1.941,4.344-3.144,7.258c-0.508-0.094-1.029-0.149-1.564-0.149c-4.693,0-8.5,3.806-8.5,8.5
	c0,3.218,1.789,6.017,4.426,7.46H384.88c1.119-1.174,1.811-2.759,1.811-4.509v-23.36v-47.524
	C386.69,310.993,383.763,308.065,380.151,308.065z M409.75,382.487c0.089,0.327,0.181,0.651,0.266,0.979
	c0.021,0.078,0.042,0.156,0.062,0.234c0.186,0.721,0.365,1.444,0.534,2.172c0.005,0.022,0.01,0.044,0.015,0.065
	c0.158,0.684,0.307,1.369,0.447,2.055c0.021,0.105,0.044,0.21,0.064,0.314c0.113,0.563,0.217,1.127,0.317,1.691h-7.74
	c2.044-1.119,3.568-3.056,4.154-5.367C408.49,383.948,409.117,383.235,409.75,382.487z"></path>
</svg>