<?xml version="1.0" standalone="no"?>
<svg version="1.1" id="Layer_1" xmlns="http://www.w3.org/2000/svg" xmlns:xlink="http://www.w3.org/1999/xlink" x="0px" y="0px" width="595.28px" height="595.28px" viewBox="0 0 595.28 595.28" enable-background="new 0 0 595.28 595.28" xml:space="preserve">
<path id="color_x5F_5" fill="#FFD2BB" d="M133.907,377.018c0.123-0.717,0.262-1.435,0.406-2.15c-0.145,0.716-0.281,1.434-0.404,2.15
	H133.907z M164.466,218.787l-0.047-0.021c0.004,0.009,0.007,0.019,0.01,0.027C164.451,218.79,164.466,218.787,164.466,218.787z
	 M174.168,229.153c5.136,0.847,9.871,1.291,11.228,1.41v9.66c0,1.156-0.018,2.285-0.063,3.377
	c-0.332,7.781-2.188,13.638-10.43,13.638h-3.949v10.617h6.142l-0.064,0.075l-8.072,9.441l-1.843,2.155l-10.194-8.951l-1.853-1.626
	l-0.925-0.813l-0.391,0.004V248.9c-0.227-0.382-0.442-0.771-0.64-1.17c0,0-0.204-8.096,1.519-12.033
	c0.377-0.86,0.844-1.524,1.426-1.86c1.787-1.029,3.539,5.606,3.839,6.804c0.029,0.117,0.05,0.201,0.05,0.201
	s0.016-0.085,0.036-0.201c0.103-0.584,0.408-2.432,0.408-3.795c0-1.635,0.083-4.363,3.731-8.348
	c0.375-0.409,0.643-0.878,0.856-1.373c2.479,0.757,5.398,1.376,8.259,1.871C173.549,229.05,173.858,229.103,174.168,229.153z
	 M167.316,235.224c0.09,0.894,0.572,1.577,1.118,1.611c0.037,0.003,0.075,0.011,0.113,0.007c0.543-0.06,0.928-0.784,0.9-1.661
	c-0.002-0.063,0-0.124-0.007-0.188c-0.09-0.956-0.637-1.681-1.229-1.617C167.629,233.439,167.22,234.267,167.316,235.224z
	 M179.56,235.224c0.098,0.955,0.643,1.681,1.233,1.618c0.581-0.063,0.988-0.89,0.896-1.85c-0.092-0.956-0.639-1.681-1.232-1.617
	C179.872,233.439,179.464,234.267,179.56,235.224z M129.569,332.827c-0.027-0.073-0.053-0.154-0.081-0.22
	c-3.12-7.34-13.201-7.216-15.047-4.225c-0.104,0.169-0.188,0.346-0.237,0.532c-1.743,6.664,2.029,33.473,7.665,48.103h9.243
	c0.593-8.296,0.131-19.048,0.131-19.048S131.357,337.649,129.569,332.827z M260.013,268.897c-0.116,0.04-1.84,0.192-1.963,0.255
	c-0.633,0.321-5.934,2.037-5.111,7.803c-0.042,0.064-0.076,0.128-0.117,0.191c-0.086-0.024-0.162-0.042-0.215-0.058
	c-0.045-0.014-0.697,2.147-1.422,4.525c-5.035,3.131-11.877,10.203-11.877,10.203s-1.273,1.106-3.17,2.808h17.006
	c1.293-2.745,2.29-5.342,2.852-7.628c1.662-0.892,3.527-1.89,3.532-1.89c0.089,0.004,0.17,0.013,0.263,0.014
	c0.617,0.013,1.313-0.104,2.059-0.317c2.17-0.618,5.074-4.064,5.508-6.68C267.886,274.924,260.242,268.821,260.013,268.897z
	 M448.024,239.774c-0.206,0.418-0.432,0.824-0.669,1.224v20.22h-24.6v-11.729c-7.507-1.294-8.471-8.646-8.471-17.561v-10.693
	c0-1.175,0.12-2.319,0.338-3.431h20.815c0.232,0.688,0.577,1.323,1.078,1.87c3.814,4.164,3.903,7.018,3.903,8.725
	c0,1.412,0.315,3.339,0.425,3.966c0.023,0.132,0.038,0.21,0.038,0.21s0.021-0.087,0.052-0.21c0.313-1.251,2.145-8.188,4.012-7.111
	C448.341,227.209,448.024,239.774,448.024,239.774z M419.445,224.771c-0.618-0.065-1.188,0.691-1.286,1.688
	c-0.096,1.004,0.326,1.869,0.938,1.936c0.617,0.066,1.186-0.694,1.286-1.691C420.482,225.701,420.058,224.836,419.445,224.771z
	 M431.894,228.395c0.616,0.066,1.188-0.694,1.285-1.691c0.101-1.002-0.324-1.867-0.937-1.933c-0.618-0.065-1.188,0.691-1.286,1.688
	C430.86,227.463,431.284,228.328,431.894,228.395z M326.823,295.322c-5.432,0-9.834,4.403-9.834,9.834
	c0,5.433,4.402,9.835,9.834,9.835c1.397,0,2.724-0.295,3.928-0.82c3.31-1.443,5.66-4.653,5.879-8.439
	c0.012-0.191,0.029-0.381,0.029-0.575C336.659,299.726,332.258,295.322,326.823,295.322z M482.071,368.601
	c-0.431-3.604-2.806-6.606-6.051-7.929c-1.145-0.467-2.395-0.729-3.707-0.729c-1.678,0-3.257,0.423-4.64,1.165v10.941
	c0,0.167-0.013,0.33-0.024,0.494c-0.129,1.714-0.917,3.24-2.114,4.332c0.048,0.046,0.091,0.097,0.14,0.142h2.752h10.527
	c1.958-1.798,3.194-4.37,3.194-7.239C482.148,369.379,482.118,368.987,482.071,368.601z"></path>
<path id="color_x5F_4" fill="#417505" d="M330.862,340.867c-0.5,3.222-7.81,5.408-10.556,5.728c1.72,0.535,4.072,1.454,4.122,2.482
	h-9.749h-3.269h-5.813c-2.204-0.205-6.976-1.011-10.007-4.186c-2.893-3.033,1.273-2.887,3.877-2.557
	c-2.366-1.43-8.109-6.45-7.229-9.59c1.043-3.719,9.071,2.732,5.759-0.168c-3.313-2.9-5.358-9.756-0.407-13.82
	c4.954-4.065,5.528,7.676,6.334,11.572c0.807,3.895,2.446,4.769,2.446,4.769s-1.091-5.731,2.75-8.379
	c0.623-0.431,1.052-0.374,1.338,0.019c0.036,0.915,0.193,1.849,0.474,2.784c-0.011,1.322-0.176,2.908-0.387,4.438
	c0.694,0.285,1.172,0.722,1.488,1.241c0.431-0.222,0.934-0.344,1.52-0.326c0.475-1.633,1.037-3.352,1.635-4.695
	c0.644-0.732,1.174-1.519,1.587-2.336c0.423-0.237,0.837-0.111,1.224,0.538c2.398,4.003-0.972,8.765-0.972,8.765
	s1.854-0.115,4.204-3.324c8.875-12.132,13.126-15.731,15.696-10.49c2.819,5.754-7.02,13.73-11.235,14.994
	C321.475,339.591,331.454,337.052,330.862,340.867z"></path>
<path id="color_x5F_3" fill="#000000" d="M167.316,235.224c-0.097-0.957,0.313-1.784,0.896-1.849
	c0.593-0.063,1.14,0.661,1.229,1.617c0.007,0.064,0.005,0.126,0.007,0.188c0.027,0.877-0.357,1.602-0.9,1.661
	c-0.038,0.004-0.076-0.004-0.113-0.007C167.889,236.801,167.406,236.117,167.316,235.224z M180.793,236.842
	c0.581-0.063,0.988-0.89,0.896-1.85c-0.092-0.956-0.639-1.681-1.232-1.617c-0.584,0.064-0.992,0.892-0.896,1.849
	C179.657,236.179,180.202,236.904,180.793,236.842z M286.653,301.165v70.885c0,1.99-0.892,3.769-2.294,4.968H196.25h-0.001h-34.416
	h-0.778c-1.402-1.199-2.294-2.978-2.294-4.968V348.69v-14.52v-1.875v-3.293v-27.838c0-3.612,2.928-6.54,6.539-6.54h53.76h17.078
	h17.006h26.971C283.726,294.625,286.653,297.553,286.653,301.165z M228.159,337.038c0-3.313-2.687-6-6-6s-6,2.687-6,6s2.687,6,6,6
	S228.159,340.352,228.159,337.038z M467.674,301.165v3.198v52.89v3.855v10.941c0,0.167-0.013,0.33-0.024,0.494
	c-0.129,1.714-0.917,3.24-2.114,4.332c0.048,0.046,0.091,0.097,0.14,0.142h-0.295h-63.094h-60.211
	c-1.402-1.199-2.294-2.978-2.294-4.968v-51.443v-14.611v-4.83c0-3.612,2.928-6.54,6.539-6.54h29.647h15.873h6.709h13.325h14.196
	h35.063c0.145,0,0.286,0.013,0.428,0.021C464.974,294.868,467.674,297.697,467.674,301.165z M400.11,341.456
	c1.067,0.979,2.486,1.582,4.049,1.582c3.313,0,6-2.687,6-6s-2.687-6-6-6c-2.313,0-4.317,1.312-5.318,3.229
	c-0.434,0.83-0.682,1.771-0.682,2.771C398.159,338.789,398.914,340.359,400.11,341.456z M431.894,228.395
	c0.616,0.066,1.188-0.694,1.285-1.691c0.101-1.002-0.324-1.867-0.937-1.933c-0.618-0.065-1.188,0.691-1.286,1.688
	C430.86,227.463,431.284,228.328,431.894,228.395z M419.445,224.771c-0.618-0.065-1.188,0.691-1.286,1.688
	c-0.096,1.004,0.326,1.869,0.938,1.936c0.617,0.066,1.186-0.694,1.286-1.691C420.482,225.701,420.058,224.836,419.445,224.771z"></path>
<path id="color_x5F_2" fill="#8b572a" d="M185.332,243.601c-0.332,7.781-2.188,13.638-10.43,13.638h-3.949v10.617h6.142
	l-0.064,0.075l8.365-0.075l0.027,0.259c3.718-0.899,9.441,0.776,13.547,4.996c5.297-5.859,5.205-10.693,4.6-13.782
	C201.719,249.863,191.729,246.328,185.332,243.601z M185.426,268.109v-0.044C185.497,268.08,185.497,268.094,185.426,268.109z
	 M146.924,330.187c0.062,0.528,0.108,1.039,0.126,1.509c0.125,3.393-1.11,8.919-2.793,14.733c-0.059,0.121-0.123,0.261-0.183,0.387
	c-0.069,0.146-0.14,0.294-0.212,0.447c-0.095,0.202-0.19,0.405-0.289,0.619c-0.092,0.196-0.187,0.403-0.281,0.609
	c-0.142,0.309-0.285,0.625-0.434,0.952c-0.102,0.226-0.204,0.453-0.309,0.688c-0.095,0.214-0.19,0.431-0.288,0.651
	c-0.116,0.266-0.235,0.539-0.354,0.814c-0.094,0.217-0.187,0.43-0.281,0.652c-0.177,0.414-0.355,0.838-0.535,1.271
	c-0.081,0.193-0.162,0.391-0.243,0.588c-0.146,0.354-0.292,0.715-0.439,1.08c-0.071,0.177-0.142,0.35-0.213,0.528
	c-0.21,0.528-0.421,1.066-0.632,1.615c-0.051,0.134-0.103,0.271-0.154,0.406c-0.175,0.46-0.35,0.927-0.523,1.399
	c-0.06,0.16-0.118,0.32-0.178,0.482c-0.442,1.216-0.879,2.471-1.303,3.755c-0.046,0.139-0.091,0.276-0.136,0.415
	c-0.202,0.619-0.4,1.242-0.594,1.873c-0.011,0.033-0.021,0.064-0.03,0.098c-0.21,0.685-0.414,1.377-0.612,2.073
	c-0.028,0.098-0.055,0.195-0.082,0.293c-0.177,0.625-0.347,1.253-0.512,1.885c-0.022,0.085-0.045,0.171-0.067,0.256
	c-0.186,0.718-0.363,1.438-0.531,2.162c-0.006,0.025-0.012,0.051-0.018,0.077c-0.157,0.68-0.305,1.362-0.445,2.046
	c-0.021,0.104-0.044,0.21-0.064,0.314c-0.145,0.716-0.283,1.434-0.406,2.15h-2.795c0.593-8.296,0.131-19.048,0.131-19.048
	s0.114-20.32-1.674-25.143c0.685-1.662,1.762-4.294,3.037-7.459c0.241-0.6,0.489-1.216,0.743-1.852
	c1.987-4.959,4.328-10.91,6.394-16.455c2.712,6.746,5.23,13.77,6.484,19.236C146.551,327.71,146.789,329.016,146.924,330.187z
	 M174.168,229.153c5.136,0.847,9.871,1.291,11.228,1.41c0.251,0.021,0.398,0.033,0.398,0.033s8.893-7.145-3.01-16.471
	c-3.928-3.079-17.367-1.417-24.073-0.348c-4.11-0.192-7.854,0.789-10.604,6.819c0,0-1.191,4.089-1.035,9.97
	c-0.87,2.534-2.678,5.477-6.338,8.088c-4.691,3.347-19.974,5.854-22.308,17.79c-0.436,2.226-0.604,5.358,1.315,9.128l-0.925-0.463
	c0,0,8.271,10.591-0.43,16.797c-4.691,3.347-19.974,5.854-22.309,17.789c-0.8,4.095-0.714,11.252,11.646,19.803
	c1.919,3.275,4.924,10.383-1.594,15.031c-4.69,3.347-19.972,5.854-22.307,17.789c-0.855,4.368-0.7,12.221,14.286,21.531
	c1.72,1.069,3.71,2.129,5.876,3.167h17.882c-5.636-14.63-9.408-41.438-7.665-48.103c0.049-0.187,0.133-0.363,0.237-0.532
	c0.15-1.472,0.351-3.005,0.605-4.601c0.212-1.32,0.456-2.677,0.729-4.06c3.153-15.938,10.188-35.394,14.955-43.033
	c0.403-0.646,0.791-1.212,1.158-1.68c0.503-0.911,1.081-1.747,1.719-2.504c2.22-2.638,5.188-4.259,8.459-4.259l11.686-0.105V248.9
	c-0.227-0.382-0.442-0.771-0.64-1.17c0,0-0.204-8.096,1.519-12.033c0.377-0.86,0.844-1.524,1.426-1.86
	c1.787-1.029,3.539,5.606,3.839,6.804c0.029,0.117,0.05,0.201,0.05,0.201s0.016-0.085,0.036-0.201
	c0.103-0.584,0.408-2.432,0.408-3.795c0-1.635,0.083-4.363,3.731-8.348c0.375-0.409,0.643-0.878,0.856-1.373
	c2.479,0.757,5.398,1.376,8.259,1.871C173.549,229.05,173.858,229.103,174.168,229.153z M164.429,218.794
	c-0.003-0.009-0.006-0.019-0.01-0.027l0.047,0.021C164.466,218.787,164.451,218.79,164.429,218.794z M452.69,232.213
	c-1.62,5.328-3.499,5.195-4.666,7.562c0,0,0.316-12.565-3.078-14.521c-1.867-1.076-3.698,5.86-4.012,7.111
	c-0.03,0.123-0.052,0.21-0.052,0.21s-0.015-0.078-0.038-0.21c-0.109-0.627-0.425-2.554-0.425-3.966c0-1.707-0.089-4.561-3.903-8.725
	c-0.501-0.547-0.846-1.183-1.078-1.87h-20.815h-0.004c0,0-5.546-7.468-4.79-14.349c0.754-6.883,9.441-14.247,19.198-6.701
	c5.353,4.14,9.467,7.898,9.467,7.898c5.707-0.733,11.084-1.299,14.762,6.765C453.256,211.417,456.086,221.037,452.69,232.213z
	 M324.429,349.077h1.896l-3.494,27.94h-19.563l-5.633-27.94h7.962h5.813h3.269H324.429z"></path>
<path id="color_x5F_1" fill="#4079bc" d="M339.781,320.606c-3.582-2.054-6.71-4.233-9.03-6.436c3.31-1.443,5.66-4.653,5.879-8.439
	c1.064,0.063,2.131,0.155,3.151,0.264V320.606z M398.55,294.625h13.325h14.196h35.063c0.145,0,0.286,0.013,0.428,0.021
	c3.411,0.222,6.111,3.051,6.111,6.519v3.198v52.89l6.747-38.218c1.397,2.216,4.034,6.188,7.154,9.838
	c-2.877,4.123-4.465,23.603-4.465,23.603s-0.826,4.027-1.09,8.196c3.245,1.322,5.62,4.325,6.051,7.929
	c11.229-6.463,22.656-34.476,20.439-42.339c-0.007-0.028-0.023-0.053-0.033-0.079c1.513-7.79-0.305-18.323-3.779-27.432
	c-3.063-8.43-10.027-24.805-19.836-31.224c-2.386-3.839-6.063-6.31-10.198-6.31h-21.309h-24.6h-20.847
	c-3.735,0-7.094,2.021-9.469,5.238c-0.261,0.24-0.52,0.486-0.77,0.751c-4.084,4.312-12.259,20.438-15.703,27.418h15.873H398.55z
	 M505.562,377.018h-26.607h-10.527h-2.752h-0.295h-63.094h-60.211h-19.244h-19.563h-18.909H196.25h-0.001h-34.416h-0.778
	c-1.402-1.199-2.294-2.978-2.294-4.968V348.69v-14.52v-1.875v-3.293v-27.838c0-3.612,2.928-6.54,6.539-6.54h53.76
	c-7.823-7.617-16.143-15.975-17.826-18.656c-0.666-1.06-1.436-2.007-2.264-2.858c-4.105-4.22-9.829-5.896-13.547-4.996l-0.027-0.259
	l-8.365,0.075l-8.072,9.441l-1.843,2.155l-10.194-8.951l-1.853-1.626l-0.925-0.813l-0.391,0.004l-11.686,0.105
	c-3.271,0-6.239,1.621-8.459,4.259c-0.638,0.757-1.216,1.593-1.719,2.504c-0.367,0.468-0.755,1.033-1.158,1.68
	c-4.767,7.64-11.802,27.095-14.955,43.033c-0.273,1.383-0.518,2.739-0.729,4.06c-0.255,1.596-0.455,3.129-0.605,4.601
	c1.846-2.991,11.927-3.115,15.047,4.225c0.028,0.065,0.054,0.146,0.081,0.22c0.685-1.662,1.762-4.294,3.037-7.459
	c0.241-0.6,0.489-1.216,0.743-1.852c1.987-4.959,4.328-10.91,6.394-16.455c2.712,6.746,5.23,13.77,6.484,19.236
	c0.323,1.412,0.562,2.718,0.696,3.889c0.062,0.528,0.108,1.039,0.126,1.509c0.125,3.393-1.11,8.919-2.793,14.733
	c-0.059,0.121-0.123,0.261-0.183,0.387c-0.069,0.146-0.14,0.295-0.212,0.447c-0.095,0.202-0.19,0.405-0.289,0.619
	c-0.092,0.196-0.187,0.403-0.281,0.609c-0.142,0.309-0.285,0.625-0.434,0.952c-0.102,0.226-0.204,0.453-0.309,0.688
	c-0.095,0.214-0.19,0.431-0.288,0.651c-0.116,0.266-0.235,0.539-0.354,0.814c-0.094,0.217-0.187,0.43-0.281,0.652
	c-0.177,0.414-0.355,0.838-0.535,1.271c-0.081,0.193-0.162,0.391-0.243,0.588c-0.146,0.354-0.292,0.715-0.439,1.08
	c-0.071,0.177-0.142,0.35-0.213,0.528c-0.21,0.528-0.421,1.066-0.632,1.615c-0.051,0.134-0.103,0.271-0.154,0.406
	c-0.175,0.46-0.35,0.927-0.523,1.399c-0.06,0.16-0.118,0.32-0.178,0.482c-0.442,1.216-0.879,2.471-1.303,3.755
	c-0.046,0.139-0.091,0.276-0.136,0.415c-0.201,0.619-0.4,1.242-0.594,1.873c-0.011,0.033-0.021,0.064-0.03,0.098
	c-0.21,0.685-0.414,1.377-0.612,2.073c-0.028,0.098-0.055,0.195-0.082,0.293c-0.176,0.625-0.347,1.253-0.512,1.885
	c-0.022,0.085-0.045,0.171-0.067,0.256c-0.186,0.718-0.363,1.438-0.531,2.162c-0.006,0.025-0.012,0.051-0.018,0.077
	c-0.157,0.68-0.306,1.363-0.445,2.046c-0.021,0.104-0.044,0.21-0.064,0.314c-0.145,0.716-0.281,1.434-0.404,2.15h-0.002h-2.795
	h-9.243h-17.882H76.519c-0.828,0-1.5,0.672-1.5,1.501c0,0.828,0.672,1.5,1.5,1.5h429.043c0.829,0,1.501-0.672,1.501-1.5
	C507.063,377.689,506.391,377.018,505.562,377.018z"></path>
</svg>