<?xml version="1.0" standalone="no"?>
<svg version="1.1" id="Layer_1" xmlns="http://www.w3.org/2000/svg" xmlns:xlink="http://www.w3.org/1999/xlink" x="0px" y="0px" width="595.28px" height="595.28px" viewBox="0 0 595.28 595.28" enable-background="new 0 0 595.28 595.28" xml:space="preserve">
<path id="color_x5F_2" fill="#e04949" d="M512.396,518.373c-9.854,1.756-18.791,1.003-28.667-0.708
	c-1.06-0.184-2.244-0.4-3.492-0.61c0.02-0.066-0.016-0.12-0.139-0.152c-33.154-8.603-65.763-20.021-98.076-31.303
	c-31.632-11.043-63.214-22.032-91.917-39.516c-12.237-7.454-24.245-15.326-35.559-24.13c-10.286-8.004-20.811-17.17-27.071-28.794
	c-0.369-0.685-3.108,0.385-2.897,0.776c10.33,19.181,31.062,32.647,48.773,44.278c13.611,8.938,27.486,17.629,42.413,24.194
	c34.605,15.22,70.887,27.045,106.791,38.766c16.124,5.264,32.301,10.586,48.672,15.082c-3.768,0.117-7.301,1.036-9.591,3.711
	c-2.096,2.448-4.819,4.333-7.7,5.943c-1.067,0.568-2.155,1.137-3.254,1.698c-1.112,0.543-2.224,1.064-3.309,1.568
	c-6.487,3.013-13.439,4.941-20.458,6.25c-5.58,0.763-12.248,1.409-18.512,1.925c-8.528,0.249-17.096-0.253-25.553-1.05
	c-11.542-1.087-22.397-2.85-33.409-6.372c-6.149-1.967-12.541-4.29-19.016-5.605c-22.915-12.342-46.625-23.827-67.561-39.432
	c-19.164-14.285-31.793-33.845-42.819-54.73c-10.873-20.596-19.493-42.472-26.027-64.814c-4.938-16.881-9.511-35.196-8.527-52.929
	c0.079-1.424-2.858-0.944-2.925,0.263c-0.971,17.511,3.441,35.402,8.17,52.111c6.379,22.54,15.208,44.441,25.939,65.252
	c10.646,20.647,23.123,40.039,41.504,54.575c19.81,15.665,42.929,26.931,65.207,38.743c-0.38-0.024-0.761-0.05-1.141-0.063
	c-7-0.242-11.746,5.1-16.114,9.794c-3.692,3.968-7.723,6.626-13.21,7.339c-7.7,1.001-16.258-0.367-23.908-1.313
	c-30.658-3.795-58.374-17.25-88.28-23.958c-21.085-4.729-42.27-5.678-63.62-2.895c-4.04,0.527-8.238,1.136-12.511,1.68l-2.696,0.168
	c0,0-3.208,0.437-7.662,0.925c-9.376,0.736-18.793,0.605-27.421-1.924c-1.302-0.382-2.55-0.895-3.672-1.548
	c-1.384-1.34-2.784-2.82-4.042-4.205c-0.449-0.976-0.718-2.074-0.757-3.307c-0.013-0.409-0.482-0.556-1.037-0.513
	c10.229-34.102,20.239-68.553,32.504-102.045l30.644-69.799c7.373-13.84,15.513-27.319,24.657-40.313
	c0.043-0.062,0.071-0.119,0.103-0.178c5.333,0.862,10.673,1.688,16.028,2.399c2.028,0.27,6.478,1.509,8.93,0.496
	c0.135,0.107,0.349,0.191,0.678,0.231c4.311,0.529,11.486,0.644,17.663-0.879c0.017-0.003,0.037-0.005,0.053-0.008
	c1.795-0.299,2.781-0.464,3.327-0.555c1.347,13.253,7.529,25.48,10.68,38.342c1.944,7.935,8.812,15.836,13.479,22.316
	c6.588,9.147,13.792,17.937,21.221,26.406c4.879,5.564,9.938,10.28,16.124,14.272c12.81,8.266,26.892,14.679,40.745,20.959
	c18.196,8.249,36.69,15.84,55.256,23.21c24.434,9.699,49.052,18.956,73.82,27.767c13.443,4.783,27.02,8.998,40.803,12.64
	l5.878,1.977l11.767,2.38c6.959,1.631,13.936,3.19,20.916,4.732c5.277,1.166,10.558,2.32,15.834,3.49
	c5.963,1.322,11.989,1.527,17.904,2.764c0.186,0.039,0.475-0.003,0.786-0.091c0.733,0.243,1.459,0.53,2.147,0.875
	c-0.677,0.292-1.137,0.755-0.697,1.1C555.029,508.912,520.705,516.892,512.396,518.373z M254.398,391.688
	c10.373,7.486,22.082,13.151,33.828,18.491C277.109,404.481,264.014,397.464,254.398,391.688z M54.782,502.372
	c0.724-2.417,1.443-4.837,2.16-7.26l-2.37,7.004C54.572,502.117,54.646,502.208,54.782,502.372z M501.239,521.45
	c0.734,0.123,2.168-0.049,4.054-0.424c-1.843,0.15-3.662,0.202-5.468,0.179C500.408,521.308,500.892,521.392,501.239,521.45z
	 M140.189,512.274c-1.333-0.028-2.668-0.041-4.009-0.036C137.211,512.273,138.556,512.297,140.189,512.274z M317.651,525.75
	c-2.529,1.171-4.584,2.956-6.515,4.904c4.939-3.738,9.586-5.103,12.304-5.591C321.392,524.849,319.378,524.95,317.651,525.75z
	 M187.341,272.718c-1.718,0.295-3.407,0.723-5.085,1.196L187.341,272.718z M171.851,271.559c0.504,1.036,0.892,2.083,1.2,3.135
	c4.741-1.102,9.31-2.857,14.102-3.771c0.96-0.183,2.944-0.607,4.661-0.528c0.146-6.023,0.833-12.522,3.435-18.012
	c0.926-2.564,1.99-4.269,1.99-4.269l-9.447-1.181c-0.914,0.174-1.826,0.482-2.736,0.976c-0.109,0.081-0.23,0.17-0.35,0.259
	c-3.068,2.617-6.21,5.145-9.457,7.532c-5.529,4.066-11.638,8.426-18.461,9.939c-1.979,0.439-3.867,0.292-5.652-0.242
	c-0.139,0.539-0.328,1.064-0.559,1.581c6.073,2.036,12.205,3.77,18.569,4.58C169.782,270.939,171.43,270.694,171.851,271.559z
	 M161.176,230.233l1.025-0.809c-0.342-0.158-0.381-0.442,0.318-0.852c4.388-2.569,4.5-6.902,5.93-11.244
	c0.475-1.44,1.102-2.69,1.891-3.792c-0.741,0.264-1.486,0.512-2.238,0.733c-10.04,2.955-17.594,9.696-13.208,20.265
	C156.997,233.113,159.091,231.68,161.176,230.233z M151.905,222.781c-0.303,0.404-0.451,0.979-0.488,1.659
	c0.299-0.834,0.682-1.636,1.138-2.403C152.304,222.3,152.076,222.553,151.905,222.781z"></path>
<path id="color_x5F_1" d="M153.956,140.892c0.174-0.115,0.323-0.266,0.479-0.404c0.507-0.451,0.231-1.117-0.348-1.298
	c-0.733-0.229-1.501,0.062-2.049,0.549c-0.082,0.072-0.419,0.261-0.544,0.397c-0.21,0.229-0.345,0.464-0.387,0.774
	C150.931,142.207,153.468,141.916,153.956,140.892z M153.869,140.952C153.768,141.054,153.697,141.068,153.869,140.952
	L153.869,140.952z M132.773,143.577c-0.028-1.193,2.892-1.706,2.925-0.261c0.033,1.408,1.002,2.552,2.39,2.81
	c0.547,0.102,1.208,0.448,0.856,1.115c-0.315,0.598-1.241,0.981-1.894,0.86C134.607,147.647,132.833,146.175,132.773,143.577z
	 M152.12,130.501c-0.183-0.683,0.542-1.349,1.163-1.457c2.063-0.357,4.195-0.194,6.108,0.705c1.694,0.797-0.349,2.669-1.645,2.061
	c-1.188-0.559-2.58-0.855-3.892-0.629C153.236,131.289,152.324,131.263,152.12,130.501z M541.243,494.86
	c-0.43-0.336-1.313-0.216-1.984,0.073c-0.677,0.292-1.137,0.755-0.697,1.1c16.467,12.878-17.857,20.858-26.167,22.339
	c-9.854,1.756-18.791,1.003-28.667-0.708c-1.06-0.184-2.244-0.4-3.492-0.61c0.02-0.066-0.016-0.12-0.139-0.152
	c-33.154-8.603-65.763-20.021-98.076-31.303c-31.632-11.043-63.214-22.032-91.917-39.516c-12.237-7.454-24.245-15.326-35.559-24.13
	c-10.286-8.004-20.811-17.17-27.071-28.794c-0.369-0.685-3.108,0.385-2.897,0.776c10.33,19.181,31.062,32.647,48.773,44.278
	c13.611,8.938,27.486,17.629,42.413,24.194c34.605,15.22,70.887,27.045,106.791,38.766c16.124,5.264,32.301,10.586,48.672,15.082
	c-3.768,0.117-7.301,1.036-9.591,3.711c-2.096,2.448-4.819,4.333-7.7,5.943c-1.067,0.568-2.155,1.137-3.254,1.698
	c-1.112,0.543-2.224,1.064-3.309,1.568c-6.487,3.013-13.439,4.941-20.458,6.25c-0.578,0.108-1.155,0.22-1.733,0.319
	c-5.546,0.955-11.153,1.442-16.778,1.606c-8.528,0.249-17.096-0.253-25.553-1.05c-11.542-1.087-22.397-2.85-33.409-6.372
	c-6.149-1.967-12.541-4.29-19.016-5.605c-22.915-12.342-46.625-23.827-67.561-39.432c-19.164-14.285-31.793-33.845-42.819-54.73
	c-10.873-20.596-19.493-42.472-26.027-64.814c-4.938-16.881-9.511-35.196-8.527-52.929c0.079-1.424-2.858-0.944-2.925,0.263
	c-0.971,17.511,3.441,35.402,8.17,52.111c6.379,22.54,15.208,44.441,25.939,65.252c10.646,20.647,23.123,40.039,41.504,54.575
	c19.81,15.665,42.929,26.931,65.207,38.743c-0.38-0.024-0.761-0.05-1.141-0.063c-7-0.242-11.746,5.1-16.114,9.794
	c-3.692,3.968-7.723,6.626-13.21,7.339c-7.7,1.001-16.258-0.367-23.908-1.313c-30.658-3.795-58.374-17.25-88.28-23.958
	c-21.085-4.729-42.27-5.678-63.62-2.895c-4.04,0.527-8.238,1.136-12.511,1.68c-3.419,0.435-6.886,0.821-10.358,1.094
	c-9.376,0.736-18.793,0.605-27.421-1.924c-1.302-0.382-2.55-0.895-3.672-1.548c-1.764-1.026-3.213-2.403-4.042-4.205
	c-0.449-0.976-0.718-2.074-0.757-3.307c-0.013-0.409-0.482-0.556-1.037-0.513c10.229-34.102,20.239-68.553,32.504-102.045
	c8.759-23.917,18.679-47.339,30.644-69.799c7.373-13.84,15.513-27.319,24.657-40.313c0.043-0.062,0.071-0.119,0.103-0.178
	c5.333,0.862,10.673,1.688,16.028,2.399c2.028,0.27,6.478,1.509,8.93,0.496c0.135,0.107,0.349,0.191,0.678,0.231
	c4.311,0.529,11.486,0.644,17.663-0.879c1.154-0.285,2.27-0.631,3.329-1.038c0.015,0.159,0.034,0.317,0.05,0.475
	c1.347,13.253,7.529,25.48,10.68,38.342c1.944,7.935,8.812,15.836,13.479,22.316c6.588,9.147,13.792,17.937,21.221,26.406
	c4.879,5.564,9.938,10.28,16.124,14.272c12.81,8.266,26.892,14.679,40.745,20.959c18.196,8.249,36.69,15.84,55.256,23.21
	c24.434,9.699,49.052,18.956,73.82,27.767c13.443,4.783,27.02,8.998,40.803,12.64c1.976,0.522,3.956,1.033,5.94,1.531
	c3.893,0.978,7.797,1.91,11.705,2.825c6.959,1.631,13.936,3.19,20.916,4.732c5.277,1.166,10.558,2.32,15.834,3.49
	c5.963,1.322,11.989,1.527,17.904,2.764c0.186,0.039,0.475-0.003,0.786-0.091c1-0.283,2.234-1.062,1.035-1.313
	c-3.647-0.763-7.355-0.604-11.023-1.223c-3.471-0.586-6.923-1.551-10.361-2.312c-7.698-1.701-15.401-3.38-23.093-5.111
	c-15.523-3.493-30.989-7.263-46.226-11.863c-14.48-4.372-28.692-9.738-42.883-14.957c-36.415-13.393-72.702-27.396-108.072-43.37
	c-2.744-1.239-5.503-2.478-8.261-3.731c-11.746-5.34-23.455-11.005-33.828-18.491c-5.193-3.748-10.06-7.94-14.411-12.799
	c-10.707-11.954-20.875-24.881-29.422-38.484c-3.85-6.126-5.277-11.796-7.401-18.647c-3.168-10.221-7.597-19.892-8.479-30.688
	c3.799-2.22,6.171-5.673,5.342-10.928c0.938-1.737,0.884-3.655-1.12-5.62c-0.197-0.193-0.512-0.27-0.861-0.265
	c0.18-0.652,0.186-1.327-0.219-1.915c-0.604-0.876-1.967-0.853-3.133-0.665c0.076-7.599,0.724-16.8,5.562-23.004
	c0.119,0.011,0.238,0.02,0.356,0.026c-0.335,0.136-0.59,0.308-0.64,0.505c-3.019,11.993,0.566,23.263,6.606,33.689
	c5.069,8.751,14.427,12.525,24.006,14.005c18.005,2.782,38.038-1.373,47.745-18.211c4.541-7.876,3.547-16.209-2.561-22.682
	c-3.387-3.589-7.66-6.173-11.279-9.493c-4.17-3.826-5.428-9.539-6.169-14.891c-0.644-4.649-1.013-9.238-2.612-13.69
	c-1.906-5.305-6.349-8.832-10.349-12.532c-4.681-4.332-9-9.208-10.411-15.582c-1.349-6.092,0.858-12.087-1.709-17.923
	c0.093-0.11,0.141-0.224,0.11-0.338c-4.794-17.734-31.352-29.946-42.383-10.875c-0.093,0.161,0.144,0.246,0.514,0.261
	c-0.085,0.094-0.171,0.185-0.256,0.279c-2.55,2.845-6.171,8.932-9.957,4.736c-0.301-0.334-1.491-0.036-2.212,0.344
	c-0.402,0.05-0.784,0.179-1.029,0.401c-2.379,2.165-0.984,6.856-0.879,9.625c0.158,4.159-5.347,9.26-1.96,13.447
	c2.701,3.339,5.944,2.898,9.768,4.018c5.7,1.668-2.854,11.549-5.009,13.015c-0.195,0.133-0.33,0.263-0.418,0.389
	c-5.097,1.989-10.09,4.208-15.252,6.064c-1.535,0.552-2.984,1.208-4.328,1.956c-10.429-7.356-19.915-15.793-27.692-25.968
	c-0.146-0.192-0.488-0.243-0.882-0.206c-2.943-7.37-6.986-14.265-11.608-20.803c0.365-0.126,0.683-0.329,0.858-0.608
	c1.035-1.651,1.944-3.369,3.06-4.971c2.21-3.174,6.073-2.064,8.955-0.581c2.714,1.396,5.161,1.856,8.188,1.433
	c5.808-0.813,9.286-6.522,12.588-10.798c2.549,0.36,5.349,1.039,7.548-0.403c2.941-1.928-0.849-6.822,0.611-9.535
	c0.155-0.288,0.09-0.48-0.101-0.593c2.205-5.505,6.573-10.19,7.43-16.033c6.397-0.194,12.805-2.549,18.139-6.891
	c0.138-0.008,0.277-0.009,0.414-0.021c1.675-0.135,2.191-2.412,0.222-2.253c-6.032,0.487-12.716-2.046-17.513-5.703
	c2.439-0.849,4.452-2.221,6.377-4.293c0.188-0.203,0.179-0.354-0.114-0.424c-2.962-0.716-5.874-0.808-8.912-0.929
	c-4.606-0.185-8.675-1.938-12.813-3.795c-4.951-2.222-9.407-5.184-14.255-7.576c-6.08-3-11.923-1.621-15.771,3.509
	c-8.114-2.532-14.383,3.684-17.698,10.575c-6.329,13.157-1.131,26.644,5.096,38.732c-1.833,1.712-3.585,3.504-5.272,5.362
	c-0.553-0.07-1.207,0.116-1.636,0.432c-0.03-0.016-0.051-0.033-0.09-0.046c-0.649-0.214-1.452,0.052-2.036,0.332
	c-4.011,1.921-7.234,5.084-9.799,8.672c-0.039,0.055-0.064,0.104-0.079,0.149c-0.47,0.235-0.786,0.494-0.629,0.616
	c0.07,0.054,0.141,0.106,0.211,0.161c-0.861-0.105-1.991,0.373-1.976,1.142c0.023,1.183,0.192,2.287,0.619,3.316
	c-2.937-0.678-5.912-0.591-8.448,1.065c-0.379,0.248-0.537,0.491-0.552,0.711c-2.029,0.201-4.47,1.043-4.184,3.093
	c-0.39,0.006-0.782,0.02-1.175,0.046c-0.79,0.052-1.334,0.581-1.467,1.098c-0.627,0.209-1.166,0.61-1.11,1.102
	c0.128,1.127,0.926,1.997,2.007,2.695c-0.1,0.068-0.185,0.141-0.24,0.221c-1.784,2.583-2.338,5.95-2.924,8.966
	c-1.109,5.708-1.579,11.554-1.938,17.35c-0.864,13.958,0.304,27.893,1.004,41.829c0.841,16.717,0.744,33.775-0.29,50.479
	c-0.818,13.227-2.349,27.896-7.953,40.087c-0.022,0.048-0.031,0.092-0.034,0.133c-0.113,0.105-0.066,0.17,0.08,0.203
	c0.43,0.424,2.493,0.08,2.852-0.7c0.014-0.029,0.025-0.06,0.039-0.09c2.535-2.189,5.04-4.425,7.406-6.784
	c0.067,34.04,0.971,68.071,0.99,102.111c0,0.199,0.319,0.28,0.743,0.27c-6.852,21.199-12.944,42.683-19.254,64.008
	c-0.717,2.422-1.437,4.843-2.16,7.26c-0.09,0.3-0.178,0.6-0.268,0.898c-0.237,0.79,0.325,1.189,1.007,1.25
	c-0.042,0.1-0.071,0.204-0.067,0.314c0.418,13.106,22.445,12.127,31.071,11.922c13.404-0.318,26.603-3.173,39.909-4.173
	c1.06-0.08,2.122-0.146,3.183-0.199c0.864-0.044,1.729-0.081,2.593-0.105c1.329-0.037,2.65-0.036,3.971-0.041
	c1.34-0.005,2.676,0.008,4.009,0.036c27.725,0.569,53.907,7.946,80.087,17.167c14.181,4.994,28.845,8.649,43.707,10.904
	c10.96,1.664,24.506,4.215,35.203,0.205c5.084-1.906,8.291-6.201,11.951-9.895c1.931-1.949,3.986-3.733,6.515-4.904
	c1.728-0.8,3.741-0.902,5.789-0.687c1.653,0.174,3.328,0.554,4.895,0.944c0.146,0.079,0.294,0.156,0.44,0.235
	c0.236,0.127,0.556,0.147,0.891,0.099c0.408,0.103,0.808,0.204,1.191,0.295c5.292,1.265,10.488,2.946,15.67,4.597
	c22.355,7.121,46.886,9.367,70.269,7.292c12.544-1.114,24.88-4.361,36.09-10.138c3.813-1.965,7.771-4.167,10.693-7.369
	c3.983-4.367,11.378-2.752,16.71-1.956c6.668,0.997,13.015,2.059,19.537,2.142c1.806,0.023,3.625-0.029,5.468-0.179
	c0.693-0.057,1.388-0.123,2.088-0.208c7.843-0.955,15.623-2.837,23.052-5.513C539.441,512.062,552.951,504.018,541.243,494.86z
	 M87.031,315.657c-1.237,0.192-2.17,0.325-2.685,0.396c0.07-0.127,0.141-0.254,0.21-0.382
	C85.38,315.678,86.205,315.676,87.031,315.657z M126.449,287.039c5.291,1.492,10.615,2.838,16.056,3.73
	c-4.667,6.645-9.098,13.476-13.331,20.446c-0.452-6.895-1.537-21.155-2.901-23.452C126.331,287.522,126.394,287.283,126.449,287.039
	z M131.897,260.092c0.567-4.676,0.188-9.6-0.088-14.428c3.131,5.117,6.671,9.911,10.847,14.119c1.71,1.724,3.644,3.337,5.761,4.477
	c-0.036,0.666-0.178,1.271-0.395,1.86C142.818,264.375,136.761,262.877,131.897,260.092z M151.454,235.501
	c0.119,0.183,0.392,0.236,0.723,0.213c0.091,0.207,0.178,0.413,0.277,0.621c0.605,1.268,3.301,0.525,2.935-0.657
	c11.16-7.475,22.064-15.327,32.816-23.375c4.981-3.728,12.342-1.162,15.745,3.342c2.664,3.527,1.805,7.872-0.02,11.551
	c-0.456,0.112-0.867,0.303-1.043,0.547c-2.681,3.709-6.346,6.897-9.624,10.055c-2.905,2.798-5.882,5.523-8.927,8.17
	c-0.683,0.32-1.367,0.7-2.056,1.165c-0.543,0.366-0.635,0.715-0.481,0.994c-1.988,1.677-3.996,3.331-6.044,4.932
	c-5.531,4.325-11.827,9.14-18.728,10.965c-1.989,0.526-3.95,0.164-5.816-0.719c-0.169-0.232-0.456-0.363-0.788-0.404
	c-4.105-2.288-7.691-6.94-10.017-9.97c-5.304-6.909-9.491-14.599-13.242-22.536c6.358,0.703,12.249-2.113,16.991-6.443
	C146.552,227.825,148.972,231.684,151.454,235.501z M168.102,214.27c0.751-0.221,1.497-0.469,2.238-0.733
	c-0.789,1.102-1.417,2.352-1.891,3.792c-1.43,4.342-1.542,8.674-5.93,11.244c-0.699,0.41-0.66,0.693-0.318,0.852
	c0.027,0.013,0.054,0.026,0.085,0.037c-0.37,0.258-0.74,0.516-1.111,0.772c-2.085,1.446-4.179,2.88-6.282,4.301
	C150.508,223.965,158.062,217.225,168.102,214.27z M196.574,206.61c0.213,0.271,0.678,0.348,1.173,0.273
	c0.604,0.16,1.212,0.345,1.827,0.571c0.401,0.148,0.882,0.07,1.302-0.126c5.092,2.212,9.043,5.524,10.437,11.563
	c1.312,5.686-3.145,11.718-3.688,17.4c-0.183,1.911,0.164,3.884,0.2,5.794c0.108,5.847-7.54,4.496-11.148,3.578
	c-2.89-0.734-5.528-1.163-8.091-0.888c2.138-1.913,4.245-3.859,6.322-5.83c3.077-2.92,6.433-5.906,9.191-9.227
	c0.541-0.1,1.051-0.273,1.229-0.545c3.275-4.998,4.74-10.841,0.384-15.681c-3.173-3.526-8.399-4.393-12.877-3.782
	c-5.968,0.813-10.477,5.317-15.131,8.732c-2.972,2.18-5.962,4.333-8.963,6.473c0.579-1.004,1.038-2.113,1.402-3.351
	c1.117-3.799,1.656-7.21,4.394-9.694C181.742,208.783,188.71,205.047,196.574,206.61z M128.853,240.517
	c-0.092,0.098-0.149,0.204-0.149,0.318c0.024,5.686,0.826,11.716,0.518,17.474c-5.687-4.511-7.488-13.387-9.188-20.072
	c-2.236-8.795-4.239-17.647-6.463-26.446c-0.853-3.376-1.576-7.268-2.671-10.951c1.333,2.561,2.358,5.396,3.417,7.771
	C118.924,218.942,123.244,230.191,128.853,240.517z M195.237,274.134c-0.107,0.961-0.813,1.879-1.358,2.636
	c-1.357,1.886-3.357,3.848-5.574,4.655c-0.428,0.156-1.181,0.774-0.742,1.281c0.463,0.534,1.385,0.296,1.936,0.096
	c2.941-1.072,5.662-3.627,7.413-6.311c2.903,4.023-3.646,7.444-6.94,8.937c-1.829,0.829-0.169,1.988,1.193,1.371
	c1.688-0.765,4.117-2.019,6.091-3.586c-0.566,10.233-17.426,10.26-25.02,9.378c0.057-0.088,0.104-0.179,0.126-0.278
	c1.212-5.325,2.165-10.698,1.112-15.915c2.958-0.697,5.855-1.658,8.78-2.483c1.679-0.474,3.367-0.901,5.085-1.196
	c0.745-0.128,1.494-0.233,2.251-0.306c4.094-0.393,0.747,1.693-0.765,2.606c-1.672,1.011-3.573,1.841-5.487,2.242
	c-1.801,0.377-1.31,2.076,0.457,1.706c1.472-0.308,8.732-2.888,10.572-5.501C194.881,273.368,195.318,273.409,195.237,274.134z
	 M195.248,252.384c-2.602,5.489-3.289,11.988-3.435,18.012c-1.716-0.079-3.7,0.345-4.661,0.528
	c-4.792,0.914-9.361,2.668-14.102,3.771c-0.308-1.053-0.695-2.099-1.2-3.135c-0.421-0.864-2.069-0.619-2.706-0.001
	c-6.364-0.81-12.496-2.544-18.569-4.58c0.231-0.516,0.42-1.042,0.559-1.581c1.785,0.534,3.673,0.681,5.652,0.242
	c6.824-1.513,12.932-5.874,18.461-9.939c3.246-2.387,6.389-4.915,9.457-7.532c0.065-0.056,0.131-0.111,0.197-0.167
	c0.051-0.029,0.102-0.064,0.153-0.092c0.911-0.493,1.823-0.802,2.736-0.976c3.289-0.625,6.603,0.514,9.988,1.292
	C196.78,249.521,195.944,250.915,195.248,252.384z M187.679,192.36c-1.092-0.794-2.825-0.936-4.109-1.132
	c-4.837-0.741-7.444-3.404-5.651-8.501c0.779-2.215,2.041-4.241,2.162-6.632c0.108-2.145-1.291-5.91-0.115-7.959
	c2.375,1.463,5.181,0.825,7.688-0.846c1.827-1.217,3.283-2.981,4.714-4.619c1.284-1.47,3.53-4.984,5.592-5.379
	c0.405-0.078,0.851-0.282,1.164-0.494l0.354,0.118c-0.271,1.988-0.592,4.167-0.843,6.423c-0.697-0.31-1.476-0.469-2.311-0.454
	c-0.64,0.011-1.5,0.229-1.923,0.752c-0.43,0.531,0.365,0.712,0.746,0.706c1.382-0.025,2.509,1.055,3.056,2.242
	c0.029,0.064,0.074,0.116,0.125,0.162c-0.447,6.9,0.308,13.947,5.576,17.979c-0.323,0.272-0.168,0.558,0.314,0.587
	c0.361,0.021,0.735-0.031,1.094-0.134c0.384-0.062,0.771-0.222,1.069-0.436c0.06,0.02,0.12,0.041,0.143,0.052
	c0.46,0.237,0.739,0.683,0.946,1.137c0.507,1.112,0.526,2.48,0.357,3.668c-0.025,0.179-0.068,0.361-0.106,0.542
	c-0.21,0.639-0.436,1.268-0.634,1.796c-0.191,0.356-0.408,0.696-0.685,0.983c-0.003,0.004-0.023,0.019-0.036,0.028
	c-0.056-0.011-0.108-0.019-0.188-0.042c-0.831-0.239-1.551-0.887-2.165-1.464c-0.578-0.544-3.219,0.541-2.726,1.005
	c0.313,0.294,0.64,0.542,0.974,0.768c-3.864,2.518-5.878,6.526-5.928,10.99c-3.781-0.525-7.505-0.077-11.276,1.019
	C188.597,201.397,191.94,195.458,187.679,192.36z M157.717,216.62c-2.164,1.531-3.934,3.348-5.162,5.417
	c-0.456,0.768-0.839,1.569-1.138,2.403c-0.501,1.396-0.767,2.885-0.773,4.453c-5.051-7.995-9.957-16.083-14.958-24.11
	c-0.002-0.02,0.002-0.038-0.001-0.058c-0.485-3.285-1.236-6.468-2.172-9.575C140.593,203.351,148.809,210.382,157.717,216.62z
	 M132.834,94.24c-0.087,0.014-0.178,0.022-0.264,0.04c-1.303,0.261-2.476,0.801-3.424,1.364
	C130.304,94.742,131.536,94.308,132.834,94.24z M108.918,153.145c4.92-5.522,10.637-10.282,16.479-14.792
	c0.379-0.293,0.377-0.691-0.009-0.942c-3.212-2.089-6.675-6.197-3.323-9.852c0.719-0.783,1.436-1.325,2.135-1.673
	c0.284-0.119,0.572-0.229,0.866-0.33c2.736-0.759,5.061,1.408,5.863,3.932c0.735,2.312-0.407,4.767-1.71,6.593
	c-0.508,0.713,0.586,0.846,1.55,0.634c0.268,0.111,0.623,0.14,1.056,0.022c7.393-2.004,20.082-5.849,22.137-14.459
	c3.09,1.864,6.446,3.045,9.894,3.568c0.803,0.218,1.558,0.373,2.222,0.435c-0.673,6.526-5.928,11.551-7.935,17.768
	c-0.032,0.099,0.068,0.162,0.242,0.196c-0.387,2.141,0.609,4.334,0.751,6.536c0.006,0.247-0.026,0.487-0.097,0.722
	c-0.011,0.046-0.01,0.074-0.012,0.106c-0.033-0.002-0.06-0.008-0.105-0.005c-0.73,0.038-1.468-0.054-2.192-0.137
	c-0.973-0.111-1.94-0.285-2.915-0.383c-0.559-0.476-1.912-0.46-2.467,0.241c-2.278,2.877-4.296,5.979-7.122,8.364
	c-5.06,4.272-8.82-0.205-13.623-1.292c-6.442-1.459-9.297,3.265-12.195,7.956c-3.227-4.417-6.688-8.676-10.226-12.813
	C108.502,153.44,108.774,153.307,108.918,153.145z M95.896,161.726c2.334-3.265,5.184-6.22,8.839-7.979
	c0.027,0.112,0.077,0.226,0.175,0.34c11.085,12.895,21.559,26.898,26.137,43.327c-3.378-5.281-6.758-10.635-10.674-15.535
	c-6.697-8.381-16.319-13.519-24.711-19.954C95.763,161.861,95.846,161.795,95.896,161.726z M93.536,179.533
	c1.077,0.693,3.618-0.782,2.233-1.674c-4.449-2.865-9.371-5.064-14.596-5.628c0.054-0.157,0.065-0.326,0.011-0.506
	c-0.428-1.44,6.197,0.256,6.382,0.311c3.12,0.916,5.999,2.499,8.719,4.248c1.077,0.692,3.619-0.783,2.233-1.674
	c-3.848-2.475-8.213-4.678-12.797-5.426c2.757-1.048,6.584,0.464,9.577,2.078c0.414,0.257,0.828,0.505,1.23,0.747
	c0.082,0.049,0.174,0.081,0.271,0.106c0.551,0.328,1.055,0.643,1.485,0.918c1.078,0.69,3.62-0.786,2.233-1.674
	c-0.892-0.571-1.876-1.16-2.922-1.716c-2.182-1.43-3.84-3.032-3.898-5.986c-0.001-0.07-0.015-0.132-0.029-0.194
	c8.162,6.147,17.22,11.208,23.804,19.191c4.104,4.977,7.509,10.61,10.989,16.026c1.463,2.276,2.903,4.567,4.335,6.862
	c0.04,0.199,0.142,0.348,0.284,0.456c3.405,5.464,6.752,10.965,10.134,16.444c-0.339,0.074-0.644,0.199-0.827,0.374
	c-4.39,4.209-9.758,7.022-15.951,5.451c-0.085-0.021-0.183-0.027-0.284-0.025c-3.696-8.019-7.013-16.239-10.622-24.13
	c-1.515-3.312-3.007-6.682-5.55-9.346c-2.277-2.386-5.831-3.371-8.69-4.829c-4.698-2.396-7.09-7.087-11.483-9.635
	c-2.455-1.423-10.803-3.134-12.249-6.073C83.33,174.077,88.751,176.452,93.536,179.533z M68.413,332.266
	c4.241-10.954,5.524-23.432,6.431-34.931c1.175-14.914,0.754-29.968,0.663-44.913c-0.092-15.004-1.932-29.915-1.451-44.94
	c0.193-6.033,0.708-12.063,1.547-18.041c0.506-3.609,0.976-8.105,2.876-11.388c1.709,0.699,3.558,1.169,4.676,1.586
	c5.414,2.02,7.724,6.47,12.264,9.515c2.887,1.937,6.356,3.126,9.345,4.932c0.003,0.028,0.007,0.057,0.024,0.083
	c3.546,5.428,4.595,13.296,6.153,19.46c2.282,9.028,4.323,18.116,6.643,27.135c1.836,7.138,4.021,14.979,10.206,19.579
	c0.379,0.282,0.777,0.547,1.184,0.804c-0.008,0.063-0.01,0.126-0.019,0.189c-0.015,0.11,0.235,0.164,0.592,0.16
	c4.938,2.907,11.557,4.256,16.751,6.084c0.416,0.146,0.833,0.286,1.25,0.429c0.172,0.263,0.51,0.44,0.85,0.479
	c0.165,0.019,0.339,0.013,0.514-0.011c6.538,2.191,13.191,3.965,20.076,4.654c0.082,0.008,0.19-0.002,0.31-0.024
	c0.363,0.835,0.66,1.675,0.896,2.519c-0.259,0.357-0.146,0.777,0.256,1.02c1.167,5.223,0.21,10.592-1.007,15.937
	c-0.038,0.167-0.023,0.305,0.032,0.419c-0.306,0.08-0.57,0.188-0.705,0.309c1.103-0.992,0.493-0.406-0.85-0.517
	c-1.017-0.084-2.031-0.209-3.044-0.329c-2.977-0.353-5.943-0.794-8.908-1.235c-4.915-0.732-9.821-1.527-14.724-2.341
	c-4.853-0.806-9.675-2.079-14.458-3.5c0.021-0.11,0.047-0.218,0.067-0.328c0.019-0.104-0.587-0.123-1.25-0.029
	c-4.012-1.213-7.997-2.508-11.943-3.711c-7.958-2.426-13.838-5.813-17.974-13.26c-7.868-14.169-11.676-30.413-13.681-46.367
	c-0.826-6.57-1.423-13.174-1.853-19.782c-0.188-2.907-1.715-10.24,0.081-12.837c0.66-0.954-2.206-0.575-2.66,0.082
	c-1.798,2.6-0.588,8.517-0.443,11.381c0.388,7.687,1.152,15.367,2.111,23.002c0.995,7.911,2.5,15.728,4.739,23.385
	c2.747,9.394,6.307,20.067,12.7,27.662c5.059,6.01,13.688,7.725,20.832,9.841c2.117,0.627,4.232,1.257,6.351,1.873
	c-0.464,2.433-1.093,4.791-1.916,7.046c-2.079,3.77-4.764,8.623-7.814,12.329c-0.883,0.855-1.824,1.673-2.841,2.439
	c-2.479,1.868-5.225,3.222-8.119,4.202c-2.097,0.588-4.319,1.115-6.483,1.577c-5.092,0.81-10.377,0.795-15.337,0.501
	c-0.567-0.034-3.301,1.023-1.899,1.106c0.861,0.051,1.728,0.088,2.598,0.118c-0.028,0.031-0.056,0.063-0.074,0.098
	c-1.762,3.367-3.941,6.405-6.373,9.235c-0.612,0.177-1.151,0.487-1.151,0.884c0,0.14,0.001,0.279,0.001,0.418
	C72.551,328.353,70.516,330.342,68.413,332.266z M193.914,170.462c-0.301,0.324-0.526,0.716-0.855,1.016
	c-0.475,0.432-1.069,0.641-1.695,0.741c-0.345,0.055-1.406,0.042-1.241-0.583c0.083-0.311,0.357-0.528,0.678-0.679
	c0.03-0.04,0.061-0.079,0.091-0.119c0.106-0.141,0.213-0.278,0.333-0.407c0.486-0.523,1.202-0.789,1.916-0.78
	C193.5,169.656,194.404,169.935,193.914,170.462z M191.29,183.622c-0.333,0.712-1.175,0.914-1.885,0.894
	c-0.79-0.023-1.543-0.311-2.333-0.333c-0.633-0.019-1.179-0.624-0.89-1.243c0.333-0.713,1.175-0.914,1.885-0.894
	c0.79,0.023,1.543,0.311,2.333,0.333C191.033,182.397,191.579,183.002,191.29,183.622z M202.574,187.993
	c0.428-0.493,1.299-0.737,1.927-0.737c0.167,0,0.333,0,0.5,0c0.342,0,1.181,0.125,0.73,0.645c-0.428,0.493-1.299,0.737-1.927,0.737
	c-0.167,0-0.333,0-0.5,0C202.961,188.638,202.123,188.513,202.574,187.993z" fill="#000000"></path>
</svg>