<?xml version="1.0" standalone="no"?>
<svg version="1.1" id="Layer_1" xmlns="http://www.w3.org/2000/svg" xmlns:xlink="http://www.w3.org/1999/xlink" x="0px" y="0px" width="595.28px" height="595.28px" viewBox="0 0 595.28 595.28" enable-background="new 0 0 595.28 595.28" xml:space="preserve">
<path id="color_x5F_2" fill="#f4696c" d="M485.578,397.765c0.135,0.18,0.376,0.27,0.657,0.296
	c-1.204,4.708-2.401,9.417-3.607,14.124c-0.028,0.112-0.025,0.207-0.01,0.294c-1.563,6.503-3.163,13.033-5.528,19.299
	c-1.493,3.955-3.513,8.193-7.187,10.544c-3.771,2.413-9.555,1.05-13.617,0.324c-3.1-0.554-6.18-1.217-9.255-1.907
	c0.828-0.235,1.672-0.56,2.555-0.995c6.194-3.058,9.165-10.553,11.416-16.606c4.215-11.331,6.662-23.352,9.576-35.058
	c3.386-13.605,7.52-26.883,11.689-40.237c-0.191,7.267-0.246,14.539-0.147,21.804c0.082,6.087,0.296,12.186,0.929,18.243
	C483.377,391.035,483.599,395.127,485.578,397.765z M476.389,285.407l-0.339-0.098c0.171,0.104,0.354,0.198,0.521,0.306
	L476.389,285.407z M448.445,439.05c1.126-0.61,2.24-1.582,3.403-3.086c5.698-7.367,8.145-17.159,10.499-25.997
	c3.569-13.401,6.564-26.951,10.362-40.292c3.055-10.73,7.056-21.254,9.915-32.056c0.005-0.122,0.008-0.244,0.014-0.366
	c0.007-0.144,0.076-0.278,0.181-0.4c0.417-1.607,0.811-3.221,1.167-4.842l0.104-0.774l0.178-0.564
	c0.273-1.314,0.532-2.632,0.756-3.958c2.351-13.918,2.771-31.827-11.008-40.122c-10.535-6.341-23.727-6.386-35.701-6.868
	c-2.463,4.239-5.639,8.169-9.443,11.121l-0.017,0.021l-0.027,0.012c-4.667,3.606-10.276,5.74-16.674,5.164
	c-1.236-0.111-8.562-1.778-11.94-4.115c-0.785,0.136-1.617-0.129-1.595-0.958c0.006-0.23,0.02-0.464,0.034-0.7
	c-0.219-0.513-0.188-1.044,0.154-1.587c0.333-2.642,1.014-5.467,1.393-8.129c-5.463,1.292-11.973,1.444-18.251,2.135l-6.064,0.922
	c-6.239,1.288-11.762,3.773-15.103,9.391c-8.182,13.758-6.177,31.334-8.635,46.61c2.645,3.434,5.245,6.942,7.579,10.703
	c0.113,0.183,0.096,0.363-0.006,0.531c3.918,6.374,6.587,13.255,6.3,21.352c-0.035,0.967-2.92,1.4-2.898,0.776
	c0.723-20.377-17.231-33.063-26.867-49.301c-4.232,2.992-9.385,4.1-14.544,3.494c0.928,2.479,1.299,5.206,1.862,7.972
	c1.512,7.411,3.054,14.823,4.92,22.155c0.987,3.878,2,8.275,3.309,12.674c0.159,0.045,0.248,0.121,0.219,0.238
	c-0.022,0.088-0.046,0.176-0.068,0.264c2.535,8.364,6.202,16.661,12.98,21.327c11.124,7.657,22.505-1.294,30.333-9.432
	c0.413-0.429,1.447-0.58,2.099-0.421c-0.946-8.742-1.698-17.503-1.98-26.289c-0.431-13.364,0.464-26.736,1.247-40.07
	c0.063-1.087,2.987-1.625,2.91-0.313c-0.813,13.862-1.761,27.775-1.188,41.666c0.616,14.993,2.5,29.913,4.376,44.793
	c12.11-6.459,29.472-6.438,43.735-5.788c-0.032-0.102-0.052-0.212-0.041-0.342c2.197-26.52,14.681-51.098,14-78
	c-0.033-1.282,2.896-1.741,2.934-0.227c0.681,26.901-11.803,51.48-14,78c-0.022,0.272-0.175,0.503-0.394,0.688
	c2.624,0.133,5.125,0.275,7.433,0.388c1.963,0.096,0.372,2.142-1.012,2.074c-14.789-0.721-38.194-3.083-52.379,5.498
	c0.002,0.601-0.751,1.056-1.495,1.199l0.048,0.435l-3.925,2.654c-0.182,0.191-0.365,0.38-0.54,0.579
	c0.406,0.357-0.206,1.109-1.084,1.324c-2.264,2.991-3.888,6.657-4.652,11.16c-0.035,0.209-0.149,0.392-0.306,0.549l1.606,0.6
	c0.886,0.231,1.763,0.463,2.619,0.701c12.915,3.598,25.93,7.23,39.074,9.911c0.521,0.106,0.793,0.343,0.894,0.625
	c7.104,1.556,14.21,3.113,21.315,4.669c0.081-0.004,0.155-0.003,0.213,0.009c1.729,0.372,3.455,0.76,5.182,1.153
	c1.886,0.355,3.539,0.487,5.122,0.027L448.445,439.05z M376.269,212.892c-0.021,0.074-0.043,0.147-0.064,0.221
	c22.636,1.041,45.136,3.563,67.257,8.941c0.021-0.019,0.042-0.039,0.063-0.058c13.689-42.739-75.005-52.181-67.144-9.616
	C376.414,212.564,376.365,212.735,376.269,212.892z M220.4,350.001c0.276,0.134,0.46,0.37,0.46,0.729c0,4.421,0,8.843,0,13.265
	c1.582,0,3.163,0,4.744,0c1.97,0,1.354,2.052-0.275,2.052c-3.775,0-7.551,0-11.326,0c-1.97,0-1.354-2.052,0.275-2.052
	c1.22,0,2.439,0,3.66,0c0-4.265,0-8.531,0-12.796c-2.823,1.385-5.58,2.856-7.944,4.789c-2.482,7.143-5.218,14.357-8.367,21.397
	l-0.576,1.769l-0.821,1.287c-4.655,9.932-10.196,19.433-17.117,27.767c-1.131,1.362-2.383,2.774-3.73,4.181
	c-0.182,0.191-0.365,0.381-0.551,0.572c-0.049,0.05-0.098,0.1-0.147,0.15c-0.602,0.614-1.224,1.225-1.866,1.83
	c-0.021,0.02-0.042,0.04-0.063,0.06c-0.272,0.256-0.547,0.511-0.826,0.764c-0.14,0.127-0.281,0.253-0.422,0.38
	c-0.143,0.127-0.285,0.254-0.429,0.379c-8.23,7.237-18.837,12.769-29.113,8.108c-12.395-5.623-19.888-19.811-25.449-31.512
	c-2.337-4.918-4.457-9.934-6.427-15.008c-0.532,3.641-1.901,7.177-3.552,10.5c-0.519,1.137-1.068,2.24-1.642,3.29
	c-0.167,0.305-0.483,0.524-0.847,0.657c0.418,1.767,0.836,3.534,1.254,5.301c5.426,14.536,8.799,36.881,26.228,41.854
	c12.55,3.581,27.016,0.292,39.403-2.575c11.601-2.686,23.036-6.023,34.598-8.862l0.046-0.19c-0.58-0.027-1.027-0.295-0.902-0.875
	c3.132-14.49,5.946-29.27,14.023-41.988c1.748-2.752,3.47-5.714,4.98-8.795l3.225-7.916c0.617-1.953,1.097-3.924,1.397-5.895
	c1.009-6.629,0.173-12.992-1.542-19.34C227.94,346.224,224.213,348.15,220.4,350.001z M253.221,331.062
	c-3.156-7.934-1.189-27.491-9.512-33.375c-1.245-0.775-2.702-1.26-4.415-1.382c0.172,5.094,0.585,10.178,0.624,15.277
	c0,0.01-0.004,0.019-0.004,0.029c1.355-0.091,2.683,0.09,3.913,0.71c0.167,0.083,0.27,0.234,0.313,0.402
	c0.005,0.013,0.006,0.026,0.007,0.04c0.034,0.167,0.013,0.347-0.069,0.497c-1.595,2.912-3.657,5.389-6.027,7.553l-0.202,0.437
	c0.298,3.505-0.356,6.83-2.18,9.578c0.546,3.128-0.134,5.686-1.883,8.033c-0.236,0.501-0.484,0.987-0.759,1.445
	c1.682,5.572,2.971,11.444,2.729,17.294c4.148-9.523,11.822-17.594,18.351-26.161C253.685,331.446,253.332,331.341,253.221,331.062z
	 M124.833,364.721l0.86-0.185l1.142-0.126c6.504-1.196,12.377-4.316,16.856-10.663c-1.833-12.709-2.59-25.696-4.371-38.111
	c-0.206-1.436,2.698-2.169,2.897-0.776c0.228,1.586,0.438,3.182,0.635,4.787c1.338,10.869,2.097,22.128,3.67,33.179
	c0.281,0.127,0.388,0.36,0.14,0.722c-0.01,0.015-0.021,0.029-0.032,0.044c0.255,1.745,0.529,3.484,0.832,5.216
	c1.587,9.07,3.916,17.919,7.771,26.209c10.578-17.139,30.401-26.673,38.666-45.806c2.731-6.322,2.982-15.553,7.695-20.873
	c0.41-0.462,0.817-0.803,1.221-1.05c-0.75-7.229,0.132-14.397,0.213-21.663c0.003-0.289,0.308-0.528,0.718-0.702
	c0.406-0.269,0.92-0.48,1.302-0.48c10.046,0.004,20.092,0.009,30.138,0.013c-0.023-0.096-0.046-0.19-0.068-0.288l-3.955-1.182
	c-6.583-1.417-13.153-2.977-19.551-5.047c-2.181-0.706-4.511-1.422-6.688-2.383c-4.989,6.18-18.359,4.646-24.13,0.963
	c-1.369-0.874,1.19-2.316,2.24-1.646c4.38,2.794,16.097,4.667,19.652-0.438c-0.37-0.213-0.732-0.436-1.083-0.673
	c-0.358-0.242-0.699-0.551-0.99-0.888c-0.484-0.47-0.752-0.946-0.785-1.374c-0.031-0.112-0.051-0.222-0.061-0.331
	c-0.263-0.022-0.526-0.036-0.789-0.068c-0.096-0.008-0.183-0.021-0.259-0.042c-7.625-1.033-15.138-6.082-19.374-12.475
	c-0.077-0.116-0.163-0.229-0.238-0.346c-0.104-0.163-0.192-0.33-0.292-0.494c-11.789,18.474-36.371,19.551-54.254,29.508
	c-0.908,0.506-1.797,1.049-2.676,1.609l-1.971,1.321c-8.32,5.858-14.911,14.197-17.196,24.288
	c-3.002,13.252-0.035,26.655,4.622,39.155l2.704,0.582C115.07,364.976,120.093,365.307,124.833,364.721z M201.759,323.403
	c-0.367,1.048-0.684,2.107-0.981,3.172c-0.083,0.329-0.167,0.658-0.247,0.987l3.667-8.154c-0.112,0.017-0.221,0.029-0.326,0.036
	c-0.104,0.078-0.206,0.181-0.302,0.319C202.787,320.879,202.209,322.119,201.759,323.403z M205.847,283.346
	c0.719,0.338,1.45,0.643,2.143,0.917c0.093,0.037,0.189,0.068,0.282,0.105l-4.011-1.875c0.306,0.193,0.623,0.373,0.948,0.542
	C205.484,283.081,205.712,283.185,205.847,283.346z"></path>
<path id="color_x5F_1" d="M217.223,232.774c0.967,1.017-1.784,2.175-2.658,1.255c-1.107-1.165-4.005-2.04-4.64,0.048
	c-0.367,1.208-3.329,1.555-2.93,0.242C208.31,229.991,214.426,229.831,217.223,232.774z M222.142,230.339
	c1.567,3.301,2.681,6.787,4.248,10.087c1.1,2.316,2.171,3.519,1.524,4.874c-0.465,0.608-1.271,1.101-2.065,1.634
	c-1.635,1.098,0.817,1.771,1.855,1.073c1.979-1.329,4.399-2.832,3.288-5.492c-0.53-1.27-1.306-2.432-1.985-3.643
	c-0.258-0.461-0.504-0.929-0.714-1.413c-1.136-2.615-2.029-5.317-3.253-7.896C224.504,228.435,221.657,229.319,222.142,230.339z
	 M213.312,252.906c-0.658,0.028-1.456,0.243-1.929,0.729c-0.358,0.367-0.208,0.412-0.647,0.31c-0.452-0.105-0.843-0.354-1.217-0.616
	c-0.797-0.557-1.35-1.387-1.733-2.264c-0.359-0.822-3.186,0.117-2.897,0.776c1.643,3.762,6.235,4.664,9.145,1.678
	C214.514,253.027,213.621,252.893,213.312,252.906z M206.032,221.371c0.7,0.247,1.557-0.008,2.049-0.549
	c1.008-1.107,2.682-1.961,3.832-0.585c0.846,1.012,3.6-0.142,2.652-1.276c-2.422-2.9-6.722-1.395-8.909,1.007
	c-0.187,0.205-0.258,0.438-0.241,0.658c-0.027,0.099-0.002,0.183,0.063,0.25C205.573,221.092,205.76,221.275,206.032,221.371z
	 M571.783,186.981c-1.025,7.599-3.166,15.102-4.891,22.572c-3.611,15.648-7.242,31.292-10.889,46.933
	c-7.203,30.9-14.457,61.788-21.679,92.683c-7.103,30.382-13.771,61.32-24.372,90.706c-3.818,10.585-10.454,23.717-22.037,27.608
	c-11.107,3.732-23.631,1.938-34.798-0.606c-2.771-0.27-5.528-0.682-8.264-1.252c-11.975-2.496-23.489-6.71-35.245-10.025
	c-18.333-5.169-36.614-10.53-54.89-15.907c-5.559-1.563-11.109-3.158-16.607-4.883c-1.575-0.463-3.15-0.927-4.726-1.39
	c-0.265-0.078-0.41-0.18-0.481-0.292c-0.14-0.047-0.28-0.09-0.42-0.137c-11.147-3.735-12.744-15.145-11.555-25.572
	c1.411-12.367,5.087-24.313,8.142-36.337c-2.855-8.448-4.64-17.377-6.465-25.903c-0.925-4.321-1.789-8.654-2.684-12.981
	c-0.451-2.182-0.764-4.935-2.201-6.75c-1.193-1.508-4.664-5.754-6.742-4.32c-1.453,1.003-2.729,2.313-4.248,3.216
	c-2.4,1.429-5.887,1.192-7.451-0.342c-1.472,5.193-7.966-0.386-10.158-1.841c-5.369-3.563-9.025,3.353-9.985,7.997
	c-1.503,7.272-2.925,14.562-4.632,21.791c-2.775,11.751-5.391,25.043-12.181,35.288c-0.706,1.065-1.477,2.085-2.307,3.045
	c0.022,0.048,0.047,0.093,0.062,0.147c0.853,3.131,2.302,6.639,3.778,10.312c2.365,5.856,4.78,12.066,4.944,17.924
	c0.004,0.141,0.005,0.281,0.007,0.421c0.003,0.254,0.002,0.506-0.003,0.758c-0.008,0.305-0.021,0.609-0.043,0.912
	c-0.006,0.088-0.012,0.177-0.019,0.266c-0.173,2.171-0.718,4.262-1.751,6.231c-0.006,0.011-0.012,0.022-0.018,0.034
	c-0.163,0.313-0.346,0.621-0.533,0.929c-0.125,0.201-0.25,0.402-0.386,0.601c-0.063,0.095-0.13,0.188-0.196,0.282
	c-0.672,0.962-1.458,1.899-2.406,2.801c-7.078,6.729-18.42,8.422-27.522,11.243c-2.211,0.685-4.423,1.371-6.634,2.056
	c-0.116,0.036-0.21,0.063-0.295,0.085c-0.035,0.026-0.061,0.046-0.102,0.075c-1.52,1.073-3.519,1.568-5.271,2.107
	c-8.354,2.569-16.891,4.583-25.384,6.624c-15.354,3.689-30.756,7.192-46.197,10.5c-6.613,1.417-14.365,3.535-21.63,3.375
	c-9.017,2.01-18.013,3.188-27.105,0.108c-4.489-1.521-8.996-7.265-11.818-10.83c-3.643-4.6-5.757-10.475-7.632-15.979
	c-10.107-29.671-16.831-60.507-23.766-91.05c-6.982-30.747-13.993-61.488-20.955-92.24c-3.521-15.551-7.031-31.105-10.518-46.664
	c-1.807-8.061-4.15-16.197-5.158-24.399c-0.701-5.698-2.265-13.34-0.526-18.99c2.05-6.66,11.285-10.79,16.976-13.497
	c6.617-3.148,14.578-6.346,22.09-6.179c17.621-4.398,35.331-8.445,53.159-11.912c10.146-1.973,20.339-3.978,30.578-5.412
	c8.938-1.252,17.658-3.702,26.592-4.961c13.078-1.843,25.687-0.787,32.535,12.015c3.538,6.615,5.365,13.961,7.25,21.178
	c2.225,8.514,4.227,17.083,6.257,25.645c3.358-0.632,6.716-1.328,10.119-1.582c3.328-0.248,8.512-0.569,10.744,2.517
	c1.24,1.714,0.685,4.035-0.48,6.261c-0.983,1.921-2.413,3.771-3.611,5.062c-0.389,0.439-0.749,0.826-1.048,1.135
	c-0.977,1.008-2.057,1.881-3.196,2.672c0.373,10.782,4.896,20.872,7.509,31.213c0.448,1.774,0.884,3.646,1.248,5.562
	c1.909,7.8,1.924,15.32-3.235,21.782c-1.358,1.701-2.966,3.053-4.732,4.176c0.401,0.024,0.717,0.17,0.779,0.478
	c2.005,9.379,4.011,18.757,6.016,28.136c0.003,0.042,0.01,0.089,0.014,0.133c0.116,0.031,0.219,0.078,0.313,0.135
	c0.33,0.116,0.432,0.298,0.381,0.504c0.001,0.042,0.003,0.085,0.004,0.128c0.002,0.023,0.009,0.043,0.009,0.068
	c0.002,0.364,0.023,0.727,0.029,1.09c16.155,0.427,13.451,22.57,17.319,33.835c4.378-6.214,7.865-12.81,8.752-20.499
	c0.009-0.076,0.03-0.148,0.061-0.218c0.645-4.917,1.413-9.9,2.845-14.654c1.074-3.566,2.31-7.706,5.896-9.491
	c6.532-3.252,17.534-4.752,23.984-0.363c0.677,0.46,1.137,0.927,1.429,1.387c0.998-1.255,2.59-1.981,4.102-2.564
	c6.657-2.568,16.964-2.478,22.793,2.064c2.926,2.28,3.987,7.378,4.784,10.742c0.982,4.148,1.7,8.342,2.251,12.568
	c1.434,6.518,4.153,12.11,7.469,17.319c1.357-5.738,3.357-11.422,4.986-17.051c3.727-12.88,7.483-25.752,11.246-38.622
	c4.339-14.843,8.693-29.682,13.049-44.521c-0.033-0.147,0.015-0.329,0.16-0.543c0.896-3.051,1.786-6.103,2.683-9.153
	c-8.353-0.358-16.724-0.523-25.101-0.554c-1.951-0.007,0.2-1.477,1.172-1.474c8.121,0.03,16.236,0.18,24.336,0.51
	c-1.725-9.611,1.172-16.789,6.673-21.72c3.617-15.504,5.096-32.289,11.18-47.123c0.165-0.403,0.32-0.811,0.492-1.21
	c0.016-0.036,0.032-0.069,0.048-0.105c0.915-2.182,1.978-4.288,3.301-6.232c1.465-2.152,3.117-3.924,4.908-5.397
	c5.192-4.487,11.887-6.631,20.072-6.025c9.744,0.721,19.128,3.286,28.723,4.941c10.686,1.844,21.398,3.458,32.051,5.505
	c20.668,3.973,41.185,8.658,61.584,13.83c1.036-0.067,2.03,0.01,2.977,0.226c5.05,0.46,9.967,2.528,14.235,5.165
	c4.566,2.822,10.711,6.972,12.392,12.45C573.91,173.227,572.599,180.943,571.783,186.981z M379.939,403.376
	c-0.85-6.741-1.7-13.492-2.445-20.253c-5.916,6.129-13.131,12.18-21.791,13.379c-0.001,0.002-0.001,0.003-0.002,0.005
	c-0.449,0.864-0.869,1.798-1.248,2.774c6.407,2.335,12.723,8.741,19.649,9.387C375.783,406.614,377.738,404.852,379.939,403.376z
	 M358.138,417.526c3.126,1.752,6.722,2.901,10.324,3.887c0.78-4.443,2.332-8.133,4.471-11.207
	c-6.979-0.744-12.752-6.093-19.17-8.903C351.971,407.249,352.137,414.164,358.138,417.526z M370.89,422.061
	c0.594,0.155,1.181,0.308,1.767,0.46c0.886,0.231,1.763,0.463,2.619,0.701c12.915,3.598,25.93,7.23,39.074,9.911
	c0.521,0.106,0.793,0.343,0.894,0.625c7.104,1.556,14.21,3.113,21.315,4.669c0.081-0.004,0.155-0.003,0.213,0.009
	c1.729,0.372,3.455,0.76,5.182,1.153c1.886,0.355,3.539,0.487,5.122,0.027c0.461-0.134,0.917-0.32,1.37-0.566
	c1.126-0.61,2.24-1.582,3.403-3.086c5.698-7.367,8.145-17.159,10.499-25.997c3.569-13.401,6.564-26.951,10.362-40.292
	c3.055-10.73,7.056-21.254,9.915-32.056c0.005-0.122,0.008-0.244,0.014-0.366c0.007-0.144,0.076-0.278,0.181-0.4
	c0.417-1.607,0.811-3.221,1.167-4.842c0.099-0.445,0.188-0.892,0.281-1.338c0.273-1.314,0.532-2.632,0.756-3.958
	c2.351-13.918,2.771-31.827-11.008-40.122c-10.535-6.341-23.727-6.386-35.701-6.868c-2.463,4.239-5.639,8.169-9.443,11.121
	c-0.015,0.011-0.029,0.021-0.044,0.033c-4.667,3.606-10.276,5.74-16.674,5.164c-1.236-0.111-8.562-1.778-11.94-4.115
	c-0.785,0.136-1.617-0.129-1.595-0.958c0.006-0.23,0.02-0.464,0.034-0.7c-0.219-0.513-0.188-1.044,0.154-1.587
	c0.333-2.642,1.014-5.467,1.393-8.129c-5.463,1.292-11.973,1.444-18.251,2.135c-2.063,0.228-4.099,0.516-6.064,0.922
	c-6.239,1.288-11.762,3.773-15.103,9.391c-8.182,13.758-6.177,31.334-8.635,46.61c2.645,3.434,5.245,6.942,7.579,10.703
	c0.113,0.183,0.096,0.363-0.006,0.531c3.918,6.374,6.587,13.255,6.3,21.352c-0.035,0.967-2.92,1.4-2.898,0.776
	c0.723-20.377-17.231-33.063-26.867-49.301c-4.232,2.992-9.385,4.1-14.544,3.494c0.928,2.479,1.299,5.206,1.862,7.972
	c1.512,7.411,3.054,14.823,4.92,22.155c0.987,3.878,2,8.275,3.309,12.674c0.159,0.045,0.248,0.121,0.219,0.238
	c-0.022,0.088-0.046,0.176-0.068,0.264c2.535,8.364,6.202,16.661,12.98,21.327c11.124,7.657,22.505-1.294,30.333-9.432
	c0.413-0.429,1.447-0.58,2.099-0.421c-0.946-8.742-1.698-17.503-1.98-26.289c-0.431-13.364,0.464-26.736,1.247-40.07
	c0.063-1.087,2.987-1.625,2.91-0.313c-0.813,13.862-1.761,27.775-1.188,41.666c0.616,14.993,2.5,29.913,4.376,44.793
	c12.11-6.459,29.472-6.438,43.735-5.788c-0.032-0.102-0.052-0.212-0.041-0.342c2.197-26.52,14.681-51.098,14-78
	c-0.033-1.282,2.896-1.741,2.934-0.227c0.681,26.901-11.803,51.48-14,78c-0.022,0.272-0.175,0.503-0.394,0.688
	c2.624,0.133,5.125,0.275,7.433,0.388c1.963,0.096,0.372,2.142-1.012,2.074c-14.789-0.721-38.194-3.083-52.379,5.498
	c0.002,0.601-0.751,1.056-1.495,1.199c-0.133,0.025-0.265,0.044-0.391,0.049c-1.257,0.907-2.425,1.916-3.486,3.04
	c-0.182,0.191-0.365,0.38-0.54,0.579c0.406,0.357-0.206,1.109-1.084,1.324c-2.264,2.991-3.888,6.657-4.652,11.16
	c-0.035,0.209-0.149,0.392-0.306,0.549C371.001,421.97,370.947,422.017,370.89,422.061z M381.124,263.123
	c5.607,5.72,16.533,1.167,21.109,8.106c3.631,5.506-0.021,12.358-0.603,18.417c1.586,2.243,9.415,4.76,10.249,4.896
	c11.306,1.844,19.235-6.302,24.235-15.503c0.054-0.099,0.15-0.188,0.272-0.268c-2.801-7.42-3.839-15.334-6.364-22.843
	c-0.079-0.236,0.144-0.48,0.496-0.681c0.28-0.256,0.689-0.469,1.147-0.522c0.102-0.012,0.192-0.036,0.29-0.053
	c1.043-0.683,2.958-2.214,3.715-4.63c0.044-0.14,0.07-0.283,0.105-0.425c0.015-4.508-3.881-9.792-9.035-6.013
	c-0.77,0.563-2.633,0.374-2.265-0.391c-5.173-1.083-10.273-3.326-12.066-8.733c-1.703-5.139-1.438-10.672-2.503-15.948
	c-0.064-0.319,0.247-0.611,0.684-0.824c-10.789-1.45-21.638-2.397-32.523-2.971c-0.227,1.805-0.461,3.612-0.691,5.421
	c1.936-0.059,3.898,0.476,5.578,1.665c1.246,0.882-1.388,2.147-2.275,1.52c-1.154-0.816-2.363-1.258-3.539-1.296
	c-0.317,2.552-0.615,5.107-0.855,7.667c2.451-0.488,5.087,0.453,6.726,3.009c0.725,1.13-2.074,2.13-2.674,1.195
	c-0.714-1.112-1.832-2.499-3.288-2.568c-0.337-0.016-0.64,0.038-0.914,0.143c-0.209,2.54-0.36,5.083-0.4,7.632
	C375.619,246.502,375.49,257.376,381.124,263.123z M376.38,212.379c0.034,0.185-0.015,0.356-0.111,0.512
	c-0.021,0.074-0.043,0.147-0.064,0.221c22.636,1.041,45.136,3.563,67.257,8.941c0.014,0.003,0.027,0.006,0.041,0.01
	c0.008-0.022,0.015-0.045,0.021-0.068C457.213,179.257,368.519,169.815,376.38,212.379z M374.688,218.282
	c-0.259,0.882-0.517,1.764-0.775,2.646c0.143-0.062,0.29-0.111,0.435-0.166C374.463,219.928,374.577,219.102,374.688,218.282z
	 M382.063,267.075c-1.957,5.001-3.691,10.087-5.651,15.088c7.917-1.399,16.557-1.197,23.967-3.141
	c0.464-5.107-0.762-9.303-8.754-9.876C388.076,268.891,384.815,268.443,382.063,267.075z M486.235,398.061
	c-0.281-0.026-0.522-0.116-0.657-0.296c-1.979-2.638-2.201-6.729-2.529-9.875c-0.633-6.057-0.847-12.156-0.929-18.243
	c-0.099-7.266-0.044-14.537,0.147-21.804c-4.17,13.354-8.304,26.631-11.689,40.237c-2.914,11.706-5.361,23.728-9.576,35.058
	c-2.251,6.054-5.222,13.549-11.416,16.606c-0.883,0.436-1.727,0.76-2.555,0.995c3.075,0.69,6.155,1.353,9.255,1.907
	c4.063,0.726,9.847,2.089,13.617-0.324c3.674-2.351,5.693-6.59,7.187-10.544c2.365-6.266,3.965-12.795,5.528-19.299
	c-0.016-0.087-0.019-0.182,0.01-0.294C483.834,407.478,485.031,402.768,486.235,398.061z M515.065,284.667
	c6.217-24.664,12.716-49.297,18.289-74.117c1.63-7.258,4.086-14.396,4.738-21.843c0.493-5.615,0.8-14.439-3.497-18.91
	c-2.188-2.277-5.542-3.358-8.494-4.231c-18.938-5.603-39.064-5.743-58.09-10.99c-0.079,0.005-0.158,0.007-0.237-0.001
	c-17.144-1.667-34.221-8.909-51.585-7.687c-8.131,0.573-10.336,5.126-11.958,12.576c-1.762,8.088-3.845,16.077-6.421,23.946
	c-0.022,0.069-0.056,0.132-0.092,0.193c24.939-4.041,58.406,10.422,48.442,38.948c0.196,0.088,0.333,0.233,0.367,0.447
	c0.861,5.448,1.093,11.289,0.206,16.816l0.124,1.382l-2.368,7.485l-0.779,0.806c-1.964,3.905-4.836,7.333-8.881,9.916
	c-0.163,0.104-0.365,0.172-0.581,0.215c1.711,6.337,2.846,12.83,5.25,18.966c10.96,0.461,22.833,0.429,33.052,4.889
	c1.246,0.544,2.401,1.167,3.499,1.837c0.171,0.104,0.354,0.198,0.521,0.306c8.774,5.628,12.674,15.249,12.669,26.067
	c-0.004,8.489-1.518,16.948-3.705,25.172c0,0.021,0.007,0.037,0.006,0.059c-0.494,10.637-0.7,21.311-0.523,31.958
	c0.096,5.776,0.233,11.58,0.834,17.33c0.255,2.445,0.359,5.677,1.302,8.266C496.514,357.881,505.836,321.285,515.065,284.667z
	 M342.654,327.008c2.228,3.242,4.648,6.367,7.093,9.508c0.986-7.793,1.2-15.669,2.265-23.457c1.067-7.817,2.663-16.893,8.181-22.964
	c3.647-4.015,8.252-6.105,13.267-7.318c-0.007-0.112,0.007-0.235,0.064-0.38c2.093-5.298,3.907-10.701,6-16
	c0.088-0.222,0.299-0.404,0.563-0.542c-1.513-1.149-2.815-2.707-3.849-4.857c-3.896-8.106-4.23-17.54-3.475-26.888
	c-0.852,0.095-1.642-0.159-1.21-0.901c0.409-0.705,0.908-1.298,1.458-1.802c0.286-2.83,0.65-5.638,1.025-8.387
	c-0.35,0.252-0.686,0.559-1.005,0.913c-4.339,14.781-8.677,29.563-12.999,44.35c-3.834,13.119-7.666,26.239-11.462,39.369
	c-1.79,6.192-4.046,12.453-5.313,18.782C343.213,326.656,342.975,326.853,342.654,327.008z M85.647,162.425
	c-6.299,1.148-14.047,2.051-19.594,5.52c-6.841,4.279-6.117,16.358-5.008,23.184c1.411,8.685,3.957,17.259,5.896,25.859
	c1.94,8.61,3.927,17.21,5.919,25.809c11.32,48.852,22.847,97.657,34.404,146.454c2.047-4.209,3.705-9.049,4.151-13.764
	c-0.002-0.482-0.016-0.965-0.056-1.448c-0.017-0.198,0.053-0.378,0.173-0.541c0.015-0.8-0.005-1.594-0.073-2.377
	c0-0.005,0.001-0.01,0-0.016c-0.307-0.841-0.617-1.681-0.926-2.521c-0.044-0.119-0.106-0.26-0.176-0.409
	c-0.224-0.481-0.531-1.067-0.642-1.459c-0.041-0.136-0.052-0.242-0.04-0.325c-0.137-0.078-0.24-0.186-0.3-0.327
	c-1.159-0.163-2.317-0.351-3.474-0.557c-0.351,0.025-0.686-0.032-0.933-0.188c-0.26-0.093-0.354-0.233-0.333-0.393
	c0,0-0.001-0.001-0.001-0.002c-0.268-0.71-0.528-1.424-0.781-2.141c-0.023-0.067-0.045-0.136-0.069-0.203
	c-3.967-11.332-5.987-23.429-4.22-34.59c-0.435,0.024-0.791-0.062-0.876-0.32c-0.289-0.873-0.584-1.77-0.883-2.678
	c-3.789-11.525-8.093-25.665-4.809-37.379c1.551-5.53,4.202-10.158,9.118-13.262c4.203-2.653,9.244-3.502,13.832-5.232
	c0.71-0.268,1.401-0.561,2.081-0.866l4.78-2.681c4.231-2.956,7.333-7.034,8.517-12.586c1.334-6.253,1.183-12.957,3.538-18.97
	c2.136-5.454,5.664-9.15,9.887-12.014L144.75,222l0.002-0.001c4.917-3.333,10.779-5.537,16.498-8.054
	c-0.008-0.245-0.018-0.489-0.021-0.735c-0.086-5.296,0.858-10.556,2.903-15.153c0.086-0.194,0.171-0.388,0.262-0.579
	c0.031-0.066,0.062-0.133,0.093-0.199c2.554-5.435,6.666-9.915,12.531-12.051c1.273-0.509,2.623-0.924,4.059-1.226
	c6.703-1.409,13.405,0.304,20.11,1.322c-2.101-6.814-3.917-13.726-5.542-20.662c-0.344-1.469-0.641-3.191-1.007-4.972
	c-0.255-0.964-0.514-1.927-0.787-2.888c-1.837-6.465-5.009-9.725-11.908-10.025c-17.498-0.761-34.3,6.012-51.582,7.694
	C115.779,158.527,100.501,159.716,85.647,162.425z M226.388,203.792c-0.005-0.211,0.104-0.4,0.28-0.564
	c-8.43,3.741-19.21,3.793-27.955,3.783c0.005,0.008,0.012,0.014,0.017,0.022c0.188,0.339,0.363,0.68,0.528,1.022
	c1.906,3.841,2.353,7.919,1.805,11.946c-0.827,6.407-4.133,12.675-8.13,17.754c-0.392,0.498-1.323,0.659-1.973,0.501
	c-0.493,0.074-0.98,0.016-1.266-0.26c-0.413-0.399-0.875-0.797-1.37-1.166c-0.045-0.034-0.094-0.064-0.14-0.098
	c-0.204-0.147-0.411-0.292-0.625-0.426c-0.057-0.036-0.117-0.067-0.175-0.102c-0.46-0.277-0.938-0.518-1.43-0.705
	c-0.05-0.019-0.1-0.04-0.15-0.058c-0.245-0.087-0.493-0.157-0.743-0.214c-0.037-0.008-0.074-0.02-0.111-0.028
	c-0.287-0.06-0.575-0.099-0.863-0.111c0,0-0.001,0-0.001,0c-0.298-0.013-0.596,0.001-0.893,0.046l-2.027,0.861
	c-2.028,1.411-3.475,3.655-4.013,6.063c-0.577,2.58-0.411,5.561,1.493,7.591c1.132,1.207,2.532,1.891,4.042,2.248l2.819,0.324
	c1.196,0.017,2.401-0.089,3.548-0.243c1.983-0.266,1.229,1.744-0.304,1.949c-0.43,0.058-0.877,0.106-1.332,0.148l-5.15,8.995
	l-1.836,1.856c-0.018,0.057-0.036,0.113-0.069,0.176c-0.111,0.211-0.232,0.407-0.346,0.613c0.506-0.068,0.966-0.004,1.131,0.299
	c0.251,0.462,0.522,0.919,0.811,1.371c0.126,0.198,0.269,0.39,0.401,0.584c0.171,0.252,0.336,0.506,0.518,0.754
	c0.008,0.01,0.017,0.02,0.024,0.03c3.813,5.167,9.885,9.308,16.158,10.66c6.759-12.022,22.672-8.844,32.15-17.335
	c1.309-1.172,2.365-2.412,3.245-3.696c3.013-4.846,3.517-10.537,2.89-16.226c-0.579-3.733-1.716-7.587-3.055-11.455
	c-0.438,0.097-0.888,0.064-1.2-0.178c-0.952-0.74-1.633-0.794-2.447,0.124c-0.485,0.547-1.353,0.798-2.049,0.549
	c-0.281-0.101-0.471-0.293-0.562-0.518c-0.021-0.032-0.029-0.068-0.038-0.105c-0.007-0.027-0.009-0.056-0.012-0.084
	c-0.032-0.234,0.035-0.487,0.232-0.709c1.342-1.513,3.258-2.245,5.085-1.868c-1.346-3.688-2.783-7.359-4.001-10.922
	c-0.004,0.005-0.007,0.01-0.012,0.015c-0.485,0.493-1.38,0.755-2.049,0.549c-0.893-0.275-1.536-0.329-2.018,0.545
	c-0.34,0.618-1.244,0.884-1.9,0.837c-0.334-0.024-0.699-0.175-0.853-0.431c-0.002-0.003-0.005-0.006-0.008-0.01
	c-0.005-0.008-0.006-0.02-0.011-0.028c-0.019-0.039-0.034-0.079-0.043-0.122c-0.027-0.128-0.009-0.274,0.082-0.438
	c1.236-2.244,4.096-2.811,6.407-2.126C227.507,211.558,226.485,207.503,226.388,203.792z M216.504,269.456
	c-6.132,1.961-11.818,4.375-14.86,10.183c0.057-0.004,0.104-0.015,0.163-0.018c0.56-0.03,0.896,0.103,1.063,0.306
	c0.157,0.052,0.185,0.141,0.12,0.251c0.053,0.292-0.117,0.641-0.435,0.909c0.009,0.023,0.025,0.052,0.041,0.08
	c0.084,0.08,0.207,0.201,0.404,0.383c0.379,0.351,0.809,0.658,1.261,0.943c0.306,0.193,0.623,0.373,0.948,0.542
	c0.275,0.045,0.503,0.149,0.638,0.311c0.719,0.338,1.45,0.643,2.143,0.917c0.093,0.037,0.189,0.068,0.282,0.105
	c4.384,1.719,8.911,3.088,13.495,4.272c-1.762-6.22-3.525-12.44-5.287-18.66C216.426,269.792,216.443,269.617,216.504,269.456z
	 M199.629,375.429c0.096-0.218,0.188-0.438,0.283-0.655c0.354-0.812,0.706-1.624,1.05-2.438c2.305-5.477,4.384-11.038,6.305-16.59
	c0.006-0.018,0.019-0.033,0.026-0.051c0.026-0.22,0.166-0.468,0.478-0.732c6.637-5.625,17.212-7.179,22.17-14.51
	c-0.004-0.013-0.008-0.027-0.012-0.04c-0.004-0.014-0.003-0.026-0.006-0.04c-0.009-0.033-0.011-0.066-0.016-0.099
	c-0.056-0.438,0.269-0.808,0.727-1.039c0.043-0.05,0.089-0.099,0.132-0.149c0.228-0.432,0.455-0.865,0.646-1.335
	c0.113-0.277,0.368-0.49,0.68-0.635c0.518-1.037,0.804-2.13,0.847-3.323c-0.2,0.16-0.4,0.321-0.614,0.473
	c-0.797,0.57-2.258,0.276-2.411-0.361c-0.001-0.003-0.002-0.006-0.002-0.009c-0.053-0.244,0.078-0.536,0.519-0.852
	c3.282-2.347,4.599-5.935,4.577-9.748c-1.532,1.14-3.138,2.199-4.807,3.18c-1.137,0.668-3.583-0.222-1.893-1.215
	c2.395-1.408,4.805-2.939,6.908-4.785c0.036-0.032,0.073-0.063,0.109-0.096c0.265-0.235,0.543-0.455,0.796-0.701
	c0.461-0.449,2.559-2.504,3.682-4.098c0.414-0.671,0.677-1.276,0.655-1.703c-0.1-0.204-0.359-0.304-0.876-0.228
	c-4.025,0.59-7.846,2.76-11.459,4.518c-6.231,3.033-13.42,7.261-20.622,6.576c-1.435-0.136-0.938-1.208-0.042-1.726
	c-0.109-0.225-0.23-0.466-0.362-0.717c-0.042-0.079-0.084-0.157-0.127-0.237c-0.015-0.027-0.03-0.053-0.045-0.081
	c-0.651-1.171-1.509-2.42-2.304-2.66c-0.142,0.036-0.283,0.065-0.423,0.087c-0.112,0.017-0.221,0.029-0.326,0.036
	c-0.104,0.078-0.206,0.181-0.302,0.319c-0.784,1.116-1.361,2.355-1.811,3.64c-0.367,1.048-0.684,2.107-0.981,3.172
	c-0.083,0.329-0.167,0.658-0.247,0.987c-0.245,1.015-0.493,2.03-0.764,3.039c-0.063,0.275-0.128,0.55-0.19,0.826
	c-1.743,7.804-6.164,14.764-10.869,21.082c-9.538,12.806-24.381,21.104-32.095,35.313c0.561,1.085,1.141,2.164,1.761,3.228
	c0.788,1.351-1.962,2.472-2.646,1.298c-0.633-1.085-1.225-2.186-1.797-3.293c-0.396-0.144-0.623-0.443-0.465-0.899
	c-4.091-8.184-6.621-16.919-8.354-25.896c-0.353-1.825-0.67-3.66-0.963-5.501c-8.042,9.027-19.342,10.823-30.986,9.748
	c0.12,0.307,0.231,0.627,0.333,0.948c0.15,0.474,0.281,0.944,0.396,1.366c0.127,0.468,0.235,0.867,0.328,1.133
	c0.072,0.104,0.122,0.228,0.137,0.379c1.785,4.888,3.632,9.755,5.685,14.538c5.112,11.905,11.274,25.27,21.391,33.838
	c0.315,0.262,0.622,0.535,0.945,0.787c5.064,3.946,10.873,6.124,17.23,4.08c8.999-2.894,16.219-9.706,21.939-17.019
	c2.019-2.581,3.914-5.254,5.712-7.996c0.233-0.358,0.471-0.713,0.701-1.073c0.252-0.393,0.496-0.791,0.744-1.186
	c0.43-0.688,0.86-1.375,1.278-2.07c0.049-0.081,0.096-0.163,0.144-0.244C193.687,388.028,196.821,381.8,199.629,375.429z
	 M107.341,363.627c0.017,0.046,0.034,0.093,0.051,0.139c0.884,0.16,1.769,0.308,2.653,0.443c5.025,0.767,10.048,1.098,14.788,0.512
	c0.673-0.083,1.34-0.189,2.001-0.311c6.504-1.196,12.377-4.316,16.856-10.663c-1.833-12.709-2.59-25.696-4.371-38.111
	c-0.206-1.436,2.698-2.169,2.897-0.776c0.228,1.586,0.438,3.182,0.635,4.787c1.338,10.869,2.097,22.128,3.67,33.179
	c0.281,0.127,0.388,0.36,0.14,0.722c-0.01,0.015-0.021,0.029-0.032,0.044c0.255,1.745,0.529,3.484,0.832,5.216
	c1.587,9.07,3.916,17.919,7.771,26.209c10.578-17.139,30.401-26.673,38.666-45.806c2.731-6.322,2.982-15.553,7.695-20.873
	c0.41-0.462,0.817-0.803,1.221-1.05c-0.75-7.229,0.132-14.397,0.213-21.663c0.003-0.289,0.308-0.528,0.718-0.702
	c0.406-0.269,0.92-0.48,1.302-0.48c10.046,0.004,20.092,0.009,30.138,0.013c-0.023-0.096-0.046-0.19-0.068-0.288
	c-0.025-0.12-0.053-0.238-0.076-0.361c-1.293-0.27-2.585-0.543-3.878-0.821c-6.583-1.417-13.153-2.977-19.551-5.047
	c-2.181-0.706-4.511-1.422-6.688-2.383c-4.989,6.18-18.359,4.646-24.13,0.963c-1.369-0.874,1.19-2.316,2.24-1.646
	c4.38,2.794,16.097,4.667,19.652-0.438c-0.37-0.213-0.732-0.436-1.083-0.673c-0.358-0.242-0.699-0.551-0.99-0.888
	c-0.484-0.47-0.752-0.946-0.785-1.374c-0.031-0.112-0.051-0.222-0.061-0.331c-0.263-0.022-0.526-0.036-0.789-0.068
	c-0.086-0.011-0.173-0.03-0.259-0.042c-7.625-1.033-15.138-6.082-19.374-12.475c-0.077-0.116-0.163-0.229-0.238-0.346
	c-0.104-0.163-0.193-0.331-0.292-0.494c-11.789,18.474-36.371,19.551-54.254,29.508c-0.908,0.506-1.797,1.049-2.676,1.609
	c-0.667,0.425-1.324,0.866-1.971,1.321c-8.32,5.858-14.911,14.197-17.196,24.288C99.716,337.724,102.684,351.126,107.341,363.627z
	 M207.887,318.707c1.073,1.088,1.971,2.6,2.708,4.066c7.083-0.331,14.343-5.438,20.505-8.207c1.757-0.79,3.821-1.792,5.935-2.41
	c-0.016-0.018-0.027-0.037-0.028-0.06c0-0.064-0.004-0.128-0.005-0.193c-0.002-0.023-0.009-0.043-0.009-0.068
	c-0.018-2.354-0.119-4.705-0.236-7.055c-0.023-0.474-0.045-0.949-0.069-1.423c-0.119-2.291-0.245-4.581-0.321-6.874
	c-0.214-0.033-0.399-0.108-0.498-0.263c-0.034-0.053-0.058-0.12-0.09-0.176c-9.96-0.004-19.92-0.008-29.881-0.013
	c-0.159,7.054-0.937,14.026-0.119,21.058C206.529,317.421,207.239,318.002,207.887,318.707z M235.757,357.598
	c4.148-9.523,11.822-17.594,18.351-26.161c-0.423,0.01-0.775-0.096-0.886-0.375c-3.156-7.934-1.189-27.491-9.512-33.375
	c-1.245-0.775-2.702-1.26-4.415-1.382c0.172,5.094,0.585,10.178,0.624,15.277c0,0.01-0.004,0.019-0.004,0.029
	c1.355-0.091,2.683,0.09,3.913,0.71c0.167,0.083,0.27,0.234,0.313,0.402c0.003,0.013,0.005,0.026,0.007,0.04
	c0.034,0.167,0.013,0.347-0.069,0.497c-1.595,2.912-3.657,5.389-6.027,7.553c-0.073,0.066-0.152,0.126-0.226,0.192
	c0.008,0.082,0.017,0.163,0.023,0.244c0.298,3.505-0.356,6.83-2.18,9.578c0.546,3.128-0.134,5.686-1.883,8.033
	c-0.236,0.501-0.484,0.987-0.759,1.445C234.709,345.875,235.999,351.748,235.757,357.598z M229.576,264.848
	c-0.003-0.017,0-0.033-0.001-0.05c-3.287,1.677-6.968,2.779-10.604,3.89c0.192,0.113,0.34,0.279,0.407,0.516
	c1.888,6.662,3.775,13.325,5.663,19.987c0.027,0.094,0.033,0.184,0.03,0.272c3.214,0.769,6.444,1.473,9.665,2.147
	c-0.079-0.685-0.154-1.337-0.259-1.882C232.872,281.429,231.236,273.136,229.576,264.848z M224.056,388.255
	c-1.518,2.77-2.971,5.557-4.248,8.451c-0.053,0.121-0.108,0.24-0.161,0.361c-0.354,0.815-0.69,1.641-1.014,2.476
	c-0.043,0.11-0.088,0.219-0.13,0.33c-0.352,0.925-0.684,1.863-0.99,2.819c-2.543,7.946-4.146,16.137-5.907,24.28
	c-0.157,0.725-1.222,1.154-2.029,1.115c-0.58-0.027-1.027-0.295-0.902-0.875c3.132-14.49,5.946-29.27,14.023-41.988
	c1.748-2.752,3.47-5.714,4.98-8.795c1.26-2.571,2.374-5.225,3.225-7.916c0.617-1.953,1.097-3.924,1.397-5.895
	c1.009-6.629,0.173-12.992-1.542-19.34c-2.818,2.945-6.546,4.871-10.358,6.722c0.276,0.134,0.46,0.37,0.46,0.729
	c0,4.421,0,8.843,0,13.265c1.582,0,3.163,0,4.744,0c1.97,0,1.354,2.052-0.275,2.052c-3.775,0-7.551,0-11.326,0
	c-1.97,0-1.354-2.052,0.275-2.052c1.22,0,2.439,0,3.66,0c0-4.265,0-8.531,0-12.796c-2.823,1.385-5.58,2.856-7.944,4.789
	c-2.482,7.143-5.218,14.357-8.367,21.397c-0.457,1.022-0.922,2.042-1.397,3.056c-4.655,9.932-10.196,19.433-17.117,27.767
	c-1.131,1.362-2.383,2.774-3.73,4.181c-0.183,0.191-0.365,0.382-0.551,0.572c-0.048,0.05-0.098,0.1-0.147,0.15
	c-0.602,0.614-1.224,1.225-1.866,1.83c-0.021,0.02-0.042,0.04-0.063,0.06c-0.272,0.256-0.548,0.511-0.826,0.764
	c-0.14,0.127-0.281,0.254-0.422,0.38c-0.142,0.127-0.285,0.253-0.429,0.379c-8.23,7.237-18.837,12.769-29.113,8.108
	c-12.395-5.623-19.888-19.811-25.449-31.512c-2.337-4.918-4.457-9.934-6.427-15.008c-0.532,3.641-1.901,7.177-3.552,10.5
	c-0.519,1.137-1.068,2.24-1.642,3.29c-0.167,0.305-0.483,0.524-0.847,0.657c0.418,1.767,0.836,3.534,1.254,5.301
	c5.426,14.536,8.799,36.881,26.228,41.854c12.55,3.581,27.016,0.292,39.403-2.575c11.601-2.686,23.036-6.023,34.598-8.862
	c0.926-0.228,1.852-0.451,2.78-0.671c0.095-0.384,0.435-0.739,1.083-0.875c4.997-1.051,9.893-2.438,14.703-4.152
	c4.222-1.505,10.181-2.71,13.663-5.583c4.627-3.817,4.966-9.539,3.47-14.839c-0.036-0.126-0.075-0.251-0.113-0.376
	c-0.081-0.27-0.165-0.537-0.254-0.804c-0.069-0.204-0.141-0.407-0.215-0.609c-0.071-0.196-0.145-0.391-0.22-0.585
	c-0.083-0.211-0.167-0.422-0.254-0.631c-0.099-0.237-0.201-0.473-0.306-0.706c-0.057-0.126-0.112-0.252-0.17-0.377
	c-0.172-0.367-0.349-0.729-0.532-1.083C236.201,396.097,229.771,392.159,224.056,388.255z M228.049,202.577
	c-0.07,0.036-0.145,0.066-0.216,0.101c0.073-0.016,0.146-0.029,0.218-0.041C228.05,202.617,228.05,202.597,228.049,202.577z
	 M203.077,140.896c-2.661-5.362-6.546-10.569-12.396-12.688c-8.625-3.124-18.546-0.875-27.246,0.925
	c-17.905,3.705-36.017,6.234-53.941,9.876c-17.083,3.472-34.062,7.413-50.962,11.681c-0.251,0.361-0.677,0.665-1.23,0.733
	c-16.875,2.077-14.767,26.5-13.191,38.487c2.008,15.273,6.473,29.789,10.319,44.647c7.989,30.86,14.568,62.116,21.727,93.178
	c2.068,8.975,4.471,17.861,6.466,26.852c3.421,15.411,6.611,30.916,10.414,46.239c3.75,15.111,9.431,30.149,15.357,44.54
	c4.469,10.85,10.67,20.642,23.737,20.24c1.232-0.038,2.471-0.12,3.712-0.227c0.136-0.034,0.272-0.067,0.408-0.1
	c0.442-0.108,0.789-0.106,1.037-0.039c9.956-1.046,20.112-3.993,29.853-6.173c15.75-3.525,31.515-7.078,47.118-11.21
	c9.85-2.608,16.005-5.219,25.776-8.247c7.557-2.342,17.994-3.651,22.695-10.607c0.751-1.111,1.343-2.235,1.803-3.367
	c4.222-11.143-3.564-22.276-6.91-32.938c-2.873,2.509-6.326,4.221-10.373,4.452c-0.241,0.014-0.479,0.008-0.718,0.014
	c0.099,0.216,0.191,0.441,0.286,0.662c0.043,0.101,0.088,0.201,0.13,0.302c0.157,0.379,0.308,0.766,0.453,1.158
	c0.016,0.042,0.032,0.084,0.047,0.126c0.125,0.343,0.24,0.692,0.354,1.043c0.046,0.144,0.094,0.286,0.138,0.431
	c0.067,0.219,0.127,0.441,0.189,0.663c0.092,0.336,0.185,0.672,0.264,1.013c0.005,0.021,0.01,0.042,0.015,0.063
	c1.184,4.987,0.945,10.368-2.768,14.067c-3.417,3.405-7.765,4.651-12.206,6.296c-6.386,2.366-12.794,4.482-19.468,5.886
	c-0.42,0.088-0.771,0.038-1.046-0.092c-14.5,3.434-28.755,7.909-43.375,10.835c-11.094,2.221-24.073,4.897-35.262,1.705
	c-18.694-5.334-21.987-26.9-27.88-42.686c-9.428-39.798-18.818-79.606-28.137-119.431c-5.54-23.67-10.331-47.62-16.357-71.167
	c-2.623-10.245-6.622-21.985-3.348-32.558c2.198-7.099,6.116-9.659,13.028-11.704c19.075-5.643,39.35-5.74,58.491-11.096
	c0.175-0.077,0.368-0.133,0.577-0.153c11.31-1.1,22.265-4.151,33.419-6.176c4.63-0.841,9.625-1.655,14.541-1.743
	c3.844-0.157,7.642,0.152,10.865,1.502c1.597,0.668,2.837,1.621,3.83,2.759c1.171,1.286,2.085,2.869,2.712,4.787
	c3.124,9.547,4.638,19.596,7.778,29.186c0.067,0.206,0.033,0.399-0.065,0.574c0.22,0.729,0.45,1.455,0.677,2.181l7.312,0.203
	c1.234-0.117,2.465-0.281,3.693-0.481c-2.006-8.477-3.958-16.971-6.198-25.39C207.526,153.55,206.03,146.846,203.077,140.896z
	 M126.094,467.566c-3.284-0.563-6.388-1.76-9.145-3.898c-9.011-6.989-12.453-19.556-16.192-29.79
	c-5.461-14.948-10.247-29.845-13.665-45.396c-4.964-22.585-10.499-45.016-15.56-67.575c-2.325-10.362-4.741-20.668-7.305-30.965
	c-5.378-21.602-9.319-43.524-15.511-64.932c-4.214-14.568-7.941-29.744-8.41-44.964c-0.321-10.442,1.161-23.181,10.108-28.499
	c-2.369,0.787-4.673,1.736-6.834,2.687c-4.906,2.157-10.038,4.664-14.065,8.27c-4.591,4.112-4.368,9.038-3.982,15.009
	c1.011,15.632,5.526,30.991,8.955,46.232c6.919,30.753,13.909,61.491,20.9,92.228c7.068,31.077,13.967,62.216,21.878,93.092
	c2.013,7.856,4.125,15.704,6.771,23.374c2.237,6.487,4.115,13.241,7.387,19.311c3.786,7.022,11.041,15.214,19.336,16.428
	C115.983,468.943,121.057,468.491,126.094,467.566z M296.288,321.122c-0.813-2.167-2.285-3.763-4.112-5.139
	c-3.31-2.492-7.912-4.738-9.84-8.612c-1.872-3.76-4.675-8.322-4.981-12.579c-0.519-7.188,5.946-9.29,11.829-8.02
	c2.036,0.439,4.305,1.339,6.395,1.197c2.249-0.153,1.599-2.818,0.37-3.654c-3.979-2.708-10.048-3.054-14.648-2.223
	c-7.337,1.326-9.269,5.947-10.84,12.58c-0.974,4.109-1.686,8.264-2.234,12.449c0.008,0.063,0.013,0.127,0.004,0.199
	c-2.907,25.181-33.501,38.706-32.563,65.125c0.041,1.136-2.869,1.686-2.919,0.282c-0.021-0.577-0.007-1.14,0.001-1.705
	c-1.279,3.385-2.863,6.663-4.609,9.861c-1.129,2.068-2.275,4.098-3.4,6.128c0.608-0.216,1.291-0.314,1.621-0.087
	c5.144,3.53,11.013,7.428,17.317,8.53c0.695-0.454,1.746-0.523,2.115,0.188c0.01,0.02,0.02,0.041,0.03,0.06
	c4.81,0.227,8.523-1.928,11.435-5.171c0.082-0.157,0.204-0.297,0.358-0.415c3.004-3.519,5.134-8.178,6.737-12.446
	c5.294-14.094,8.273-29.059,11.238-43.781c0.861-4.275,1.421-8.224,4.87-11.182c1.853-1.588,4.091-3.938,6.826-3.577
	c3.149,0.416,5.435,2.752,7.949,4.477c0.859,0.589,1.213,0.713,1.147,1.042C296.607,323.537,296.701,322.221,296.288,321.122z
	 M308.511,312.09c3.919-3.078,5.854-6.455,7.815-10.947c1.973-4.52,4.359-14.397-4.203-13.092c-3.18,0.485-6.299,1.699-9.552,1.477
	c-1.13-0.077-2.845-0.933-3.565-2.126c-1.308,1.297-3.763,2.127-5.676,1.919c-4.023-0.438-11.389-4.06-12.797,1.841
	c-1.137,4.769,2.015,9.528,3.893,13.733c2.163,4.842,6.545,6.862,10.462,10.034c1.702,1.378,3.436,3.095,4.21,5.15
	c0.149-0.257,0.32-0.521,0.528-0.796C301.896,316.294,305.608,314.371,308.511,312.09z M318.52,322.247
	c1.004,0.94,1.758,1.971,2.352,3.067c0.093-0.004,0.181-0.003,0.251,0.012c5.276,1.165,10.187,0.347,14.289-3.125
	c-2.452-4.43-4.253-9.138-4.854-14.351c-0.336-2.586-0.714-5.17-1.211-7.731c-0.859-4.419-1.634-11.049-4.894-14.472
	c-3.538-3.715-10.747-4.1-15.494-3.439c-1.537,0.214-7.137,0.821-7.281,3.147c-0.171,2.735,3.317,2.459,5.067,2.07
	c2.865-0.638,5.999-1.678,8.967-1.211c9.611,1.511,4.339,12.969,1.865,18.268c-1.712,3.667-3.983,6.197-7.219,8.648
	c-1.853,1.403-9.828,5.675-8.994,8.618c1.399,4.935,7.374-2.091,9.859-2.661C314.33,318.374,316.313,320.181,318.52,322.247z
	 M460.283,465.646c7.899,0.029,19.045-0.392,24.046-7.47c4.089-5.788,6.368-12.644,9-19.168c2.764-6.854,4.697-13.816,6.696-20.917
	c8.557-30.396,16.308-61.011,23.569-91.741c7.233-30.609,14.048-61.314,20.91-92.008c3.417-15.28,7.534-30.557,10.263-45.974
	c1.271-7.181,2.139-14.85,0.238-22.008c-1.426-5.368-5.092-14.505-11.683-15.295c-0.492-0.03-0.976-0.039-1.454-0.034
	c-0.307,0.091-0.602,0.129-0.822,0.085c-0.583,0.069-0.883-0.041-0.974-0.235c-24.087-6.086-48.377-11.22-72.767-15.854
	c-9.822-1.668-19.651-3.293-29.397-5.333c-0.25-0.052-0.508-0.109-0.761-0.164c-2.613-0.458-5.226-0.922-7.84-1.374
	c-8.771-1.515-19.862-3.472-27.105,3.202c-4.954,4.564-7.716,10.817-9.629,17.173c-2.059,6.836-3.604,13.792-5.036,20.775
	c-0.756,3.884-1.499,7.766-2.347,11.606c-0.531,2.598-1.087,5.189-1.668,7.776c3.398-2.16,7.423-3.694,11.773-4.634
	c-0.072-0.053-0.133-0.115-0.183-0.186c-0.146-0.102-0.213-0.253-0.144-0.465c0.002-0.005,0.003-0.01,0.004-0.015
	c0.004-0.104,0.019-0.213,0.059-0.335c0.33-1.008,0.644-2.022,0.96-3.035c2.099-7.4,3.419-15.121,5.666-22.443
	c0.397-1.634,0.879-3.238,1.548-4.751c1.924-4.35,4.961-6.783,9.625-7.699c8.299-1.631,17.528,0.081,25.67,1.718
	c10.067,2.023,20.021,4.588,30.265,5.584c0.34,0.033,0.569,0.126,0.719,0.252c17.811,4.954,36.557,5.448,54.461,9.994
	c5.319,1.351,11.777,2.781,14.587,7.962c4.92,9.073,2.54,20.908,0.081,30.324c-5.148,19.71-9.631,39.616-14.579,59.382
	c-12.66,50.568-25.541,101.082-38.483,151.579c-0.023,0.092-0.068,0.178-0.121,0.26c-2.307,9.81-4.593,27.571-15.825,31.448
	c-10.891,3.759-24.583-1.778-35.213-4.061c-0.05-0.011-0.087-0.025-0.113-0.042c-4.452-0.975-8.904-1.95-13.356-2.925
	c-2.147-0.47-4.295-0.941-6.442-1.411c-0.32,0.18-0.703,0.269-1.098,0.188c-7.88-1.607-15.732-3.52-23.543-5.586
	c-1.132-0.248-2.264-0.496-3.396-0.744c-0.149-0.033-0.166-0.102-0.098-0.188c-5.638-1.526-11.252-3.123-16.834-4.74
	c-5.573-1.615-13.663-2.95-17.16-8.082c-4.03-5.917-2.752-13.252,0.254-19.332c-7.674-0.122-13.885-5.72-17.572-12.108
	c-1.692-2.932-3.131-6.009-4.384-9.18c-2.878,10.665-6.107,21.439-6.938,32.431c-0.385,5.099-0.463,11.17,1.738,15.905
	c2.055,4.42,5.496,6.572,9.616,8.094c0.033,0.005,0.068,0.008,0.099,0.017c10.078,2.958,20.15,5.965,30.223,8.978
	c3.148,0.922,6.297,1.844,9.445,2.766c0.085,0.025,0.126,0.06,0.145,0.1c20.396,6.097,40.807,12.159,61.3,17.827
	C444.078,463.692,452.145,465.615,460.283,465.646z M569.191,168.065c-2.749-6.649-10.375-12.525-18.15-15.317
	c2.821,2.592,4.871,6.305,5.969,9.767c2.805,8.85,2.197,18.079,0.348,27.069c-4.588,22.306-9.972,44.479-14.943,66.704
	c-10.002,44.715-20.135,89.416-31.909,133.704c-3.999,15.043-7.263,30.865-12.97,45.358c-3.785,9.61-7.089,23.07-16.873,28.416
	c-4.525,2.473-11.136,3.088-16.188,3.365c-0.266,0.015-0.531,0.019-0.797,0.03c0.563,0.083,1.123,0.173,1.688,0.242
	c9.199,1.134,20.05,1.786,27.488-4.744c6.12-5.372,10.185-11.547,13.041-19.16c5.338-14.229,9.56-28.768,13.203-43.515
	c7.67-31.042,15.089-62.124,22.379-93.258c7.252-30.971,14.497-61.943,21.654-92.937c1.882-8.149,4.428-16.437,5.547-24.723
	C569.504,182.95,571.64,173.986,569.191,168.065z M383.985,250.005c1.516,0.368,2.869,0.543,4.421,0.406
	c1.403-0.124,2.42-1.738,0.408-1.561c-2.519,0.223-2.56-0.372-2.729-2.383c-0.153-1.822-0.063-3.65,0.082-5.469
	c0.218-2.719,0.838-5.402,1.486-8.043c0.256-1.041-2.658-0.588-2.895,0.375c-1.331,5.422-1.984,10.728-1.332,16.292
	C383.457,249.866,383.804,249.961,383.985,250.005z M392.679,257.545c4.05,0.882,8.297-0.865,10.612-4.271
	c0.298-0.438-1.07-0.293-1.159-0.278c-0.553,0.099-1.358,0.29-1.698,0.79c-1.313,1.931-2.969,3.163-5.374,2.639
	c-0.647-0.141-1.443,0.097-2.025,0.371C392.809,256.901,392.026,257.403,392.679,257.545z M394.114,233.208
	c-0.75,1.29,2.185,1.112,2.729,0.177c0.619-1.064,1.427-2.099,2.767-2.035c1.456,0.07,2.574,1.456,3.288,2.568
	c0.6,0.935,3.398-0.065,2.674-1.195C402.692,228.232,396.729,228.711,394.114,233.208z M395.385,224.164
	c2.158-2.609,5.158-2.729,7.855-0.821c0.888,0.628,3.521-0.638,2.275-1.52c-3.939-2.787-9.428-2.012-12.498,1.7
	C391.884,224.894,394.674,225.024,395.385,224.164z M295.994,222.841c1.206,2.604-0.788,6.082-2.061,8.324
	c-1.238,2.181-2.584,4.354-4.231,6.254c-0.152,0.656-1.521,1.354-2.292,1.067c-5.178-1.922-13.157-2.699-13.569-9.641
	c-0.354-5.98,4.597-8.327,9.809-6.785c0.037,0.011,0.062,0.025,0.095,0.037C287.229,218.96,293.649,217.779,295.994,222.841z
	 M291.967,222.119c-2.413-2.053-4.881-1.316-6.704,1.121c-0.338,0.452-1.866,0.76-2.491,0.581c-0.301,0.081-0.598,0.104-0.838,0.034
	c-2.786-0.825-4.913-0.162-5.135,3.032c-0.15,2.165,0.18,4.432,2.07,5.799c2.709,1.961,6.028,2.603,9.161,3.631
	c2.008-2.532,3.777-5.502,4.799-8.481C293.548,225.737,293.893,223.758,291.967,222.119z M270.515,145.724
	c-0.356-5.98,4.598-8.327,9.809-6.784c0.037,0.011,0.062,0.025,0.095,0.037c3.483-3.137,9.903-4.319,12.248,0.743
	c1.206,2.604-0.787,6.081-2.06,8.324c-1.238,2.181-2.584,4.354-4.231,6.254c-0.152,0.656-1.521,1.354-2.292,1.067
	C278.904,153.442,270.928,152.666,270.515,145.724z M275.543,149.564c2.709,1.961,6.028,2.603,9.161,3.631
	c2.008-2.532,3.777-5.502,4.798-8.481c0.719-2.098,1.063-4.078-0.863-5.717c-2.412-2.053-4.88-1.315-6.703,1.121
	c-0.338,0.452-1.865,0.76-2.491,0.581c-0.301,0.081-0.599,0.105-0.838,0.034c-2.786-0.824-4.914-0.162-5.135,3.032
	C273.323,145.929,273.653,148.196,275.543,149.564z M325.807,181.709c-2.508-4.874-7.999-11.216-2.987-16.384
	c3.83-3.951,8.669-3.972,11.646,0.911c0.199,0.327,0.128,0.639-0.085,0.901c2.62-0.402,5.92-0.092,7.592,2.239
	c1.571,2.189,1.941,5.355-0.188,7.314c-3.274,3.011-8.879,4.509-13.434,5.131C327.632,182.323,326.205,182.482,325.807,181.709z
	 M324.04,172.001c1.047,3.06,2.939,5.694,4.449,8.531c3.317-0.452,6.96-1.454,9.745-3.168c5.215-3.209,0.306-9.773-4.718-8.845
	c-1.228,0.228-1.247-0.229-0.794-0.672c-0.398,0.003-0.753-0.111-0.926-0.395c-1.595-2.615-4.078-4.472-6.596-1.433
	C323.725,167.803,323.283,169.789,324.04,172.001z" fill="#000000"></path>
</svg>