<?xml version="1.0" standalone="no"?>
<svg version="1.1" id="Layer_1" xmlns="http://www.w3.org/2000/svg" xmlns:xlink="http://www.w3.org/1999/xlink" x="0px" y="0px" width="595.28px" height="595.28px" viewBox="0 0 595.28 595.28" enable-background="new 0 0 595.28 595.28" xml:space="preserve">
<path id="color_x5F_2" fill="#e04949" d="M313.77,425.633l0.75,18.5l-6.104,0.203c0.541-0.167,0.987-0.422,0.99-0.743
	c0.046-5.796,0.766-11.553,0.813-17.348c0-0.021-0.012-0.037-0.023-0.055C311.754,425.969,313.77,425.633,313.77,425.633z
	 M312.653,403.15l-3.884-0.518l-2.753,0.636C308.238,403.122,310.463,403.092,312.653,403.15z M325.854,406.473
	c-8.895-2.088-21.787-3.092-32.109,0.173l-8.526,4.263c-0.317,0.24-0.629,0.487-0.933,0.743l-3.32,3.559
	c-0.578,0.793-1.106,1.637-1.572,2.539c-0.18,0.348-0.818,0.588-1.451,0.699l-0.172,0.185c0,0,1.197,0.599,2.786,1.394
	c2.051,0.162,4.151,0.652,6.356,1.645c1.107,0.498,8.105,3.736,8.025,5.782c0.083,0.234,0.049,0.463-0.168,0.68
	c-1.06,1.06-2.863,1.37-3.834,1.461c0.296,0.529,0.574,1.1,0.838,1.704c1.89,0.579,3.804,1.081,5.684,1.695
	c0.455,0.148,0.642,0.383,0.651,0.64h0.161l1.5-9c0,0-10,0-9-6s9-9.5,15-9.5c8.25,0,22.447,0.643,23.75,6.5
	c0.5,2.25-1.25,6.5-4.75,8s-3.5,1.5-3.5,1.5l-0.486,9.731c0.388-0.206,0.817-0.37,1.094-0.391c0.939-0.07,1.983-0.199,3.088-0.39
	l5.383-1.346c1.993-0.661,3.967-1.516,5.715-2.591c0.629-0.418,1.302-0.891,1.981-1.406c2.789-2.281,4.562-5.311,4.063-9.227
	C341.117,411.742,332.604,408.058,325.854,406.473z M344.306,215.124c-0.036-0.236-0.034-0.38-0.02-0.484
	c-0.841-0.099-1.681-0.196-2.522-0.279c-0.963-0.096-4.609-0.855-5.401-0.549l-0.124,0.207c-0.441,2.085-1.032,4.146-1.781,6.177
	l0.477,1.431c0.215-0.053,0.415-0.078,0.572-0.056c4.046,0.591,5.997,4.164,7.713,7.495c0.872,1.694,1.891,4.498,3.722,5.432
	c2.768,1.409,0.561-3.165,0.257-4.393C345.975,225.168,345.076,220.149,344.306,215.124z M281.6,226.162
	c1.723-2.506,3.799-4.169,6.858-4.616c0.104-0.016,0.196-0.021,0.285-0.026c-0.918-2.399-1.68-4.852-2.258-7.364
	c-0.039-0.017-0.081-0.031-0.114-0.053c-1.446-0.934-5.262-0.124-7.782,0.358c-0.728,3.864-3.813,17.806-4.11,19.672h1.791
	l4.023-5.46C280.783,227.641,281.217,226.718,281.6,226.162z M306.402,247.011c-0.396,0-0.793,0-1.188,0l0.056,0.122l3.052-0.122
	c-0.551,0-1.101,0-1.651,0C306.578,247.018,306.488,247.017,306.402,247.011z M299.66,235.864c0.147-0.001,0.295-0.003,0.443-0.004
	l-0.334-0.728l-0.164,0.654C299.624,235.813,299.642,235.839,299.66,235.864z M316.139,244.953c1.986-2.362,3.961-4.782,5.835-7.282
	c-6.944,0.028-13.889,0.172-20.834,0.213c1.761,2.345,3.604,4.636,5.504,6.889c0.041,0.049,0.067,0.098,0.082,0.147
	c0.059,0.009,0.114,0.021,0.171,0.03c3.066,0,6.131,0,9.197,0C316.109,244.95,316.122,244.953,316.139,244.953z M311.992,172.074
	c-0.629-0.009-1.275-0.028-1.93-0.059c0.623,0.074,1.199,0.117,1.707,0.117c0.348,0,0.725-0.019,1.12-0.05
	C312.587,172.081,312.286,172.078,311.992,172.074z M295.875,168.249c-0.012,0.025-0.023,0.053-0.034,0.078
	c0.099,0.033,0.211,0.07,0.333,0.111C296.074,168.375,295.973,168.314,295.875,168.249z M311.386,169.856
	c4.487,0.176,10.572,0.302,14.417-2.543c-3.782-8.537-8.724-16.541-14.826-23.53c-5.591,6.515-10.309,13.987-13.99,21.961
	c0.027,0.019,0.058,0.031,0.083,0.052C300.924,168.896,306.582,169.667,311.386,169.856z M465.898,310.165
	c-0.011,0.115-0.089,0.234-0.215,0.348c0.64-0.24,1.299-0.458,1.972-0.66L465.898,310.165z M480.967,387.317
	c-0.193,0.957-0.378,1.916-0.553,2.875c0.061,0.072,0.121,0.144,0.183,0.216L480.967,387.317z M418.27,446.133
	c0,0,0.128,0.021,0.361,0.061c-0.091-0.096-0.174-0.195-0.25-0.298C418.311,446.05,418.27,446.133,418.27,446.133z M431.27,310.133
	c-0.019,0.015-0.039,0.033-0.057,0.048c0.791-0.446,1.607-0.824,2.444-1.132C432.757,309.276,431.937,309.614,431.27,310.133z
	 M509.95,346.186c-0.839-7.093-1.812-14.541-4.377-21.255c-5.364-14.033-27.796-19.117-40.472-13.004
	c-0.174,0.084-0.465,0.149-0.781,0.189c-0.973,3.605-4.393,7.809-8.291,7.941c-4.463,0.152-5.916-2.459-7.476-6.009
	c-0.076-0.04-0.146-0.087-0.195-0.149c-0.61-0.763-1.199-1.547-1.782-2.339c-0.559,0.196-1.155,0.298-1.473,0.126
	c-20.478-11.115-30.501,28.482-33.189,42.076c-0.031,0.16-0.188,0.307-0.406,0.434c0.28-0.009,0.522,0.035,0.665,0.164
	c0.501,0.45,1.03,0.83,1.579,1.158c0.631-0.028,1.204,0.18,1.261,0.645c3.351,1.451,7.319,1.262,11.038,1.15
	c-0.059-8.824-0.1-18.391,5.18-24.928c0.777-0.963,3.546-0.646,2.402,0.77c-4.291,5.312-4.204,13.406-4.324,19.896
	c-0.088,4.768-0.227,9.493-0.601,14.246c-0.65,8.248-1.339,16.492-2.063,24.734c-0.957,10.896-1.945,21.794-3.139,32.668
	c-0.695,6.326-0.88,13.355-2.779,19.503c0.078,0.062,0.143,0.136,0.176,0.231c0.982,2.869,9.848,3.304,12.179,3.638
	c8.024,1.147,16.126,1.766,24.22,2.155c8.122,0.39,16.271,0.609,24.4,0.37c3.288-0.097,6.592-0.214,9.857-0.626
	c1.231-0.154,3.503-0.126,4.475-1.034c0.424-0.396,1.797-0.583,2.355-0.348c-0.486-9.585,1.128-19.215,1.563-28.806
	c-2.158,2.209-4.754,4.016-7.935,5.208c-0.069,0.026-0.138,0.042-0.207,0.066c-0.907,0.382-1.857,0.656-2.846,0.78
	c-17.483,3.345-32.072-21.021-39.548-33.138c-0.07-0.114-0.093-0.227-0.086-0.337c-6.207-8.049-19.605-11.721-11.974-23.932
	c5.075-8.119,14.296-12.59,21.27-6.375c2.052-4.404,7.208-9.654,11.704-5.11c1.947,1.968-0.012,6.123-0.897,8.09
	c-1.505,3.345-3.683,6.752-4.247,10.429c5.047,3.328,9.081,7.563,12.916,12.007c1.221-5.993,2.67-11.965,2.984-18.077
	c-3.035-0.301-5.921-0.974-8.242-2.388c-0.771-0.471-0.207-1.126,0.592-1.476c-0.169-0.138-0.258-0.339-0.205-0.619
	c1.557-8.268,3.715-16.493,2.174-24.934c-0.235-1.29,2.671-2.023,2.898-0.777c1.572,8.617-0.556,16.996-2.146,25.449
	c-0.073,0.388-0.43,0.691-0.869,0.884c1.75,1.019,3.911,1.592,6.234,1.897c0.78-0.6,2.557-0.752,2.541,0.234
	c4.045,0.229,8.283-0.115,11.509-0.191c0.831-0.02,1.661-0.056,2.492-0.082l7.001-0.351c0.249-0.018,0.499-0.025,0.748-0.045
	c1.056-0.083,2.112-0.162,3.163-0.286c0.55-0.064,1.382-0.444,1.057-0.153c0.186-0.087,0.386-0.153,0.589-0.195
	C511.354,359.71,510.727,352.757,509.95,346.186z M124.77,329.633c-0.481,0.589-0.879,1.459-1.211,2.521
	c0.645-1.304,1.407-2.56,2.301-3.763C125.486,328.794,125.119,329.205,124.77,329.633z M178.17,314.03
	c-0.303,0.015-0.594-0.038-0.824-0.191c-2.398-1.601-4.729-3.244-6.803-5.211c-0.509,3.565-1.85,6.9-4.951,9.084
	c-6.417,4.516-13.3,4.27-20.776,3.326c-15.735-1.986-21.91,13.354-21.097,26.207c0.008,0.131-0.078,0.253-0.222,0.363
	c0.281,12.553-0.307,25.076-1.956,37.538c-0.324,2.445-0.656,4.89-1.037,7.327c-0.299,1.916,2.463,2.494,4.896,2.732
	c0.814-0.456,2.2-0.584,2.319,0.039c0.009,0.045,0.016,0.09,0.024,0.135c0.267,0.02,0.507,0.038,0.688,0.061
	c1.896,0.237,3.797,0.445,5.702,0.601c2.847,0.169,5.585,0.238,7.636,0.092c6.448-0.46,14.998-1.344,16.31-1.479
	c0.645-0.294,1.519-0.404,1.923-0.182c1.773-0.291,3.545-0.604,5.314-0.93c-1.511-2.787-1.262-9.081-1.43-11.167
	c-0.706-8.766-1.042-17.561-1.066-26.354c-0.003-1.097,2.896-1.637,2.898-0.775c0.021,7.9,0.27,15.813,0.859,23.692
	c0.236,3.147,0.471,6.307,0.921,9.433c0.123,0.854,0.216,4.401,1.115,4.924c1.159,0.674-1.523,1.832-2.314,1.373
	c-0.084-0.049-0.157-0.123-0.235-0.187c-0.119,0.042-0.239,0.078-0.359,0.101c-1.807,0.337-3.601,0.641-5.386,0.918
	c0.739,5.952-0.227,16.895,6.259,19.479c0.447,0.178,0.905,0.329,1.365,0.472l3.877,0.861c2.686,0.411,5.446,0.555,8.075,0.896
	c4.864,0.631,9.722,1.313,14.564,2.096l2.296,0.229c-0.791-5.469-0.637-11.043-0.459-16.55c0.153-4.721-0.376-9.979-0.027-14.821
	c0-0.007,0-0.021,0-0.027c0-0.016,0.005-0.034,0.006-0.051c0.068-0.932,0.158-1.853,0.306-2.746
	c0.728-4.426,3.128-7.368,5.796-10.813c3.329-4.296,4.658-9.245,3.31-14.604C201.247,342.276,180.486,332.318,178.17,314.03z
	 M158.605,320.155c-2.011,0.363-4.174,0.51-6.316,0.554c0.805,0.024,1.619,0.024,2.443-0.013
	C156.174,320.632,157.455,320.444,158.605,320.155z M119.152,379.605c0.046,0.005,0.092,0.009,0.138,0.015
	c0.042-0.408,0.083-0.815,0.123-1.223l-0.269,1.141L119.152,379.605z"></path>
<path id="color_x5F_1" d="M187.111,264.548c-0.552-0.397,0.521-1.058,0.773-1.164c0.598-0.252,1.363-0.369,1.918,0.029
	c1.674,1.204,3.565,1.784,5.541,2.279c0.582,0.146,0.748,0.606,0.275,1.026c-0.502,0.445-1.388,0.715-2.049,0.55
	C191.234,266.683,189.085,265.968,187.111,264.548z M183.599,248c0.573,0.292,1.312,0.122,1.885-0.097
	c0.118-0.045,1.365-0.67,0.832-0.942c-1.06-0.541-2.324-1.291-2.909-2.368c-0.443-0.816-3.207,0.206-2.898,0.775
	C181.161,246.572,182.408,247.392,183.599,248z M162.338,274.596c0.655-0.044,1.441-0.248,1.936-0.705
	c0.068-0.063,0.137-0.126,0.214-0.176c0.069-0.007,0.292-0.064,0.344-0.069c0.562-0.054,1.13-0.047,1.693-0.047
	c0.703,0,1.454-0.154,2.05-0.549c0.441-0.293,0.396-0.688-0.185-0.688c-2.323,0.001-4.936,0.032-6.749,1.708
	C161.141,274.532,162.076,274.614,162.338,274.596z M174.339,241.598c2.124-0.096,4.413-1.253,5.935-2.706
	c0.489-0.467-0.426-0.547-0.698-0.528c-0.646,0.044-1.451,0.244-1.935,0.706c-0.363,0.348-0.77,0.646-1.207,0.894
	c-0.234,0.132-0.479,0.254-0.729,0.354c-0.443,0.178-0.192,0.049-0.13,0.046c-0.63,0.028-1.473,0.246-1.935,0.706
	C173.161,241.546,174.059,241.61,174.339,241.598z M420.831,264.2c-0.68,0.065-1.388,0.275-1.942,0.68
	c-2.078,1.517-5.18,1.148-6.686,3.598c-1.777,2.887,2.785,4.678,4.888,4.762c0.678,0.027,1.471-0.202,2.05-0.549
	c0.479-0.287,0.38-0.564-0.157-0.586c-2.145-0.086-5.775-2.357-3.517-4.698c0.75-0.777,2.064-1.017,3.051-1.343
	c1.06-0.353,2.08-0.775,2.984-1.436C422.052,264.227,421.016,264.183,420.831,264.2z M430.747,279.55
	c-1.545,1.421-3.413,1.31-5.377,1.047c-1.448-0.193-2.946,1.881-0.994,2.143c2.929,0.391,6.015,0.273,8.303-1.832
	C434.123,279.579,431.838,278.546,430.747,279.55z M437.809,260.214c-0.377,1.534-0.695,3.093-0.721,4.678
	c-0.022,1.41,2.902,0.896,2.922-0.275c0.025-1.584,0.344-3.144,0.721-4.678C441.047,258.65,438.095,259.049,437.809,260.214z
	 M419.094,254.095c-0.001,1.735-0.017,3.499-0.629,5.146c-0.554,1.49,2.343,1.304,2.742,0.229c0.689-1.854,0.807-3.69,0.809-5.65
	C422.016,252.408,419.095,252.931,419.094,254.095z M424.607,248.405c0.62,0.77,3.406-0.244,2.691-1.129
	c-1.643-2.037-4.338-1.935-6.594-1.103c-0.347,0.128-1.228,0.686-0.775,1.151c0.461,0.477,1.397,0.214,1.916,0.022
	C422.939,246.944,423.932,247.568,424.607,248.405z M437.582,252.114c-0.662,0.075-1.508,0.451-1.584,1.217
	c-0.071,0.723,0.748,1.101,1.361,1.031c2.235-0.252,4.868-0.253,5.986,2.051c0.603,1.238,3.34,0.12,2.645-1.313
	C444.498,252.031,440.562,251.778,437.582,252.114z M519.527,268.762c-2.877,5.569-7.93,7.112-13.36,7.46
	c-1.023,0.273-1.878,0.411-2.397,0.411c-0.53,0-1.031,0-1.502,0c4.615,3.164,9.625,7.645,4.281,12.493
	c-6.227,5.65-14.85,3.502-22.139,1.195c1.803,6.008-0.191,13.791-6.523,15.81c-1.331,0.425-2.67,0.559-4,0.473
	c-0.069,0.018-0.117,0.029-0.117,0.029l-0.068-0.044c-4.333-0.348-8.543-3.047-12.006-5.963c0.54,3.427,1.734,6.65,4.121,9.301
	c0.068,0.076,0.09,0.156,0.082,0.238c-0.011,0.115-0.089,0.234-0.215,0.348c0.64-0.24,1.299-0.458,1.972-0.66
	c12.512-3.772,30.433-1.095,38.125,9.293c4.985,6.732,5.957,16.872,6.911,24.935c0.931,7.877,1.771,16.169,0.5,24.057
	c-0.045,0.28-0.491,0.528-1.019,0.687c0.714,11.197-0.358,22.968-3.406,33.746c-1.349,4.767-3.131,9.518-5.826,13.523
	c-0.181,10.866-2.32,21.792-1.606,32.658c0.059,0.894-2.855,1.431-2.898,0.777c-0.006-0.093-0.008-0.186-0.014-0.278
	c-0.028,0.03-0.049,0.06-0.084,0.092c-3.066,2.865-9.898,2.47-13.709,2.655c-9.137,0.443-18.314,0.274-27.449-0.164
	c-9.15-0.44-18.376-1.022-27.428-2.492c-2.303-0.375-8.895-0.794-11.121-3.147c-0.091-0.096-0.174-0.195-0.25-0.298
	c-0.037-0.05-0.078-0.098-0.111-0.148c-0.464-0.069-0.77-0.316-0.616-0.782c2.149-6.566,2.304-14.197,3.033-21.011
	c1.067-9.962,1.997-19.938,2.875-29.918c-8.794,11.369-21.248,20.266-35.733,21.025c0.672,1.382,1.342,2.764,2.013,4.146
	c3.502,7.22,6.968,14.457,10.392,21.715c1.623,3.441,3.976,7.129,4.992,10.818c0.139,0.502-0.506,0.871-0.861,1.039
	c-0.002,0.001-0.004,0.002-0.007,0.003c-0.184,0.087-0.373,0.14-0.559,0.167c-0.397,0.188-0.842,0.33-1.121,0.33
	c-61.778,0-123.556,0-185.334,0c-0.152,0-0.27-0.01-0.372-0.024c-0.887,0.23-1.871,0.139-1.649-0.44
	c0.724-1.895,1.437-3.793,2.143-5.694c0.356-0.961,3.254-1.327,2.896-0.365c-0.653,1.763-1.316,3.521-1.985,5.278
	c0.07-0.012,0.138-0.02,0.196-0.02c61.199,0,122.397,0,183.597,0c-0.883-2.813-2.619-5.611-3.855-8.237
	c-2.78-5.91-5.588-11.807-8.421-17.691c-1.767-3.67-3.545-7.335-5.337-10.993c-0.43-0.015-0.858-0.029-1.291-0.059
	c-1.626-0.108-0.7-1.384,0.385-1.774c-0.956-1.941-1.906-3.886-2.878-5.819c-0.771-1.533-2.846-7.213-4.298-8.454
	c-0.422-0.064-0.718-0.276-0.656-0.687c0.029-0.195,0.142-0.363,0.283-0.515c-0.152,0.042-0.297,0.067-0.421,0.067
	c-45.73,0.003-91.461,0.175-137.191,0.181c-3.977,8.716-6.453,17.999-10.063,26.866c5.575,0.781,11.161,1.422,16.757,1.806
	c0.202-0.104,0.436-0.177,0.702-0.191c7.4-0.391,13.733-11.624,21.183-4.9c0.106,0.097,0.179,0.194,0.235,0.294
	c4.557-1.027,8.788-2.235,13.255-1.881c2.051,0.162,4.151,0.652,6.356,1.645c1.107,0.498,8.105,3.736,8.025,5.782
	c-0.012,0.287-0.16,0.551-0.487,0.78c-1.052,0.738-2.37,0.994-3.724,1.004c0.07,0.119,0.141,0.234,0.209,0.356
	c0.296,0.529,0.574,1.1,0.838,1.704c1.89,0.579,3.804,1.081,5.684,1.695c0.455,0.148,0.642,0.383,0.651,0.64
	c0.028,0.728-1.388,1.64-2.319,1.335c-1.718-0.562-3.465-1.026-5.197-1.545c-0.441,0.321-0.91,0.596-1.483,0.949
	c-0.121,0.074-0.241,0.125-0.362,0.166c1.506,2.48,2.189,5.363,1.088,8.076c-0.35,0.861-1.78,1.07-2.502,0.67
	c-6.037-3.342-10.865-6.66-17.697-3.146c-4.102,2.11-7.794,3.651-12.346,4.533c-1.45,0.282-11.779,2.406-14.72,1.078
	c-15.768,0-31.534,0-47.302,0c-13.172,0-27.302,1.424-40.348-0.841c-10.26-1.781-19.549-7.107-23.684-17.095
	c-4.146-10.019-4.387-20.921-6.355-31.454c-2.412-0.299-4.84-0.668-7.293-1.132c-0.209-0.04-0.282-0.169-0.252-0.358
	c0.7-4.481,1.287-8.963,1.773-13.447c-11.777-1.152-24.537-4.149-33.301-12.635c-23.48-22.733-2.755-60.355,17.055-77.715
	c3.188-2.794,6.538-5.434,10.105-7.731c0.865-0.558,1.731-1.115,2.617-1.638c1.561-0.921,0.662-2.188,0.275-3.748
	c-0.813-3.274-1.578-6.569-2.102-9.905c-1.487-9.479-2.159-20.033,1.623-29.107c5.146-12.351,16.623-18.218,29.326-19.644
	c3.893-15.969,26.915-22.926,39.107-11.555c6.391,5.961,7.514,14.078,2.505,21.453c-0.158,0.233-0.329,0.451-0.493,0.677
	c0.588-0.168,1.207-0.198,1.481,0.064c5.678,5.435,10.433,14.191,19.271,8.696c0.4-0.25,2.095-0.803,2.325-0.043
	c1.125,3.723-0.883,6.084-3.587,8.371c0.038,0.036,0.067,0.079,0.087,0.129c2.641,6.763,8.675,11.723,11.119,18.481
	c2.063,5.701-1.752,8.889-6.647,11.071c-8.097,3.61-16.33,5.252-22.968,11.72c-6.397,6.234-9.26,13.858-7.152,22.593
	c0.601,0.017,1.131,0.283,1.163,0.898c1.063,20.048,26.056,29.646,28.032,49.369c0.447,4.459-0.273,8.384-2.745,12.156
	c-2.484,3.793-6.332,6.844-6.698,11.705c-0.401,5.316-0.063,10.781-0.235,16.125c-0.193,5.998-0.481,12.08,0.444,18.033
	c0.053,0.338-0.098,0.636-0.354,0.872c8.789,1.493,17.615,3.107,26.471,4.415c3.594-9.008,6.099-18.418,10.262-27.199
	c-0.44,0.01-0.777-0.083-0.777-0.313c-0.021-28.169-0.979-56.33-1-84.5c0-0.971,2.897-1.451,2.898-0.775c0,0.031,0,0.063,0,0.094
	c0.205-0.077,0.412-0.127,0.605-0.127c16.893,0.002,33.786,0.071,50.679,0.151c0-8.13,0-16.259,0-24.388
	c0-1.043,2.908-1.629,2.908-0.324c0,8.242,0,16.483,0,24.726c11.921,0.058,23.842,0.112,35.763,0.169c0-9.004,0-18.008,0-27.012
	c0-0.97,2.898-1.449,2.898-0.775c0,9.267,0,18.533,0,27.801c15.338,0.07,30.676,0.127,46.014,0.133
	c0.729-0.704,2.645-0.836,2.644,0.301c-0.015,24.723-0.034,49.533-0.702,74.266c17.518,0.133,26.737-15.824,33.764-29.75
	c-0.82-0.428-1.605-0.945-2.331-1.598c-0.249-0.223,0.056-0.537,0.542-0.791c-0.563,0.041-1.018-0.061-0.955-0.379
	c2.335-11.805,9.197-36.753,22.166-44.061c0.791-0.446,1.607-0.824,2.444-1.132c3.384-1.242,7.146-1.293,11.307,0.301
	c-1.401-1.924-2.83-3.826-4.478-5.526c-4.288-4.428-8.38-5.371-14.367-5.689c-7.626-0.404-16.171-1.902-20.089-9.405
	c-4.39-8.405-0.063-16.952,3.019-25.044c1.014-2.661,2.023-5.345,3.099-8.002c-6.983,0.086-18.526,0.501-21.11-7.453
	c-2.39-7.358,4.787-9.623,10.676-11.505c0.61-0.304,1.148-0.559,1.616-0.771c-3.239-2.563-7.733-4.606-5.197-9.024
	c0.146-0.311,0.375-0.645,0.655-0.983c0.02-0.026,0.035-0.051,0.056-0.077c0.065-0.086,0.139-0.157,0.206-0.239
	c2.532-3.069,6.608-3.578,10.515-3.63c0.196-0.043,0.364-0.078,0.518-0.111c0.049-2.17-1.572-4.877-2.266-6.588
	c-1.012-2.498-1.909-4.951-2.141-7.654c-0.316-3.694,2.21-7.454,5.595-8.872c6.246-2.616,14.648-1.565,20.549,2.331
	c0.731,0.183,1.289,0.336,1.614,0.43c-0.1-6.693,0.094-13.874,4.967-17.85c1.052-1.554,2.327-2.552,3.87-2.552
	c0.463,0,0.906,0.024,1.335,0.067c0.017-0.004,0.031-0.01,0.048-0.014c8.313-2.023,13.365,7.627,15.34,14.547
	c9.185-7.976,29.325,3.004,22.424,13.443c0.658,0.018,1.407,0.044,2.209,0.08c5.544-1.052,11.281-0.883,15.025,4.102
	c2.914,3.877-0.02,7.797-3.479,10.857c4.677-1.828,9.762-2.716,13.272,0.951c3.121,3.261,3.503,8.102,1.437,11.779
	c2.728,0.514,7.272,1.777,8.545,4.6c0.526,0.618,0.921,1.328,1.104,2.168c1.261,5.782-5.72,10.433-11.116,13.049
	c-0.992,0.854-1.643,1.37-1.643,1.37s8.169,0.329,10.506,4.419C519.586,264.079,520.905,266.095,519.527,268.762z M514.537,250.797
	c0.397-0.413,0.758-0.838,1.072-1.272C515.266,249.952,514.906,250.378,514.537,250.797z M112.488,285.858
	c-4.575,3.221-8.941,6.947-12.93,11.08C103.304,293.522,108.516,289.143,112.488,285.858z M168.928,238.09
	c1.276-0.166,2.53-0.445,3.75-0.821C171.338,237.616,170.048,237.886,168.928,238.09z M161.729,268.599
	c0.047-0.004,0.091-0.01,0.139-0.013c0.077-0.06,0.158-0.115,0.231-0.179C161.974,268.464,161.851,268.527,161.729,268.599z
	 M160.544,278.257c0.869,1.329,2.237,2.849,3.95,2.939c1.074,0.059,2.045-0.416,2.9-1.116c0.234-0.263,0.375-0.447,0.375-0.447
	s0.004,0.044,0.009,0.11c0.416-0.389,0.8-0.822,1.153-1.264c0.035-0.075,0.063-0.158,0.1-0.232c0.053-0.105,0.16-0.197,0.297-0.279
	c0.279-0.375,0.534-0.742,0.764-1.078c0.607-0.889,3.555-1.024,2.73,0.182c-0.475,0.694-0.993,1.383-1.556,2.035
	c-2.668,6.748-1.081,14.281-0.607,21.331c0.099,1.464,0.172,3.017,0.147,4.584c0.184,0.064,0.348,0.163,0.474,0.31
	c1.544,1.802,3.333,3.294,5.224,4.672c-2.428-14.545,9.434-25.351,22.231-30.592c6.258-2.563,19.231-4.481,14.536-13.879
	c-3.102-6.205-8.215-11.138-10.764-17.664c-0.052-0.133,0.024-0.274,0.176-0.41c-0.237-0.112-0.264-0.318,0.13-0.646
	c2.193-1.826,3.789-3.612,3.439-6.311c-3.112,1.575-6.79,2.575-10.05,1.035c-4.705-2.224-7.763-6.778-11.414-10.329
	c-4.544,5.431-10.931,8.332-17.98,8.732c0.066,0.116,0.109,0.253,0.112,0.417c0.121,7.97,4.747,24.398-3.515,29.74
	c-0.35,0.227-0.822,0.296-1.26,0.254c-0.113,0.025-0.231,0.044-0.356,0.047C157.858,270.488,159.149,276.123,160.544,278.257z
	 M152.289,320.709c0.805,0.024,1.619,0.024,2.443-0.013c1.441-0.064,2.723-0.252,3.873-0.541
	C156.595,320.519,154.432,320.665,152.289,320.709z M123.559,332.154c0.645-1.304,1.407-2.56,2.301-3.763
	c-0.373,0.402-0.74,0.813-1.09,1.241C124.288,330.222,123.891,331.092,123.559,332.154z M119.413,378.397l-0.269,1.141l-0.016,0.064
	c0.008,0.001,0.016,0.002,0.023,0.003c0.046,0.005,0.092,0.009,0.138,0.015C119.332,379.212,119.373,378.805,119.413,378.397z
	 M127.743,395.38c0.267,0.02,0.507,0.038,0.688,0.061c1.896,0.237,3.797,0.445,5.702,0.601c1.738,0.141,3.479,0.237,5.223,0.257
	c6.198,0.069,12.323-0.554,18.419-1.48c0.093-0.059,0.193-0.115,0.304-0.164c0.645-0.294,1.519-0.404,1.923-0.182
	c1.773-0.291,3.545-0.604,5.314-0.93c-1.511-2.787-1.262-9.081-1.43-11.167c-0.706-8.766-1.042-17.561-1.066-26.354
	c-0.003-1.097,2.896-1.637,2.898-0.775c0.021,7.9,0.27,15.813,0.859,23.692c0.236,3.147,0.471,6.307,0.921,9.433
	c0.123,0.854,0.216,4.401,1.115,4.924c1.159,0.674-1.523,1.832-2.314,1.373c-0.084-0.049-0.157-0.123-0.235-0.187
	c-0.119,0.042-0.239,0.078-0.359,0.101c-1.807,0.337-3.601,0.641-5.386,0.918c0.739,5.952-0.227,16.895,6.259,19.479
	c0.447,0.178,0.905,0.329,1.365,0.472c1.258,0.39,2.558,0.66,3.877,0.861c2.686,0.411,5.446,0.555,8.075,0.896
	c4.864,0.631,9.722,1.313,14.564,2.096c0.235,0.038,0.472,0.07,0.708,0.108c0.535,0.088,1.072,0.182,1.607,0.271
	c-0.008-0.05-0.013-0.1-0.02-0.149c-0.791-5.469-0.637-11.043-0.459-16.55c0.153-4.721-0.376-9.979-0.027-14.821
	c0.002-0.026,0.004-0.052,0.006-0.078c0.068-0.932,0.158-1.853,0.306-2.746c0.728-4.426,3.128-7.368,5.796-10.813
	c3.329-4.296,4.658-9.245,3.31-14.604c-4.439-17.643-25.2-27.601-27.517-45.889c-0.303,0.015-0.594-0.038-0.824-0.191
	c-2.398-1.601-4.729-3.244-6.803-5.211c-0.509,3.565-1.85,6.9-4.951,9.084c-6.417,4.516-13.3,4.27-20.776,3.326
	c-15.735-1.986-21.91,13.354-21.097,26.207c0.008,0.131-0.078,0.253-0.222,0.363c0.281,12.553-0.307,25.076-1.956,37.538
	c-0.324,2.445-0.656,4.89-1.037,7.327c-0.299,1.916,2.463,2.494,4.896,2.732c0.814-0.456,2.2-0.584,2.319,0.039
	C127.728,395.29,127.734,395.335,127.743,395.38z M226.053,426.258c-0.186-0.003-0.35-0.025-0.476-0.07
	c-12.829-1.854-25.587-4.426-38.369-6.286c-5.301-0.771-10.612-1.497-15.939-2.07c-3.056-0.328-6.996-0.729-9.36-2.995
	c-4.613-4.421-3.665-12.991-4.531-18.907c-9.885,1.355-19.525,1.723-29.398,0.772c1.672,9.683,1.854,19.947,5.645,29.103
	c5.035,12.162,16.032,17.566,28.769,18.217c13.281,0.679,26.68,0.19,39.976,0.19c13.229,0,26.459,0,39.689,0
	c0.66-0.695,2.34-0.913,2.646,0c0.001,0,0.002,0,0.003,0c-0.22-0.712-0.579-0.392,0.527-0.38c0.933,0.01,1.866-0.008,2.798-0.06
	c1.834-0.102,3.67-0.231,5.492-0.473c5.568-0.736,9.84-2.412,14.861-4.745c7.514-3.49,12.564-1.549,19.062,1.955
	c0.112-3.233-2.257-6.979-4.733-8.635c-2.881-1.927-5.256-3.434-8.871-1.924c-1.425,0.596-2.84,1.215-4.26,1.822
	c-1.444,0.619-3.085-0.799-1.25-1.584c5.857-2.508,10.053-4.321,15.75-0.512c1.217,0.813,2.413,1.889,3.432,3.128
	c0.084-0.073,0.18-0.146,0.292-0.216c1.191-0.736,0.455-2.381-0.6-3.775c-0.321-0.074-0.634-0.151-0.929-0.23
	c-0.387-0.104-0.184-0.355,0.238-0.604c-0.534-0.592-1.064-1.074-1.416-1.313c-2.077-1.409-4.422-2.057-6.943-1.801
	c-4.067,0.413-7.83,1.878-11.548,3.506c-1.51,0.66-3.119-0.988-1.303-1.783c8.587-3.758,18.539-6.362,24.313,1.016
	c3.057,0.59,0.494-1.477-1.252-2.557c-1.609-0.994-3.243-2.026-5.016-2.713c-2.586-1.002-5.285-1.708-8.084-1.244
	c-2.76,0.457-5.44,1.224-8.145,1.899c-0.484,0.532-1.448,0.841-2.08,0.493c-1.102,0.244-2.21,0.457-3.334,0.61
	c-2.033,0.277-0.742-1.058,0.496-1.227c0.557-0.076,1.107-0.163,1.65-0.258c-3.467-2.148-6.575,0.919-9.766,2.957
	c-2.638,1.685-5.26,3.019-8.434,3.186c-0.711,0.038-1.095-0.233-1.221-0.599c-0.148,0.035-0.281,0.054-0.384,0.047
	C238.029,427.81,232.033,427.114,226.053,426.258z M291.411,319.628c11.921,0.057,23.842,0.113,35.763,0.168
	c0-1.958,0-3.916,0-5.873c-11.921-0.057-23.842-0.111-35.763-0.169C291.411,315.712,291.411,317.67,291.411,319.628z
	 M288.503,340.143c0-6.474,0-12.946,0-19.421c-12.908-0.06-25.816-0.108-38.726-0.113c0.049,22.468,0.777,44.93,0.813,67.398
	c37.309,0.008,74.617,0.366,111.926,0.392c0.646-9.647,0.229-19.506,0.354-29.158c0.163-12.744,0.38-25.491,0.396-38.236
	c-11.064-0.003-22.129-0.039-33.193-0.087c0,7.114,0,14.228,0,21.342c0,0.97-2.898,1.449-2.898,0.775c0-7.377,0-14.754,0-22.131
	c-11.921-0.053-23.842-0.11-35.763-0.168c0,6.361,0,12.723,0,19.083C291.411,340.861,288.503,341.447,288.503,340.143z
	 M375.804,314.067c-15.243-0.004-30.487-0.062-45.731-0.131c0,1.957,0,3.915,0,5.873c11.188,0.049,22.377,0.086,33.566,0.092
	c0.779-0.529,2.527-0.703,2.527-0.246c-0.01,13.299-0.24,26.599-0.412,39.895c-0.124,9.554,0.309,19.318-0.389,28.854
	c0.102,0,0.202,0.001,0.303,0.001c0.773,0,0.258,0.346-0.443,0.648c-0.534,0.701-2.775,1.064-2.78,0.508
	c-0.001-0.011-0.001-0.021-0.001-0.033c0-0.008,0.004-0.016,0.004-0.023c0.001-0.001,0.001-0.002,0.001-0.003
	c-37.363-0.015-74.725-0.375-112.089-0.392c-0.686,0.512-2.663,0.725-2.664,0.418c-0.02-23.171-0.801-46.336-0.822-69.508
	c0-0.759,2.897-1.146,2.898-0.775c0,0.147,0.002,0.295,0.002,0.442c0.322-0.107,0.609-0.181,0.752-0.181
	c12.659,0.002,25.318,0.05,37.978,0.107c0-1.958,0-3.916,0-5.874c-17.092-0.082-34.184-0.152-51.276-0.156
	c0.061,27.475,0.965,54.942,0.991,82.418c0.648-0.054,1.169,0.073,0.996,0.432c-0.025,0.053-0.047,0.106-0.072,0.159
	c45.22-0.004,90.438-0.171,135.656-0.178c0.011-0.119,0.027-0.302,0.032-0.604c0.014-0.863,0.027-1.726,0.04-2.588
	c0.041-2.764,0.081-5.526,0.12-8.29c0.119-8.431,0.232-16.861,0.34-25.292C375.525,344.452,375.781,329.259,375.804,314.067z
	 M456.24,244.364c0.186,0.583,0.344,1.276,0.489,2.041c-0.048-1.459,0.04-2.272,0.04-2.272S456.575,244.222,456.24,244.364z
	 M414.71,199.51c1.299-0.146,2.623-0.204,3.938-0.196C417.27,199.204,415.933,199.254,414.71,199.51z M423.883,390.396
	c0.007-0.078,0.014-0.156,0.021-0.234c0.689-7.948,1.358-15.899,1.975-23.854c0.185-2.391,0.194-4.977,0.181-7.648
	c-3.842,0.069-8.088,0.397-11.82-0.676c-7.716,15.139-17.792,30.607-36.275,30.898c-0.072,2.55-0.145,5.1-0.232,7.648
	c-0.004,0.127-0.069,0.246-0.152,0.358c-0.034,0.053-0.082,0.107-0.138,0.163c-0.013,0.012-0.024,0.024-0.038,0.037
	c-0.043,0.039-0.092,0.079-0.144,0.119c0.583-0.105,1.188-0.023,1.491,0.334c0.838,0.988,1.406,2.309,2.006,3.443
	c2.133,4.036,4.164,8.126,6.168,12.229c15.023-0.152,27.68-10.283,36.021-22.263C423.12,390.699,423.479,390.513,423.883,390.396z
	 M509.232,368.771c-0.002-0.031,0.006-0.062,0.008-0.092c-1.058,0.128-2.166,0.121-3.006,0.187c-4,0.312-8.013,0.504-12.024,0.555
	c-3.011,0.038-6.644,0.278-10.247,0.161c-0.373,5.992-1.802,11.854-2.996,17.736c-0.193,0.957-0.378,1.916-0.553,2.875
	c0.061,0.072,0.121,0.144,0.183,0.216c2.974,3.531,5.94,7.093,9.3,10.343c0.742,0.719-1.986,1.803-2.695,1.117
	c-3.221-3.117-6.076-6.545-8.93-9.957c-0.549-0.009-0.976-0.211-0.892-0.688c0.019-0.103,0.04-0.204,0.058-0.308
	c-4.429-5.283-8.936-10.453-14.877-14.291c-0.105-0.068-0.168-0.14-0.212-0.213c-0.052-0.021-0.084-0.049-0.079-0.084
	s0.017-0.068,0.021-0.104c0-0.051,0.012-0.102,0.032-0.152c0.764-4.6,3.767-8.479,5.191-12.867c0.629-1.938,1.438-4.929-0.923-6.109
	c-3.332-1.665-5.092,3.818-5.765,6.172c-0.054,0.188-0.282,0.35-0.587,0.48c0.357,0.433,0.71,0.889,1.051,1.39
	c0.604,0.889-2.209,1.818-2.703,1.092c-4.057-5.966-10.393-7.824-15.691-1.699c-2.454,2.836-6.145,7.752-5.097,11.808
	c1.867,7.221,10.87,9.914,14.854,15.79c0.092,0.135,0.098,0.27,0.052,0.399c4.351,7.012,8.969,13.986,14.624,20.017
	c6.104,6.509,16.711,15.912,26.189,10.062c2.652-1.637,4.785-3.771,6.533-6.211c0-0.04,0.002-0.08,0.002-0.121
	c0.002-0.246,0.211-0.456,0.512-0.624c3.748-5.608,5.582-12.681,6.799-19.179C509.067,387.378,509.897,378.013,509.232,368.771z
	 M464.32,312.116c-0.973,3.605-4.393,7.809-8.291,7.941c-4.463,0.152-5.916-2.459-7.476-6.009c-0.076-0.04-0.146-0.087-0.195-0.149
	c-0.61-0.763-1.199-1.547-1.782-2.339c-0.559,0.196-1.155,0.298-1.473,0.126c-20.478-11.115-30.501,28.482-33.189,42.076
	c-0.031,0.16-0.188,0.307-0.406,0.434c0.28-0.009,0.522,0.035,0.665,0.164c0.501,0.45,1.03,0.83,1.579,1.158
	c0.631-0.028,1.204,0.18,1.261,0.645c3.351,1.451,7.319,1.262,11.038,1.15c-0.059-8.824-0.1-18.391,5.18-24.928
	c0.777-0.963,3.546-0.646,2.402,0.77c-4.291,5.312-4.204,13.406-4.324,19.896c-0.088,4.768-0.227,9.493-0.601,14.246
	c-0.65,8.248-1.339,16.492-2.063,24.734c-0.957,10.896-1.945,21.794-3.139,32.668c-0.695,6.326-0.88,13.355-2.779,19.503
	c0.078,0.062,0.143,0.136,0.176,0.231c0.982,2.869,9.848,3.304,12.179,3.638c8.024,1.147,16.126,1.766,24.22,2.155
	c8.122,0.39,16.271,0.609,24.4,0.37c3.288-0.097,6.592-0.214,9.857-0.626c1.231-0.154,3.503-0.126,4.475-1.034
	c0.424-0.396,1.797-0.583,2.355-0.348c-0.486-9.585,1.128-19.215,1.563-28.806c-2.158,2.209-4.754,4.016-7.935,5.208
	c-0.069,0.026-0.138,0.042-0.207,0.066c-0.956,0.347-1.905,0.6-2.846,0.78c-17.483,3.345-32.072-21.021-39.548-33.138
	c-0.07-0.114-0.093-0.227-0.086-0.337c-6.207-8.049-19.605-11.721-11.974-23.932c5.075-8.119,14.296-12.59,21.27-6.375
	c2.052-4.404,7.208-9.654,11.704-5.11c1.947,1.968-0.012,6.123-0.897,8.09c-1.505,3.345-3.683,6.752-4.247,10.429
	c5.047,3.328,9.081,7.563,12.916,12.007c1.221-5.993,2.67-11.965,2.984-18.077c-3.035-0.301-5.921-0.974-8.242-2.388
	c-0.771-0.471-0.207-1.126,0.592-1.476c-0.169-0.138-0.258-0.339-0.205-0.619c1.557-8.268,3.715-16.493,2.174-24.934
	c-0.235-1.29,2.671-2.023,2.898-0.777c1.572,8.617-0.556,16.996-2.146,25.449c-0.073,0.388-0.43,0.691-0.869,0.884
	c1.75,1.019,3.911,1.592,6.234,1.897c0.78-0.6,2.557-0.752,2.541,0.234c4.045,0.229,8.283-0.115,11.509-0.191
	c0.831-0.02,1.661-0.056,2.492-0.082c2.336-0.076,4.671-0.183,7.001-0.351c0.249-0.018,0.499-0.025,0.748-0.045
	c1.056-0.083,2.112-0.162,3.163-0.286c0.55-0.064,1.382-0.444,1.057-0.153c0.186-0.087,0.386-0.153,0.589-0.195
	c0.732-6.653,0.105-13.606-0.671-20.178c-0.839-7.093-1.812-14.541-4.377-21.255c-5.364-14.033-27.796-19.117-40.472-13.004
	C464.928,312.011,464.637,312.076,464.32,312.116z M467.965,274.075c-1.309-1.147-2.514-1.174-3.615-0.08
	c-2.343,1.743-4.369,4.109-7.171,5.104c-0.53,0.188-1.599,0.052-1.726-0.642c-0.685-3.749-0.111-7.656,1.412-11.16
	c0.125-0.325,0.274-0.637,0.439-0.936c1.039-2.104,2.427-4.03,4.094-5.659c-5.944-0.786-6.187-8.958-7.769-14.616
	c-1.075,0.246-2.33,0.369-3.608,0.342c-0.631,0.125-1.23,0.204-1.752,0.204c-0.576,0-1.077-0.243-1.513-0.63
	c-2.401-0.615-4.36-1.926-4.636-4.159c-5.576,0.434-14.072,0.985-18.492-2.649c-1.31,1.758-2.487,3.593-3.561,5.485l-1.796,3.392
	c-2.664,5.379-4.718,11.087-6.878,16.68c-3.283,8.504-8.095,19.584,0.461,26.848c4.447,3.775,9.727,4.681,15.398,4.918
	c3.249,0.136,6.826-0.061,9.811,1.489c5.983,3.107,9.419,8.913,13.443,14.075c0.291,0.08,0.53,0.239,0.646,0.508
	c0.879,2.032,2.203,6.548,5.396,5.502c2.598-0.852,4.54-3.826,5.01-6.416c0.09-0.495,0.664-0.855,1.281-1.012
	c-3.125-3.66-4.195-8.246-4.387-12.988c-0.013-0.013-0.026-0.025-0.039-0.038c-0.082-0.081-0.061-0.183,0.029-0.291
	c-0.12-3.761,0.281-7.603,0.617-11.142c0.031-0.329,0.518-0.619,1.08-0.788c0.082-0.25,0.325-0.493,0.786-0.68
	c2.377-0.959,4.766-2.728,6.228-4.855C468.265,278.267,469.545,275.984,467.965,274.075z M482.646,287.571l-0.876-0.438
	c0,0,0.057,0.252,0.146,0.685C482.148,287.7,482.4,287.612,482.646,287.571z M502.296,279.679c1.369,1.5,2.862,3.337,3.705,5
	C505.684,282.734,504.131,281.077,502.296,279.679z M503.064,224.894c-1.898-0.555-3.916-0.312-5.926,0.326
	C499.133,224.96,501.328,224.776,503.064,224.894z M517.142,268.055c-0.519,1.191-1.25,2.247-2.125,3.171
	C516.151,270.317,516.994,269.247,517.142,268.055z M338.044,428.741c-0.616,0.504-1.278,0.975-1.981,1.406
	c-1.748,1.075-3.722,1.93-5.715,2.591c-1.832,0.607-3.68,1.052-5.383,1.346c-1.104,0.19-2.148,0.319-3.088,0.39
	c-0.276,0.021-0.706,0.185-1.094,0.391c-0.8,0.424-1.417,1.025-0.121,0.928c8.741-0.657,19.319-3.531,23.481-12.107
	c4.735-9.757-7.589-16.111-14.989-18.182c-4.66-1.305-10.447-2.188-16.501-2.353c-2.19-0.059-4.415-0.028-6.637,0.118
	c-12.246,0.805-24.338,4.956-29.495,14.943c-0.162,0.313,0.623,0.377,1.42,0.236c0.633-0.111,1.271-0.352,1.451-0.699
	c0.466-0.902,0.994-1.746,1.572-2.539c0.967-1.33,2.082-2.513,3.32-3.559c0.304-0.256,0.615-0.503,0.933-0.743
	c2.481-1.875,5.383-3.269,8.526-4.263c10.322-3.265,23.215-2.261,32.109-0.173c6.75,1.585,15.264,5.27,16.253,13.042
	C342.605,423.431,340.833,426.46,338.044,428.741z M308.416,444.336c0.541-0.167,0.987-0.422,0.99-0.743
	c0.046-5.796,0.766-11.553,0.813-17.348c0-0.021-0.012-0.037-0.023-0.055c-0.24-0.352-2.868,0.048-2.875,0.83
	c-0.046,5.796-0.766,11.553-0.813,17.348C306.506,444.64,307.576,444.596,308.416,444.336z M312.092,373.873
	c0-11.556,0-23.111,0-34.667c0-1.535-2.938-1.104-2.938,0.215c0,11.556,0,23.111,0,34.667
	C309.154,375.623,312.092,375.192,312.092,373.873z M271.271,234.599c2.854-6.199,3.556-13.842,4.547-20.544
	c0.095-0.644,1.123-0.943,1.64-1.009c2.028-0.257,5.743-1.209,8.577-1.065c-1.025-5.524-1.179-11.347-0.237-17.554
	c2.851-18.801,10.79-37.486,23.491-51.762c0.323-0.363,1.427-0.604,2.148-0.576c0.666-0.238,1.449-0.307,1.737,0.018
	c12.854,14.445,21.448,33.979,23.677,53.183c0.656,5.662,0.68,11.337-0.261,16.868c3.107-0.533,7.304,0.582,9.915,0.913
	c0.2,0.025,0.533,0.19,0.568,0.425c1.006,6.8,1.748,14.475,4.645,20.764c0.15,0.329-0.32,0.717-0.542,0.85
	c-10.253,6.197-9.443-10.746-17.433-11.913c-0.225-0.032-0.369-0.091-0.457-0.163c-2.021,4.521-4.545,8.725-7.371,12.732
	c0.188,0.052,0.346,0.14,0.443,0.281c0.328,0.476,2.856,0.949,3.441,1.178c1.755,0.683,3.74,1.35,5.252,2.509
	c2.403,1.843,2.761,5.014,3.127,7.887c0.926,7.265,1.438,15.71-0.456,22.866c-0.232,0.878-1.86,1.361-2.598,0.899
	c-5.638-3.534-6.969-10.666-8.114-16.753c-0.664-3.531-0.578-5.799-4.467-6.746c-1.219-0.296-2.449-0.549-3.692-0.718
	c7.868,7.175,7.239,21.004,5.598,30.537c-1.444,8.39-4.094,21.38-12.333,25.927c-0.26,0.144-2.688,0.964-2.522,0.272
	c2.59-10.838,4.354-20.714-1.677-30.177c-1.084,2.231-1.711,4.45-1.449,7.268c0.06,0.644-2.391,1.191-2.818,0.865
	c-9.501-7.24-8.896-25.896-1.156-34.654c-1.388,0.295-2.823,0.664-3.483,0.889c-3.099,1.054-3.007,6.504-3.683,9.289
	c-1.336,5.498-3.062,11.574-8.143,14.741c-0.488,0.305-2.129,0.806-2.365-0.104c-1.985-7.645-1.25-17.494,0.251-25.129
	c0.599-3.045,1.032-5.8,3.929-7.376c1.566-0.853,3.169-1.6,4.843-2.221c0.686-0.254,1.371-0.505,2.062-0.745
	c0.244-0.085,0.48-0.217,0.676-0.328c-2.959-4.358-5.471-8.852-7.379-13.543c-0.277,0.259-0.676,0.477-1.12,0.541
	c-7.079,1.034-6.695,18.136-16.604,12.146C271.144,235.165,271.117,234.933,271.271,234.599z M303.276,245.062
	c-1.969-2.368-3.83-4.765-5.558-7.2c-1.237,0.491-2.749,0.766-3.618,1.124c-4.452,1.84-5.633,4.067-6.315,8.725
	c-1.002,6.835-1.831,14.843-0.453,21.81c3.245-3.351,4.435-8.687,5.371-13.06c0.494-2.311,0.365-6.851,2.494-8.378
	C296.734,246.98,300.175,245.591,303.276,245.062z M296.771,236.501c-0.003-0.004-0.006-0.008-0.009-0.012
	c-0.019,0.028-0.028,0.044-0.05,0.076C296.729,236.543,296.752,236.522,296.771,236.501z M306.644,244.772
	c0.041,0.049,0.067,0.098,0.082,0.147c0.059,0.009,0.114,0.021,0.171,0.03c3.066,0,6.131,0,9.197,0c0.016,0,0.028,0.003,0.045,0.003
	c1.986-2.362,3.961-4.782,5.835-7.282c-6.944,0.028-13.889,0.172-20.834,0.213C302.9,240.229,304.743,242.52,306.644,244.772z
	 M314.9,247.11c-0.032-0.024-0.031-0.06-0.013-0.1c-2.188,0-4.378,0-6.566,0c-0.551,0-1.101,0-1.651,0
	c-0.092,0.007-0.182,0.006-0.268,0c-0.396,0-0.793,0-1.188,0c-0.021,0-0.04,0-0.06,0c-0.037,0-0.066-0.006-0.101-0.007
	c-6.586,7.652-7.659,23.015-1.325,31.227c0.423-2.31,1.455-4.366,2.804-6.645c0.314-0.531,2.438-1.229,2.874-0.659
	c7.273,9.526,6.004,19.563,3.521,30.373c5.865-6.004,8.075-17.945,8.956-25.055C323.053,266.807,323.447,253.478,314.9,247.11z
	 M324.437,237.82c-1.788,2.413-3.672,4.765-5.613,7.077c3.322,0.164,7.53,1.671,9.299,2.939c2.182,1.564,2.007,7.505,2.597,9.941
	c0.9,3.729,1.992,7.705,4.662,10.476c1.266-6.745,0.899-14.551-0.276-21.018c-0.751-4.131-1.744-6.146-5.724-7.79
	C328.5,239.083,325.841,238.583,324.437,237.82z M334.457,220.195c-0.252,0.684-0.519,1.364-0.809,2.041
	c0.354-0.263,0.852-0.5,1.285-0.61c0.215-0.053,0.415-0.078,0.572-0.056c4.046,0.591,5.997,4.164,7.713,7.495
	c0.872,1.694,1.891,4.498,3.722,5.432c2.768,1.409,0.561-3.165,0.257-4.393c-1.223-4.937-2.121-9.955-2.892-14.98
	c-0.036-0.236-0.034-0.38-0.02-0.484c-0.841-0.099-1.681-0.196-2.522-0.279c-0.963-0.096-4.609-0.855-5.401-0.549
	c-0.027,0.011-0.06,0.02-0.08,0.032c-0.003,0.002-0.008,0.004-0.011,0.006c-0.012,0.056-0.021,0.112-0.033,0.169
	C335.797,216.104,335.206,218.165,334.457,220.195z M296.986,165.744c0.027,0.019,0.058,0.031,0.083,0.052
	c3.854,3.101,9.513,3.871,14.316,4.061c4.487,0.176,10.572,0.302,14.417-2.543c-3.782-8.537-8.724-16.541-14.826-23.53
	C305.386,150.298,300.668,157.771,296.986,165.744z M288.93,212.939c0.033,0.069,0.047,0.141,0.039,0.212
	c0.6,3.084,1.508,6.123,2.797,9.091c2.103,4.843,4.809,9.299,7.84,13.545c0.019,0.025,0.036,0.052,0.055,0.077
	c0.147-0.001,0.295-0.003,0.443-0.004c7.775-0.028,15.551-0.215,23.328-0.229c0.013,0,0.021,0.002,0.034,0.002
	c3.143-4.415,5.897-9.094,7.772-14.161c3.398-9.189,3.926-18.694,2.297-28.333c-1.363-8.069-3.642-16.092-6.826-23.732
	c-3.938,2.414-9.337,2.702-13.819,2.676c-0.303-0.002-0.604-0.005-0.897-0.009c-0.629-0.009-1.275-0.028-1.93-0.059
	c-4.697-0.214-9.925-1.05-13.889-3.577c-0.1-0.063-0.201-0.124-0.299-0.189c-0.012,0.025-0.023,0.053-0.034,0.078
	c-3.541,8.268-5.994,16.994-7.159,25.686C287.829,200.375,287.754,206.747,288.93,212.939z M274.458,234.342
	c2.534,1.197,4.423-2.698,5.835-5.669c0.49-1.032,0.924-1.955,1.307-2.511c1.723-2.506,3.799-4.169,6.858-4.616
	c0.104-0.016,0.196-0.021,0.285-0.026c-0.918-2.399-1.68-4.852-2.258-7.364c-0.039-0.017-0.081-0.031-0.114-0.053
	c-1.446-0.934-5.262-0.124-7.782,0.358c-0.728,3.864-3.813,17.806-4.11,19.672C274.457,234.265,274.449,234.338,274.458,234.342z
	 M297.689,189.205c3.396-7.231,12.116-8.937,19.223-7.339c0.306,0.068,0.465,0.172,0.517,0.295c0.092,0.003,0.177,0.012,0.248,0.035
	c7.705,2.527,11.267,10.73,7.453,18.08c-3.373,6.5-10.9,9.59-17.925,7.393C299.012,205.106,293.74,197.612,297.689,189.205z
	 M308.448,205.961c15.021,4.698,21.351-17.657,6.914-22.392c-0.142-0.047-0.226-0.107-0.266-0.176
	c-7.006-1.563-14.745,1.262-15.737,9.204C298.572,198.913,302.467,204.09,308.448,205.961z M302.964,191.8
	c2.177-4.635,7.247-5.852,11.915-4.802c0.23,0.052,0.389,0.129,0.492,0.222c4.318,1.537,6.554,6.023,4.6,10.377
	c-2.022,4.51-7.066,6.445-11.689,4.813C303.911,200.866,300.796,196.415,302.964,191.8z M310.571,200.699
	c7.39,1.814,9.885-9.371,2.901-11.662c-0.129-0.042-0.23-0.093-0.317-0.147C304.62,187.007,302.32,198.672,310.571,200.699z" fill="#000000"></path>
</svg>