<?xml version="1.0" standalone="no"?>
<svg version="1.1" id="Layer_1" xmlns="http://www.w3.org/2000/svg" xmlns:xlink="http://www.w3.org/1999/xlink" x="0px" y="0px" width="595.28px" height="595.28px" viewBox="0 0 595.28 595.28" enable-background="new 0 0 595.28 595.28" xml:space="preserve">
<path id="color_x5F_2" fill="#e04949" d="M264.648,431.518v-7.55h-42.489v-39h-82.5v39h-40v62.99h164.989v-35.94V431.518z
	 M289.229,285.098c-0.569-0.08-1.27-0.19-2.06-0.311c-2.82-0.42-6.82-1.029-10.69-1.609c-0.01,0-0.02,0-0.04-0.01
	c-2.26-0.351-4.47-0.69-6.369-0.98c-0.021,0-0.04,0-0.061-0.01c-2.35-0.37-4.21-0.67-5.06-0.82c-3.66-0.67-10.33-4-10.33-4
	c-7.33-5.67-24.66-31.67-28-35c-3.33-3.34-8.33-6.67-11-6c-0.08,0.021-0.17,0.04-0.271,0.061c0,0,0,0-0.01,0
	c-0.31,0.06-0.69,0.109-1.12,0.149c-3.59,0.42-10.68,0.82-13.27,7.45c-3,7.67-1,23.67,0,32c1,8.34,1.67,25.34,0.67,30
	c-1,4.67-4.67,11.67-4.67,11.67l9,11.33c3.84,1.59,10.29,3.17,14.97,2.979c2.229-0.079,4.07-0.569,5.03-1.64
	c0.029-0.03,0.06-0.06,0.08-0.1c1.09-1.24,2.119-3.15,3.029-5.17c0,0,0.011,0,0.011-0.011c0.729-1.63,1.38-3.319,1.92-4.77
	c0.62-1.69,1.08-3.061,1.3-3.62c0.66-1.67-0.67-13-0.67-13l-1.33-18c0,0,11.66,9,19,11.33c3.14,1,9.85,1.94,16.52,2.69
	c6.24,0.689,12.431,1.22,15.61,1.479h0.06c1.351,0.11,2.141,0.17,2.141,0.17l6.33,0.33l1-16.33
	C290.949,285.357,290.309,285.258,289.229,285.098z M309.188,238.558l-12.1-0.91l-3.8-0.29l-3.67,15.33c0,0-3,8-7.67,10
	c-4.66,2-12.33-3.67-21.66-13.67c-3-3.22-6.11-5.36-8.95-6.8c-0.01-0.01-0.02-0.01-0.03-0.01c-3.949-1.99-7.37-2.601-9.22-2.771
	c-0.93-0.1-1.47-0.08-1.47-0.08s9.01,11.34,13.45,17.99c0.319,0.47,0.619,0.92,0.88,1.34c1.17,1.86,1.46,3.72,1.279,5.41
	c-0.449,4.1-3.609,7.26-3.609,7.26l1.06,1.061l0.04,0.04l1.57,1.56c0,0,14.66,4.67,21,6.67c6.33,2,20-2,23.33-6.33
	c0.99-1.29,2.39-4.96,3.87-9.479c0.029-0.091,0.06-0.181,0.09-0.271c0.12-0.37,0.24-0.75,0.37-1.13c0.02-0.08,0.04-0.15,0.069-0.23
	c3.36-10.579,6.931-24.56,6.931-24.56L309.188,238.558z M447.619,291.518c-4-13.5-21.5-47.5-21.5-47.5s-7.5-7.5-13-7.5s-9.5-1-9.5-1
	l0.5-4.5l-14,1v3.5l-11.5,1.5c0,0-1.24,0.41-3.01,1.64c-0.011,0-0.011,0-0.011,0.011c-1.59,1.1-3.6,2.85-5.529,5.54
	c-1.221,1.699-2.421,3.779-3.45,6.31c-4.5,11-9.5,26.5-9.5,26.5s0.42,1.69-1.21,3.28c-0.07,0.06-0.13,0.12-0.2,0.18
	c-0.18,0.17-0.39,0.34-0.63,0.49c-0.05,0.04-0.101,0.08-0.15,0.1c-0.88,0.57-2.109,1.08-3.81,1.45c-7,1.5-24.5,2-24.5,2l-1,17.5
	l15,0.5c0,0,18.5-2,24-5.5c4.1-2.61,7.37-6.62,8.77-8.48c0.12-0.17,0.23-0.31,0.32-0.439c0.27-0.37,0.41-0.58,0.41-0.58l0.5-5
	l1,47.5c0,0,19.5,4.5,28.5,3c3.819-0.64,7.83-1.45,11.17-2.18c2.59-0.57,4.78-1.08,6.18-1.42c1.05-0.25,1.65-0.4,1.65-0.4l1.5-2.5
	l7,0.5h0.01l5.7,1.14c0.02,0.011,0.04,0.011,0.06,0.011l4.23,0.85C441.619,329.018,451.619,305.018,447.619,291.518z"></path>
<path id="color_x5F_1" d="M317.319,197.987c-0.28-0.06-0.9,0.11-1.46,0.32c-0.801-0.13-2.49,0.34-2.49,1.08
	c0.04,3.35,0.08,6.689,0.1,10.03c0.01,0.35,0.72,0.399,1.44,0.25c-0.221,0.29,0.26,0.5,1.319,0.239c3.011-0.75,5.78-2.38,6.2-5.699
	C322.839,201.018,320.209,198.577,317.319,197.987z M316.159,209.088c0.13-0.141,0.21-0.28,0.21-0.45
	c-0.021-3.03-0.05-6.061-0.09-9.09C320.049,201.508,321.119,207.728,316.159,209.088z M305.759,197.128
	c-0.01-0.7-2.91-0.2-2.899,0.779c0.05,3.82,0.09,7.65,0.109,11.48c0.01,0.7,2.91,0.2,2.9-0.78
	C305.839,204.777,305.799,200.958,305.759,197.128z M306.148,188.518c-0.18-0.04-0.369-0.1-0.55-0.15
	c0.03-0.069,0.05-0.149,0.05-0.22c-0.06-5.35-0.13-10.7-0.18-16.05c1.36-0.38,1.2-1.21-0.07-1.101
	c-0.359-0.449-2.529-0.06-2.81,0.73c-4.14,1.48-6.71,4.28-7.21,9.25c-0.52,5.25,4.07,7.63,8.42,8.78
	C304.539,189.947,307.129,188.777,306.148,188.518z M298.429,182.638c-1.12-4.01,0.91-7.62,4.141-9.44
	c0.05,4.71,0.109,9.431,0.17,14.141C300.739,186.407,299.089,185.018,298.429,182.638z M332.329,202.138
	c0.16-9.04-8.94-10.95-16.16-12.09c-0.08-5.95-0.15-11.91-0.21-17.86c2.729,0.271,5.439,0.65,8.16,1.021
	c0.02,0.069,0.029,0.14,0.05,0.199c0.479,1.41,3.37,0.61,2.9-0.779c-1.03-3.04-0.03-6.54,0.02-9.681c0.37-0.21,0.54-0.42,0.22-0.5
	c-0.12-0.02-0.25-0.05-0.37-0.08c-0.319-0.489-1.1-0.59-1.76-0.38c-2.83-0.59-5.78-1.01-8.62-1.069c-0.199,0-0.62,0.119-1.05,0.29
	c0.23-0.16,0.38-0.36,0.38-0.58c-0.01-1.87,0-3.75,0.03-5.631c0.01-0.6,0.02-1.21,0.05-1.81c0-0.08,0.03-0.3,0.05-0.51
	c0.73-0.58,0.7-1.66-0.75-1.66h-10.5c-0.81,0-1.37,0.49-1.489,0.99c-0.19,0.109-0.351,0.239-0.44,0.39
	c-0.43,0.67-0.28,1.8-0.3,2.561c-0.08,2.539-0.061,5.079-0.05,7.619c-0.311,0.011-0.641,0.061-0.92,0.15
	c-8.08,2.68-13.96,8.87-14.921,17.51c-1.02,9.17,5.62,16.03,14.29,17.34c0.671,0.11,3.141-0.979,2.391-1.09
	c-18.76-2.84-17.12-27.74-0.771-33.149c0.141-0.04,0.261-0.091,0.36-0.13c0.8,0.119,2.47-0.341,2.47-1.08
	c-0.01-2.19-0.01-4.381,0.021-6.57c0.01-0.5-0.07-1.72-0.03-2.53h7.73c-0.101,0.521-0.051,1.141-0.061,1.57
	c-0.08,2.27-0.06,4.54-0.06,6.81c0,0.391,0.93,0.41,1.739,0.16c-0.489,0.28-0.71,0.54-0.05,0.55c3.13,0.061,6.391,0.601,9.45,1.29
	c-0.08,2.66-0.69,5.5-0.35,8.17c-2.511-0.34-5.021-0.659-7.551-0.88c-0.069-0.01-0.18,0-0.29,0.021v-0.59
	c-0.01-0.7-2.909-0.2-2.899,0.779c0,0.5,0.01,1,0.01,1.5c0.061,6.15,0.14,12.311,0.22,18.471c-0.06,0.09-0.069,0.18,0,0.25
	c0,0.09,0.011,0.18,0.011,0.27c0,0.43,1.06,0.41,1.899,0.12c5.36,0.83,11.71,2.09,13.73,7.69c3.37,9.319-4.311,16.149-12.53,18.229
	c0-0.11-0.01-0.21-0.01-0.31c0-0.69-2.9-0.2-2.9,0.779c0.021,1.7,0.07,3.4,0.05,5.11h-7.56c0.06-1.44-0.01-2.91-0.061-4.34
	c0.61-0.33,0.95-0.72,0.15-0.83c-0.06-0.01-0.12-0.021-0.17-0.03c0-0.06-0.01-0.13-0.01-0.189c0-0.41-1-0.4-1.82-0.131
	c-3.34-0.689-6.53-1.97-8.979-4.43c0.01-0.05,0.02-0.1,0.02-0.149v-5.091c1.65,0.95,3.48,1.48,5.47,1.521
	c0.65,0.02,1.53-0.22,1.91-0.79c0.391-0.58-0.32-0.86-0.79-0.87c-2.41-0.05-4.49-1.09-6.21-2.74c-0.1-0.09-0.24-0.16-0.399-0.189
	c-0.2-1.36-2.921-0.931-2.921,0.359v8c0,0.23,0.07,0.4,0.171,0.551c-0.11,0.14-0.131,0.279-0.011,0.399
	c2.851,2.891,6.74,4.23,10.67,4.91c0.011,1.55,0.021,3.09,0.021,4.64c0,0.33,0,0.66-0.01,0.99c0,0.01,0,0.01,0,0.021
	c-0.091,0.08-0.181,0.159-0.24,0.27c-0.19,0.34,0.28,0.44,0.7,0.46c0.109,0.01,0.229,0.021,0.33,0.01
	c0.359-0.01,0.989-0.1,1.47-0.34h7.97c-0.02,0.391,1.08,0.34,1.24,0.32c0.46-0.07,1.01-0.23,1.39-0.561
	c0.05-0.02,0.09-0.05,0.141-0.079l0.01-0.011c0.02-0.01,0.03-0.029,0.05-0.04c0.07-0.06,0.12-0.12,0.16-0.18
	c0.27-0.32,0.36-0.71,0.18-1.01c0.07-1.61,0.04-3.24,0-4.86C325.199,216.548,332.159,211.867,332.329,202.138z M332.329,202.138
	c0.16-9.04-8.94-10.95-16.16-12.09c-0.08-5.95-0.15-11.91-0.21-17.86c2.729,0.271,5.439,0.65,8.16,1.021
	c0.02,0.069,0.029,0.14,0.05,0.199c0.479,1.41,3.37,0.61,2.9-0.779c-1.03-3.04-0.03-6.54,0.02-9.681c0.37-0.21,0.54-0.42,0.22-0.5
	c-0.12-0.02-0.25-0.05-0.37-0.08c-0.319-0.489-1.1-0.59-1.76-0.38c-2.83-0.59-5.78-1.01-8.62-1.069c-0.199,0-0.62,0.119-1.05,0.29
	c0.23-0.16,0.38-0.36,0.38-0.58c-0.01-1.87,0-3.75,0.03-5.631c0.01-0.6,0.02-1.21,0.05-1.81c0-0.08,0.03-0.3,0.05-0.51
	c0.73-0.58,0.7-1.66-0.75-1.66h-10.5c-0.81,0-1.37,0.49-1.489,0.99c-0.19,0.109-0.351,0.239-0.44,0.39
	c-0.43,0.67-0.28,1.8-0.3,2.561c-0.08,2.539-0.061,5.079-0.05,7.619c-0.311,0.011-0.641,0.061-0.92,0.15
	c-8.08,2.68-13.96,8.87-14.921,17.51c-1.02,9.17,5.62,16.03,14.29,17.34c0.671,0.11,3.141-0.979,2.391-1.09
	c-18.76-2.84-17.12-27.74-0.771-33.149c0.141-0.04,0.261-0.091,0.36-0.13c0.8,0.119,2.47-0.341,2.47-1.08
	c-0.01-2.19-0.01-4.381,0.021-6.57c0.01-0.5-0.07-1.72-0.03-2.53h7.73c-0.101,0.521-0.051,1.141-0.061,1.57
	c-0.08,2.27-0.06,4.54-0.06,6.81c0,0.391,0.93,0.41,1.739,0.16c-0.489,0.28-0.71,0.54-0.05,0.55c3.13,0.061,6.391,0.601,9.45,1.29
	c-0.08,2.66-0.69,5.5-0.35,8.17c-2.511-0.34-5.021-0.659-7.551-0.88c-0.069-0.01-0.18,0-0.29,0.021v-0.59
	c-0.01-0.7-2.909-0.2-2.899,0.779c0,0.5,0.01,1,0.01,1.5c0.061,6.15,0.14,12.311,0.22,18.471c-0.06,0.09-0.069,0.18,0,0.25
	c0,0.09,0.011,0.18,0.011,0.27c0,0.43,1.06,0.41,1.899,0.12c5.36,0.83,11.71,2.09,13.73,7.69c3.37,9.319-4.311,16.149-12.53,18.229
	c0-0.11-0.01-0.21-0.01-0.31c0-0.69-2.9-0.2-2.9,0.779c0.021,1.7,0.07,3.4,0.05,5.11h-7.56c0.06-1.44-0.01-2.91-0.061-4.34
	c0.61-0.33,0.95-0.72,0.15-0.83c-0.06-0.01-0.12-0.021-0.17-0.03c0-0.06-0.01-0.13-0.01-0.189c0-0.41-1-0.4-1.82-0.131
	c-3.34-0.689-6.53-1.97-8.979-4.43c0.01-0.05,0.02-0.1,0.02-0.149v-5.091c1.65,0.95,3.48,1.48,5.47,1.521
	c0.65,0.02,1.53-0.22,1.91-0.79c0.391-0.58-0.32-0.86-0.79-0.87c-2.41-0.05-4.49-1.09-6.21-2.74c-0.1-0.09-0.24-0.16-0.399-0.189
	c-0.2-1.36-2.921-0.931-2.921,0.359v8c0,0.23,0.07,0.4,0.171,0.551c-0.11,0.14-0.131,0.279-0.011,0.399
	c2.851,2.891,6.74,4.23,10.67,4.91c0.011,1.55,0.021,3.09,0.021,4.64c0,0.33,0,0.66-0.01,0.99c0,0.01,0,0.01,0,0.021
	c-0.091,0.08-0.181,0.159-0.24,0.27c-0.19,0.34,0.28,0.44,0.7,0.46c0.109,0.01,0.229,0.021,0.33,0.01
	c0.359-0.01,0.989-0.1,1.47-0.34h7.97c-0.02,0.391,1.08,0.34,1.24,0.32c0.46-0.07,1.01-0.23,1.39-0.561
	c0.05-0.02,0.09-0.05,0.141-0.079l0.01-0.011c0.02-0.01,0.03-0.029,0.05-0.04c0.07-0.06,0.12-0.12,0.16-0.18
	c0.27-0.32,0.36-0.71,0.18-1.01c0.07-1.61,0.04-3.24,0-4.86C325.199,216.548,332.159,211.867,332.329,202.138z M316.229,209.907
	c3.011-0.75,5.78-2.38,6.2-5.699c0.41-3.19-2.22-5.631-5.109-6.221c-0.28-0.06-0.9,0.11-1.46,0.32c-0.801-0.13-2.49,0.34-2.49,1.08
	c0.04,3.35,0.08,6.689,0.1,10.03c0.01,0.35,0.72,0.399,1.44,0.25C314.688,209.958,315.169,210.168,316.229,209.907z
	 M316.279,199.548c3.77,1.96,4.84,8.18-0.12,9.54c0.13-0.141,0.21-0.28,0.21-0.45C316.349,205.607,316.319,202.577,316.279,199.548z
	 M305.398,170.997c-0.359-0.449-2.529-0.06-2.81,0.73c-4.14,1.48-6.71,4.28-7.21,9.25c-0.52,5.25,4.07,7.63,8.42,8.78
	c0.74,0.189,3.33-0.98,2.35-1.24c-0.18-0.04-0.369-0.1-0.55-0.15c0.03-0.069,0.05-0.149,0.05-0.22c-0.06-5.35-0.13-10.7-0.18-16.05
	C306.829,171.718,306.669,170.888,305.398,170.997z M298.429,182.638c-1.12-4.01,0.91-7.62,4.141-9.44
	c0.05,4.71,0.109,9.431,0.17,14.141C300.739,186.407,299.089,185.018,298.429,182.638z M302.859,197.907
	c0.05,3.82,0.09,7.65,0.109,11.48c0.01,0.7,2.91,0.2,2.9-0.78c-0.03-3.83-0.07-7.649-0.11-11.479
	C305.749,196.428,302.849,196.928,302.859,197.907z M396.459,189.277c-2.37-0.76-4.87-1.109-7.34-0.76
	c-0.61,0.09-1.51,0.39-1.62,1.1c-0.11,0.69,0.8,0.9,1.3,0.82c2.03-0.29,4.01,0.03,5.95,0.65
	C395.859,191.438,398.169,189.817,396.459,189.277z M395.679,195.327c-2.06-1.029-3.99-1.5-6.27-0.81c-0.511,0.15-1.38,0.61-1.2,1.3
	c0.18,0.66,1.18,0.68,1.689,0.521c1.32-0.391,2.341-0.011,3.53,0.59c0.66,0.319,1.47,0.22,2.07-0.21
	C395.909,196.428,396.339,195.657,395.679,195.327z M391.229,207.827c-0.479,0.051-1.609,0.391-1.63,1.051
	c-0.01,0.55-0.12,1.229-0.42,1.56c-0.02,0.03-0.04,0.05-0.05,0.06c-0.02,0.011-0.03,0.021-0.06,0.04
	c-0.021,0.011-0.021,0.011-0.03,0.021c-0.01,0-0.021,0.01-0.03,0.01c-0.02,0.01-0.05,0.01-0.08,0.021
	c-0.149,0.01-0.37,0.029-0.13,0.029c-0.67,0.011-1.52,0.19-1.9,0.82c-0.35,0.58,0.29,0.98,0.82,0.97
	c2.351-0.029,4.74-1.22,4.79-3.85C392.529,207.878,391.769,207.768,391.229,207.827z M379.229,198.237
	c-1.729,2.32-6.149,7.34-3.63,10.33c0.59,0.69,3.36-0.32,2.71-1.09c-2.14-2.53,2.141-7.32,3.59-9.27
	C382.629,197.237,379.739,197.558,379.229,198.237z M377.739,195.188c0.33-0.6-0.28-1.06-0.851-1.08c-0.74-0.03-1.42-0.33-2.14-0.49
	c-0.95-0.199-2.04-0.109-2.811,0.53c-0.42,0.35-0.829,0.98-0.199,1.37c0.449,0.27,1.149,0.24,1.68,0.01
	c0.19,0.05,0.39,0.11,0.58,0.17c0.6,0.181,1.22,0.32,1.85,0.351C376.529,196.067,377.389,195.838,377.739,195.188z M245.519,197.678
	c-0.5-0.71-3.31,0.229-2.699,1.09c1.649,2.33,2.06,4.95,0.01,7.16c-0.48,0.52,0.41,0.74,0.76,0.74c0.68-0.011,1.44-0.25,1.92-0.761
	C247.869,203.357,247.419,200.357,245.519,197.678z M237.019,210.617c-0.479-0.01-0.729,0-1.13-0.31
	c-0.529-0.42-0.74-1.09-0.75-1.75c-0.02-0.67-0.72-0.79-1.279-0.73c-0.461,0.051-1.65,0.4-1.631,1.051
	c0.021,0.979,0.21,1.939,0.99,2.609c0.74,0.66,1.74,0.91,2.71,0.92c0.67,0.011,1.53-0.199,1.91-0.819
	C238.188,210.997,237.539,210.617,237.019,210.617z M235.249,190.447c1.31,0.181,3.01-1.649,1.05-1.93
	c-2.49-0.36-5.02,0.01-7.4,0.77c-0.51,0.16-1.399,0.601-1.22,1.28c0.181,0.65,1.19,0.66,1.69,0.5
	C231.299,190.458,233.239,190.157,235.249,190.447z M234.229,196.348c0.681,0.21,1.561-0.021,2.051-0.55
	c0.439-0.48,0.279-1.101-0.351-1.29c-2.27-0.681-4.3-0.19-6.37,0.84c-0.46,0.229-1.16,0.83-0.71,1.399
	c0.431,0.54,1.41,0.431,1.95,0.16C231.989,196.308,232.898,195.947,234.229,196.348z M263.88,431.518v19.5l0,0V431.518
	L263.88,431.518z M496.909,332.888c0.16-24.82,0.18-49.641,0.18-74.45c0-22.88,0.01-45.76-0.03-68.64
	c-0.029-16.36-0.06-32.721-0.18-49.07c-0.09-12.3,1-28.9-11.35-35.83c-2.591-1.46-4.95-1.41-7.82-1.5
	c-4.64-0.15-9.28-0.21-13.92-0.28c-15.03-0.22-30.061-0.3-45.09-0.37c-26.36-0.119-52.78-0.569-79.13,0.11
	c-41.75,1.07-81.94-0.25-123.431-0.2c-29.43,0.03-58.89-0.05-88.319,0.66c-2.421,0.061-4.971-0.05-7.37,0.33
	c-8.23,1.3-12.29,10.311-13.891,17.42c-2.59,11.5-1.239,24.41-1.29,36.07c-0.199,47.979-0.18,95.95-0.06,143.93
	c0.03,14.94,0.03,29.891,0.229,44.83c0.141,10.03,2.11,28.28,15.21,29.28c8.971,0.689,18.07,0.47,27.051,0.569
	c16.029,0.171,32.069,0.25,48.109,0.301c24.44,0.08,48.87,0.02,73.311-0.07v52.54h-3.471v-5.55h-42.489v-39h-84.5v39h-40v64.99
	h166.989v-33.94h93.971v-25.5h-13.5v-52.74c8.939-0.06,18.33-0.16,27.21-0.18c-0.33,3.3-0.62,6.59-0.86,9.89
	c-2.189,29.69-1.439,59.45,1.601,89.05c-0.391,0.21-0.73,0.471-0.851,0.71c-6.79,3.53-14.18,7.971-17.96,14.69
	c-0.26,0.45,0.05,0.82,0.5,0.94c13.97,3.859,30.65,1.33,44.69-0.95c0.56-0.101,1.819-0.48,1.62-1.3
	c-1.04-4.341-1.841-8.74-3.53-12.87c0.859-0.221,1.72-0.471,2.57-0.74c0.029,0.27,0.06,0.55,0.09,0.83
	c0.06,0.51,2.979-0.04,2.899-0.78c-2.68-25.33-4.63-50.89-3.069-76.359c0.43-6.961,1.189-13.881,1.85-20.811
	c1.23,14.32,4.27,28.26,9.47,42.11c3.91,10.399,8.3,21.02,14.71,30.149c5.83,8.32,13.681,15.11,20.9,22.181
	c0.54,0.52,1.61,0.38,2.28-0.021c0.6,0.11,1.189,0.21,1.79,0.311c-5.75,4-11.19,9.029-13.971,15.52c-0.18,0.44-0.01,0.86,0.5,0.95
	c14.46,2.43,30.83-1.771,44.761-5.53c0.43-0.12,1.439-0.59,1.22-1.22c-1.43-4.09-2.66-8.24-4.63-12.101
	c0.91-0.189,2.02-0.77,1.75-1.05c-12.75-12.71-22.62-28.41-31.04-44.229c-7.891-14.83-12.15-30.57-13.84-47.311
	c-0.051-0.59-0.08-1.17-0.131-1.76c12.37-0.08,24.75-0.17,37.11-0.45c6.76-0.149,11.62-0.35,16.58-5.7
	C498.719,360.697,496.839,344.338,496.909,332.888z M263.88,428.518v25.5h-0.231v31.94h-80.489l-0.613-61.146l35.333,0.156h45.77
	v3.55H263.88z M100.659,424.968h38l42.553-0.156l-0.053,24.156v36.99h-80.5V424.968z M181.159,424.968v22 M140.659,422.968v-37h80.5
	v37H140.659z M221.159,424.968l-38.614,0.178 M356.619,431.518v19.5H266.88v-19.5H356.619z M272.119,428.518v-52h71v52H272.119z
	 M398.938,488.397c-10.04,1.55-20.25,2.44-30.399,2.18c-2.09-0.05-4.18-0.22-6.26-0.46c-1.311-0.149-2.591-0.409-3.881-0.71
	c-0.1-0.02,1.94-2.62,2.32-3.04c3.92-4.35,9.45-7.529,14.66-10.21c6.74,1.23,13.54,1.471,20.21,0.24
	C397.179,480.258,397.999,484.338,398.938,488.397z M481.359,482.298c-9.051,2.37-18.271,4.149-27.58,5.109
	c-2.471,0.25-4.95,0.391-7.44,0.41c-1.92,0.021-5.78,0.72-4.36-2c2.74-5.27,7.92-9.49,12.82-12.78c7.53,0.971,15.19,0.82,22.4-1.649
	C478.969,474.857,480.089,478.607,481.359,482.298z M447.719,425.747c7.98,15.2,17.53,30.261,29.5,42.681
	c-0.68,0.27-1.22,0.81-0.88,1.39c0.04,0.061,0.07,0.12,0.1,0.18c-8.529,2.961-17.89,2.11-26.609,0.28
	c-6.37-6.2-12.96-12.229-18.49-19.22c-7.02-8.89-11.29-19.7-15.43-30.13c-7.971-20.07-11.11-40.75-10.71-62.21
	c0.01-0.66-0.521-0.971-1.13-0.99v-0.1c0-0.42-2.9-0.021-2.9,0.779c-0.03,13.761-2.16,27.37-3.04,41.08
	c-1.58,24.63,0.28,49.4,2.82,73.92c-1.04,0.351-2.08,0.66-3.13,0.92c-0.681-0.479-2.2-0.09-2.601,0.551
	c-5.99,1.05-12.16,0.729-18.18-0.381c-3.101-29.859-3.811-59.829-1.67-89.789c1.26-17.711,4.1-35.431,4.34-53.2
	c4.76,0.85,9.45,1.95,14.29,2.399c8.58,0.78,17.21-0.34,25.63-2.029c-1.37,2.239-2.07,4.779-1.25,7.449
	c1.09,3.561,4.68,5.78,8.1,6.641c2.25,0.569,4.771,0.529,7.011-0.23c-0.07,9.521-0.46,18.99,0.09,28.5
	c-0.45,0.471-0.48,1.181,0.109,1.5c0.061,0.9,0.11,1.8,0.19,2.7C435.579,395.228,439.898,410.848,447.719,425.747z M252.619,319.798
	c0.729-0.78,0.17-1.471-0.63-1.641c-0.061-0.06-0.13-0.13-0.2-0.21c-0.07-0.17-0.15-0.35-0.23-0.52
	c-0.06-0.141-0.16-0.25-0.279-0.34c-0.95-2.07-1.67-6.15-1.891-7.07c-0.979-4.12-1.31-8.37-0.8-12.57
	c13.22,4.61,27.62,5.29,41.49,5.32c0.79,0,2.6-1.05,1.74-1.31c0.189-0.141,0.31-0.29,0.31-0.461v-1.569
	c8.12,2.75,17.22,6.38,24.89,1.25c2.511,0.479,5.051,0.43,7.591-0.01v1.1c0,0.14,0.21,0.21,0.51,0.22
	c-0.53,0.37-0.721,0.78,0.34,0.78c12.11,0,25.57,0.86,37.05-3.771c5.33-2.149,8.73-5.909,10.88-10.46
	c0.11-0.229,0.221-0.46,0.32-0.689v0.25c0,1.71,0.01,3.42,0.01,5.13c0.01,8.07,0.08,16.13,0.12,24.2c0.01,2.89,0.021,5.78,0,8.67
	c-0.01,0.84-0.02,1.68-0.04,2.52c-0.02,0.74-0.26,1.2-0.05,1.07c-0.23,0.3-0.271,0.65,0.05,0.99c0.01,0,0.01,0.01,0.021,0.02
	c0.529,0.561,1.529,0.63,2.17,0.16c0.12,0.05,0.26,0.09,0.439,0.11c0.13,0.02,0.271,0.05,0.4,0.069
	c-0.04,6.48-0.44,12.96-0.99,19.431h-115.08C261.279,339.907,256.869,329.388,252.619,319.798z M392.949,331.787
	c-5.221-0.56-10.28-1.989-15.471-2.72c-0.189-0.03-0.39-0.01-0.59,0.04c0.42-2.12-0.09-5.29-0.09-6.72c0-6.86-0.07-13.71-0.1-20.561
	c-0.04-7.449-0.07-14.89,0.02-22.34c0.04-2.75,0.09-5.51,0.21-8.26c0.04-0.93,0.101-1.86,0.181-2.79
	c0.189-2.19,0.619-0.72-1.37-0.81c1.439,0,2.79-2.091,0.87-2.221c-3.12-0.199-2.561,4.61-2.65,6.57c-0.061,1.32-0.09,2.65-0.12,3.98
	c-0.09,0.09-0.15,0.18-0.16,0.279c-0.84,8.92-3.38,17.95-12.24,21.87c-10.159,4.49-23.27,3.33-34.159,3.29
	c0.14-0.12,0.229-0.26,0.229-0.4v-16.17c7.86,0.061,16.19,0.221,23.67-1.97c1.45-0.42,2.681-1.02,3.75-1.79
	c0.05-0.02,0.101-0.06,0.15-0.1c0.22-0.15,0.43-0.32,0.63-0.49c0.07-0.06,0.13-0.12,0.2-0.18c1.95-1.721,3.27-4.051,4.35-6.82
	c3.061-7.84,4.51-21.04,9.811-29.27c1.489-2.32,3.29-4.25,5.529-5.54c0-0.011,0-0.011,0.011-0.011c2.279-1.33,5.02-1.989,8.35-1.75
	c0.21,0.141,0.49,0.221,0.88,0.221h3.75c0.01,0.22,0.01,0.439,0.021,0.649c0.01,0.51,2.909,0.061,2.899-0.78
	c-0.03-1.63-0.11-3.279-0.34-4.88c4,0.07,8.04,0.2,11.99-0.42c-0.16,1.391-0.25,2.811,0.01,4.04c0.05,0.21,0.22,0.34,0.45,0.41
	c0.109,0.16,0.359,0.28,0.8,0.311c4.66,0.31,9.31,0.529,13.79,1.93c4.5,1.399,6.3,6.13,8.55,9.859
	c5.75,9.54,11.25,19.261,15.49,29.591c4.45,10.8,5.75,21.02,3.47,32.52c-0.97,4.851-2.43,9.601-3.84,14.34
	c-0.29,0.971-0.92,2.41-1.14,3.75c-1.12-0.05-2.24-0.14-3.351-0.279c-0.02,0-0.04,0-0.06-0.011c-1.92-0.239-3.82-0.63-5.7-1.14
	h-0.01c-2.78-0.75-5.49-1.76-8.09-3.01c0.09-0.08,0.159-0.16,0.189-0.24c2.48-7.07,5.47-14.06,7.44-21.29
	c1.26-4.66,0.04-8.87-1.62-13.29c-2.32-6.16-5.521-12.01-8.7-17.75c-1.7-3.05-5.1-6.99-5.77-10.47c-0.12-0.61-3.03,0.069-2.9,0.77
	c0.56,2.92,3.36,6.2,4.79,8.73c3.229,5.71,6.32,11.51,8.89,17.54c2.07,4.859,3.75,9.729,2.45,14.979
	c-1.8,7.25-4.97,14.26-7.439,21.29c-0.051,0.12,0.079,0.2,0.289,0.24c-0.38,0.3-0.51,0.65-0.01,0.89
	c1.061,0.511,2.141,0.971,3.23,1.41c-0.24,0.07-0.45,0.16-0.58,0.28c-0.8,0.7-1.59,1.479-2.32,2.32
	c-0.109,0.119-0.22,0.239-0.32,0.359c-0.14,0-0.27,0-0.43,0.03c-1.81,0.38-3.62,0.72-5.43,1.03
	C407.898,332.067,400.459,332.598,392.949,331.787z M381.009,188.378c-2.05-1.181-4.24-1.551-6.57-1.2
	c-0.3,0.04-0.68,0.14-1.01,0.31c0.601-1.66,1.22-3.21,1.83-4.6c1.8,0.24,3.47,0.38,4.67,0.49c7.88,0.76,15.84,0.109,23.74,0.069
	c0.03,0.21,0.07,0.5,0.11,0.84c-0.351,7.36-1.87,14.521,6.029,18.46c0.9,0.45,3.551-0.829,2.29-1.46
	c-0.18-0.079-0.34-0.18-0.51-0.27h1.87c2.439,1.21,1.47,6.49-0.93,8.14c-1.19,0.83-3.04,1.08-4.42,1.57
	c-2.49,0.89-2.711,2.86-3.101,5.23c-0.7,4.239-1.12,8.539-1.51,12.819c-0.05,0.61-0.14,1.26-0.22,1.94
	c-4.021,0.55-8.181,0.24-12.221,0.22c-0.02,0-0.06,0.01-0.1,0.01c-0.58-2.88-1.78-5.52-4.311-7.47c-3.34-2.58-7.689-3.46-11.079-6.1
	c-7.771-6.061-5.841-18.9-2.57-28.641c0.28,0.24,0.8,0.3,1.1,0.26c1.7-0.25,3.141,0.04,4.63,0.891
	C379.669,190.428,382.299,189.117,381.009,188.378z M414.999,212.458c-1.55,1.35-3.271,2.55-5.15,3.569
	C411.398,214.978,413.239,213.718,414.999,212.458z M426.119,327.607c0.04-0.03,0.06-0.06,0.09-0.09c2.8,1,5.689,1.75,8.63,2.2
	c0,0.01,0,0.02,0,0.02c1.47,3.86,2.98,9.03,0.38,12.771c-1.689,2.43-4.88,2.43-7.46,1.729c-2.92-0.8-5.649-2.96-6.56-5.92
	C419.919,334.107,423.199,330.188,426.119,327.607z M436.398,344.147c0.25-0.2,0.511-0.4,0.74-0.63c3.521-3.51,2.51-9.09,1.01-13.42
	c0.75,0.06,1.5,0.1,2.25,0.12c0.12,0,0.261-0.021,0.391-0.05c0.05,0.149,0.09,0.31,0.16,0.449c0.54,0.98,3.34,0.011,2.67-1.199
	c-0.88-1.62,1.93-7.54,2.39-9.12c1.54-5.221,2.83-10.5,3.59-15.891c1.63-11.58-2.09-22.39-6.81-32.81
	c-4.43-9.79-10.01-19-15.55-28.19c-2.021-3.35-3.54-5.35-7.301-6.79c-4.329-1.649-9.319-1.72-13.92-2.01
	c-0.64-3.68,0.57-8.49,0.971-12.1c0.149-1.37,0.319-2.74,0.51-4.11c15.45-6.07,23.28-21.35,18.899-37.43
	c-4.449-16.36-21.42-18.471-35.859-16.21c-0.18,0.02-0.36,0.08-0.54,0.149c-6.14-1.439-12.83-1.67-18.62,1.25
	c-4.09,2.061-8.48,5.59-7.2,10.73c0.811,3.28,4.7,4.8,8.63,5.59c-2.35,5.16-3.84,10.83-4.609,16.44
	c-0.66,4.81-1.801,12.09,1.56,16.239c3.37,4.15,7.57,5.87,12.22,8.15c4.761,2.33,6.11,6.81,6.5,11.6h-3.409
	c-0.681,0-1.16,0.36-1.37,0.78c-4.641,0.04-9.101,1.39-12.75,4.57c-5.601,4.859-7.71,13.04-9.57,19.899
	c-1.72,6.37-2.79,13.74-6.75,19.2c-1.99,2.75-5.25,3.21-8.4,3.601c-6.689,0.829-13.54,0.72-20.27,0.729c-0.57,0-3.29,1.12-1.9,1.12
	h0.601c-0.03,0.06-0.05,0.12-0.05,0.18v2.91c-3.4-0.12-6.471-2.02-9.551-3.6c0.04-0.11,0.09-0.2,0.13-0.301
	c0.051-0.1,0.021-0.18-0.069-0.239c-1.91-0.98-3.931-1.48-5.99-1.38c-2.4-0.11-4.8,0.56-6.99,1.67c-0.91,0.47-0.56,0.649,0.07,0.66
	c-3.22,1.659-6.5,3.529-9.9,3.14c-0.05-0.01-0.109,0-0.18,0.01v-3.46c0.75-0.32,1.37-0.71,0.54-0.71c-5.39,0-10.84,0.04-16.19-0.51
	c-0.01,0-0.02,0-0.04-0.01c-2.14-0.21-4.27-0.53-6.369-0.98c-0.021,0-0.04,0-0.061-0.01c-2.88-0.62-5.71-1.49-8.47-2.71
	c-3.48-1.54-6.51-3.601-9.2-6.021c0.13-0.05,0.25-0.1,0.33-0.17c0.37-0.27,0.7-0.56,1.01-0.859c2.41-2.32,2.96-5.271,2.55-8.32
	c-0.3-2.271-1.149-4.59-2.159-6.75c-0.681-1.47-1.44-2.86-2.171-4.12c-2.109-3.66-4.619-7.09-7.189-10.44
	c-0.87-1.119-1.74-2.239-2.62-3.35c-0.04-0.06-0.09-0.11-0.13-0.17c0.86,0.08,1.72,0.15,2.58,0.18c0.229,0.011,0.46,0,0.689,0
	c0.051,0.11,0.2,0.21,0.49,0.29c2.08,0.521,3.92,1.38,5.59,2.471c0.011,0,0.021,0,0.03,0.01c9.24,6,13.44,18.979,25.24,21.37
	c14.16,2.88,15.81-14.94,18.08-25.101c0.77-0.21,1.51-0.6,1.41-0.85c0.34,0,0.68,0,1.02,0.01c4.05,0.03,8.11,0.2,12.1,0.91
	c0.07,0.01,0.131,0.02,0.2,0.03c-0.069,0.08-0.12,0.17-0.149,0.27c-2.4,7.5-2.851,16.46-5.221,24.39
	c-0.029,0.08-0.05,0.15-0.069,0.23c-0.12,0.38-0.24,0.76-0.37,1.13c-0.03,0.09-0.061,0.18-0.09,0.271
	c-1.25,3.649-2.98,7.029-5.591,9.899c-4.939,5.42-13.31,5.03-19.93,4.22c-7.52-0.909-15.66-2.909-22.229-6.81
	c-0.53-0.32-1.431-0.12-2.021,0.271c-0.62,0.39-0.92,0.97-0.22,1.39c6.68,3.97,14.55,5.84,22.149,7.05
	c6.98,1.12,14.591,1.26,20.931-2.31c12.859-7.24,11.53-27.19,15.43-39.41c0.2-0.63-0.14-1-0.63-1.141c0.5-0.26,0.8-0.52,0.43-0.59
	c5.69-0.939,16.801-2,20.16-7.42c2.88-4.64-14.07-3.7-14.13-3.7c-6.56,0.011-27.77-0.609-25.22,10.341
	c-0.92,0.359-1.95,0.96-0.931,0.96h0.391c-1.58,6.189-2.55,12.6-4.771,18.6c-3.09,8.3-11.359,6.51-17,1.86
	c-7.35-6.061-11.33-15.44-20.38-19c3.76-0.61,7.46-2.051,10.17-4.591c6.141-5.77,8.15-14.039,5.98-22.06
	c-1.11-4.11-4.311-10.76-8.49-12.72c-0.18-0.08-0.49-0.07-0.83,0c-0.64-5.88-2.17-11.86-4.54-17.26c2.91-0.49,5.65-1.25,7.98-2.261
	c0.439-0.18,0.67-0.41,0.76-0.649c7.52-4.42,9.05-17.34-1.55-18.511c-5.03-0.55-10.521,1.15-15.34,2.381
	c-4.881,1.25-12.15,4.659-17.21,3.21c-0.271-0.08-0.66-0.021-1.04,0.119c-3.811-0.64-7.82-0.539-11.24,1.421
	c-5.55,3.189-7.74,8.819-9.24,14.76c-1.09,4.28-0.47,10.77-5.24,12.7c-5.05,2.05-10.17,2.119-14.5,5.75
	c-7.479,6.27-8.31,17.93-6.55,26.83c1.87,9.369,7.98,17.729,17.32,19.949c0.99,0.5,1.64,0.811,1.72,0.851
	c-0.42,4.16,0,8.7,0.36,12.5c1.72,18.08,6,37.51-1.36,54.899c-0.83,0.15-1.729,0.62-1.58,1.101c0.49,1.62,1.23,3.13,2.13,4.54
	c-0.01,0.04-0.029,0.069-0.04,0.109c-2.68,9.521-7.29,18.311-7.45,28.311h-61.989v-221.99h346.479v221.99l-38.319,0.05
	C436.359,348.397,436.389,346.268,436.398,344.147z M304.839,288.737c1.38,4.67,6.08,6.87,9.28,10.17c0.2,0.21,0.34,0.4,0.43,0.58
	c-0.08,0.181-0.06,0.36,0.11,0.51c-0.13,1.931-7.66,1.74-8.07,1.7c-2.18-0.26-4.31-0.92-6.4-1.569c-2.71-0.83-5.359-1.881-8.06-2.74
	v-8.271c2.05-0.02,4.06-0.5,5.98-1.33c1.909-0.829,3.729-1.84,5.579-2.8c1.36-0.7,2.721-1.18,4.131-1.31
	c1.34,0.109,2.689,0.52,4.05,1.08c0.68,1.31-1.67,3.33-2.98,3.12c-0.229-0.03-0.66,0.06-1.109,0.22c-0.011-0.05-0.03-0.09-0.04-0.13
	C307.489,287.117,304.599,287.928,304.839,288.737z M308.188,289.128c2.61,0,4.74-1.101,6.101-3.271c3.38,1.64,6.82,3.53,10.32,3.18
	v9.91c-2.431,0.431-4.841,0.34-7.221-0.29C314.688,295.117,310.059,293.218,308.188,289.128z M248.659,318.208
	c0.27,0.59,0.529,1.18,0.8,1.779c-5.04,1.181-9.91,1.2-14.95,0.03c-0.18-0.04-0.46-0.01-0.78,0.08
	c2.341-9.521-1.409-22.36-2.06-31.37c4.32,3.07,9.04,5.65,14.15,7.68c-1.07,6.58,0.02,13.351,2.17,19.61
	c0.149,0.42,0.37,1.06,0.659,1.729C248.599,317.897,248.589,318.048,248.659,318.208z M248.579,295.327
	c-0.19-0.17-0.47-0.27-0.78-0.279c-13.6-5.21-24.27-15.15-32.35-27.061c-0.44-0.66-3.25,0.26-2.71,1.05
	c4.64,6.841,10.069,12.83,16.35,17.75c-0.25,0.171-0.42,0.381-0.42,0.62c0.11,9.5,4.87,22.761,2.32,32.9
	c-0.42,1.689-1.04,3.29-1.92,4.77c0,0.011-0.011,0.011-0.011,0.011c-0.46,0.779-0.989,1.52-1.59,2.22
	c-8.37,9.72-25.03-0.07-28.77-9.73c0.47-0.13,0.88-0.38,1.02-0.71c6.19-14.39,4.58-30.449,2.82-45.59
	c-0.561-4.81-2.92-15.439-1.811-23.35c0.45-0.3,0.641-0.61,0.11-0.73c0.82-4.77,3.021-8.399,7.85-8.88
	c0.7-0.07,1.24-0.51,1.431-0.95c1.62-0.199,2.99-0.489,4.1-0.8c0.26-0.06,0.49-0.13,0.72-0.2c0.131,0.011,0.271,0.03,0.4,0.051
	c0.01,0,0.01,0,0.01,0c12.9,1.729,21.46,22.319,27.75,31.14c10.63,14.91,27.34,17.01,44.07,17.229c0.7,0.011,1.41,0.021,2.11,0.021
	c-0.03,0.05-0.051,0.11-0.051,0.18v16.391c-2.58-0.021-5.17-0.08-7.75-0.19h-0.06c-5.24-0.229-10.46-0.67-15.61-1.479
	C259.949,298.787,254.179,297.407,248.579,295.327z M232.169,231.907c-3.47-0.05-6.85-0.689-10.24-1.37
	c-0.09-0.02-0.229-0.01-0.38,0.011c0.1-0.261,0.21-0.521,0.311-0.79c1.739-3.17,3.13-7.351,1.67-11.28
	c-0.23-4.89-1.58-9.8-3.771-14.32c0.66-0.84,1.53-2.02,2.37-3.37c4.82-5.3,6.35-13.42,6.65-20.869c5.6,2.79,13.29,3.64,20.38,2.93
	c0.59,1.32,1.189,2.76,1.77,4.31c-2.49-0.35-4.81,0.2-6.979,1.45c-0.471,0.26-0.811,0.95-0.221,1.28
	c0.641,0.37,1.48,0.109,2.07-0.23c1.32-0.76,2.64-0.88,4.13-0.66c0.5,0.08,1.09-0.159,1.49-0.5c0.62,1.771,1.19,3.631,1.67,5.54
	c-0.03-0.029-0.06-0.069-0.09-0.1c-1.32-1.09-3.061,0.12-4.48,0.17c-0.6,0.03-1.51,0.44-1.609,1.11c-0.12,0.72,0.81,0.84,1.3,0.819
	c0.65-0.02,1.29-0.17,1.91-0.35c0.2-0.06,0.399-0.12,0.609-0.18c0,0,0,0,0,0.01c0.66,0.54,2.24-0.021,2.53-0.76
	c2.03,8.54,2.12,17.87-3.99,23.149c-0.42,0.36-0.859,0.681-1.31,0.99c-1.39,0.76-2.84,1.5-4.2,2.16c-2.39,1.02-4.84,1.93-6.91,3.51
	c-3.63,2.771-4.39,7.42-4.569,11.74c-0.4,0.17-0.69,0.39-0.551,0.63c0.07,0.12,0.131,0.18,0.24,0.271
	c0.07,0.05,0.17,0.079,0.271,0.1c0,0.16-0.011,0.32-0.011,0.47c0,0.3,1.131,0.25,1.98-0.03c0.63,0.171,1.25,0.36,1.88,0.521
	c0.59,0.15,1.19,0.27,1.78,0.39c1.689,2.521,3.84,4.82,5.64,7.23c4.3,5.72,14.98,19.57,7.55,26.359
	c-3.87-3.779-7.05-8.3-9.939-12.989c-5.58-9.061-12.391-20.771-22.63-23.32c0.12-0.08,0.229-0.17,0.3-0.28
	c0.84-1.199,1.56-2.449,2.17-3.729c3.08,0.59,6.17,1.1,9.33,1.14C230.879,233.077,233.589,231.928,232.169,231.907z
	 M310.429,237.228c-4.88-0.75-9.84-0.82-14.79-0.82c-2.64-9.02,10.87-8.71,17.29-8.899c4.16-0.13,8.46-0.261,12.601,0.14
	c1.27,0.12,2.909,0.48,3.619,1.65c2.45,4-15.71,6.949-17.25,7.22C311.339,236.617,310.688,236.958,310.429,237.228z
	 M256.989,202.117c2.109,1.891,3.71,5.011,4.83,7.53c-2.171-4.07-4.7-7.13-4.7-7.13s-0.021,0.21-0.061,0.56
	C257.029,202.758,257.009,202.438,256.989,202.117z M258.719,178.548c0.87-0.49,1.67-0.98,2.37-1.45
	c-0.46,0.49-0.95,0.899-1.47,1.229c-0.23,0-0.471,0.051-0.71,0.15C258.849,178.497,258.779,178.527,258.719,178.548z
	 M199.669,324.678c5.19,5.71,13.67,8.76,21.25,7.319c1.53-0.27,3.01-0.739,4.43-1.399c0.23-0.11,0.46-0.22,0.681-0.34
	c3.899-2.021,6.13-5.11,7.31-8.8c5.53,1.1,10.9,0.89,16.42-0.41c0.061-0.011,0.101-0.03,0.15-0.04
	c4.09,9.21,8.34,19.359,7.939,29.46h-64.779C193.139,341.348,196.938,333.228,199.669,324.678z M491.799,361.518
	c-1.37,4.52-5.17,10.96-10.25,11.479c-2.84,0.29-5.74,0.25-8.59,0.311c-12.16,0.28-24.311,0.35-36.46,0.43
	c-0.41-6.75-0.33-13.47-0.22-20.22l41.359-0.05v-227.99H125.159v227.99h250.41c-0.62,6.66-1.36,13.319-2.03,19.97
	c-11.73,0.01-23.46,0.04-35.19,0.08h-69.229v0.31c-11.53,0.051-23.07,0.091-34.601,0.101c-31.46,0.05-62.92-0.021-94.38-0.44
	c-4.87-0.06-9.75-0.13-14.62-0.279c-4.84-0.15-7.39-0.58-11.08-4.551c-8.529-9.22-6.13-27.699-6.189-39.35
	c-0.26-47.811-0.21-95.63-0.12-143.44c0.03-16.029,0.05-32.06,0.2-48.09c0.03-4.26-0.01-8.5,0.479-12.729
	c0.86-7.49,4.5-18.88,12.86-19.36c25.97-1.52,52.22-0.76,78.22-0.84c45.73-0.13,91.45,0.25,137.17,0.25
	c21.681,0,43.36-0.311,65.051-0.25c25.949,0.08,52.149-0.67,78.069,0.84c8.22,0.48,11.88,11.12,13.08,18.43
	c0.75,4.57,0.61,9.24,0.66,13.87c0.15,16.03,0.16,32.061,0.2,48.09c0.04,23.261,0.029,46.521,0.029,69.771
	c0,23.3-0.029,46.6-0.14,69.899C493.959,337.367,495.209,350.237,491.799,361.518z M388.799,190.438c2.03-0.29,4.01,0.03,5.95,0.65
	c1.11,0.35,3.42-1.271,1.71-1.811c-2.37-0.76-4.87-1.109-7.34-0.76c-0.61,0.09-1.51,0.39-1.62,1.1
	C387.389,190.308,388.299,190.518,388.799,190.438z M395.679,195.327c-2.06-1.029-3.99-1.5-6.27-0.81c-0.511,0.15-1.38,0.61-1.2,1.3
	c0.18,0.66,1.18,0.68,1.689,0.521c1.32-0.391,2.341-0.011,3.53,0.59c0.66,0.319,1.47,0.22,2.07-0.21
	C395.909,196.428,396.339,195.657,395.679,195.327z M387.719,212.407c2.351-0.029,4.74-1.22,4.79-3.85
	c0.021-0.68-0.74-0.79-1.28-0.73c-0.479,0.051-1.609,0.391-1.63,1.051c-0.01,0.55-0.12,1.229-0.42,1.56
	c-0.02,0.03-0.04,0.05-0.05,0.06c-0.02,0.011-0.03,0.021-0.06,0.04c-0.021,0.011-0.021,0.011-0.03,0.021
	c-0.01,0-0.021,0.01-0.03,0.01c-0.02,0.01-0.05,0.01-0.08,0.021c-0.149,0.01-0.37,0.029-0.13,0.029c-0.67,0.011-1.52,0.19-1.9,0.82
	C386.549,212.018,387.188,212.418,387.719,212.407z M379.229,198.237c-1.729,2.32-6.149,7.34-3.63,10.33
	c0.59,0.69,3.36-0.32,2.71-1.09c-2.14-2.53,2.141-7.32,3.59-9.27C382.629,197.237,379.739,197.558,379.229,198.237z
	 M377.739,195.188c0.33-0.6-0.28-1.06-0.851-1.08c-0.74-0.03-1.42-0.33-2.14-0.49c-0.95-0.199-2.04-0.109-2.811,0.53
	c-0.42,0.35-0.829,0.98-0.199,1.37c0.449,0.27,1.149,0.24,1.68,0.01c0.19,0.05,0.39,0.11,0.58,0.17c0.6,0.181,1.22,0.32,1.85,0.351
	C376.529,196.067,377.389,195.838,377.739,195.188z M316.169,190.048c-0.08-5.95-0.15-11.91-0.21-17.86
	c2.729,0.271,5.439,0.65,8.16,1.021c0.02,0.069,0.029,0.14,0.05,0.199c0.479,1.41,3.37,0.61,2.9-0.779
	c-1.03-3.04-0.03-6.54,0.02-9.681c0.37-0.21,0.54-0.42,0.22-0.5c-0.12-0.02-0.25-0.05-0.37-0.08c-0.319-0.489-1.1-0.59-1.76-0.38
	c-2.83-0.59-5.78-1.01-8.62-1.069c-0.199,0-0.62,0.119-1.05,0.29c0.23-0.16,0.38-0.36,0.38-0.58c-0.01-1.87,0-3.75,0.03-5.631
	c0.01-0.6,0.02-1.21,0.05-1.81c0-0.08,0.03-0.3,0.05-0.51c0.73-0.58,0.7-1.66-0.75-1.66h-10.5c-0.81,0-1.37,0.49-1.489,0.99
	c-0.19,0.109-0.351,0.239-0.44,0.39c-0.43,0.67-0.28,1.8-0.3,2.561c-0.08,2.539-0.061,5.079-0.05,7.619
	c-0.311,0.011-0.641,0.061-0.92,0.15c-8.08,2.68-13.96,8.87-14.921,17.51c-1.02,9.17,5.62,16.03,14.29,17.34
	c0.671,0.11,3.141-0.979,2.391-1.09c-18.76-2.84-17.12-27.74-0.771-33.149c0.141-0.04,0.261-0.091,0.36-0.13
	c0.8,0.119,2.47-0.341,2.47-1.08c-0.01-2.19-0.01-4.381,0.021-6.57c0.01-0.5-0.07-1.72-0.03-2.53h7.73
	c-0.101,0.521-0.051,1.141-0.061,1.57c-0.08,2.27-0.06,4.54-0.06,6.81c0,0.391,0.93,0.41,1.739,0.16
	c-0.489,0.28-0.71,0.54-0.05,0.55c3.13,0.061,6.391,0.601,9.45,1.29c-0.08,2.66-0.69,5.5-0.35,8.17
	c-2.511-0.34-5.021-0.659-7.551-0.88c-0.069-0.01-0.18,0-0.29,0.021v-0.59c-0.01-0.7-2.909-0.2-2.899,0.779c0,0.5,0.01,1,0.01,1.5
	c0.061,6.15,0.14,12.311,0.22,18.471c-0.06,0.09-0.069,0.18,0,0.25c0,0.09,0.011,0.18,0.011,0.27c0,0.43,1.06,0.41,1.899,0.12
	c5.36,0.83,11.71,2.09,13.73,7.69c3.37,9.319-4.311,16.149-12.53,18.229c0-0.11-0.01-0.21-0.01-0.31c0-0.69-2.9-0.2-2.9,0.779
	c0.021,1.7,0.07,3.4,0.05,5.11h-7.56c0.06-1.44-0.01-2.91-0.061-4.34c0.61-0.33,0.95-0.72,0.15-0.83
	c-0.06-0.01-0.12-0.021-0.17-0.03c0-0.06-0.01-0.13-0.01-0.189c0-0.41-1-0.4-1.82-0.131c-3.34-0.689-6.53-1.97-8.979-4.43
	c0.01-0.05,0.02-0.1,0.02-0.149v-5.091c1.65,0.95,3.48,1.48,5.47,1.521c0.65,0.02,1.53-0.22,1.91-0.79
	c0.391-0.58-0.32-0.86-0.79-0.87c-2.41-0.05-4.49-1.09-6.21-2.74c-0.1-0.09-0.24-0.16-0.399-0.189
	c-0.2-1.36-2.921-0.931-2.921,0.359v8c0,0.23,0.07,0.4,0.171,0.551c-0.11,0.14-0.131,0.279-0.011,0.399
	c2.851,2.891,6.74,4.23,10.67,4.91c0.011,1.55,0.021,3.09,0.021,4.64c0,0.33,0,0.66-0.01,0.99c0,0.01,0,0.01,0,0.021
	c-0.091,0.08-0.181,0.159-0.24,0.27c-0.19,0.34,0.28,0.44,0.7,0.46c0.109,0.01,0.229,0.021,0.33,0.01
	c0.359-0.01,0.989-0.1,1.47-0.34h7.97c-0.02,0.391,1.08,0.34,1.24,0.32c0.46-0.07,1.01-0.23,1.39-0.561
	c0.05-0.02,0.09-0.05,0.141-0.079l0.01-0.011c0.02-0.01,0.03-0.029,0.05-0.04c0.07-0.06,0.12-0.12,0.16-0.18
	c0.27-0.32,0.36-0.71,0.18-1.01c0.07-1.61,0.04-3.24,0-4.86c8.811-2.06,15.771-6.74,15.94-16.47
	C332.489,193.098,323.389,191.188,316.169,190.048z M316.229,209.907c3.011-0.75,5.78-2.38,6.2-5.699
	c0.41-3.19-2.22-5.631-5.109-6.221c-0.28-0.06-0.9,0.11-1.46,0.32c-0.801-0.13-2.49,0.34-2.49,1.08c0.04,3.35,0.08,6.689,0.1,10.03
	c0.01,0.35,0.72,0.399,1.44,0.25C314.688,209.958,315.169,210.168,316.229,209.907z M316.279,199.548c3.77,1.96,4.84,8.18-0.12,9.54
	c0.13-0.141,0.21-0.28,0.21-0.45C316.349,205.607,316.319,202.577,316.279,199.548z M305.398,170.997
	c-0.359-0.449-2.529-0.06-2.81,0.73c-4.14,1.48-6.71,4.28-7.21,9.25c-0.52,5.25,4.07,7.63,8.42,8.78c0.74,0.189,3.33-0.98,2.35-1.24
	c-0.18-0.04-0.369-0.1-0.55-0.15c0.03-0.069,0.05-0.149,0.05-0.22c-0.06-5.35-0.13-10.7-0.18-16.05
	C306.829,171.718,306.669,170.888,305.398,170.997z M298.429,182.638c-1.12-4.01,0.91-7.62,4.141-9.44
	c0.05,4.71,0.109,9.431,0.17,14.141C300.739,186.407,299.089,185.018,298.429,182.638z M302.859,197.907
	c0.05,3.82,0.09,7.65,0.109,11.48c0.01,0.7,2.91,0.2,2.9-0.78c-0.03-3.83-0.07-7.649-0.11-11.479
	C305.749,196.428,302.849,196.928,302.859,197.907z M243.589,206.668c0.68-0.011,1.44-0.25,1.92-0.761
	c2.36-2.55,1.91-5.55,0.01-8.229c-0.5-0.71-3.31,0.229-2.699,1.09c1.649,2.33,2.06,4.95,0.01,7.16
	C242.349,206.447,243.239,206.668,243.589,206.668z M235.929,212.407c0.67,0.011,1.53-0.199,1.91-0.819
	c0.35-0.591-0.3-0.971-0.82-0.971c-0.479-0.01-0.729,0-1.13-0.31c-0.529-0.42-0.74-1.09-0.75-1.75c-0.02-0.67-0.72-0.79-1.279-0.73
	c-0.461,0.051-1.65,0.4-1.631,1.051c0.021,0.979,0.21,1.939,0.99,2.609C233.959,212.147,234.959,212.397,235.929,212.407z
	 M235.249,190.447c1.31,0.181,3.01-1.649,1.05-1.93c-2.49-0.36-5.02,0.01-7.4,0.77c-0.51,0.16-1.399,0.601-1.22,1.28
	c0.181,0.65,1.19,0.66,1.69,0.5C231.299,190.458,233.239,190.157,235.249,190.447z M234.229,196.348
	c0.681,0.21,1.561-0.021,2.051-0.55c0.439-0.48,0.279-1.101-0.351-1.29c-2.27-0.681-4.3-0.19-6.37,0.84
	c-0.46,0.229-1.16,0.83-0.71,1.399c0.431,0.54,1.41,0.431,1.95,0.16C231.989,196.308,232.898,195.947,234.229,196.348z
	 M396.459,189.277c-2.37-0.76-4.87-1.109-7.34-0.76c-0.61,0.09-1.51,0.39-1.62,1.1c-0.11,0.69,0.8,0.9,1.3,0.82
	c2.03-0.29,4.01,0.03,5.95,0.65C395.859,191.438,398.169,189.817,396.459,189.277z M376.889,194.107c-0.74-0.03-1.42-0.33-2.14-0.49
	c-0.95-0.199-2.04-0.109-2.811,0.53c-0.42,0.35-0.829,0.98-0.199,1.37c0.449,0.27,1.149,0.24,1.68,0.01
	c0.19,0.05,0.39,0.11,0.58,0.17c0.6,0.181,1.22,0.32,1.85,0.351c0.681,0.02,1.54-0.21,1.891-0.86
	C378.069,194.588,377.459,194.128,376.889,194.107z M395.679,195.327c-2.06-1.029-3.99-1.5-6.27-0.81c-0.511,0.15-1.38,0.61-1.2,1.3
	c0.18,0.66,1.18,0.68,1.689,0.521c1.32-0.391,2.341-0.011,3.53,0.59c0.66,0.319,1.47,0.22,2.07-0.21
	C395.909,196.428,396.339,195.657,395.679,195.327z M391.229,207.827c-0.479,0.051-1.609,0.391-1.63,1.051
	c-0.01,0.55-0.12,1.229-0.42,1.56c-0.02,0.03-0.04,0.05-0.05,0.06c-0.02,0.011-0.03,0.021-0.06,0.04
	c-0.021,0.011-0.021,0.011-0.03,0.021c-0.01,0-0.021,0.01-0.03,0.01c-0.02,0.01-0.05,0.01-0.08,0.021
	c-0.149,0.01-0.37,0.029-0.13,0.029c-0.67,0.011-1.52,0.19-1.9,0.82c-0.35,0.58,0.29,0.98,0.82,0.97
	c2.351-0.029,4.74-1.22,4.79-3.85C392.529,207.878,391.769,207.768,391.229,207.827z M379.229,198.237
	c-1.729,2.32-6.149,7.34-3.63,10.33c0.59,0.69,3.36-0.32,2.71-1.09c-2.14-2.53,2.141-7.32,3.59-9.27
	C382.629,197.237,379.739,197.558,379.229,198.237z M236.299,188.518c-2.49-0.36-5.02,0.01-7.4,0.77
	c-0.51,0.16-1.399,0.601-1.22,1.28c0.181,0.65,1.19,0.66,1.69,0.5c1.93-0.609,3.87-0.91,5.88-0.62
	C236.559,190.628,238.259,188.798,236.299,188.518z M235.929,194.508c-2.27-0.681-4.3-0.19-6.37,0.84
	c-0.46,0.229-1.16,0.83-0.71,1.399c0.431,0.54,1.41,0.431,1.95,0.16c1.19-0.6,2.1-0.96,3.43-0.56c0.681,0.21,1.561-0.021,2.051-0.55
	C236.719,195.317,236.559,194.697,235.929,194.508z M237.019,210.617c-0.479-0.01-0.729,0-1.13-0.31
	c-0.529-0.42-0.74-1.09-0.75-1.75c-0.02-0.67-0.72-0.79-1.279-0.73c-0.461,0.051-1.65,0.4-1.631,1.051
	c0.021,0.979,0.21,1.939,0.99,2.609c0.74,0.66,1.74,0.91,2.71,0.92c0.67,0.011,1.53-0.199,1.91-0.819
	C238.188,210.997,237.539,210.617,237.019,210.617z M245.519,197.678c-0.5-0.71-3.31,0.229-2.699,1.09
	c1.649,2.33,2.06,4.95,0.01,7.16c-0.48,0.52,0.41,0.74,0.76,0.74c0.68-0.011,1.44-0.25,1.92-0.761
	C247.869,203.357,247.419,200.357,245.519,197.678z" fill="#000000"></path>
</svg>