<?xml version="1.0" encoding="UTF-8" standalone="no"?>
<svg
   xmlns:dc="http://purl.org/dc/elements/1.1/"
   xmlns:cc="http://creativecommons.org/ns#"
   xmlns:rdf="http://www.w3.org/1999/02/22-rdf-syntax-ns#"
   xmlns:svg="http://www.w3.org/2000/svg"
   xmlns="http://www.w3.org/2000/svg"
   id="svg835"
   version="1.1"
   viewBox="0 0 1792 1792"
   height="1792"
   width="1792">
  <metadata
     id="metadata841">
    <rdf:RDF>
      <cc:Work
         rdf:about="">
        <dc:format>image/svg+xml</dc:format>
        <dc:type
           rdf:resource="http://purl.org/dc/dcmitype/StillImage" />
        <dc:title></dc:title>
      </cc:Work>
    </rdf:RDF>
  </metadata>
  <defs
     id="defs839" />
  <g
     style="opacity:1;fill:#f26240;fill-opacity:1"
     id="g870">
    <path
       d="m 1364,918 c 3.9292,86.6829 65.8158,157.4299 129,211 -75.6667,74.6667 -151.3333,149.3333 -227,224 -61.6349,-60.7788 -129.746,-116.8467 -181,-187 -131.18547,202.0565 -451.13449,257.1052 -632.67188,91.6562 C 288.05611,1092.7317 328.34557,778.98706 527.40625,658.375 674.72276,560.28445 855.24189,530.28088 1029,523 1024.3446,448.42096 1042.6265,368.16423 1008,299 939.07501,207.03958 792.94675,246.78978 732.75,328.90625 685.0579,361.26892 696.71376,466.17027 625.25277,439.89056 542.16852,432.26037 459.08426,424.63019 376,417 377.38378,209.51611 565.47193,52.229049 758.16211,16.173828 936.03562,-19.334135 1149.0114,-4.130693 1279.875,136.03125 c 64.1137,65.88762 91.7037,157.54194 84.125,247.88995 0,178.02627 0,356.05253 0,534.0788 z m -672,21 c -8.5213,127.5122 157.50879,209.3706 256.22656,132.2461 C 1042.7448,999.21227 1028.2531,870.87274 1029,765.15043 1050.2078,691.45994 984.56899,706.00488 931.10938,717.625 832.3157,733.11965 715.89392,780.87286 696.57031,891.49219 693.38023,907.11147 691.99929,923.06973 692,939 Z"
       style="color:#000000;font-style:normal;font-variant:normal;font-weight:normal;font-stretch:normal;font-size:medium;line-height:normal;font-family:sans-serif;font-variant-ligatures:normal;font-variant-position:normal;font-variant-caps:normal;font-variant-numeric:normal;font-variant-alternates:normal;font-variant-east-asian:normal;font-feature-settings:normal;font-variation-settings:normal;text-indent:0;text-align:start;text-decoration:none;text-decoration-line:none;text-decoration-style:solid;text-decoration-color:#000000;letter-spacing:normal;word-spacing:normal;text-transform:none;writing-mode:lr-tb;direction:ltr;text-orientation:mixed;dominant-baseline:auto;baseline-shift:baseline;text-anchor:start;white-space:normal;shape-padding:0;shape-margin:0;inline-size:0;clip-rule:nonzero;display:inline;overflow:visible;visibility:visible;isolation:auto;mix-blend-mode:normal;color-interpolation:sRGB;color-interpolation-filters:linearRGB;solid-color:#000000;solid-opacity:1;vector-effect:none;fill:#f26240;fill-opacity:1;fill-rule:nonzero;stroke:none;stroke-width:1;stroke-linecap:butt;stroke-linejoin:miter;stroke-miterlimit:4;stroke-dasharray:none;stroke-dashoffset:0;stroke-opacity:1;color-rendering:auto;image-rendering:auto;shape-rendering:auto;text-rendering:auto;enable-background:accumulate;stop-color:#000000;stop-opacity:1"
       id="path872" />
    <path
       d="M 915,-0.5 C 711.84046,-4.5038353 488.51451,87.145204 403.39912,283.13297 c -11.53594,43.08451 -67.55375,153.13835 16.84811,138.43349 83.31716,7.39035 167.36659,15.89205 250.22738,22.58979 32.31334,-114.86814 147.31924,-227.43359 274.17238,-190.23303 82.98821,19.81921 87.40051,112.74012 83.85301,182.01947 -7.0405,26.26786 14.9071,80.29409 -12.4347,87.12186 -205.44058,10.59918 -430.70366,53.31403 -576.19642,211.10378 -122.8939,149.13344 -125.3943,402.79717 24.81862,534.72227 183.89674,152.4856 491.64518,94.8636 620.3164,-102.0058 51.4738,69.9207 119.3126,126.1374 181.0078,186.8066 75.9095,-74.9069 151.819,-149.8138 227.7285,-224.7207 -77.2924,-61.3712 -141.328,-153.19448 -129.2402,-255.90623 -0.5087,-187.1451 1.0262,-374.33621 -0.7832,-561.45203 C 1345.2913,151.05186 1196.6133,35.373884 1043.6159,11.32533 1001.2971,2.9644581 958.10442,-0.49513703 915,-0.5 Z m 0,1 c 166.1283,-3.358492 351.8641,63.478456 423.8605,224.60499 40.3582,90.84055 19.396,192.31584 24.6395,288.62996 0.5449,139.97396 -1.1025,280.00706 0.8466,419.94313 11.7283,79.92732 68.1045,144.90432 127.9132,195.34922 -75.4225,74.4258 -150.8451,148.8516 -226.2676,223.2774 -61.6703,-60.176 -130.5512,-118.9092 -181.4121,-186.5762 C 953.54817,1367.5276 633.9897,1422.528 452.66638,1257.2877 288.63602,1092.5644 328.88778,779.2382 527.68556,658.78951 675.06576,560.6646 855.67553,530.7209 1029.5,523.48047 1024.8239,448.65058 1043.1904,368.11253 1008.418,298.72656 939.32464,206.46971 792.75023,246.20669 732.36234,328.58921 684.75887,360.94005 696.29027,465.63117 624.90903,439.35732 542.10928,431.75319 459.30952,424.14905 376.50977,416.54492 378.17614,209.4789 565.9519,52.663777 758.26842,16.662766 809.69314,5.4107038 862.39474,0.49412728 915,0.5 Z m 114.5,706.98242 c -115.93266,6.6423 -261.58017,26.23736 -319.67069,141.77415 -43.61852,86.58143 -11.00367,207.91413 85.42168,241.07823 96.33545,42.2456 206.89801,-31.4013 223.51291,-130.62903 18.389,-82.30778 7.9809,-168.44157 10.7361,-252.22335 z m -1,1.04492 c -5.5841,111.9707 22.0209,237.69991 -50.46364,333.93626 -75.45845,100.4529 -255.91219,60.986 -281.17955,-63.01249 C 671.8658,878.05293 738.12629,769.48027 838.76799,743.0619 899.22955,719.84391 964.07655,710.83975 1028.5,708.52734 Z"
       style="color:#000000;font-style:normal;font-variant:normal;font-weight:normal;font-stretch:normal;font-size:medium;line-height:normal;font-family:sans-serif;font-variant-ligatures:normal;font-variant-position:normal;font-variant-caps:normal;font-variant-numeric:normal;font-variant-alternates:normal;font-variant-east-asian:normal;font-feature-settings:normal;font-variation-settings:normal;text-indent:0;text-align:start;text-decoration:none;text-decoration-line:none;text-decoration-style:solid;text-decoration-color:#000000;letter-spacing:normal;word-spacing:normal;text-transform:none;writing-mode:lr-tb;direction:ltr;text-orientation:mixed;dominant-baseline:auto;baseline-shift:baseline;text-anchor:start;white-space:normal;shape-padding:0;shape-margin:0;inline-size:0;clip-rule:nonzero;display:inline;overflow:visible;visibility:visible;isolation:auto;mix-blend-mode:normal;color-interpolation:sRGB;color-interpolation-filters:linearRGB;solid-color:#000000;solid-opacity:1;vector-effect:none;fill-opacity:1;fill-rule:nonzero;stroke:none;stroke-width:1;stroke-linecap:butt;stroke-linejoin:miter;stroke-miterlimit:4;stroke-dasharray:none;stroke-dashoffset:0;stroke-opacity:1;color-rendering:auto;image-rendering:auto;shape-rendering:auto;text-rendering:auto;enable-background:accumulate;stop-color:#000000;stop-opacity:1;fill:#f26240"
       id="path874" />
  </g>
  <g
     style="opacity:1"
     id="g864">
    <path
       d="m 1758,1361 c 16.6223,84.2905 -20.3492,172.8981 -64.25,244.5 -14.4378,44.5298 -111.5383,93.7995 -62.0938,12.0312 C 1657.2486,1549.9102 1734.991,1390.7021 1600,1402 c -49.5568,-18.0957 -146.2345,36.8267 -175.3125,-2.5 82.7497,-69.9115 205.0067,-76.3649 307.3125,-53.5 l 16,6.75 z"
       style="color:#000000;font-style:normal;font-variant:normal;font-weight:normal;font-stretch:normal;font-size:medium;line-height:normal;font-family:sans-serif;font-variant-ligatures:normal;font-variant-position:normal;font-variant-caps:normal;font-variant-numeric:normal;font-variant-alternates:normal;font-variant-east-asian:normal;font-feature-settings:normal;font-variation-settings:normal;text-indent:0;text-align:start;text-decoration:none;text-decoration-line:none;text-decoration-style:solid;text-decoration-color:#000000;letter-spacing:normal;word-spacing:normal;text-transform:none;writing-mode:lr-tb;direction:ltr;text-orientation:mixed;dominant-baseline:auto;baseline-shift:baseline;text-anchor:start;white-space:normal;shape-padding:0;shape-margin:0;inline-size:0;clip-rule:nonzero;display:inline;overflow:visible;visibility:visible;isolation:auto;mix-blend-mode:normal;color-interpolation:sRGB;color-interpolation-filters:linearRGB;solid-color:#000000;solid-opacity:1;vector-effect:none;fill:#012e41;fill-opacity:1;fill-rule:nonzero;stroke:none;stroke-width:1;stroke-linecap:butt;stroke-linejoin:miter;stroke-miterlimit:4;stroke-dasharray:none;stroke-dashoffset:0;stroke-opacity:1;color-rendering:auto;image-rendering:auto;shape-rendering:auto;text-rendering:auto;enable-background:accumulate;stop-color:#000000;stop-opacity:1"
       id="path866" />
    <path
       d="m 1623.9961,1333.75 c -69.7744,3.972 -160.806,14.6267 -200.4649,74.4258 41.2612,14.535 96.1315,-10.4505 141.4922,-5.6758 81.8622,-23.5249 149.3882,37.4931 99.9981,117.8535 3.1681,43.303 -72.7244,124.076 -32.8574,146.3692 88.8469,-61.4201 126.2027,-176.5977 132.4845,-280.3665 -0.2461,-63.4952 -101.0783,-45.796 -140.6525,-52.6062 z m 0.01,1 c 81.1046,-13.6726 178.414,25.2634 131.0385,122.1128 -19.3519,78.2765 -52.1712,163.835 -123.2065,208.9145 -31.9605,-47.8165 62.1368,-147.9203 47.7196,-219.6306 -22.8947,-78.499 -138.8242,-34.2743 -199.5965,-37.6467 -42.7135,18.8427 -84.0232,-9.635 -21.0617,-34.1778 51.0343,-25.9577 107.9369,-39.1708 165.1066,-39.5722 z"
       style="color:#000000;font-style:normal;font-variant:normal;font-weight:normal;font-stretch:normal;font-size:medium;line-height:normal;font-family:sans-serif;font-variant-ligatures:normal;font-variant-position:normal;font-variant-caps:normal;font-variant-numeric:normal;font-variant-alternates:normal;font-variant-east-asian:normal;font-feature-settings:normal;font-variation-settings:normal;text-indent:0;text-align:start;text-decoration:none;text-decoration-line:none;text-decoration-style:solid;text-decoration-color:#000000;letter-spacing:normal;word-spacing:normal;text-transform:none;writing-mode:lr-tb;direction:ltr;text-orientation:mixed;dominant-baseline:auto;baseline-shift:baseline;text-anchor:start;white-space:normal;shape-padding:0;shape-margin:0;inline-size:0;clip-rule:nonzero;display:inline;overflow:visible;visibility:visible;isolation:auto;mix-blend-mode:normal;color-interpolation:sRGB;color-interpolation-filters:linearRGB;solid-color:#000000;solid-opacity:1;vector-effect:none;fill-opacity:1;fill-rule:nonzero;stroke:none;stroke-width:1;stroke-linecap:butt;stroke-linejoin:miter;stroke-miterlimit:4;stroke-dasharray:none;stroke-dashoffset:0;stroke-opacity:1;color-rendering:auto;image-rendering:auto;shape-rendering:auto;text-rendering:auto;enable-background:accumulate;stop-color:#000000;stop-opacity:1"
       id="path868" />
  </g>
  <g
     style="opacity:1"
     id="g858">
    <path
       d="m 1551,1476 c 89.1891,0.7012 -24.6035,102.4411 -61.375,122.25 -295.7304,214.9698 -708.17733,254.9184 -1038.67187,97.3984 C 296.68693,1619.6252 151.74819,1518.8354 39,1388 c -27.53127,-81.8927 91.91409,12.1128 123.35547,27.4336 C 398.93535,1562.1083 675.5182,1655.0294 956.3125,1637.625 1163.3253,1627.4167 1364.5488,1564.0125 1551,1476 Z"
       style="color:#000000;font-style:normal;font-variant:normal;font-weight:normal;font-stretch:normal;font-size:medium;line-height:normal;font-family:sans-serif;font-variant-ligatures:normal;font-variant-position:normal;font-variant-caps:normal;font-variant-numeric:normal;font-variant-alternates:normal;font-variant-east-asian:normal;font-feature-settings:normal;font-variation-settings:normal;text-indent:0;text-align:start;text-decoration:none;text-decoration-line:none;text-decoration-style:solid;text-decoration-color:#000000;letter-spacing:normal;word-spacing:normal;text-transform:none;writing-mode:lr-tb;direction:ltr;text-orientation:mixed;dominant-baseline:auto;baseline-shift:baseline;text-anchor:start;white-space:normal;shape-padding:0;shape-margin:0;inline-size:0;clip-rule:nonzero;display:inline;overflow:visible;visibility:visible;isolation:auto;mix-blend-mode:normal;color-interpolation:sRGB;color-interpolation-filters:linearRGB;solid-color:#000000;solid-opacity:1;vector-effect:none;fill:#012e41;fill-opacity:1;fill-rule:nonzero;stroke:none;stroke-width:1;stroke-linecap:butt;stroke-linejoin:miter;stroke-miterlimit:4;stroke-dasharray:none;stroke-dashoffset:0;stroke-opacity:1;color-rendering:auto;image-rendering:auto;shape-rendering:auto;text-rendering:auto;enable-background:accumulate;stop-color:#000000;stop-opacity:1"
       id="path860" />
    <path
       d="m 49.539062,1350.002 c -56.9774853,40.3483 72.854578,110.8307 100.168638,149.8781 215.51982,185.3805 495.40679,310.0505 783.91236,291.0879 230.53764,-13.2903 464.02114,-95.9335 632.12174,-257.9088 62.8938,-67.7202 -36.7166,-70.383 -77.484,-29.1725 -293.2254,131.6463 -632.31532,179.8854 -943.62051,84.7422 C 366.01078,1540.1456 208.39172,1440.3431 49.539062,1350.002 Z m -0.07812,0.996 c 172.918722,99.8524 346.952452,206.8899 544.237962,251.8946 321.22021,84.1743 663.379,16.4078 957.4866,-126.4278 90.5246,5.7653 -35.9063,108.5733 -74.3037,130.0746 -301.4523,212.6148 -719.32021,245.0097 -1048.65524,77.5153 C 283.21712,1608.6254 146.22623,1512.3723 39.373047,1387.668 21.794175,1376.575 26.87276,1347.9777 49.460938,1350.998 Z"
       style="color:#000000;font-style:normal;font-variant:normal;font-weight:normal;font-stretch:normal;font-size:medium;line-height:normal;font-family:sans-serif;font-variant-ligatures:normal;font-variant-position:normal;font-variant-caps:normal;font-variant-numeric:normal;font-variant-alternates:normal;font-variant-east-asian:normal;font-feature-settings:normal;font-variation-settings:normal;text-indent:0;text-align:start;text-decoration:none;text-decoration-line:none;text-decoration-style:solid;text-decoration-color:#000000;letter-spacing:normal;word-spacing:normal;text-transform:none;writing-mode:lr-tb;direction:ltr;text-orientation:mixed;dominant-baseline:auto;baseline-shift:baseline;text-anchor:start;white-space:normal;shape-padding:0;shape-margin:0;inline-size:0;clip-rule:nonzero;display:inline;overflow:visible;visibility:visible;isolation:auto;mix-blend-mode:normal;color-interpolation:sRGB;color-interpolation-filters:linearRGB;solid-color:#000000;solid-opacity:1;vector-effect:none;fill-opacity:1;fill-rule:nonzero;stroke:none;stroke-width:1;stroke-linecap:butt;stroke-linejoin:miter;stroke-miterlimit:4;stroke-dasharray:none;stroke-dashoffset:0;stroke-opacity:1;color-rendering:auto;image-rendering:auto;shape-rendering:auto;text-rendering:auto;enable-background:accumulate;stop-color:#000000;stop-opacity:1"
       id="path862" />
  </g>
</svg>
