<svg xmlns="http://www.w3.org/2000/svg" width="292.571" height="267.95" viewBox="0 0 292.571 267.95">
    <g>
        <path fill="#f26240" d="M327.186 395.053c-5.868 1.046-11.189.6-17.07-.422-.631-.11-1.336-.238-2.079-.363.012-.039-.01-.071-.083-.091-19.742-5.123-39.159-11.922-58.4-18.64-18.835-6.576-37.641-13.119-54.733-23.53a224.323 224.323 0 0 1-21.174-14.368c-6.125-4.766-12.392-10.224-16.12-17.146-.22-.408-1.851.229-1.725.462 6.151 11.421 18.5 19.44 29.042 26.366 8.1 5.322 16.367 10.5 25.255 14.406 20.606 9.063 42.21 16.1 63.589 23.083 9.6 3.134 19.234 6.3 28.982 8.981-2.244.07-4.347.617-5.711 2.21a16.554 16.554 0 0 1-4.585 3.539c-.635.338-1.283.677-1.938 1.011s-1.324.634-1.97.934a51.08 51.08 0 0 1-12.182 3.722c-3.323.454-7.293.839-11.023 1.146a123.972 123.972 0 0 1-15.216-.625 92.435 92.435 0 0 1-19.894-3.794 108.791 108.791 0 0 0-11.323-3.338c-13.645-7.349-27.763-14.188-40.23-23.48-11.411-8.506-18.931-20.153-25.5-32.589a207.545 207.545 0 0 1-15.5-38.594c-2.94-10.052-5.663-20.958-5.077-31.517.047-.848-1.7-.562-1.742.157-.578 10.427 2.049 21.08 4.865 31.03a209.51 209.51 0 0 0 15.456 38.855c6.339 12.294 13.769 23.841 24.714 32.5 11.8 9.328 25.562 16.036 38.828 23.07-.226-.014-.453-.03-.679-.038-4.168-.144-6.994 3.037-9.6 5.832a12.609 12.609 0 0 1-7.866 4.37c-4.585.6-9.681-.219-14.236-.782-18.256-2.26-34.759-10.272-52.567-14.266a107.945 107.945 0 0 0-37.883-1.724c-2.406.314-4.905.676-7.45 1l-1.605.1s-1.91.26-4.562.551c-5.583.438-11.19.36-16.328-1.146A9.9 9.9 0 0 1 59.68 391c-.824-.8-1.658-1.679-2.407-2.5a5.044 5.044 0 0 1-.451-1.969c-.008-.244-.287-.331-.617-.305 6.095-20.31 12.052-40.826 19.355-60.767L93.807 283.9a227.261 227.261 0 0 1 14.682-24 1.049 1.049 0 0 0 .061-.106c3.176.513 6.355 1.005 9.544 1.428 1.208.161 3.857.9 5.317.3a.8.8 0 0 0 .4.138 31.727 31.727 0 0 0 10.518-.523h.032l1.981-.33c.8 7.892 4.483 15.172 6.359 22.831 1.158 4.725 5.247 9.43 8.026 13.288 3.923 5.447 8.213 10.681 12.636 15.724a45.268 45.268 0 0 0 9.6 8.5c7.628 4.922 16.013 8.741 24.262 12.48 10.835 4.912 21.847 9.432 32.9 13.821q21.824 8.663 43.957 16.534 12.007 4.272 24.3 7.527l3.5 1.177 7.007 1.417c4.144.971 8.3 1.9 12.455 2.818q4.713 1.041 9.428 2.078c3.551.787 7.139.909 10.661 1.646a1.1 1.1 0 0 0 .468-.054 9.6 9.6 0 0 1 1.278.521c-.4.174-.677.45-.415.655 9.808 7.65-10.63 12.401-15.578 13.283zM173.56 319.618c6.177 4.458 13.149 7.831 20.143 11.011-6.62-3.393-14.417-7.572-20.143-11.011zM54.7 385.525q.647-2.159 1.286-4.323l-1.411 4.171s.041.055.125.152zm265.846 11.36a8.407 8.407 0 0 0 2.414-.253c-1.1.089-2.181.12-3.256.107.344.061.632.112.839.146zm-214.99-5.464q-1.191-.025-2.387-.021c.611.021 1.412.035 2.384.022zm105.671 8.024a13.573 13.573 0 0 0-3.879 2.92 17.394 17.394 0 0 1 7.327-3.329 6.569 6.569 0 0 0-3.451.41zM133.63 248.776a29.707 29.707 0 0 0-3.028.712zm-9.224-.69a11.868 11.868 0 0 1 .715 1.867c2.823-.656 5.544-1.7 8.4-2.245a12.51 12.51 0 0 1 2.775-.314c.087-3.586.5-7.456 2.045-10.725a14.711 14.711 0 0 1 1.185-2.542l-5.625-.7a5.562 5.562 0 0 0-1.629.581l-.208.154c-1.827 1.558-3.7 3.064-5.631 4.485-3.292 2.421-6.93 5.017-10.993 5.918a6.586 6.586 0 0 1-3.366-.144 5.944 5.944 0 0 1-.333.941 57.763 57.763 0 0 0 11.057 2.727c.377-.372 1.358-.518 1.609-.003zm-6.356-24.608l.61-.482c-.2-.094-.227-.263.189-.507 2.613-1.53 2.68-4.11 3.531-6.7a8.294 8.294 0 0 1 1.126-2.258c-.441.157-.885.3-1.333.436-5.978 1.76-10.476 5.774-7.865 12.067q1.88-1.264 3.742-2.556zm-5.52-4.437a1.808 1.808 0 0 0-.291.988 8.246 8.246 0 0 1 .678-1.431 5.193 5.193 0 0 0-.387.443z" transform="translate(-54.461 -92.693) translate(-.045 -48.886)"/>
        <path fill="#012e41" d="M113.706 121.394a2.678 2.678 0 0 0 .285-.241.445.445 0 0 0-.207-.773 1.29 1.29 0 0 0-1.22.327 3.4 3.4 0 0 0-.324.236.818.818 0 0 0-.23.461c-.11.773 1.405.596 1.696-.01zm-.052.036c-.06.061-.1.069 0 0zm-12.562 1.563c-.017-.71 1.722-1.016 1.742-.155a1.718 1.718 0 0 0 1.423 1.673c.326.061.719.267.51.664a1.17 1.17 0 0 1-1.128.512 2.758 2.758 0 0 1-2.547-2.695zm11.52-7.786c-.109-.407.323-.8.693-.868a6.073 6.073 0 0 1 3.637.42c1.009.475-.208 1.589-.98 1.227a3.971 3.971 0 0 0-2.318-.375c-.367.064-.91.049-1.031-.405zm231.706 216.96a1.328 1.328 0 0 0-1.181.043c-.4.174-.677.45-.415.655 9.805 7.668-10.633 12.42-15.581 13.3-5.868 1.046-11.189.6-17.07-.422-.631-.11-1.336-.238-2.079-.363.012-.039-.01-.071-.083-.09-19.742-5.123-39.159-11.922-58.4-18.64-18.835-6.576-37.641-13.119-54.733-23.53a224.317 224.317 0 0 1-21.176-14.367c-6.125-4.766-12.392-10.224-16.12-17.146-.22-.408-1.851.229-1.725.462 6.151 11.421 18.5 19.44 29.042 26.366 8.1 5.322 16.367 10.5 25.255 14.406 20.606 9.063 42.21 16.1 63.589 23.084 9.6 3.134 19.234 6.3 28.982 8.981-2.244.07-4.347.617-5.711 2.21a16.554 16.554 0 0 1-4.585 3.539c-.635.338-1.283.677-1.938 1.011s-1.324.634-1.97.934a51.075 51.075 0 0 1-12.182 3.722c-.344.064-.688.131-1.032.19a71.02 71.02 0 0 1-9.991.956 123.991 123.991 0 0 1-15.214-.626 92.443 92.443 0 0 1-19.894-3.794 108.78 108.78 0 0 0-11.323-3.337c-13.645-7.349-27.763-14.188-40.23-23.48-11.411-8.506-18.931-20.153-25.5-32.589a207.545 207.545 0 0 1-15.5-38.594c-2.94-10.052-5.663-20.958-5.077-31.517.047-.848-1.7-.562-1.742.157-.578 10.427 2.049 21.08 4.865 31.03a209.51 209.51 0 0 0 15.446 38.855c6.339 12.294 13.769 23.841 24.714 32.5 11.8 9.328 25.562 16.036 38.828 23.07-.226-.014-.453-.03-.679-.037-4.168-.144-6.994 3.037-9.6 5.832a12.609 12.609 0 0 1-7.866 4.37c-4.585.6-9.681-.218-14.236-.782-18.256-2.26-34.759-10.272-52.567-14.266a107.944 107.944 0 0 0-37.883-1.724c-2.406.314-4.905.676-7.45 1-2.036.259-4.1.489-6.168.651-5.583.438-11.19.36-16.328-1.146a9.892 9.892 0 0 1-2.187-.922 5.706 5.706 0 0 1-2.407-2.5 5.043 5.043 0 0 1-.451-1.969c-.008-.244-.287-.331-.617-.306 6.091-20.306 12.051-40.82 19.355-60.763a327.944 327.944 0 0 1 18.247-41.562 227.258 227.258 0 0 1 14.682-24 1.047 1.047 0 0 0 .061-.106c3.176.513 6.355 1.005 9.544 1.428 1.208.161 3.857.9 5.317.3a.8.8 0 0 0 .4.138 31.727 31.727 0 0 0 10.518-.523 16.7 16.7 0 0 0 1.982-.618c.009.095.02.189.03.283.8 7.892 4.483 15.172 6.359 22.831 1.158 4.725 5.247 9.43 8.026 13.288 3.923 5.447 8.213 10.681 12.636 15.724a45.269 45.269 0 0 0 9.6 8.5c7.628 4.922 16.013 8.741 24.262 12.48 10.835 4.912 21.847 9.432 32.9 13.821q21.824 8.663 43.957 16.534 12.007 4.272 24.3 7.527 1.765.466 3.537.912c2.318.582 4.643 1.137 6.97 1.682 4.144.971 8.3 1.9 12.455 2.818q4.713 1.041 9.428 2.078c3.551.787 7.139.909 10.661 1.646a1.1 1.1 0 0 0 .468-.054c.6-.169 1.33-.632.616-.782-2.172-.454-4.38-.36-6.564-.728-2.067-.349-4.122-.924-6.17-1.377-4.584-1.013-9.171-2.013-13.751-3.043-9.243-2.08-18.453-4.325-27.526-7.064-8.622-2.6-17.085-5.8-25.535-8.906-21.684-7.975-43.291-16.313-64.352-25.825l-4.919-2.222c-6.994-3.18-13.966-6.553-20.143-11.011a53.208 53.208 0 0 1-8.581-7.621 171.7 171.7 0 0 1-17.52-22.916c-2.293-3.648-3.142-7.024-4.407-11.1-1.886-6.086-4.524-11.845-5.049-18.273a5.954 5.954 0 0 0 3.181-6.507 2.593 2.593 0 0 0-.667-3.346.711.711 0 0 0-.513-.158 1.319 1.319 0 0 0-.13-1.14c-.36-.522-1.171-.508-1.866-.4.045-4.525.431-10 3.312-13.7.071.007.142.012.212.015-.2.081-.351.183-.381.3-1.8 7.141.337 13.852 3.934 20.06 3.018 5.211 8.591 7.458 14.295 8.339 10.721 1.657 22.65-.818 28.43-10.844a10.829 10.829 0 0 0-1.525-13.506c-2.017-2.137-4.561-3.676-6.716-5.653-2.483-2.278-3.232-5.68-3.673-8.867a39.652 39.652 0 0 0-1.555-8.152c-1.135-3.159-3.781-5.259-6.162-7.462-2.787-2.58-5.359-5.483-6.2-9.278-.8-3.628.511-7.2-1.018-10.672a.223.223 0 0 0 .066-.2c-2.855-10.56-18.669-17.832-25.237-6.476-.055.1.086.146.306.155l-.152.166c-1.518 1.694-3.675 5.319-5.929 2.82-.179-.2-.888-.021-1.317.2a1.135 1.135 0 0 0-.613.239c-1.417 1.289-.586 4.082-.523 5.731.094 2.477-3.184 5.514-1.167 8.007 1.608 1.988 3.539 1.726 5.816 2.393 3.394.993-1.7 6.877-2.983 7.75a.951.951 0 0 0-.249.232c-3.035 1.184-6.008 2.506-9.082 3.611a17.428 17.428 0 0 0-2.577 1.165 74.341 74.341 0 0 1-16.489-15.463.6.6 0 0 0-.525-.123 60.4 60.4 0 0 0-6.912-12.387.96.96 0 0 0 .511-.362c.616-.983 1.158-2.006 1.822-2.96 1.316-1.89 3.616-1.229 5.332-.346a7.637 7.637 0 0 0 4.876.853c3.458-.484 5.529-3.884 7.5-6.43 1.518.214 3.185.619 4.495-.24 1.751-1.148-.506-4.062.364-5.678.092-.172.054-.286-.06-.353 1.313-3.278 3.914-6.068 4.424-9.547a18.032 18.032 0 0 0 10.8-4.1c.082 0 .165-.005.247-.013 1-.08 1.3-1.436.132-1.342a16.059 16.059 0 0 1-10.428-3.4 9.152 9.152 0 0 0 3.8-2.556c.112-.121.107-.211-.068-.252a26.642 26.642 0 0 0-5.307-.553 20.61 20.61 0 0 1-7.63-2.26c-2.948-1.323-5.6-3.087-8.488-4.511-3.62-1.786-7.1-.965-9.391 2.089-4.832-1.508-8.564 2.194-10.538 6.3-3.769 7.834-.673 15.865 3.034 23.063q-1.637 1.529-3.139 3.193a1.449 1.449 0 0 0-.974.257.3.3 0 0 0-.054-.027 1.752 1.752 0 0 0-1.212.2 15.648 15.648 0 0 0-5.835 5.164.341.341 0 0 0-.047.089c-.28.14-.468.294-.375.367l.126.1c-.513-.063-1.186.222-1.177.68a5.355 5.355 0 0 0 .369 1.975 6.346 6.346 0 0 0-5.03.634c-.226.148-.32.292-.329.423-1.208.12-2.662.621-2.491 1.842-.232 0-.466.012-.7.027a.948.948 0 0 0-.874.654c-.373.124-.694.363-.661.656a2.3 2.3 0 0 0 1.2 1.6.54.54 0 0 0-.143.132 14.007 14.007 0 0 0-1.741 5.339 80.2 80.2 0 0 0-1.154 10.331c-.514 8.311.181 16.609.6 24.907a269.954 269.954 0 0 1-.173 30.058c-.487 7.876-1.4 16.611-4.736 23.87a.226.226 0 0 0-.02.079c-.067.063-.039.1.048.121a1.572 1.572 0 0 0 1.7-.417l.023-.054c1.509-1.3 3-2.635 4.41-4.04.04 20.269.578 40.533.59 60.8 0 .118.19.167.442.161-4.08 12.623-7.708 25.416-11.465 38.114q-.64 2.163-1.286 4.323l-.16.535c-.141.47.194.708.6.744a.44.44 0 0 0-.04.187c.249 7.8 13.365 7.221 18.5 7.1 7.982-.189 15.841-1.889 23.764-2.485q.947-.072 1.9-.118c.514-.026 1.03-.048 1.544-.063.791-.022 1.578-.021 2.365-.024s1.593 0 2.387.021c16.509.339 32.1 4.731 47.688 10.222a143.01 143.01 0 0 0 26.026 6.493c6.526.991 14.592 2.51 20.962.122 3.027-1.135 4.937-3.692 7.116-5.892a13.564 13.564 0 0 1 3.879-2.92 6.564 6.564 0 0 1 3.447-.409 21.631 21.631 0 0 1 2.915.562l.262.14a.88.88 0 0 0 .531.059c.243.061.481.122.709.176 3.151.753 6.245 1.754 9.331 2.737a108.094 108.094 0 0 0 41.842 4.342 58.051 58.051 0 0 0 21.49-6.037 22.129 22.129 0 0 0 6.367-4.388c2.372-2.6 6.775-1.639 9.95-1.165a86 86 0 0 0 11.633 1.276c1.075.014 2.159-.017 3.256-.107.413-.034.827-.073 1.243-.124a63.192 63.192 0 0 0 13.726-3.283c5.361-1.941 13.405-6.731 6.434-12.184zM73.855 225.459c-.737.114-1.292.193-1.6.236l.125-.227c.492.003.983.002 1.475-.009zm23.472-17.041a87.282 87.282 0 0 0 9.561 2.221q-4.168 5.935-7.938 12.175c-.269-4.106-.915-12.6-1.727-13.965.033-.144.071-.286.104-.431zm3.244-16.046a49.161 49.161 0 0 0-.052-8.591 45.666 45.666 0 0 0 6.459 8.407 14.941 14.941 0 0 0 3.43 2.666 3.737 3.737 0 0 1-.235 1.108c-3.099-1.04-6.706-1.932-9.602-3.59zm11.645-14.643c.071.109.233.141.431.127.054.123.106.246.165.37.36.755 1.966.313 1.748-.391 6.645-4.451 13.138-9.127 19.541-13.919 2.966-2.22 7.349-.692 9.375 1.99 1.586 2.1 1.075 4.687-.012 6.878a1.127 1.127 0 0 0-.621.326 47.426 47.426 0 0 1-5.731 5.987q-2.595 2.5-5.316 4.865a9.007 9.007 0 0 0-1.224.694c-.323.218-.378.426-.286.592-1.184 1-2.379 1.983-3.6 2.937-3.293 2.575-7.042 5.442-11.152 6.529a4.98 4.98 0 0 1-3.463-.428.663.663 0 0 0-.469-.241c-2.444-1.362-4.58-4.132-5.965-5.937a73.126 73.126 0 0 1-7.885-13.419c3.786.419 7.294-1.258 10.117-3.837 1.431 2.306 2.869 4.604 4.347 6.877zm9.913-12.642c.447-.132.891-.279 1.333-.436a8.277 8.277 0 0 0-1.126 2.258c-.852 2.585-.918 5.165-3.531 6.7-.416.244-.393.413-.189.507a.494.494 0 0 0 .051.022l-.662.46q-1.862 1.292-3.741 2.561c-2.611-6.299 1.887-10.312 7.865-12.072zm16.954-4.561a.753.753 0 0 0 .7.163c.36.1.722.205 1.088.34a1.034 1.034 0 0 0 .775-.075c3.032 1.317 5.385 3.289 6.215 6.885.781 3.386-1.873 6.978-2.2 10.361a30.5 30.5 0 0 0 .119 3.45c.064 3.482-4.49 2.677-6.638 2.131a13.682 13.682 0 0 0-4.818-.529q1.91-1.709 3.764-3.472a66.194 66.194 0 0 0 5.473-5.494 1.189 1.189 0 0 0 .732-.325c1.95-2.976 2.822-6.455.229-9.337-1.889-2.1-5-2.616-7.668-2.252-3.554.484-6.239 3.166-9.01 5.2q-2.655 1.947-5.337 3.854a9.1 9.1 0 0 0 .835-2c.665-2.262.986-4.293 2.616-5.772 4.293-1.834 8.442-4.054 13.125-3.128zm-40.325 20.19a.281.281 0 0 0-.089.189c.014 3.386.492 6.976.308 10.4-3.386-2.686-4.459-7.971-5.471-11.952-1.331-5.237-2.524-10.508-3.848-15.747-.508-2.01-.938-4.328-1.59-6.521.794 1.525 1.4 3.213 2.035 4.627 2.743 6.157 5.315 12.855 8.655 19.004zm39.529 20.017a3.668 3.668 0 0 1-.809 1.57 7.743 7.743 0 0 1-3.319 2.772c-.255.093-.7.461-.442.763.276.318.825.176 1.153.057a9.634 9.634 0 0 0 4.414-3.758c1.729 2.4-2.171 4.433-4.132 5.322-1.089.494-.1 1.184.71.816a18.135 18.135 0 0 0 3.627-2.135c-.337 6.093-10.376 6.109-14.9 5.584a.512.512 0 0 0 .075-.166c.722-3.171 1.289-6.37.662-9.477 1.761-.415 3.486-.987 5.228-1.479a29.587 29.587 0 0 1 3.028-.712c.444-.076.89-.139 1.34-.182 2.438-.234.445 1.008-.456 1.552a10.7 10.7 0 0 1-3.266 1.34c-1.072.225-.78 1.236.272 1.016.876-.183 5.2-1.72 6.3-3.276.303-.063.563-.04.515.393zm.007-12.951c-1.549 3.268-1.958 7.138-2.045 10.725a12.522 12.522 0 0 0-2.775.314c-2.853.544-5.574 1.589-8.4 2.245a11.792 11.792 0 0 0-.715-1.867c-.251-.514-1.232-.369-1.611 0a57.76 57.76 0 0 1-11.057-2.727 5.923 5.923 0 0 0 .333-.941 6.586 6.586 0 0 0 3.366.144c4.063-.9 7.7-3.5 10.993-5.918 1.933-1.421 3.8-2.927 5.631-4.485l.117-.1.091-.055a5.59 5.59 0 0 1 1.629-.581c1.958-.372 3.932.306 5.947.769a13.533 13.533 0 0 0-1.505 2.477zm-4.507-35.742a5.816 5.816 0 0 0-2.447-.674c-2.88-.441-4.433-2.027-3.365-5.062a14.275 14.275 0 0 0 1.287-3.949c.064-1.277-.769-3.519-.068-4.739 1.414.871 3.085.491 4.578-.5a15.026 15.026 0 0 0 2.807-2.75c.765-.875 2.1-2.968 3.33-3.2a2.01 2.01 0 0 0 .693-.294l.211.07c-.161 1.184-.352 2.481-.5 3.825a3.223 3.223 0 0 0-1.376-.27 1.584 1.584 0 0 0-1.145.448c-.256.316.217.424.444.42a2.1 2.1 0 0 1 1.82 1.335.3.3 0 0 0 .074.1c-.266 4.109.183 8.3 3.32 10.706-.192.162-.1.332.187.35a1.969 1.969 0 0 0 .651-.08 1.547 1.547 0 0 0 .637-.26c.036.012.071.024.085.031a1.34 1.34 0 0 1 .563.677 4.039 4.039 0 0 1 .213 2.184c-.015.107-.04.215-.063.323-.125.38-.26.755-.378 1.069a2.6 2.6 0 0 1-.408.585l-.021.017a1.12 1.12 0 0 1-.112-.025 3.421 3.421 0 0 1-1.289-.872c-.344-.324-1.917.322-1.623.6a4.6 4.6 0 0 0 .58.457 7.707 7.707 0 0 0-3.53 6.544 15.93 15.93 0 0 0-6.714.607c2.105-2.291 4.096-5.828 1.558-7.672zm-17.841 14.446a10.707 10.707 0 0 0-3.074 3.226 8.267 8.267 0 0 0-.678 1.431 7.9 7.9 0 0 0-.46 2.652c-3.008-4.761-5.929-9.577-8.907-14.356v-.035a39.981 39.981 0 0 0-1.293-5.7 77.78 77.78 0 0 0 14.411 12.782zm-14.817-72.872c-.052.008-.106.013-.157.024a6.579 6.579 0 0 0-2.039.812 3.817 3.817 0 0 1 2.196-.836zM86.888 128.69a71.247 71.247 0 0 1 9.813-8.808.316.316 0 0 0-.005-.561c-1.913-1.244-3.975-3.69-1.979-5.866a4.434 4.434 0 0 1 1.271-1q.254-.106.516-.2c1.629-.452 3.014.838 3.491 2.341a4.63 4.63 0 0 1-1.018 3.926c-.3.425.349.5.923.378a.967.967 0 0 0 .629.013c4.4-1.193 11.958-3.483 13.182-8.61a16.03 16.03 0 0 0 5.891 2.125 8.04 8.04 0 0 0 1.323.259c-.4 3.886-3.53 6.878-4.725 10.58-.019.059.04.1.144.117-.23 1.275.363 2.581.447 3.892a1.361 1.361 0 0 1-.058.43.305.305 0 0 0-.007.063.389.389 0 0 0-.063 0 7.918 7.918 0 0 1-1.305-.082c-.579-.066-1.155-.17-1.736-.228a1.171 1.171 0 0 0-1.469.144 32.617 32.617 0 0 1-4.241 4.98c-3.013 2.544-5.252-.122-8.112-.769-3.836-.869-5.536 1.944-7.262 4.737-1.922-2.63-3.982-5.166-6.089-7.63a1.007 1.007 0 0 0 .439-.231zm-7.754 5.11a14.274 14.274 0 0 1 5.263-4.751.471.471 0 0 0 .1.2c6.6 7.678 12.837 16.017 15.563 25.8a107.048 107.048 0 0 0-6.356-9.25c-3.988-4.991-9.717-8.05-14.714-11.882a.509.509 0 0 0 .144-.117zm-1.405 10.6c.641.413 2.154-.466 1.33-1a20.291 20.291 0 0 0-8.691-3.351.48.48 0 0 0 .007-.3c-.255-.857 3.69.152 3.8.185a20.309 20.309 0 0 1 5.192 2.53c.641.412 2.155-.466 1.33-1a20.637 20.637 0 0 0-7.62-3.231c1.642-.624 3.92.276 5.7 1.237.247.153.493.3.732.445a.608.608 0 0 0 .161.063c.328.2.628.383.884.547.642.411 2.156-.468 1.33-1-.531-.34-1.117-.691-1.74-1.022a4.169 4.169 0 0 1-2.321-3.564.545.545 0 0 0-.017-.115c4.86 3.66 10.254 6.674 14.174 11.427a98.331 98.331 0 0 1 6.543 9.543q1.307 2.033 2.581 4.086a.44.44 0 0 0 .169.272c2.028 3.254 4.021 6.529 6.034 9.792a1.057 1.057 0 0 0-.492.223c-2.614 2.506-5.81 4.181-9.5 3.246a.666.666 0 0 0-.169-.015c-2.2-4.775-4.176-9.67-6.325-14.368a19.44 19.44 0 0 0-3.3-5.565c-1.356-1.421-3.472-2.007-5.174-2.875-2.8-1.427-4.222-4.22-6.838-5.737-1.462-.847-6.433-1.866-7.294-3.616a17.024 17.024 0 0 1 9.513 3.163zm-14.96 90.946c2.525-6.523 3.289-13.953 3.829-20.8.7-8.881.449-17.845.395-26.744-.055-8.934-1.15-17.813-.864-26.76a100.448 100.448 0 0 1 .921-10.742c.3-2.149.581-4.826 1.713-6.781 1.018.416 2.119.7 2.784.944 3.224 1.2 4.6 3.853 7.3 5.666 1.719 1.153 3.785 1.861 5.565 2.937a.108.108 0 0 0 .014.049c2.111 3.232 2.736 7.917 3.664 11.588 1.359 5.376 2.574 10.787 3.956 16.158 1.093 4.25 2.394 8.919 6.077 11.658.226.168.463.326.705.479 0 .038-.006.075-.011.113-.009.066.14.1.353.1 2.94 1.731 6.882 2.534 9.974 3.623.248.087.5.17.744.255a.711.711 0 0 0 .506.285 1.232 1.232 0 0 0 .306-.007 54.855 54.855 0 0 0 11.954 2.771.711.711 0 0 0 .185-.014 11.572 11.572 0 0 1 .534 1.5.4.4 0 0 0 .152.607c.695 3.11.125 6.307-.6 9.49a.371.371 0 0 0 .019.25 1.1 1.1 0 0 0-.42.184c.657-.591.294-.242-.506-.308-.606-.05-1.209-.124-1.813-.2-1.773-.21-3.539-.473-5.3-.735-2.927-.436-5.848-.909-8.768-1.394a71.576 71.576 0 0 1-8.609-2.084c.013-.065.028-.13.04-.2s-.35-.073-.744-.017c-2.389-.722-4.762-1.493-7.112-2.21-4.739-1.445-8.24-3.461-10.7-7.9-4.685-8.437-6.953-18.11-8.146-27.61-.492-3.912-.847-7.845-1.1-11.779-.112-1.731-1.021-6.1.048-7.644.393-.568-1.314-.342-1.584.049-1.071 1.548-.35 5.072-.264 6.777.231 4.577.686 9.15 1.257 13.7a89.144 89.144 0 0 0 2.822 13.925c1.636 5.594 3.756 11.949 7.562 16.472 3.012 3.579 8.151 4.6 12.4 5.86 1.261.373 2.52.748 3.782 1.115a26.963 26.963 0 0 1-1.141 4.2 49.566 49.566 0 0 1-4.653 7.341 17.993 17.993 0 0 1-1.692 1.452 17.046 17.046 0 0 1-4.835 2.5c-1.249.35-2.572.664-3.86.939a42.642 42.642 0 0 1-9.133.3c-.338-.02-1.966.609-1.131.659.513.03 1.029.052 1.547.07a.29.29 0 0 0-.044.058 29.273 29.273 0 0 1-3.795 5.5c-.364.105-.685.29-.685.526v.249c-1.134 1.252-2.346 2.434-3.598 3.582zM137.5 139c-.179.193-.313.426-.509.6a1.9 1.9 0 0 1-1.009.441c-.205.033-.837.025-.739-.347a.68.68 0 0 1 .4-.4l.054-.071a2.979 2.979 0 0 1 .2-.242 1.533 1.533 0 0 1 1.141-.464c.215.004.753.17.462.483zm-1.562 7.836a1.141 1.141 0 0 1-1.122.532c-.47-.014-.919-.185-1.389-.2a.545.545 0 0 1-.53-.74 1.141 1.141 0 0 1 1.122-.532c.47.014.919.185 1.389.2a.544.544 0 0 1 .529.741zm6.719 2.6A1.648 1.648 0 0 1 143.8 149h.3c.2 0 .7.074.435.384a1.648 1.648 0 0 1-1.147.439h-.3c-.202.001-.701-.073-.432-.383z" transform="translate(-54.461 -92.693)"/>
    </g>
</svg>
