<?xml version="1.0" encoding="UTF-8" standalone="no"?>
<svg
   xmlns:dc="http://purl.org/dc/elements/1.1/"
   xmlns:cc="http://creativecommons.org/ns#"
   xmlns:rdf="http://www.w3.org/1999/02/22-rdf-syntax-ns#"
   xmlns:svg="http://www.w3.org/2000/svg"
   xmlns="http://www.w3.org/2000/svg"
   xmlns:sodipodi="http://sodipodi.sourceforge.net/DTD/sodipodi-0.dtd"
   xmlns:inkscape="http://www.inkscape.org/namespaces/inkscape"
   inkscape:version="1.0beta2 (2b71d25, 2019-12-03)"
   sodipodi:docname="fs-how-matchmaking.svg"
   id="svg839"
   version="1.1"
   viewBox="0 0 512.00001 512"
   height="512"
   width="512">
  <metadata
     id="metadata845">
    <rdf:RDF>
      <cc:Work
         rdf:about="">
        <dc:format>image/svg+xml</dc:format>
        <dc:type
           rdf:resource="http://purl.org/dc/dcmitype/StillImage" />
        <dc:title></dc:title>
      </cc:Work>
    </rdf:RDF>
  </metadata>
  <defs
     id="defs843" />
  <sodipodi:namedview
     inkscape:current-layer="svg839"
     inkscape:window-maximized="1"
     inkscape:window-y="23"
     inkscape:window-x="0"
     inkscape:cy="203.95629"
     inkscape:cx="64.193545"
     inkscape:zoom="1.1057176"
     showgrid="false"
     id="namedview841"
     inkscape:window-height="1005"
     inkscape:window-width="1680"
     inkscape:pageshadow="2"
     inkscape:pageopacity="0"
     guidetolerance="10"
     gridtolerance="10"
     objecttolerance="10"
     borderopacity="1"
     inkscape:document-rotation="0"
     bordercolor="#666666"
     pagecolor="#ffffff" />
  <g
     transform="matrix(1.4175753,0,0,1.4363762,8.1398039,85.021766)"
     id="g837">
    <path
       inkscape:connector-curvature="0"
       id="path833"
       transform="translate(-50.961,-146.759)"
       d="m 346.134,320.445 a 0.571,0.571 0 0 0 0.418,0.189 l -2.3,9 a 0.439,0.439 0 0 0 -0.006,0.187 102.421,102.421 0 0 1 -3.521,12.292 c -0.951,2.519 -2.238,5.218 -4.578,6.716 -2.4,1.537 -6.086,0.669 -8.673,0.206 -1.974,-0.353 -3.936,-0.775 -5.895,-1.215 a 9.6,9.6 0 0 0 1.627,-0.634 c 3.945,-1.948 5.837,-6.722 7.271,-10.577 2.685,-7.217 4.243,-14.874 6.1,-22.33 2.157,-8.665 4.79,-17.123 7.445,-25.628 q -0.182,6.943 -0.094,13.888 c 0.052,3.877 0.189,7.762 0.592,11.62 0.212,2 0.353,4.606 1.614,6.286 z m -5.853,-71.564 -0.216,-0.062 c 0.109,0.066 0.225,0.126 0.332,0.195 z m -17.8,97.86 a 7.033,7.033 0 0 0 2.167,-1.966 c 3.629,-4.692 5.188,-10.929 6.687,-16.558 2.273,-8.536 4.181,-17.166 6.6,-25.663 1.946,-6.834 4.494,-13.537 6.315,-20.417 0,-0.078 0.005,-0.155 0.009,-0.233 a 0.427,0.427 0 0 1 0.115,-0.255 c 0.266,-1.024 0.517,-2.052 0.743,-3.084 l 0.066,-0.493 0.113,-0.359 c 0.174,-0.837 0.339,-1.676 0.482,-2.521 1.5,-8.865 1.765,-20.272 -7.011,-25.555 -6.71,-4.039 -15.112,-4.067 -22.739,-4.374 a 24.578,24.578 0 0 1 -6.015,7.083 l -0.011,0.013 -0.017,0.008 a 14.887,14.887 0 0 1 -10.62,3.289 c -0.787,-0.071 -5.453,-1.132 -7.6,-2.621 -0.5,0.087 -1.03,-0.082 -1.016,-0.61 0,-0.146 0.013,-0.3 0.022,-0.446 a 1.037,1.037 0 0 1 0.1,-1.011 c 0.212,-1.683 0.646,-3.482 0.887,-5.178 -3.48,0.823 -7.626,0.92 -11.625,1.36 l -3.862,0.587 c -3.974,0.82 -7.492,2.4 -9.62,5.981 -5.211,8.763 -3.934,19.958 -5.5,29.687 a 82.515,82.515 0 0 1 4.827,6.817 0.3,0.3 0 0 1 0,0.338 23.81,23.81 0 0 1 4.013,13.6 c -0.022,0.616 -1.86,0.892 -1.846,0.494 0.46,-12.979 -10.975,-21.059 -17.112,-31.4 a 13.23,13.23 0 0 1 -9.264,2.225 33.858,33.858 0 0 1 1.186,5.078 c 0.963,4.72 1.945,9.441 3.134,14.111 0.629,2.47 1.274,5.271 2.108,8.072 0.1,0.029 0.158,0.077 0.139,0.152 l -0.043,0.168 c 1.615,5.327 3.95,10.612 8.267,13.584 7.085,4.877 14.334,-0.824 19.32,-6.008 a 1.632,1.632 0 0 1 1.337,-0.268 c -0.6,-5.568 -1.082,-11.148 -1.261,-16.744 -0.275,-8.512 0.3,-17.029 0.794,-25.522 0.04,-0.692 1.9,-1.035 1.853,-0.2 -0.518,8.829 -1.122,17.691 -0.757,26.538 0.392,9.549 1.592,19.053 2.787,28.53 7.713,-4.114 18.772,-4.1 27.856,-3.687 a 0.551,0.551 0 0 1 -0.026,-0.218 c 1.4,-16.891 9.351,-32.546 8.917,-49.681 -0.021,-0.817 1.845,-1.109 1.869,-0.145 0.434,17.134 -7.518,32.789 -8.917,49.681 a 0.648,0.648 0 0 1 -0.251,0.438 c 1.671,0.085 3.264,0.175 4.734,0.247 1.25,0.061 0.237,1.364 -0.645,1.321 -9.42,-0.459 -24.327,-1.964 -33.362,3.5 0,0.383 -0.478,0.673 -0.952,0.764 l 0.031,0.277 -2.5,1.69 c -0.116,0.122 -0.232,0.242 -0.344,0.369 0.259,0.227 -0.131,0.706 -0.69,0.843 a 15.98,15.98 0 0 0 -2.963,7.108 0.651,0.651 0 0 1 -0.195,0.35 l 1.023,0.382 c 0.564,0.147 1.123,0.295 1.668,0.447 8.226,2.292 16.516,4.605 24.887,6.313 a 0.686,0.686 0 0 1 0.569,0.4 l 13.576,2.974 a 0.569,0.569 0 0 1 0.136,0.006 c 1.1,0.237 2.2,0.484 3.3,0.734 a 6.932,6.932 0 0 0 3.262,0.017 z m -45.97,-144.047 -0.041,0.141 a 224.326,224.326 0 0 1 42.838,5.695 l 0.04,-0.037 c 8.719,-27.222 -47.773,-33.236 -42.766,-6.125 a 0.458,0.458 0 0 1 -0.071,0.326 z m -99.278,87.329 a 0.488,0.488 0 0 1 0.293,0.464 v 8.449 h 3.022 c 1.255,0 0.862,1.307 -0.175,1.307 h -7.214 c -1.255,0 -0.862,-1.307 0.175,-1.307 h 2.331 v -8.15 a 25.947,25.947 0 0 0 -5.06,3.05 c -1.581,4.55 -3.324,9.144 -5.329,13.628 l -0.367,1.127 -0.523,0.82 a 81.955,81.955 0 0 1 -10.9,17.686 c -0.72,0.867 -1.518,1.767 -2.376,2.663 -0.116,0.122 -0.232,0.243 -0.351,0.364 l -0.094,0.1 q -0.575,0.587 -1.189,1.166 l -0.04,0.038 q -0.26,0.245 -0.526,0.487 l -0.269,0.242 -0.273,0.241 c -5.242,4.609 -12,8.133 -18.543,5.164 -7.895,-3.581 -12.667,-12.618 -16.209,-20.071 -1.489,-3.132 -2.839,-6.327 -4.094,-9.559 a 22.59,22.59 0 0 1 -2.262,6.688 c -0.331,0.724 -0.68,1.427 -1.046,2.1 a 0.98,0.98 0 0 1 -0.539,0.418 l 0.8,3.376 c 3.456,9.258 5.6,23.491 16.705,26.658 7.993,2.281 17.207,0.186 25.1,-1.64 7.389,-1.711 14.672,-3.836 22.037,-5.644 l 0.029,-0.121 c -0.369,-0.017 -0.654,-0.188 -0.575,-0.557 1.995,-9.229 3.787,-18.643 8.932,-26.743 a 58.773,58.773 0 0 0 3.172,-5.6 l 2.054,-5.042 a 24.964,24.964 0 0 0 0.89,-3.755 29.518,29.518 0 0 0 -0.982,-12.318 22.353,22.353 0 0 1 -6.604,4.271 z m 20.9,-12.063 c -2.01,-5.053 -0.757,-17.51 -6.058,-21.258 a 6.037,6.037 0 0 0 -2.812,-0.88 c 0.11,3.245 0.373,6.483 0.4,9.73 v 0.018 a 4.738,4.738 0 0 1 2.492,0.452 0.385,0.385 0 0 1 0.2,0.256 0.086,0.086 0 0 1 0,0.025 0.47,0.47 0 0 1 -0.044,0.317 18.614,18.614 0 0 1 -3.839,4.811 l -0.129,0.278 a 9.421,9.421 0 0 1 -1.389,6.1 6.276,6.276 0 0 1 -1.2,5.116 10.381,10.381 0 0 1 -0.483,0.92 33.713,33.713 0 0 1 1.738,11.015 c 2.642,-6.066 7.53,-11.206 11.688,-16.663 -0.263,0.003 -0.488,-0.059 -0.559,-0.237 z m -81.769,21.44 0.548,-0.118 0.727,-0.08 a 16.166,16.166 0 0 0 10.736,-6.792 c -1.167,-8.095 -1.65,-16.367 -2.784,-24.274 -0.131,-0.915 1.718,-1.382 1.845,-0.494 q 0.218,1.515 0.4,3.049 c 0.852,6.923 1.336,14.094 2.338,21.133 0.179,0.081 0.247,0.229 0.089,0.46 l -0.02,0.028 q 0.244,1.667 0.53,3.322 a 66.5,66.5 0 0 0 4.95,16.693 c 6.737,-10.916 19.363,-16.989 24.628,-29.175 1.739,-4.027 1.9,-9.906 4.9,-13.295 a 3.464,3.464 0 0 1 0.778,-0.669 c -0.478,-4.6 0.084,-9.17 0.136,-13.8 0,-0.184 0.2,-0.336 0.457,-0.447 a 1.7,1.7 0 0 1 0.829,-0.306 l 19.2,0.008 -0.043,-0.183 -2.519,-0.753 a 127.654,127.654 0 0 1 -12.453,-3.215 44.33,44.33 0 0 1 -4.26,-1.518 c -3.178,3.936 -11.693,2.959 -15.369,0.613 -0.872,-0.557 0.758,-1.475 1.427,-1.048 2.79,1.78 10.253,2.973 12.517,-0.279 -0.236,-0.136 -0.466,-0.278 -0.69,-0.429 a 3.265,3.265 0 0 1 -0.631,-0.566 1.458,1.458 0 0 1 -0.5,-0.875 1.2,1.2 0 0 1 -0.039,-0.211 c -0.168,-0.014 -0.335,-0.023 -0.5,-0.043 a 0.912,0.912 0 0 1 -0.165,-0.027 18.535,18.535 0 0 1 -12.34,-7.946 c -0.049,-0.074 -0.1,-0.146 -0.152,-0.22 -0.066,-0.1 -0.122,-0.21 -0.186,-0.315 -7.509,11.767 -23.166,12.453 -34.556,18.795 -0.578,0.322 -1.145,0.668 -1.7,1.025 l -1.255,0.841 c -5.3,3.731 -9.5,9.043 -10.953,15.47 -1.912,8.441 -0.022,16.977 2.944,24.939 l 1.722,0.371 a 34.739,34.739 0 0 0 9.414,0.331 z m 49,-26.317 c -0.234,0.668 -0.436,1.342 -0.625,2.02 -0.053,0.21 -0.106,0.419 -0.157,0.629 l 2.336,-5.194 c -0.071,0.011 -0.141,0.018 -0.208,0.023 a 0.873,0.873 0 0 0 -0.192,0.2 9.453,9.453 0 0 0 -1.158,2.321 z m 2.6,-25.514 c 0.458,0.215 0.924,0.41 1.365,0.584 0.059,0.024 0.12,0.043 0.18,0.067 l -2.555,-1.194 c 0.195,0.123 0.4,0.238 0.6,0.345 a 0.665,0.665 0 0 1 0.41,0.197 z"
       fill="#f26240" />
    <path
       inkscape:connector-curvature="0"
       id="path835"
       transform="translate(-22.148,-125.073)"
       d="m 146.4,193.671 c 0.616,0.648 -1.136,1.385 -1.693,0.8 -0.705,-0.742 -2.551,-1.3 -2.955,0.031 -0.234,0.769 -2.12,0.99 -1.866,0.154 0.834,-2.756 4.73,-2.856 6.514,-0.985 z m 3.133,-1.551 c 1,2.1 1.708,4.323 2.706,6.425 0.7,1.475 1.383,2.241 0.971,3.1 a 5.61,5.61 0 0 1 -1.315,1.041 c -1.041,0.7 0.52,1.128 1.182,0.683 1.26,-0.846 2.8,-1.8 2.094,-3.5 a 22.993,22.993 0 0 0 -1.264,-2.32 10.009,10.009 0 0 1 -0.455,-0.9 c -0.724,-1.666 -1.292,-3.387 -2.072,-5.029 -0.345,-0.712 -2.158,-0.149 -1.85,0.5 z m -5.624,14.374 a 1.887,1.887 0 0 0 -1.229,0.464 c -0.228,0.234 -0.132,0.262 -0.412,0.2 a 2.274,2.274 0 0 1 -0.775,-0.392 3.361,3.361 0 0 1 -1.1,-1.442 c -0.229,-0.524 -2.029,0.075 -1.845,0.494 a 3.493,3.493 0 0 0 5.825,1.069 c 0.299,-0.316 -0.273,-0.401 -0.467,-0.393 z m -4.637,-20.086 a 1.27,1.27 0 0 0 1.305,-0.35 c 0.642,-0.705 1.708,-1.249 2.441,-0.373 0.539,0.645 2.293,-0.09 1.689,-0.813 -1.543,-1.847 -4.281,-0.889 -5.674,0.641 a 0.552,0.552 0 0 0 -0.153,0.419 0.157,0.157 0 0 0 0.04,0.159 0.588,0.588 0 0 0 0.35,0.317 z m 232.958,-21.9 c -0.653,4.84 -2.017,9.619 -3.115,14.377 q -3.45,14.95 -6.936,29.893 -6.879,29.522 -13.81,59.029 c -4.524,19.351 -8.771,39.057 -15.523,57.774 -2.432,6.742 -6.659,15.106 -14.036,17.584 -7.074,2.377 -15.051,1.234 -22.164,-0.386 a 49.167,49.167 0 0 1 -5.264,-0.8 c -7.627,-1.59 -14.961,-4.274 -22.449,-6.385 -11.677,-3.292 -23.321,-6.707 -34.961,-10.132 -3.541,-1 -7.076,-2.011 -10.578,-3.11 l -3.01,-0.885 a 0.515,0.515 0 0 1 -0.306,-0.186 l -0.268,-0.087 c -7.1,-2.379 -8.117,-9.646 -7.36,-16.288 0.9,-7.877 3.24,-15.486 5.186,-23.144 a 148.734,148.734 0 0 1 -4.118,-16.5 c -0.589,-2.752 -1.139,-5.512 -1.71,-8.268 -0.287,-1.39 -0.487,-3.143 -1.4,-4.3 -0.76,-0.96 -2.971,-3.665 -4.294,-2.752 -0.925,0.639 -1.738,1.473 -2.706,2.048 a 4.281,4.281 0 0 1 -4.746,-0.218 c -0.938,3.308 -5.074,-0.246 -6.47,-1.173 -3.42,-2.269 -5.748,2.136 -6.36,5.094 -0.957,4.632 -1.863,9.275 -2.95,13.879 -1.767,7.485 -3.434,15.951 -7.758,22.476 a 19.114,19.114 0 0 1 -1.469,1.939 0.617,0.617 0 0 1 0.04,0.094 64.14,64.14 0 0 0 2.406,6.568 c 1.506,3.73 3.045,7.685 3.149,11.416 v 0.751 c -0.005,0.194 -0.013,0.388 -0.027,0.581 0,0.056 -0.008,0.113 -0.012,0.169 a 10.182,10.182 0 0 1 -1.115,3.969 l -0.011,0.022 c -0.1,0.2 -0.22,0.4 -0.339,0.592 -0.08,0.128 -0.159,0.256 -0.246,0.383 -0.04,0.06 -0.083,0.12 -0.125,0.18 a 11.672,11.672 0 0 1 -1.532,1.784 c -4.508,4.286 -11.732,5.364 -17.53,7.161 l -4.225,1.31 c -0.074,0.023 -0.134,0.04 -0.188,0.054 l -0.065,0.048 a 11.826,11.826 0 0 1 -3.357,1.342 c -5.321,1.636 -10.758,2.919 -16.168,4.219 q -14.669,3.524 -29.424,6.688 c -4.212,0.9 -9.15,2.252 -13.777,2.15 -5.743,1.28 -11.473,2.031 -17.264,0.069 -2.859,-0.969 -5.73,-4.627 -7.527,-6.9 -2.32,-2.93 -3.667,-6.672 -4.861,-10.178 C 55.02,307.559 50.737,287.92 46.32,268.466 L 32.972,209.722 Q 29.608,194.865 26.272,180 c -1.151,-5.134 -2.643,-10.316 -3.285,-15.54 -0.446,-3.629 -1.443,-8.5 -0.335,-12.1 1.306,-4.242 7.188,-6.872 10.813,-8.6 4.215,-2.005 9.285,-4.042 14.07,-3.936 11.223,-2.8 22.5,-5.379 33.859,-7.587 6.462,-1.257 12.955,-2.534 19.476,-3.447 5.693,-0.8 11.247,-2.358 16.937,-3.16 8.33,-1.174 16.361,-0.5 20.723,7.653 2.253,4.213 3.417,8.892 4.618,13.489 1.417,5.423 2.692,10.881 3.985,16.334 a 58.586,58.586 0 0 1 6.445,-1.008 c 2.12,-0.158 5.422,-0.362 6.843,1.6 0.79,1.092 0.436,2.57 -0.306,3.988 a 15.208,15.208 0 0 1 -2.3,3.224 c -0.248,0.28 -0.477,0.526 -0.668,0.723 a 13.659,13.659 0 0 1 -2.036,1.7 c 0.238,6.867 3.118,13.294 4.783,19.881 0.285,1.13 0.563,2.322 0.795,3.543 1.216,4.968 1.225,9.758 -2.06,13.874 a 12.107,12.107 0 0 1 -3.014,2.66 c 0.255,0.015 0.457,0.108 0.5,0.3 l 3.832,17.921 c 0,0.027 0.006,0.057 0.009,0.085 a 0.761,0.761 0 0 1 0.2,0.086 c 0.21,0.074 0.275,0.19 0.243,0.321 v 0.082 c 0,0.028 0.006,0.027 0.006,0.043 0,0.232 0.015,0.463 0.018,0.694 10.29,0.272 8.567,14.376 11.031,21.551 2.788,-3.958 5.009,-8.159 5.574,-13.056 a 0.48,0.48 0 0 1 0.039,-0.139 58.967,58.967 0 0 1 1.812,-9.334 c 0.684,-2.271 1.471,-4.908 3.755,-6.045 4.16,-2.071 11.168,-3.027 15.276,-0.231 a 3.138,3.138 0 0 1 0.91,0.883 6,6 0 0 1 2.613,-1.633 c 4.24,-1.636 10.8,-1.578 14.518,1.315 1.864,1.452 2.539,4.7 3.047,6.842 a 79.074,79.074 0 0 1 1.434,8 33.876,33.876 0 0 0 4.757,11.031 c 0.864,-3.655 2.138,-7.275 3.176,-10.86 q 3.561,-12.306 7.163,-24.6 4.145,-14.181 8.311,-28.357 a 0.457,0.457 0 0 1 0.1,-0.346 q 0.856,-2.915 1.709,-5.83 c -5.32,-0.228 -10.652,-0.333 -15.988,-0.353 -1.243,0 0.127,-0.941 0.746,-0.939 5.173,0.019 10.341,0.115 15.5,0.325 -1.1,-6.122 0.746,-10.693 4.25,-13.834 2.3,-9.875 3.246,-20.566 7.121,-30.014 0.105,-0.257 0.2,-0.517 0.313,-0.771 l 0.031,-0.067 a 22.428,22.428 0 0 1 2.1,-3.969 16.258,16.258 0 0 1 3.126,-3.438 c 3.307,-2.858 7.571,-4.223 12.785,-3.838 6.206,0.459 12.183,2.093 18.295,3.147 6.806,1.174 13.629,2.2 20.414,3.506 13.164,2.531 26.232,5.515 39.225,8.809 a 6.583,6.583 0 0 1 1.9,0.144 21.323,21.323 0 0 1 9.067,3.29 c 2.908,1.8 6.822,4.441 7.893,7.93 1.157,3.802 0.322,8.716 -0.198,12.558 z M 250.036,302.333 c -0.541,-4.294 -1.083,-8.593 -1.557,-12.9 -3.768,3.9 -8.364,7.758 -13.879,8.522 a 17.9,17.9 0 0 0 -0.795,1.767 c 4.081,1.487 8.1,5.567 12.515,5.979 a 17.044,17.044 0 0 1 3.716,-3.368 z m -13.886,9.013 a 29.308,29.308 0 0 0 6.576,2.476 17.64,17.64 0 0 1 2.848,-7.138 c -4.445,-0.474 -8.122,-3.881 -12.21,-5.671 -1.141,3.787 -1.036,8.187 2.787,10.333 z m 8.122,2.888 1.125,0.293 c 0.564,0.147 1.123,0.295 1.668,0.447 8.226,2.292 16.516,4.605 24.887,6.313 a 0.686,0.686 0 0 1 0.569,0.4 l 13.576,2.974 a 0.569,0.569 0 0 1 0.136,0.006 c 1.1,0.237 2.2,0.484 3.3,0.734 a 6.932,6.932 0 0 0 3.262,0.017 4.389,4.389 0 0 0 0.873,-0.361 7.034,7.034 0 0 0 2.167,-1.966 c 3.629,-4.692 5.188,-10.929 6.687,-16.558 2.273,-8.535 4.181,-17.166 6.6,-25.663 1.946,-6.834 4.494,-13.537 6.315,-20.417 0,-0.078 0.005,-0.155 0.009,-0.233 a 0.427,0.427 0 0 1 0.115,-0.255 c 0.266,-1.024 0.517,-2.052 0.743,-3.084 0.063,-0.283 0.12,-0.568 0.179,-0.852 0.174,-0.837 0.339,-1.676 0.482,-2.521 1.5,-8.865 1.765,-20.272 -7.011,-25.555 -6.71,-4.039 -15.112,-4.067 -22.739,-4.374 a 24.579,24.579 0 0 1 -6.015,7.083 l -0.028,0.021 a 14.887,14.887 0 0 1 -10.62,3.289 c -0.787,-0.071 -5.453,-1.132 -7.6,-2.621 -0.5,0.087 -1.03,-0.082 -1.016,-0.61 0,-0.146 0.013,-0.3 0.022,-0.446 a 1.037,1.037 0 0 1 0.1,-1.011 c 0.212,-1.683 0.646,-3.482 0.887,-5.178 -3.48,0.823 -7.626,0.92 -11.625,1.36 -1.314,0.145 -2.611,0.329 -3.862,0.587 -3.974,0.82 -7.492,2.4 -9.62,5.981 -5.211,8.763 -3.934,19.958 -5.5,29.687 a 82.522,82.522 0 0 1 4.827,6.817 0.3,0.3 0 0 1 0,0.338 23.81,23.81 0 0 1 4.013,13.6 c -0.022,0.616 -1.86,0.892 -1.846,0.494 0.46,-12.979 -10.975,-21.059 -17.112,-31.4 a 13.23,13.23 0 0 1 -9.264,2.225 33.861,33.861 0 0 1 1.186,5.078 c 0.963,4.72 1.945,9.441 3.134,14.111 0.629,2.47 1.274,5.271 2.108,8.072 0.1,0.029 0.158,0.077 0.139,0.152 l -0.043,0.168 c 1.615,5.327 3.95,10.612 8.267,13.584 7.085,4.877 14.334,-0.824 19.32,-6.008 a 1.633,1.633 0 0 1 1.337,-0.268 c -0.6,-5.568 -1.082,-11.148 -1.261,-16.744 -0.275,-8.512 0.3,-17.029 0.794,-25.522 0.04,-0.692 1.9,-1.035 1.853,-0.2 -0.518,8.829 -1.122,17.691 -0.757,26.538 0.392,9.55 1.592,19.053 2.787,28.53 7.713,-4.114 18.772,-4.1 27.856,-3.687 a 0.551,0.551 0 0 1 -0.026,-0.218 c 1.4,-16.891 9.351,-32.546 8.917,-49.681 -0.021,-0.817 1.845,-1.109 1.869,-0.145 0.434,17.134 -7.518,32.789 -8.917,49.681 a 0.648,0.648 0 0 1 -0.251,0.438 c 1.671,0.085 3.264,0.175 4.734,0.247 1.25,0.061 0.237,1.364 -0.645,1.321 -9.42,-0.459 -24.327,-1.964 -33.362,3.5 0,0.383 -0.478,0.673 -0.952,0.764 a 1.746,1.746 0 0 1 -0.249,0.031 15.569,15.569 0 0 0 -2.22,1.936 c -0.116,0.122 -0.232,0.242 -0.344,0.369 0.259,0.227 -0.131,0.706 -0.69,0.843 a 15.98,15.98 0 0 0 -2.963,7.108 0.652,0.652 0 0 1 -0.195,0.35 c -0.038,0.033 -0.073,0.063 -0.109,0.091 z M 250.791,213 c 3.571,3.643 10.53,0.743 13.445,5.163 2.313,3.507 -0.013,7.871 -0.384,11.73 1.01,1.429 6,3.032 6.528,3.118 7.2,1.174 12.251,-4.014 15.436,-9.874 a 0.51,0.51 0 0 1 0.173,-0.171 c -1.784,-4.726 -2.445,-9.767 -4.053,-14.549 -0.05,-0.15 0.092,-0.306 0.316,-0.434 a 1.333,1.333 0 0 1 0.731,-0.332 c 0.065,-0.008 0.122,-0.023 0.185,-0.034 a 5.759,5.759 0 0 0 2.366,-2.949 c 0.028,-0.089 0.045,-0.18 0.067,-0.271 0.01,-2.871 -2.472,-6.237 -5.755,-3.83 -0.49,0.359 -1.677,0.238 -1.443,-0.249 -3.295,-0.69 -6.543,-2.118 -7.685,-5.562 -1.085,-3.273 -0.916,-6.8 -1.594,-10.158 -0.041,-0.2 0.157,-0.389 0.436,-0.525 -6.872,-0.924 -13.782,-1.527 -20.715,-1.892 -0.145,1.15 -0.294,2.3 -0.44,3.453 a 5.819,5.819 0 0 1 3.553,1.06 c 0.794,0.562 -0.884,1.367 -1.449,0.968 a 4.164,4.164 0 0 0 -2.254,-0.825 c -0.2,1.625 -0.392,3.253 -0.545,4.883 a 4.07,4.07 0 0 1 4.284,1.917 c 0.462,0.72 -1.321,1.357 -1.7,0.761 -0.455,-0.708 -1.167,-1.592 -2.094,-1.636 a 1.419,1.419 0 0 0 -0.582,0.091 c -0.133,1.618 -0.229,3.238 -0.255,4.861 -0.078,4.701 -0.163,11.627 3.428,15.286 z m -3.022,-32.32 a 0.453,0.453 0 0 1 -0.071,0.326 l -0.041,0.141 a 224.326,224.326 0 0 1 42.838,5.695 l 0.026,0.006 c 0.005,-0.014 0.01,-0.029 0.013,-0.043 8.721,-27.22 -47.771,-33.234 -42.764,-6.124 z m -1.078,3.76 -0.494,1.685 c 0.091,-0.039 0.185,-0.071 0.277,-0.106 q 0.111,-0.795 0.218,-1.578 z m 4.7,31.078 c -1.246,3.185 -2.351,6.425 -3.6,9.61 5.043,-0.891 10.546,-0.762 15.265,-2 0.3,-3.253 -0.485,-5.925 -5.576,-6.29 a 16.3,16.3 0 0 1 -6.091,-1.319 z m 66.35,83.429 a 0.572,0.572 0 0 1 -0.418,-0.189 c -1.26,-1.68 -1.4,-4.286 -1.611,-6.29 -0.4,-3.858 -0.539,-7.743 -0.592,-11.62 q -0.095,-6.942 0.094,-13.888 c -2.656,8.506 -5.289,16.962 -7.445,25.628 -1.856,7.456 -3.415,15.113 -6.1,22.33 -1.434,3.856 -3.326,8.63 -7.271,10.577 a 9.547,9.547 0 0 1 -1.627,0.634 c 1.959,0.439 3.92,0.862 5.895,1.215 2.588,0.462 6.272,1.331 8.673,-0.206 2.34,-1.5 3.626,-4.2 4.578,-6.716 a 102.392,102.392 0 0 0 3.521,-12.292 0.42,0.42 0 0 1 0.006,-0.187 q 1.15,-4.496 2.296,-8.995 z M 336.1,226.724 c 3.96,-15.709 8.1,-31.4 11.649,-47.207 1.038,-4.623 2.6,-9.169 3.018,-13.913 0.314,-3.576 0.51,-9.2 -2.227,-12.044 -1.394,-1.45 -3.53,-2.139 -5.41,-2.695 -12.062,-3.569 -24.881,-3.658 -37,-7 a 0.919,0.919 0 0 1 -0.151,0 c -10.92,-1.062 -21.8,-5.674 -32.856,-4.9 -5.179,0.365 -6.583,3.265 -7.616,8.01 a 154.909,154.909 0 0 1 -4.09,15.252 0.6,0.6 0 0 1 -0.059,0.123 c 15.884,-2.574 37.2,6.638 30.854,24.807 a 0.371,0.371 0 0 1 0.234,0.285 34.543,34.543 0 0 1 0.131,10.711 l 0.079,0.88 -1.506,4.767 -0.5,0.513 a 15.751,15.751 0 0 1 -5.65,6.319 1.086,1.086 0 0 1 -0.37,0.137 c 1.09,4.036 1.813,8.172 3.344,12.08 6.981,0.294 14.543,0.273 21.052,3.114 a 18.4,18.4 0 0 1 2.229,1.17 c 0.109,0.066 0.225,0.126 0.332,0.195 5.588,3.585 8.072,9.713 8.069,16.6 a 62.785,62.785 0 0 1 -2.36,16.033 v 0.038 c -0.315,6.775 -0.446,13.574 -0.333,20.355 0.061,3.679 0.148,7.376 0.531,11.038 a 22.69,22.69 0 0 0 0.829,5.265 Q 327.268,261.7 336.1,226.724 Z m -109.812,26.968 c 1.419,2.065 2.96,4.055 4.518,6.056 0.628,-4.964 0.764,-9.98 1.443,-14.941 0.68,-4.979 1.7,-10.76 5.211,-14.626 a 16.021,16.021 0 0 1 8.45,-4.661 0.55,0.55 0 0 1 0.041,-0.242 c 1.333,-3.374 2.488,-6.816 3.822,-10.191 a 0.729,0.729 0 0 1 0.359,-0.345 8.269,8.269 0 0 1 -2.452,-3.094 c -2.481,-5.163 -2.694,-11.172 -2.213,-17.126 -0.543,0.061 -1.046,-0.1 -0.771,-0.574 a 4.858,4.858 0 0 1 0.929,-1.148 c 0.182,-1.8 0.414,-3.591 0.653,-5.342 a 4.072,4.072 0 0 0 -0.64,0.582 q -4.145,14.122 -8.279,28.248 -3.663,12.534 -7.3,25.075 c -1.14,3.944 -2.577,7.932 -3.384,11.963 -0.031,0.142 -0.182,0.267 -0.387,0.366 z M 62.592,148.864 c -4.012,0.731 -8.947,1.306 -12.48,3.516 -4.357,2.725 -3.9,10.419 -3.19,14.767 0.9,5.532 2.52,10.993 3.755,16.47 1.235,5.477 2.5,10.962 3.77,16.439 q 10.815,46.673 21.913,93.281 A 26.336,26.336 0 0 0 79,284.57 c 0,-0.307 -0.01,-0.615 -0.036,-0.922 a 0.5,0.5 0 0 1 0.11,-0.345 14.394,14.394 0 0 0 -0.047,-1.514 0.054,0.054 0 0 0 0,-0.01 l -0.59,-1.606 c -0.028,-0.076 -0.068,-0.166 -0.112,-0.26 a 7.96,7.96 0 0 1 -0.409,-0.929 0.49,0.49 0 0 1 -0.025,-0.207 0.433,0.433 0 0 1 -0.191,-0.208 c -0.738,-0.1 -1.476,-0.224 -2.213,-0.355 a 0.993,0.993 0 0 1 -0.594,-0.12 c -0.166,-0.059 -0.225,-0.148 -0.212,-0.25 q -0.256,-0.678 -0.5,-1.364 l -0.044,-0.129 c -2.527,-7.218 -3.813,-14.923 -2.688,-22.031 -0.277,0.015 -0.5,-0.039 -0.558,-0.2 l -0.562,-1.706 c -2.413,-7.341 -5.155,-16.347 -3.063,-23.808 0.988,-3.522 2.676,-6.47 5.808,-8.447 2.677,-1.69 5.888,-2.231 8.81,-3.332 0.452,-0.171 0.892,-0.357 1.325,-0.552 l 3.045,-1.708 a 12.794,12.794 0 0 0 5.425,-8.016 c 0.85,-3.983 0.753,-8.253 2.253,-12.083 a 16.153,16.153 0 0 1 6.3,-7.652 c 3.132,-2.123 6.865,-3.527 10.508,-5.13 -0.005,-0.156 -0.011,-0.311 -0.013,-0.468 a 22.981,22.981 0 0 1 1.849,-9.651 c 0.055,-0.124 0.109,-0.247 0.167,-0.369 l 0.059,-0.127 a 14.29,14.29 0 0 1 7.981,-7.676 15.586,15.586 0 0 1 2.585,-0.781 c 4.269,-0.9 8.538,0.194 12.809,0.842 -1.338,-4.34 -2.495,-8.743 -3.53,-13.16 -0.219,-0.936 -0.408,-2.032 -0.641,-3.167 -0.162,-0.614 -0.327,-1.227 -0.5,-1.839 -1.17,-4.118 -3.19,-6.194 -7.585,-6.385 -11.145,-0.485 -21.847,3.829 -32.854,4.9 -9.283,2.576 -19.014,3.333 -28.475,5.059 z m 89.642,26.348 a 0.481,0.481 0 0 1 0.178,-0.359 c -5.369,2.383 -12.235,2.416 -17.805,2.41 l 0.011,0.014 c 0.12,0.216 0.231,0.433 0.336,0.651 a 12.918,12.918 0 0 1 1.15,7.609 23.976,23.976 0 0 1 -5.178,11.308 1.34,1.34 0 0 1 -1.257,0.319 0.963,0.963 0 0 1 -0.806,-0.166 9.048,9.048 0 0 0 -0.873,-0.743 c -0.029,-0.022 -0.06,-0.041 -0.089,-0.062 -0.13,-0.094 -0.262,-0.186 -0.4,-0.271 -0.036,-0.023 -0.075,-0.043 -0.111,-0.065 a 5.7,5.7 0 0 0 -0.911,-0.449 l -0.1,-0.037 a 4.205,4.205 0 0 0 -0.473,-0.136 l -0.071,-0.018 a 3.374,3.374 0 0 0 -0.55,-0.071 2.935,2.935 0 0 0 -0.569,0.029 l -1.291,0.548 a 6.475,6.475 0 0 0 -2.556,3.862 5.305,5.305 0 0 0 0.951,4.835 5.011,5.011 0 0 0 2.574,1.432 l 1.8,0.206 a 15.458,15.458 0 0 0 2.26,-0.155 c 1.263,-0.169 0.783,1.111 -0.194,1.241 -0.274,0.037 -0.559,0.068 -0.848,0.094 l -3.28,5.729 -1.169,1.182 a 0.644,0.644 0 0 1 -0.044,0.112 c -0.071,0.134 -0.148,0.259 -0.22,0.39 0.322,-0.043 0.615,0 0.72,0.19 q 0.24,0.441 0.517,0.873 c 0.08,0.126 0.171,0.248 0.255,0.372 0.109,0.161 0.214,0.322 0.33,0.48 l 0.015,0.019 a 18.069,18.069 0 0 0 10.292,6.79 c 4.305,-7.657 14.441,-5.633 20.477,-11.041 a 13,13 0 0 0 2.067,-2.354 c 1.919,-3.087 2.24,-6.711 1.841,-10.335 a 42.722,42.722 0 0 0 -1.946,-7.3 0.924,0.924 0 0 1 -0.764,-0.113 c -0.606,-0.471 -1.04,-0.506 -1.559,0.079 a 1.258,1.258 0 0 1 -1.305,0.35 0.589,0.589 0 0 1 -0.358,-0.33 0.205,0.205 0 0 1 -0.024,-0.067 0.373,0.373 0 0 1 -0.008,-0.053 0.558,0.558 0 0 1 0.148,-0.452 3.439,3.439 0 0 1 3.239,-1.19 c -0.857,-2.349 -1.773,-4.687 -2.548,-6.957 l -0.008,0.01 a 1.408,1.408 0 0 1 -1.305,0.35 c -0.569,-0.175 -0.978,-0.21 -1.285,0.347 a 1.331,1.331 0 0 1 -1.21,0.533 0.706,0.706 0 0 1 -0.543,-0.275 l -0.005,-0.006 c 0,-0.005 0,-0.013 -0.007,-0.018 a 0.332,0.332 0 0 1 -0.027,-0.078 0.4,0.4 0 0 1 0.052,-0.279 3.475,3.475 0 0 1 4.081,-1.354 27.583,27.583 0 0 1 -1.596,-7.63 z m -6.3,41.823 c -3.906,1.249 -7.527,2.787 -9.465,6.486 0.036,0 0.066,-0.01 0.1,-0.011 a 0.789,0.789 0 0 1 0.677,0.195 c 0.1,0.033 0.118,0.09 0.076,0.16 a 0.66,0.66 0 0 1 -0.277,0.579 0.431,0.431 0 0 0 0.026,0.051 c 0.053,0.051 0.132,0.128 0.257,0.244 a 5.462,5.462 0 0 0 0.8,0.6 c 0.195,0.123 0.4,0.238 0.6,0.345 a 0.658,0.658 0 0 1 0.406,0.2 c 0.458,0.215 0.924,0.41 1.365,0.584 0.059,0.024 0.12,0.043 0.18,0.067 a 74.645,74.645 0 0 0 8.6,2.721 l -3.367,-11.885 a 0.516,0.516 0 0 1 0.027,-0.336 z m -10.748,67.5 0.18,-0.417 c 0.225,-0.517 0.45,-1.034 0.669,-1.553 1.468,-3.488 2.792,-7.03 4.016,-10.567 0,-0.011 0.012,-0.021 0.017,-0.032 a 0.76,0.76 0 0 1 0.3,-0.466 c 4.227,-3.583 10.963,-4.573 14.121,-9.242 l -0.008,-0.025 v -0.025 a 0.54,0.54 0 0 1 -0.01,-0.063 0.694,0.694 0 0 1 0.463,-0.662 l 0.084,-0.095 a 9.378,9.378 0 0 0 0.411,-0.85 0.817,0.817 0 0 1 0.433,-0.4 5.064,5.064 0 0 0 0.539,-2.117 c -0.127,0.1 -0.255,0.2 -0.391,0.3 -0.508,0.363 -1.438,0.176 -1.536,-0.23 a 0.018,0.018 0 0 1 0,-0.006 c -0.034,-0.155 0.05,-0.341 0.331,-0.543 a 7.245,7.245 0 0 0 2.915,-6.209 33.9,33.9 0 0 1 -3.062,2.025 c -0.724,0.425 -2.282,-0.141 -1.206,-0.774 a 28.549,28.549 0 0 0 4.4,-3.048 l 0.069,-0.061 c 0.169,-0.15 0.346,-0.29 0.507,-0.446 a 22.921,22.921 0 0 0 2.345,-2.61 2.2,2.2 0 0 0 0.417,-1.085 c -0.064,-0.13 -0.229,-0.194 -0.558,-0.145 -2.564,0.376 -5,1.758 -7.3,2.878 -3.969,1.932 -8.548,4.625 -13.135,4.188 -0.914,-0.087 -0.6,-0.769 -0.027,-1.1 -0.069,-0.143 -0.146,-0.3 -0.231,-0.457 l -0.081,-0.151 -0.029,-0.052 c -0.415,-0.746 -0.961,-1.541 -1.467,-1.694 q -0.136,0.034 -0.269,0.055 c -0.071,0.011 -0.141,0.018 -0.208,0.023 a 0.873,0.873 0 0 0 -0.192,0.2 9.421,9.421 0 0 0 -1.153,2.318 c -0.234,0.668 -0.436,1.342 -0.625,2.02 -0.053,0.21 -0.106,0.419 -0.157,0.629 -0.156,0.646 -0.314,1.293 -0.487,1.936 -0.04,0.175 -0.082,0.35 -0.121,0.526 -1.11,4.971 -3.926,9.4 -6.923,13.428 -6.075,8.157 -15.529,13.442 -20.442,22.492 0.357,0.691 0.727,1.378 1.122,2.056 0.5,0.861 -1.25,1.574 -1.685,0.827 -0.4,-0.691 -0.78,-1.392 -1.145,-2.1 a 0.418,0.418 0 0 1 -0.3,-0.573 63.488,63.488 0 0 1 -5.321,-16.494 c -0.225,-1.162 -0.427,-2.331 -0.613,-3.5 -5.122,5.75 -12.32,6.894 -19.736,6.209 0.076,0.2 0.147,0.4 0.212,0.6 0.1,0.3 0.179,0.6 0.252,0.87 0.081,0.3 0.15,0.552 0.209,0.722 a 0.5,0.5 0 0 1 0.087,0.241 c 1.137,3.113 2.313,6.213 3.621,9.26 3.256,7.583 7.181,16.1 13.625,21.552 0.2,0.167 0.4,0.341 0.6,0.5 3.225,2.513 6.925,3.9 10.974,2.6 5.732,-1.843 10.33,-6.182 13.974,-10.84 1.286,-1.644 2.493,-3.346 3.638,-5.093 0.148,-0.228 0.3,-0.454 0.446,-0.683 0.161,-0.25 0.316,-0.5 0.474,-0.755 0.274,-0.438 0.548,-0.876 0.814,-1.318 0.031,-0.052 0.061,-0.1 0.092,-0.155 a 107.863,107.863 0 0 0 6.066,-11.821 z m -58.776,-7.519 0.032,0.089 q 0.845,0.153 1.69,0.282 a 34.78,34.78 0 0 0 9.419,0.326 c 0.429,-0.053 0.853,-0.12 1.274,-0.2 a 16.166,16.166 0 0 0 10.736,-6.792 c -1.167,-8.095 -1.65,-16.367 -2.784,-24.274 -0.131,-0.915 1.718,-1.382 1.845,-0.494 q 0.218,1.515 0.4,3.049 c 0.852,6.923 1.336,14.094 2.338,21.133 0.179,0.081 0.247,0.229 0.089,0.46 l -0.02,0.028 q 0.244,1.667 0.53,3.322 a 66.5,66.5 0 0 0 4.95,16.693 c 6.737,-10.916 19.363,-16.989 24.628,-29.175 1.739,-4.027 1.9,-9.906 4.9,-13.295 a 3.464,3.464 0 0 1 0.778,-0.669 c -0.478,-4.6 0.084,-9.17 0.136,-13.8 0,-0.184 0.2,-0.336 0.457,-0.447 a 1.7,1.7 0 0 1 0.829,-0.306 l 19.2,0.008 -0.043,-0.183 c -0.014,-0.062 -0.034,-0.152 -0.048,-0.23 q -1.235,-0.258 -2.47,-0.523 a 127.654,127.654 0 0 1 -12.453,-3.215 44.33,44.33 0 0 1 -4.26,-1.518 c -3.178,3.936 -11.693,2.959 -15.369,0.613 -0.872,-0.557 0.758,-1.475 1.427,-1.048 2.79,1.78 10.253,2.973 12.517,-0.279 -0.236,-0.136 -0.466,-0.278 -0.69,-0.429 a 3.265,3.265 0 0 1 -0.631,-0.566 1.458,1.458 0 0 1 -0.5,-0.875 1.2,1.2 0 0 1 -0.039,-0.211 c -0.168,-0.014 -0.335,-0.023 -0.5,-0.043 -0.055,-0.007 -0.11,-0.019 -0.165,-0.027 a 18.535,18.535 0 0 1 -12.34,-7.946 c -0.049,-0.074 -0.1,-0.146 -0.152,-0.22 -0.066,-0.1 -0.123,-0.211 -0.186,-0.315 -7.509,11.767 -23.166,12.453 -34.556,18.795 -0.578,0.322 -1.145,0.668 -1.7,1.025 q -0.637,0.406 -1.255,0.841 c -5.3,3.731 -9.5,9.043 -10.953,15.47 -1.918,8.447 -0.027,16.983 2.939,24.946 z M 140.451,248.4 a 10.413,10.413 0 0 1 1.725,2.59 c 4.511,-0.211 9.136,-3.464 13.06,-5.227 a 29.672,29.672 0 0 1 3.78,-1.535 0.061,0.061 0 0 1 -0.018,-0.038 v -0.123 c 0,-0.015 -0.006,-0.027 -0.006,-0.043 -0.011,-1.5 -0.076,-3 -0.15,-4.494 l -0.044,-0.906 c -0.076,-1.459 -0.156,-2.918 -0.2,-4.378 a 0.435,0.435 0 0 1 -0.317,-0.168 c -0.022,-0.034 -0.037,-0.076 -0.057,-0.112 l -19.032,-0.008 c -0.1,4.493 -0.6,8.934 -0.076,13.413 a 4.223,4.223 0 0 1 1.335,1.029 z m 17.749,24.776 c 2.642,-6.066 7.53,-11.206 11.688,-16.663 -0.269,0.006 -0.494,-0.061 -0.564,-0.239 -2.01,-5.053 -0.757,-17.51 -6.058,-21.258 a 6.037,6.037 0 0 0 -2.812,-0.88 c 0.11,3.245 0.373,6.483 0.4,9.73 v 0.018 a 4.738,4.738 0 0 1 2.492,0.452 0.385,0.385 0 0 1 0.2,0.256 v 0.025 a 0.47,0.47 0 0 1 -0.044,0.317 18.614,18.614 0 0 1 -3.839,4.811 c -0.046,0.042 -0.1,0.08 -0.144,0.122 0.005,0.052 0.011,0.1 0.015,0.155 a 9.421,9.421 0 0 1 -1.389,6.1 6.276,6.276 0 0 1 -1.2,5.116 10.377,10.377 0 0 1 -0.483,0.92 33.7,33.7 0 0 1 1.738,11.018 z M 154.265,214.1 a 0.264,0.264 0 0 1 0,-0.032 41.647,41.647 0 0 1 -6.754,2.478 0.545,0.545 0 0 1 0.259,0.329 l 3.607,12.73 a 0.548,0.548 0 0 1 0.019,0.173 c 2.047,0.49 4.1,0.938 6.156,1.367 -0.05,-0.436 -0.1,-0.852 -0.165,-1.2 q -1.533,-7.927 -3.122,-15.845 z m -3.516,78.6 c -0.967,1.764 -1.892,3.539 -2.706,5.383 -0.034,0.077 -0.069,0.153 -0.1,0.23 -0.225,0.519 -0.439,1.045 -0.646,1.577 l -0.083,0.21 q -0.336,0.884 -0.631,1.8 c -1.62,5.061 -2.641,10.278 -3.762,15.465 -0.1,0.462 -0.778,0.735 -1.292,0.71 -0.369,-0.017 -0.654,-0.188 -0.575,-0.557 1.995,-9.229 3.787,-18.643 8.932,-26.743 a 58.773,58.773 0 0 0 3.172,-5.6 36.633,36.633 0 0 0 2.054,-5.042 24.964,24.964 0 0 0 0.89,-3.755 29.518,29.518 0 0 0 -0.982,-12.318 22.36,22.36 0 0 1 -6.6,4.281 0.488,0.488 0 0 1 0.293,0.464 v 8.449 h 3.022 c 1.255,0 0.862,1.307 -0.175,1.307 h -7.214 c -1.255,0 -0.862,-1.307 0.175,-1.307 h 2.331 V 269.1 a 25.947,25.947 0 0 0 -5.06,3.05 c -1.581,4.55 -3.324,9.144 -5.329,13.628 q -0.437,0.976 -0.89,1.946 a 81.954,81.954 0 0 1 -10.9,17.686 c -0.72,0.867 -1.518,1.767 -2.376,2.663 -0.117,0.122 -0.232,0.243 -0.351,0.364 l -0.094,0.1 q -0.575,0.587 -1.189,1.166 l -0.04,0.038 q -0.26,0.245 -0.526,0.487 l -0.269,0.242 -0.273,0.241 c -5.242,4.609 -12,8.133 -18.543,5.164 C 93.117,312.29 88.344,303.253 84.8,295.8 c -1.489,-3.132 -2.839,-6.327 -4.094,-9.559 a 22.589,22.589 0 0 1 -2.262,6.688 c -0.331,0.724 -0.68,1.427 -1.046,2.1 a 0.98,0.98 0 0 1 -0.539,0.418 l 0.8,3.376 c 3.456,9.258 5.6,23.491 16.705,26.658 7.993,2.281 17.207,0.186 25.1,-1.64 7.389,-1.711 14.672,-3.836 22.037,-5.644 q 0.885,-0.218 1.771,-0.427 a 0.812,0.812 0 0 1 0.69,-0.557 72.02,72.02 0 0 0 9.365,-2.645 c 2.689,-0.959 6.485,-1.726 8.7,-3.556 2.947,-2.431 3.163,-6.076 2.21,-9.451 l -0.072,-0.24 c -0.052,-0.172 -0.105,-0.342 -0.162,-0.512 q -0.066,-0.195 -0.137,-0.388 c -0.045,-0.125 -0.092,-0.249 -0.14,-0.373 -0.048,-0.124 -0.106,-0.269 -0.162,-0.4 -0.063,-0.151 -0.128,-0.3 -0.195,-0.45 -0.036,-0.08 -0.071,-0.161 -0.108,-0.24 -0.11,-0.234 -0.222,-0.464 -0.339,-0.69 -4.437,-0.568 -8.532,-3.079 -12.172,-5.568 z m 2.543,-118.264 c -0.045,0.023 -0.092,0.042 -0.138,0.064 0.046,-0.01 0.093,-0.018 0.139,-0.026 v -0.036 z m -15.905,-39.287 c -1.695,-3.415 -4.169,-6.732 -7.9,-8.081 -5.494,-1.99 -11.813,-0.557 -17.354,0.589 -11.4,2.36 -22.94,3.971 -34.357,6.29 -10.881,2.211 -21.7,4.722 -32.459,7.44 a 1.117,1.117 0 0 1 -0.783,0.467 c -10.748,1.323 -9.406,16.879 -8.4,24.514 1.279,9.728 4.123,18.974 6.573,28.437 5.088,19.656 9.279,39.564 13.839,59.348 1.317,5.716 2.848,11.376 4.118,17.1 2.179,9.816 4.211,19.691 6.633,29.451 a 205.9,205.9 0 0 0 9.781,28.369 c 2.846,6.911 6.8,13.148 15.119,12.891 0.785,-0.024 1.574,-0.076 2.364,-0.145 l 0.26,-0.064 a 1.357,1.357 0 0 1 0.66,-0.025 c 6.341,-0.666 12.81,-2.543 19.014,-3.932 10.032,-2.245 20.073,-4.508 30.011,-7.14 6.274,-1.661 10.194,-3.324 16.418,-5.253 4.813,-1.492 11.461,-2.325 14.455,-6.756 a 11.648,11.648 0 0 0 1.148,-2.145 c 2.689,-7.1 -2.27,-14.188 -4.4,-20.979 a 10.886,10.886 0 0 1 -6.607,2.836 c -0.153,0.009 -0.305,0.005 -0.457,0.009 0.063,0.138 0.122,0.281 0.182,0.422 l 0.083,0.192 c 0.1,0.241 0.2,0.488 0.289,0.738 l 0.03,0.08 c 0.08,0.218 0.153,0.441 0.225,0.664 0.029,0.092 0.06,0.182 0.088,0.275 0.043,0.139 0.081,0.281 0.12,0.422 0.059,0.214 0.118,0.428 0.168,0.645 l 0.01,0.04 c 0.754,3.176 0.6,6.6 -1.763,8.96 -2.176,2.169 -4.946,2.962 -7.774,4.01 a 87.571,87.571 0 0 1 -12.4,3.749 1.038,1.038 0 0 1 -0.666,-0.059 c -9.236,2.187 -18.315,5.038 -27.627,6.9 -7.066,1.415 -15.333,3.119 -22.459,1.086 -11.907,-3.4 -14,-17.133 -17.758,-27.188 Q 66.804,261.283 57.89,223.237 c -3.529,-15.076 -6.58,-30.331 -10.418,-45.329 -1.671,-6.525 -4.218,-14 -2.132,-20.737 1.4,-4.522 3.9,-6.152 8.3,-7.455 12.149,-3.594 25.063,-3.656 37.255,-7.067 a 1.193,1.193 0 0 1 0.368,-0.1 c 7.2,-0.7 14.181,-2.644 21.286,-3.934 a 58.341,58.341 0 0 1 9.262,-1.11 16.364,16.364 0 0 1 6.92,0.957 6.522,6.522 0 0 1 2.439,1.757 8.27,8.27 0 0 1 1.727,3.049 c 1.99,6.081 2.954,12.481 4.954,18.589 a 0.443,0.443 0 0 1 -0.041,0.366 c 0.14,0.464 0.287,0.927 0.431,1.389 l 4.657,0.129 c 0.786,-0.075 1.57,-0.179 2.352,-0.306 -1.278,-5.4 -2.521,-10.809 -3.948,-16.172 -1.081,-4.052 -2.034,-8.322 -3.915,-12.112 z M 88.354,343.218 a 12.87,12.87 0 0 1 -5.825,-2.483 C 76.79,336.283 74.597,328.279 72.216,321.761 a 224.269,224.269 0 0 1 -8.7,-28.914 c -3.162,-14.385 -6.687,-28.672 -9.911,-43.041 q -2.221,-9.9 -4.653,-19.723 c -3.425,-13.759 -5.936,-27.722 -9.879,-41.357 -2.684,-9.279 -5.058,-18.945 -5.357,-28.639 -0.2,-6.651 0.739,-14.765 6.438,-18.152 -1.509,0.5 -2.976,1.106 -4.353,1.711 a 33.555,33.555 0 0 0 -8.958,5.267 c -2.924,2.619 -2.782,5.757 -2.536,9.56 0.644,9.957 3.52,19.739 5.7,29.447 q 6.61,29.381 13.312,58.743 c 4.5,19.794 8.9,39.627 13.935,59.293 1.282,5 2.627,10 4.313,14.888 1.425,4.132 2.621,8.434 4.705,12.3 2.411,4.473 7.032,9.69 12.316,10.464 a 29.682,29.682 0 0 0 9.766,-0.39 z m 108.4,-93.275 a 7.306,7.306 0 0 0 -2.619,-3.273 c -2.108,-1.587 -5.039,-3.018 -6.267,-5.485 -1.192,-2.395 -2.978,-5.3 -3.173,-8.012 -0.331,-4.578 3.787,-5.917 7.534,-5.108 a 15.537,15.537 0 0 0 4.073,0.762 c 1.432,-0.1 1.018,-1.795 0.236,-2.327 -2.534,-1.725 -6.4,-1.945 -9.33,-1.416 -4.673,0.845 -5.9,3.788 -6.9,8.013 a 78.538,78.538 0 0 0 -1.423,7.929 0.492,0.492 0 0 1 0,0.127 c -1.852,16.039 -21.338,24.653 -20.74,41.48 0.026,0.724 -1.827,1.074 -1.859,0.18 -0.013,-0.368 0,-0.726 0,-1.086 a 50.145,50.145 0 0 1 -2.936,6.281 c -0.719,1.317 -1.449,2.61 -2.166,3.9 a 1.336,1.336 0 0 1 1.032,-0.055 c 3.276,2.248 7.015,4.731 11.03,5.433 0.443,-0.289 1.112,-0.333 1.347,0.12 l 0.019,0.038 a 8.947,8.947 0 0 0 7.283,-3.294 0.806,0.806 0 0 1 0.228,-0.264 26.958,26.958 0 0 0 4.291,-7.927 c 3.372,-8.977 5.269,-18.509 7.158,-27.885 0.548,-2.723 0.905,-5.238 3.1,-7.122 1.18,-1.011 2.606,-2.508 4.348,-2.278 2.006,0.265 3.462,1.753 5.063,2.852 0.547,0.375 0.773,0.454 0.731,0.664 a 4.231,4.231 0 0 0 -0.058,-2.247 z m 7.785,-5.753 a 16.192,16.192 0 0 0 4.978,-6.972 c 1.257,-2.879 2.776,-9.17 -2.677,-8.339 -2.025,0.309 -4.012,1.082 -6.084,0.941 a 3.266,3.266 0 0 1 -2.271,-1.354 4.9,4.9 0 0 1 -3.615,1.222 c -2.562,-0.279 -7.254,-2.586 -8.151,1.173 -0.724,3.038 1.283,6.069 2.48,8.747 1.378,3.084 4.169,4.371 6.664,6.391 a 8.327,8.327 0 0 1 2.681,3.28 4.935,4.935 0 0 1 0.336,-0.507 c 1.448,-1.904 3.813,-3.129 5.662,-4.582 z m 6.375,6.469 a 7.593,7.593 0 0 1 1.5,1.953 0.667,0.667 0 0 1 0.16,0.008 10.071,10.071 0 0 0 9.1,-1.99 24.55,24.55 0 0 1 -3.092,-9.141 c -0.214,-1.647 -0.455,-3.293 -0.771,-4.924 -0.547,-2.815 -1.041,-7.037 -3.117,-9.218 -2.253,-2.366 -6.845,-2.611 -9.869,-2.19 -0.979,0.136 -4.546,0.523 -4.638,2 -0.109,1.742 2.113,1.566 3.227,1.318 1.825,-0.406 3.821,-1.069 5.711,-0.771 6.122,0.962 2.764,8.26 1.188,11.635 a 14.055,14.055 0 0 1 -4.6,5.508 c -1.18,0.894 -6.26,3.615 -5.729,5.489 0.891,3.143 4.7,-1.332 6.28,-1.695 1.984,-0.448 3.247,0.703 4.653,2.019 z m 90.293,91.335 c 5.031,0.018 12.13,-0.25 15.316,-4.758 2.6,-3.687 4.056,-8.053 5.732,-12.209 a 127.49,127.49 0 0 0 4.265,-13.323 c 5.45,-19.36 10.387,-38.86 15.012,-58.433 4.607,-19.5 8.948,-39.053 13.318,-58.6 2.176,-9.732 4.8,-19.463 6.537,-29.282 0.81,-4.574 1.362,-9.458 0.152,-14.018 -0.908,-3.419 -3.243,-9.239 -7.441,-9.742 -0.313,-0.019 -0.622,-0.025 -0.926,-0.022 a 1.163,1.163 0 0 1 -0.524,0.054 c -0.371,0.044 -0.562,-0.026 -0.62,-0.15 -15.342,-3.876 -30.813,-7.146 -46.348,-10.1 -6.256,-1.062 -12.516,-2.1 -18.724,-3.4 -0.159,-0.033 -0.324,-0.069 -0.485,-0.1 -1.664,-0.292 -3.329,-0.587 -4.994,-0.875 -5.587,-0.965 -12.651,-2.211 -17.264,2.039 -3.155,2.907 -4.915,6.89 -6.133,10.938 -1.311,4.354 -2.3,8.785 -3.208,13.232 -0.482,2.474 -0.955,4.946 -1.495,7.392 q -0.507,2.482 -1.062,4.953 a 23.065,23.065 0 0 1 7.5,-2.952 0.514,0.514 0 0 1 -0.117,-0.118 0.239,0.239 0 0 1 -0.092,-0.3 0.053,0.053 0 0 0 0,-0.01 0.762,0.762 0 0 1 0.038,-0.213 c 0.21,-0.642 0.41,-1.288 0.611,-1.933 1.337,-4.713 2.178,-9.631 3.609,-14.295 a 17.937,17.937 0 0 1 0.986,-3.026 7.866,7.866 0 0 1 6.13,-4.9 c 5.286,-1.039 11.164,0.052 16.35,1.094 6.412,1.288 12.752,2.922 19.277,3.557 a 0.819,0.819 0 0 1 0.458,0.161 c 11.344,3.155 23.284,3.47 34.688,6.365 3.388,0.86 7.5,1.771 9.291,5.071 3.134,5.779 1.618,13.317 0.052,19.314 -3.279,12.554 -6.134,25.233 -9.286,37.822 q -12.1,48.313 -24.511,96.545 a 0.56,0.56 0 0 1 -0.077,0.166 c -1.469,6.248 -2.925,17.561 -10.079,20.03 -6.937,2.394 -15.658,-1.132 -22.428,-2.587 a 0.219,0.219 0 0 1 -0.072,-0.027 l -8.507,-1.863 -4.1,-0.9 a 1.008,1.008 0 0 1 -0.7,0.12 c -5.019,-1.024 -10.02,-2.242 -15,-3.558 l -2.163,-0.474 c -0.095,-0.021 -0.106,-0.065 -0.062,-0.12 -3.591,-0.972 -7.167,-1.989 -10.722,-3.019 -3.555,-1.03 -8.7,-1.879 -10.93,-5.148 -2.567,-3.769 -1.753,-8.441 0.162,-12.313 -4.888,-0.078 -8.844,-3.643 -11.192,-7.712 a 44.081,44.081 0 0 1 -2.792,-5.847 c -1.833,6.793 -3.89,13.655 -4.419,20.656 -0.245,3.248 -0.295,7.115 1.107,10.13 1.309,2.815 3.5,4.186 6.125,5.155 a 0.5,0.5 0 0 1 0.063,0.011 q 9.629,2.826 19.25,5.718 l 6.016,1.762 a 0.134,0.134 0 0 1 0.092,0.064 c 12.991,3.883 25.991,7.744 39.044,11.355 a 58.761,58.761 0 0 0 15.295,2.624 z m 69.367,-189.539 c -1.751,-4.235 -6.608,-7.978 -11.56,-9.756 a 14.688,14.688 0 0 1 3.8,6.221 c 1.787,5.637 1.4,11.515 0.222,17.241 -2.922,14.207 -6.351,28.33 -9.518,42.486 -6.371,28.48 -12.825,56.952 -20.324,85.16 -2.547,9.581 -4.626,19.659 -8.261,28.89 -2.411,6.121 -4.515,14.694 -10.747,18.1 -2.882,1.575 -7.093,1.967 -10.311,2.143 -0.169,0.01 -0.338,0.012 -0.508,0.019 0.359,0.053 0.715,0.11 1.075,0.154 5.859,0.722 12.77,1.138 17.508,-3.022 a 29.278,29.278 0 0 0 8.306,-12.2 247.916,247.916 0 0 0 8.409,-27.716 q 7.328,-29.657 14.254,-59.4 6.929,-29.59 13.792,-59.195 c 1.2,-5.19 2.82,-10.469 3.533,-15.747 0.532,-3.896 1.893,-9.606 0.333,-13.377 z m -117.964,52.19 a 8.328,8.328 0 0 0 2.816,0.259 c 0.894,-0.079 1.541,-1.107 0.26,-0.994 -1.6,0.142 -1.631,-0.237 -1.738,-1.518 a 21.349,21.349 0 0 1 0.052,-3.483 32.555,32.555 0 0 1 0.946,-5.123 c 0.163,-0.663 -1.693,-0.375 -1.844,0.239 a 28.774,28.774 0 0 0 -0.848,10.377 c 0.023,0.156 0.246,0.216 0.359,0.244 z m 5.537,4.8 a 6.558,6.558 0 0 0 6.759,-2.72 c 0.19,-0.279 -0.682,-0.187 -0.738,-0.177 a 1.7,1.7 0 0 0 -1.082,0.5 c -0.836,1.23 -1.891,2.015 -3.423,1.681 a 2.193,2.193 0 0 0 -1.29,0.236 c -0.139,0.074 -0.638,0.393 -0.222,0.484 z m 0.914,-15.5 c -0.478,0.822 1.392,0.708 1.738,0.113 0.394,-0.678 0.909,-1.337 1.762,-1.3 0.927,0.045 1.639,0.927 2.094,1.636 0.382,0.6 2.164,-0.041 1.7,-0.761 a 4.179,4.179 0 0 0 -7.29,0.315 z m 0.81,-5.76 a 3.455,3.455 0 0 1 5,-0.523 c 0.566,0.4 2.243,-0.406 1.449,-0.968 a 5.934,5.934 0 0 0 -7.96,1.083 c -0.715,0.875 1.062,0.958 1.514,0.41 z m -63.305,-0.843 c 0.768,1.659 -0.5,3.874 -1.313,5.3 a 24.455,24.455 0 0 1 -2.695,3.983 1.347,1.347 0 0 1 -1.46,0.68 c -3.3,-1.224 -8.38,-1.719 -8.643,-6.141 -0.225,-3.809 2.928,-5.3 6.248,-4.322 0.024,0.007 0.039,0.016 0.061,0.024 2.222,-1.993 6.312,-2.745 7.805,0.479 z m -2.565,-0.46 c -1.537,-1.308 -3.109,-0.838 -4.27,0.714 a 2.122,2.122 0 0 1 -1.587,0.37 1.02,1.02 0 0 1 -0.534,0.022 c -1.775,-0.525 -3.129,-0.1 -3.271,1.931 a 3.938,3.938 0 0 0 1.318,3.694 c 1.725,1.249 3.839,1.658 5.835,2.313 a 18.824,18.824 0 0 0 3.057,-5.4 c 0.462,-1.337 0.682,-2.597 -0.549,-3.641 z m -13.663,-48.658 c -0.227,-3.809 2.929,-5.3 6.248,-4.321 0.024,0.007 0.039,0.016 0.061,0.024 2.218,-2 6.308,-2.751 7.8,0.473 0.768,1.659 -0.5,3.873 -1.312,5.3 a 24.454,24.454 0 0 1 -2.695,3.983 1.347,1.347 0 0 1 -1.46,0.68 c -3.296,-1.221 -8.38,-1.715 -8.639,-6.137 z m 3.2,2.446 c 1.725,1.249 3.839,1.658 5.835,2.313 a 18.808,18.808 0 0 0 3.056,-5.4 c 0.458,-1.336 0.677,-2.6 -0.55,-3.641 -1.536,-1.308 -3.108,-0.838 -4.269,0.714 a 2.121,2.121 0 0 1 -1.587,0.37 1.014,1.014 0 0 1 -0.534,0.022 c -1.774,-0.525 -3.13,-0.1 -3.271,1.931 a 3.941,3.941 0 0 0 1.325,3.693 z m 32.015,20.474 c -1.6,-3.1 -5.095,-7.144 -1.9,-10.436 2.439,-2.517 5.522,-2.53 7.418,0.58 a 0.467,0.467 0 0 1 -0.054,0.574 c 1.669,-0.256 3.771,-0.059 4.836,1.426 a 3.51,3.51 0 0 1 -0.12,4.659 c -2.085,1.918 -5.655,2.872 -8.557,3.268 -0.456,0.322 -1.365,0.424 -1.618,-0.069 z m -1.125,-6.183 a 38.325,38.325 0 0 0 2.834,5.434 16.5,16.5 0 0 0 6.207,-2.018 c 3.322,-2.044 0.195,-6.225 -3.005,-5.634 -0.782,0.145 -0.794,-0.146 -0.506,-0.428 a 0.65,0.65 0 0 1 -0.59,-0.252 c -1.016,-1.666 -2.6,-2.848 -4.2,-0.913 a 3.74,3.74 0 0 0 -0.735,3.813 z"
       fill="#012e41" />
  </g>
</svg>
