<?xml version="1.0" encoding="UTF-8" standalone="no"?>
<svg
   xmlns:dc="http://purl.org/dc/elements/1.1/"
   xmlns:cc="http://creativecommons.org/ns#"
   xmlns:rdf="http://www.w3.org/1999/02/22-rdf-syntax-ns#"
   xmlns:svg="http://www.w3.org/2000/svg"
   xmlns="http://www.w3.org/2000/svg"
   xmlns:sodipodi="http://sodipodi.sourceforge.net/DTD/sodipodi-0.dtd"
   xmlns:inkscape="http://www.inkscape.org/namespaces/inkscape"
   version="1.1"
   id="Layer_1"
   x="0px"
   y="0px"
   width="595.28px"
   height="595.28px"
   viewBox="0 0 595.28 595.28"
   enable-background="new 0 0 595.28 595.28"
   xml:space="preserve"
   sodipodi:docname="fs-how-reg-2.svg"
   inkscape:version="1.0beta2 (2b71d25, 2019-12-03)"><metadata
   id="metadata840"><rdf:RDF><cc:Work
       rdf:about=""><dc:format>image/svg+xml</dc:format><dc:type
         rdf:resource="http://purl.org/dc/dcmitype/StillImage" /><dc:title></dc:title></cc:Work></rdf:RDF></metadata><defs
   id="defs838" /><sodipodi:namedview
   pagecolor="#ffffff"
   bordercolor="#666666"
   inkscape:document-rotation="0"
   borderopacity="1"
   objecttolerance="10"
   gridtolerance="10"
   guidetolerance="10"
   inkscape:pageopacity="0"
   inkscape:pageshadow="2"
   inkscape:window-width="1680"
   inkscape:window-height="1005"
   id="namedview836"
   showgrid="false"
   inkscape:zoom="1.1288805"
   inkscape:cx="297.64001"
   inkscape:cy="297.64001"
   inkscape:window-x="0"
   inkscape:window-y="23"
   inkscape:window-maximized="1"
   inkscape:current-layer="Layer_1" />
<path
   id="color_x5F_2"
   fill="#f26240"
   d="m 419.94107,297.7398 c 3.84676,6.74194 7.11612,14.71011 6.69974,22.38849 -13.44602,2.50637 -27.69459,4.48224 -41.2727,1.81541 0.0818,-0.12334 0.16731,-0.24429 0.23272,-0.38439 0.3648,-0.78557 -0.72456,-2.97221 -1.61769,-3.64041 12.373,-6.07852 24.3573,-12.85158 35.95793,-20.1791 z m 10.58548,21.15267 c -0.0654,-0.19879 -0.13333,-0.40715 -0.21006,-0.63468 -8.9e-4,0.1425 0.004,0.285 -8.9e-4,0.42632 0.0881,0.0551 0.14592,0.13531 0.21133,0.20836 z m 0.25285,0.77717 c 0.003,0.30657 0.01,0.61552 0.0138,0.92208 0.16982,-0.0275 0.26668,-0.0443 0.26668,-0.0443 0,0 -0.10189,-0.32572 -0.28052,-0.87777 z m -57.77296,-23.04351 c 9.77789,-9.83508 21.33324,-17.92301 32.34642,-26.454 -0.0805,-0.0815 -0.15221,-0.17245 -0.20631,-0.27783 -7.55889,-14.83106 -16.49272,-28.97474 -23.82394,-43.91716 -0.69815,-1.42264 2.90582,-2.43811 3.64423,-0.92927 7.22681,14.72927 16.00716,28.68854 23.49562,43.29088 1.27806,-0.0467 2.49699,0.79035 1.0944,1.89085 -10.70248,8.39568 -22.05655,16.25249 -31.81432,25.67563 5.11978,5.74322 2.80015,13.8515 3.90587,20.7539 0.005,0.0323 -0.005,0.0634 -0.0101,0.0958 13.05103,-6.36592 25.70958,-13.53057 37.85616,-21.35504 5.29337,-3.41049 11.22577,-7.18981 14.8247,-12.35703 3.84424,-5.51808 2.91589,-10.55836 1.58752,-16.79255 -3.04043,-14.25985 -8.13881,-28.21793 -15.22222,-41.12579 -4.83297,-8.80763 -10.56913,-18.77324 -18.94821,-25.09963 h -0.60003 c -9.78418,2.16388 -22.08296,-1.67771 -28.68081,-8.82319 -2.0064,-2.17227 -3.76498,-4.51459 -5.30469,-6.97186 -4.25055,4.19365 -10.30119,4.25712 -16.24114,4.15653 0.11699,1.07415 0.18617,2.17825 0.20882,3.30989 0.0201,0.97836 -3.23037,1.52322 -3.60649,1.02746 -14.23725,5.83782 -33.45842,5.6989 -40.49403,21.088 -4.80278,10.50687 -5.93115,22.96807 -8.21177,34.13957 9.56279,0 19.12431,0 28.68584,0 -3.78763,-6.20905 -0.95351,-13.00726 0.0767,-19.67496 0.17108,-1.10409 3.83165,-1.74475 3.63542,-0.47061 -0.97238,6.29766 -3.95116,13.2779 -0.11951,19.16002 0.23021,0.35327 0.0503,0.70054 -0.32454,0.98555 0.50317,0 1.0076,0 1.51077,0 0.96232,0 1.14472,0.2886 0.93842,0.63826 4.3864,1.23104 6.79282,6.24617 8.35014,9.93926 3.18131,7.54786 5.04178,15.59626 6.57772,23.57641 1.25541,6.52159 2.30327,13.09228 3.17627,19.68333 3.27691,-2.53151 7.47085,-3.47514 11.81448,-3.94815 1.09817,-0.18443 2.24038,-0.29938 3.42534,-0.29938 0.0289,0 0.0528,0 0.0831,0 2.04665,-0.14011 4.08324,-0.2419 6.02925,-0.41793 0.0554,-0.15328 0.16102,-0.31734 0.34091,-0.49696 z m 4.66818,15.12563 c -0.0113,0.0264 -0.0227,0.0599 -0.0339,0.085 0.0113,0 0.0226,0 0.0339,0 0,-0.0275 0,-0.0563 0,-0.085 z m 4.20149,9.47943 c -0.34719,-0.75562 -1.0466,-1.45975 -1.50072,-2.19981 0.39374,0.85621 0.95603,1.96151 1.55857,2.76264 0.0403,-0.17005 0.039,-0.35088 -0.0578,-0.56283 z m -26.36245,-6.99461 c -0.41889,0.58318 -0.81137,1.18433 -1.15604,1.81661 -0.23649,0.4323 -0.77992,0.72449 -1.37618,0.86819 0.003,0.0312 0.006,0.0623 0.009,0.0946 8.31366,0 16.62606,0 24.93972,0 -0.14465,-1.1029 -0.2151,-2.24053 -0.24026,-3.40091 -1.746,0.89813 -3.57503,1.49568 -5.45061,1.86092 -1.26045,0.47301 -2.54983,0.72209 -3.59768,0.42271 -4.37383,0.21196 -8.88225,-0.58079 -13.12777,-1.66213 z"
   inkscape:connector-curvature="0"
   style="stroke-width:1.22734" />
<path
   id="color_x5F_1"
   d="m 315.31775,151.64103 c -4.2367,0.52451 -8.43694,-0.39517 -7.72117,-5.32408 0.64658,-4.45352 2.95739,-8.40766 4.06562,-12.73543 0.21637,-0.84664 3.77506,-1.34001 3.5914,-0.6227 -1.21264,4.73491 -9.2483,18.67264 1.65292,17.32066 2.37874,-0.29339 -0.68557,1.24899 -1.58877,1.36155 z m 28.49087,0.33291 c 0.29939,-1.07655 -3.33352,-0.54725 -3.62536,0.50415 -0.60254,2.17227 -1.863,3.39491 -3.93229,4.39842 -0.43399,0.21076 -1.15981,0.88855 -0.36858,1.17715 0.80885,0.29578 1.84036,-0.0179 2.5687,-0.37122 2.61147,-1.26697 4.59019,-2.94346 5.35753,-5.7085 z m -35.16419,-13.48147 c -0.64909,-1.85732 -1.27931,-3.71345 -1.32712,-5.68693 -0.0251,-1.01788 -3.67566,-0.35806 -3.64422,0.92926 0.0478,1.97348 0.67803,3.82961 1.32712,5.68693 0.40253,1.15679 4.02538,0.16287 3.64422,-0.92926 z m 24.56235,-6.04618 c 0.33084,-1.43581 -3.36371,-0.90053 -3.65932,0.3844 -0.60884,2.64767 -0.0403,5.18637 1.47178,7.46043 0.71576,1.07655 4.24552,-0.0922 3.37125,-1.40827 -1.29818,-1.95312 -1.70197,-4.18167 -1.18371,-6.43656 z m 4.2191,-7.13352 c -3.5285,-3.17457 -8.08346,-3.13985 -11.90632,-0.42751 -1.98626,1.40946 0.96735,2.64409 2.42529,1.60945 2.46681,-1.75075 4.58139,-1.04782 6.67584,0.83585 1.18875,1.06937 4.34993,-0.62749 2.80519,-2.01779 z M 144.96505,342.08448 c -0.39498,1.16277 -0.94722,2.19142 -2.01268,2.91711 -1.00634,0.68497 -3.17124,-0.87058 -3.90587,-1.41904 -0.83904,-0.6239 -4.08199,0.73287 -3.42409,1.22265 4.30967,3.20811 11.18048,1.9208 12.94913,-3.29193 0.27801,-0.81669 -3.28697,-0.37123 -3.60649,0.57121 z m 25.15484,-10.78949 c -0.22013,1.12326 -0.58494,2.18185 -1.35605,3.07518 -0.76231,0.88256 -1.45416,0.80473 -2.59762,0.64665 -0.83527,-0.11615 -1.90199,0.1928 -2.57751,0.65744 -0.60631,0.41673 -0.43272,0.83705 0.26292,0.93285 4.51471,0.62509 8.99923,-1.36396 9.88229,-5.85818 0.20127,-1.02267 -3.42408,-0.41793 -3.61403,0.54606 z m -3.54233,10.80745 c 0.0918,1.22983 0.0994,2.54948 -0.75979,3.56018 -0.7925,0.93285 -2.90079,0.2323 -4.09079,-0.17604 -0.006,-0.27064 -0.14089,-0.54726 -0.45914,-0.80831 -1.11956,-0.91729 -2.11207,-2.13635 -2.7184,-3.42246 -0.0251,-0.0515 -0.068,-0.0791 -0.0969,-0.12574 0.29813,-0.13891 0.59877,-0.27423 0.90948,-0.39038 0.5233,-0.1952 1.49568,-0.91131 0.9359,-1.52203 -0.57361,-0.62509 -1.75355,-0.36165 -2.4341,-0.10777 -1.785,0.66581 -3.36873,1.69446 -5.02039,2.60336 -0.56607,0.31255 -1.03025,1.1053 -0.27927,1.49808 0.80257,0.41912 1.86049,0.11616 2.5926,-0.2874 0.0377,-0.0203 0.0742,-0.0431 0.11196,-0.0634 0.78243,1.4382 1.81267,2.71234 3.10205,3.79009 -0.50695,2.70635 -1.89067,4.71816 -4.90467,3.02489 -1.24913,-0.70174 -4.52226,0.94363 -2.84292,1.88726 4.57383,2.56983 9.19421,0.74844 10.90626,-3.47635 4.85686,0.75323 9.11747,-1.24899 8.69104,-6.91317 -0.10567,-1.42503 -3.76122,-0.6263 -3.64297,0.92925 z m -33.76285,-9.98717 c -1.71456,-0.53647 -3.18382,-1.62021 -4.92228,-2.12795 -1.66927,-0.48858 -4.44553,-0.33291 -5.11726,1.53759 -0.48305,1.34359 1.20258,3.10153 2.0001,4.00684 1.11202,1.26217 2.41271,2.52194 3.84172,3.46557 0.69815,0.46104 1.66299,0.30297 2.40643,0.01 0.29184,-0.11496 1.67682,-0.89333 0.98496,-1.34958 -1.96866,-1.29929 -4.00022,-3.22368 -5.18016,-5.21153 -0.0226,-0.0383 -0.0465,-0.0826 -0.0704,-0.12454 1.04408,0.49217 2.04413,1.09451 3.14734,1.4394 0.8491,0.26584 1.81519,0.0946 2.5775,-0.3365 0.40127,-0.22992 1.18748,-1.04183 0.33209,-1.30888 z m 34.12136,-16.40816 c -0.31574,-1.2442 0.0881,-2.54349 0.58242,-3.69429 0.18743,-0.43828 0.44656,-0.84903 0.73967,-1.23702 0.0566,0.0623 0.11824,0.12454 0.16227,0.18322 1.46171,1.95671 0.43147,4.89898 1.16106,7.07484 0.26165,0.77957 3.88072,-0.22633 3.64423,-0.92927 -0.84029,-2.50876 0.74344,-8.17653 -3.55617,-8.12863 -3.91971,0.0443 -7.33247,3.90385 -6.3777,7.66042 0.18743,0.73766 3.84171,-0.15209 3.64422,-0.92927 z m -23.73841,-28.4155 c 2.07056,-0.45147 4.16376,-0.64187 6.23431,-0.3377 -2.29698,2.69198 -4.04802,5.88213 -6.9073,8.04841 -0.71954,0.54486 -0.96608,1.55315 0.13083,1.8669 2.77122,0.79514 5.5588,0.88016 8.43317,0.88376 2.03784,0.003 2.83411,-2.42135 0.35598,-2.42375 -1.65039,-8.8e-4 -3.26558,-0.0527 -4.86567,-0.31734 2.60391,-2.57582 4.41785,-5.78632 7.04064,-8.37891 0.57487,-0.56882 0.33712,-1.37354 -0.44908,-1.59627 -3.50208,-0.99154 -7.08089,-0.77239 -10.60687,-0.003 -2.27308,0.49576 -1.61141,2.74706 0.63399,2.25729 z m 16.57324,-15.99863 c 2.07055,-0.45145 4.16374,-0.64185 6.2343,-0.33769 -2.29698,2.69198 -4.04802,5.88213 -6.9073,8.0484 -0.71953,0.54487 -0.96608,1.55317 0.13083,1.86691 2.77122,0.79514 5.5588,0.88016 8.43317,0.88376 2.03784,0.003 2.83411,-2.42135 0.35599,-2.42375 -1.6504,-8.9e-4 -3.26559,-0.0527 -4.86568,-0.31733 2.60392,-2.57583 4.41786,-5.78633 7.04064,-8.37892 0.57488,-0.56881 0.33712,-1.37354 -0.44908,-1.59627 -3.50208,-0.99153 -7.08089,-0.77239 -10.60686,-0.003 -2.27309,0.49456 -1.61142,2.74706 0.63399,2.25729 z m -16.71538,-74.04869 c -0.0642,-0.0503 -0.10818,-0.11018 -0.10818,-0.18681 0,-38.9176 0,-77.83401 0,-116.750405 0,-0.102986 0.039,-0.198786 0.0931,-0.292191 0.0201,-0.701735 0.73589,-1.472926 1.88312,-1.472926 38.55808,0 77.11741,0 115.67675,0 0.74973,0 1.2051,0.240697 1.42398,0.573602 0.14843,0.05748 0.24404,0.142503 0.24404,0.261056 0,38.917604 0,77.833994 0,116.750394 0,0.11617 -0.0466,0.22514 -0.11447,0.32812 0.16353,0.75323 -0.57991,1.71243 -1.86049,1.71243 -38.55807,0 -77.11741,0 -115.67675,0 -0.99376,0.003 -1.47303,-0.42032 -1.56109,-0.92327 z m 3.53604,-1.67411 c 37.34418,0 74.68836,0 112.03128,0 0,-38.14281 0,-76.28444 0,-114.427249 -37.34418,0 -74.68836,0 -112.03128,0 0,38.142809 0,76.284439 0,114.427249 z M 248.29019,93.519107 c 0,29.511233 0,59.023643 0,88.534873 0,0.11855 -0.0427,0.22873 -0.10314,0.3353 0.10189,0.74126 -0.63275,1.63938 -1.87307,1.63938 -29.23932,0 -58.47992,0 -87.71925,0 -0.88809,0 -1.36485,-0.3377 -1.51958,-0.76879 -0.11195,-0.17245 -0.17862,-0.37961 -0.17862,-0.63109 0,-29.51242 0,-59.02365 0,-88.534871 0,-1.071764 1.51958,-1.63938 2.61272,-1.410657 29.03681,0 58.07487,0 87.11293,0 0.6818,0 1.11704,0.20118 1.35605,0.48858 0.19121,0.07185 0.31196,0.184416 0.31196,0.347275 z m -3.64548,1.765118 c -28.01536,0 -56.02947,0 -84.04484,0 0,28.714885 0,57.429775 0,86.144665 28.01537,0 56.02948,0 84.04484,0 0,-28.71489 0,-57.42978 0,-86.144665 z m -64.82492,58.714685 c -0.30442,-0.68856 0.22769,-1.26336 0.97867,-1.55435 0.15976,-0.63348 0.84407,-1.30049 1.8391,-1.39628 6.38902,-0.61193 12.13022,-0.84664 16.83488,2.28722 -0.12328,-0.17484 -0.24907,-0.34488 -0.3648,-0.53408 -0.11825,-0.194 0.33083,-0.50894 0.95099,-0.77119 -0.5472,-3.96134 -0.87803,-7.93345 -0.94596,-11.87084 -5.21915,-0.30656 -10.49239,-1.85493 -12.83215,-6.79222 -3.01275,-6.35993 -2.29572,-13.68266 -2.26805,-20.48207 0,-0.15208 0.0943,-0.29219 0.24027,-0.41912 -0.0315,-0.0395 -0.0654,-0.0754 -0.0969,-0.11496 -1.04408,-1.30767 2.45422,-2.5914 3.35616,-1.46096 1.82903,2.29082 3.85681,4.39723 5.96007,6.44975 2.49825,-3.75177 6.11731,-6.8545 8.59166,-10.61226 0.2063,-0.31375 0.76985,-0.53768 1.39127,-0.6742 1.03025,-0.46343 2.49951,-0.48977 2.65046,0.31255 0.67174,3.56616 1.84412,6.9539 3.18634,10.31288 2.67436,-2.31955 5.92233,-4.01043 9.26969,-5.31929 0.92458,-0.36165 1.87683,-0.0826 2.35233,0.40115 0.17611,0.0359 0.28807,0.0982 0.28807,0.1928 0,0.097 -8.8e-4,0.1964 -0.003,0.29339 0.0265,0.11018 0.0239,0.22393 -0.003,0.3377 -0.10442,12.35222 -2.28566,27.0767 -18.40227,27.61078 0.0893,3.19015 0.34971,6.39945 0.7535,9.60757 5.49465,-4.82714 13.88252,-6.63057 21.13449,-4.82115 1.17365,0.29339 0.70318,0.96399 -0.14718,1.4406 -0.003,0.007 8.8e-4,0.012 -0.003,0.0203 -2.92092,5.02831 -12.85731,11.45769 -19.92436,10.14882 0.92835,4.97202 2.14854,9.89256 3.59642,14.65622 0.2151,0.70892 -3.42031,1.67172 -3.64423,0.92926 -0.92709,-3.05243 -1.75355,-6.17192 -2.48189,-9.32374 -0.0981,0.0503 -0.20127,0.10059 -0.32329,0.1461 -8.59292,3.19852 -18.35823,-0.91729 -21.93579,-9.00043 z m 24.21012,-0.79274 c 0.0151,0.0982 0.0301,0.19639 0.0465,0.29459 4.98141,4.56607 14.03724,-1.58909 16.86004,-6.44855 0.0805,-0.13771 0.23649,-0.25746 0.43273,-0.36284 -6.73621,-1.26935 -13.55798,1.18912 -17.33932,6.5168 z m 13.50892,-38.5823 c -2.86933,1.35677 -5.51351,3.08117 -7.52746,5.52048 -0.10314,0.12454 -0.23019,0.23112 -0.37234,0.32094 -0.0465,0.0288 -0.10064,0.0467 -0.1497,0.0719 -0.10189,0.0515 -0.20252,0.10538 -0.31448,0.14251 -0.078,0.0263 -0.16101,0.0395 -0.24278,0.0587 -0.0868,0.0203 -0.1736,0.0443 -0.26291,0.0563 -0.11698,0.0155 -0.23649,0.0192 -0.35347,0.0203 -0.0503,8.9e-4 -0.10189,0.006 -0.15221,0.004 -0.15222,-0.004 -0.30191,-0.0227 -0.44405,-0.0503 -0.01,-8.8e-4 -0.0227,-0.003 -0.0327,-0.004 -0.47173,-0.0994 -0.85917,-0.31973 -1.00257,-0.64306 0,0 0,0 0,-8.9e-4 -0.009,-0.0168 -0.0227,-0.0299 -0.0289,-0.0479 -0.0138,-0.0323 -0.0264,-0.0635 -0.0403,-0.0958 -1.42774,-3.40569 -2.74858,-6.81019 -3.63667,-10.36079 -2.67562,3.10752 -5.68584,6.02343 -7.37776,9.69617 -0.068,0.1473 -0.2214,0.27663 -0.42015,0.39278 -0.51953,0.80832 -2.67813,1.39509 -3.47692,0.63348 -1.41391,-1.34598 -2.80267,-2.70755 -4.1411,-4.11222 -0.20631,8.32264 -0.0704,19.45701 9.27471,21.83644 18.0752,4.602 20.48791,-11.05893 20.70176,-23.4375 z m -33.85971,38.87329 c 2.75236,5.6079 10.03577,9.71293 16.42731,7.3347 0.5233,-0.19519 1.05037,-0.18202 1.50197,-0.0503 -0.11195,-0.52091 -0.21258,-1.04422 -0.31826,-1.56633 -0.4843,-0.0155 -0.92709,-0.17005 -1.18748,-0.52092 -4.31344,-5.80548 -9.82947,-5.78991 -16.42354,-5.19716 z m 369.63402,334.65495 c 0.0541,1.15319 -2.10452,1.75553 -3.14358,1.15678 -25.96116,-0.0587 -51.92358,-0.11855 -77.88601,-0.17722 -0.82143,0.86579 -1.87935,1.38191 -3.24923,1.39748 -6.18776,0.0719 -10.30496,-6.72757 -12.84347,-11.20502 -3.06432,-5.40433 -5.75629,-11.09605 -7.59664,-16.99135 -0.01,-0.0299 -0.006,-0.0599 -0.0126,-0.0898 -19.44885,0 -38.89898,0 -58.34909,0 1.40007,2.08604 2.93852,4.03917 4.67195,5.76956 0.22769,0.22753 0.14969,0.4826 -0.0981,0.7197 -0.0465,0.0551 -0.0893,0.10777 -0.15472,0.16884 -0.80508,0.74844 -1.67808,1.38791 -2.58001,1.97708 9.09357,3.23685 12.09374,14.16405 12.24469,22.59326 8.8e-4,0.10777 -0.0365,0.20956 -0.0918,0.30656 -0.0277,0.70413 -0.73714,1.47053 -1.8806,1.47053 -22.56476,0 -45.1295,0 -67.69551,0 -0.72709,0 -1.17743,-0.22992 -1.40511,-0.55085 -0.35977,-0.0767 -0.56104,-0.24549 -0.42645,-0.5293 2.70204,-5.70249 5.66824,-14.03591 11.92141,-17.2057 4.42918,-2.24651 9.6911,-2.71353 14.6725,-3.50987 -3.0681,-3.66675 -6.0192,-7.41134 -8.89357,-11.20981 -77.04571,0 -154.09143,0 -231.13714,0 0.18869,0.1449 0.27423,0.35445 0.1824,0.64664 -2.84041,9.03276 -9.12503,26.00854 -20.540747,27.64314 -9.099867,1.30287 -4.18136,-24.54759 -4.093304,-28.88853 0.0038,-0.20478 0.100634,-0.39159 0.247812,-0.55804 C 73.446689,451.86901 52.649328,434.84174 52.177604,410.3229 51.870669,394.33745 59.015713,373.49853 75.505922,367.01526 68.684166,356.1683 61.159226,343.92504 59.676127,331.22913 c -0.635255,-5.44864 -0.15221,-10.89128 3.918453,-15.07894 2.830343,-2.91232 7.562676,-4.64151 12.047198,-5.02472 0.174852,-0.36643 0.347189,-0.73287 0.523298,-1.0981 8.984139,-18.63432 18.281502,-38.62421 31.802994,-54.72702 16.92042,-20.15155 43.33821,-22.65433 68.49808,-24.7308 40.69656,-3.35779 81.78308,-3.41168 122.61675,-3.07877 1.36109,-5.91566 3.21905,-11.65049 6.27582,-16.67162 3.77127,-6.19707 9.84833,-9.50936 16.60845,-11.83611 -9.94394,-3.61405 -17.76072,-11.22896 -22.76099,-20.08448 -7.39537,-13.09349 -10.54145,-29.04421 -10.04709,-43.86808 0.45537,-13.68624 5.49338,-25.51875 16.79085,-34.27847 10.65845,-8.265158 24.60763,-13.298257 38.50022,-13.458722 0.62519,-0.01796 1.24786,-0.02395 1.86802,-0.0048 0.049,0.0012 0.0994,0.0036 0.14844,0.0048 6.50602,0.14849 12.96423,1.385509 19.02997,3.889484 10.1754,4.199638 18.73687,11.492418 23.55223,21.099968 3.77002,7.51912 4.95625,15.34359 4.79775,23.62192 -0.13586,7.07244 -1.60261,15.66332 1.36107,22.37532 4.26942,9.66383 13.22463,17.04283 19.14696,25.76903 6.59408,9.71653 10.39177,20.18987 7.78156,31.7781 -0.083,0.36763 -0.4843,0.67299 -0.99125,0.88495 -0.0969,0.44787 -0.19246,0.861 -0.28555,1.23822 1.22271,2.09203 2.37749,4.19005 3.47189,6.24616 2.25169,4.22358 4.35496,8.55735 6.27456,12.97493 32.13257,13.10426 44.77351,46.03196 58.89629,73.97325 3.85933,-0.11136 7.45198,0.7209 10.44963,2.34112 0.15221,-55.18087 2.47938,-110.34617 1.55858,-165.52943 -14.41211,-0.11375 -28.82422,-0.22632 -43.23633,-0.34009 -0.6994,-0.004 -1.13968,-0.22153 -1.37366,-0.5233 -0.20755,-0.19759 -0.33209,-0.47062 -0.32328,-0.82628 0.60506,-23.50097 13.1592,-44.97097 13.74792,-68.504265 0.0264,-1.05979 1.54474,-1.626207 2.62907,-1.408263 21.02505,0.166453 42.05009,0.330511 63.07514,0.495766 0.30945,0.0024 0.56858,0.04551 0.78369,0.118552 0.51701,0.136516 0.90068,0.465829 0.90697,1.039432 0.26039,23.854228 15.31278,44.901518 15.59331,68.734188 0.003,0.22992 -0.0881,0.4347 -0.23021,0.61552 -0.24781,0.53528 -0.87677,0.99632 -1.76865,0.98913 -15.37694,-0.12095 -30.75388,-0.24189 -46.13082,-0.36284 0.91955,55.98558 -1.49567,111.95201 -1.57367,167.934 0,0.0634 -0.0164,0.12334 -0.0315,0.18323 3.39264,3.24283 5.28833,7.92386 4.73736,13.60121 -0.595,6.1372 -2.49448,12.11512 -5.05436,17.87391 0.10315,0.0312 0.16227,0.0754 0.16227,0.13651 -0.0679,7.80292 -0.1346,15.60704 -0.20253,23.40996 -8.8e-4,0.22632 -0.21636,0.42511 -0.53839,0.59037 10.92261,9.23633 15.90527,26.22648 14.88257,39.21937 -0.98999,12.56658 -6.67457,23.02675 -14.96182,31.48471 -0.0692,8.00648 -0.13837,16.01178 -0.20882,24.01828 -8.8e-4,0.20956 -0.16856,0.39517 -0.42266,0.55325 11.35282,0.0263 22.70438,0.0515 34.05721,0.0778 0.40253,8.9e-4 0.71324,0.0754 0.95603,0.19161 0.41385,0.16525 0.71198,0.47301 0.73336,0.96638 0.20128,4.5996 6.35632,8.34778 9.55399,11.11042 2.74605,2.36985 5.86447,5.06902 6.04058,8.8172 z m -3.72726,-342.42434 c -0.77992,-22.89023 -14.81716,-43.31721 -15.51908,-66.294872 -20.03883,-0.15807 -40.07766,-0.314943 -60.11775,-0.473013 -1.02899,22.638765 -12.70006,43.440565 -13.6108,66.066155 29.74879,0.23471 59.49759,0.46822 89.24763,0.70173 z m -67.12693,169.44286 c -11.52012,5.58515 -18.44125,18.50619 -23.52958,29.25257 -3.17628,6.71079 -6.06826,13.63235 -8.21429,20.71199 -0.0415,0.13411 -0.11573,0.25626 -0.20378,0.37362 12.29626,0 24.59379,0 36.89131,0 0.38871,-0.17604 0.82521,-0.26825 1.23655,-0.21076 0.3711,0.0527 0.73086,0.12693 1.0944,0.19518 0.0214,-0.12693 0.0654,-0.26464 0.16228,-0.42031 5.93617,-9.45548 12.00065,-19.86057 14.09888,-30.80693 1.00131,-5.22949 1.57241,-11.93549 -2.66053,-16.12316 -4.62289,-4.57445 -12.93781,-5.85099 -18.87524,-2.9722 z m 10.92261,50.29507 c -0.1824,0.29099 -0.51449,0.51132 -0.90193,0.66581 2.5712,0.75442 4.94115,1.87888 7.11988,3.28713 0.0428,-4.89658 0.0843,-9.79436 0.12705,-14.69094 -2.00011,3.69429 -4.17507,7.282 -6.345,10.738 z M 432.04488,240.57827 c 4.04928,9.92729 7.09473,20.24975 8.57531,30.73867 1.58625,11.24573 -8.65331,18.70616 -17.51291,24.41346 -0.0365,0.024 -0.073,0.0467 -0.10818,0.0695 3.93481,6.67847 7.44066,14.68257 7.31864,22.45795 -8.8e-4,0.1425 0.004,0.285 -8.8e-4,0.42631 0.0868,0.0539 0.14465,0.13412 0.21006,0.20717 0.14215,0.15806 0.24782,0.34487 0.25034,0.60114 0,0.0587 0.003,0.11735 0.003,0.17484 0.003,0.30656 0.01,0.61551 0.0138,0.92207 0.17736,11.4062 1.4265,23.03514 -4.77132,33.33125 -2.91841,4.84869 -10.34523,7.15508 -15.59834,8.53939 -4.91726,1.2969 -9.92382,2.28243 -14.98322,3.04645 17.18837,0 34.37673,0 51.56508,0 0.008,-0.0359 0.005,-0.0682 0.0176,-0.10658 2.77751,-9.1585 6.53243,-18.21281 11.10626,-26.68632 5.55251,-10.28654 13.9429,-24.32844 26.94109,-27.05156 0.17863,-0.0371 0.356,-0.0658 0.53337,-0.0994 -13.17556,-26.16181 -25.22025,-56.97831 -53.5589,-70.98429 z M 280.16237,342.32039 c 2.90331,-9.15011 11.95286,-15.11846 21.79994,-17.67273 -13.3391,0.008 -26.67819,0.0107 -40.01854,-0.0658 -3.99141,-0.024 -7.99037,-0.15808 -11.98053,-0.13772 -2.39887,0.0131 -6.66451,0.31973 -9.53385,-0.51492 -0.46669,0.48019 -1.19755,0.85861 -1.92463,0.8119 -4.51723,-0.29578 -9.58921,0.19041 -14.04732,1.85373 -0.34718,0.44667 -1.25037,0.79874 -2.06174,0.88855 -2.5687,1.24181 -4.85058,2.92909 -6.57017,5.1732 -3.92349,5.12292 -5.36004,14.23591 -2.58253,20.79582 0.30945,0.24309 0.48053,0.57959 0.43901,0.93405 0.65916,1.29929 1.48437,2.48961 2.52718,3.48712 6.12236,5.85099 16.34052,6.96707 24.57871,7.29997 10.07602,0.40835 20.18097,-0.45026 30.06076,-2.35309 3.72724,-5.32649 6.95887,-11.02779 8.56273,-16.89195 0.13963,-1.24182 0.38367,-2.4489 0.75098,-3.60808 z m -0.41637,11.43135 c -1.86802,3.4464 -4.07318,6.74312 -6.13367,10.16678 -3.04922,5.06663 -7.90484,9.26746 -10.56409,14.47061 -4.5185,8.84475 2.48944,17.3949 12.58307,16.20938 8.20548,-0.964 15.67507,-3.89548 18.65637,-11.6948 -2.94482,-3.39612 -5.80913,-6.83175 -7.89981,-10.87451 -2.63159,-5.08339 -5.52861,-11.74031 -6.64187,-18.27746 z m -69.95099,0.32571 c -2.98758,-8.22444 -1.89947,-18.48343 4.92732,-24.56075 1.72965,-1.54118 3.63416,-2.81173 5.65691,-3.84517 -2.37497,-4.46788 -9.38291,-7.1431 -13.85359,-8.59926 1.25165,2.93866 0.96106,6.31562 1.50449,9.41236 0.20001,1.13403 -3.46686,1.94474 -3.64423,0.92926 -0.61765,-3.51466 -0.15472,-7.39099 -2.09697,-10.57754 -0.16102,-0.26344 0.14341,-0.57719 0.634,-0.83585 -1.93847,-0.52211 -3.99519,-0.97237 -6.07957,-1.25977 1.23151,2.79617 3.06682,5.12171 3.01274,8.40527 -0.0201,1.17114 -3.6719,1.89804 -3.648,0.42391 0.0566,-3.48114 -2.42152,-6.00068 -3.49705,-9.15729 -4.69083,-0.0575 -9.16779,1.07176 -12.28243,4.54571 -0.0667,0.0743 -0.16605,0.14251 -0.278,0.20717 14.94672,13.20964 9.78418,26.54501 -1.94099,35.2257 1.546,-0.17484 2.95362,0.36404 3.82536,2.03335 0.68055,1.30289 -2.9033,2.34951 -3.64422,0.92927 -0.96987,-1.85493 -4.99649,3.11709 -4.53861,4.81036 0.72834,2.69558 6.22675,2.76503 7.03812,0.0706 0.42518,-1.41186 4.14236,-1.85253 3.67945,-0.31255 -0.0906,0.30297 -0.22894,0.5736 -0.36732,0.84304 3.77128,2.4429 7.99038,1.19031 10.36283,-1.52801 -0.75727,-2.64169 -3.17628,-4.07031 -5.49589,-5.58874 -1.6479,-1.07895 1.61391,-2.70756 2.83663,-1.90762 1.59757,1.04662 3.24797,2.10281 4.50213,3.43922 0.16479,-1.46335 -0.14341,-3.01411 -1.08937,-4.50141 -1.96992,-3.09553 -4.48075,-5.84141 -5.18519,-9.49379 -0.29058,-1.50765 3.36497,-2.38063 3.64422,-0.92926 1.35731,7.03891 9.69361,11.17748 4.71724,18.72893 -0.0327,0.0503 -0.0717,0.0934 -0.1044,0.1425 0.0201,0.54007 -0.4189,0.98793 -1.01012,1.26815 -1.23277,1.35677 -2.75235,2.41656 -4.42792,3.11829 4.0606,0 8.1212,0 12.18306,0 -2.59259,-4.14694 0.3887,-8.75014 4.65937,-11.43613 z m -27.77761,10.95116 c -0.28555,0.17603 -0.5774,0.33888 -0.88811,0.48139 0.62016,0 1.23907,0 1.85923,0 -0.32958,-0.14609 -0.65287,-0.30536 -0.97112,-0.48139 z m -11.88241,-2.57823 c -0.0516,-1.28012 0.68306,-2.80215 1.82273,-4.18047 -10.64963,5.53365 -23.97112,7.68197 -33.34018,4.10264 -0.30316,0.11855 -0.6189,0.20836 -0.93338,0.25746 -0.0855,0.0958 -0.17737,0.18681 -0.23398,0.30536 -0.17234,0.35806 -0.31071,0.75443 -0.26919,1.1544 0.0642,0.61431 0.34215,1.15917 0.87426,1.41904 11.34024,0 22.68048,0 34.01947,0 -1.09566,-0.65504 -1.88187,-1.64777 -1.93973,-3.05843 z m 14.8637,-20.80898 c 0.37234,-1.26696 0.57236,-2.50397 0.6491,-3.71464 -2.64418,1.13642 -5.472,1.85373 -8.37405,2.09442 -2.50957,0.20717 -1.4831,-2.03575 0.4214,-2.19382 2.64543,-0.21914 5.31099,-0.89334 7.63942,-2.13395 0.0918,-0.0491 0.18869,-0.097 0.28932,-0.1425 -0.0831,-0.96279 -0.2541,-1.90403 -0.49939,-2.82491 -2.62153,1.55915 -5.64057,2.30878 -8.30863,3.79728 -1.77746,0.99153 -3.73103,-0.79155 -1.59758,-1.98186 2.62279,-1.46335 5.70346,-2.08485 8.19416,-3.76375 0.26039,-0.17484 0.58368,-0.29818 0.91829,-0.3844 -1.68311,-4.0236 -4.7751,-7.60054 -8.39417,-10.65177 -0.40002,-0.11257 -0.63023,-0.35686 -0.48556,-0.7652 1.01263,-2.84647 0.52455,-5.93483 -0.93087,-8.5825 -0.76607,-1.3927 -3.3461,-5.64862 -5.56005,-4.96365 -4.67699,1.44659 -9.50744,6.82217 -7.45198,11.6014 0.0327,0.0778 0.0503,0.15448 0.0541,0.22992 1.08684,-0.008 2.15106,0.0216 3.1574,0.12334 2.46554,0.24908 0.37235,2.53511 -1.30573,2.36627 -2.65675,-0.26825 -5.70219,-0.0659 -8.76148,0.56163 0.23019,1.17714 0.61764,2.2968 1.17364,3.37934 0.38619,0.75083 -0.98999,1.42503 -1.51455,1.55915 -0.79123,0.20118 -1.73846,0.13292 -2.13093,-0.62988 -0.55223,-1.07297 -0.93715,-2.18425 -1.16862,-3.35061 -0.556,0.17842 -1.10446,0.37362 -1.64915,0.58079 0.21386,2.84047 2.58883,5.66058 4.24049,7.83165 0.80759,1.06099 -2.71964,2.21059 -3.39516,1.32205 -1.67933,-2.207 -3.7524,-4.78522 -4.34237,-7.56582 -1.59631,0.85262 -3.06432,1.84655 -4.34615,2.9698 0.0251,0.0144 0.0541,0.0251 0.078,0.0407 1.03653,0.74365 2.05169,1.51843 2.97626,2.38542 0.62772,0.58917 -0.46291,1.34359 -0.93087,1.54119 -0.71954,0.30416 -1.81519,0.46343 -2.43661,-0.11975 -0.58996,-0.55445 -1.22396,-1.061 -1.87305,-1.54957 -0.60633,0.77957 -1.14346,1.59626 -1.55732,2.46924 -0.61262,1.2945 -4.28703,1.4406 -3.45931,-0.30536 0.32581,-0.68856 0.71953,-1.34479 1.14975,-1.98306 -1.89067,-2.41416 -5.03046,-2.90633 -8.03943,-2.19621 -1.63406,0.38559 -4.92103,1.12205 -5.68711,2.81891 -2.14351,4.7457 3.63794,11.47087 8.19039,12.57017 0.13585,0.0323 0.2453,0.073 0.34089,0.11496 0.049,0.0227 0.0843,0.0479 0.12328,0.0719 0.0339,0.0216 0.0692,0.0419 0.0956,0.0647 0.0428,0.0371 0.0755,0.0754 0.10189,0.11616 0.006,0.01 0.0138,0.0203 0.0201,0.0312 0.0251,0.0491 0.0428,0.0994 0.0478,0.15089 0,0 0,8.8e-4 0,8.8e-4 8.8e-4,0.007 0.006,0.0144 0.006,0.0227 0,0.0311 0,0.0623 0,0.0934 -0.10315,4.48944 0.80884,8.98247 3.13224,12.557 2.76746,-1.11008 5.08707,-3.0153 7.7476,-4.33495 0.74344,-0.36883 1.76613,-0.69934 2.58379,-0.31734 0.75601,0.35206 0.22265,1.11488 -0.31197,1.38072 -3.02784,1.50167 -5.6481,3.65238 -8.84325,4.8451 0.82646,0.97596 1.77997,1.86091 2.88066,2.62252 1.45542,-1.98186 3.45428,-3.45958 5.25312,-5.14566 0.61764,-0.5784 1.57492,-0.84784 2.42529,-0.87897 0.37738,-0.0131 1.5397,0.17363 0.91451,0.75921 -1.87683,1.75794 -3.98386,3.27397 -5.45061,5.38876 -0.22895,0.32931 -1.00509,0.60474 -1.76488,0.72808 0.95729,0.52211 2.00012,0.96759 3.14358,1.31726 8.3929,2.56624 18.00223,0.63587 25.67183,-3.14344 7.16895,-3.53383 14.67502,-9.13694 16.95061,-16.88478 z m 24.65292,23.79915 c 0.0264,0.0227 0.0403,0.0455 0.0642,0.0682 4.75623,0 9.51373,0 14.26996,0 -5.51728,-1.50406 -10.71379,-4.0787 -13.08751,-8.8196 -0.005,-0.012 -0.01,-0.024 -0.0164,-0.0347 -2.90959,2.27046 -4.58138,5.87614 -1.23025,8.78607 z m 97.36757,-151.63123 c -4.80277,10.50688 -5.93114,22.96808 -8.21176,34.13957 9.56279,0 19.12431,0 28.68584,0 -3.78762,-6.20904 -0.95351,-13.00726 0.0767,-19.67495 0.17107,-1.1041 3.83166,-1.74476 3.63542,-0.47062 -0.97238,6.29767 -3.95116,13.2779 -0.11951,19.16003 0.23021,0.35326 0.0503,0.70053 -0.32454,0.98554 0.50317,0 1.0076,0 1.51078,0 0.96231,0 1.14471,0.2886 0.93841,0.63827 4.3864,1.23103 6.79282,6.24616 8.35014,9.93926 3.1813,7.54785 5.04179,15.59626 6.57772,23.57641 1.25541,6.5216 2.30326,13.09228 3.17627,19.68333 3.27691,-2.53152 7.47085,-3.47515 11.81448,-3.94816 1.16359,-0.12574 2.33724,-0.22034 3.50837,-0.29938 2.04666,-0.1401 4.08324,-0.24189 6.02926,-0.41793 0.0566,-0.14969 0.16227,-0.31254 0.3409,-0.49336 9.77789,-9.83509 21.33324,-17.92301 32.34641,-26.45401 -0.0805,-0.0815 -0.1522,-0.17244 -0.20629,-0.27782 -7.55891,-14.83106 -16.49273,-28.97474 -23.82394,-43.91716 -0.69815,-1.42264 2.90581,-2.43812 3.64422,-0.92927 7.22681,14.72927 16.00716,28.68854 23.49562,43.29088 1.27806,-0.0467 2.49699,0.79035 1.0944,1.89085 -10.70247,8.39568 -22.05655,16.25249 -31.81431,25.67563 5.11977,5.74322 2.80015,13.8515 3.90587,20.7539 0.005,0.0323 -0.005,0.0634 -0.01,0.0958 13.05102,-6.36591 25.70958,-13.53057 37.85615,-21.35503 5.29337,-3.41049 11.22577,-7.18981 14.82471,-12.35703 3.84424,-5.51808 2.91588,-10.55836 1.5875,-16.79256 -3.04041,-14.25984 -8.1388,-28.21792 -15.22221,-41.12579 -4.83297,-8.80762 -10.56913,-18.77323 -18.9482,-25.09963 h -0.60004 c -9.78418,2.16389 -22.08296,-1.6777 -28.6808,-8.82319 -2.0064,-2.17227 -3.76499,-4.51458 -5.3047,-6.97185 -4.25054,4.19365 -10.30119,4.25712 -16.24113,4.15653 0.11698,1.07415 0.18617,2.17825 0.20881,3.30989 0.0201,0.97836 -3.23036,1.52322 -3.60648,1.02746 -14.23726,5.83422 -33.45844,5.69651 -40.49404,21.0844 z m 78.58291,107.74879 c -0.0654,0.1401 -0.15095,0.26105 -0.23272,0.38439 13.57811,2.66684 27.82542,0.69096 41.2727,-1.81541 0.41638,-7.67838 -2.85299,-15.64655 -6.69973,-22.38849 -11.60064,7.32872 -23.5862,14.10058 -35.95669,20.1791 0.89188,0.6682 1.97998,2.85485 1.61644,3.64041 z m -32.62065,-4.63793 c 0.003,0.0311 0.006,0.0623 0.009,0.0946 8.31366,0 16.62606,0 24.93972,0 -0.14465,-1.1029 -0.2151,-2.24053 -0.24026,-3.40091 -1.746,0.89813 -3.57503,1.49568 -5.45061,1.86092 -1.18245,0.23112 -2.38504,0.36404 -3.59768,0.42271 -4.37383,0.21316 -8.88225,-0.57839 -13.12902,-1.66093 -0.41889,0.58318 -0.81137,1.18433 -1.15604,1.81661 -0.23524,0.4323 -0.77866,0.72449 -1.37492,0.86699 z m -0.0277,-13.77126 c -0.21888,0.23591 -0.7862,0.43469 -1.40008,0.55923 0.39374,3.1159 0.74344,6.23419 1.04786,9.35608 1.20258,-1.59507 2.54856,-3.09314 3.79895,-4.65948 0.99879,-1.25139 4.4493,-0.74724 3.04671,1.01069 -0.72709,0.91011 -1.49694,1.79386 -2.24918,2.68839 6.00284,1.61304 13.285,3.1195 18.81989,0.006 0.42015,-0.23591 1.0466,-0.31374 1.62147,-0.27303 0.0113,0 0.0227,0 0.0339,0 0,-0.0288 0,-0.0575 0,-0.0863 0,-4.74569 0.17611,-9.65186 -2.48063,-13.53535 -0.10693,0.0288 -0.21511,0.0527 -0.32204,0.0695 -6.84817,1.05021 -16.92671,-0.50535 -21.91692,4.86425 z M 232.30441,249.82897 c -0.18491,0.3341 -0.5799,0.63707 -1.28434,0.77119 -8.94137,1.70764 -2.31836,26.28396 -1.11956,31.24641 2.8467,11.7858 6.30852,24.21826 12.33023,34.95147 0.0415,0.0743 0.0642,0.14729 0.0855,0.21914 0.008,0 0.0189,-0.003 0.0265,-0.003 35.63842,0 71.27685,0 106.91527,0 -0.8969,-10.17996 -2.25799,-20.36232 -4.09708,-30.42133 -1.4441,-7.90351 -3.04797,-15.9088 -5.8217,-23.50336 -1.45794,-3.99486 -3.75115,-11.5044 -8.90363,-12.47557 -0.70821,-0.13292 -0.87175,-0.44068 -0.7296,-0.78436 -32.46844,-8.9e-4 -64.93436,-8.9e-4 -97.40155,-8.9e-4 z m 76.67212,73.48228 c 0.45159,0 0.90319,-8.9e-4 1.35605,-0.003 1.66549,-0.10299 3.30961,-0.10299 4.90969,-0.007 13.26488,-0.012 26.53102,-0.0288 39.79589,-0.0647 6.1953,-0.0155 12.39061,-0.0335 18.58466,-0.0563 1.24913,-0.004 7.90987,0.30297 8.31114,-1.3867 0.0403,-0.16885 0.039,-0.35087 -0.0578,-0.56282 -0.34719,-0.75563 -1.0466,-1.45976 -1.50071,-2.19982 -0.10818,-0.17604 -0.21763,-0.35326 -0.28807,-0.53648 -9.28227,0 -18.56579,0 -27.84931,0 -0.9359,0.57121 -2.41523,0.68258 -2.78004,0 -36.00573,0 -72.01021,0 -108.01596,0 -2.27559,6.17073 9.30995,4.60799 13.61459,4.66786 4.09456,0.0575 8.19038,0.0791 12.2862,0.097 13.87749,0.0599 27.75624,0.0599 41.63372,0.0515 z m 5.00404,-225.730217 c 3.79141,-1.910015 7.97905,-3.665552 12.4749,-5.388757 -4.39018,1.319647 -8.60802,3.120689 -12.4749,5.388757 z m 25.09822,75.483307 c 7.40292,2.24771 10.58675,7.35984 11.62957,13.81078 5.09211,0.073 10.61568,1.05979 14.04354,-3.39611 0.24781,-0.32213 0.87678,-0.53888 1.54222,-0.66462 -4.7902,-8.26276 -7.06454,-17.79247 -6.88969,-27.2707 0.0189,-0.98554 1.77872,-1.57591 2.85677,-1.28491 0.15346,-0.0479 0.31196,-0.0863 0.48304,-0.10299 6.33368,-0.62509 8.38788,-5.7049 5.71981,-10.8793 -0.92961,-1.80224 -2.31711,-3.75896 -4.25684,-4.6942 -3.46433,-1.67052 -5.31852,1.77589 -6.53746,4.34572 -0.50065,1.0574 -2.58756,1.49569 -3.40773,0.57601 -0.52959,-0.59517 -1.05164,-1.19871 -1.56487,-1.81062 -0.90319,-0.71012 -2.01772,-1.79506 -3.40018,-3.47276 -1.6089,-1.95552 -2.5926,-4.19844 -3.19012,-6.34795 -1.25918,-2.59979 -2.1825,-5.33966 -2.61398,-8.24241 -0.0465,-0.31015 0.0528,-0.59277 0.24153,-0.83466 -9.78167,-1.42024 -19.52685,-7.70352 -25.87815,-13.96286 -3.59642,5.40791 -8.66713,9.36566 -14.80961,11.97261 -0.27045,1.26097 -0.49814,2.53871 -0.68682,3.82602 2.4605,-1.34599 5.27324,-1.99863 7.87715,-0.50055 1.65167,0.95081 -1.63783,2.55786 -2.85047,1.86092 -1.2944,-0.74605 -2.1737,-0.36525 -3.37376,0.37242 -0.5296,0.32572 -1.27052,0.55324 -1.93973,0.46941 -0.64406,5.69173 -0.60758,11.5044 -0.26795,16.88477 0.5472,8.67111 1.65167,19.78392 10.79682,24.24582 8.31492,4.04875 17.80223,2.46565 26.47691,5.10016 z M 78.981583,311.09793 c 0.452855,0.0335 0.900678,0.0778 1.332148,0.1437 13.922772,2.13155 22.713189,15.92198 28.504699,26.90786 4.49584,8.52621 8.37153,17.47753 11.15533,26.65518 0.078,0.25507 0.0403,0.49098 -0.0654,0.70414 4.58391,0 9.16654,0 13.74918,0 -0.15095,-0.42512 -0.18869,-0.90652 -0.0415,-1.44659 0.36858,-1.34958 1.55858,-2.18664 2.90457,-2.62372 -5.80661,-2.98298 -9.62317,-8.58609 -9.49613,-17.50627 -5.6959,-1.98786 -13.28248,-11.30801 -7.33373,-16.12436 4.32099,-3.4991 13.26739,-5.42708 17.96325,-1.56274 4.8707,-4.90976 12.78938,-7.90232 20.06147,-8.74296 -2.15735,-6.21264 5.45816,-13.54135 11.67737,-14.28261 6.69596,-0.79872 10.76537,7.75742 10.1364,13.51022 6.21544,-4.602 15.27505,-4.7433 22.75847,-3.1614 6.32111,1.33521 17.82362,4.29304 21.4691,10.6398 4.40653,-1.60825 9.21057,-2.2549 13.98945,-2.14832 -0.42015,-0.86819 -0.36481,-2.03456 0.40002,-3.60328 0.0868,-0.17723 0.30694,-0.32692 0.59374,-0.45146 -7.06453,-12.69112 -11.28993,-27.69581 -13.88504,-41.75448 -1.28056,-6.93593 -5.64936,-25.66845 5.55754,-27.80838 0.0554,-0.0107 0.0981,-8.9e-4 0.15221,-0.01 0.48556,-0.27542 1.05666,-0.48379 1.48813,-0.48379 21.08417,0 42.16709,0 63.25126,0 1.20761,-6.07253 2.08061,-12.63843 3.46685,-19.04746 -0.22769,0.0634 -0.42644,0.10298 -0.556,0.10179 -40.35064,-0.33889 -81.02203,-0.42391 -121.24562,2.89556 -15.0939,1.2454 -31.68475,1.62381 -45.57355,8.04601 -12.25979,5.66778 -20.61497,14.74244 -27.62038,25.60857 -9.382893,14.55203 -17.461321,29.96388 -24.793797,45.54457 z m 0.109439,54.7797 c 0.943449,-0.23231 1.905765,-0.43469 2.903304,-0.57599 0.654123,-0.0934 1.065467,0.008 1.289379,0.20836 10.990537,0 21.981075,0 32.970355,0 -2.16993,-7.10358 -5.00279,-14.10297 -8.24574,-20.81737 -5.0204,-10.39071 -11.884921,-23.64346 -23.137108,-29.09808 -5.911014,-2.86563 -15.326622,-2.92071 -19.437538,2.91951 -3.519689,4.99957 -2.54102,11.77503 -0.976155,17.25839 3.064319,10.72721 8.678461,20.60301 14.633503,30.10518 z m 38.039818,96.36534 c -5.72359,0 -11.44591,0 -17.169496,0 -0.471724,0.19399 -0.989991,0.28261 -1.418945,0.1892 -0.159757,3.85117 -0.681798,7.69395 -0.880551,11.54392 -0.173595,3.36857 -1.56235,11.5523 1.559834,14.13889 4.351178,3.60329 15.773188,-22.01486 16.671348,-24.87329 0.14089,-0.44308 0.64532,-0.78677 1.23781,-0.99872 z m 231.94976,-1.91481 c -17.24622,-23.12136 -31.61807,-48.17908 -49.34986,-70.96633 -0.96735,-1.243 -1.97999,-2.44409 -3.00268,-3.63441 -3.08319,5.62826 -8.85457,9.25788 -15.53041,10.63741 -6.38777,1.32083 -15.33291,2.27884 -19.97844,-3.36499 -5.33992,-6.48806 -3.61907,-13.39046 1.35478,-19.4594 2.00262,-2.44289 4.09457,-5.03429 6.1148,-7.73586 -2.84418,0.50176 -5.71603,0.92687 -8.60801,1.27055 -0.4189,0.20718 -0.87049,0.35088 -1.23152,0.35088 -0.67425,0 -1.34975,0 -2.02401,0 -7.31109,0.69454 -14.69263,0.79992 -21.92195,0 -8.55015,0 -17.1003,0 -25.6492,0 -0.73966,0.44666 -1.79255,0.59395 -2.40013,0.0671 -0.0251,-0.0227 -0.0428,-0.0455 -0.068,-0.0671 -41.49157,0 -82.9844,0 -124.475969,0 -0.21259,0.0982 -0.446565,0.17243 -0.698151,0.20836 -1.016408,0.1437 -1.997593,0.37122 -2.958653,0.64905 -0.276744,0.13411 -0.581163,0.22991 -0.888098,0.27542 -16.370705,5.50132 -24.345983,29.81179 -21.537024,44.64884 4.46691,23.59078 21.695523,38.22185 44.260275,46.98636 0.10818,0.0419 0.19498,0.0887 0.278,0.13532 82.77056,-8.9e-4 165.54237,-8.9e-4 248.31419,-8.9e-4 z m 40.2022,12.11273 c -7.65199,3.49909 -17.52298,2.92669 -25.88318,1.93636 -0.15347,0.0563 -0.30065,0.11616 -0.49436,0.15687 -4.83172,1.02866 -11.64466,0.86579 -15.93043,3.36737 -5.08582,2.96861 -7.68596,9.61235 -10.01816,14.72329 21.21374,0 42.42747,0 63.64247,0 -0.48556,-7.74903 -3.34358,-17.17816 -11.31634,-20.18389 z m -10.74021,-24.93078 c -4.94996,-10.40988 -9.46341,-21.00298 -13.91271,-31.61284 -3.4417,-8.20888 -7.5828,-16.39979 -10.15653,-24.89725 -3.43666,-11.34873 -6.95007,-24.50568 -21.83768,-24.95593 -2.45798,-0.0743 0.1975,-1.84774 1.46298,-1.80943 2.94356,0.0887 5.5286,0.59995 7.81301,1.46454 0.30568,-0.11615 0.60884,-0.1892 0.86671,-0.1892 8.61934,0 17.23742,0 25.8555,0 11.93272,-0.48618 23.87804,-1.44778 35.42458,-3.89308 6.70225,-1.41904 16.23862,-3.15661 19.53062,-9.71054 4.68957,-9.33572 3.79141,-19.55639 3.55114,-29.60583 -14.75804,2.74707 -30.21675,4.81755 -45.07165,1.59986 -0.0541,-0.012 -0.0906,-0.0275 -0.13837,-0.0419 -0.21888,0.0599 -0.4365,0.11616 -0.64909,0.17364 -5.27827,1.41305 -12.00191,0.49456 -17.44498,0.51134 -15.60965,0.0491 -31.21805,0.0754 -46.82771,0.091 -0.67425,0.36524 -1.56487,0.65983 -2.02904,0.60594 -9.51373,-1.1041 -21.37601,2.38423 -27.4342,9.80035 -6.40915,7.84603 -4.54742,18.43793 -1.35102,27.27909 4.7902,13.24795 15.15177,22.89024 23.2302,34.30961 14.8788,21.03291 28.38142,43.19387 44.03888,63.77054 0.32958,0.0898 0.42015,0.26105 0.35599,0.46463 2.94482,3.85716 5.96008,7.66401 9.08226,11.38943 8.87596,1.16397 21.02631,2.69678 28.2506,-3.32186 -5.70597,-5.90368 -9.19924,-14.25267 -12.60949,-21.42211 z m -33.14521,-80.0853 c 0.0666,0.0431 0.12831,0.0922 0.19498,0.13531 0,-0.0443 0.005,-0.0898 0.0113,-0.13531 -0.0692,0 -0.13711,0 -0.20629,0 z M 470.4193,473.37853 c -0.25536,-3.69428 -0.72457,-7.39337 -0.84155,-11.09604 -0.044,-0.012 -0.0855,-0.0251 -0.12832,-0.0407 -5.64055,0 -11.28237,0 -16.92419,0 1.39128,4.25831 3.20269,8.44836 5.28331,12.43125 1.81645,3.47755 6.52614,13.68625 11.8019,13.62518 1.36234,-0.0144 0.9032,-13.55093 0.80885,-14.91968 z m 43.46904,-62.12757 c 0.76985,-16.14231 -7.09599,-40.85755 -26.56246,-43.61539 -0.30693,-0.0431 -0.54216,-0.11616 -0.71701,-0.21076 -36.55672,0 -73.11344,0 -109.66888,0 -9.97162,0.64425 -19.99355,0.80112 -29.81924,1.03344 -0.0943,0.003 -0.17485,-0.004 -0.26039,-0.01 4.18387,3.22487 6.95509,8.09511 8.87469,13.91976 3.00016,9.1058 6.33116,17.76493 10.0408,26.62764 4.73234,11.30561 9.42693,22.63757 14.61463,33.76355 2.6077,5.59353 5.18897,11.94867 8.62186,17.56734 26.89203,0 53.78407,0 80.67736,0 21.73452,-8.46513 43.03882,-24.7763 44.19864,-49.076 z m -40.66763,50.12502 c 0.0327,1.13523 0.29813,3.11829 0.60129,5.54563 8.30989,0.0192 16.62104,0.0371 24.93092,0.0563 0.0604,-7.03053 0.12202,-14.05986 0.18366,-21.0892 -7.39412,6.49405 -16.35309,11.63852 -25.71587,15.48729 z m 76.22555,25.98937 c -1.03906,-3.99127 -6.54501,-7.35026 -9.38165,-9.81832 -2.51334,-2.18663 -5.21538,-4.6475 -5.87327,-7.88674 -20.01871,-0.0455 -40.03741,-0.091 -60.05611,-0.13652 0.68557,5.98991 1.21642,13.44315 -0.61513,17.67034 25.30956,0.0563 50.61785,0.11376 75.92616,0.17124 z M 275.75207,290.00993 c 0.36983,-4.44513 2.70455,-8.35736 3.71341,-12.6528 0.0994,-0.42392 1.0076,-0.7676 1.8869,-0.91489 0.6818,-0.18082 1.35353,-0.22872 1.62776,0.0192 4.61409,4.17209 15.97446,19.70848 2.53725,20.04139 -4.57384,0.11256 -10.22069,-1.02746 -9.76532,-6.49286 z m 8.23819,4.84509 c 2.77625,0.44787 4.90089,0.17603 4.40527,-2.98537 -0.25536,-1.6322 -0.82143,-3.19733 -1.60009,-4.67145 -1.32837,-2.51595 -2.94859,-4.92892 -4.85813,-7.09879 -2.09823,5.54922 -5.3701,13.55931 2.05295,14.75561 z"
   fill="#012e41"
   inkscape:connector-curvature="0"
   style="stroke-width:1.22734" />
</svg>
