<svg xmlns="http://www.w3.org/2000/svg" width="401.122" height="185.569" viewBox="0 0 401.122 185.569">
    <defs>
        <style>
            .cls-1{fill:#f26240}
        </style>
    </defs>
    <g id="Group_124" transform="translate(-3277 -2080)">
        <g id="Group_123" transform="translate(3208.786 1788.329)">
            <path id="Path_235" d="M177.674 360.511c-3.888.589-9.939 1.666-14.218 2.445-1.488.465-2.982 1-4.486 1.617-.036.015-.074.025-.111.039a.789.789 0 0 1 .438 1.128 9.263 9.263 0 0 1-6.408 5.689 2.389 2.389 0 0 1-1.2.278c-.071-.011-.139-.014-.21-.023a11.147 11.147 0 0 1-2.958-.063 1.831 1.831 0 0 1-.206-.049c-11.146.814-14.406 14.912-7.034 23.172 6.7 7.508 16.868 14.047 27.129 14.746.774.053.941.346.795.676a.746.746 0 0 1 .208.012c3.794.929 7.628-8.915 9.457-11.738 1.85-2.857 6.532-8.189 2.6-11.006-7.222-5.176-16.448-7.108-24.584-10.383-.181-.072 1.962-1.268 2.739-.955 5.616 2.26 11.44 3.961 17 6.379 2.3 1 10.39 3.628 9.344 7.383-.032.115-.073.23-.107.346 3.269 0 6.6 0 9.72-1.09.188-9.215 1.44-18.382 1.406-27.511a113.346 113.346 0 0 0-19.314-1.092z" class="cls-1"/>
            <path id="Path_236" d="M213.474 362.8c.507 3.456.878 6.93 1.08 10.407.48 8.265 1.494 19.583-2.717 27.14-2.8 5.02-7.155 7.639-12.17 8.974 6.651 1.048 13.616.513 20.291.828a148.245 148.245 0 0 0 19.134-.2 132.3 132.3 0 0 1 .436-20.5c1.119-9.823 6.307-19.318 13.38-26.186-13.119-1.287-26.28-.563-39.434-.463z" class="cls-1"/>
            <path id="Path_237" fill="#012e41" d="M468.718 402.459l.143-2.058c.893-7.851.713-16.108-2.165-23.293a35 35 0 0 0-23.348-21.186 33.987 33.987 0 0 0-5.413-.987 35.1 35.1 0 0 0-10.875.654 38.882 38.882 0 0 0-5.329 1.564 8.339 8.339 0 0 0 1.839-5.788 18.691 18.691 0 0 0-.418-3.462c-3.917-9.643-5.36-12.124-6.648-14.235q-.889-1.458-1.776-2.924c.343-.162.6-.373.641-.611 5.778-34.556-42.337-36.367-64.8-37.7-26.1-1.547-52.081-.07-78.155.182a2.03 2.03 0 0 0-.436-.043c-26.93-.053-53.741-1.725-80.686-.38-14.7.733-29.684 1.956-43.917 5.915-7.465 2.077-18.213 5.753-20.628 14.143a28.893 28.893 0 0 0-8.927 2.732c-3.821 1.432-7.089 3.771-8.771 7.453-2.648 4.041-3.98 9.328-4.3 14.4a14.94 14.94 0 0 0 .162 6.727c.034.289.063.582.1.863.885 6.091 4.459 9.567 9.058 11.894a43.728 43.728 0 0 0-11.735-1.755c-15.777-.2-29.442 13.206-32.9 27.985-5.1 21.785 7.182 42.161 10.722 63.015.858 5.06 1.512 10.154 2.063 15.256.362 3.359.027 7.142 1.548 10.234 2.163 4.4 8.731 5.348 12.989 5.813 6.97.761 14.1.135 21.059-.468 1.665-.144 14.613-2.142 15.171-.941.61 1.315 3.481.481 2.9-.777a2.491 2.491 0 0 0-1.363-1.207 1.049 1.049 0 0 0 .318-.639c.018-.188.029-.374.047-.562a2.079 2.079 0 0 0 .469.052h266.69a1.739 1.739 0 0 0 .731-.158c.035.385.061.771.1 1.156a.75.75 0 0 0 .138.371 2.7 2.7 0 0 0-1.147 1.188c-.712 1.532 2.218 1.587 2.782.373-.271.584.759.159 1.615.146 1.3-.02 2.608.09 3.9.184 3.655.264 7.3.654 10.953.961 7.269.611 14.87 1.212 22.1-.058 4.425-.776 10.471-2.639 11.465-7.78.867-4.476.874-9.242 1.436-13.777.744-6.006 1.713-11.987 2.953-17.911 2.1-10.008 6.717-19.091 8.642-29.2.185-.963.997-4.366 1.003-5.361zM152.568 298.27c14.37-3.346 29.377-4.211 44.073-4.771 24.771-.942 49.443.616 74.2.665a1.819 1.819 0 0 0 .575-.116c23.834-.239 47.6-1.507 71.458-.507 15.123.633 30.583 1.754 45.259 5.67 5.4 1.441 10.894 3.318 15.187 7a26.635 26.635 0 0 1 9.48 21.379c-1.529-2.478-3.09-4.937-4.756-7.316-2.31-3.3-6.739-9.521-11.271-5.771-2.738 2.267-1.879 8.238-1.523 11.174.88 7.256 3.534 14.053 3.407 21.453 0 .1.089.17.235.211l-.112.857c-5.353 2.865-11.306 5.716-17.471 8.33a2.919 2.919 0 0 0-1.073.45 186.714 186.714 0 0 1-21.59 7.6c-10.47 2.913-21.158 5.064-31.8 7.246-1.382.283-9.343.94-12.393 2.521a2.206 2.206 0 0 0-.295-.071c-.633-.105-1.267-.186-1.9-.26a.826.826 0 0 0 .1-.169 142.659 142.659 0 0 0 9.785-31.688c1.518-8.2 3.254-21.1-5.64-25.893-7-3.77-15.443 2.975-20.378 7.23-7.54 6.5-13.153 15.024-20.743 21.4a1.129 1.129 0 0 0-.479.739c-6.412 5.093-13.553 10.208-19.247 16.263a1.418 1.418 0 0 0-.644-.192c-13.894-1.482-27.839-.6-41.774-.538a112.966 112.966 0 0 0-4.912-19.43c1.653-7.893 3.17-21.844-7.515-22.428a2.117 2.117 0 0 0-.342.018c-.655-4.163-1.211-8.342-2-12.479-.025-.134-.155-.216-.344-.258a.583.583 0 0 0-.317-.447c-5.4-3.482-6.981 3.02-6.884 7.115.164 6.943 1.784 13.639 2.666 20.477a8 8 0 0 0-2.229.176c-6.739 1.806.572 9.33 3.426 10.953a.6.6 0 0 0 .153.059 61.165 61.165 0 0 1 2.037 15.115c-13.042-1.512-24.883-1.7-37.271 2.956a1.035 1.035 0 0 0-.121-.229c-4.553-6.538 4.826-9.81 5.818-15.956.691-4.279-2-8.8-4.558-12.045 1.934-1.78 4.293-3.382 4.378-6.225.012-.417-1.028-.337-1.22-.3a27.7 27.7 0 0 0-3.552.974 5.842 5.842 0 0 1-6.787-1.835c-1.932-2.109-3.265-4.689-5.185-6.814a12.856 12.856 0 0 0 1-1.981c.165-.422-.536-.526-1.292-.407-1.991-6.072-11.295-6.239-16.536-6.26-.688 0-1.373.022-2.055.059 2.521-8.996 15.189-11.893 22.972-13.704zm162.008 77.872a2.18 2.18 0 0 0 1.523-.8 1.037 1.037 0 0 1-.462.463c.083-.031.213-.072.456-.135.5-.128 1.009-.238 1.515-.351 1.519-.342 3.044-.651 4.568-.965 4.495-.928 8.994-1.838 13.485-2.785 9.747-2.053 19.487-4.234 29.022-7.139a135.8 135.8 0 0 0 15.525-6.074c1.971 4.506 4.472 8.893 4.716 13.885-11.227 5.39-22.333 11.075-33.637 16.253-7.2 3.3-14.416 6.585-21.7 9.7-3.313 1.416-6.648 2.791-10.039 4.008-1.419.51-3.574 1.559-5.178 1.395 1.16-9.075.296-18.334.206-27.455zm68.342-18.991l3.186-1.422c4.84-2.141 9.85-4.149 14.522-6.65.023.012.043.021.067.035-.33.184-.541.346-.46.379 4.876 1.961 7.605 8.6 5.53 13.436a1.776 1.776 0 0 0-.459.118c-5.909 2.443-11.73 5.1-17.517 7.845-.412-4.913-2.948-9.258-4.869-13.741zm-224.059 7.461c.037-.014.075-.024.111-.039 1.5-.62 3-1.152 4.486-1.617a56.388 56.388 0 0 1 14.218-2.445 113.346 113.346 0 0 1 19.319 1.092c.034 9.129-1.218 18.3-1.406 27.511-3.115 1.093-6.451 1.09-9.72 1.09.034-.116.075-.231.107-.346 1.046-3.755-7.039-6.381-9.344-7.383-5.56-2.418-11.384-4.119-17-6.379-.777-.313-2.92.883-2.739.955 8.136 3.275 17.362 5.207 24.584 10.383 3.929 2.817-.753 8.149-2.6 11.006-1.829 2.823-5.663 12.667-9.457 11.738a.746.746 0 0 0-.208-.012c.146-.33-.021-.623-.795-.676-10.261-.7-20.427-7.238-27.129-14.746-7.372-8.26-4.112-22.358 7.034-23.172a1.831 1.831 0 0 0 .206.049 11.147 11.147 0 0 0 2.958.063c.071.009.139.012.21.023a2.389 2.389 0 0 0 1.2-.278 9.263 9.263 0 0 0 6.408-5.689.789.789 0 0 0-.443-1.128zm35.088-28.73a7.362 7.362 0 0 0 5.422-.6c5.344-3.087 1.475-9.233 2.044-14.208 6.5 2 5.542 12.923 4.339 19.495a.982.982 0 0 0-.579 1.187c.075.21.145.426.219.637-.072.342-.144.669-.211.965-.076.335.255.485.715.5 5.5 16.236 8.053 35.076 4.682 51.906-3.11 15.529-22.97 12.51-35.111 12.422a15.809 15.809 0 0 0 1.527-2.16c2.684-4.537 6.619-9.58 8.481-14.65a36.1 36.1 0 0 0 10.1-1.27c-.009.757-.018 1.514-.01 2.271.013 1.312 2.919.723 2.908-.322-.174-16.217 3.8-32.266-.717-48.231-.113-.4-.56-.551-1.07-.533a16.885 16.885 0 0 1-3.426-2.906c-1.513-1.619-3.037-5.637.687-4.503zm-.105-24.718a15.033 15.033 0 0 1 .4-3.156c.332-1.4.132-1.125 1.275-.389.016.009.036.015.053.025 1.1 5.773 1.74 11.63 2.841 17.4a.253.253 0 0 0 .083.135c.192 1.572.55 3.145.789 4.732.459 3.049-.877 3.762-2.7 3.876-.542-4.439-1.517-8.838-2.1-13.276a61 61 0 0 1-.641-9.347zm20.711 62.046c-.2-3.477-.573-6.951-1.08-10.407 13.155-.1 26.316-.828 39.433.467-7.073 6.868-12.261 16.363-13.38 26.186a132.421 132.421 0 0 0-.435 20.5 148.239 148.239 0 0 1-19.134.2c-6.675-.315-13.64.22-20.291-.828 5.015-1.335 9.373-3.954 12.17-8.974 4.211-7.561 3.197-18.879 2.717-27.144zm27.429 37.2c.632.268 1.273.511 1.919.736h-2.978a1.618 1.618 0 0 0 1.059-.74zm-41.493.736H171.3h.006c.232-.075.452-.172.674-.268a8 8 0 0 0 1.144-.593 1.778 1.778 0 0 0 .664.1c6.334-.1 14.087.7 21.161-.167a43.549 43.549 0 0 0 5.54.924zm-63.122-16.614c2.678 3.67 6.634 6.669 10.07 9.078 5.555 3.9 12.2 6.874 19.01 7.536H137.02c.268-5.546.505-11.083.347-16.618zm263.286 18.6c.152 3.072.307 6.145.424 9.213H136.563c.075-3.07.211-6.141.361-9.213zm-158.7-5.4a158.832 158.832 0 0 1 .261-16.432 43.163 43.163 0 0 1 11.486-26.128 3.629 3.629 0 0 0 2.063-.6c5.528-6.773 13.073-12.318 20.018-17.749a76.613 76.613 0 0 0 7.668 7.1c4.838 3.829 12.077 5.158 17.811 7.051a9.611 9.611 0 0 0-.313 1.359c-1.605 3.732-2.969 7.567-4.324 11.4-1.411.075-1.965 1.7-.728 2.057-2.259 6.364-4.627 12.676-8.213 18.455-8.762 14.128-30.922 21.328-45.733 13.487zm42.516-6.02c7.549-6.59 11.151-16.252 14.427-25.876a90.148 90.148 0 0 1 12.794.354.288.288 0 0 0-.015.063c.053 9.647 1.053 19.459-.329 29.054-4.246-.14-9.186 1.143-13.12 1.528-8.155.8-16.344 1.594-24.542 1.824a45.808 45.808 0 0 0 10.781-6.947zm25.149-28.093a.942.942 0 0 0-.047.149c-3.308-.21-6.621-.136-9.946-.078 1.056-3.124 2.114-6.212 3.283-9.171.654-.226 1.178-.713 1-1.311a2.541 2.541 0 0 1-.076-.917c.178-.415.348-.836.533-1.243a.641.641 0 0 0-.061-.763c.784-2.278 2.3-4.96 2.829-6.19 1.876-4.383 4.056-8.872 7.2-12.49 1.2-1.38-1.578-1.785-2.416-.82-3.533 4.063-5.871 9.082-7.973 13.993-.435 1.014-1.35 2.725-2.066 4.479-5.669-1.756-11.851-3.295-16.5-6.971a71.209 71.209 0 0 1-7.341-6.953c5.178-4.545 9.469-10.17 14.225-15.128 4.786-4.99 14.72-16.29 22.618-12.036 8.544 4.6 5.322 19.4 3.862 26.772a136.962 136.962 0 0 1-9.128 28.678zM146.347 319.54c-.137.3-.275.6-.435.885a5.49 5.49 0 0 0 .212-.864c.076-.005.145-.011.223-.021zm-5.041-4.771a23.09 23.09 0 0 0-4.978-1.4 17.52 17.52 0 0 1 4.978 1.4zm-9.954 37.376c.139-.006.281-.02.423-.038a3.713 3.713 0 0 0 2.39-.557c5.272-5.916 1.608-14.325-3.709-18.918 5.194-2.646 12.148-5.19 16.316-9.787 2.066 2.684 3.683 5.845 6.579 7.682 2.78 1.764 6 .274 8.88-.578-.353 1.73-1.854 2.93-3.187 4.084-.916.2-1.727.936-1.127 1.68a23.063 23.063 0 0 1 4.093 7.272c1.688 5.005-1.384 7.336-4.287 10.675-2.929 3.369-3.388 6.672-.784 10.411a1.029 1.029 0 0 0 .162.179c-.065.162.042.293.249.381a1.38 1.38 0 0 0-.836.731 6.044 6.044 0 0 1-7.006 4.075 1.806 1.806 0 0 0-1.55.6 18.379 18.379 0 0 0-2.307.471c-3.082-3.964-6.837-8.134-11.182-10.605a.887.887 0 0 0-.437-.084c.035-.031.075-.06.109-.09.481-.432-.43-.422-.664-.4a3.68 3.68 0 0 0-1.945.672 9.418 9.418 0 0 1-1.089.873c-.124.083-.516.221-.544.267a2.477 2.477 0 0 1-1.137-.412 4.053 4.053 0 0 1-1.644-2.687 4.765 4.765 0 0 1 4.234-5.897zm-.865-.716c.872-.527 1.6-1.016 2.163-1.412a9.418 9.418 0 0 1-.784 1.156 14.01 14.01 0 0 0-1.379.256zm3.666 57.071c-1.2 21.488-.192 43.049-2.251 64.495a47.629 47.629 0 0 0-6.225.522c-7.627.625-15.228 1.5-22.894 1.445-5.47-.035-15.632-.212-16.97-7.127-.913-4.725-.883-9.8-1.5-14.583-.769-5.96-1.759-11.9-3.046-17.766-2.207-10.066-6.834-19.171-8.626-29.421-1.8-10.318-2.319-21.724 2.56-31.286 4.313-8.452 11.94-15.163 21.23-17.4 11.6-2.8 25.478 2.649 31.958 12.551 7.188 10.986 6.465 26.04 5.764 38.57zm-5.785-43.445a23.791 23.791 0 0 0-3.268-3.155l1.341.149s-.069-.1-.177-.271c1.644.766 3.933.287 5.818-.672 4.2 2.49 7.869 6.549 10.847 10.4a15.008 15.008 0 0 0-7.533 7.589 35.463 35.463 0 0 0-7.028-14.04zm273.973 105.288H135.65a1.761 1.761 0 0 0-.61.108c1.321-15.343 1.217-30.739 1.476-46.126h264.63c.036 1.152.069 2.3.086 3.456.214 14.21.206 28.413 1.393 42.58a2.473 2.473 0 0 0-.284-.018zm-2.041-75.312c-.178 5.358.008 10.734.26 16.111H267.124q1.451-.428 2.871-.951c8.04-.107 16.071-.83 24.071-1.572 3.766-.349 7.528-.732 11.291-1.107q2.012-.2 4.024-.39.865-.081 1.731-.14c.172-.012.276-.014.354-.013.814.317 2.782-.353 2.57-1.091v-.036c3.5.155 7.746-2.168 10.751-3.351 7.881-3.1 15.59-6.648 23.3-10.156 19.594-8.921 38.634-19.291 58.52-27.509a1.659 1.659 0 0 0 .589-.385 1.065 1.065 0 0 0 .388-.273c.118-.151.211-.314.317-.47a1.778 1.778 0 0 0 .387-.111c1.553-.7 3.26-1.252 4.951-1.819a26.166 26.166 0 0 0-6.646 7.324c-4.7 7.822-6 16.957-6.293 25.939zm61.821 23.834c-1.281 4.168-3.274 8.04-4.486 12.232a133.337 133.337 0 0 0-3.244 15.585c-.888 5.438-1.558 10.913-2.088 16.4-.373 3.86.024 7.446-3.756 9.581-8.24 4.651-21.188 2.2-30.1 1.393-2.062-.186-8.432-1.609-12.712-1.124a1.01 1.01 0 0 0 .042-.378c-1.624-16.877-1.355-33.827-1.7-50.758-.224-10.959-1.432-21.916-.486-32.87.913-10.569 4.422-21.587 13.924-27.411a31.245 31.245 0 0 1 33.975.7c18.474 12.885 16.498 37.557 10.629 56.65z"/>
            <path id="Path_238" d="M144.983 331.753a6.571 6.571 0 0 1 1.882-1.633.9.9 0 0 0 .156-1.5 1.916 1.916 0 0 0-2.078.176 8.584 8.584 0 0 0-2.385 2.1c-1.058 1.517 1.664 1.945 2.425.857z"/>
            <path id="Path_239" d="M150 343.388a2.667 2.667 0 0 0-2.049.549c-.483.4-.314.8.25.932a7.747 7.747 0 0 0 4.922-.475c.284-.132 1.263-.633.794-1.083-.44-.423-1.43-.2-1.906.017a3 3 0 0 1-2.011.06z"/>
            <path id="Path_240" d="M149.344 335.3c.568.568 3.248-.493 2.722-1.02l-1.867-1.867c-.569-.568-3.248.495-2.722 1.02z"/>
            <path id="Path_241" d="M315.637 375.809c-.138.049-.111.054 0 0z"/>
            <path id="Path_242" d="M124.716 355.221a5.387 5.387 0 0 1 .565-.858 2.863 2.863 0 0 0-.565.858z"/>
        </g>
    </g>
</svg>
