<?xml version="1.0" encoding="UTF-8" standalone="no"?>
<svg
   xmlns:dc="http://purl.org/dc/elements/1.1/"
   xmlns:cc="http://creativecommons.org/ns#"
   xmlns:rdf="http://www.w3.org/1999/02/22-rdf-syntax-ns#"
   xmlns:svg="http://www.w3.org/2000/svg"
   xmlns="http://www.w3.org/2000/svg"
   xmlns:sodipodi="http://sodipodi.sourceforge.net/DTD/sodipodi-0.dtd"
   xmlns:inkscape="http://www.inkscape.org/namespaces/inkscape"
   inkscape:version="1.0beta2 (2b71d25, 2019-12-03)"
   sodipodi:docname="fs-how-eligibility.svg"
   id="svg1989"
   version="1.1"
   viewBox="0 0 512.00001 512.00001"
   height="512"
   width="512">
  <metadata
     id="metadata1995">
    <rdf:RDF>
      <cc:Work
         rdf:about="">
        <dc:format>image/svg+xml</dc:format>
        <dc:type
           rdf:resource="http://purl.org/dc/dcmitype/StillImage" />
        <dc:title></dc:title>
      </cc:Work>
    </rdf:RDF>
  </metadata>
  <defs
     id="defs1993" />
  <sodipodi:namedview
     inkscape:current-layer="svg1989"
     inkscape:window-maximized="1"
     inkscape:window-y="23"
     inkscape:window-x="0"
     inkscape:cy="191.45576"
     inkscape:cx="146.3143"
     inkscape:zoom="1.1699831"
     showgrid="false"
     id="namedview1991"
     inkscape:window-height="1005"
     inkscape:window-width="1680"
     inkscape:pageshadow="2"
     inkscape:pageopacity="0"
     guidetolerance="10"
     gridtolerance="10"
     objecttolerance="10"
     borderopacity="1"
     inkscape:document-rotation="0"
     bordercolor="#666666"
     pagecolor="#ffffff" />
  <g
     transform="matrix(1.4902767,0,0,1.477935,10.259389,70.086675)"
     id="g1987">
    <path
       inkscape:connector-curvature="0"
       id="path1983"
       transform="translate(-77.94,-127.625)"
       d="m 260.479,185.737 a 0.585,0.585 0 0 1 0.164,0.324 L 260.6,186 a 0.47,0.47 0 0 0 -0.121,-0.263 z m 80.837,-29.362 v 56.761 h -93.25 v -56.762 z m -80.647,29.719 c 0.036,-0.032 0.14,-0.184 0.476,-0.539 0.663,-0.7 1.356,-1.367 2.043,-2.041 1.986,-1.947 4,-3.871 5.984,-5.815 1.706,-1.67 3.406,-3.348 5.021,-5.107 0.477,-0.52 1.96,-1.817 1.645,-2.685 -0.335,-0.923 -2.286,-0.379 -1.958,0.525 0.082,0.227 -2.225,2.491 -2.633,2.917 -1.8,1.874 -3.671,3.681 -5.533,5.492 -1.62,1.575 -3.251,3.141 -4.861,4.727 -0.625,0.616 -1.988,1.566 -2.239,2.469 a 1.191,1.191 0 0 0 -0.039,0.2 0.447,0.447 0 0 0 0,0.22 c 0.224,0.8 1.335,1.581 1.889,2.133 1.7,1.7 3.449,3.363 5.176,5.039 1.865,1.81 3.723,3.627 5.533,5.493 0.477,0.493 2.769,2.939 2.755,2.975 -0.376,1.037 1.583,0.957 1.862,0.186 0.308,-0.849 -0.758,-1.761 -1.251,-2.323 -1.661,-1.9 -3.5,-3.646 -5.294,-5.411 -1.862,-1.828 -3.746,-3.636 -5.616,-5.457 -0.735,-0.716 -1.467,-1.436 -2.186,-2.168 -0.2,-0.206 -0.4,-0.416 -0.6,-0.628 -0.079,-0.088 -0.133,-0.153 -0.174,-0.203 z M 301.45,167.77 c -1.19,0.347 -0.859,1.618 0.34,1.267 -1.55,0.453 -0.85,-1.006 -1.3,0.082 -0.214,0.522 -0.46,1.033 -0.7,1.543 -0.7,1.487 -1.446,2.956 -2.185,4.426 -2.151,4.276 -4.34,8.533 -6.487,12.81 -0.747,1.49 -8.417,14.8 -6.122,15.822 0.773,0.346 2.271,-0.764 1.144,-1.267 0.522,0.234 0.742,-1.383 1.014,-2.066 0.694,-1.741 1.5,-3.44 2.306,-5.133 2.075,-4.38 4.281,-8.7 6.475,-13.019 1.869,-3.68 3.77,-7.345 5.561,-11.063 0.321,-0.657 2.315,-4.092 -0.046,-3.402 z m 29.734,18.31 a 0.319,0.319 0 0 0 -0.009,-0.139 v -0.04 c -0.226,-0.816 -1.331,-1.589 -1.894,-2.152 -1.6,-1.6 -3.243,-3.166 -4.87,-4.743 -1.968,-1.908 -3.931,-3.821 -5.841,-5.788 -0.621,-0.641 -1.229,-1.294 -1.818,-1.965 -0.3,-0.338 -0.8,-1.31 -0.923,-0.958 0.394,-1.086 -1.57,-1.112 -1.881,-0.255 -0.7,1.941 5.128,6.38 6.255,7.488 1.885,1.85 3.786,3.682 5.68,5.522 0.816,0.793 1.628,1.589 2.425,2.4 0.2,0.206 0.4,0.416 0.6,0.628 0.106,0.115 0.164,0.184 0.2,0.236 -0.031,0.037 -0.069,0.082 -0.124,0.143 -0.191,0.215 -0.395,0.42 -0.6,0.628 -0.714,0.737 -1.452,1.451 -2.186,2.168 -1.867,1.824 -3.75,3.632 -5.616,5.457 -1.706,1.67 -3.406,3.348 -5.021,5.107 -0.451,0.492 -1.958,1.81 -1.658,2.637 0.308,0.85 2.256,0.3 1.958,-0.525 -0.122,-0.335 2.226,-2.553 2.621,-2.965 1.8,-1.875 3.67,-3.682 5.533,-5.493 1.727,-1.678 3.465,-3.344 5.176,-5.039 a 8.776,8.776 0 0 0 1.874,-2.037 0.681,0.681 0 0 0 0.119,-0.315 z M 223.96,193.312 H 121.249 V 131.6 h 102.71 v 61.715 z m -59.918,-10.665 h -35.369 c -0.866,0 -2.031,1.316 -0.707,1.316 h 35.369 c 0.865,0 2.032,-1.315 0.707,-1.315 z m 51.58,0 h -42 c -0.866,0 -2.031,1.316 -0.707,1.316 h 42 c 0.866,0 2.031,-1.315 0.708,-1.315 z m 0.737,-14.154 h -87.686 c -0.866,0 -2.031,1.316 -0.707,1.316 h 87.686 c 0.867,0.001 2.031,-1.316 0.707,-1.316 z m -88.393,-13.85 h 35.369 c 0.866,0 2.031,-1.316 0.707,-1.316 h -35.369 c -0.866,0 -2.031,1.316 -0.707,1.316 z m 44.948,0 h 42 c 0.866,0 2.031,-1.316 0.707,-1.316 h -42 c -0.866,0 -2.031,1.316 -0.707,1.316 z m 43.445,-15.471 h -87.686 c -0.866,0 -2.031,1.316 -0.707,1.316 h 87.686 c 0.867,0 2.031,-1.316 0.707,-1.316 z m -93.153,197.4 a 31.406,31.406 0 0 1 -3.142,-9.638 21.821,21.821 0 0 0 3.142,9.635 z m 94.93,-34.295 a 10.331,10.331 0 0 0 4.618,-1.566 29.947,29.947 0 0 1 -4.618,1.564 z m 3.443,4.2 a 20.9,20.9 0 0 0 -5.278,1.2 c 1.499,-0.394 3.25,-0.805 5.278,-1.198 z m 33.911,-24.642 c -4.519,-0.046 -10.044,-0.509 -12.949,-4.23 a 0.886,0.886 0 0 1 -0.772,-0.246 c -0.041,-0.049 -0.082,-0.1 -0.122,-0.153 -6.42,9.311 -12.876,28.506 -27.051,25.721 -0.32,-0.063 -0.626,-0.149 -0.934,-0.233 a 6.908,6.908 0 0 1 -2.564,-0.966 c -5.35,-2.627 -8.9,-8.325 -12.188,-13.145 -0.968,-1.419 -2.1,-3.281 -3.387,-5.205 -1.29,-1.744 -2.667,-3.569 -3.813,-5.007 a 18.2,18.2 0 0 0 -3.591,-3.14 c -1.253,-0.455 -3.111,-1.05 -4.592,-1.512 -0.246,0 -0.494,0 -0.745,0.023 -0.634,0.054 -0.57,-0.131 -0.278,-0.341 l -0.8,-0.245 a 4.967,4.967 0 0 0 -2.468,1.762 c 0.466,2.7 0.981,13.585 -4.693,11.374 -3.171,-1.236 -5.232,-5.59 -5.839,-8.74 a 30.263,30.263 0 0 1 -0.184,-10.139 c -0.494,-0.1 -1.138,-0.227 -1.744,-0.327 q -0.751,-0.105 -1.5,-0.172 c -0.78,0 -5.261,0.176 -8.864,0.519 a 35.582,35.582 0 0 0 -17.658,9.9 c -0.982,0.978 -1.922,2 -2.837,3.053 l -7.489,10.753 a 56.136,56.136 0 0 0 -6.931,23.429 c -0.424,7.1 -0.207,14.942 3.255,21.359 3.725,6.906 10.387,10.742 17.841,12.341 1.285,0.218 2.709,0.454 4.174,0.689 12.854,1.626 26.259,-0.771 38.583,-4.347 1.254,-0.364 2.506,-0.737 3.744,-1.151 0.253,-0.737 0.488,-1.481 0.695,-2.232 l 0.026,-0.1 c 0.407,-2.157 0.989,-5.2 1.525,-7.881 a 28.2,28.2 0 0 0 -0.7,-10.353 c -0.328,-0.14 -0.487,-0.389 -0.189,-0.677 -0.207,-0.67 -0.457,-1.331 -0.734,-1.985 -5.739,3.506 -12.945,5.2 -19.46,6.245 -6.431,1.032 -15.2,2.206 -21.111,-1.395 -5.832,-3.549 -4.654,-11.282 -3.168,-16.933 1.792,-6.816 4.9,-13.134 6.952,-19.85 0.237,-0.776 2.231,-1.025 1.975,-0.184 -1.735,5.688 -4.36,11.068 -6.08,16.767 -1.48,4.9 -4.285,13.678 0.167,17.893 4.99,4.726 14.471,3.52 20.6,2.535 a 69.953,69.953 0 0 0 13.458,-3.28 c -3.117,-9.678 -1.087,-18.652 0.956,-28.346 0.187,-0.887 2.193,-1.124 1.985,-0.143 -2,9.469 -4.021,18.257 -1.056,27.722 a 29.284,29.284 0 0 0 4.384,-2.362 1.514,1.514 0 0 1 1.259,-0.093 c 0.366,-0.052 0.7,0 0.8,0.219 a 20.9,20.9 0 0 1 0.818,2.043 c 9.774,-6.39 20.048,-16.614 32.342,-15.961 a 1.529,1.529 0 0 1 0.224,0.028 c 5.172,-0.808 10.454,3.067 14.027,6.36 0.322,0.3 0.659,0.617 1,0.947 l 0.092,0.05 a 49.066,49.066 0 0 0 11.123,-13.783 c 2.857,-5.032 5.544,-10.73 5.538,-16.636 l -0.039,0.013 c -0.627,0.195 -1.703,0.068 -1.012,-0.25 z"
       fill="#f26240" />
    <path
       inkscape:connector-curvature="0"
       id="path1985"
       transform="translate(-57.728,-125.719)"
       d="m 158.408,250.968 c -0.014,-1.512 -0.316,-3.77 -2.33,-3.405 -0.18,0.032 -0.949,0.074 -0.818,-0.317 0.131,-0.391 0.78,-0.544 1.129,-0.607 a 3.379,3.379 0 0 1 3.052,0.578 4.64,4.64 0 0 1 0.925,3.225 c 0.006,0.674 -1.954,1.014 -1.958,0.526 z m 31.8,13.222 c 2.641,-1.766 2.582,-5.07 2.139,-7.891 -0.136,-0.866 -2.1,-0.377 -1.958,0.525 0.34,2.164 0.62,5.132 -1.465,6.526 -1.102,0.74 0.523,1.35 1.288,0.84 z m -6.193,6.887 a 1.625,1.625 0 0 0 1.385,-0.371 c 0.086,-0.086 0.172,-0.172 0.261,-0.255 0.027,-0.026 0.253,-0.21 0.178,-0.156 0.038,-0.026 0.077,-0.049 0.116,-0.073 l 0.041,-0.017 h 0.043 a 1.573,1.573 0 0 0 1.29,-0.543 c 0.249,-0.382 -0.209,-0.617 -0.54,-0.609 a 4.141,4.141 0 0 0 -2.967,1.3 c -0.289,0.289 -0.222,0.629 0.197,0.724 z m -116.164,-4.74 c -0.78,-0.022 -2.072,1.136 -0.745,1.173 11.73,0.334 12.735,17.615 13.628,26.163 1.756,16.807 7.27,32.914 7.387,49.948 0.006,0.866 1.968,0.46 1.963,-0.226 -0.122,-17.745 -5.7,-34.67 -7.6,-52.2 -0.977,-9.057 -2.684,-24.517 -14.629,-24.858 z m 229.916,51.236 c 1.922,3.9 -4.836,8.106 -7.312,9.738 -7.183,4.732 -15.058,8.433 -22.879,11.968 -8.957,4.049 -18.044,7.8 -27.151,11.5 -5.389,2.187 -11.022,4.121 -16.194,6.8 a 1.131,1.131 0 0 1 -0.933,0.064 6.446,6.446 0 0 1 -2.508,0.538 c -4.9,0.2 -9.607,-0.97 -14.388,-1.857 -3.027,-0.562 -6.085,-0.838 -9.1,-1.447 -6.118,-1.235 -12.193,-2.692 -18.262,-4.145 q -2.445,-0.586 -4.887,-1.18 c -1.695,-0.414 -1.09,-5.736 -0.9,-6.826 -0.566,-0.234 -0.545,-0.973 0.381,-1.172 a 155.866,155.866 0 0 0 29.183,-9.244 8.033,8.033 0 0 1 -1.438,-1.081 c -2.45,-2.282 -4.292,-7.125 -7.731,-8.064 -5.083,-1.388 -8.577,7.251 -10.64,10.466 -2.648,4.126 -6.116,6.433 -11.092,6.574 a 1.193,1.193 0 0 1 -0.443,-0.061 5.323,5.323 0 0 1 -0.831,1.543 c -0.732,0.882 -2.983,1.146 -3.976,1.442 -3.463,1.032 -6.964,1.943 -10.5,2.694 -12.811,2.723 -27.713,4.753 -40.3,-0.026 A 23.455,23.455 0 0 1 102.987,334.666 31.405,31.405 0 0 1 99.845,325.028 55.424,55.424 0 0 1 99.39,312.12 c 1.324,-18.794 14.433,-40.153 32.715,-46.432 a 0.5,0.5 0 0 1 -0.285,-0.3 c -1.287,-3.941 -2.3,-8.022 -4.088,-11.779 -1.149,-2.414 -3.281,-6.966 -6.417,-7.234 -4.15,-0.355 -8.556,0.582 -12.71,1.57 -0.025,0.109 -0.044,0.219 -0.072,0.328 -0.118,0.455 -2.013,0.707 -1.926,0.367 0.02,-0.075 0.034,-0.153 0.052,-0.228 -0.357,0.086 -0.714,0.171 -1.066,0.253 -6.577,1.545 -13.1,3.346 -19.551,5.353 -2.642,0.822 -5.421,1.582 -8.085,2.556 a 8.336,8.336 0 0 1 -4.091,1.768 c -0.041,0.022 -0.084,0.04 -0.125,0.061 a 1.161,1.161 0 0 1 -1.01,0.054 c -0.1,0.006 -0.193,0.011 -0.291,0.014 -13.4,5.326 -13.6,22.874 -12.219,35.463 a 231.422,231.422 0 0 0 5.312,29.927 c 0.872,3.561 1.706,7.137 2.751,10.652 0.668,2.247 1.418,6.658 3.565,8.037 0.856,0.549 -0.926,1.415 -1.538,1.022 -2.252,-1.447 -3.058,-5.419 -3.757,-7.766 -1.183,-3.977 -2.129,-8.012 -3.131,-12.037 A 197.929,197.929 0 0 1 57.975,291.447 C 56.997,279.015 58.43,264.202 69.97,258.288 55.58,255.459 55.37,223.027 64.904,223.51 a 1.193,1.193 0 0 1 0.987,-0.439 c 9.056,-4.128 22.213,-10 31.029,-3.851 4.42,3.083 7.314,8.452 9.262,13.345 1.736,4.363 3.336,9.388 2.651,14.157 0.168,-0.035 0.335,-0.073 0.5,-0.107 4.175,-0.857 9.992,-2.657 14.221,-1.186 2.944,1.024 4.956,5.012 6.132,7.654 a 120.628,120.628 0 0 1 4.088,11.778 0.427,0.427 0 0 1 -0.019,0.311 32.784,32.784 0 0 1 14.619,-0.843 l 0.016,-0.012 c 0.049,-0.033 0.095,-0.07 0.144,-0.1 a 1.1,1.1 0 0 1 0.583,-0.421 43.368,43.368 0 0 0 6.055,-5.72 c -2.12,0.523 -4.312,0.2 -5.6,-2.023 a 10.362,10.362 0 0 1 0.592,-11.109 12.09,12.09 0 0 1 2.857,-2.722 l -0.51,0.16 0.041,-0.568 c -0.266,-0.045 -0.46,-0.181 -0.458,-0.441 0.076,-12.669 3.8,-27.016 16.664,-32.453 a 22.51,22.51 0 0 1 6.912,-1.71 8.562,8.562 0 0 1 2.682,-0.057 21.317,21.317 0 0 1 15.886,8.062 c 0.342,-2.169 1.7,-3.946 4.545,-3.215 5.043,1.3 6.22,7.678 4.358,11.935 a 10.287,10.287 0 0 1 -3.075,4.036 2.775,2.775 0 0 1 -1.132,0.774 c -6.316,3.771 -16.713,1.463 -23.759,0.659 a 26.641,26.641 0 0 1 -1.854,8.7 c -0.062,0.194 -0.127,0.382 -0.2,0.559 a 6.12,6.12 0 0 1 -0.516,0.979 18,18 0 0 1 -6.245,6.948 c 2.375,0.553 4.685,1.407 7.118,1.774 0.107,-3.772 1,-7.887 3.038,-10.611 a 2.125,2.125 0 0 1 1.541,-0.422 c 7.236,-4.138 10.386,3.948 9.559,11.045 h 4.135 a 0.957,0.957 0 0 1 0.113,0.007 22.66,22.66 0 0 1 3.121,-10.175 1.873,1.873 0 0 1 1.308,-0.458 8.325,8.325 0 0 1 1.458,-0.809 c -0.08,-2.391 -0.158,-4.7 -0.165,-6.856 0,-0.769 1.969,-1.133 1.972,-0.194 0.007,2.2 0.053,4.4 0.1,6.608 2.238,-0.05 3.9,1.727 4.288,5 0.508,4.239 0.266,11.807 -3.64,14.623 a 8.7,8.7 0 0 1 -1.6,0.917 c -0.869,5.2 -2.5,10.44 -6.014,14.318 -5.126,5.663 -12.408,7.214 -19.531,4.494 -0.048,-0.018 -0.1,-0.041 -0.145,-0.06 a 47.5,47.5 0 0 1 3.089,3.855 c 4.28,5.814 7.827,12.892 13.479,17.531 3.008,2.469 5.778,3.383 8.337,3.2 a 10.332,10.332 0 0 0 4.618,-1.566 c 7.606,-4.613 13.131,-18.065 17.594,-24.054 a 1.179,1.179 0 0 1 0.625,-0.325 c -3.8,-5.232 -7.372,-14.714 -2.858,-20.178 1.719,-2.081 4.182,-3.081 6.7,-3.867 0.7,-0.217 1.379,-0.456 2.053,-0.7 4.824,-6.97 -0.712,-25.633 11.666,-25.25 7.022,0.217 6.126,11.578 4.734,19.071 a 1.325,1.325 0 0 1 0.5,-0.123 c 3.079,-0.012 4.965,1.025 6.012,2.65 a 7.112,7.112 0 0 1 6.62,6.237 c 7.559,1.909 3.527,11.3 0.232,15.6 a 18.487,18.487 0 0 1 -4.837,4.182 c 0.168,0.02 0.246,0.08 0.138,0.195 -3.618,3.842 -8.5,5.736 -13.42,7.312 0.039,6.271 -2.861,12.5 -6.06,17.749 -3.185,5.222 -6.987,10.263 -11.876,14.006 2.931,2.988 5.993,7.026 5.659,11.173 8.318,-2.666 16.269,-6.5 24.4,-9.659 a 1.118,1.118 0 0 1 1.356,0.339 256.092,256.092 0 0 1 45.2,4.008 1.166,1.166 0 0 1 0.435,0.084 c 0.282,0.052 0.38,0.172 0.359,0.313 z M 72.908,257.056 c 0.663,-0.223 1.344,-0.43 2.062,-0.6 q 0.884,-0.389 1.793,-0.739 c 3.955,-3.1 3.025,-10.8 1.714,-15.138 -1.836,-6.086 -5.848,-14.077 -12.549,-15.931 A 1.179,1.179 0 0 1 64.89,225 c -5.643,-1.133 -4.5,14.3 -4.08,16.955 1.035,6.545 4.025,15.639 12.098,15.101 z m 34.009,-9.925 c 1.234,-8.156 -3.618,-18.575 -8.7,-24.4 -8.242,-9.44 -21.487,-3.859 -31.317,0.576 7.848,2.287 12.629,11.607 14.121,19.058 0.843,4.212 0.716,9.064 -1.4,12.335 2.478,-0.812 5,-1.506 7.412,-2.238 6.559,-1.991 13.184,-3.855 19.885,-5.331 z m 149.439,6.605 a 18.851,18.851 0 0 1 -3.227,11.03 25.579,25.579 0 0 1 -4,4.774 c 0.218,2.481 1.416,2.876 3.284,1.05 a 22.384,22.384 0 0 0 4.51,-6.338 c 1.69,-3.552 2.744,-8.395 -0.567,-10.516 z m -6.06,-6.074 c 1.3,4.486 -1.316,11.375 -3.615,15.079 a 27.809,27.809 0 0 1 -2.507,3.517 c 0.035,1.163 0.239,4.555 1.845,3.735 A 10.5,10.5 0 0 0 249,267.5 a 25.624,25.624 0 0 0 4.025,-5.814 15.463,15.463 0 0 0 1.267,-8.765 c -0.07,-0.015 -0.137,-0.034 -0.21,-0.048 -0.181,-0.036 -0.08,-0.151 0.142,-0.279 a 6.223,6.223 0 0 0 -3.924,-4.931 z m -8.354,0.866 a 7.332,7.332 0 0 1 0.145,4.893 12.355,12.355 0 0 1 -6.333,6.675 c 0.553,-0.155 1.2,-0.086 1.2,0.4 -0.01,1.139 0.007,9.076 3.022,7.57 a 8.465,8.465 0 0 0 2.227,-1.683 c 0,-0.092 -0.007,-0.185 -0.009,-0.272 -0.009,-0.374 0.431,-0.648 0.9,-0.733 a 27.138,27.138 0 0 0 2.867,-4.676 c 2.5,-4.942 5.92,-16.168 -3.1,-16.18 -0.33,1.649 -0.661,3.041 -0.919,4.007 z m -12.987,0.254 c 1.789,-0.728 3.556,-1.5 5.391,-2.206 1.669,-0.642 4.446,-1.461 6.062,-0.191 0.058,0.045 0.111,0.1 0.167,0.146 a 53.6,53.6 0 0 0 1.214,-9.6 c 0.1,-3.223 0.341,-9.12 -2.942,-11.088 -6.12,-3.671 -7,7.11 -7.316,10.543 -0.364,3.997 -0.372,8.845 -2.577,12.397 z m -6.283,24.957 c 0.353,-0.067 0.671,-0.051 0.764,0.128 2.51,4.879 8.771,5.247 13.622,5.27 0.159,0 0.237,0.024 0.262,0.061 a 3.29,3.29 0 0 1 0.405,-0.058 c 4.351,-1.4 8.6,-3.077 11.879,-6.372 -1.108,0.138 -1.993,-0.362 -2.325,-1.969 a 6.886,6.886 0 0 1 -1.441,0.556 c -2.395,0.611 -3.216,-1.367 -3.5,-3.339 a 6.131,6.131 0 0 1 -3.484,1.376 c -4.059,0.147 -3.886,-6 -3.863,-8.66 a 0.477,0.477 0 0 1 0.183,-0.343 19.3,19.3 0 0 1 -7.406,1.816 c -1.337,0.043 -0.9,-1.341 0.189,-1.375 4.569,-0.144 12.512,-3.236 12.44,-8.846 -0.041,-3.2 -1.287,-5.653 -4.836,-4.432 -2.022,0.7 -3.873,1.754 -5.84,2.577 -4.12,1.722 -10.321,1.923 -11.343,7.328 -1.078,5.724 0.839,11.681 4.293,16.283 z m -22.986,-36.192 a 124.96,124.96 0 0 1 -0.326,14.4 c -0.117,1.214 -0.258,2.458 -0.438,3.71 2.5,-2.076 3.079,-6.917 3.205,-9.776 0.084,-1.957 -0.11,-7.781 -2.442,-8.333 z m -2.529,19 c 0.979,-6.009 0.837,-12.487 0.641,-18.5 -0.08,0.053 -0.159,0.1 -0.241,0.163 a 1.966,1.966 0 0 1 -0.891,0.232 c -1.812,3.311 -5.318,19.545 0.49,18.11 z m -15.171,-0.357 c 6.254,-2.717 4.427,-22.609 -2.9,-18.247 a 1.864,1.864 0 0 1 -0.984,0.166 c -2.802,4.534 -5.154,22.01 3.883,18.085 z m -17.494,-12.647 c 0.057,0.117 0.108,0.244 0.161,0.368 l 0.029,-0.188 -0.191,-0.176 z m -14.1,20.95 -0.043,0.254 c 0.128,0.1 0.082,0.22 -0.058,0.347 -0.808,5.167 -0.639,11.159 2.535,15.479 0.388,0.527 2.623,3.871 3.5,2.3 a 7.785,7.785 0 0 0 0.889,-2.672 20.128,20.128 0 0 0 0.111,-4.678 c -0.789,1.376 -1.444,2.762 -1.961,3.627 -0.387,0.648 -2.375,0.739 -1.85,-0.14 2.143,-3.583 4.792,-10.011 10.053,-9.036 3.571,0.662 6.5,3.031 9.84,4.309 5.516,2.107 11.447,2.515 16.1,-1.79 4.244,-3.929 6.414,-9.2 7.483,-14.958 -2.664,0.4 -4.948,-1.124 -5.177,-4.7 a 29.077,29.077 0 0 1 0,-3.584 2.092,2.092 0 0 1 -0.82,0.177 h -3.517 c -0.518,2.935 -1.74,5.574 -3.661,6.926 -4.141,2.916 -9.421,1.136 -10.121,-3.933 a 24.435,24.435 0 0 1 -0.212,-3.371 2.074,2.074 0 0 1 -1.169,0.387 c -2.579,-0.387 -5.023,-1.382 -7.562,-1.9 l -0.066,0.037 c -0.418,0.341 -0.672,0.539 -0.672,0.539 l 0.047,-0.3 c -0.674,0.12 -1.661,0.059 -0.73,-0.411 0.049,-0.024 0.093,-0.054 0.141,-0.079 -0.43,-0.055 -0.863,-0.093 -1.3,-0.107 -1.326,-0.043 0,-1.161 0.755,-1.137 0.1,0 0.2,0.018 0.3,0.024 -0.546,-2.554 -2.06,-5.168 -5.128,-4.809 a 8.713,8.713 0 0 0 -6.454,4.346 c -2.282,4.175 -1.435,15.068 5.774,10.111 0.487,-0.334 2.246,-0.268 1.425,0.572 -2.768,2.828 -5.262,5.848 -8.456,8.177 z m 20.742,66.838 a 28.2,28.2 0 0 0 -0.7,-10.353 c -0.328,-0.14 -0.487,-0.389 -0.189,-0.677 -0.207,-0.67 -0.457,-1.331 -0.734,-1.985 -5.739,3.506 -12.945,5.2 -19.46,6.245 -6.431,1.032 -15.2,2.206 -21.111,-1.395 -5.832,-3.549 -4.654,-11.282 -3.168,-16.933 1.792,-6.816 4.9,-13.134 6.952,-19.85 0.237,-0.776 2.231,-1.025 1.975,-0.184 -1.735,5.688 -4.36,11.068 -6.08,16.768 -1.48,4.9 -4.285,13.678 0.167,17.893 4.99,4.726 14.471,3.52 20.6,2.535 a 69.95,69.95 0 0 0 13.458,-3.28 c -3.117,-9.678 -1.087,-18.652 0.956,-28.346 0.187,-0.887 2.193,-1.124 1.985,-0.143 -2,9.469 -4.021,18.257 -1.056,27.722 a 29.289,29.289 0 0 0 4.384,-2.362 1.514,1.514 0 0 1 1.259,-0.093 c 0.366,-0.052 0.7,0 0.8,0.219 a 20.888,20.888 0 0 1 0.818,2.043 c 9.774,-6.39 20.048,-16.614 32.342,-15.961 a 1.529,1.529 0 0 1 0.224,0.028 c 5.172,-0.808 10.454,3.067 14.027,6.36 0.322,0.3 0.659,0.617 1,0.947 l 0.07,0.068 0.022,-0.018 A 49.067,49.067 0 0 0 230.8,296.8 c 2.857,-5.032 5.544,-10.73 5.538,-16.636 l -0.039,0.013 c -0.637,0.2 -1.708,0.072 -1.022,-0.247 -4.519,-0.046 -10.044,-0.509 -12.949,-4.23 a 0.886,0.886 0 0 1 -0.772,-0.246 c -0.041,-0.049 -0.082,-0.1 -0.122,-0.153 -6.42,9.311 -12.876,28.506 -27.051,25.721 -0.32,-0.063 -0.626,-0.149 -0.934,-0.233 a 14.134,14.134 0 0 1 -2.564,-0.966 c -5.35,-2.627 -8.9,-8.325 -12.188,-13.145 -0.968,-1.419 -2.1,-3.281 -3.387,-5.205 a 43.871,43.871 0 0 0 -3.813,-5.007 18.2,18.2 0 0 0 -3.591,-3.14 8.763,8.763 0 0 0 -4.592,-1.512 c -0.246,0 -0.494,0 -0.745,0.023 -0.634,0.054 -0.57,-0.131 -0.278,-0.341 a 3.131,3.131 0 0 1 0.514,-0.287 6.387,6.387 0 0 0 -0.689,-0.039 2.728,2.728 0 0 0 -0.628,0.079 4.967,4.967 0 0 0 -2.468,1.762 c 0.466,2.7 0.981,13.585 -4.693,11.374 -3.171,-1.236 -5.232,-5.59 -5.839,-8.74 a 30.263,30.263 0 0 1 -0.184,-10.139 v -0.027 c -0.585,-0.117 -1.168,-0.218 -1.749,-0.3 q -0.751,-0.105 -1.5,-0.172 a 29.958,29.958 0 0 0 -8.864,0.519 35.582,35.582 0 0 0 -17.657,9.9 c -0.982,0.978 -1.922,2 -2.837,3.053 a 60.748,60.748 0 0 0 -7.489,10.753 56.136,56.136 0 0 0 -6.931,23.429 c -0.424,7.1 -0.207,14.942 3.255,21.359 3.725,6.906 10.387,10.742 17.841,12.341 q 0.767,0.165 1.545,0.3 1.31,0.225 2.629,0.389 c 12.854,1.626 26.259,-0.771 38.583,-4.347 1.254,-0.364 2.506,-0.737 3.744,-1.151 0.253,-0.737 0.488,-1.481 0.695,-2.232 l 0.026,-0.1 a 48.463,48.463 0 0 0 1.535,-7.886 z m 37.154,-0.463 a 1.025,1.025 0 0 1 0.2,-0.1 c 1.43,-4.114 -1.945,-9.981 -4.508,-12.95 -4.067,-4.711 -9.611,-3.961 -15.228,-3.914 -1.324,0.012 -0.028,-1.168 0.745,-1.174 5.826,-0.05 12.242,-0.833 16.3,4.3 2,2.537 4.584,6.5 4.994,10.2 1.866,-6.295 -1.8,-13.176 -6.806,-17.145 -0.5,-0.4 1.3,-1.164 1.823,-0.749 a 20.731,20.731 0 0 1 5.87,7.4 c 0.418,-0.058 0.831,0.035 0.956,0.369 a 13.972,13.972 0 0 0 6.561,7.006 c 0.9,0.471 3.691,1.971 4.411,0.49 0.05,-0.1 0.083,-0.21 0.123,-0.316 -0.522,-0.184 -0.5,-0.854 0.254,-1.151 a 9.323,9.323 0 0 0 -0.445,-3.292 c -1.163,-4.023 -4.24,-7.372 -7.393,-10.019 -3.083,-2.588 -7.512,-6.012 -11.807,-5.334 a 1.351,1.351 0 0 1 -0.441,0.007 1.01,1.01 0 0 1 -0.253,0.023 16.45,16.45 0 0 0 -2.266,0.043 20.9,20.9 0 0 0 -5.278,1.2 49.364,49.364 0 0 0 -10.3,5.561 c -4.507,2.987 -8.8,6.307 -13.383,9.175 a 30.479,30.479 0 0 1 0.334,13.014 c -0.222,1.306 -0.4,3.375 -0.839,5.2 a 1.236,1.236 0 0 1 0.178,-0.02 c 6.662,-0.19 8.854,-5.151 11.9,-10.167 1.763,-2.908 4.542,-6.334 8.131,-6.916 7.021,-1.126 9.738,13.334 16.163,9.262 z m 3.682,-1.948 a 24.513,24.513 0 0 0 6.788,-3.231 17.226,17.226 0 0 1 -5.666,-4.113 13.068,13.068 0 0 1 -1.125,7.347 z m -34.89,13.134 c 15.176,3.755 31.162,3.3 46.439,6.576 0.435,-0.42 1.33,-0.57 1.623,-0.219 11.167,-5.6 23.018,-9.987 34.5,-14.859 7.618,-3.231 15.227,-6.479 22.628,-10.188 3.265,-1.637 6.5,-3.4 9.873,-4.811 0.484,-0.2 0.981,-0.411 1.487,-0.6 a 259.4,259.4 0 0 0 -43.828,-3.544 c -7.983,3.176 -15.826,6.878 -24.03,9.444 -0.774,2.441 -3.329,3 -5.65,2.359 -2.611,1.583 -5.334,3.244 -8.345,3.839 a 1.124,1.124 0 0 1 -0.822,-0.095 2.605,2.605 0 0 1 -0.343,0.068 6.286,6.286 0 0 1 -0.241,0.758 0.857,0.857 0 0 1 -0.419,0.4 c 0.078,0.193 0,0.421 -0.356,0.644 a 6.61,6.61 0 0 1 -5.241,1.12 1.209,1.209 0 0 1 -0.406,0.268 156.5,156.5 0 0 1 -26.869,8.84 z m 46.32,13.762 c 0.612,-1.758 0.159,-3.981 -0.054,-5.886 a 0.711,0.711 0 0 1 -0.137,-0.014 c -15.782,-3.538 -32.362,-2.914 -48.042,-6.941 a 11.447,11.447 0 0 0 0.408,5.366 2.881,2.881 0 0 0 0.324,0.1 q 2.44,0.593 4.882,1.175 c 4.885,1.166 9.773,2.325 14.683,3.379 5.839,1.254 11.774,2.144 17.659,3.153 1.719,0.292 9.418,2.145 10.277,-0.332 z m 72.521,-37.445 -0.333,-0.061 c -1.434,-0.045 -3.521,1.233 -4.708,1.8 -1.483,0.714 -2.956,1.446 -4.427,2.185 -3.618,1.82 -7.236,3.646 -10.926,5.317 -5.9,2.671 -11.856,5.2 -17.82,7.717 -10.806,4.561 -21.958,8.7 -32.419,14.033 0.187,2.239 0.48,4.531 -0.132,6.218 4.315,-2.059 8.892,-3.676 13.3,-5.466 8.379,-3.4 16.753,-6.824 25.019,-10.5 7.991,-3.548 16.076,-7.183 23.528,-11.787 2.304,-1.41 10.317,-5.664 8.921,-9.456 z m -58.506,2.783 c -12.339,4.675 -24.222,10.463 -36.491,15.317 -1.29,0.511 -0.079,0.872 0.708,0.561 12.268,-4.855 24.152,-10.642 36.491,-15.317 1.302,-0.493 0.084,-0.86 -0.704,-0.561 z m 5.406,2.252 c -12.339,4.675 -24.222,10.464 -36.491,15.317 -1.29,0.51 -0.079,0.872 0.708,0.561 12.268,-4.853 24.152,-10.642 36.491,-15.317 1.302,-0.493 0.084,-0.86 -0.704,-0.562 z m -18.018,20.77 c -1.015,-0.018 -2.026,-0.082 -3.035,-0.159 -0.555,0.224 -1.108,0.455 -1.665,0.674 -0.787,0.311 -2,-0.051 -0.708,-0.561 0.218,-0.086 0.434,-0.177 0.651,-0.264 -2.469,-0.245 -4.93,-0.577 -7.4,-0.8 -0.966,0.4 -1.933,0.793 -2.9,1.176 -0.787,0.311 -2,-0.051 -0.708,-0.561 0.62,-0.245 1.236,-0.5 1.854,-0.751 -0.766,-0.05 -1.533,-0.089 -2.3,-0.1 -1.326,-0.024 -0.177,-1.345 0.7,-1.329 1.481,0.027 2.955,0.135 4.426,0.276 q 2.834,-1.182 5.647,-2.421 c -0.887,-0.064 -1.775,-0.115 -2.667,-0.131 -1.326,-0.024 -0.177,-1.345 0.7,-1.329 1.541,0.028 3.074,0.145 4.6,0.295 q 2.7,-1.206 5.391,-2.444 c -0.862,-0.061 -1.725,-0.109 -2.59,-0.126 -1.326,-0.024 -0.177,-1.345 0.7,-1.329 1.487,0.027 2.965,0.136 4.441,0.278 q 2.634,-1.22 5.261,-2.451 c -0.764,-0.049 -1.529,-0.089 -2.3,-0.1 -1.326,-0.024 -0.177,-1.345 0.7,-1.329 1.381,0.025 2.756,0.12 4.129,0.246 q 1.736,-0.813 3.473,-1.623 c 0.589,-0.274 1.181,-0.546 1.771,-0.818 -0.654,-0.04 -1.31,-0.068 -1.967,-0.08 -1.326,-0.024 -0.177,-1.345 0.7,-1.329 1.286,0.024 2.566,0.109 3.844,0.222 l 5.307,-2.427 c -0.58,-0.032 -1.162,-0.06 -1.745,-0.07 -1.326,-0.024 -0.177,-1.345 0.7,-1.329 1.213,0.022 2.421,0.1 3.627,0.205 q 2.566,-1.192 5.109,-2.427 c -0.443,-0.02 -0.886,-0.045 -1.33,-0.053 -1.326,-0.024 -0.177,-1.345 0.7,-1.329 1.036,0.019 2.067,0.084 3.1,0.164 1.829,-0.916 3.645,-1.854 5.434,-2.833 0.513,-0.281 2.3,-0.268 1.156,0.362 -1.644,0.9 -3.312,1.764 -4.99,2.611 2.579,0.255 5.149,0.6 7.731,0.831 2.18,-1.078 4.34,-2.188 6.465,-3.353 0.513,-0.281 2.3,-0.268 1.156,0.362 -1.969,1.08 -3.969,2.112 -5.986,3.117 0.717,0.045 1.435,0.078 2.156,0.092 1.326,0.024 0.177,1.345 -0.7,1.329 -1.3,-0.024 -2.6,-0.11 -3.891,-0.226 q -2.558,1.24 -5.141,2.435 c 0.542,0.029 1.083,0.056 1.627,0.066 1.326,0.024 0.177,1.345 -0.7,1.329 -1.176,-0.022 -2.348,-0.1 -3.518,-0.2 q -2.647,1.213 -5.292,2.416 c 0.468,0.023 0.935,0.048 1.4,0.057 1.326,0.024 0.177,1.345 -0.7,1.329 -1.112,-0.02 -2.219,-0.092 -3.323,-0.182 -0.638,0.294 -1.277,0.587 -1.913,0.883 q -1.64,0.763 -3.28,1.531 c 0.37,0.016 0.741,0.039 1.112,0.045 1.326,0.024 0.177,1.345 -0.7,1.329 -1.008,-0.018 -2.011,-0.081 -3.013,-0.158 q -2.58,1.2 -5.165,2.4 c 0.257,0.009 0.514,0.026 0.772,0.031 1.326,0.024 0.177,1.345 -0.7,1.329 -0.912,-0.016 -1.821,-0.07 -2.729,-0.137 q -2.629,1.206 -5.27,2.387 c 0.2,0.007 0.4,0.021 0.594,0.024 1.326,0.024 0.177,1.345 -0.7,1.329 -0.877,-0.016 -1.775,-0.068 -2.661,-0.131 q -2.762,1.21 -5.543,2.375 c 0.266,0.01 0.531,0.028 0.8,0.032 1.33,0.018 0.18,1.339 -0.7,1.322 z m 30.281,-20.342 c 2.544,0.264 5.082,0.6 7.631,0.808 q 2.641,-1.219 5.265,-2.476 c -2.572,-0.272 -5.137,-0.61 -7.715,-0.809 q -2.574,1.261 -5.178,2.476 z m -7.895,3.626 c 2.54,0.268 5.075,0.6 7.622,0.8 q 2.683,-1.232 5.38,-2.459 c -2.538,-0.262 -5.07,-0.6 -7.613,-0.81 q -2.69,1.242 -5.386,2.468 z m -7.866,3.629 c 2.562,0.275 5.118,0.611 7.687,0.8 l 4.568,-2.135 0.707,-0.326 c -2.542,-0.257 -5.076,-0.6 -7.621,-0.815 q -1.515,0.7 -3.023,1.394 z m -7.8,3.636 c 2.565,0.28 5.124,0.617 7.7,0.795 q 2.643,-1.22 5.279,-2.454 c -2.55,-0.25 -5.092,-0.6 -7.644,-0.825 q -2.664,1.244 -5.333,2.483 z m -7.929,3.623 c 2.55,0.282 5.1,0.615 7.655,0.786 q 2.71,-1.2 5.406,-2.437 c -2.541,-0.242 -5.073,-0.587 -7.614,-0.825 q -2.716,1.251 -5.441,2.476 z m -0.715,4.371 q 2.859,-1.178 5.7,-2.414 c -2.515,-0.239 -5.022,-0.578 -7.537,-0.817 q -2.832,1.251 -5.685,2.451 c 2.507,0.275 5.009,0.6 7.524,0.78 z M 381.566,210.338 v 62.789 c 0,0.316 -0.362,0.565 -0.776,0.676 0.134,0.29 -0.057,0.718 -0.685,0.927 -9.977,3.331 -18.671,9.4 -28.272,13.581 V 305.1 c 7.414,-5.778 17.685,-3.183 25.967,-0.157 0.695,-0.228 2.087,-0.147 1.312,0.43 0.759,-0.565 1,2.908 0.412,3.689 -3.484,4.612 -9.958,7.377 -14.854,10.161 -6.6,3.753 -13.177,7.556 -19.825,11.215 -2.519,1.387 -5.117,3.145 -7.863,4.053 a 11.311,11.311 0 0 1 -3.735,0.607 3.567,3.567 0 0 1 -1.2,-0.328 0.986,0.986 0 0 1 -0.677,-0.031 c -0.145,-0.066 -0.291,-0.126 -0.438,-0.185 -0.367,0 -0.555,-0.095 -0.609,-0.234 -3.125,-1.112 -6.6,-1.139 -9.6,-2.577 -1.941,-0.929 -5.322,-3.739 -4.15,-6.384 0.729,-1.645 3.348,-3.276 4.772,-4.232 a 50.324,50.324 0 0 1 6.258,-3.588 c 5.055,-2.428 10.347,-4.405 15.091,-7.435 a 1.126,1.126 0 0 1 0.415,-0.153 v -16.89 c -8.553,4.82 -16.976,9.865 -25.493,14.746 -4.267,2.446 -8.547,4.882 -12.931,7.115 -0.051,0.026 -0.1,0.045 -0.153,0.07 v 0.032 c 0,0.562 -1.147,0.915 -1.689,0.645 a 16.718,16.718 0 0 1 -2.025,0.489 c -1.379,0.251 -2.279,-0.618 -3.535,-0.531 h -0.075 c -0.582,0.238 -1.4,0.19 -1.4,-0.4 v -77.609 c -0.444,-0.1 -0.483,-0.457 0,-0.694 v -0.205 c -0.714,0.06 -1.341,-0.332 -0.283,-0.755 14.094,-5.623 28.632,-10.268 42.987,-15.169 8,-2.731 15.946,-5.537 23.849,-8.546 4.173,-1.589 8.578,-3.846 13.032,-4.44 a 8.906,8.906 0 0 1 4.956,0.887 c 0.557,-0.159 1.222,-0.068 1.222,0.462 v 0.517 c 0.026,0.005 0.055,0 0.08,0.011 0.555,0.132 0.33,0.425 -0.085,0.652 z m -83.816,25.694 a 0.527,0.527 0 0 1 0.022,0.154 v 0.489 c 1.035,0.053 2.021,0.305 3.155,0.368 2.4,0.131 4.957,-1.152 7.188,-1.927 q 6,-2.086 12.026,-4.1 c 8.613,-2.885 17.244,-5.714 25.863,-8.577 7.33,-2.435 14.458,-5.261 21.61,-8.175 3.2,-1.3 6.393,-2.623 9.664,-3.732 0.58,-0.2 1.268,-0.462 1.973,-0.66 -2.591,-3.242 -11.2,1.141 -14.185,2.273 -4.1,1.558 -8.193,3.151 -12.316,4.653 -6.366,2.319 -12.821,4.4 -19.229,6.6 -11.939,4.108 -24.012,8.017 -35.771,12.634 z m 4.811,78.68 V 269.73 238.194 a 0.491,0.491 0 0 1 0.141,-0.324 6.008,6.008 0 0 1 -0.69,0.1 31.2,31.2 0 0 1 -4.242,-0.442 v 77.023 c 2.095,-0.068 2.482,0.966 4.792,0.161 z M 345.52,275.67 c 0.051,0.205 -0.153,0.4 -0.445,0.544 v 41.063 a 0.372,0.372 0 0 1 -0.007,0.04 c 1.653,0.828 3.546,1.377 4.917,0.487 a 0.456,0.456 0 0 1 -0.122,-0.321 v -45.5 a 0.494,0.494 0 0 1 0.009,-0.054 c -0.258,-0.009 -0.448,-0.082 -0.454,-0.238 -0.05,-1.161 -1.464,-1.587 -2.412,-1.172 -1.96,0.857 -1.918,3.416 -1.486,5.151 z m 6.313,30.768 v 9.407 c 0.6,-0.174 1.41,-0.184 1.331,0 -1.787,4.2 -7.11,3.683 -10.448,1.858 -0.075,-0.041 0.109,-0.185 0.391,-0.333 v -5.759 c -7.1,4.258 -15.613,6.345 -22.032,11.649 -8.31,6.869 7.618,8.36 11.409,10.1 a 0.815,0.815 0 0 1 0.336,0.257 l 0.084,0.02 c 2.713,0.746 5.2,-0.77 7.422,-1.966 q 4.423,-2.38 8.775,-4.884 c 5.507,-3.157 11.08,-6.2 16.562,-9.4 2.911,-1.7 5.92,-3.353 8.662,-5.318 1.108,-0.794 4.507,-2.9 3.828,-4.806 a 9.7,9.7 0 0 0 -0.784,-1.176 0.7,0.7 0 0 1 -0.29,-0.02 c -7.723,-2.892 -18.143,-6.489 -24.9,0.191 a 0.973,0.973 0 0 1 -0.346,0.181 z M 379.7,273.631 a 0.465,0.465 0 0 1 -0.1,-0.3 v -62.752 c -2.048,0.12 -5.085,1.873 -6.641,2.488 -3.737,1.479 -7.445,3.029 -11.172,4.536 -6.524,2.639 -13.154,4.871 -19.833,7.079 -8.244,2.725 -16.493,5.436 -24.717,8.218 -3.782,1.279 -7.562,2.563 -11.323,3.9 -0.6,0.213 -1.212,0.465 -1.836,0.683 a 0.511,0.511 0 0 1 0.456,0.5 v 75.829 c 1.778,-0.945 3.556,-1.889 5.316,-2.867 3.689,-2.05 7.35,-4.151 11,-6.273 7.409,-4.31 14.782,-8.682 22.261,-12.869 v -16.216 a 0.569,0.569 0 0 1 0.268,-0.439 4.745,4.745 0 0 1 3.208,-5.393 c 1.359,-0.468 4.7,-0.781 4.8,1.412 a 0.366,0.366 0 0 1 -0.014,0.1 0.514,0.514 0 0 1 0.47,0.506 v 15.215 c 9.411,-4.215 18.019,-10.054 27.857,-13.357 z M 328.022,150.448 c -0.009,21.859 -0.454,43.713 -0.481,65.573 H 221.926 c -0.4,0 -2.228,0.785 -1.274,0.785 h 106.887 v 0.6 c 0,0.552 1.958,0.2 1.958,-0.525 0.009,-22.32 0.476,-44.636 0.485,-66.957 -0.001,-0.553 -1.96,-0.199 -1.96,0.524 z M 221.3,215.424 c 0.009,-21.859 0.454,-43.713 0.481,-65.573 h 106.1 c 0.4,0 2.228,-0.785 1.274,-0.785 h -107.23 a 0.816,0.816 0 0 0 -0.144,0.02 v -0.619 c 0,-0.552 -1.958,-0.2 -1.958,0.525 -0.009,22.32 -0.476,44.636 -0.485,66.957 0.001,0.551 1.962,0.198 1.962,-0.525 z m 86.88,-30.244 c -0.714,0.737 -1.452,1.451 -2.186,2.168 -1.867,1.824 -3.75,3.632 -5.616,5.457 -1.706,1.67 -3.406,3.348 -5.021,5.107 -0.451,0.492 -1.958,1.81 -1.658,2.637 0.308,0.85 2.256,0.3 1.958,-0.525 -0.122,-0.335 2.226,-2.553 2.621,-2.965 1.8,-1.875 3.67,-3.682 5.533,-5.493 1.727,-1.678 3.465,-3.344 5.176,-5.039 a 8.776,8.776 0 0 0 1.874,-2.037 0.707,0.707 0 0 0 0.1,-0.251 c 0,-0.011 0.01,-0.022 0.014,-0.034 a 0.251,0.251 0 0 0 0,-0.032 0.531,0.531 0 0 0 -0.009,-0.139 v -0.04 c -0.226,-0.816 -1.331,-1.589 -1.894,-2.152 -1.6,-1.6 -3.243,-3.166 -4.869,-4.743 -1.968,-1.908 -3.931,-3.821 -5.841,-5.788 -0.621,-0.641 -1.229,-1.294 -1.818,-1.965 -0.3,-0.338 -0.8,-1.31 -0.923,-0.958 0.394,-1.086 -1.57,-1.112 -1.881,-0.255 -0.7,1.941 5.128,6.38 6.255,7.488 1.885,1.85 3.786,3.682 5.68,5.522 0.816,0.793 1.628,1.589 2.425,2.4 0.2,0.206 0.4,0.416 0.6,0.628 0.106,0.115 0.164,0.184 0.2,0.236 -0.031,0.037 -0.069,0.082 -0.124,0.143 -0.195,0.217 -0.398,0.422 -0.599,0.63 z m -57.143,-13.737 c 0.409,-0.426 2.716,-2.69 2.633,-2.917 -0.328,-0.9 1.623,-1.449 1.958,-0.525 0.314,0.868 -1.168,2.166 -1.645,2.685 -1.614,1.759 -3.315,3.438 -5.021,5.107 -1.988,1.945 -4,3.869 -5.984,5.815 -0.687,0.674 -1.381,1.343 -2.043,2.041 -0.337,0.354 -0.439,0.507 -0.476,0.539 0.041,0.05 0.1,0.114 0.18,0.205 0.2,0.212 0.394,0.422 0.6,0.628 0.719,0.732 1.451,1.452 2.186,2.168 1.87,1.821 3.753,3.629 5.616,5.457 1.8,1.764 3.632,3.515 5.294,5.411 0.493,0.562 1.559,1.475 1.251,2.323 -0.279,0.771 -2.238,0.851 -1.862,-0.186 0.014,-0.037 -2.278,-2.483 -2.755,-2.975 -1.81,-1.865 -3.669,-3.682 -5.533,-5.493 -1.728,-1.677 -3.471,-3.338 -5.176,-5.039 -0.554,-0.553 -1.666,-1.331 -1.889,-2.133 a 0.439,0.439 0 0 1 0,-0.22 1.13,1.13 0 0 1 0.039,-0.2 c 0.251,-0.9 1.614,-1.854 2.239,-2.469 1.61,-1.586 3.24,-3.152 4.861,-4.727 1.854,-1.814 3.725,-3.621 5.525,-5.495 z m -10.6,12.711 a 0.585,0.585 0 0 0 -0.164,-0.324 0.47,0.47 0 0 1 0.12,0.268 z m 39.852,-16.941 c -0.214,0.522 -0.46,1.033 -0.7,1.543 -0.7,1.487 -1.446,2.956 -2.185,4.426 -2.151,4.276 -4.34,8.533 -6.487,12.81 -0.747,1.49 -8.417,14.8 -6.122,15.822 0.773,0.346 2.271,-0.764 1.144,-1.267 0.522,0.234 0.742,-1.383 1.014,-2.066 0.694,-1.741 1.5,-3.44 2.306,-5.133 2.075,-4.38 4.281,-8.7 6.475,-13.019 1.869,-3.679 3.77,-7.345 5.561,-11.063 0.316,-0.658 2.31,-4.093 -0.05,-3.4 -1.19,0.347 -0.859,1.618 0.34,1.267 -1.557,0.451 -0.857,-1.008 -1.303,0.08 z M 206.725,127.99 c -0.009,22.133 -0.46,44.264 -0.488,66.4 H 99.286 c -0.4,0 -2.228,0.785 -1.274,0.785 h 108.223 v 0.608 c 0,0.552 1.958,0.2 1.958,-0.525 0.009,-22.6 0.482,-45.193 0.492,-67.79 -0.001,-0.556 -1.959,-0.201 -1.96,0.522 z M 98.646,193.781 c 0.009,-22.134 0.46,-44.265 0.488,-66.4 h 107.443 c 0.4,0 2.228,-0.785 1.274,-0.785 H 99.287 a 0.834,0.834 0 0 0 -0.15,0.021 v -0.628 c 0,-0.552 -1.958,-0.2 -1.958,0.525 -0.009,22.6 -0.482,45.193 -0.492,67.79 0.001,0.554 1.959,0.196 1.959,-0.523 z m 97.5,-56.514 h -87.685 c -0.866,0 -2.031,1.316 -0.707,1.316 h 87.686 c 0.867,-0.001 2.031,-1.317 0.707,-1.317 z m -88.393,15.471 h 35.369 c 0.866,0 2.031,-1.316 0.707,-1.316 h -35.368 c -0.866,0 -2.031,1.315 -0.707,1.315 z m 45.655,-1.316 c -0.866,0 -2.031,1.316 -0.707,1.316 h 42 c 0.866,0 2.031,-1.316 0.707,-1.316 z M 107.754,167.9 h 87.686 c 0.866,0 2.031,-1.316 0.707,-1.316 h -87.686 c -0.866,0.004 -2.031,1.316 -0.707,1.316 z m 0,14.154 h 35.369 c 0.866,0 2.031,-1.316 0.707,-1.316 h -35.369 c -0.866,0.004 -2.031,1.32 -0.707,1.32 z m 45.655,-1.316 c -0.866,0 -2.031,1.316 -0.707,1.316 h 42 c 0.866,0 2.031,-1.316 0.707,-1.316 z"
       fill="#012e41" />
  </g>
</svg>
