<svg xmlns="http://www.w3.org/2000/svg" width="150.295" height="68.457" viewBox="0 0 150.295 68.457">
    <defs>
        <style>
            .cls-1{fill:#012e41}.cls-3{fill:#fffbef}
        </style>
    </defs>
    <g id="Group_130" transform="translate(-142 -85.646)">
        <g id="Group_72">
            <path id="Path_1" d="M666.9 728.5a3.7 3.7 0 0 1-.355 1.537 1.924 1.924 0 0 1-.874 1.017 66.441 66.441 0 0 0-12.53-1.467l.049 12.245h11.25a5.582 5.582 0 0 1 .142 1.276 4.958 4.958 0 0 1-.142 1.229h-11.25l.046 10.07a15.73 15.73 0 0 0 .662 5.25 3.725 3.725 0 0 1-2.506.991 2.561 2.561 0 0 1-1.819-.637 2.246 2.246 0 0 1-.686-1.725v-24.774a16.224 16.224 0 0 0-.66-5.106 3.8 3.8 0 0 1 1.511-.9 8.287 8.287 0 0 1 2.224-.235h14.182c.498 0 .756.407.756 1.229z" class="cls-1" transform="translate(-506.222 -641.011)"/>
            <path id="Path_2" d="M682.384 745.246c.222.13.45.249.681.36.2.093.432.2.563.249.735.3 1.572.665 2.294 1l-5.848-18.446q-.426-1.511-2.506-1.511a9.809 9.809 0 0 0-3.593.662l-9.835 29.027a8.29 8.29 0 0 0-.518 2.366 1.69 1.69 0 0 0 .59 1.441 3.109 3.109 0 0 0 1.868.45 6.9 6.9 0 0 0 2.364-.427 1.752 1.752 0 0 1-.331-1.182 7.744 7.744 0 0 1 .284-1.653l2.175-7.517.757-2.507 5.2-17.871 4.356 14.62c.128.031 1.015.66 1.499.939z" class="cls-1" transform="translate(-496.517 -641.249)"/>
            <path id="Path_3" d="M681.821 748.183l-.129-.722a.86.86 0 0 1 .016.289.961.961 0 0 1 .031.214.767.767 0 0 1-.016.251.88.88 0 0 1-.9.944.762.762 0 0 1-.755-.924 1.027 1.027 0 0 1 0-.124.921.921 0 0 1 .028-.613.721.721 0 0 1 .743-.615.735.735 0 0 1 .712.47l-1.818-5.7a2.642 2.642 0 0 1-.68.5c-.725.32.2.96-3.464.1a.109.109 0 0 0-.046 0l2.255 7.591a1.9 1.9 0 0 0 .409.791v-.075a.832.832 0 0 1 .375-.488.814.814 0 0 1 .628-.081c.342.134.673.29 1.009.438.083.034.173.046.259.077 0-.038-.008-.072-.008-.109a.815.815 0 1 1 1.63 0c0 .269.18.536.2.805a2.192 2.192 0 0 0 .74-.651 5.927 5.927 0 0 1-1.219-2.368z" class="cls-1" transform="translate(-488.998 -631.95)"/>
            <path id="Path_4" d="M687.513 747.234l1.135-4.964c-1.322.339-3.218.61-4.094.24-.111-.047-.225-.024-.319-.064a5.045 5.045 0 0 1 3.278 4.788z" class="cls-1" transform="translate(-483.525 -631.557)"/>
            <path id="Path_5" d="M707.313 757.481l-9.267-29.076q-.425-1.511-2.506-1.511a9.81 9.81 0 0 0-3.593.662l-6.736 19.88c.579-.184 4.173-1.714 4.62-1.987l4.669-15.766 5.342 17.871.755 2.507 2.7 9.077a1.941 1.941 0 0 0 .921 1.252 3.342 3.342 0 0 0 1.774.45 3.257 3.257 0 0 0 2.551-.994 5.9 5.9 0 0 1-1.23-2.365z" class="cls-1" transform="translate(-482.909 -641.249)"/>
            <path id="Path_6" d="M704.1 760.134a18.661 18.661 0 0 0 .613-5.58v-21.226a37.8 37.8 0 0 0-.329-5.77 2.835 2.835 0 0 1 1.986-.52 1.975 1.975 0 0 1 1.229.238l3.4 4.87q5.627 8.035 9.337 13.45t5.6 8.771l-.993-23.024a7.017 7.017 0 0 1 .306-2.766 2.219 2.219 0 0 1 1.3-1.441 2.437 2.437 0 0 1 .567-.049 3.123 3.123 0 0 1 1.324.284c-.064.633-.1 1.184-.1 1.656l.049 2.268v23.355q0 1.653.047 3.1a21.153 21.153 0 0 0 .189 2.388 1.513 1.513 0 0 1-.8.425 5.136 5.136 0 0 1-1.229.142 2.912 2.912 0 0 1-.993-.142q-5.155-6.241-10.095-13.57t-8.2-13l.851 24.2a2.472 2.472 0 0 1-.639 1.868 2.106 2.106 0 0 1-1.583.732 2.824 2.824 0 0 1-1.837-.659z" class="cls-1" transform="translate(-471.001 -641.158)"/>
            <path id="Path_7" d="M728.781 756.56q-3.45-4.373-3.45-12.6t3.5-12.646q3.5-4.419 9.927-4.42a16.467 16.467 0 0 1 4.612.637 9.357 9.357 0 0 1 3.521 1.772 3.252 3.252 0 0 1 1.324 2.46 2.225 2.225 0 0 1-.945 1.819 3.874 3.874 0 0 1-2.553.686 6.387 6.387 0 0 0-1.891-4.113 5.674 5.674 0 0 0-3.971-1.42q-8.747 0-8.746 15.176t8.7 15.178q3.83 0 5.246-2.789a13.979 13.979 0 0 0 1.42-6.432c0-3.719-3.062-5.735-5.3-6.333 0-.554-.088-1.14.166-1.443.362-.432 3.865-.321 4.565-.212a5.25 5.25 0 0 1 3.593 1.725q1.418 1.727 1.418 5.367a14.134 14.134 0 0 1-1.276 6.074 9.939 9.939 0 0 1-3.831 4.3 11.532 11.532 0 0 1-6.193 1.583q-6.382.004-9.836-4.369z" class="cls-1" transform="translate(-457.621 -641.249)"/>
            <text id="_shaadi_" fill="#012e41" font-family="PTMono-Regular, PT Mono" font-size="23px" letter-spacing="0.069em" transform="translate(148.299 149.103)">
                <tspan x="0" y="0">&lt;/shaadi&gt;</tspan>
            </text>
            <g id="Group_71" transform="translate(171.481 96.493)">
                <g id="Group_1" transform="translate(29.787 16.158)">
                    <path id="Path_8" d="M684.612 744.569a20.228 20.228 0 0 1 .866 4.883.873.873 0 1 0 1.746 0 22.634 22.634 0 0 0-.928-5.347.873.873 0 1 0-1.684.465z" class="cls-3" transform="translate(-684.577 -743.458)"/>
                </g>
                <g id="Group_2" transform="translate(29.873 15.904)">
                    <path id="Path_9" d="M684.736 744.617a4.422 4.422 0 0 1 .228.608c.077.249.142.5.2.756.116.5.205 1.009.328 1.51a6.214 6.214 0 0 0 1.353 2.771.875.875 0 0 0 1.373-1.06 17.308 17.308 0 0 1-1.576-3.885.874.874 0 0 0-1.686.464 19.9 19.9 0 0 0 1.754 4.3l1.371-1.058c-.041-.044-.08-.088-.117-.134-.067-.08-.075-.091-.026-.033-.068-.095-.132-.194-.191-.295s-.116-.205-.168-.311c-.024-.054-.051-.108-.073-.161l-.015-.038a10.387 10.387 0 0 1-.375-1.29 14.181 14.181 0 0 0-.872-3.031.877.877 0 0 0-1.195-.315.9.9 0 0 0-.313 1.2z" class="cls-3" transform="translate(-684.63 -743.303)"/>
                </g>
                <g id="Group_3" transform="translate(13.293 13.524)">
                    <path id="Path_10" d="M680.14 742.091a15.507 15.507 0 0 0-1.875 1.707 7.779 7.779 0 0 0-1.563 2.149 16.036 16.036 0 0 0-.492 2.53c-.093.385-.341 1.74-.879 1.745l.841 1.105a3.645 3.645 0 0 1 .513-.97 9.914 9.914 0 0 0 .593-1.136 16.813 16.813 0 0 1 1.1-2.186 8.785 8.785 0 0 1 3.176-2.917c.986-.541.106-2.051-.882-1.508a10.619 10.619 0 0 0-3.73 3.432 16.1 16.1 0 0 0-1.174 2.3 16.763 16.763 0 0 0-1.281 2.524.884.884 0 0 0 .843 1.107c2.2-.021 2.625-2.974 2.815-4.63a3.767 3.767 0 0 1 1.154-2.085 15.357 15.357 0 0 1 2.075-1.927.878.878 0 0 0 0-1.236.9.9 0 0 0-1.236 0z" class="cls-3" transform="translate(-674.46 -741.843)"/>
                </g>
                <g id="Group_4" transform="translate(14.699 14.436)">
                    <path id="Path_11" d="M680.767 742.525c-2.969 1.7-3.655 5.181-5.313 7.9a.875.875 0 0 0 1.51.882c1.459-2.4 2.079-5.783 4.685-7.278a.874.874 0 0 0-.882-1.508z" class="cls-3" transform="translate(-675.322 -742.403)"/>
                </g>
                <g id="Group_5" transform="translate(16.673 16.005)">
                    <path id="Path_12" d="M679.548 744a6.491 6.491 0 0 0-.427 2.734 8.457 8.457 0 0 0 .225 1.412c.049.212.1.422.145.636.013.06.024.12.036.182.016.108.02.122.008.042a3.122 3.122 0 0 1 .023.368l1.107-.841a26.472 26.472 0 0 1-3.018-.721l.523 1.283a14.823 14.823 0 0 0 1.779-4.487l-1.717-.232.055 3.879a.873.873 0 0 0 1.746 0l-.054-3.879a.875.875 0 0 0-1.717-.233c-.2.732-.4 1.464-.655 2.178-.065.181-.134.36-.207.538.054-.13-.047.1-.054.117q-.054.12-.112.24a8.078 8.078 0 0 1-.574 1 .882.882 0 0 0 .522 1.283 26.3 26.3 0 0 0 3.018.721.886.886 0 0 0 1.105-.843 6.888 6.888 0 0 0-.21-1.422c-.051-.212-.1-.422-.147-.636-.021-.106-.042-.212-.057-.318-.01-.062-.01-.06 0 .006l-.016-.183a4.78 4.78 0 0 1 .359-2.359.879.879 0 0 0-.61-1.076.9.9 0 0 0-1.076.611z" class="cls-3" transform="translate(-676.533 -743.365)"/>
                </g>
                <g id="Group_6" transform="translate(19.268 17.203)">
                    <path id="Path_13" d="M678.257 744.974a19.92 19.92 0 0 0-.1 3.472.874.874 0 1 0 1.748 0 19.771 19.771 0 0 1 .1-3.472.868.868 0 0 0-.256-.618.872.872 0 0 0-1.234 0 1 1 0 0 0-.256.618z" class="cls-3" transform="translate(-678.125 -744.1)"/>
                </g>
                <g id="Group_7" transform="translate(26.765 17.04)">
                    <path id="Path_14" d="M683.742 745.637a20.871 20.871 0 0 1-.978 3.117.865.865 0 0 0 .313.919.856.856 0 0 0 .97.067 2.69 2.69 0 0 0 .859-1.04 7.283 7.283 0 0 0 .408-1.219 5.3 5.3 0 0 0 .086-2.84l-1.461.849c.065.054.122.112.184.17.122.116-.072-.135.018.023.031.055.064.113.1.166.041.088.037.077-.011-.033.015.041.029.082.041.124a.756.756 0 0 1 .042.2v.055c.008.18.01.36.011.54.01.725 0 1.449-.039 2.173a.881.881 0 0 0 .641.843.9.9 0 0 0 .986-.4 2.471 2.471 0 0 0 .365-.84 2.888 2.888 0 0 0-.09-1.174 10.384 10.384 0 0 0-.3-1.151c-.148-.421-.367-.8-.856-.866a.92.92 0 0 0-1.014.727 2.666 2.666 0 0 0-.049.359c-.016.147.024-.17.023-.166-.054.256.17-.362.391-.482l.44-.119.442.119c-.344-.223.628.5.391.5l-.008-.036a.883.883 0 0 0-1.076-.611.91.91 0 0 0 .251 1.777.884.884 0 0 0 .856-.677 2.437 2.437 0 0 0 .037-.287c.011-.1.062-.2-.021.145.007-.024.007-.051.013-.075.047-.145-.116.23-.065.145a.86.86 0 0 1-1.159.3c-.075-.045-.258-.187-.282-.284a.209.209 0 0 0 .023.042c.041.067.044.189-.052-.13.05.165.109.328.155.5.086.318.163.641.233.963l.031.148c-.015-.121-.02-.134-.013-.039s0 .08.016-.059c-.007.038-.016.073-.026.109-.031.088-.023.072.028-.049l-.054.108c-.041.078-.086.152-.132.227l1.627.442q.059-1.205.037-2.414a2.8 2.8 0 0 0-.889-2.237.874.874 0 0 0-1.461.851c.029.095.049.193.075.287s.019.1 0-.012c0 .036.008.073.01.111a3.575 3.575 0 0 1 0 .561 1.167 1.167 0 0 1-.021.225c.055-.207-.018.1-.024.143-.033.176-.072.349-.114.522-.075.308-.163.608-.264.908-.036.09-.031.078.015-.033-.016.039-.034.077-.054.114-.028.055-.057.111-.09.163-.021.036-.044.07-.067.1.077-.094.085-.106.024-.033-.037.036-.238.214-.045.067l1.283.986a20.5 20.5 0 0 0 .978-3.117.873.873 0 1 0-1.684-.465z" class="cls-3" transform="translate(-682.723 -743.999)"/>
                </g>
                <g id="Group_8" transform="translate(26.83 18.445)">
                    <path id="Path_15" d="M683.417 745.5a14.987 14.987 0 0 1-.62 2.393.883.883 0 0 0 .61 1.076.894.894 0 0 0 1.076-.611 15.011 15.011 0 0 0 .618-2.393.965.965 0 0 0-.088-.673.872.872 0 0 0-1.2-.315.836.836 0 0 0-.4.523z" class="cls-3" transform="translate(-682.763 -744.862)"/>
                </g>
                <g id="Group_9" transform="translate(11.429 21.191)">
                    <path id="Path_16" d="M673.476 748.861a3.083 3.083 0 0 1 2.775.375c.665.457 1.322.708 2.018.163.323-.253.567-.585.869-.859a2.513 2.513 0 0 1 1.731-.592 3.354 3.354 0 0 0 1.283-.083c.44-.207.587-1.149 1.143-1.053.165.028.236-.225.07-.253a.819.819 0 0 0-.853.453c-.2.307-.3.58-.709.67a4.55 4.55 0 0 1-.856 0 3.5 3.5 0 0 0-1.356.231 3.425 3.425 0 0 0-1.043.854c-.378.4-.8.822-1.405.66-.5-.134-.864-.563-1.329-.773a3.5 3.5 0 0 0-2.408-.049c-.158.055-.09.308.07.253z" class="cls-1" transform="translate(-673.316 -746.546)"/>
                </g>
                <g id="Group_10" transform="translate(10.785 22.117)">
                    <path id="Path_17" d="M673.117 749.507a3.192 3.192 0 0 1 3.225 0 2.469 2.469 0 0 0 1.084.468 2.1 2.1 0 0 0 1.208-.349c.921-.546 1.544-1.41 2.719-1.294a2.452 2.452 0 0 0 1.094-.01c.473-.174.675-1.009 1.2-.945.166.021.165-.241 0-.261a.784.784 0 0 0-.751.4 1.137 1.137 0 0 1-.928.608 5.593 5.593 0 0 1-.7-.065c-1.04-.093-1.686.579-2.473 1.14a1.758 1.758 0 0 1-1.922.328 5.952 5.952 0 0 0-1.262-.615 3.481 3.481 0 0 0-2.633.36.131.131 0 0 0 .132.227z" class="cls-1" transform="translate(-672.921 -747.114)"/>
                </g>
                <g id="Group_11" transform="translate(25.426 23.81)">
                    <path id="Path_18" d="M681.928 748.339a3.539 3.539 0 0 0 2.4 1.35 7.458 7.458 0 0 0 1.514.049 1.245 1.245 0 0 0 .981-.452c.1-.139-.129-.269-.227-.134a1.179 1.179 0 0 1-.985.333 7.718 7.718 0 0 1-1.358-.07 3.231 3.231 0 0 1-2.1-1.208c-.1-.132-.329 0-.227.132z" class="cls-1" transform="translate(-681.902 -748.152)"/>
                </g>
                <g id="Group_12" transform="translate(30.721 23.45)">
                    <path id="Path_19" d="M685.351 752.321c.562-.24 1.208-.1 1.766-.367a2.543 2.543 0 0 0 1.061-1.118c.29-.535.461-1.125.771-1.648a1.692 1.692 0 0 1 1.64-.98c.165.029.236-.222.07-.253a1.713 1.713 0 0 0-1.5.525 5.007 5.007 0 0 0-.954 1.679 3.026 3.026 0 0 1-1.086 1.495c-.577.342-1.295.183-1.9.44-.155.065-.021.292.132.227z" class="cls-1" transform="translate(-685.15 -747.931)"/>
                </g>
                <g id="Group_13" transform="translate(6.801 7.846)">
                    <path id="Path_20" d="M670.857 739.146a.393.393 0 0 0 0-.786.393.393 0 0 0 0 .786z" class="cls-1" transform="translate(-670.477 -738.36)"/>
                </g>
                <g id="Group_14" transform="translate(13.11 9.562)">
                    <path id="Path_21" d="M674.727 740.2a.393.393 0 0 0 0-.786.393.393 0 0 0 0 .786z" class="cls-1" transform="translate(-674.347 -739.413)"/>
                </g>
                <g id="Group_15" transform="translate(13.413 11.985)">
                    <path id="Path_22" d="M674.913 741.685a.393.393 0 0 0 0-.786.393.393 0 0 0 0 .786z" class="cls-1" transform="translate(-674.533 -740.899)"/>
                </g>
                <g id="Group_16" transform="translate(17.551 11.277)">
                    <path id="Path_23" d="M677.451 741.251a.393.393 0 0 0 0-.786.393.393 0 0 0 0 .786z" class="cls-1" transform="translate(-677.071 -740.465)"/>
                </g>
                <g id="Group_17" transform="translate(8.517 5.12)">
                    <path id="Path_24" d="M671.91 737.475a.394.394 0 0 0 0-.787.394.394 0 0 0 0 .787z" class="cls-1" transform="translate(-671.53 -736.688)"/>
                </g>
                <g id="Group_18" transform="translate(8.87 11.025)">
                    <path id="Path_25" d="M672.125 741.1a.394.394 0 0 0 0-.787.394.394 0 0 0 0 .787z" class="cls-1" transform="translate(-671.746 -740.31)"/>
                </g>
                <g id="Group_19" transform="translate(4.227 10.268)">
                    <path id="Path_26" d="M669.278 740.632a.393.393 0 0 0 0-.786.393.393 0 0 0 0 .786z" class="cls-1" transform="translate(-668.898 -739.846)"/>
                </g>
                <g id="Group_20" transform="translate(23.506 12.185)">
                    <path id="Path_27" d="M681.1 741.809a.394.394 0 0 0 0-.787.394.394 0 0 0 0 .787z" class="cls-1" transform="translate(-680.724 -741.022)"/>
                </g>
                <g id="Group_21" transform="translate(25.627 13.196)">
                    <path id="Path_28" d="M682.4 742.428a.393.393 0 0 0 0-.786.393.393 0 0 0 0 .786z" class="cls-1" transform="translate(-682.025 -741.642)"/>
                </g>
                <g id="Group_22" transform="translate(27.544 11.884)">
                    <path id="Path_29" d="M683.581 741.623a.393.393 0 0 0 0-.786.393.393 0 0 0 0 .786z" class="cls-1" transform="translate(-683.201 -740.837)"/>
                </g>
                <g id="Group_23" transform="translate(34.257 8.754)">
                    <path id="Path_30" d="M687.7 739.7a.394.394 0 0 0 0-.787.394.394 0 0 0 0 .787z" class="cls-1" transform="translate(-687.319 -738.917)"/>
                </g>
                <g id="Group_24" transform="translate(31.935 11.277)">
                    <path id="Path_31" d="M686.273 741.251a.393.393 0 0 0 0-.786.393.393 0 0 0 0 .786z" class="cls-1" transform="translate(-685.895 -740.465)"/>
                </g>
                <g id="Group_25" transform="translate(39.859 7.896)">
                    <path id="Path_32" d="M691.135 739.177a.393.393 0 0 0 0-.786.393.393 0 0 0 0 .786z" class="cls-1" transform="translate(-690.755 -738.391)"/>
                </g>
                <g id="Group_26" transform="translate(39.052 11.277)">
                    <path id="Path_33" d="M690.64 741.251a.393.393 0 0 0 0-.786.393.393 0 0 0 0 .786z" class="cls-1" transform="translate(-690.26 -740.465)"/>
                </g>
                <g id="Group_27" transform="translate(43.998 7.593)">
                    <path id="Path_34" d="M693.674 738.992a.394.394 0 0 0 0-.787.394.394 0 0 0 0 .787z" class="cls-1" transform="translate(-693.294 -738.205)"/>
                </g>
                <g id="Group_28" transform="translate(36.276 12.842)">
                    <path id="Path_35" d="M688.937 742.211a.393.393 0 0 0 0-.786.393.393 0 0 0 0 .786z" class="cls-1" transform="translate(-688.557 -741.425)"/>
                </g>
                <g id="Group_29" transform="translate(14.858 21.012)">
                    <path id="Path_36" d="M675.8 747.223a.394.394 0 0 0 0-.788.394.394 0 0 0 0 .788z" class="cls-1" transform="translate(-675.419 -746.436)"/>
                </g>
                <g id="Group_30" transform="translate(16.729 18.045)">
                    <path id="Path_37" d="M676.947 745.4a.393.393 0 0 0 0-.786.393.393 0 0 0 0 .786z" class="cls-1" transform="translate(-676.567 -744.616)"/>
                </g>
                <g id="Group_31" transform="translate(19.085 19.593)">
                    <path id="Path_38" d="M678.392 746.352a.393.393 0 0 0 0-.786.393.393 0 0 0 0 .786z" class="cls-1" transform="translate(-678.012 -745.566)"/>
                </g>
                <g id="Group_32" transform="translate(19.762 16.075)">
                    <path id="Path_39" d="M678.808 744.2a.394.394 0 0 0 0-.787.394.394 0 0 0 0 .787z" class="cls-1" transform="translate(-678.428 -743.408)"/>
                </g>
                <g id="Group_33" transform="translate(20.343 13.302)">
                    <path id="Path_40" d="M679.164 742.493a.393.393 0 0 0 0-.786.393.393 0 0 0 0 .786z" class="cls-1" transform="translate(-678.784 -741.707)"/>
                </g>
                <g id="Group_34" transform="translate(29.248 15.011)">
                    <path id="Path_41" d="M684.626 743.542a.394.394 0 0 0 0-.787.394.394 0 0 0 0 .787z" class="cls-1" transform="translate(-684.246 -742.755)"/>
                </g>
                <g id="Group_35" transform="translate(31.377 17.076)">
                    <path id="Path_42" d="M685.932 744.808a.393.393 0 0 0 0-.786.393.393 0 0 0 0 .786z" class="cls-1" transform="translate(-685.552 -744.022)"/>
                </g>
                <g id="Group_36" transform="translate(30.087 19.593)">
                    <path id="Path_43" d="M685.141 746.352a.393.393 0 0 0 0-.786.393.393 0 0 0 0 .786z" class="cls-1" transform="translate(-684.761 -745.566)"/>
                </g>
                <g id="Group_37" transform="translate(32.41 20.56)">
                    <path id="Path_44" d="M686.566 746.946a.394.394 0 0 0 0-.788.394.394 0 0 0 0 .788z" class="cls-1" transform="translate(-686.186 -746.159)"/>
                </g>
                <g id="Group_38" transform="translate(31.054 23.98)">
                    <path id="Path_45" d="M685.734 749.044a.394.394 0 0 0 0-.787.394.394 0 0 0 0 .787z" class="cls-1" transform="translate(-685.354 -748.257)"/>
                </g>
                <g id="Group_39" transform="translate(33.539 22.883)">
                    <path id="Path_46" d="M687.258 748.372a.394.394 0 0 0 0-.788.394.394 0 0 0 0 .788z" class="cls-1" transform="translate(-686.878 -747.584)"/>
                </g>
                <g id="Group_40" transform="translate(26.957 21.69)">
                    <path id="Path_47" d="M683.221 747.638a.393.393 0 0 0 0-.786.393.393 0 0 0 0 .786z" class="cls-1" transform="translate(-682.841 -746.852)"/>
                </g>
                <g id="Group_41" transform="translate(29.248 22.691)">
                    <path id="Path_48" d="M684.626 748.252a.393.393 0 0 0 0-.786.393.393 0 0 0 0 .786z" class="cls-1" transform="translate(-684.246 -747.466)"/>
                </g>
                <g id="Group_42" transform="translate(28.893 19.916)">
                    <path id="Path_49" d="M684.408 746.55a.393.393 0 0 0 0-.786.393.393 0 0 0 0 .786z" class="cls-1" transform="translate(-684.028 -745.764)"/>
                </g>
                <g id="Group_43" transform="translate(28.087 16.947)">
                    <path id="Path_50" d="M683.914 744.729a.393.393 0 0 0 0-.786.393.393 0 0 0 0 .786z" class="cls-1" transform="translate(-683.534 -743.943)"/>
                </g>
                <g id="Group_70">
                    <g id="Group_44" transform="translate(3.391)">
                        <path id="Path_51" d="M668.442 733.832c1.109.944 2.276 1.808 3.461 2.646 1.209.857 2.422 1.715 3.661 2.527a58.708 58.708 0 0 0 7.578 4.1c1.461.677 2.936 1.321 4.41 1.965.2.085.282-.246.088-.331-2.6-1.135-5.2-2.273-7.721-3.588-1.263-.66-2.507-1.364-3.712-2.134-1.231-.786-2.424-1.63-3.621-2.47-1.337-.937-2.662-1.894-3.909-2.957-.163-.139-.4.1-.235.243z" class="cls-1" transform="translate(-668.386 -733.547)"/>
                    </g>
                    <g id="Group_45" transform="translate(2.86 1.305)">
                        <path id="Path_52" d="M668.114 734.648a36.057 36.057 0 0 0 6.829 5 66.374 66.374 0 0 0 7.61 3.663c1.462.61 2.938 1.188 4.413 1.762.2.078.287-.267.088-.344-2.6-1.012-5.206-2.039-7.745-3.225a47.915 47.915 0 0 1-7.243-4.094 32.615 32.615 0 0 1-3.717-3.018c-.16-.152-.4.1-.235.253z" class="cls-1" transform="translate(-668.06 -734.348)"/>
                    </g>
                    <g id="Group_46" transform="translate(2.278 3.319)">
                        <path id="Path_53" d="M667.793 735.953a76.632 76.632 0 0 0 14.3 7.457 43.47 43.47 0 0 0 4.351 1.358.2.2 0 0 0 .1-.378 57.065 57.065 0 0 1-14.712-6.415c-1.3-.761-2.579-1.554-3.851-2.361-.21-.132-.4.207-.192.339z" class="cls-1" transform="translate(-667.703 -735.584)"/>
                    </g>
                    <g id="Group_47" transform="translate(1.571 4.487)">
                        <path id="Path_54" d="M667.323 736.639c3.614 4.012 8.561 5.995 13.44 7.3 1.5.4 3.011.75 4.522 1.1.225.051.321-.331.094-.383-5.054-1.164-10.256-2.372-14.661-5.507a19.183 19.183 0 0 1-3.143-2.789c-.163-.181-.417.1-.253.28z" class="cls-1" transform="translate(-667.269 -736.3)"/>
                    </g>
                    <g id="Group_48" transform="translate(.604 6.344)">
                        <path id="Path_55" d="M666.749 737.763a38.29 38.29 0 0 0 13.851 6.316 37.436 37.436 0 0 0 4.239.722c.212.024.21-.316 0-.341a37.28 37.28 0 0 1-7.4-1.611 38.031 38.031 0 0 1-10.527-5.38c-.174-.127-.339.168-.166.293z" class="cls-1" transform="translate(-666.676 -737.439)"/>
                    </g>
                    <g id="Group_49" transform="translate(0 8.275)">
                        <path id="Path_56" d="M666.373 738.924a25.781 25.781 0 0 0 6.435 3.453 39.194 39.194 0 0 0 7.1 1.849c1.382.238 2.773.421 4.167.574.2.021.2-.292 0-.315a56.291 56.291 0 0 1-7.274-1.218 31.175 31.175 0 0 1-6.784-2.45 24.285 24.285 0 0 1-3.487-2.163c-.163-.122-.321.15-.16.271z" class="cls-1" transform="translate(-666.305 -738.623)"/>
                    </g>
                    <g id="Group_50" transform="translate(27.236 1.306)">
                        <path id="Path_57" d="M700.285 734.385c-1 .823-2.061 1.573-3.132 2.3s-2.155 1.471-3.259 2.168c-.814.514-1.66.97-2.506 1.426l-.01.015a.835.835 0 0 1-.344.186q-1.937 1.027-3.937 1.925c-1.321.59-2.654 1.153-3.986 1.715-.176.073-.1.364.078.289 2.379-1 4.759-2 7.064-3.166 1.145-.576 2.271-1.192 3.363-1.863 1.133-.7 2.234-1.451 3.336-2.2 1.211-.82 2.411-1.66 3.544-2.589.149-.116-.065-.328-.211-.206z" class="cls-1" transform="translate(-683.012 -734.348)"/>
                    </g>
                    <g id="Group_51" transform="translate(28.354 3.146)">
                        <path id="Path_58" d="M700.242 735.516a31.808 31.808 0 0 1-5.985 4.092 57.787 57.787 0 0 1-6.565 2.931c-1.291.5-2.591.967-3.892 1.436-.181.065-.1.354.08.289 2.313-.835 4.628-1.678 6.888-2.652a41.441 41.441 0 0 0 6.384-3.373 29.887 29.887 0 0 0 3.3-2.511c.145-.127-.067-.337-.212-.212z" class="cls-1" transform="translate(-683.698 -735.477)"/>
                    </g>
                    <g id="Group_52" transform="translate(28.62 4.73)">
                        <path id="Path_59" d="M700.271 736.475a67.2 67.2 0 0 1-12.542 6.383A38.653 38.653 0 0 1 683.98 744c-.209.051-.119.375.09.323a50.823 50.823 0 0 0 12.925-5.494c1.162-.665 2.309-1.356 3.447-2.061.183-.114.015-.4-.17-.29z" class="cls-1" transform="translate(-683.861 -736.449)"/>
                    </g>
                    <g id="Group_53" transform="translate(28.63 5.928)">
                        <path id="Path_60" d="M700.9 737.233a18.735 18.735 0 0 1-6.343 4.359 35.351 35.351 0 0 1-6.756 2.028c-1.257.269-2.521.5-3.79.678-.2.028-.2.364 0 .336a53.18 53.18 0 0 0 7.005-1.457 24.744 24.744 0 0 0 6.7-2.885 17.313 17.313 0 0 0 3.4-2.82c.14-.153-.08-.391-.22-.238z" class="cls-1" transform="translate(-683.867 -737.183)"/>
                    </g>
                    <g id="Group_54" transform="translate(28.63 7.323)">
                        <path id="Path_61" d="M702.622 738.067a30.438 30.438 0 0 1-6.762 3.44 50.853 50.853 0 0 1-7.755 2.24c-1.353.279-2.719.5-4.094.654-.191.021-.192.321 0 .3a48.026 48.026 0 0 0 7.553-1.48 44.676 44.676 0 0 0 7.612-2.81 25.919 25.919 0 0 0 3.6-2.083c.156-.111.007-.37-.152-.259z" class="cls-1" transform="translate(-683.867 -738.04)"/>
                    </g>
                    <g id="Group_55" transform="translate(30.186 8.656)">
                        <path id="Path_62" d="M703.361 738.886a24.445 24.445 0 0 1-6.63 3.381 48.013 48.013 0 0 1-7.63 1.935q-2.059.359-4.138.585c-.189.021-.191.321 0 .3a61.51 61.51 0 0 0 7.547-1.281 37.352 37.352 0 0 0 7.436-2.533 21.076 21.076 0 0 0 3.567-2.128c.152-.116 0-.375-.152-.259z" class="cls-1" transform="translate(-684.821 -738.857)"/>
                    </g>
                    <g id="Group_56" transform="translate(10.463 11.295)">
                        <path id="Path_63" d="M684.859 740.5c-1.174.861-2.563 1.347-3.805 2.087-.236.14-.466.289-.69.452a8.711 8.711 0 0 0-2.884 3.652c-.326.781-.515 1.612-.864 2.383a4.241 4.241 0 0 1-.667 1.068 7.708 7.708 0 0 1-.892.833 7.429 7.429 0 0 0-1.692 1.749 3.522 3.522 0 0 0-.633 2.072c.06.621.463 1.169 1.149 1.047.408-.073.752-.334 1.161-.406a2.27 2.27 0 0 1 1.272.2 6.154 6.154 0 0 1 1.07.655 3.117 3.117 0 0 0 1.037.54 1.093 1.093 0 0 0 .951-.181 1.37 1.37 0 0 0 .43-.722c.166-.588.145-1.369.777-1.677a4.291 4.291 0 0 1 2.118-.01 1.665 1.665 0 0 0 1.655-.7c.377-.73-.051-1.637-.223-2.367a14.949 14.949 0 0 1-.4-2.806 4.466 4.466 0 0 1 .517-2.558c.22-.357.494-.675.729-1.022a3.664 3.664 0 0 0 .5-1.037 3.773 3.773 0 0 0-.041-2.207 3.534 3.534 0 0 0-.507-.99c-.112-.155-.372 0-.258.15a3.429 3.429 0 0 1 .65 2.082 3.609 3.609 0 0 1-.786 2.113 6.954 6.954 0 0 0-.683 1.014 3.809 3.809 0 0 0-.355 1.143 9.061 9.061 0 0 0 .044 2.519 19.7 19.7 0 0 0 .536 2.566 1.963 1.963 0 0 1 .062 1.153.984.984 0 0 1-.747.6c-1.131.266-2.917-.7-3.561.739a4.021 4.021 0 0 0-.231.853 1.931 1.931 0 0 1-.282.8c-.52.68-1.433 0-1.924-.355a3.476 3.476 0 0 0-2.175-.814 3.513 3.513 0 0 0-1.1.342.725.725 0 0 1-.911-.14 2.022 2.022 0 0 1 .121-1.893 5.258 5.258 0 0 1 1.467-1.849 8.9 8.9 0 0 0 1.653-1.593 8.218 8.218 0 0 0 .947-2.185 9.852 9.852 0 0 1 .942-2.134 8.357 8.357 0 0 1 1.469-1.785 19.8 19.8 0 0 1 4.159-2.463 9.555 9.555 0 0 0 1.042-.659c.155-.114.005-.373-.15-.259z" class="cls-1" transform="translate(-672.724 -740.475)"/>
                    </g>
                    <g id="Group_57" transform="translate(22.575 11.101)">
                        <path id="Path_64" d="M680.445 740.765c.015-.081.8-.046.9-.047l.955-.02c.633-.013 1.267-.036 1.9-.036a2.5 2.5 0 0 1 1.669.381 1.812 1.812 0 0 1 .294 1.529 2.733 2.733 0 0 1-.783 1.5c-.137.135.075.346.212.212a3.005 3.005 0 0 0 .838-1.518 2.436 2.436 0 0 0-.192-1.744 2.032 2.032 0 0 0-1.678-.65c-.763-.036-1.534.013-2.3.029l-1.285.026c-.24 0-.761-.078-.825.259-.036.187.253.269.288.08z" class="cls-1" transform="translate(-680.153 -740.357)"/>
                    </g>
                    <g id="Group_58" transform="translate(22.62 14.877)">
                        <path id="Path_65" d="M680.325 743.3a36.567 36.567 0 0 0 4.979-.326c.189-.026.191-.326 0-.3a36.835 36.835 0 0 1-4.979.328.149.149 0 0 0 0 .3z" class="cls-1" transform="translate(-680.18 -742.673)"/>
                    </g>
                    <g id="Group_59" transform="translate(24.084 15.119)">
                        <path id="Path_66" d="M684.071 743.049a5.741 5.741 0 0 1 .082 3.94c-.163.646-.357 1.286-.559 1.921a12.486 12.486 0 0 1-.725 1.862 7.838 7.838 0 0 1-1.094 1.575 2.17 2.17 0 0 0-.69 1.562c.113 1.314 1.5 1.932 2.664 2.015a2.228 2.228 0 0 0 1.091-.179c.339-.157.628-.4.952-.577a3.1 3.1 0 0 1 2.227-.28c.187.046.267-.243.08-.289a3.433 3.433 0 0 0-1.868.057 3.517 3.517 0 0 0-.835.4 3.735 3.735 0 0 1-.882.5 2.974 2.974 0 0 1-1.992-.233 1.822 1.822 0 0 1-1.136-1.41 2.23 2.23 0 0 1 .8-1.578 7.02 7.02 0 0 0 1.027-1.578 20.046 20.046 0 0 0 1.223-3.65 6.072 6.072 0 0 0-.1-4.2c-.085-.173-.343-.021-.258.152z" class="cls-1" transform="translate(-681.079 -742.821)"/>
                    </g>
                    <g id="Group_60" transform="translate(27.599 14.875)">
                        <path id="Path_67" d="M683.3 742.954a5.16 5.16 0 0 1 1.746 2.157 9.88 9.88 0 0 1 .83 3.016 16.619 16.619 0 0 1 .023 3.645 8.644 8.644 0 0 0 .129 3.375 3.286 3.286 0 0 0 1.891 2.189c.181.067.259-.223.08-.289a3 3 0 0 1-1.7-2.033 9.092 9.092 0 0 1-.086-3.425 12.97 12.97 0 0 0-.848-6.5 5.522 5.522 0 0 0-1.914-2.392c-.163-.106-.313.153-.152.258z" class="cls-1" transform="translate(-683.234 -742.672)"/>
                    </g>
                    <g id="Group_61" transform="translate(32.235 24.638)">
                        <path id="Path_68" d="M686.223 753.577a3.486 3.486 0 0 0 2.079-.522 4.349 4.349 0 0 0 1.467-1.736 6.437 6.437 0 0 1 1.275-1.919 1.566 1.566 0 0 1 .926-.439.644.644 0 0 1 .434.108.662.662 0 0 1 .192.522 1.671 1.671 0 0 1-.913 1.757l.17.068a1.565 1.565 0 0 0-1.912-.743c-.178.068-.1.359.08.289a1.267 1.267 0 0 1 1.573.606.15.15 0 0 0 .17.069 1.77 1.77 0 0 0 1.107-1.51 1.791 1.791 0 0 0-.1-1.082.853.853 0 0 0-.8-.383 2.51 2.51 0 0 0-1.792 1.3 16.378 16.378 0 0 1-1.407 2.318 3.192 3.192 0 0 1-2.548.995c-.192-.013-.192.285 0 .3z" class="cls-1" transform="translate(-686.079 -748.66)"/>
                    </g>
                    <g id="Group_62" transform="translate(28.357 14.048)">
                        <path id="Path_69" d="M683.844 742.474a3.063 3.063 0 0 1 2.6 1.319 8.873 8.873 0 0 1 1.3 3.1 9.664 9.664 0 0 0 1.223 2.995 5.434 5.434 0 0 0 2.527 1.845c.9.364 2.269.587 2.685 1.6.072.176.36.1.289-.08a3.187 3.187 0 0 0-2.144-1.534 6.247 6.247 0 0 1-2.918-1.748c-1.487-1.816-1.278-4.438-2.675-6.306a3.38 3.38 0 0 0-2.877-1.5c-.191.016-.192.316 0 .3z" class="cls-1" transform="translate(-683.7 -742.164)"/>
                    </g>
                    <g id="Group_63" transform="translate(23.215 11.229)">
                        <path id="Path_70" d="M680.734 740.73c.132-.02.259.3.3.39.072.14.138.282.2.427a5.185 5.185 0 0 1 .272.915 5.112 5.112 0 0 1 .01 1.947c-.036.188.253.269.289.078a5.4 5.4 0 0 0-.464-3.432c-.139-.28-.312-.672-.686-.613-.189.031-.109.319.08.288z" class="cls-1" transform="translate(-680.546 -740.435)"/>
                    </g>
                    <g id="Group_64" transform="translate(24.45 11.37)">
                        <path id="Path_71" d="M681.339 740.785a3.292 3.292 0 0 1 .641 1.785c.049.546.137 1.35-.3 1.764-.14.134.072.344.212.212a2.43 2.43 0 0 0 .386-1.976 3.63 3.63 0 0 0-.729-2c-.122-.15-.333.062-.212.212z" class="cls-1" transform="translate(-681.303 -740.521)"/>
                    </g>
                    <g id="Group_65" transform="translate(25.311 11.268)">
                        <path id="Path_72" d="M681.876 740.713a2.652 2.652 0 0 1 .313 3.443c-.113.158.148.308.258.152a2.946 2.946 0 0 0-.359-3.805c-.138-.135-.35.077-.212.21z" class="cls-1" transform="translate(-681.831 -740.459)"/>
                    </g>
                    <g id="Group_66" transform="translate(26.145 11.235)">
                        <path id="Path_73" d="M682.417 740.718a1.89 1.89 0 0 1 .784 1.681 3.06 3.06 0 0 1-.6 1.852c-.114.156.147.3.259.152a3.322 3.322 0 0 0 .636-2.123 2.131 2.131 0 0 0-.927-1.821c-.17-.091-.321.166-.152.259z" class="cls-1" transform="translate(-682.342 -740.439)"/>
                    </g>
                    <g id="Group_67" transform="translate(26.966 11.255)">
                        <path id="Path_74" d="M682.947 740.751c.235.093.292.4.326.624.044.3.07.6.09.9a4.685 4.685 0 0 1-.209 1.881c-.064.181.225.259.289.078a5.222 5.222 0 0 0 .2-2.222c-.046-.523-.031-1.322-.615-1.554-.179-.07-.258.218-.08.289z" class="cls-1" transform="translate(-682.846 -740.451)"/>
                    </g>
                    <g id="Group_68" transform="translate(26.112 23.122)">
                        <path id="Path_75" d="M682.345 747.952a2.823 2.823 0 0 0 2.136 1.21 2.27 2.27 0 0 0 2.243-.693c.111-.158-.148-.308-.258-.15a2.04 2.04 0 0 1-1.992.543 2.517 2.517 0 0 1-1.872-1.06.149.149 0 0 0-.258.15z" class="cls-1" transform="translate(-682.322 -747.73)"/>
                    </g>
                    <g id="Group_69" transform="translate(30.3 23.062)">
                        <path id="Path_76" d="M685.036 751.664c.561.029 1.133.315 1.686.08a2.041 2.041 0 0 0 .921-1.056c.29-.574.558-1.159.864-1.723.274-.5.7-1.027 1.332-.965.191.018.189-.282 0-.3a1.517 1.517 0 0 0-1.319.685 10.31 10.31 0 0 0-.879 1.637 3.361 3.361 0 0 1-.884 1.366c-.51.344-1.167.007-1.722-.023-.192-.01-.192.29 0 .3z" class="cls-1" transform="translate(-684.891 -747.694)"/>
                    </g>
                </g>
            </g>
        </g>
    </g>
</svg>
